<?xml version="1.0" encoding="UTF-8"?>
<!DOCTYPE svg  PUBLIC '-//W3C//DTD SVG 1.1//EN'  'http://www.w3.org/Graphics/SVG/1.1/DTD/svg11.dtd'>
<svg width="576pt" height="166pt" version="1.1" viewBox="0 0 576 166" xmlns="http://www.w3.org/2000/svg" xmlns:xlink="http://www.w3.org/1999/xlink">
<defs>
<style type="text/css">*{stroke-linejoin: round; stroke-linecap: butt}</style>
</defs>
<path d="m0 166h576v-166h-576z" fill="#fff"/>
<path d="m46.9 146h526v-111h-526z" fill="#fff"/>
<path d="m232 108v1.75l0.418 0.0878 0.418 0.0925 0.418 0.0978 0.418 0.103 0.418 0.109 0.418 0.115 0.418 0.121 0.418 0.127 0.418 0.132 0.418 0.136 0.418 0.139 0.418 0.141 0.836 0.282 0.418 0.139 0.418 0.136 0.418 0.133 0.418 0.13 1.25 0.38 0.418 0.128 0.418 0.132 0.418 0.137 0.418 0.146 0.418 0.156 0.418 0.169 0.418 0.183 0.418 0.2 0.418 0.218 0.418 0.238 0.418 0.258 0.418 0.28 0.418 0.303 0.418 0.326 0.418 0.349 0.418 0.373 0.418 0.397 0.418 0.42 0.418 0.444 0.418 0.467 0.418 0.489 0.418 0.509 0.418 0.528 0.418 0.545 0.418 0.559 0.418 0.57 0.418 0.576 0.418 0.579 0.418 0.576 0.418 0.569 0.418 0.556 0.418 0.537 0.418 0.512 0.418 0.482 0.418 0.445 0.418 0.404 0.418 0.356 0.418 0.305 0.418 0.248 0.418 0.188 0.418 0.126 0.418 0.0605 0.418-0.00586 0.418-0.0725 0.418-0.139 0.418-0.203 0.418-0.265 0.418-0.324 0.418-0.38 0.418-0.431 0.418-0.477 0.418-0.519 0.418-0.556 0.418-0.587 0.418-0.613 0.418-0.634 0.418-0.65 0.418-0.66 0.836-1.33 0.418-0.664 0.418-0.656 0.418-0.644 0.418-0.629 0.418-0.611 0.418-0.59 0.418-0.567 0.418-0.542 0.418-0.516 0.418-0.489 0.418-0.461 0.418-0.433 0.418-0.405 0.418-0.377 0.418-0.349 0.418-0.322 0.418-0.296 0.418-0.27v-3.7l-0.418-0.27-0.418-0.296-0.418-0.322-0.418-0.349-0.418-0.377-0.418-0.405-0.418-0.433-0.418-0.461-0.418-0.489-0.418-0.516-0.418-0.542-0.418-0.567-0.418-0.59-0.418-0.611-0.418-0.629-0.418-0.644-0.418-0.656-0.418-0.664-0.836-1.33-0.418-0.66-0.418-0.65-0.418-0.634-0.418-0.613-0.418-0.587-0.418-0.556-0.418-0.519-0.418-0.477-0.418-0.431-0.418-0.38-0.418-0.324-0.418-0.265-0.418-0.203-0.418-0.139-0.418-0.0725-0.418-0.00586-0.418 0.0605-0.418 0.126-0.418 0.188-0.418 0.248-0.418 0.305-0.418 0.356-0.418 0.404-0.418 0.445-0.418 0.482-0.418 0.512-0.418 0.537-0.418 0.556-0.418 0.569-0.418 0.576-0.418 0.579-0.418 0.576-0.418 0.57-0.418 0.559-0.418 0.545-0.418 0.528-0.418 0.509-0.418 0.489-0.418 0.467-0.418 0.444-0.418 0.42-0.418 0.397-0.418 0.373-0.418 0.349-0.418 0.326-0.418 0.303-0.418 0.28-0.418 0.258-0.418 0.238-0.418 0.218-0.418 0.2-0.418 0.183-0.418 0.169-0.418 0.156-0.418 0.146-0.418 0.137-0.418 0.132-0.418 0.128-1.25 0.38-0.418 0.13-0.418 0.133-0.418 0.136-1.67 0.561-0.418 0.139-0.418 0.136-0.418 0.132-0.418 0.127-0.418 0.121-0.418 0.115-0.418 0.109-0.418 0.103-0.418 0.0978-0.418 0.0925-0.418 0.0878z" clip-path="url(#a)" fill="#f00" fill-opacity=".3"/>
<path d="m232 71.6v0.528l0.418 0.0991 0.418 0.123 0.418 0.147 0.418 0.166 0.418 0.178 0.418 0.18 0.418 0.175 0.418 0.165 0.418 0.156 0.418 0.151 0.418 0.154 0.418 0.163 0.418 0.175 0.836 0.366 0.418 0.17 0.418 0.144 0.418 0.109 0.418 0.0687 0.418 0.032 0.418 0.00525 0.418-0.0069 0.418-0.00302 0.418 0.0153 0.418 0.0443 0.418 0.0792 0.418 0.115 0.418 0.149 0.418 0.179 0.418 0.204 0.418 0.225 0.418 0.242 0.418 0.257 0.418 0.271 0.418 0.286 0.418 0.302 0.418 0.321 0.418 0.343 0.418 0.366 0.418 0.388 0.418 0.407 0.418 0.426 0.418 0.447 0.418 0.474 0.418 0.51 0.418 0.553 0.418 0.6 0.418 0.645 0.418 0.681 0.418 0.701 0.418 0.702 0.418 0.681 0.418 0.64 0.418 0.584 0.418 0.524 0.418 0.469 0.418 0.428 0.418 0.403 0.418 0.388 0.418 0.373 0.418 0.345 0.418 0.29 0.418 0.201 0.418 0.0791 0.418-0.0667 0.418-0.218 0.418-0.355 0.418-0.458 0.418-0.52 0.418-0.542 0.418-0.539 0.418-0.528 0.418-0.523 0.418-0.534 0.418-0.563 0.418-0.604 0.418-0.65 0.418-0.695 0.418-0.732 0.418-0.757 0.418-0.769 0.418-0.763 0.418-0.74 0.418-0.699 0.418-0.644 0.418-0.581 0.418-0.519 0.418-0.467 0.418-0.431 0.418-0.416 0.418-0.418 0.418-0.431 0.418-0.445 0.418-0.452 0.418-0.443 0.418-0.417 0.418-0.375 0.418-0.322 0.418-0.262v-1.28l-0.418-0.262-0.418-0.322-0.418-0.375-0.418-0.417-0.418-0.443-0.418-0.452-0.418-0.445-0.418-0.431-0.418-0.418-0.418-0.416-0.418-0.431-0.418-0.467-0.418-0.519-0.418-0.581-0.418-0.644-0.418-0.699-0.418-0.74-0.418-0.763-0.418-0.769-0.418-0.757-0.418-0.732-0.418-0.695-0.418-0.65-0.418-0.604-0.418-0.563-0.418-0.534-0.418-0.523-0.418-0.528-0.418-0.539-0.418-0.542-0.418-0.52-0.418-0.458-0.418-0.355-0.418-0.218-0.418-0.0667-0.418 0.0791-0.418 0.201-0.418 0.29-0.418 0.345-0.418 0.373-0.418 0.388-0.418 0.403-0.418 0.428-0.418 0.469-0.418 0.524-0.418 0.584-0.418 0.64-0.418 0.681-0.418 0.702-0.418 0.701-0.418 0.681-0.418 0.645-0.418 0.6-0.418 0.553-0.418 0.51-0.418 0.474-0.418 0.447-0.418 0.426-0.418 0.407-0.418 0.388-0.418 0.366-0.418 0.343-0.418 0.321-0.418 0.302-0.418 0.286-0.418 0.271-0.418 0.257-0.418 0.242-0.418 0.225-0.418 0.204-0.418 0.179-0.418 0.149-0.418 0.115-0.418 0.0792-0.418 0.0443-0.418 0.0153-0.418-0.00302-0.418-0.0069-0.418 0.00525-0.418 0.032-0.418 0.0687-0.418 0.109-0.418 0.144-0.418 0.17-0.836 0.366-0.418 0.175-0.418 0.163-0.418 0.154-0.418 0.151-0.418 0.156-0.418 0.165-0.418 0.175-0.418 0.18-0.418 0.178-0.418 0.166-0.418 0.147-0.418 0.123-0.418 0.0991z" clip-path="url(#a)" fill="#1f77b4" fill-opacity=".3"/>
<path d="m99.5 146v-111" clip-path="url(#a)" fill="none" stroke="#b0b0b0" stroke-linecap="square" stroke-width=".8"/>
<defs>
<path id="i" d="m0 0v3.5" stroke="#000" stroke-width=".8"/>
</defs>
<use x="99.48488" y="145.921635" stroke="#000000" stroke-width=".8" xlink:href="#i"/>
<defs>
<path id="j" d="m0 0v-3.5" stroke="#000" stroke-width=".8"/>
</defs>
<use x="99.48488" y="34.79649" stroke="#000000" stroke-width=".8" xlink:href="#j"/>
<!-- 0.80× -->
<g transform="translate(84.2 161) scale(.1 -.1)">
<defs>
<path id="b" transform="scale(.0156)" d="m2034 4250q-487 0-733-480-245-479-245-1442 0-959 245-1439 246-480 733-480 491 0 736 480 246 480 246 1439 0 963-246 1442-245 480-736 480zm0 500q785 0 1199-621 414-620 414-1801 0-1178-414-1799-414-620-1199-620-784 0-1198 620-414 621-414 1799 0 1181 414 1801 414 621 1198 621z"/>
<path id="c" transform="scale(.0156)" d="m684 794h660v-794h-660v794z"/>
<path id="n" transform="scale(.0156)" d="m2034 2216q-450 0-708-241-257-241-257-662 0-422 257-663 258-241 708-241t709 242q260 243 260 662 0 421-258 662-257 241-711 241zm-631 268q-406 100-633 378-226 279-226 679 0 559 398 884 399 325 1092 325 697 0 1094-325t397-884q0-400-227-679-226-278-629-378 456-106 710-416 255-309 255-755 0-679-414-1042-414-362-1186-362-771 0-1186 362-414 363-414 1042 0 446 256 755 257 310 713 416zm-231 997q0-362 226-565 227-203 636-203 407 0 636 203 230 203 230 565 0 363-230 566-229 203-636 203-409 0-636-203-226-203-226-566z"/>
<path id="d" transform="scale(.0156)" d="m4488 3438-1429-1435 1429-1428-372-378-1435 1434-1434-1434-369 378 1425 1428-1425 1435 369 378 1434-1435 1435 1435 372-378z"/>
</defs>
<use xlink:href="#b"/>
<use x="63.623047" xlink:href="#c"/>
<use x="95.410156" xlink:href="#n"/>
<use x="159.033203" xlink:href="#b"/>
<use x="222.65625" xlink:href="#d"/>
</g>
<!-- 0.80× -->
<g transform="translate(84.2 25.7) scale(.1 -.1)">
<use xlink:href="#b"/>
<use x="63.623047" xlink:href="#c"/>
<use x="95.410156" xlink:href="#n"/>
<use x="159.033203" xlink:href="#b"/>
<use x="222.65625" xlink:href="#d"/>
</g>
<path d="m205 146v-111" clip-path="url(#a)" fill="none" stroke="#b0b0b0" stroke-linecap="square" stroke-width=".8"/>
<use x="204.710409" y="145.921635" stroke="#000000" stroke-width=".8" xlink:href="#i"/>
<use x="204.710409" y="34.79649" stroke="#000000" stroke-width=".8" xlink:href="#j"/>
<!-- 0.90× -->
<g transform="translate(189 161) scale(.1 -.1)">
<defs>
<path id="g" transform="scale(.0156)" d="m703 97v575q238-113 481-172 244-59 479-59 625 0 954 420 330 420 377 1277-181-269-460-413-278-144-615-144-700 0-1108 423-408 424-408 1159 0 718 425 1152 425 435 1131 435 810 0 1236-621 427-620 427-1801 0-1103-524-1761-523-658-1407-658-238 0-482 47-243 47-506 141zm1256 1978q425 0 673 290 249 291 249 798 0 503-249 795-248 292-673 292t-673-292-248-795q0-507 248-798 248-290 673-290z"/>
</defs>
<use xlink:href="#b"/>
<use x="63.623047" xlink:href="#c"/>
<use x="95.410156" xlink:href="#g"/>
<use x="159.033203" xlink:href="#b"/>
<use x="222.65625" xlink:href="#d"/>
</g>
<!-- 0.90× -->
<g transform="translate(189 25.7) scale(.1 -.1)">
<use xlink:href="#b"/>
<use x="63.623047" xlink:href="#c"/>
<use x="95.410156" xlink:href="#g"/>
<use x="159.033203" xlink:href="#b"/>
<use x="222.65625" xlink:href="#d"/>
</g>
<path d="m310 146v-111" clip-path="url(#a)" fill="none" stroke="#b0b0b0" stroke-linecap="square" stroke-width=".8"/>
<use x="309.935938" y="145.921635" stroke="#000000" stroke-width=".8" xlink:href="#i"/>
<use x="309.935938" y="34.79649" stroke="#000000" stroke-width=".8" xlink:href="#j"/>
<!-- 1.00× -->
<g transform="translate(295 161) scale(.1 -.1)">
<defs>
<path id="e" transform="scale(.0156)" d="m794 531h1031v3560l-1122-225v575l1116 225h631v-4135h1031v-531h-2687v531z"/>
</defs>
<use xlink:href="#e"/>
<use x="63.623047" xlink:href="#c"/>
<use x="95.410156" xlink:href="#b"/>
<use x="159.033203" xlink:href="#b"/>
<use x="222.65625" xlink:href="#d"/>
</g>
<!-- 1.00× -->
<g transform="translate(295 25.7) scale(.1 -.1)">
<use xlink:href="#e"/>
<use x="63.623047" xlink:href="#c"/>
<use x="95.410156" xlink:href="#b"/>
<use x="159.033203" xlink:href="#b"/>
<use x="222.65625" xlink:href="#d"/>
</g>
<path d="m415 146v-111" clip-path="url(#a)" fill="none" stroke="#b0b0b0" stroke-linecap="square" stroke-width=".8"/>
<use x="415.161467" y="145.921635" stroke="#000000" stroke-width=".8" xlink:href="#i"/>
<use x="415.161467" y="34.79649" stroke="#000000" stroke-width=".8" xlink:href="#j"/>
<!-- 1.10× -->
<g transform="translate(400 161) scale(.1 -.1)">
<use xlink:href="#e"/>
<use x="63.623047" xlink:href="#c"/>
<use x="95.410156" xlink:href="#e"/>
<use x="159.033203" xlink:href="#b"/>
<use x="222.65625" xlink:href="#d"/>
</g>
<!-- 1.10× -->
<g transform="translate(400 25.7) scale(.1 -.1)">
<use xlink:href="#e"/>
<use x="63.623047" xlink:href="#c"/>
<use x="95.410156" xlink:href="#e"/>
<use x="159.033203" xlink:href="#b"/>
<use x="222.65625" xlink:href="#d"/>
</g>
<path d="m520 146v-111" clip-path="url(#a)" fill="none" stroke="#b0b0b0" stroke-linecap="square" stroke-width=".8"/>
<use x="520.386996" y="145.921635" stroke="#000000" stroke-width=".8" xlink:href="#i"/>
<use x="520.386996" y="34.79649" stroke="#000000" stroke-width=".8" xlink:href="#j"/>
<!-- 1.20× -->
<g transform="translate(505 161) scale(.1 -.1)">
<defs>
<path id="q" transform="scale(.0156)" d="m1228 531h2203v-531h-2962v531q359 372 979 998 621 627 780 809 303 340 423 576 121 236 121 464 0 372-261 606-261 235-680 235-297 0-627-103-329-103-704-313v638q381 153 712 231 332 78 607 78 725 0 1156-363 431-362 431-968 0-288-108-546-107-257-392-607-78-91-497-524-418-433-1181-1211z"/>
</defs>
<use xlink:href="#e"/>
<use x="63.623047" xlink:href="#c"/>
<use x="95.410156" xlink:href="#q"/>
<use x="159.033203" xlink:href="#b"/>
<use x="222.65625" xlink:href="#d"/>
</g>
<!-- 1.20× -->
<g transform="translate(505 25.7) scale(.1 -.1)">
<use xlink:href="#e"/>
<use x="63.623047" xlink:href="#c"/>
<use x="95.410156" xlink:href="#q"/>
<use x="159.033203" xlink:href="#b"/>
<use x="222.65625" xlink:href="#d"/>
</g>
<path d="m46.9 109h526" clip-path="url(#a)" fill="none" stroke="#b0b0b0" stroke-linecap="square" stroke-width=".8"/>
<defs>
<path id="t" d="m0 0h-3.5" stroke="#000" stroke-width=".8"/>
</defs>
<use x="46.872115" y="108.87992" stroke="#000000" stroke-width=".8" xlink:href="#t"/>
<!-- hexiom -->
<g transform="translate(3 113) scale(.1 -.1)">
<defs>
<path id="y" transform="scale(.0156)" d="m3513 2113v-2113h-575v2094q0 497-194 743-194 247-581 247-466 0-735-297-269-296-269-809v-1978h-578v4863h578v-1907q207 316 486 472 280 156 646 156 603 0 912-373 310-373 310-1098z"/>
<path id="k" transform="scale(.0156)" d="m3597 1894v-281h-2644q38-594 358-905t892-311q331 0 642 81t618 244v-544q-310-131-635-200t-659-69q-838 0-1327 487-489 488-489 1320 0 859 464 1363 464 505 1252 505 706 0 1117-455 411-454 411-1235zm-575 169q-6 471-264 752-258 282-683 282-481 0-770-272t-333-766l2050 4z"/>
<path id="ad" transform="scale(.0156)" d="m3513 3500-1266-1703 1331-1797h-678l-1019 1375-1018-1375h-679l1360 1831-1244 1669h678l928-1247 928 1247h679z"/>
<path id="r" transform="scale(.0156)" d="m603 3500h575v-3500h-575v3500zm0 1363h575v-729h-575v729z"/>
<path id="p" transform="scale(.0156)" d="m1959 3097q-462 0-731-361t-269-989 267-989q268-361 733-361 460 0 728 362 269 363 269 988 0 622-269 986-268 364-728 364zm0 487q750 0 1178-488 429-487 429-1349 0-859-429-1349-428-489-1178-489-753 0-1180 489-426 490-426 1349 0 862 426 1349 427 488 1180 488z"/>
<path id="x" transform="scale(.0156)" d="m3328 2828q216 388 516 572t706 184q547 0 844-383 297-382 297-1088v-2113h-578v2094q0 503-179 746-178 244-543 244-447 0-707-297-259-296-259-809v-1978h-578v2094q0 506-178 748t-550 242q-441 0-701-298-259-298-259-808v-1978h-578v3500h578v-544q197 322 472 475t653 153q382 0 649-194 267-193 395-562z"/>
</defs>
<use xlink:href="#y"/>
<use x="63.378906" xlink:href="#k"/>
<use x="123.152344" xlink:href="#ad"/>
<use x="182.332031" xlink:href="#r"/>
<use x="210.115234" xlink:href="#p"/>
<use x="271.296875" xlink:href="#x"/>
</g>
<path d="m46.9 71.8h526" clip-path="url(#a)" fill="none" stroke="#b0b0b0" stroke-linecap="square" stroke-width=".8"/>
<use x="46.872115" y="71.838205" stroke="#000000" stroke-width=".8" xlink:href="#t"/>
<!-- ALL -->
<g transform="translate(21.9 75.6) scale(.1 -.1)">
<defs>
<path id="ak" transform="scale(.0156)" d="m2188 4044-857-2322h1716l-859 2322zm-357 622h716l1778-4666h-656l-425 1197h-2103l-425-1197h-666l1781 4666z"/>
<path id="z" transform="scale(.0156)" d="m628 4666h631v-4135h2272v-531h-2903v4666z"/>
</defs>
<use xlink:href="#ak"/>
<use x="68.408203" xlink:href="#z"/>
<use x="124.121094" xlink:href="#z"/>
</g>
<path d="m310 146v-111" clip-path="url(#a)" fill="none" stroke="#1f77b4" stroke-linecap="square" stroke-width="1.5"/>
<g fill="none" stroke="#1f77b4" stroke-width="1.5">
<path d="m257 118v-18.5" clip-path="url(#a)"/>
<path d="m257 81.1v-18.5" clip-path="url(#a)"/>
</g>
<g fill="none" stroke="#1f77b4" stroke-width="1.5">
<path d="m274 118v-18.5" clip-path="url(#a)"/>
<path d="m274 81.1v-18.5" clip-path="url(#a)"/>
</g>
<g fill="none" stroke="#1f77b4" stroke-width="1.5">
<path d="m232 118v-18.5" clip-path="url(#a)"/>
<path d="m232 81.1v-18.5" clip-path="url(#a)"/>
</g>
<g fill="none" stroke="#1f77b4" stroke-width="1.5">
<path d="m232 109h41.4" clip-path="url(#a)"/>
<path d="m232 71.8h41.4" clip-path="url(#a)"/>
</g>
<g fill="none" stroke="#1f77b4" stroke-dasharray="1.5,2.475" stroke-width="1.5">
<path d="m246 118v-18.5" clip-path="url(#a)"/>
<path d="m266 118v-18.5" clip-path="url(#a)"/>
<path d="m246 81.1v-18.5" clip-path="url(#a)"/>
<path d="m266 81.1v-18.5" clip-path="url(#a)"/>
</g>
<path d="m46.9 146v-111" fill="none" stroke="#000" stroke-linecap="square" stroke-width=".8"/>
<path d="m573 146v-111" fill="none" stroke="#000" stroke-linecap="square" stroke-width=".8"/>
<path d="m46.9 146h526" fill="none" stroke="#000" stroke-linecap="square" stroke-width=".8"/>
<path d="m46.9 34.8h526" fill="none" stroke="#000" stroke-linecap="square" stroke-width=".8"/>
<!-- 0.9494 -->
<g transform="translate(257 97.8) scale(.08 -.08)">
<defs>
<path id="h" transform="scale(.0156)" d="m2419 4116-1594-2491h1594v2491zm-166 550h794v-3041h666v-525h-666v-1100h-628v1100h-2106v609l1940 2957z"/>
</defs>
<use xlink:href="#b"/>
<use x="63.623047" xlink:href="#c"/>
<use x="95.410156" xlink:href="#g"/>
<use x="159.033203" xlink:href="#h"/>
<use x="222.65625" xlink:href="#g"/>
<use x="286.279297" xlink:href="#h"/>
</g>
<!-- 0.9494 -->
<g transform="translate(257 60.7) scale(.08 -.08)">
<use xlink:href="#b"/>
<use x="63.623047" xlink:href="#c"/>
<use x="95.410156" xlink:href="#g"/>
<use x="159.033203" xlink:href="#h"/>
<use x="222.65625" xlink:href="#g"/>
<use x="286.279297" xlink:href="#h"/>
</g>
<!-- faster ⟶ -->
<g transform="translate(320 34.8) scale(.1 -.1)">
<defs>
<path id="f" transform="scale(.0156)" d="m2375 4863v-479h-550q-309 0-430-125-120-125-120-450v-309h947v-447h-947v-3053h-578v3053h-550v447h550v244q0 584 272 851 272 268 862 268h544z"/>
<path id="m" transform="scale(.0156)" d="m2194 1759q-697 0-966-159t-269-544q0-306 202-486 202-179 548-179 479 0 768 339t289 901v128h-572zm1147 238v-2e3h-575v531q-197-318-491-470t-719-152q-537 0-855 302-317 302-317 808 0 590 395 890 396 300 1180 300h807v57q0 397-261 614t-733 217q-300 0-585-72-284-72-546-216v532q315 122 612 182 297 61 578 61 760 0 1135-394 375-393 375-1193z"/>
<path id="o" transform="scale(.0156)" d="m2834 3397v-544q-243 125-506 187-262 63-544 63-428 0-642-131t-214-394q0-200 153-314t616-217l197-44q612-131 870-370t258-667q0-488-386-773-386-284-1061-284-281 0-586 55t-642 164v594q319-166 628-249 309-82 613-82 406 0 624 139 219 139 219 392 0 234-158 359-157 125-692 241l-200 47q-534 112-772 345-237 233-237 639 0 494 350 762 350 269 994 269 318 0 599-47 282-46 519-140z"/>
<path id="u" transform="scale(.0156)" d="m1172 4494v-994h1184v-447h-1184v-1900q0-428 117-550t477-122h590v-481h-590q-666 0-919 248-253 249-253 905v1900h-422v447h422v994h578z"/>
<path id="v" transform="scale(.0156)" d="m2631 2963q-97 56-211 82-114 27-251 27-488 0-749-317t-261-911v-1844h-578v3500h578v-544q182 319 472 473 291 155 707 155 59 0 131-8 72-7 159-23l3-590z"/>
<path id="am" transform="scale(.0156)" d="m8863 2147v-281l-1229-1228-375 375 729 728h-7622v531h7622l-729 728 375 375 1229-1228z"/>
</defs>
<use xlink:href="#f"/>
<use x="35.205078" xlink:href="#m"/>
<use x="96.484375" xlink:href="#o"/>
<use x="148.583984" xlink:href="#u"/>
<use x="187.792969" xlink:href="#k"/>
<use x="249.316406" xlink:href="#v"/>
<use x="290.429688" xlink:href="#DejaVuSans-20"/>
<use x="322.216797" xlink:href="#am"/>
</g>
<!-- ⟵ slower -->
<g transform="translate(250 34.8) scale(.1 -.1)">
<defs>
<path id="an" transform="scale(.0156)" d="m313 1866v281l1228 1228 375-375-728-728h7621v-531h-7621l728-728-375-375-1228 1228z"/>
<path id="ah" transform="scale(.0156)" d="m603 4863h575v-4863h-575v4863z"/>
<path id="ae" transform="scale(.0156)" d="m269 3500h575l719-2731 715 2731h678l719-2731 716 2731h575l-916-3500h-678l-753 2869-756-2869h-679l-915 3500z"/>
</defs>
<use xlink:href="#an"/>
<use x="143.359375" xlink:href="#DejaVuSans-20"/>
<use x="175.146484" xlink:href="#o"/>
<use x="227.246094" xlink:href="#ah"/>
<use x="255.029297" xlink:href="#p"/>
<use x="316.210938" xlink:href="#ae"/>
<use x="397.998047" xlink:href="#k"/>
<use x="459.521484" xlink:href="#v"/>
</g>
<!-- Timings of python-fcca08ec2f48f4ba5ba1-fcca08e vs. 3.13.0b2 -->
<g transform="translate(120 12.1) scale(.12 -.12)">
<defs>
<path id="aj" transform="scale(.0156)" d="m-19 4666h3947v-532h-1656v-4134h-634v4134h-1657v532z"/>
<path id="w" transform="scale(.0156)" d="m3513 2113v-2113h-575v2094q0 497-194 743-194 247-581 247-466 0-735-297-269-296-269-809v-1978h-578v3500h578v-544q207 316 486 472 280 156 646 156 603 0 912-373 310-373 310-1098z"/>
<path id="ai" transform="scale(.0156)" d="m2906 1791q0 625-258 968-257 344-723 344-462 0-720-344-258-343-258-968 0-622 258-966t720-344q466 0 723 344 258 344 258 966zm575-1357q0-893-397-1329-396-436-1215-436-303 0-572 45t-522 139v559q253-137 500-202 247-66 503-66 566 0 847 295t281 892v285q-178-310-456-463t-666-153q-643 0-1037 490-394 491-394 1301 0 812 394 1302 394 491 1037 491 388 0 666-153t456-462v531h575v-3066z"/>
<path id="ag" transform="scale(.0156)" d="m1159 525v-1856h-578v4831h578v-531q182 312 458 463 277 152 661 152 638 0 1036-506 399-506 399-1331t-399-1332q-398-506-1036-506-384 0-661 152-276 152-458 464zm1957 1222q0 634-261 995t-717 361q-457 0-718-361t-261-995 261-995 718-361q456 0 717 361t261 995z"/>
<path id="ac" transform="scale(.0156)" d="m2059-325q-243-625-475-815-231-191-618-191h-460v481h338q237 0 368 113 132 112 291 531l103 262-1415 3444h609l1094-2737 1094 2737h609l-1538-3825z"/>
<path id="ab" transform="scale(.0156)" d="m313 2009h1684v-512h-1684v512z"/>
<path id="l" transform="scale(.0156)" d="m3122 3366v-538q-244 135-489 202t-495 67q-560 0-870-355-309-354-309-995t309-996q310-354 870-354 250 0 495 67t489 202v-532q-241-112-499-168-257-57-548-57-791 0-1257 497-465 497-465 1341 0 856 470 1346 471 491 1290 491 265 0 518-55 253-54 491-163z"/>
<path id="s" transform="scale(.0156)" d="m3116 1747q0 634-261 995t-717 361q-457 0-718-361t-261-995 261-995 718-361q456 0 717 361t261 995zm-1957 1222q182 312 458 463 277 152 661 152 638 0 1036-506 399-506 399-1331t-399-1332q-398-506-1036-506-384 0-661 152-276 152-458 464v-525h-578v4863h578v-1894z"/>
<path id="al" transform="scale(.0156)" d="m691 4666h2478v-532h-1900v-1143q137 47 274 70 138 23 276 23 781 0 1237-428 457-428 457-1159 0-753-469-1171-469-417-1322-417-294 0-599 50-304 50-629 150v635q281-153 581-228t634-75q541 0 856 284 316 284 316 772 0 487-316 771-315 285-856 285-253 0-505-56-251-56-513-175v2344z"/>
<path id="af" transform="scale(.0156)" d="m191 3500h609l1094-2937 1094 2937h609l-1313-3500h-781l-1312 3500z"/>
<path id="aa" transform="scale(.0156)" d="m2597 2516q453-97 707-404 255-306 255-756 0-690-475-1069-475-378-1350-378-293 0-604 58t-642 174v609q262-153 574-231 313-78 654-78 593 0 904 234t311 681q0 413-289 645-289 233-804 233h-544v519h569q465 0 712 186t247 536q0 359-255 551-254 193-729 193-260 0-557-57-297-56-653-174v562q360 100 674 150t592 50q719 0 1137-327 419-326 419-882 0-388-222-655t-631-370z"/>
</defs>
<use xlink:href="#aj"/>
<use x="57.958984" xlink:href="#r"/>
<use x="85.742188" xlink:href="#x"/>
<use x="183.154297" xlink:href="#r"/>
<use x="210.9375" xlink:href="#w"/>
<use x="274.316406" xlink:href="#ai"/>
<use x="337.792969" xlink:href="#o"/>
<use x="389.892578" xlink:href="#DejaVuSans-20"/>
<use x="421.679688" xlink:href="#p"/>
<use x="482.861328" xlink:href="#f"/>
<use x="518.066406" xlink:href="#DejaVuSans-20"/>
<use x="549.853516" xlink:href="#ag"/>
<use x="613.330078" xlink:href="#ac"/>
<use x="672.509766" xlink:href="#u"/>
<use x="711.71875" xlink:href="#y"/>
<use x="775.097656" xlink:href="#p"/>
<use x="836.279297" xlink:href="#w"/>
<use x="899.658203" xlink:href="#ab"/>
<use x="935.742188" xlink:href="#f"/>
<use x="970.947266" xlink:href="#l"/>
<use x="1025.927734" xlink:href="#l"/>
<use x="1080.908203" xlink:href="#m"/>
<use x="1142.1875" xlink:href="#b"/>
<use x="1205.810547" xlink:href="#n"/>
<use x="1269.433594" xlink:href="#k"/>
<use x="1330.957031" xlink:href="#l"/>
<use x="1385.9375" xlink:href="#q"/>
<use x="1449.560547" xlink:href="#f"/>
<use x="1484.765625" xlink:href="#h"/>
<use x="1548.388672" xlink:href="#n"/>
<use x="1612.011719" xlink:href="#f"/>
<use x="1647.216797" xlink:href="#h"/>
<use x="1710.839844" xlink:href="#s"/>
<use x="1774.316406" xlink:href="#m"/>
<use x="1835.595703" xlink:href="#al"/>
<use x="1899.21875" xlink:href="#s"/>
<use x="1962.695312" xlink:href="#m"/>
<use x="2023.974609" xlink:href="#e"/>
<use x="2087.597656" xlink:href="#ab"/>
<use x="2123.681641" xlink:href="#f"/>
<use x="2158.886719" xlink:href="#l"/>
<use x="2213.867188" xlink:href="#l"/>
<use x="2268.847656" xlink:href="#m"/>
<use x="2330.126953" xlink:href="#b"/>
<use x="2393.75" xlink:href="#n"/>
<use x="2457.373047" xlink:href="#k"/>
<use x="2518.896484" xlink:href="#DejaVuSans-20"/>
<use x="2550.683594" xlink:href="#af"/>
<use x="2609.863281" xlink:href="#o"/>
<use x="2661.962891" xlink:href="#c"/>
<use x="2693.75" xlink:href="#DejaVuSans-20"/>
<use x="2725.537109" xlink:href="#aa"/>
<use x="2789.160156" xlink:href="#c"/>
<use x="2820.947266" xlink:href="#e"/>
<use x="2884.570312" xlink:href="#aa"/>
<use x="2948.193359" xlink:href="#c"/>
<use x="2979.980469" xlink:href="#b"/>
<use x="3043.603516" xlink:href="#s"/>
<use x="3107.080078" xlink:href="#q"/>
</g>
<defs>
<clipPath id="a">
<rect x="46.9" y="34.8" width="526" height="111"/>
</clipPath>
</defs>
</svg>
