<?xml version="1.0" encoding="UTF-8"?>
<!DOCTYPE svg  PUBLIC '-//W3C//DTD SVG 1.1//EN'  'http://www.w3.org/Graphics/SVG/1.1/DTD/svg11.dtd'>
<svg width="576pt" height="1526pt" version="1.1" viewBox="0 0 576 1526" xmlns="http://www.w3.org/2000/svg" xmlns:xlink="http://www.w3.org/1999/xlink">
<defs>
<style type="text/css">*{stroke-linejoin: round; stroke-linecap: butt}</style>
</defs>
<path d="m0 1526h576v-1526h-576z" fill="#fff"/>
<path d="m140 1507h433v-1472h-433z" fill="#fff"/>
<path d="m356 1473v22.3-22.3z" clip-path="url(#a)" fill="#1f77b4" fill-opacity=".3"/>
<path d="m356 1451v22.3-22.3z" clip-path="url(#a)" fill="#1f77b4" fill-opacity=".3"/>
<path d="m356 1429v22.3-22.3z" clip-path="url(#a)" fill="#1f77b4" fill-opacity=".3"/>
<path d="m356 1406v22.3-22.3z" clip-path="url(#a)" fill="#1f77b4" fill-opacity=".3"/>
<path d="m356 1384v22.3-22.3z" clip-path="url(#a)" fill="#f00" fill-opacity=".3"/>
<path d="m356 1362v22.3-22.3z" clip-path="url(#a)" fill="#1f77b4" fill-opacity=".3"/>
<path d="m356 1339v22.3-22.3z" clip-path="url(#a)" fill="#1f77b4" fill-opacity=".3"/>
<path d="m356 1317v22.3-22.3z" clip-path="url(#a)" fill="#1f77b4" fill-opacity=".3"/>
<path d="m356 1295v22.3-22.3z" clip-path="url(#a)" fill="#f00" fill-opacity=".3"/>
<path d="m356 1273v22.3-22.3z" clip-path="url(#a)" fill="#1f77b4" fill-opacity=".3"/>
<path d="m356 1250v22.3-22.3z" clip-path="url(#a)" fill="#1f77b4" fill-opacity=".3"/>
<path d="m356 1228v22.3-22.3z" clip-path="url(#a)" fill="#1f77b4" fill-opacity=".3"/>
<path d="m356 1206v22.3-22.3z" clip-path="url(#a)" fill="#1f77b4" fill-opacity=".3"/>
<path d="m356 1183v22.3-22.3z" clip-path="url(#a)" fill="#1f77b4" fill-opacity=".3"/>
<path d="m356 1161v22.3-22.3z" clip-path="url(#a)" fill="#f00" fill-opacity=".3"/>
<path d="m356 1139v22.3-22.3z" clip-path="url(#a)" fill="#1f77b4" fill-opacity=".3"/>
<path d="m356 1116v22.3-22.3z" clip-path="url(#a)" fill="#1f77b4" fill-opacity=".3"/>
<path d="m356 1094v22.3-22.3z" clip-path="url(#a)" fill="#f00" fill-opacity=".3"/>
<path d="m356 1072v22.3-22.3z" clip-path="url(#a)" fill="#f00" fill-opacity=".3"/>
<path d="m356 1050v22.3-22.3z" clip-path="url(#a)" fill="#1f77b4" fill-opacity=".3"/>
<path d="m356 1027v22.3-22.3z" clip-path="url(#a)" fill="#1f77b4" fill-opacity=".3"/>
<path d="m356 1e3v22.3-22.3z" clip-path="url(#a)" fill="#1f77b4" fill-opacity=".3"/>
<path d="m356 983v22.3-22.3z" clip-path="url(#a)" fill="#1f77b4" fill-opacity=".3"/>
<path d="m356 960v22.3-22.3z" clip-path="url(#a)" fill="#1f77b4" fill-opacity=".3"/>
<path d="m356 938v22.3-22.3z" clip-path="url(#a)" fill="#1f77b4" fill-opacity=".3"/>
<path d="m356 916v22.3-22.3z" clip-path="url(#a)" fill="#1f77b4" fill-opacity=".3"/>
<path d="m356 893v22.3-22.3z" clip-path="url(#a)" fill="#1f77b4" fill-opacity=".3"/>
<path d="m356 871v22.3-22.3z" clip-path="url(#a)" fill="#f00" fill-opacity=".3"/>
<path d="m356 849v22.3-22.3z" clip-path="url(#a)" fill="#1f77b4" fill-opacity=".3"/>
<path d="m356 827v22.3-22.3z" clip-path="url(#a)" fill="#f00" fill-opacity=".3"/>
<path d="m356 804v22.3-22.3z" clip-path="url(#a)" fill="#1f77b4" fill-opacity=".3"/>
<path d="m356 782v22.3-22.3z" clip-path="url(#a)" fill="#1f77b4" fill-opacity=".3"/>
<path d="m356 760v22.3-22.3z" clip-path="url(#a)" fill="#1f77b4" fill-opacity=".3"/>
<path d="m356 737v22.3-22.3z" clip-path="url(#a)" fill="#1f77b4" fill-opacity=".3"/>
<path d="m356 715v22.3-22.3z" clip-path="url(#a)" fill="#1f77b4" fill-opacity=".3"/>
<path d="m356 693v22.3-22.3z" clip-path="url(#a)" fill="#1f77b4" fill-opacity=".3"/>
<path d="m356 670v22.3-22.3z" clip-path="url(#a)" fill="#f00" fill-opacity=".3"/>
<path d="m356 648v22.3-22.3z" clip-path="url(#a)" fill="#1f77b4" fill-opacity=".3"/>
<path d="m356 626v22.3-22.3z" clip-path="url(#a)" fill="#1f77b4" fill-opacity=".3"/>
<path d="m356 603v22.3-22.3z" clip-path="url(#a)" fill="#1f77b4" fill-opacity=".3"/>
<path d="m356 581v22.3-22.3z" clip-path="url(#a)" fill="#1f77b4" fill-opacity=".3"/>
<path d="m356 559v22.3-22.3z" clip-path="url(#a)" fill="#f00" fill-opacity=".3"/>
<path d="m356 537v22.3-22.3z" clip-path="url(#a)" fill="#f00" fill-opacity=".3"/>
<path d="m356 514v22.3-22.3z" clip-path="url(#a)" fill="#1f77b4" fill-opacity=".3"/>
<path d="m356 492v22.3-22.3z" clip-path="url(#a)" fill="#1f77b4" fill-opacity=".3"/>
<path d="m356 470v22.3-22.3z" clip-path="url(#a)" fill="#1f77b4" fill-opacity=".3"/>
<path d="m356 447v22.3-22.3z" clip-path="url(#a)" fill="#1f77b4" fill-opacity=".3"/>
<path d="m356 425v22.3-22.3z" clip-path="url(#a)" fill="#1f77b4" fill-opacity=".3"/>
<path d="m356 403v22.3-22.3z" clip-path="url(#a)" fill="#1f77b4" fill-opacity=".3"/>
<path d="m356 380v22.3-22.3z" clip-path="url(#a)" fill="#1f77b4" fill-opacity=".3"/>
<path d="m356 358v22.3-22.3z" clip-path="url(#a)" fill="#1f77b4" fill-opacity=".3"/>
<path d="m356 336v22.3-22.3z" clip-path="url(#a)" fill="#1f77b4" fill-opacity=".3"/>
<path d="m356 314v22.3-22.3z" clip-path="url(#a)" fill="#1f77b4" fill-opacity=".3"/>
<path d="m356 291v22.3-22.3z" clip-path="url(#a)" fill="#1f77b4" fill-opacity=".3"/>
<path d="m356 269v22.3-22.3z" clip-path="url(#a)" fill="#1f77b4" fill-opacity=".3"/>
<path d="m356 247v22.3-22.3z" clip-path="url(#a)" fill="#1f77b4" fill-opacity=".3"/>
<path d="m356 224v22.3-22.3z" clip-path="url(#a)" fill="#1f77b4" fill-opacity=".3"/>
<path d="m356 202v22.3-22.3z" clip-path="url(#a)" fill="#1f77b4" fill-opacity=".3"/>
<path d="m356 180v22.3-22.3z" clip-path="url(#a)" fill="#1f77b4" fill-opacity=".3"/>
<path d="m356 157v22.3-22.3z" clip-path="url(#a)" fill="#1f77b4" fill-opacity=".3"/>
<path d="m356 135v22.3-22.3z" clip-path="url(#a)" fill="#1f77b4" fill-opacity=".3"/>
<path d="m396 123v1.57l0.226 0.0855 0.226 0.0897 0.226 0.0938 0.226 0.0978 0.226 0.102 0.226 0.106 0.226 0.111 0.226 0.116 0.226 0.123 0.226 0.132 0.226 0.143 0.226 0.157 0.226 0.174 0.226 0.194 0.226 0.218 0.226 0.245 0.226 0.275 0.226 0.308 0.226 0.342 0.226 0.378 0.226 0.413 0.226 0.447 0.226 0.477 0.226 0.503 0.226 0.523 0.226 0.535 0.226 0.538 0.226 0.532 0.226 0.516 0.226 0.489 0.226 0.452 0.226 0.404 0.226 0.348 0.226 0.284 0.226 0.214 0.226 0.139 0.226 0.062 0.226-0.016 0.226-0.0927 0.226-0.166 0.226-0.234 0.226-0.295 0.226-0.348 0.226-0.391 0.226-0.422 0.226-0.443 0.226-0.452 0.226-0.448 0.226-0.434 0.226-0.409 0.226-0.374 0.226-0.33 0.226-0.281 0.226-0.226 0.226-0.168 0.226-0.109 0.226-0.0511 0.226 0.00407 0.226 0.0547 0.226 0.0993 0.226 0.137 0.226 0.166 0.226 0.186 0.226 0.197 0.226 0.198 0.226 0.191 0.226 0.176 0.226 0.153 0.226 0.123 0.226 0.0893 0.226 0.0515 0.226 0.0116 0.226-0.029 0.226-0.069 0.226-0.107 0.226-0.143 0.226-0.175 0.226-0.203 0.226-0.228 0.226-0.248 0.226-0.264 0.226-0.276 0.226-0.285 0.226-0.291 0.226-0.294 0.226-0.295 0.226-0.295 0.226-0.292 0.226-0.288 0.226-0.282 0.226-0.274 0.226-0.265 0.226-0.255 0.226-0.243 0.226-0.23 0.226-0.216 0.226-0.202 0.226-0.186 0.226-0.171v-2.39l-0.226-0.171-0.226-0.186-0.226-0.202-0.226-0.216-0.226-0.23-0.226-0.243-0.226-0.255-0.226-0.265-0.226-0.274-0.226-0.282-0.226-0.288-0.226-0.292-0.226-0.295-0.226-0.295-0.226-0.294-0.226-0.291-0.226-0.285-0.226-0.276-0.226-0.264-0.226-0.248-0.226-0.228-0.226-0.203-0.226-0.175-0.226-0.143-0.226-0.107-0.226-0.069-0.226-0.029-0.226 0.0116-0.226 0.0515-0.226 0.0893-0.226 0.123-0.226 0.153-0.226 0.176-0.226 0.191-0.226 0.198-0.226 0.197-0.226 0.186-0.226 0.166-0.226 0.137-0.226 0.0993-0.226 0.0547-0.226 0.00407-0.226-0.0511-0.226-0.109-0.226-0.168-0.226-0.226-0.226-0.281-0.226-0.33-0.226-0.374-0.226-0.409-0.226-0.434-0.226-0.448-0.226-0.452-0.226-0.443-0.226-0.422-0.226-0.391-0.226-0.348-0.226-0.295-0.226-0.234-0.226-0.166-0.226-0.0927-0.226-0.016-0.226 0.062-0.226 0.139-0.226 0.214-0.226 0.284-0.226 0.348-0.226 0.404-0.226 0.452-0.226 0.489-0.226 0.516-0.226 0.532-0.226 0.538-0.226 0.535-0.226 0.523-0.226 0.503-0.226 0.477-0.226 0.447-0.226 0.413-0.226 0.378-0.226 0.342-0.226 0.308-0.226 0.275-0.226 0.245-0.226 0.218-0.226 0.194-0.226 0.174-0.226 0.157-0.226 0.143-0.226 0.132-0.226 0.123-0.226 0.116-0.226 0.111-0.226 0.106-0.226 0.102-0.226 0.0978-0.226 0.0938-0.226 0.0897-0.226 0.0855z" clip-path="url(#a)" fill="#1f77b4" fill-opacity=".3"/>
<path d="m457 99v5.44l0.119-0.00584 0.119-0.0212 0.119-0.0359 0.119-0.0497 0.119-0.0623 0.119-0.0734 0.119-0.0827 0.119-0.09 0.119-0.0951 0.238-0.196 0.119-0.0958 0.119-0.0908 0.119-0.0831 0.119-0.0728 0.119-0.0597 0.119-0.044 0.119-0.0257 0.119-0.00494 0.119 0.0182 0.119 0.0437 0.119 0.0712 0.119 0.101 0.119 0.132 0.119 0.164 0.119 0.198 0.119 0.232 0.119 0.266 0.119 0.301 0.119 0.334 0.119 0.367 0.119 0.397 0.119 0.425 0.119 0.45 0.119 0.471 0.119 0.487 0.119 0.498 0.238 1.01 0.119 0.496 0.119 0.482 0.119 0.461 0.119 0.434 0.119 0.399 0.119 0.359 0.119 0.312 0.119 0.261 0.119 0.205 0.119 0.145 0.119 0.0829 0.119 0.0195 0.119-0.0441 0.119-0.107 0.119-0.167 0.119-0.225 0.119-0.278 0.119-0.326 0.119-0.368 0.119-0.404 0.119-0.433 0.119-0.454 0.119-0.468 0.119-0.474 0.119-0.472 0.119-0.463 0.119-0.448 0.119-0.425 0.119-0.397 0.119-0.364 0.119-0.326 0.119-0.283 0.119-0.238 0.119-0.19 0.119-0.141 0.119-0.0902 0.119-0.0394 0.119 0.0109 0.119 0.0601 0.119 0.107 0.119 0.152 0.119 0.194 0.119 0.232 0.119 0.265 0.119 0.294 0.119 0.317 0.119 0.334 0.119 0.346 0.119 0.35 0.119 0.349 0.119 0.34 0.119 0.325 0.119 0.304 0.119 0.277 0.119 0.244 0.119 0.206 0.119 0.164 0.119 0.119 0.119 0.0712 0.119 0.0216v-17.2l-0.119 0.0216-0.119 0.0712-0.119 0.119-0.119 0.164-0.119 0.206-0.119 0.244-0.119 0.277-0.119 0.304-0.119 0.325-0.119 0.34-0.119 0.349-0.119 0.35-0.119 0.346-0.119 0.334-0.119 0.317-0.119 0.294-0.119 0.265-0.119 0.232-0.119 0.194-0.119 0.152-0.119 0.107-0.119 0.0601-0.119 0.0109-0.119-0.0394-0.119-0.0902-0.119-0.141-0.119-0.19-0.119-0.238-0.119-0.283-0.119-0.326-0.119-0.364-0.119-0.397-0.119-0.425-0.119-0.448-0.119-0.463-0.119-0.472-0.119-0.474-0.119-0.468-0.119-0.454-0.119-0.433-0.119-0.404-0.119-0.368-0.119-0.326-0.119-0.278-0.119-0.225-0.119-0.167-0.119-0.107-0.119-0.0441-0.119 0.0195-0.119 0.0829-0.119 0.145-0.119 0.205-0.119 0.261-0.119 0.312-0.119 0.359-0.119 0.399-0.119 0.434-0.119 0.461-0.119 0.482-0.119 0.496-0.238 1.01-0.119 0.498-0.119 0.487-0.119 0.471-0.119 0.45-0.119 0.425-0.119 0.397-0.119 0.367-0.119 0.334-0.119 0.301-0.119 0.266-0.119 0.232-0.119 0.198-0.119 0.164-0.119 0.132-0.119 0.101-0.119 0.0712-0.119 0.0437-0.119 0.0182-0.119-0.00494-0.119-0.0257-0.119-0.044-0.119-0.0597-0.119-0.0728-0.119-0.0831-0.119-0.0908-0.119-0.0958-0.238-0.196-0.119-0.0951-0.119-0.09-0.119-0.0827-0.119-0.0734-0.119-0.0623-0.119-0.0497-0.119-0.0359-0.119-0.0212-0.119-0.00584z" clip-path="url(#a)" fill="#1f77b4" fill-opacity=".3"/>
<path d="m466 77.3v4.22l0.162-0.0093 0.162-0.0308 0.162-0.0509 0.162-0.0688 0.162-0.084 0.162-0.0958 0.162-0.104 0.162-0.107 0.162-0.107 0.162-0.101 0.162-0.0913 0.162-0.0767 0.162-0.0576 0.162-0.0341 0.162-0.00641 0.162 0.0253 0.162 0.0609 0.162 0.1 0.162 0.142 0.162 0.188 0.162 0.236 0.162 0.285 0.162 0.336 0.162 0.387 0.162 0.437 0.162 0.485 0.162 0.53 0.162 0.569 0.162 0.602 0.162 0.626 0.162 0.64 0.162 0.643 0.162 0.633 0.162 0.61 0.162 0.573 0.162 0.522 0.162 0.458 0.162 0.382 0.162 0.295 0.162 0.201 0.162 0.101 0.162-0.00206 0.162-0.104 0.162-0.203 0.162-0.296 0.162-0.379 0.162-0.451 0.162-0.51 0.162-0.555 0.162-0.585 0.162-0.601 0.162-0.602 0.162-0.59 0.162-0.567 0.162-0.534 0.162-0.493 0.162-0.445 0.162-0.394 0.162-0.339 0.162-0.284 0.162-0.229 0.162-0.175 0.162-0.123 0.162-0.0748 0.162-0.0298 0.162 0.0112 0.162 0.0478 0.162 0.0795 0.162 0.106 0.162 0.127 0.162 0.143 0.162 0.152 0.162 0.156 0.162 0.153 0.162 0.145 0.162 0.131 0.162 0.111 0.162 0.0872 0.162 0.0592 0.162 0.0283 0.162-0.00451 0.162-0.0381 0.162-0.0713 0.162-0.103 0.162-0.132 0.162-0.158 0.162-0.18 0.162-0.198 0.162-0.21 0.162-0.218 0.162-0.221 0.162-0.22 0.162-0.215 0.162-0.207 0.162-0.196 0.162-0.184 0.162-0.17 0.162-0.156 0.162-0.142v-2.2l-0.162-0.142-0.162-0.156-0.162-0.17-0.162-0.184-0.162-0.196-0.162-0.207-0.162-0.215-0.162-0.22-0.162-0.221-0.162-0.218-0.162-0.21-0.162-0.198-0.162-0.18-0.162-0.158-0.162-0.132-0.162-0.103-0.162-0.0713-0.162-0.0381-0.162-0.00451-0.162 0.0283-0.162 0.0592-0.162 0.0872-0.162 0.111-0.162 0.131-0.162 0.145-0.162 0.153-0.162 0.156-0.162 0.152-0.162 0.143-0.162 0.127-0.162 0.106-0.162 0.0795-0.162 0.0478-0.162 0.0112-0.162-0.0298-0.162-0.0748-0.162-0.123-0.162-0.175-0.162-0.229-0.162-0.284-0.162-0.339-0.162-0.394-0.162-0.445-0.162-0.493-0.162-0.534-0.162-0.567-0.162-0.59-0.162-0.602-0.162-0.601-0.162-0.585-0.162-0.555-0.162-0.51-0.162-0.451-0.162-0.379-0.162-0.296-0.162-0.203-0.162-0.104-0.162-0.00206-0.162 0.101-0.162 0.201-0.162 0.295-0.162 0.382-0.162 0.458-0.162 0.522-0.162 0.573-0.162 0.61-0.162 0.633-0.162 0.643-0.162 0.64-0.162 0.626-0.162 0.602-0.162 0.569-0.162 0.53-0.162 0.485-0.162 0.437-0.162 0.387-0.162 0.336-0.162 0.285-0.162 0.236-0.162 0.188-0.162 0.142-0.162 0.1-0.162 0.0609-0.162 0.0253-0.162-0.00641-0.162-0.0341-0.162-0.0576-0.162-0.0767-0.162-0.0913-0.162-0.101-0.162-0.107-0.162-0.107-0.162-0.104-0.162-0.0958-0.162-0.084-0.162-0.0688-0.162-0.0509-0.162-0.0308-0.162-0.0093z" clip-path="url(#a)" fill="#1f77b4" fill-opacity=".3"/>
<path d="m356 56.1v2.01l1.26-0.0118 1.26-0.0346 1.26-0.0549 1.26-0.0716 1.26-0.0838 2.53-0.184 1.26-0.0912 1.26-0.0855 1.26-0.0771 1.26-0.0669 1.26-0.0559 1.26-0.0446 1.26-0.0336 1.26-0.023 1.26-0.0127 1.26-0.0023 1.26 0.0088 1.26 0.0213 1.26 0.0362 1.26 0.0541 1.26 0.0761 1.26 0.103 1.26 0.134 1.26 0.171 1.26 0.212 1.26 0.256 1.26 0.302 1.26 0.347 1.26 0.388 1.26 0.422 1.26 0.446 2.53 0.905 1.26 0.427 1.26 0.386 1.26 0.329 1.26 0.257 1.26 0.174 1.26 0.0828 1.26-0.0111 1.26-0.103 1.26-0.19 1.26-0.267 1.26-0.332 1.26-0.382 1.26-0.416 2.53-0.873 1.26-0.428 1.26-0.406 1.26-0.376 1.26-0.339 1.26-0.298 1.26-0.255 1.26-0.214 1.26-0.174 1.26-0.139 1.26-0.107 1.26-0.0787 1.26-0.0544 1.26-0.033 1.26-0.0134 1.26 0.00562 1.26 0.0254 1.26 0.0475 1.26 0.0733 1.26 0.104 1.26 0.141 1.26 0.186 1.26 0.238 1.26 0.297 1.26 0.364 1.26 0.436 1.26 0.511 1.26 0.587 1.26 0.66 1.26 0.725 1.26 0.778 1.26 0.815 1.26 0.831 1.26 0.824 1.26 0.79 1.26 0.728 1.26 0.639 1.26 0.525 1.26 0.39 1.26 0.237 1.26 0.0737 1.26-0.0935 1.26-0.257 1.26-0.411 1.26-0.547 1.26-0.662 1.26-0.75 1.26-0.81 2.53-1.68 1.26-0.823v-10.2l-1.26-0.823-2.53-1.68-1.26-0.81-1.26-0.75-1.26-0.662-1.26-0.547-1.26-0.411-1.26-0.257-1.26-0.0935-1.26 0.0737-1.26 0.237-1.26 0.39-1.26 0.525-1.26 0.639-1.26 0.728-1.26 0.79-1.26 0.824-1.26 0.831-1.26 0.815-1.26 0.778-1.26 0.725-1.26 0.66-1.26 0.587-1.26 0.511-1.26 0.436-1.26 0.364-1.26 0.297-1.26 0.238-1.26 0.186-1.26 0.141-1.26 0.104-1.26 0.0733-1.26 0.0475-1.26 0.0254-1.26 0.00562-1.26-0.0134-1.26-0.033-1.26-0.0544-1.26-0.0787-1.26-0.107-1.26-0.139-1.26-0.174-1.26-0.214-1.26-0.255-1.26-0.298-1.26-0.339-1.26-0.376-1.26-0.406-1.26-0.428-2.53-0.873-1.26-0.416-1.26-0.382-1.26-0.332-1.26-0.267-1.26-0.19-1.26-0.103-1.26-0.0111-1.26 0.0828-1.26 0.174-1.26 0.257-1.26 0.329-1.26 0.386-1.26 0.427-2.53 0.905-1.26 0.446-1.26 0.422-1.26 0.388-1.26 0.347-1.26 0.302-1.26 0.256-1.26 0.212-1.26 0.171-1.26 0.134-1.26 0.103-1.26 0.0761-1.26 0.0541-1.26 0.0362-1.26 0.0213-1.26 0.0088-1.26-0.0023-1.26-0.0127-1.26-0.023-1.26-0.0336-1.26-0.0446-1.26-0.0559-1.26-0.0669-1.26-0.0771-1.26-0.0855-1.26-0.0912-2.53-0.184-1.26-0.0838-1.26-0.0716-1.26-0.0549-1.26-0.0346-1.26-0.0118z" clip-path="url(#a)" fill="#1f77b4" fill-opacity=".3"/>
<path d="m183 1507v-1472" clip-path="url(#a)" fill="none" stroke="#b0b0b0" stroke-linecap="square" stroke-width=".8"/>
<defs>
<path id="ah" d="m0 0v3.5" stroke="#000" stroke-width=".8"/>
</defs>
<use x="183.283317" y="1506.721635" stroke="#000000" stroke-width=".8" xlink:href="#ah"/>
<defs>
<path id="ag" d="m0 0v-3.5" stroke="#000" stroke-width=".8"/>
</defs>
<use x="183.283317" y="34.79649" stroke="#000000" stroke-width=".8" xlink:href="#ag"/>
<g transform="translate(168 1521) scale(.1 -.1)">
<defs>
<path id="r" transform="scale(.0156)" d="m2034 4250q-487 0-733-480-245-479-245-1442 0-959 245-1439 246-480 733-480 491 0 736 480 246 480 246 1439 0 963-246 1442-245 480-736 480zm0 500q785 0 1199-621 414-620 414-1801 0-1178-414-1799-414-620-1199-620-784 0-1198 620-414 621-414 1799 0 1181 414 1801 414 621 1198 621z"/>
<path id="u" transform="scale(.0156)" d="m684 794h660v-794h-660v794z"/>
<path id="ai" transform="scale(.0156)" d="m2034 2216q-450 0-708-241-257-241-257-662 0-422 257-663 258-241 708-241t709 242q260 243 260 662 0 421-258 662-257 241-711 241zm-631 268q-406 100-633 378-226 279-226 679 0 559 398 884 399 325 1092 325 697 0 1094-325t397-884q0-400-227-679-226-278-629-378 456-106 710-416 255-309 255-755 0-679-414-1042-414-362-1186-362-771 0-1186 362-414 363-414 1042 0 446 256 755 257 310 713 416zm-231 997q0-362 226-565 227-203 636-203 407 0 636 203 230 203 230 565 0 363-230 566-229 203-636 203-409 0-636-203-226-203-226-566z"/>
<path id="z" transform="scale(.0156)" d="m4488 3438-1429-1435 1429-1428-372-378-1435 1434-1434-1434-369 378 1425 1428-1425 1435 369 378 1434-1435 1435 1435 372-378z"/>
</defs>
<use xlink:href="#r"/>
<use x="63.623047" xlink:href="#u"/>
<use x="95.410156" xlink:href="#ai"/>
<use x="159.033203" xlink:href="#r"/>
<use x="222.65625" xlink:href="#z"/>
</g>
<g transform="translate(168 25.7) scale(.1 -.1)">
<use xlink:href="#r"/>
<use x="63.623047" xlink:href="#u"/>
<use x="95.410156" xlink:href="#ai"/>
<use x="159.033203" xlink:href="#r"/>
<use x="222.65625" xlink:href="#z"/>
</g>
<path d="m270 1507v-1472" clip-path="url(#a)" fill="none" stroke="#b0b0b0" stroke-linecap="square" stroke-width=".8"/>
<use x="269.886971" y="1506.721635" stroke="#000000" stroke-width=".8" xlink:href="#ah"/>
<use x="269.886971" y="34.79649" stroke="#000000" stroke-width=".8" xlink:href="#ag"/>
<g transform="translate(255 1521) scale(.1 -.1)">
<defs>
<path id="ad" transform="scale(.0156)" d="m703 97v575q238-113 481-172 244-59 479-59 625 0 954 420 330 420 377 1277-181-269-460-413-278-144-615-144-700 0-1108 423-408 424-408 1159 0 718 425 1152 425 435 1131 435 810 0 1236-621 427-620 427-1801 0-1103-524-1761-523-658-1407-658-238 0-482 47-243 47-506 141zm1256 1978q425 0 673 290 249 291 249 798 0 503-249 795-248 292-673 292t-673-292-248-795q0-507 248-798 248-290 673-290z"/>
</defs>
<use xlink:href="#r"/>
<use x="63.623047" xlink:href="#u"/>
<use x="95.410156" xlink:href="#ad"/>
<use x="159.033203" xlink:href="#r"/>
<use x="222.65625" xlink:href="#z"/>
</g>
<g transform="translate(255 25.7) scale(.1 -.1)">
<use xlink:href="#r"/>
<use x="63.623047" xlink:href="#u"/>
<use x="95.410156" xlink:href="#ad"/>
<use x="159.033203" xlink:href="#r"/>
<use x="222.65625" xlink:href="#z"/>
</g>
<path d="m356 1507v-1472" clip-path="url(#a)" fill="none" stroke="#b0b0b0" stroke-linecap="square" stroke-width=".8"/>
<use x="356.490625" y="1506.721635" stroke="#000000" stroke-width=".8" xlink:href="#ah"/>
<use x="356.490625" y="34.79649" stroke="#000000" stroke-width=".8" xlink:href="#ag"/>
<g transform="translate(341 1521) scale(.1 -.1)">
<defs>
<path id="t" transform="scale(.0156)" d="m794 531h1031v3560l-1122-225v575l1116 225h631v-4135h1031v-531h-2687v531z"/>
</defs>
<use xlink:href="#t"/>
<use x="63.623047" xlink:href="#u"/>
<use x="95.410156" xlink:href="#r"/>
<use x="159.033203" xlink:href="#r"/>
<use x="222.65625" xlink:href="#z"/>
</g>
<g transform="translate(341 25.7) scale(.1 -.1)">
<use xlink:href="#t"/>
<use x="63.623047" xlink:href="#u"/>
<use x="95.410156" xlink:href="#r"/>
<use x="159.033203" xlink:href="#r"/>
<use x="222.65625" xlink:href="#z"/>
</g>
<path d="m443 1507v-1472" clip-path="url(#a)" fill="none" stroke="#b0b0b0" stroke-linecap="square" stroke-width=".8"/>
<use x="443.094279" y="1506.721635" stroke="#000000" stroke-width=".8" xlink:href="#ah"/>
<use x="443.094279" y="34.79649" stroke="#000000" stroke-width=".8" xlink:href="#ag"/>
<g transform="translate(428 1521) scale(.1 -.1)">
<use xlink:href="#t"/>
<use x="63.623047" xlink:href="#u"/>
<use x="95.410156" xlink:href="#t"/>
<use x="159.033203" xlink:href="#r"/>
<use x="222.65625" xlink:href="#z"/>
</g>
<g transform="translate(428 25.7) scale(.1 -.1)">
<use xlink:href="#t"/>
<use x="63.623047" xlink:href="#u"/>
<use x="95.410156" xlink:href="#t"/>
<use x="159.033203" xlink:href="#r"/>
<use x="222.65625" xlink:href="#z"/>
</g>
<path d="m530 1507v-1472" clip-path="url(#a)" fill="none" stroke="#b0b0b0" stroke-linecap="square" stroke-width=".8"/>
<use x="529.697933" y="1506.721635" stroke="#000000" stroke-width=".8" xlink:href="#ah"/>
<use x="529.697933" y="34.79649" stroke="#000000" stroke-width=".8" xlink:href="#ag"/>
<g transform="translate(514 1521) scale(.1 -.1)">
<defs>
<path id="ac" transform="scale(.0156)" d="m1228 531h2203v-531h-2962v531q359 372 979 998 621 627 780 809 303 340 423 576 121 236 121 464 0 372-261 606-261 235-680 235-297 0-627-103-329-103-704-313v638q381 153 712 231 332 78 607 78 725 0 1156-363 431-362 431-968 0-288-108-546-107-257-392-607-78-91-497-524-418-433-1181-1211z"/>
</defs>
<use xlink:href="#t"/>
<use x="63.623047" xlink:href="#u"/>
<use x="95.410156" xlink:href="#ac"/>
<use x="159.033203" xlink:href="#r"/>
<use x="222.65625" xlink:href="#z"/>
</g>
<g transform="translate(514 25.7) scale(.1 -.1)">
<use xlink:href="#t"/>
<use x="63.623047" xlink:href="#u"/>
<use x="95.410156" xlink:href="#ac"/>
<use x="159.033203" xlink:href="#r"/>
<use x="222.65625" xlink:href="#z"/>
</g>
<path d="m140 1484h433" clip-path="url(#a)" fill="none" stroke="#b0b0b0" stroke-linecap="square" stroke-width=".8"/>
<defs>
<path id="c" d="m0 0h-3.5" stroke="#000" stroke-width=".8"/>
</defs>
<use x="139.98149" y="1484.419739" stroke="#000000" stroke-width=".8" xlink:href="#c"/>
<g transform="translate(98.3 1488) scale(.1 -.1)">
<defs>
<path id="j" transform="scale(.0156)" d="m1159 525v-1856h-578v4831h578v-531q182 312 458 463 277 152 661 152 638 0 1036-506 399-506 399-1331t-399-1332q-398-506-1036-506-384 0-661 152-276 152-458 464zm1957 1222q0 634-261 995t-717 361q-457 0-718-361t-261-995 261-995 718-361q456 0 717 361t261 995z"/>
<path id="i" transform="scale(.0156)" d="m2194 1759q-697 0-966-159t-269-544q0-306 202-486 202-179 548-179 479 0 768 339t289 901v128h-572zm1147 238v-2e3h-575v531q-197-318-491-470t-719-152q-537 0-855 302-317 302-317 808 0 590 395 890 396 300 1180 300h807v57q0 397-261 614t-733 217q-300 0-585-72-284-72-546-216v532q315 122 612 182 297 61 578 61 760 0 1135-394 375-393 375-1193z"/>
<path id="e" transform="scale(.0156)" d="m1172 4494v-994h1184v-447h-1184v-1900q0-428 117-550t477-122h590v-481h-590q-666 0-919 248-253 249-253 905v1900h-422v447h422v994h578z"/>
<path id="s" transform="scale(.0156)" d="m3513 2113v-2113h-575v2094q0 497-194 743-194 247-581 247-466 0-735-297-269-296-269-809v-1978h-578v4863h578v-1907q207 316 486 472 280 156 646 156 603 0 912-373 310-373 310-1098z"/>
<path id="n" transform="scale(.0156)" d="m603 4863h575v-4863h-575v4863z"/>
<path id="k" transform="scale(.0156)" d="m603 3500h575v-3500h-575v3500zm0 1363h575v-729h-575v729z"/>
<path id="ae" transform="scale(.0156)" d="m3116 1747q0 634-261 995t-717 361q-457 0-718-361t-261-995 261-995 718-361q456 0 717 361t261 995zm-1957 1222q182 312 458 463 277 152 661 152 638 0 1036-506 399-506 399-1331t-399-1332q-398-506-1036-506-384 0-661 152-276 152-458 464v-525h-578v4863h578v-1894z"/>
</defs>
<use xlink:href="#j"/>
<use x="63.476562" xlink:href="#i"/>
<use x="124.755859" xlink:href="#e"/>
<use x="163.964844" xlink:href="#s"/>
<use x="227.34375" xlink:href="#n"/>
<use x="255.126953" xlink:href="#k"/>
<use x="282.910156" xlink:href="#ae"/>
</g>
<path d="m140 1462h433" clip-path="url(#a)" fill="none" stroke="#b0b0b0" stroke-linecap="square" stroke-width=".8"/>
<use x="139.98149" y="1462.117843" stroke="#000000" stroke-width=".8" xlink:href="#c"/>
<g transform="translate(44.3 1466) scale(.1 -.1)">
<defs>
<path id="f" transform="scale(.0156)" d="m2834 3397v-544q-243 125-506 187-262 63-544 63-428 0-642-131t-214-394q0-200 153-314t616-217l197-44q612-131 870-370t258-667q0-488-386-773-386-284-1061-284-281 0-586 55t-642 164v594q319-166 628-249 309-82 613-82 406 0 624 139 219 139 219 392 0 234-158 359-157 125-692 241l-200 47q-534 112-772 345-237 233-237 639 0 494 350 762 350 269 994 269 318 0 599-47 282-46 519-140z"/>
<path id="q" transform="scale(.0156)" d="m2059-325q-243-625-475-815-231-191-618-191h-460v481h338q237 0 368 113 132 112 291 531l103 262-1415 3444h609l1094-2737 1094 2737h609l-1538-3825z"/>
<path id="l" transform="scale(.0156)" d="m3513 2113v-2113h-575v2094q0 497-194 743-194 247-581 247-466 0-735-297-269-296-269-809v-1978h-578v3500h578v-544q207 316 486 472 280 156 646 156 603 0 912-373 310-373 310-1098z"/>
<path id="m" transform="scale(.0156)" d="m3122 3366v-538q-244 135-489 202t-495 67q-560 0-870-355-309-354-309-995t309-996q310-354 870-354 250 0 495 67t489 202v-532q-241-112-499-168-257-57-548-57-791 0-1257 497-465 497-465 1341 0 856 470 1346 471 491 1290 491 265 0 518-55 253-54 491-163z"/>
<path id="g" transform="scale(.0156)" d="m3263-1063v-446h-3326v446h3326z"/>
<path id="p" transform="scale(.0156)" d="m2906 1791q0 625-258 968-257 344-723 344-462 0-720-344-258-343-258-968 0-622 258-966t720-344q466 0 723 344 258 344 258 966zm575-1357q0-893-397-1329-396-436-1215-436-303 0-572 45t-522 139v559q253-137 500-202 247-66 503-66 566 0 847 295t281 892v285q-178-310-456-463t-666-153q-643 0-1037 490-394 491-394 1301 0 812 394 1302 394 491 1037 491 388 0 666-153t456-462v531h575v-3066z"/>
<path id="b" transform="scale(.0156)" d="m3597 1894v-281h-2644q38-594 358-905t892-311q331 0 642 81t618 244v-544q-310-131-635-200t-659-69q-838 0-1327 487-489 488-489 1320 0 859 464 1363 464 505 1252 505 706 0 1117-455 411-454 411-1235zm-575 169q-6 471-264 752-258 282-683 282-481 0-770-272t-333-766l2050 4z"/>
<path id="d" transform="scale(.0156)" d="m2631 2963q-97 56-211 82-114 27-251 27-488 0-749-317t-261-911v-1844h-578v3500h578v-544q182 319 472 473 291 155 707 155 59 0 131-8 72-7 159-23l3-590z"/>
<path id="h" transform="scale(.0156)" d="m1959 3097q-462 0-731-361t-269-989 267-989q268-361 733-361 460 0 728 362 269 363 269 988 0 622-269 986-268 364-728 364zm0 487q750 0 1178-488 429-487 429-1349 0-859-429-1349-428-489-1178-489-753 0-1180 489-426 490-426 1349 0 862 426 1349 427 488 1180 488z"/>
</defs>
<use xlink:href="#i"/>
<use x="61.279297" xlink:href="#f"/>
<use x="113.378906" xlink:href="#q"/>
<use x="172.558594" xlink:href="#l"/>
<use x="235.9375" xlink:href="#m"/>
<use x="290.917969" xlink:href="#g"/>
<use x="340.917969" xlink:href="#p"/>
<use x="404.394531" xlink:href="#b"/>
<use x="465.917969" xlink:href="#l"/>
<use x="529.296875" xlink:href="#b"/>
<use x="590.820312" xlink:href="#d"/>
<use x="631.933594" xlink:href="#i"/>
<use x="693.212891" xlink:href="#e"/>
<use x="732.421875" xlink:href="#h"/>
<use x="793.603516" xlink:href="#d"/>
<use x="834.716797" xlink:href="#f"/>
</g>
<path d="m140 1440h433" clip-path="url(#a)" fill="none" stroke="#b0b0b0" stroke-linecap="square" stroke-width=".8"/>
<use x="139.98149" y="1439.815947" stroke="#000000" stroke-width=".8" xlink:href="#c"/>
<g transform="translate(31.8 1444) scale(.1 -.1)">
<defs>
<path id="an" transform="scale(.0156)" d="m269 3500h575l719-2731 715 2731h678l719-2731 716 2731h575l-916-3500h-678l-753 2869-756-2869h-679l-915 3500z"/>
<path id="aa" transform="scale(.0156)" d="m581 4863h578v-2872l1716 1509h734l-1856-1637 1935-1863h-750l-1779 1709v-1709h-578v4863z"/>
</defs>
<use xlink:href="#i"/>
<use x="61.279297" xlink:href="#f"/>
<use x="113.378906" xlink:href="#q"/>
<use x="172.558594" xlink:href="#l"/>
<use x="235.9375" xlink:href="#m"/>
<use x="290.917969" xlink:href="#k"/>
<use x="318.701172" xlink:href="#h"/>
<use x="379.882812" xlink:href="#g"/>
<use x="429.882812" xlink:href="#an"/>
<use x="511.669922" xlink:href="#b"/>
<use x="573.193359" xlink:href="#ae"/>
<use x="636.669922" xlink:href="#f"/>
<use x="688.769531" xlink:href="#h"/>
<use x="749.951172" xlink:href="#m"/>
<use x="804.931641" xlink:href="#aa"/>
<use x="859.216797" xlink:href="#b"/>
<use x="920.740234" xlink:href="#e"/>
<use x="959.949219" xlink:href="#f"/>
</g>
<path d="m140 1418h433" clip-path="url(#a)" fill="none" stroke="#b0b0b0" stroke-linecap="square" stroke-width=".8"/>
<use x="139.98149" y="1417.51405" stroke="#000000" stroke-width=".8" xlink:href="#c"/>
<g transform="translate(62.9 1421) scale(.1 -.1)">
<use xlink:href="#ae"/>
<use x="63.476562" xlink:href="#j"/>
<use x="126.953125" xlink:href="#b"/>
<use x="188.476562" xlink:href="#g"/>
<use x="238.476562" xlink:href="#e"/>
<use x="277.685547" xlink:href="#h"/>
<use x="338.867188" xlink:href="#aa"/>
<use x="393.152344" xlink:href="#b"/>
<use x="454.675781" xlink:href="#l"/>
<use x="518.054688" xlink:href="#k"/>
<use x="545.837891" xlink:href="#f"/>
<use x="597.9375" xlink:href="#b"/>
<use x="659.460938" xlink:href="#d"/>
</g>
<path d="m140 1395h433" clip-path="url(#a)" fill="none" stroke="#b0b0b0" stroke-linecap="square" stroke-width=".8"/>
<use x="139.98149" y="1395.212154" stroke="#000000" stroke-width=".8" xlink:href="#c"/>
<g transform="translate(104 1399) scale(.1 -.1)">
<use xlink:href="#m"/>
<use x="54.980469" xlink:href="#s"/>
<use x="118.359375" xlink:href="#i"/>
<use x="179.638672" xlink:href="#h"/>
<use x="240.820312" xlink:href="#f"/>
</g>
<path d="m140 1373h433" clip-path="url(#a)" fill="none" stroke="#b0b0b0" stroke-linecap="square" stroke-width=".8"/>
<use x="139.98149" y="1372.910258" stroke="#000000" stroke-width=".8" xlink:href="#c"/>
<g transform="translate(50.8 1377) scale(.1 -.1)">
<defs>
<path id="o" transform="scale(.0156)" d="m3328 2828q216 388 516 572t706 184q547 0 844-383 297-382 297-1088v-2113h-578v2094q0 503-179 746-178 244-543 244-447 0-707-297-259-296-259-809v-1978h-578v2094q0 506-178 748t-550 242q-441 0-701-298-259-298-259-808v-1978h-578v3500h578v-544q197 322 472 475t653 153q382 0 649-194 267-193 395-562z"/>
</defs>
<use xlink:href="#m"/>
<use x="54.980469" xlink:href="#h"/>
<use x="116.162109" xlink:href="#o"/>
<use x="213.574219" xlink:href="#j"/>
<use x="277.050781" xlink:href="#d"/>
<use x="315.914062" xlink:href="#b"/>
<use x="377.4375" xlink:href="#s"/>
<use x="440.816406" xlink:href="#b"/>
<use x="502.339844" xlink:href="#l"/>
<use x="565.71875" xlink:href="#f"/>
<use x="617.818359" xlink:href="#k"/>
<use x="645.601562" xlink:href="#h"/>
<use x="706.783203" xlink:href="#l"/>
<use x="770.162109" xlink:href="#f"/>
</g>
<path d="m140 1351h433" clip-path="url(#a)" fill="none" stroke="#b0b0b0" stroke-linecap="square" stroke-width=".8"/>
<use x="139.98149" y="1350.608362" stroke="#000000" stroke-width=".8" xlink:href="#c"/>
<g transform="translate(86.6 1354) scale(.1 -.1)">
<defs>
<path id="aj" transform="scale(.0156)" d="m191 3500h609l1094-2937 1094 2937h609l-1313-3500h-781l-1312 3500z"/>
</defs>
<use xlink:href="#m"/>
<use x="54.980469" xlink:href="#h"/>
<use x="116.162109" xlink:href="#aj"/>
<use x="175.341797" xlink:href="#b"/>
<use x="236.865234" xlink:href="#d"/>
<use x="277.978516" xlink:href="#i"/>
<use x="339.257812" xlink:href="#p"/>
<use x="402.734375" xlink:href="#b"/>
</g>
<path d="m140 1328h433" clip-path="url(#a)" fill="none" stroke="#b0b0b0" stroke-linecap="square" stroke-width=".8"/>
<use x="139.98149" y="1328.306466" stroke="#000000" stroke-width=".8" xlink:href="#c"/>
<g transform="translate(66.3 1332) scale(.1 -.1)">
<use xlink:href="#m"/>
<use x="54.980469" xlink:href="#d"/>
<use x="96.09375" xlink:href="#q"/>
<use x="155.273438" xlink:href="#j"/>
<use x="218.75" xlink:href="#e"/>
<use x="257.958984" xlink:href="#h"/>
<use x="319.140625" xlink:href="#g"/>
<use x="369.140625" xlink:href="#j"/>
<use x="432.617188" xlink:href="#q"/>
<use x="491.796875" xlink:href="#i"/>
<use x="553.076172" xlink:href="#b"/>
<use x="614.599609" xlink:href="#f"/>
</g>
<path d="m140 1306h433" clip-path="url(#a)" fill="none" stroke="#b0b0b0" stroke-linecap="square" stroke-width=".8"/>
<use x="139.98149" y="1306.00457" stroke="#000000" stroke-width=".8" xlink:href="#c"/>
<g transform="translate(84.1 1310) scale(.1 -.1)">
<defs>
<path id="x" transform="scale(.0156)" d="m2906 2969v1894h575v-4863h-575v525q-181-312-458-464-276-152-664-152-634 0-1033 506-398 507-398 1332t398 1331q399 506 1033 506 388 0 664-152 277-151 458-463zm-1959-1222q0-634 261-995t717-361 718 361q263 361 263 995t-263 995q-262 361-718 361t-717-361-261-995z"/>
</defs>
<use xlink:href="#x"/>
<use x="63.476562" xlink:href="#b"/>
<use x="125" xlink:href="#b"/>
<use x="186.523438" xlink:href="#j"/>
<use x="250" xlink:href="#m"/>
<use x="304.980469" xlink:href="#h"/>
<use x="366.162109" xlink:href="#j"/>
<use x="429.638672" xlink:href="#q"/>
</g>
<path d="m140 1284h433" clip-path="url(#a)" fill="none" stroke="#b0b0b0" stroke-linecap="square" stroke-width=".8"/>
<use x="139.98149" y="1283.702674" stroke="#000000" stroke-width=".8" xlink:href="#c"/>
<g transform="translate(74.5 1288) scale(.1 -.1)">
<defs>
<path id="w" transform="scale(.0156)" d="m544 1381v2119h575v-2097q0-497 193-746 194-248 582-248 465 0 735 297 271 297 271 810v1984h575v-3500h-575v538q-209-319-486-474-276-155-642-155-603 0-916 375-312 375-312 1097zm1447 2203z"/>
</defs>
<use xlink:href="#x"/>
<use x="63.476562" xlink:href="#w"/>
<use x="126.855469" xlink:href="#n"/>
<use x="154.638672" xlink:href="#an"/>
<use x="236.425781" xlink:href="#k"/>
<use x="264.208984" xlink:href="#m"/>
<use x="319.189453" xlink:href="#s"/>
<use x="382.568359" xlink:href="#g"/>
<use x="432.568359" xlink:href="#n"/>
<use x="460.351562" xlink:href="#h"/>
<use x="521.533203" xlink:href="#p"/>
</g>
<path d="m140 1261h433" clip-path="url(#a)" fill="none" stroke="#b0b0b0" stroke-linecap="square" stroke-width=".8"/>
<use x="139.98149" y="1261.400778" stroke="#000000" stroke-width=".8" xlink:href="#c"/>
<g transform="translate(87 1265) scale(.1 -.1)">
<defs>
<path id="v" transform="scale(.0156)" d="m2375 4863v-479h-550q-309 0-430-125-120-125-120-450v-309h947v-447h-947v-3053h-578v3053h-550v447h550v244q0 584 272 851 272 268 862 268h544z"/>
</defs>
<use xlink:href="#v"/>
<use x="35.205078" xlink:href="#i"/>
<use x="96.484375" xlink:href="#l"/>
<use x="159.863281" xlink:href="#l"/>
<use x="223.242188" xlink:href="#aa"/>
<use x="278.027344" xlink:href="#w"/>
<use x="341.40625" xlink:href="#m"/>
<use x="396.386719" xlink:href="#s"/>
</g>
<path d="m140 1239h433" clip-path="url(#a)" fill="none" stroke="#b0b0b0" stroke-linecap="square" stroke-width=".8"/>
<use x="139.98149" y="1239.098881" stroke="#000000" stroke-width=".8" xlink:href="#c"/>
<g transform="translate(111 1243) scale(.1 -.1)">
<use xlink:href="#v"/>
<use x="35.205078" xlink:href="#n"/>
<use x="62.988281" xlink:href="#h"/>
<use x="124.169922" xlink:href="#i"/>
<use x="185.449219" xlink:href="#e"/>
</g>
<path d="m140 1217h433" clip-path="url(#a)" fill="none" stroke="#b0b0b0" stroke-linecap="square" stroke-width=".8"/>
<use x="139.98149" y="1216.796985" stroke="#000000" stroke-width=".8" xlink:href="#c"/>
<g transform="translate(48.3 1221) scale(.1 -.1)">
<use xlink:href="#m"/>
<use x="54.980469" xlink:href="#d"/>
<use x="93.84375" xlink:href="#b"/>
<use x="155.367188" xlink:href="#i"/>
<use x="216.646484" xlink:href="#e"/>
<use x="255.855469" xlink:href="#b"/>
<use x="317.378906" xlink:href="#g"/>
<use x="367.378906" xlink:href="#p"/>
<use x="430.855469" xlink:href="#m"/>
<use x="485.835938" xlink:href="#g"/>
<use x="535.835938" xlink:href="#m"/>
<use x="590.816406" xlink:href="#q"/>
<use x="649.996094" xlink:href="#m"/>
<use x="704.976562" xlink:href="#n"/>
<use x="732.759766" xlink:href="#b"/>
<use x="794.283203" xlink:href="#f"/>
</g>
<path d="m140 1194h433" clip-path="url(#a)" fill="none" stroke="#b0b0b0" stroke-linecap="square" stroke-width=".8"/>
<use x="139.98149" y="1194.495089" stroke="#000000" stroke-width=".8" xlink:href="#c"/>
<g transform="translate(71.7 1198) scale(.1 -.1)">
<use xlink:href="#p"/>
<use x="63.476562" xlink:href="#m"/>
<use x="118.457031" xlink:href="#g"/>
<use x="168.457031" xlink:href="#e"/>
<use x="207.666016" xlink:href="#d"/>
<use x="248.779297" xlink:href="#i"/>
<use x="310.058594" xlink:href="#aj"/>
<use x="369.238281" xlink:href="#b"/>
<use x="430.761719" xlink:href="#d"/>
<use x="471.875" xlink:href="#f"/>
<use x="523.974609" xlink:href="#i"/>
<use x="585.253906" xlink:href="#n"/>
</g>
<path d="m140 1172h433" clip-path="url(#a)" fill="none" stroke="#b0b0b0" stroke-linecap="square" stroke-width=".8"/>
<use x="139.98149" y="1172.193193" stroke="#000000" stroke-width=".8" xlink:href="#c"/>
<g transform="translate(78.4 1176) scale(.1 -.1)">
<use xlink:href="#p"/>
<use x="63.476562" xlink:href="#b"/>
<use x="125" xlink:href="#l"/>
<use x="188.378906" xlink:href="#b"/>
<use x="249.902344" xlink:href="#d"/>
<use x="291.015625" xlink:href="#i"/>
<use x="352.294922" xlink:href="#e"/>
<use x="391.503906" xlink:href="#h"/>
<use x="452.685547" xlink:href="#d"/>
<use x="493.798828" xlink:href="#f"/>
</g>
<path d="m140 1150h433" clip-path="url(#a)" fill="none" stroke="#b0b0b0" stroke-linecap="square" stroke-width=".8"/>
<use x="139.98149" y="1149.891297" stroke="#000000" stroke-width=".8" xlink:href="#c"/>
<g transform="translate(75.1 1154) scale(.1 -.1)">
<defs>
<path id="y" transform="scale(.0156)" d="m3513 3500-1266-1703 1331-1797h-678l-1019 1375-1018-1375h-679l1360 1831-1244 1669h678l928-1247 928 1247h679z"/>
</defs>
<use xlink:href="#p"/>
<use x="63.476562" xlink:href="#b"/>
<use x="125" xlink:href="#l"/>
<use x="188.378906" xlink:href="#f"/>
<use x="240.478516" xlink:href="#s"/>
<use x="303.857422" xlink:href="#k"/>
<use x="331.640625" xlink:href="#g"/>
<use x="381.640625" xlink:href="#e"/>
<use x="420.849609" xlink:href="#b"/>
<use x="480.623047" xlink:href="#y"/>
<use x="539.802734" xlink:href="#e"/>
</g>
<path d="m140 1128h433" clip-path="url(#a)" fill="none" stroke="#b0b0b0" stroke-linecap="square" stroke-width=".8"/>
<use x="139.98149" y="1127.589401" stroke="#000000" stroke-width=".8" xlink:href="#c"/>
<g transform="translate(76.4 1131) scale(.1 -.1)">
<use xlink:href="#p"/>
<use x="63.476562" xlink:href="#b"/>
<use x="125" xlink:href="#l"/>
<use x="188.378906" xlink:href="#f"/>
<use x="240.478516" xlink:href="#s"/>
<use x="303.857422" xlink:href="#k"/>
<use x="331.640625" xlink:href="#g"/>
<use x="381.640625" xlink:href="#y"/>
<use x="440.820312" xlink:href="#o"/>
<use x="538.232422" xlink:href="#n"/>
</g>
<path d="m140 1105h433" clip-path="url(#a)" fill="none" stroke="#b0b0b0" stroke-linecap="square" stroke-width=".8"/>
<use x="139.98149" y="1105.287505" stroke="#000000" stroke-width=".8" xlink:href="#c"/>
<g transform="translate(121 1109) scale(.1 -.1)">
<use xlink:href="#p"/>
<use x="63.476562" xlink:href="#h"/>
</g>
<path d="m140 1083h433" clip-path="url(#a)" fill="none" stroke="#b0b0b0" stroke-linecap="square" stroke-width=".8"/>
<use x="139.98149" y="1082.985608" stroke="#000000" stroke-width=".8" xlink:href="#c"/>
<g transform="translate(96.1 1087) scale(.1 -.1)">
<use xlink:href="#s"/>
<use x="63.378906" xlink:href="#b"/>
<use x="123.152344" xlink:href="#y"/>
<use x="182.332031" xlink:href="#k"/>
<use x="210.115234" xlink:href="#h"/>
<use x="271.296875" xlink:href="#o"/>
</g>
<path d="m140 1061h433" clip-path="url(#a)" fill="none" stroke="#b0b0b0" stroke-linecap="square" stroke-width=".8"/>
<use x="139.98149" y="1060.683712" stroke="#000000" stroke-width=".8" xlink:href="#c"/>
<g transform="translate(91.9 1064) scale(.1 -.1)">
<defs>
<path id="af" transform="scale(.0156)" d="m691 4666h2478v-532h-1900v-1143q137 47 274 70 138 23 276 23 781 0 1237-428 457-428 457-1159 0-753-469-1171-469-417-1322-417-294 0-599 50-304 50-629 150v635q281-153 581-228t634-75q541 0 856 284 316 284 316 772 0 487-316 771-315 285-856 285-253 0-505-56-251-56-513-175v2344z"/>
</defs>
<use xlink:href="#s"/>
<use x="63.378906" xlink:href="#e"/>
<use x="102.587891" xlink:href="#o"/>
<use x="200" xlink:href="#n"/>
<use x="227.783203" xlink:href="#af"/>
<use x="291.40625" xlink:href="#n"/>
<use x="319.189453" xlink:href="#k"/>
<use x="346.972656" xlink:href="#ae"/>
</g>
<path d="m140 1038h433" clip-path="url(#a)" fill="none" stroke="#b0b0b0" stroke-linecap="square" stroke-width=".8"/>
<use x="139.98149" y="1038.381816" stroke="#000000" stroke-width=".8" xlink:href="#c"/>
<g transform="translate(113 1042) scale(.1 -.1)">
<defs>
<path id="al" transform="scale(.0156)" d="m603 3500h575v-3563q0-668-255-968-254-300-820-300h-219v487h154q328 0 446 152 119 151 119 629v3563zm0 1363h575v-729h-575v729z"/>
</defs>
<use xlink:href="#al"/>
<use x="27.783203" xlink:href="#f"/>
<use x="79.882812" xlink:href="#h"/>
<use x="141.064453" xlink:href="#l"/>
</g>
<path d="m140 1016h433" clip-path="url(#a)" fill="none" stroke="#b0b0b0" stroke-linecap="square" stroke-width=".8"/>
<use x="139.98149" y="1016.07992" stroke="#000000" stroke-width=".8" xlink:href="#c"/>
<g transform="translate(73.6 1020) scale(.1 -.1)">
<use xlink:href="#al"/>
<use x="27.783203" xlink:href="#f"/>
<use x="79.882812" xlink:href="#h"/>
<use x="141.064453" xlink:href="#l"/>
<use x="204.443359" xlink:href="#g"/>
<use x="254.443359" xlink:href="#x"/>
<use x="317.919922" xlink:href="#w"/>
<use x="381.298828" xlink:href="#o"/>
<use x="478.710938" xlink:href="#j"/>
<use x="542.1875" xlink:href="#f"/>
</g>
<path d="m140 994h433" clip-path="url(#a)" fill="none" stroke="#b0b0b0" stroke-linecap="square" stroke-width=".8"/>
<use x="139.98149" y="993.778024" stroke="#000000" stroke-width=".8" xlink:href="#c"/>
<g transform="translate(81 998) scale(.1 -.1)">
<use xlink:href="#al"/>
<use x="27.783203" xlink:href="#f"/>
<use x="79.882812" xlink:href="#h"/>
<use x="141.064453" xlink:href="#l"/>
<use x="204.443359" xlink:href="#g"/>
<use x="254.443359" xlink:href="#n"/>
<use x="282.226562" xlink:href="#h"/>
<use x="343.408203" xlink:href="#i"/>
<use x="404.6875" xlink:href="#x"/>
<use x="468.164062" xlink:href="#f"/>
</g>
<path d="m140 971h433" clip-path="url(#a)" fill="none" stroke="#b0b0b0" stroke-linecap="square" stroke-width=".8"/>
<use x="139.98149" y="971.476128" stroke="#000000" stroke-width=".8" xlink:href="#c"/>
<g transform="translate(57.6 975) scale(.1 -.1)">
<use xlink:href="#n"/>
<use x="27.783203" xlink:href="#h"/>
<use x="88.964844" xlink:href="#p"/>
<use x="152.441406" xlink:href="#p"/>
<use x="215.917969" xlink:href="#k"/>
<use x="243.701172" xlink:href="#l"/>
<use x="307.080078" xlink:href="#p"/>
<use x="370.556641" xlink:href="#g"/>
<use x="420.556641" xlink:href="#v"/>
<use x="455.761719" xlink:href="#h"/>
<use x="516.943359" xlink:href="#d"/>
<use x="556.306641" xlink:href="#o"/>
<use x="653.71875" xlink:href="#i"/>
<use x="714.998047" xlink:href="#e"/>
</g>
<path d="m140 949h433" clip-path="url(#a)" fill="none" stroke="#b0b0b0" stroke-linecap="square" stroke-width=".8"/>
<use x="139.98149" y="949.174232" stroke="#000000" stroke-width=".8" xlink:href="#c"/>
<g transform="translate(57.9 953) scale(.1 -.1)">
<use xlink:href="#n"/>
<use x="27.783203" xlink:href="#h"/>
<use x="88.964844" xlink:href="#p"/>
<use x="152.441406" xlink:href="#p"/>
<use x="215.917969" xlink:href="#k"/>
<use x="243.701172" xlink:href="#l"/>
<use x="307.080078" xlink:href="#p"/>
<use x="370.556641" xlink:href="#g"/>
<use x="420.556641" xlink:href="#f"/>
<use x="472.65625" xlink:href="#k"/>
<use x="500.439453" xlink:href="#o"/>
<use x="597.851562" xlink:href="#j"/>
<use x="661.328125" xlink:href="#n"/>
<use x="689.111328" xlink:href="#b"/>
</g>
<path d="m140 927h433" clip-path="url(#a)" fill="none" stroke="#b0b0b0" stroke-linecap="square" stroke-width=".8"/>
<use x="139.98149" y="926.872335" stroke="#000000" stroke-width=".8" xlink:href="#c"/>
<g transform="translate(106 931) scale(.1 -.1)">
<use xlink:href="#o"/>
<use x="97.412109" xlink:href="#i"/>
<use x="158.691406" xlink:href="#aa"/>
<use x="212.976562" xlink:href="#h"/>
</g>
<path d="m140 905h433" clip-path="url(#a)" fill="none" stroke="#b0b0b0" stroke-linecap="square" stroke-width=".8"/>
<use x="139.98149" y="904.570439" stroke="#000000" stroke-width=".8" xlink:href="#c"/>
<g transform="translate(111 908) scale(.1 -.1)">
<use xlink:href="#o"/>
<use x="97.412109" xlink:href="#x"/>
<use x="160.888672" xlink:href="#j"/>
</g>
<path d="m140 882h433" clip-path="url(#a)" fill="none" stroke="#b0b0b0" stroke-linecap="square" stroke-width=".8"/>
<use x="139.98149" y="882.268543" stroke="#000000" stroke-width=".8" xlink:href="#c"/>
<g transform="translate(102 886) scale(.1 -.1)">
<use xlink:href="#l"/>
<use x="63.378906" xlink:href="#ae"/>
<use x="126.855469" xlink:href="#h"/>
<use x="188.037109" xlink:href="#x"/>
<use x="251.513672" xlink:href="#q"/>
</g>
<path d="m140 860h433" clip-path="url(#a)" fill="none" stroke="#b0b0b0" stroke-linecap="square" stroke-width=".8"/>
<use x="139.98149" y="859.966647" stroke="#000000" stroke-width=".8" xlink:href="#c"/>
<g transform="translate(90.1 864) scale(.1 -.1)">
<defs>
<path id="ak" transform="scale(.0156)" d="m947 1747q0-634 261-995t717-361 718 361q263 361 263 995t-263 995q-262 361-718 361t-717-361-261-995zm1959-1222q-181-312-458-464-276-152-664-152-634 0-1033 506-398 507-398 1332t398 1331q399 506 1033 506 388 0 664-152 277-151 458-463v531h575v-4831h-575v1856z"/>
</defs>
<use xlink:href="#l"/>
<use x="63.378906" xlink:href="#ak"/>
<use x="126.855469" xlink:href="#w"/>
<use x="190.234375" xlink:href="#b"/>
<use x="251.757812" xlink:href="#b"/>
<use x="313.28125" xlink:href="#l"/>
<use x="376.660156" xlink:href="#f"/>
</g>
<path d="m140 838h433" clip-path="url(#a)" fill="none" stroke="#b0b0b0" stroke-linecap="square" stroke-width=".8"/>
<use x="139.98149" y="837.664751" stroke="#000000" stroke-width=".8" xlink:href="#c"/>
<g transform="translate(35.9 841) scale(.1 -.1)">
<use xlink:href="#j"/>
<use x="63.476562" xlink:href="#k"/>
<use x="91.259766" xlink:href="#m"/>
<use x="146.240234" xlink:href="#aa"/>
<use x="204.150391" xlink:href="#n"/>
<use x="231.933594" xlink:href="#b"/>
<use x="293.457031" xlink:href="#g"/>
<use x="343.457031" xlink:href="#j"/>
<use x="406.933594" xlink:href="#w"/>
<use x="470.3125" xlink:href="#d"/>
<use x="509.175781" xlink:href="#b"/>
<use x="570.699219" xlink:href="#g"/>
<use x="620.699219" xlink:href="#j"/>
<use x="684.175781" xlink:href="#q"/>
<use x="743.355469" xlink:href="#e"/>
<use x="782.564453" xlink:href="#s"/>
<use x="845.943359" xlink:href="#h"/>
<use x="907.125" xlink:href="#l"/>
</g>
<path d="m140 815h433" clip-path="url(#a)" fill="none" stroke="#b0b0b0" stroke-linecap="square" stroke-width=".8"/>
<use x="139.98149" y="815.362855" stroke="#000000" stroke-width=".8" xlink:href="#c"/>
<g transform="translate(96.5 819) scale(.1 -.1)">
<use xlink:href="#j"/>
<use x="63.476562" xlink:href="#k"/>
<use x="91.259766" xlink:href="#x"/>
<use x="154.736328" xlink:href="#k"/>
<use x="182.519531" xlink:href="#p"/>
<use x="245.996094" xlink:href="#k"/>
<use x="273.779297" xlink:href="#e"/>
<use x="312.988281" xlink:href="#f"/>
</g>
<path d="m140 793h433" clip-path="url(#a)" fill="none" stroke="#b0b0b0" stroke-linecap="square" stroke-width=".8"/>
<use x="139.98149" y="793.060959" stroke="#000000" stroke-width=".8" xlink:href="#c"/>
<g transform="translate(51.6 797) scale(.1 -.1)">
<use xlink:href="#j"/>
<use x="63.476562" xlink:href="#j"/>
<use x="126.953125" xlink:href="#d"/>
<use x="168.066406" xlink:href="#k"/>
<use x="195.849609" xlink:href="#l"/>
<use x="259.228516" xlink:href="#e"/>
<use x="298.4375" xlink:href="#g"/>
<use x="348.4375" xlink:href="#f"/>
<use x="400.537109" xlink:href="#i"/>
<use x="461.816406" xlink:href="#v"/>
<use x="497.021484" xlink:href="#b"/>
<use x="558.544922" xlink:href="#g"/>
<use x="608.544922" xlink:href="#d"/>
<use x="647.408203" xlink:href="#b"/>
<use x="708.931641" xlink:href="#j"/>
<use x="772.408203" xlink:href="#d"/>
</g>
<path d="m140 771h433" clip-path="url(#a)" fill="none" stroke="#b0b0b0" stroke-linecap="square" stroke-width=".8"/>
<use x="139.98149" y="770.759063" stroke="#000000" stroke-width=".8" xlink:href="#c"/>
<g transform="translate(58.4 775) scale(.1 -.1)">
<use xlink:href="#j"/>
<use x="63.476562" xlink:href="#j"/>
<use x="126.953125" xlink:href="#d"/>
<use x="168.066406" xlink:href="#k"/>
<use x="195.849609" xlink:href="#l"/>
<use x="259.228516" xlink:href="#e"/>
<use x="298.4375" xlink:href="#g"/>
<use x="348.4375" xlink:href="#j"/>
<use x="411.914062" xlink:href="#v"/>
<use x="447.119141" xlink:href="#h"/>
<use x="508.300781" xlink:href="#d"/>
<use x="547.664062" xlink:href="#o"/>
<use x="645.076172" xlink:href="#i"/>
<use x="706.355469" xlink:href="#e"/>
</g>
<path d="m140 748h433" clip-path="url(#a)" fill="none" stroke="#b0b0b0" stroke-linecap="square" stroke-width=".8"/>
<use x="139.98149" y="748.457166" stroke="#000000" stroke-width=".8" xlink:href="#c"/>
<g transform="translate(83.2 752) scale(.1 -.1)">
<use xlink:href="#j"/>
<use x="63.476562" xlink:href="#q"/>
<use x="122.65625" xlink:href="#m"/>
<use x="177.636719" xlink:href="#j"/>
<use x="241.113281" xlink:href="#i"/>
<use x="302.392578" xlink:href="#d"/>
<use x="343.505859" xlink:href="#f"/>
<use x="395.605469" xlink:href="#b"/>
<use x="457.128906" xlink:href="#d"/>
</g>
<path d="m140 726h433" clip-path="url(#a)" fill="none" stroke="#b0b0b0" stroke-linecap="square" stroke-width=".8"/>
<use x="139.98149" y="726.15527" stroke="#000000" stroke-width=".8" xlink:href="#c"/>
<g transform="translate(98.2 730) scale(.1 -.1)">
<use xlink:href="#j"/>
<use x="63.476562" xlink:href="#q"/>
<use x="122.65625" xlink:href="#v"/>
<use x="157.861328" xlink:href="#n"/>
<use x="185.644531" xlink:href="#i"/>
<use x="246.923828" xlink:href="#e"/>
<use x="286.132812" xlink:href="#b"/>
</g>
<path d="m140 704h433" clip-path="url(#a)" fill="none" stroke="#b0b0b0" stroke-linecap="square" stroke-width=".8"/>
<use x="139.98149" y="703.853374" stroke="#000000" stroke-width=".8" xlink:href="#c"/>
<g transform="translate(105 708) scale(.1 -.1)">
<use xlink:href="#j"/>
<use x="63.476562" xlink:href="#q"/>
<use x="122.65625" xlink:href="#n"/>
<use x="150.439453" xlink:href="#k"/>
<use x="178.222656" xlink:href="#l"/>
<use x="241.601562" xlink:href="#e"/>
</g>
<path d="m140 682h433" clip-path="url(#a)" fill="none" stroke="#b0b0b0" stroke-linecap="square" stroke-width=".8"/>
<use x="139.98149" y="681.551478" stroke="#000000" stroke-width=".8" xlink:href="#c"/>
<g transform="translate(91 685) scale(.1 -.1)">
<use xlink:href="#d"/>
<use x="41.113281" xlink:href="#i"/>
<use x="102.392578" xlink:href="#q"/>
<use x="161.572266" xlink:href="#e"/>
<use x="200.78125" xlink:href="#d"/>
<use x="241.894531" xlink:href="#i"/>
<use x="303.173828" xlink:href="#m"/>
<use x="358.154297" xlink:href="#b"/>
</g>
<path d="m140 659h433" clip-path="url(#a)" fill="none" stroke="#b0b0b0" stroke-linecap="square" stroke-width=".8"/>
<use x="139.98149" y="659.249582" stroke="#000000" stroke-width=".8" xlink:href="#c"/>
<g transform="translate(60.3 663) scale(.1 -.1)">
<use xlink:href="#d"/>
<use x="38.863281" xlink:href="#b"/>
<use x="100.386719" xlink:href="#p"/>
<use x="163.863281" xlink:href="#b"/>
<use x="223.636719" xlink:href="#y"/>
<use x="282.816406" xlink:href="#g"/>
<use x="332.816406" xlink:href="#m"/>
<use x="387.796875" xlink:href="#h"/>
<use x="448.978516" xlink:href="#o"/>
<use x="546.390625" xlink:href="#j"/>
<use x="609.867188" xlink:href="#k"/>
<use x="637.650391" xlink:href="#n"/>
<use x="665.433594" xlink:href="#b"/>
</g>
<path d="m140 637h433" clip-path="url(#a)" fill="none" stroke="#b0b0b0" stroke-linecap="square" stroke-width=".8"/>
<use x="139.98149" y="636.947686" stroke="#000000" stroke-width=".8" xlink:href="#c"/>
<g transform="translate(80.9 641) scale(.1 -.1)">
<use xlink:href="#d"/>
<use x="38.863281" xlink:href="#b"/>
<use x="100.386719" xlink:href="#p"/>
<use x="163.863281" xlink:href="#b"/>
<use x="223.636719" xlink:href="#y"/>
<use x="282.816406" xlink:href="#g"/>
<use x="332.816406" xlink:href="#x"/>
<use x="396.292969" xlink:href="#l"/>
<use x="459.671875" xlink:href="#i"/>
</g>
<path d="m140 615h433" clip-path="url(#a)" fill="none" stroke="#b0b0b0" stroke-linecap="square" stroke-width=".8"/>
<use x="139.98149" y="614.64579" stroke="#000000" stroke-width=".8" xlink:href="#c"/>
<g transform="translate(70.1 618) scale(.1 -.1)">
<use xlink:href="#d"/>
<use x="38.863281" xlink:href="#b"/>
<use x="100.386719" xlink:href="#p"/>
<use x="163.863281" xlink:href="#b"/>
<use x="223.636719" xlink:href="#y"/>
<use x="282.816406" xlink:href="#g"/>
<use x="332.816406" xlink:href="#b"/>
<use x="394.339844" xlink:href="#v"/>
<use x="429.544922" xlink:href="#v"/>
<use x="464.75" xlink:href="#ae"/>
<use x="528.226562" xlink:href="#h"/>
<use x="589.408203" xlink:href="#e"/>
</g>
<path d="m140 592h433" clip-path="url(#a)" fill="none" stroke="#b0b0b0" stroke-linecap="square" stroke-width=".8"/>
<use x="139.98149" y="592.343893" stroke="#000000" stroke-width=".8" xlink:href="#c"/>
<g transform="translate(87.4 596) scale(.1 -.1)">
<use xlink:href="#d"/>
<use x="38.863281" xlink:href="#b"/>
<use x="100.386719" xlink:href="#p"/>
<use x="163.863281" xlink:href="#b"/>
<use x="223.636719" xlink:href="#y"/>
<use x="282.816406" xlink:href="#g"/>
<use x="332.816406" xlink:href="#aj"/>
<use x="391.996094" xlink:href="#ai"/>
</g>
<path d="m140 570h433" clip-path="url(#a)" fill="none" stroke="#b0b0b0" stroke-linecap="square" stroke-width=".8"/>
<use x="139.98149" y="570.041997" stroke="#000000" stroke-width=".8" xlink:href="#c"/>
<g transform="translate(92.6 574) scale(.1 -.1)">
<use xlink:href="#d"/>
<use x="41.113281" xlink:href="#k"/>
<use x="68.896484" xlink:href="#m"/>
<use x="123.876953" xlink:href="#s"/>
<use x="187.255859" xlink:href="#i"/>
<use x="248.535156" xlink:href="#d"/>
<use x="287.898438" xlink:href="#x"/>
<use x="351.375" xlink:href="#f"/>
</g>
<path d="m140 548h433" clip-path="url(#a)" fill="none" stroke="#b0b0b0" stroke-linecap="square" stroke-width=".8"/>
<use x="139.98149" y="547.740101" stroke="#000000" stroke-width=".8" xlink:href="#c"/>
<g transform="translate(59.5 552) scale(.1 -.1)">
<use xlink:href="#d"/>
<use x="41.113281" xlink:href="#k"/>
<use x="68.896484" xlink:href="#m"/>
<use x="123.876953" xlink:href="#s"/>
<use x="187.255859" xlink:href="#i"/>
<use x="248.535156" xlink:href="#d"/>
<use x="287.898438" xlink:href="#x"/>
<use x="351.375" xlink:href="#f"/>
<use x="403.474609" xlink:href="#g"/>
<use x="453.474609" xlink:href="#f"/>
<use x="505.574219" xlink:href="#w"/>
<use x="568.953125" xlink:href="#j"/>
<use x="632.429688" xlink:href="#b"/>
<use x="693.953125" xlink:href="#d"/>
</g>
<path d="m140 525h433" clip-path="url(#a)" fill="none" stroke="#b0b0b0" stroke-linecap="square" stroke-width=".8"/>
<use x="139.98149" y="525.438205" stroke="#000000" stroke-width=".8" xlink:href="#c"/>
<g transform="translate(77.9 529) scale(.1 -.1)">
<use xlink:href="#f"/>
<use x="52.099609" xlink:href="#m"/>
<use x="107.080078" xlink:href="#k"/>
<use x="134.863281" xlink:href="#o"/>
<use x="232.275391" xlink:href="#i"/>
<use x="293.554688" xlink:href="#d"/>
<use x="334.667969" xlink:href="#aa"/>
<use x="392.578125" xlink:href="#g"/>
<use x="442.578125" xlink:href="#v"/>
<use x="477.783203" xlink:href="#v"/>
<use x="511.238281" xlink:href="#e"/>
</g>
<path d="m140 503h433" clip-path="url(#a)" fill="none" stroke="#b0b0b0" stroke-linecap="square" stroke-width=".8"/>
<use x="139.98149" y="503.136309" stroke="#000000" stroke-width=".8" xlink:href="#c"/>
<g transform="translate(79.6 507) scale(.1 -.1)">
<use xlink:href="#f"/>
<use x="52.099609" xlink:href="#m"/>
<use x="107.080078" xlink:href="#k"/>
<use x="134.863281" xlink:href="#o"/>
<use x="232.275391" xlink:href="#i"/>
<use x="293.554688" xlink:href="#d"/>
<use x="334.667969" xlink:href="#aa"/>
<use x="392.578125" xlink:href="#g"/>
<use x="442.578125" xlink:href="#n"/>
<use x="470.361328" xlink:href="#w"/>
</g>
<path d="m140 481h433" clip-path="url(#a)" fill="none" stroke="#b0b0b0" stroke-linecap="square" stroke-width=".8"/>
<use x="139.98149" y="480.834413" stroke="#000000" stroke-width=".8" xlink:href="#c"/>
<g transform="translate(26.8 485) scale(.1 -.1)">
<use xlink:href="#f"/>
<use x="52.099609" xlink:href="#m"/>
<use x="107.080078" xlink:href="#k"/>
<use x="134.863281" xlink:href="#o"/>
<use x="232.275391" xlink:href="#i"/>
<use x="293.554688" xlink:href="#d"/>
<use x="334.667969" xlink:href="#aa"/>
<use x="392.578125" xlink:href="#g"/>
<use x="442.578125" xlink:href="#o"/>
<use x="539.990234" xlink:href="#h"/>
<use x="601.171875" xlink:href="#l"/>
<use x="664.550781" xlink:href="#e"/>
<use x="703.759766" xlink:href="#b"/>
<use x="765.283203" xlink:href="#g"/>
<use x="815.283203" xlink:href="#m"/>
<use x="870.263672" xlink:href="#i"/>
<use x="931.542969" xlink:href="#d"/>
<use x="972.65625" xlink:href="#n"/>
<use x="1000.439453" xlink:href="#h"/>
</g>
<path d="m140 459h433" clip-path="url(#a)" fill="none" stroke="#b0b0b0" stroke-linecap="square" stroke-width=".8"/>
<use x="139.98149" y="458.532517" stroke="#000000" stroke-width=".8" xlink:href="#c"/>
<g transform="translate(73.3 462) scale(.1 -.1)">
<use xlink:href="#f"/>
<use x="52.099609" xlink:href="#m"/>
<use x="107.080078" xlink:href="#k"/>
<use x="134.863281" xlink:href="#o"/>
<use x="232.275391" xlink:href="#i"/>
<use x="293.554688" xlink:href="#d"/>
<use x="334.667969" xlink:href="#aa"/>
<use x="392.578125" xlink:href="#g"/>
<use x="442.578125" xlink:href="#f"/>
<use x="494.677734" xlink:href="#h"/>
<use x="555.859375" xlink:href="#d"/>
</g>
<path d="m140 436h433" clip-path="url(#a)" fill="none" stroke="#b0b0b0" stroke-linecap="square" stroke-width=".8"/>
<use x="139.98149" y="436.23062" stroke="#000000" stroke-width=".8" xlink:href="#c"/>
<g transform="translate(3 440) scale(.1 -.1)">
<use xlink:href="#f"/>
<use x="52.099609" xlink:href="#m"/>
<use x="107.080078" xlink:href="#k"/>
<use x="134.863281" xlink:href="#o"/>
<use x="232.275391" xlink:href="#i"/>
<use x="293.554688" xlink:href="#d"/>
<use x="334.667969" xlink:href="#aa"/>
<use x="392.578125" xlink:href="#g"/>
<use x="442.578125" xlink:href="#f"/>
<use x="494.677734" xlink:href="#j"/>
<use x="558.154297" xlink:href="#i"/>
<use x="619.433594" xlink:href="#d"/>
<use x="660.546875" xlink:href="#f"/>
<use x="712.646484" xlink:href="#b"/>
<use x="774.169922" xlink:href="#g"/>
<use x="824.169922" xlink:href="#o"/>
<use x="921.582031" xlink:href="#i"/>
<use x="982.861328" xlink:href="#e"/>
<use x="1022.070312" xlink:href="#g"/>
<use x="1072.070312" xlink:href="#o"/>
<use x="1169.482422" xlink:href="#w"/>
<use x="1232.861328" xlink:href="#n"/>
<use x="1260.644531" xlink:href="#e"/>
</g>
<path d="m140 414h433" clip-path="url(#a)" fill="none" stroke="#b0b0b0" stroke-linecap="square" stroke-width=".8"/>
<use x="139.98149" y="413.928724" stroke="#000000" stroke-width=".8" xlink:href="#c"/>
<g transform="translate(61.7 418) scale(.1 -.1)">
<use xlink:href="#f"/>
<use x="52.099609" xlink:href="#j"/>
<use x="115.576172" xlink:href="#b"/>
<use x="177.099609" xlink:href="#m"/>
<use x="232.080078" xlink:href="#e"/>
<use x="271.289062" xlink:href="#d"/>
<use x="312.402344" xlink:href="#i"/>
<use x="373.681641" xlink:href="#n"/>
<use x="401.464844" xlink:href="#g"/>
<use x="451.464844" xlink:href="#l"/>
<use x="514.84375" xlink:href="#h"/>
<use x="576.025391" xlink:href="#d"/>
<use x="615.388672" xlink:href="#o"/>
</g>
<path d="m140 392h433" clip-path="url(#a)" fill="none" stroke="#b0b0b0" stroke-linecap="square" stroke-width=".8"/>
<use x="139.98149" y="391.626828" stroke="#000000" stroke-width=".8" xlink:href="#c"/>
<g transform="translate(51.4 395) scale(.1 -.1)">
<defs>
<path id="ar" transform="scale(.0156)" d="m353 3500h2731v-525l-2162-2516h2162v-459h-2809v525l2163 2516h-2085v459z"/>
</defs>
<use xlink:href="#f"/>
<use x="52.099609" xlink:href="#ak"/>
<use x="115.576172" xlink:href="#n"/>
<use x="143.359375" xlink:href="#p"/>
<use x="206.835938" xlink:href="#n"/>
<use x="234.619141" xlink:href="#h"/>
<use x="295.800781" xlink:href="#e"/>
<use x="335.009766" xlink:href="#g"/>
<use x="385.009766" xlink:href="#h"/>
<use x="446.191406" xlink:href="#j"/>
<use x="509.667969" xlink:href="#e"/>
<use x="548.876953" xlink:href="#k"/>
<use x="576.660156" xlink:href="#o"/>
<use x="674.072266" xlink:href="#k"/>
<use x="701.855469" xlink:href="#ar"/>
<use x="754.345703" xlink:href="#b"/>
</g>
<path d="m140 369h433" clip-path="url(#a)" fill="none" stroke="#b0b0b0" stroke-linecap="square" stroke-width=".8"/>
<use x="139.98149" y="369.324932" stroke="#000000" stroke-width=".8" xlink:href="#c"/>
<g transform="translate(50.7 373) scale(.1 -.1)">
<use xlink:href="#f"/>
<use x="52.099609" xlink:href="#ak"/>
<use x="115.576172" xlink:href="#n"/>
<use x="143.359375" xlink:href="#p"/>
<use x="206.835938" xlink:href="#n"/>
<use x="234.619141" xlink:href="#h"/>
<use x="295.800781" xlink:href="#e"/>
<use x="335.009766" xlink:href="#g"/>
<use x="385.009766" xlink:href="#e"/>
<use x="424.21875" xlink:href="#d"/>
<use x="465.332031" xlink:href="#i"/>
<use x="526.611328" xlink:href="#l"/>
<use x="589.990234" xlink:href="#f"/>
<use x="642.089844" xlink:href="#j"/>
<use x="705.566406" xlink:href="#k"/>
<use x="733.349609" xlink:href="#n"/>
<use x="761.132812" xlink:href="#b"/>
</g>
<path d="m140 347h433" clip-path="url(#a)" fill="none" stroke="#b0b0b0" stroke-linecap="square" stroke-width=".8"/>
<use x="139.98149" y="347.023036" stroke="#000000" stroke-width=".8" xlink:href="#c"/>
<g transform="translate(57.8 351) scale(.1 -.1)">
<use xlink:href="#f"/>
<use x="52.099609" xlink:href="#q"/>
<use x="111.279297" xlink:href="#o"/>
<use x="208.691406" xlink:href="#j"/>
<use x="272.167969" xlink:href="#q"/>
<use x="331.347656" xlink:href="#g"/>
<use x="381.347656" xlink:href="#b"/>
<use x="441.121094" xlink:href="#y"/>
<use x="500.300781" xlink:href="#j"/>
<use x="563.777344" xlink:href="#i"/>
<use x="625.056641" xlink:href="#l"/>
<use x="688.435547" xlink:href="#x"/>
</g>
<path d="m140 325h433" clip-path="url(#a)" fill="none" stroke="#b0b0b0" stroke-linecap="square" stroke-width=".8"/>
<use x="139.98149" y="324.72114" stroke="#000000" stroke-width=".8" xlink:href="#c"/>
<g transform="translate(49 329) scale(.1 -.1)">
<use xlink:href="#f"/>
<use x="52.099609" xlink:href="#q"/>
<use x="111.279297" xlink:href="#o"/>
<use x="208.691406" xlink:href="#j"/>
<use x="272.167969" xlink:href="#q"/>
<use x="331.347656" xlink:href="#g"/>
<use x="381.347656" xlink:href="#k"/>
<use x="409.130859" xlink:href="#l"/>
<use x="472.509766" xlink:href="#e"/>
<use x="511.71875" xlink:href="#b"/>
<use x="573.242188" xlink:href="#p"/>
<use x="636.71875" xlink:href="#d"/>
<use x="677.832031" xlink:href="#i"/>
<use x="739.111328" xlink:href="#e"/>
<use x="778.320312" xlink:href="#b"/>
</g>
<path d="m140 302h433" clip-path="url(#a)" fill="none" stroke="#b0b0b0" stroke-linecap="square" stroke-width=".8"/>
<use x="139.98149" y="302.419244" stroke="#000000" stroke-width=".8" xlink:href="#c"/>
<g transform="translate(81.6 306) scale(.1 -.1)">
<use xlink:href="#f"/>
<use x="52.099609" xlink:href="#q"/>
<use x="111.279297" xlink:href="#o"/>
<use x="208.691406" xlink:href="#j"/>
<use x="272.167969" xlink:href="#q"/>
<use x="331.347656" xlink:href="#g"/>
<use x="381.347656" xlink:href="#f"/>
<use x="433.447266" xlink:href="#e"/>
<use x="472.65625" xlink:href="#d"/>
</g>
<path d="m140 280h433" clip-path="url(#a)" fill="none" stroke="#b0b0b0" stroke-linecap="square" stroke-width=".8"/>
<use x="139.98149" y="280.117348" stroke="#000000" stroke-width=".8" xlink:href="#c"/>
<g transform="translate(109 284) scale(.1 -.1)">
<use xlink:href="#e"/>
<use x="39.208984" xlink:href="#b"/>
<use x="100.732422" xlink:href="#n"/>
<use x="128.515625" xlink:href="#m"/>
<use x="183.496094" xlink:href="#h"/>
</g>
<path d="m140 258h433" clip-path="url(#a)" fill="none" stroke="#b0b0b0" stroke-linecap="square" stroke-width=".8"/>
<use x="139.98149" y="257.815451" stroke="#000000" stroke-width=".8" xlink:href="#c"/>
<g transform="translate(109 262) scale(.1 -.1)">
<use xlink:href="#e"/>
<use x="39.208984" xlink:href="#s"/>
<use x="102.587891" xlink:href="#d"/>
<use x="143.701172" xlink:href="#k"/>
<use x="171.484375" xlink:href="#v"/>
<use x="204.939453" xlink:href="#e"/>
</g>
<path d="m140 236h433" clip-path="url(#a)" fill="none" stroke="#b0b0b0" stroke-linecap="square" stroke-width=".8"/>
<use x="139.98149" y="235.513555" stroke="#000000" stroke-width=".8" xlink:href="#c"/>
<g transform="translate(68.5 239) scale(.1 -.1)">
<use xlink:href="#e"/>
<use x="39.208984" xlink:href="#h"/>
<use x="100.390625" xlink:href="#d"/>
<use x="139.753906" xlink:href="#l"/>
<use x="203.132812" xlink:href="#i"/>
<use x="264.412109" xlink:href="#x"/>
<use x="327.888672" xlink:href="#h"/>
<use x="389.070312" xlink:href="#g"/>
<use x="439.070312" xlink:href="#s"/>
<use x="502.449219" xlink:href="#e"/>
<use x="541.658203" xlink:href="#e"/>
<use x="580.867188" xlink:href="#j"/>
</g>
<path d="m140 213h433" clip-path="url(#a)" fill="none" stroke="#b0b0b0" stroke-linecap="square" stroke-width=".8"/>
<use x="139.98149" y="213.211659" stroke="#000000" stroke-width=".8" xlink:href="#c"/>
<g transform="translate(5.95 217) scale(.1 -.1)">
<use xlink:href="#e"/>
<use x="39.208984" xlink:href="#q"/>
<use x="98.388672" xlink:href="#j"/>
<use x="161.865234" xlink:href="#k"/>
<use x="189.648438" xlink:href="#l"/>
<use x="253.027344" xlink:href="#p"/>
<use x="316.503906" xlink:href="#g"/>
<use x="366.503906" xlink:href="#d"/>
<use x="407.617188" xlink:href="#w"/>
<use x="470.996094" xlink:href="#l"/>
<use x="534.375" xlink:href="#e"/>
<use x="573.583984" xlink:href="#k"/>
<use x="601.367188" xlink:href="#o"/>
<use x="698.779297" xlink:href="#b"/>
<use x="760.302734" xlink:href="#g"/>
<use x="810.302734" xlink:href="#j"/>
<use x="873.779297" xlink:href="#d"/>
<use x="912.642578" xlink:href="#h"/>
<use x="973.824219" xlink:href="#e"/>
<use x="1013.033203" xlink:href="#h"/>
<use x="1074.214844" xlink:href="#m"/>
<use x="1129.195312" xlink:href="#h"/>
<use x="1190.376953" xlink:href="#n"/>
<use x="1218.160156" xlink:href="#f"/>
</g>
<path d="m140 191h433" clip-path="url(#a)" fill="none" stroke="#b0b0b0" stroke-linecap="square" stroke-width=".8"/>
<use x="139.98149" y="190.909763" stroke="#000000" stroke-width=".8" xlink:href="#c"/>
<g transform="translate(50.3 195) scale(.1 -.1)">
<use xlink:href="#y"/>
<use x="59.179688" xlink:href="#o"/>
<use x="156.591797" xlink:href="#n"/>
<use x="184.375" xlink:href="#g"/>
<use x="234.375" xlink:href="#b"/>
<use x="295.898438" xlink:href="#e"/>
<use x="335.107422" xlink:href="#d"/>
<use x="373.970703" xlink:href="#b"/>
<use x="435.494141" xlink:href="#b"/>
<use x="497.017578" xlink:href="#g"/>
<use x="547.017578" xlink:href="#j"/>
<use x="610.494141" xlink:href="#i"/>
<use x="671.773438" xlink:href="#d"/>
<use x="712.886719" xlink:href="#f"/>
<use x="764.986328" xlink:href="#b"/>
</g>
<path d="m140 169h433" clip-path="url(#a)" fill="none" stroke="#b0b0b0" stroke-linecap="square" stroke-width=".8"/>
<use x="139.98149" y="168.607867" stroke="#000000" stroke-width=".8" xlink:href="#c"/>
<g transform="translate(33.4 172) scale(.1 -.1)">
<use xlink:href="#y"/>
<use x="59.179688" xlink:href="#o"/>
<use x="156.591797" xlink:href="#n"/>
<use x="184.375" xlink:href="#g"/>
<use x="234.375" xlink:href="#b"/>
<use x="295.898438" xlink:href="#e"/>
<use x="335.107422" xlink:href="#d"/>
<use x="373.970703" xlink:href="#b"/>
<use x="435.494141" xlink:href="#b"/>
<use x="497.017578" xlink:href="#g"/>
<use x="547.017578" xlink:href="#k"/>
<use x="574.800781" xlink:href="#e"/>
<use x="614.009766" xlink:href="#b"/>
<use x="675.533203" xlink:href="#d"/>
<use x="716.646484" xlink:href="#j"/>
<use x="780.123047" xlink:href="#i"/>
<use x="841.402344" xlink:href="#d"/>
<use x="882.515625" xlink:href="#f"/>
<use x="934.615234" xlink:href="#b"/>
</g>
<path d="m140 146h433" clip-path="url(#a)" fill="none" stroke="#b0b0b0" stroke-linecap="square" stroke-width=".8"/>
<use x="139.98149" y="146.305971" stroke="#000000" stroke-width=".8" xlink:href="#c"/>
<g transform="translate(39.9 150) scale(.1 -.1)">
<use xlink:href="#y"/>
<use x="59.179688" xlink:href="#o"/>
<use x="156.591797" xlink:href="#n"/>
<use x="184.375" xlink:href="#g"/>
<use x="234.375" xlink:href="#b"/>
<use x="295.898438" xlink:href="#e"/>
<use x="335.107422" xlink:href="#d"/>
<use x="373.970703" xlink:href="#b"/>
<use x="435.494141" xlink:href="#b"/>
<use x="497.017578" xlink:href="#g"/>
<use x="547.017578" xlink:href="#j"/>
<use x="610.494141" xlink:href="#d"/>
<use x="649.357422" xlink:href="#h"/>
<use x="710.539062" xlink:href="#m"/>
<use x="765.519531" xlink:href="#b"/>
<use x="827.042969" xlink:href="#f"/>
<use x="879.142578" xlink:href="#f"/>
</g>
<path d="m140 124h433" clip-path="url(#a)" fill="none" stroke="#b0b0b0" stroke-linecap="square" stroke-width=".8"/>
<use x="139.98149" y="124.004075" stroke="#000000" stroke-width=".8" xlink:href="#c"/>
<g transform="translate(110 128) scale(.1 -.1)">
<defs>
<path id="ab" transform="scale(.0156)" d="m2597 2516q453-97 707-404 255-306 255-756 0-690-475-1069-475-378-1350-378-293 0-604 58t-642 174v609q262-153 574-231 313-78 654-78 593 0 904 234t311 681q0 413-289 645-289 233-804 233h-544v519h569q465 0 712 186t247 536q0 359-255 551-254 193-729 193-260 0-557-57-297-56-653-174v562q360 100 674 150t592 50q719 0 1137-327 419-326 419-882 0-388-222-655t-631-370z"/>
</defs>
<use xlink:href="#ac"/>
<use x="63.623047" xlink:href="#e"/>
<use x="102.832031" xlink:href="#h"/>
<use x="164.013672" xlink:href="#ab"/>
</g>
<path d="m140 102h433" clip-path="url(#a)" fill="none" stroke="#b0b0b0" stroke-linecap="square" stroke-width=".8"/>
<use x="139.98149" y="101.702178" stroke="#000000" stroke-width=".8" xlink:href="#c"/>
<g transform="translate(57 106) scale(.1 -.1)">
<use xlink:href="#j"/>
<use x="63.476562" xlink:href="#q"/>
<use x="122.65625" xlink:href="#e"/>
<use x="161.865234" xlink:href="#s"/>
<use x="225.244141" xlink:href="#h"/>
<use x="286.425781" xlink:href="#l"/>
<use x="349.804688" xlink:href="#g"/>
<use x="399.804688" xlink:href="#f"/>
<use x="451.904297" xlink:href="#e"/>
<use x="491.113281" xlink:href="#i"/>
<use x="552.392578" xlink:href="#d"/>
<use x="593.505859" xlink:href="#e"/>
<use x="632.714844" xlink:href="#w"/>
<use x="696.09375" xlink:href="#j"/>
</g>
<path d="m140 79.4h433" clip-path="url(#a)" fill="none" stroke="#b0b0b0" stroke-linecap="square" stroke-width=".8"/>
<use x="139.98149" y="79.400282" stroke="#000000" stroke-width=".8" xlink:href="#c"/>
<g transform="translate(16.5 83.2) scale(.1 -.1)">
<use xlink:href="#j"/>
<use x="63.476562" xlink:href="#q"/>
<use x="122.65625" xlink:href="#e"/>
<use x="161.865234" xlink:href="#s"/>
<use x="225.244141" xlink:href="#h"/>
<use x="286.425781" xlink:href="#l"/>
<use x="349.804688" xlink:href="#g"/>
<use x="399.804688" xlink:href="#f"/>
<use x="451.904297" xlink:href="#e"/>
<use x="491.113281" xlink:href="#i"/>
<use x="552.392578" xlink:href="#d"/>
<use x="593.505859" xlink:href="#e"/>
<use x="632.714844" xlink:href="#w"/>
<use x="696.09375" xlink:href="#j"/>
<use x="759.570312" xlink:href="#g"/>
<use x="809.570312" xlink:href="#l"/>
<use x="872.949219" xlink:href="#h"/>
<use x="934.130859" xlink:href="#g"/>
<use x="984.130859" xlink:href="#f"/>
<use x="1036.230469" xlink:href="#k"/>
<use x="1064.013672" xlink:href="#e"/>
<use x="1103.222656" xlink:href="#b"/>
</g>
<path d="m140 57.1h433" clip-path="url(#a)" fill="none" stroke="#b0b0b0" stroke-linecap="square" stroke-width=".8"/>
<use x="139.98149" y="57.098386" stroke="#000000" stroke-width=".8" xlink:href="#c"/>
<g transform="translate(115 60.9) scale(.1 -.1)">
<defs>
<path id="at" transform="scale(.0156)" d="m2188 4044-857-2322h1716l-859 2322zm-357 622h716l1778-4666h-656l-425 1197h-2103l-425-1197h-666l1781 4666z"/>
<path id="ao" transform="scale(.0156)" d="m628 4666h631v-4135h2272v-531h-2903v4666z"/>
</defs>
<use xlink:href="#at"/>
<use x="68.408203" xlink:href="#ao"/>
<use x="124.121094" xlink:href="#ao"/>
</g>
<path d="m356 1507v-1472" clip-path="url(#a)" fill="none" stroke="#1f77b4" stroke-linecap="square" stroke-width="1.5"/>
<g fill="none" stroke="#1f77b4" stroke-width="1.5">
<path d="m356 1490v-11.2" clip-path="url(#a)"/>
<path d="m356 1468v-11.2" clip-path="url(#a)"/>
<path d="m356 1445v-11.2" clip-path="url(#a)"/>
<path d="m356 1423v-11.2" clip-path="url(#a)"/>
<path d="m356 1401v-11.2" clip-path="url(#a)"/>
<path d="m356 1378v-11.2" clip-path="url(#a)"/>
<path d="m356 1356v-11.2" clip-path="url(#a)"/>
<path d="m356 1334v-11.2" clip-path="url(#a)"/>
<path d="m356 1312v-11.2" clip-path="url(#a)"/>
<path d="m356 1289v-11.2" clip-path="url(#a)"/>
<path d="m356 1267v-11.2" clip-path="url(#a)"/>
<path d="m356 1245v-11.2" clip-path="url(#a)"/>
<path d="m356 1222v-11.2" clip-path="url(#a)"/>
<path d="m356 1200v-11.2" clip-path="url(#a)"/>
<path d="m356 1178v-11.2" clip-path="url(#a)"/>
<path d="m356 1155v-11.2" clip-path="url(#a)"/>
<path d="m356 1133v-11.2" clip-path="url(#a)"/>
<path d="m356 1111v-11.2" clip-path="url(#a)"/>
<path d="m356 1089v-11.2" clip-path="url(#a)"/>
<path d="m356 1066v-11.2" clip-path="url(#a)"/>
<path d="m356 1044v-11.2" clip-path="url(#a)"/>
<path d="m356 1022v-11.2" clip-path="url(#a)"/>
<path d="m356 999v-11.2" clip-path="url(#a)"/>
<path d="m356 977v-11.2" clip-path="url(#a)"/>
<path d="m356 955v-11.2" clip-path="url(#a)"/>
<path d="m356 932v-11.2" clip-path="url(#a)"/>
<path d="m356 910v-11.2" clip-path="url(#a)"/>
<path d="m356 888v-11.2" clip-path="url(#a)"/>
<path d="m356 866v-11.2" clip-path="url(#a)"/>
<path d="m356 843v-11.2" clip-path="url(#a)"/>
<path d="m356 821v-11.2" clip-path="url(#a)"/>
<path d="m356 799v-11.2" clip-path="url(#a)"/>
<path d="m356 776v-11.2" clip-path="url(#a)"/>
<path d="m356 754v-11.2" clip-path="url(#a)"/>
<path d="m356 732v-11.2" clip-path="url(#a)"/>
<path d="m356 709v-11.2" clip-path="url(#a)"/>
<path d="m356 687v-11.2" clip-path="url(#a)"/>
<path d="m356 665v-11.2" clip-path="url(#a)"/>
<path d="m356 643v-11.2" clip-path="url(#a)"/>
<path d="m356 620v-11.2" clip-path="url(#a)"/>
<path d="m356 598v-11.2" clip-path="url(#a)"/>
<path d="m356 576v-11.2" clip-path="url(#a)"/>
<path d="m356 553v-11.2" clip-path="url(#a)"/>
<path d="m356 531v-11.2" clip-path="url(#a)"/>
<path d="m356 509v-11.2" clip-path="url(#a)"/>
<path d="m356 486v-11.2" clip-path="url(#a)"/>
<path d="m356 464v-11.2" clip-path="url(#a)"/>
<path d="m356 442v-11.2" clip-path="url(#a)"/>
<path d="m356 420v-11.2" clip-path="url(#a)"/>
<path d="m356 397v-11.2" clip-path="url(#a)"/>
<path d="m356 375v-11.2" clip-path="url(#a)"/>
<path d="m356 353v-11.2" clip-path="url(#a)"/>
<path d="m356 330v-11.2" clip-path="url(#a)"/>
<path d="m356 308v-11.2" clip-path="url(#a)"/>
<path d="m356 286v-11.2" clip-path="url(#a)"/>
<path d="m356 263v-11.2" clip-path="url(#a)"/>
<path d="m356 241v-11.2" clip-path="url(#a)"/>
<path d="m356 219v-11.2" clip-path="url(#a)"/>
<path d="m356 196v-11.2" clip-path="url(#a)"/>
<path d="m356 174v-11.2" clip-path="url(#a)"/>
<path d="m356 152v-11.2" clip-path="url(#a)"/>
<path d="m408 130v-11.2" clip-path="url(#a)"/>
<path d="m464 107v-11.2" clip-path="url(#a)"/>
<path d="m473 85v-11.2" clip-path="url(#a)"/>
<path d="m445 62.7v-11.2" clip-path="url(#a)"/>
</g>
<g fill="none" stroke="#1f77b4" stroke-width="1.5">
<path d="m356 1490v-11.2" clip-path="url(#a)"/>
<path d="m356 1468v-11.2" clip-path="url(#a)"/>
<path d="m356 1445v-11.2" clip-path="url(#a)"/>
<path d="m356 1423v-11.2" clip-path="url(#a)"/>
<path d="m356 1401v-11.2" clip-path="url(#a)"/>
<path d="m356 1378v-11.2" clip-path="url(#a)"/>
<path d="m356 1356v-11.2" clip-path="url(#a)"/>
<path d="m356 1334v-11.2" clip-path="url(#a)"/>
<path d="m356 1312v-11.2" clip-path="url(#a)"/>
<path d="m356 1289v-11.2" clip-path="url(#a)"/>
<path d="m356 1267v-11.2" clip-path="url(#a)"/>
<path d="m356 1245v-11.2" clip-path="url(#a)"/>
<path d="m356 1222v-11.2" clip-path="url(#a)"/>
<path d="m356 1200v-11.2" clip-path="url(#a)"/>
<path d="m356 1178v-11.2" clip-path="url(#a)"/>
<path d="m356 1155v-11.2" clip-path="url(#a)"/>
<path d="m356 1133v-11.2" clip-path="url(#a)"/>
<path d="m356 1111v-11.2" clip-path="url(#a)"/>
<path d="m356 1089v-11.2" clip-path="url(#a)"/>
<path d="m356 1066v-11.2" clip-path="url(#a)"/>
<path d="m356 1044v-11.2" clip-path="url(#a)"/>
<path d="m356 1022v-11.2" clip-path="url(#a)"/>
<path d="m356 999v-11.2" clip-path="url(#a)"/>
<path d="m356 977v-11.2" clip-path="url(#a)"/>
<path d="m356 955v-11.2" clip-path="url(#a)"/>
<path d="m356 932v-11.2" clip-path="url(#a)"/>
<path d="m356 910v-11.2" clip-path="url(#a)"/>
<path d="m356 888v-11.2" clip-path="url(#a)"/>
<path d="m356 866v-11.2" clip-path="url(#a)"/>
<path d="m356 843v-11.2" clip-path="url(#a)"/>
<path d="m356 821v-11.2" clip-path="url(#a)"/>
<path d="m356 799v-11.2" clip-path="url(#a)"/>
<path d="m356 776v-11.2" clip-path="url(#a)"/>
<path d="m356 754v-11.2" clip-path="url(#a)"/>
<path d="m356 732v-11.2" clip-path="url(#a)"/>
<path d="m356 709v-11.2" clip-path="url(#a)"/>
<path d="m356 687v-11.2" clip-path="url(#a)"/>
<path d="m356 665v-11.2" clip-path="url(#a)"/>
<path d="m356 643v-11.2" clip-path="url(#a)"/>
<path d="m356 620v-11.2" clip-path="url(#a)"/>
<path d="m356 598v-11.2" clip-path="url(#a)"/>
<path d="m356 576v-11.2" clip-path="url(#a)"/>
<path d="m356 553v-11.2" clip-path="url(#a)"/>
<path d="m356 531v-11.2" clip-path="url(#a)"/>
<path d="m356 509v-11.2" clip-path="url(#a)"/>
<path d="m356 486v-11.2" clip-path="url(#a)"/>
<path d="m356 464v-11.2" clip-path="url(#a)"/>
<path d="m356 442v-11.2" clip-path="url(#a)"/>
<path d="m356 420v-11.2" clip-path="url(#a)"/>
<path d="m356 397v-11.2" clip-path="url(#a)"/>
<path d="m356 375v-11.2" clip-path="url(#a)"/>
<path d="m356 353v-11.2" clip-path="url(#a)"/>
<path d="m356 330v-11.2" clip-path="url(#a)"/>
<path d="m356 308v-11.2" clip-path="url(#a)"/>
<path d="m356 286v-11.2" clip-path="url(#a)"/>
<path d="m356 263v-11.2" clip-path="url(#a)"/>
<path d="m356 241v-11.2" clip-path="url(#a)"/>
<path d="m356 219v-11.2" clip-path="url(#a)"/>
<path d="m356 196v-11.2" clip-path="url(#a)"/>
<path d="m356 174v-11.2" clip-path="url(#a)"/>
<path d="m356 152v-11.2" clip-path="url(#a)"/>
<path d="m419 130v-11.2" clip-path="url(#a)"/>
<path d="m469 107v-11.2" clip-path="url(#a)"/>
<path d="m482 85v-11.2" clip-path="url(#a)"/>
<path d="m482 62.7v-11.2" clip-path="url(#a)"/>
</g>
<g fill="none" stroke="#1f77b4" stroke-width="1.5">
<path d="m356 1490v-11.2" clip-path="url(#a)"/>
<path d="m356 1468v-11.2" clip-path="url(#a)"/>
<path d="m356 1445v-11.2" clip-path="url(#a)"/>
<path d="m356 1423v-11.2" clip-path="url(#a)"/>
<path d="m356 1401v-11.2" clip-path="url(#a)"/>
<path d="m356 1378v-11.2" clip-path="url(#a)"/>
<path d="m356 1356v-11.2" clip-path="url(#a)"/>
<path d="m356 1334v-11.2" clip-path="url(#a)"/>
<path d="m356 1312v-11.2" clip-path="url(#a)"/>
<path d="m356 1289v-11.2" clip-path="url(#a)"/>
<path d="m356 1267v-11.2" clip-path="url(#a)"/>
<path d="m356 1245v-11.2" clip-path="url(#a)"/>
<path d="m356 1222v-11.2" clip-path="url(#a)"/>
<path d="m356 1200v-11.2" clip-path="url(#a)"/>
<path d="m356 1178v-11.2" clip-path="url(#a)"/>
<path d="m356 1155v-11.2" clip-path="url(#a)"/>
<path d="m356 1133v-11.2" clip-path="url(#a)"/>
<path d="m356 1111v-11.2" clip-path="url(#a)"/>
<path d="m356 1089v-11.2" clip-path="url(#a)"/>
<path d="m356 1066v-11.2" clip-path="url(#a)"/>
<path d="m356 1044v-11.2" clip-path="url(#a)"/>
<path d="m356 1022v-11.2" clip-path="url(#a)"/>
<path d="m356 999v-11.2" clip-path="url(#a)"/>
<path d="m356 977v-11.2" clip-path="url(#a)"/>
<path d="m356 955v-11.2" clip-path="url(#a)"/>
<path d="m356 932v-11.2" clip-path="url(#a)"/>
<path d="m356 910v-11.2" clip-path="url(#a)"/>
<path d="m356 888v-11.2" clip-path="url(#a)"/>
<path d="m356 866v-11.2" clip-path="url(#a)"/>
<path d="m356 843v-11.2" clip-path="url(#a)"/>
<path d="m356 821v-11.2" clip-path="url(#a)"/>
<path d="m356 799v-11.2" clip-path="url(#a)"/>
<path d="m356 776v-11.2" clip-path="url(#a)"/>
<path d="m356 754v-11.2" clip-path="url(#a)"/>
<path d="m356 732v-11.2" clip-path="url(#a)"/>
<path d="m356 709v-11.2" clip-path="url(#a)"/>
<path d="m356 687v-11.2" clip-path="url(#a)"/>
<path d="m356 665v-11.2" clip-path="url(#a)"/>
<path d="m356 643v-11.2" clip-path="url(#a)"/>
<path d="m356 620v-11.2" clip-path="url(#a)"/>
<path d="m356 598v-11.2" clip-path="url(#a)"/>
<path d="m356 576v-11.2" clip-path="url(#a)"/>
<path d="m356 553v-11.2" clip-path="url(#a)"/>
<path d="m356 531v-11.2" clip-path="url(#a)"/>
<path d="m356 509v-11.2" clip-path="url(#a)"/>
<path d="m356 486v-11.2" clip-path="url(#a)"/>
<path d="m356 464v-11.2" clip-path="url(#a)"/>
<path d="m356 442v-11.2" clip-path="url(#a)"/>
<path d="m356 420v-11.2" clip-path="url(#a)"/>
<path d="m356 397v-11.2" clip-path="url(#a)"/>
<path d="m356 375v-11.2" clip-path="url(#a)"/>
<path d="m356 353v-11.2" clip-path="url(#a)"/>
<path d="m356 330v-11.2" clip-path="url(#a)"/>
<path d="m356 308v-11.2" clip-path="url(#a)"/>
<path d="m356 286v-11.2" clip-path="url(#a)"/>
<path d="m356 263v-11.2" clip-path="url(#a)"/>
<path d="m356 241v-11.2" clip-path="url(#a)"/>
<path d="m356 219v-11.2" clip-path="url(#a)"/>
<path d="m356 196v-11.2" clip-path="url(#a)"/>
<path d="m356 174v-11.2" clip-path="url(#a)"/>
<path d="m356 152v-11.2" clip-path="url(#a)"/>
<path d="m396 130v-11.2" clip-path="url(#a)"/>
<path d="m457 107v-11.2" clip-path="url(#a)"/>
<path d="m466 85v-11.2" clip-path="url(#a)"/>
<path d="m356 62.7v-11.2" clip-path="url(#a)"/>
</g>
<g fill="none" stroke="#1f77b4" stroke-width="1.5">
<path d="m356 1484" clip-path="url(#a)"/>
<path d="m356 1462" clip-path="url(#a)"/>
<path d="m356 1440" clip-path="url(#a)"/>
<path d="m356 1418" clip-path="url(#a)"/>
<path d="m356 1395" clip-path="url(#a)"/>
<path d="m356 1373" clip-path="url(#a)"/>
<path d="m356 1351" clip-path="url(#a)"/>
<path d="m356 1328" clip-path="url(#a)"/>
<path d="m356 1306" clip-path="url(#a)"/>
<path d="m356 1284" clip-path="url(#a)"/>
<path d="m356 1261" clip-path="url(#a)"/>
<path d="m356 1239" clip-path="url(#a)"/>
<path d="m356 1217" clip-path="url(#a)"/>
<path d="m356 1194" clip-path="url(#a)"/>
<path d="m356 1172" clip-path="url(#a)"/>
<path d="m356 1150" clip-path="url(#a)"/>
<path d="m356 1128" clip-path="url(#a)"/>
<path d="m356 1105" clip-path="url(#a)"/>
<path d="m356 1083" clip-path="url(#a)"/>
<path d="m356 1061" clip-path="url(#a)"/>
<path d="m356 1038" clip-path="url(#a)"/>
<path d="m356 1016" clip-path="url(#a)"/>
<path d="m356 994" clip-path="url(#a)"/>
<path d="m356 971" clip-path="url(#a)"/>
<path d="m356 949" clip-path="url(#a)"/>
<path d="m356 927" clip-path="url(#a)"/>
<path d="m356 905" clip-path="url(#a)"/>
<path d="m356 882" clip-path="url(#a)"/>
<path d="m356 860" clip-path="url(#a)"/>
<path d="m356 838" clip-path="url(#a)"/>
<path d="m356 815" clip-path="url(#a)"/>
<path d="m356 793" clip-path="url(#a)"/>
<path d="m356 771" clip-path="url(#a)"/>
<path d="m356 748" clip-path="url(#a)"/>
<path d="m356 726" clip-path="url(#a)"/>
<path d="m356 704" clip-path="url(#a)"/>
<path d="m356 682" clip-path="url(#a)"/>
<path d="m356 659" clip-path="url(#a)"/>
<path d="m356 637" clip-path="url(#a)"/>
<path d="m356 615" clip-path="url(#a)"/>
<path d="m356 592" clip-path="url(#a)"/>
<path d="m356 570" clip-path="url(#a)"/>
<path d="m356 548" clip-path="url(#a)"/>
<path d="m356 525" clip-path="url(#a)"/>
<path d="m356 503" clip-path="url(#a)"/>
<path d="m356 481" clip-path="url(#a)"/>
<path d="m356 459" clip-path="url(#a)"/>
<path d="m356 436" clip-path="url(#a)"/>
<path d="m356 414" clip-path="url(#a)"/>
<path d="m356 392" clip-path="url(#a)"/>
<path d="m356 369" clip-path="url(#a)"/>
<path d="m356 347" clip-path="url(#a)"/>
<path d="m356 325" clip-path="url(#a)"/>
<path d="m356 302" clip-path="url(#a)"/>
<path d="m356 280" clip-path="url(#a)"/>
<path d="m356 258" clip-path="url(#a)"/>
<path d="m356 236" clip-path="url(#a)"/>
<path d="m356 213" clip-path="url(#a)"/>
<path d="m356 191" clip-path="url(#a)"/>
<path d="m356 169" clip-path="url(#a)"/>
<path d="m356 146" clip-path="url(#a)"/>
<path d="m396 124h22.4" clip-path="url(#a)"/>
<path d="m457 102h11.8" clip-path="url(#a)"/>
<path d="m466 79.4h16" clip-path="url(#a)"/>
<path d="m356 57.1h125" clip-path="url(#a)"/>
</g>
<g fill="none" stroke="#1f77b4" stroke-dasharray="1.5,2.475" stroke-width="1.5">
<path d="m356 1490v-11.2" clip-path="url(#a)"/>
<path d="m356 1490v-11.2" clip-path="url(#a)"/>
<path d="m356 1468v-11.2" clip-path="url(#a)"/>
<path d="m356 1468v-11.2" clip-path="url(#a)"/>
<path d="m356 1445v-11.2" clip-path="url(#a)"/>
<path d="m356 1445v-11.2" clip-path="url(#a)"/>
<path d="m356 1423v-11.2" clip-path="url(#a)"/>
<path d="m356 1423v-11.2" clip-path="url(#a)"/>
<path d="m356 1401v-11.2" clip-path="url(#a)"/>
<path d="m356 1401v-11.2" clip-path="url(#a)"/>
<path d="m356 1378v-11.2" clip-path="url(#a)"/>
<path d="m356 1378v-11.2" clip-path="url(#a)"/>
<path d="m356 1356v-11.2" clip-path="url(#a)"/>
<path d="m356 1356v-11.2" clip-path="url(#a)"/>
<path d="m356 1334v-11.2" clip-path="url(#a)"/>
<path d="m356 1334v-11.2" clip-path="url(#a)"/>
<path d="m356 1312v-11.2" clip-path="url(#a)"/>
<path d="m356 1312v-11.2" clip-path="url(#a)"/>
<path d="m356 1289v-11.2" clip-path="url(#a)"/>
<path d="m356 1289v-11.2" clip-path="url(#a)"/>
<path d="m356 1267v-11.2" clip-path="url(#a)"/>
<path d="m356 1267v-11.2" clip-path="url(#a)"/>
<path d="m356 1245v-11.2" clip-path="url(#a)"/>
<path d="m356 1245v-11.2" clip-path="url(#a)"/>
<path d="m356 1222v-11.2" clip-path="url(#a)"/>
<path d="m356 1222v-11.2" clip-path="url(#a)"/>
<path d="m356 1200v-11.2" clip-path="url(#a)"/>
<path d="m356 1200v-11.2" clip-path="url(#a)"/>
<path d="m356 1178v-11.2" clip-path="url(#a)"/>
<path d="m356 1178v-11.2" clip-path="url(#a)"/>
<path d="m356 1155v-11.2" clip-path="url(#a)"/>
<path d="m356 1155v-11.2" clip-path="url(#a)"/>
<path d="m356 1133v-11.2" clip-path="url(#a)"/>
<path d="m356 1133v-11.2" clip-path="url(#a)"/>
<path d="m356 1111v-11.2" clip-path="url(#a)"/>
<path d="m356 1111v-11.2" clip-path="url(#a)"/>
<path d="m356 1089v-11.2" clip-path="url(#a)"/>
<path d="m356 1089v-11.2" clip-path="url(#a)"/>
<path d="m356 1066v-11.2" clip-path="url(#a)"/>
<path d="m356 1066v-11.2" clip-path="url(#a)"/>
<path d="m356 1044v-11.2" clip-path="url(#a)"/>
<path d="m356 1044v-11.2" clip-path="url(#a)"/>
<path d="m356 1022v-11.2" clip-path="url(#a)"/>
<path d="m356 1022v-11.2" clip-path="url(#a)"/>
<path d="m356 999v-11.2" clip-path="url(#a)"/>
<path d="m356 999v-11.2" clip-path="url(#a)"/>
<path d="m356 977v-11.2" clip-path="url(#a)"/>
<path d="m356 977v-11.2" clip-path="url(#a)"/>
<path d="m356 955v-11.2" clip-path="url(#a)"/>
<path d="m356 955v-11.2" clip-path="url(#a)"/>
<path d="m356 932v-11.2" clip-path="url(#a)"/>
<path d="m356 932v-11.2" clip-path="url(#a)"/>
<path d="m356 910v-11.2" clip-path="url(#a)"/>
<path d="m356 910v-11.2" clip-path="url(#a)"/>
<path d="m356 888v-11.2" clip-path="url(#a)"/>
<path d="m356 888v-11.2" clip-path="url(#a)"/>
<path d="m356 866v-11.2" clip-path="url(#a)"/>
<path d="m356 866v-11.2" clip-path="url(#a)"/>
<path d="m356 843v-11.2" clip-path="url(#a)"/>
<path d="m356 843v-11.2" clip-path="url(#a)"/>
<path d="m356 821v-11.2" clip-path="url(#a)"/>
<path d="m356 821v-11.2" clip-path="url(#a)"/>
<path d="m356 799v-11.2" clip-path="url(#a)"/>
<path d="m356 799v-11.2" clip-path="url(#a)"/>
<path d="m356 776v-11.2" clip-path="url(#a)"/>
<path d="m356 776v-11.2" clip-path="url(#a)"/>
<path d="m356 754v-11.2" clip-path="url(#a)"/>
<path d="m356 754v-11.2" clip-path="url(#a)"/>
<path d="m356 732v-11.2" clip-path="url(#a)"/>
<path d="m356 732v-11.2" clip-path="url(#a)"/>
<path d="m356 709v-11.2" clip-path="url(#a)"/>
<path d="m356 709v-11.2" clip-path="url(#a)"/>
<path d="m356 687v-11.2" clip-path="url(#a)"/>
<path d="m356 687v-11.2" clip-path="url(#a)"/>
<path d="m356 665v-11.2" clip-path="url(#a)"/>
<path d="m356 665v-11.2" clip-path="url(#a)"/>
<path d="m356 643v-11.2" clip-path="url(#a)"/>
<path d="m356 643v-11.2" clip-path="url(#a)"/>
<path d="m356 620v-11.2" clip-path="url(#a)"/>
<path d="m356 620v-11.2" clip-path="url(#a)"/>
<path d="m356 598v-11.2" clip-path="url(#a)"/>
<path d="m356 598v-11.2" clip-path="url(#a)"/>
<path d="m356 576v-11.2" clip-path="url(#a)"/>
<path d="m356 576v-11.2" clip-path="url(#a)"/>
<path d="m356 553v-11.2" clip-path="url(#a)"/>
<path d="m356 553v-11.2" clip-path="url(#a)"/>
<path d="m356 531v-11.2" clip-path="url(#a)"/>
<path d="m356 531v-11.2" clip-path="url(#a)"/>
<path d="m356 509v-11.2" clip-path="url(#a)"/>
<path d="m356 509v-11.2" clip-path="url(#a)"/>
<path d="m356 486v-11.2" clip-path="url(#a)"/>
<path d="m356 486v-11.2" clip-path="url(#a)"/>
<path d="m356 464v-11.2" clip-path="url(#a)"/>
<path d="m356 464v-11.2" clip-path="url(#a)"/>
<path d="m356 442v-11.2" clip-path="url(#a)"/>
<path d="m356 442v-11.2" clip-path="url(#a)"/>
<path d="m356 420v-11.2" clip-path="url(#a)"/>
<path d="m356 420v-11.2" clip-path="url(#a)"/>
<path d="m356 397v-11.2" clip-path="url(#a)"/>
<path d="m356 397v-11.2" clip-path="url(#a)"/>
<path d="m356 375v-11.2" clip-path="url(#a)"/>
<path d="m356 375v-11.2" clip-path="url(#a)"/>
<path d="m356 353v-11.2" clip-path="url(#a)"/>
<path d="m356 353v-11.2" clip-path="url(#a)"/>
<path d="m356 330v-11.2" clip-path="url(#a)"/>
<path d="m356 330v-11.2" clip-path="url(#a)"/>
<path d="m356 308v-11.2" clip-path="url(#a)"/>
<path d="m356 308v-11.2" clip-path="url(#a)"/>
<path d="m356 286v-11.2" clip-path="url(#a)"/>
<path d="m356 286v-11.2" clip-path="url(#a)"/>
<path d="m356 263v-11.2" clip-path="url(#a)"/>
<path d="m356 263v-11.2" clip-path="url(#a)"/>
<path d="m356 241v-11.2" clip-path="url(#a)"/>
<path d="m356 241v-11.2" clip-path="url(#a)"/>
<path d="m356 219v-11.2" clip-path="url(#a)"/>
<path d="m356 219v-11.2" clip-path="url(#a)"/>
<path d="m356 196v-11.2" clip-path="url(#a)"/>
<path d="m356 196v-11.2" clip-path="url(#a)"/>
<path d="m356 174v-11.2" clip-path="url(#a)"/>
<path d="m356 174v-11.2" clip-path="url(#a)"/>
<path d="m356 152v-11.2" clip-path="url(#a)"/>
<path d="m356 152v-11.2" clip-path="url(#a)"/>
<path d="m402 130v-11.2" clip-path="url(#a)"/>
<path d="m414 130v-11.2" clip-path="url(#a)"/>
<path d="m457 107v-11.2" clip-path="url(#a)"/>
<path d="m469 107v-11.2" clip-path="url(#a)"/>
<path d="m466 85v-11.2" clip-path="url(#a)"/>
<path d="m479 85v-11.2" clip-path="url(#a)"/>
<path d="m403 62.7v-11.2" clip-path="url(#a)"/>
<path d="m473 62.7v-11.2" clip-path="url(#a)"/>
</g>
<path d="m140 1507v-1472" fill="none" stroke="#000" stroke-linecap="square" stroke-width=".8"/>
<path d="m573 1507v-1472" fill="none" stroke="#000" stroke-linecap="square" stroke-width=".8"/>
<path d="m140 1507h433" fill="none" stroke="#000" stroke-linecap="square" stroke-width=".8"/>
<path d="m140 34.8h433" fill="none" stroke="#000" stroke-linecap="square" stroke-width=".8"/>
<g transform="translate(365 1484) scale(.1 -.1)">
<use xlink:href="#k"/>
<use x="27.783203" xlink:href="#l"/>
<use x="91.162109" xlink:href="#f"/>
<use x="143.261719" xlink:href="#k"/>
<use x="171.044922" xlink:href="#p"/>
<use x="234.521484" xlink:href="#l"/>
<use x="297.900391" xlink:href="#k"/>
<use x="325.683594" xlink:href="#v"/>
<use x="360.888672" xlink:href="#k"/>
<use x="388.671875" xlink:href="#m"/>
<use x="443.652344" xlink:href="#i"/>
<use x="504.931641" xlink:href="#l"/>
<use x="568.310547" xlink:href="#e"/>
</g>
<g transform="translate(408 117) scale(.08 -.08)">
<use xlink:href="#t"/>
<use x="63.623047" xlink:href="#u"/>
<use x="95.410156" xlink:href="#r"/>
<use x="159.033203" xlink:href="#af"/>
<use x="222.65625" xlink:href="#ad"/>
<use x="286.279297" xlink:href="#ac"/>
</g>
<g transform="translate(464 95) scale(.08 -.08)">
<defs>
<path id="am" transform="scale(.0156)" d="m2419 4116-1594-2491h1594v2491zm-166 550h794v-3041h666v-525h-666v-1100h-628v1100h-2106v609l1940 2957z"/>
</defs>
<use xlink:href="#t"/>
<use x="63.623047" xlink:href="#u"/>
<use x="95.410156" xlink:href="#t"/>
<use x="159.033203" xlink:href="#ac"/>
<use x="222.65625" xlink:href="#am"/>
<use x="286.279297" xlink:href="#af"/>
</g>
<g transform="translate(473 72.7) scale(.08 -.08)">
<use xlink:href="#t"/>
<use x="63.623047" xlink:href="#u"/>
<use x="95.410156" xlink:href="#t"/>
<use x="159.033203" xlink:href="#ab"/>
<use x="222.65625" xlink:href="#am"/>
<use x="286.279297" xlink:href="#ai"/>
</g>
<g transform="translate(445 50.4) scale(.08 -.08)">
<use xlink:href="#t"/>
<use x="63.623047" xlink:href="#u"/>
<use x="95.410156" xlink:href="#t"/>
<use x="159.033203" xlink:href="#r"/>
<use x="222.65625" xlink:href="#t"/>
<use x="286.279297" xlink:href="#ad"/>
</g>
<g transform="translate(366 34.8) scale(.1 -.1)">
<defs>
<path id="av" transform="scale(.0156)" d="m8863 2147v-281l-1229-1228-375 375 729 728h-7622v531h7622l-729 728 375 375 1229-1228z"/>
</defs>
<use xlink:href="#o"/>
<use x="97.412109" xlink:href="#h"/>
<use x="158.59375" xlink:href="#d"/>
<use x="197.457031" xlink:href="#b"/>
<use x="258.980469" xlink:href="#DejaVuSans-20"/>
<use x="290.767578" xlink:href="#av"/>
</g>
<g transform="translate(310 34.8) scale(.1 -.1)">
<defs>
<path id="aw" transform="scale(.0156)" d="m313 1866v281l1228 1228 375-375-728-728h7621v-531h-7621l728-728-375-375-1228 1228z"/>
</defs>
<use xlink:href="#aw"/>
<use x="143.359375" xlink:href="#DejaVuSans-20"/>
<use x="175.146484" xlink:href="#n"/>
<use x="202.929688" xlink:href="#b"/>
<use x="264.453125" xlink:href="#f"/>
<use x="316.552734" xlink:href="#f"/>
</g>
<g transform="translate(139 12.1) scale(.12 -.12)">
<defs>
<path id="as" transform="scale(.0156)" d="m628 4666h941l1190-3175 1197 3175h941v-4666h-616v4097l-1203-3200h-634l-1203 3200v-4097h-613v4666z"/>
<path id="aq" transform="scale(.0156)" d="m313 2009h1684v-512h-1684v512z"/>
<path id="ap" transform="scale(.0156)" d="m525 4666h3e3v-269l-1694-4397h-659l1594 4134h-2241v532z"/>
<path id="au" transform="scale(.0156)" d="m2113 2584q-425 0-674-291-248-290-248-796 0-503 248-796 249-292 674-292t673 292q248 293 248 796 0 506-248 796-248 291-673 291zm1253 1979v-575q-238 112-480 171-242 60-480 60-625 0-955-422-329-422-376-1275 184 272 462 417 279 145 613 145 703 0 1111-427 408-426 408-1160 0-719-425-1154-425-434-1131-434-810 0-1238 620-428 621-428 1799 0 1106 525 1764t1409 658q238 0 480-47t505-140z"/>
</defs>
<use xlink:href="#as"/>
<use x="86.279297" xlink:href="#b"/>
<use x="147.802734" xlink:href="#o"/>
<use x="245.214844" xlink:href="#h"/>
<use x="306.396484" xlink:href="#d"/>
<use x="347.509766" xlink:href="#q"/>
<use x="406.689453" xlink:href="#DejaVuSans-20"/>
<use x="438.476562" xlink:href="#w"/>
<use x="501.855469" xlink:href="#f"/>
<use x="553.955078" xlink:href="#i"/>
<use x="615.234375" xlink:href="#p"/>
<use x="678.710938" xlink:href="#b"/>
<use x="740.234375" xlink:href="#DejaVuSans-20"/>
<use x="772.021484" xlink:href="#h"/>
<use x="833.203125" xlink:href="#v"/>
<use x="868.408203" xlink:href="#DejaVuSans-20"/>
<use x="900.195312" xlink:href="#j"/>
<use x="963.671875" xlink:href="#q"/>
<use x="1022.851562" xlink:href="#e"/>
<use x="1062.060547" xlink:href="#s"/>
<use x="1125.439453" xlink:href="#h"/>
<use x="1186.621094" xlink:href="#l"/>
<use x="1250" xlink:href="#aq"/>
<use x="1286.083984" xlink:href="#ab"/>
<use x="1349.707031" xlink:href="#ab"/>
<use x="1413.330078" xlink:href="#r"/>
<use x="1476.953125" xlink:href="#m"/>
<use x="1531.933594" xlink:href="#af"/>
<use x="1595.556641" xlink:href="#ac"/>
<use x="1659.179688" xlink:href="#ap"/>
<use x="1722.802734" xlink:href="#ac"/>
<use x="1786.425781" xlink:href="#ad"/>
<use x="1850.048828" xlink:href="#ad"/>
<use x="1913.671875" xlink:href="#i"/>
<use x="1974.951172" xlink:href="#af"/>
<use x="2038.574219" xlink:href="#ab"/>
<use x="2102.197266" xlink:href="#ai"/>
<use x="2165.820312" xlink:href="#r"/>
<use x="2229.443359" xlink:href="#v"/>
<use x="2264.648438" xlink:href="#ab"/>
<use x="2328.271484" xlink:href="#ad"/>
<use x="2391.894531" xlink:href="#m"/>
<use x="2446.875" xlink:href="#au"/>
<use x="2510.498047" xlink:href="#aq"/>
<use x="2546.582031" xlink:href="#ab"/>
<use x="2610.205078" xlink:href="#ab"/>
<use x="2673.828125" xlink:href="#r"/>
<use x="2737.451172" xlink:href="#m"/>
<use x="2792.431641" xlink:href="#af"/>
<use x="2856.054688" xlink:href="#ac"/>
<use x="2919.677734" xlink:href="#ap"/>
<use x="2983.300781" xlink:href="#DejaVuSans-20"/>
<use x="3015.087891" xlink:href="#aj"/>
<use x="3074.267578" xlink:href="#f"/>
<use x="3126.367188" xlink:href="#u"/>
<use x="3158.154297" xlink:href="#DejaVuSans-20"/>
<use x="3189.941406" xlink:href="#ab"/>
<use x="3253.564453" xlink:href="#u"/>
<use x="3285.351562" xlink:href="#t"/>
<use x="3348.974609" xlink:href="#am"/>
<use x="3412.597656" xlink:href="#u"/>
<use x="3444.384766" xlink:href="#r"/>
<use x="3508.007812" xlink:href="#i"/>
<use x="3569.287109" xlink:href="#r"/>
</g>
<defs>
<clipPath id="a">
<rect x="140" y="34.8" width="433" height="1472"/>
</clipPath>
</defs>
</svg>
