<?xml version="1.0" encoding="UTF-8"?>
<!DOCTYPE svg  PUBLIC '-//W3C//DTD SVG 1.1//EN'  'http://www.w3.org/Graphics/SVG/1.1/DTD/svg11.dtd'>
<svg width="576pt" height="230pt" version="1.1" viewBox="0 0 576 230" xmlns="http://www.w3.org/2000/svg" xmlns:xlink="http://www.w3.org/1999/xlink">
<defs>
<style type="text/css">*{stroke-linejoin: round; stroke-linecap: butt}</style>
</defs>
<path d="m0 230h576v-230h-576z" fill="#fff"/>
<path d="m126 211h405v-176h-405z" fill="#fff"/>
<path d="m508 167v29.3-29.3z" clip-path="url(#a)" fill="#1f77b4" fill-opacity=".3"/>
<path d="m145 150v3.19l0.1-0.00737 0.1-0.0219 0.1-0.0359 0.1-0.0489 0.1-0.0605 0.1-0.0706 0.1-0.0788 0.1-0.085 0.1-0.0892 0.201-0.183 0.1-0.0898 0.1-0.0864 0.1-0.0814 0.1-0.0749 0.1-0.0672 0.1-0.0584 0.1-0.0485 0.1-0.0376 0.1-0.0257 0.1-0.0128 0.1 0.00135 0.1 0.0169 0.1 0.0339 0.1 0.0529 0.1 0.0739 0.1 0.0973 0.1 0.123 0.1 0.152 0.1 0.184 0.1 0.219 0.1 0.257 0.1 0.299 0.1 0.342 0.1 0.389 0.1 0.436 0.1 0.485 0.1 0.533 0.1 0.58 0.1 0.625 0.1 0.665 0.1 0.701 0.1 0.73 0.1 0.75 0.1 0.761 0.1 0.762 0.1 0.751 0.1 0.727 0.1 0.691 0.1 0.643 0.1 0.582 0.1 0.509 0.1 0.427 0.1 0.335 0.1 0.236 0.1 0.133 0.1 0.0264 0.1-0.0804 0.1-0.185 0.1-0.286 0.1-0.38 0.1-0.466 0.1-0.541 0.1-0.605 0.1-0.657 0.1-0.695 0.1-0.719 0.1-0.73 0.1-0.727 0.1-0.711 0.1-0.684 0.1-0.645 0.1-0.596 0.1-0.539 0.1-0.474 0.1-0.404 0.1-0.329 0.1-0.25 0.1-0.17 0.1-0.0898 0.1-0.0106 0.1 0.066 0.1 0.139 0.1 0.206 0.1 0.266 0.1 0.318 0.1 0.36 0.1 0.392 0.1 0.413 0.1 0.421 0.1 0.416 0.1 0.399 0.1 0.37 0.1 0.329 0.1 0.278 0.1 0.217 0.1 0.149 0.1 0.0765 0.1 4.97e-4v-17l-0.1 4.97e-4 -0.1 0.0765-0.1 0.149-0.1 0.217-0.1 0.278-0.1 0.329-0.1 0.37-0.1 0.399-0.1 0.416-0.1 0.421-0.1 0.413-0.1 0.392-0.1 0.36-0.1 0.318-0.1 0.266-0.1 0.206-0.1 0.139-0.1 0.066-0.1-0.0106-0.1-0.0898-0.1-0.17-0.1-0.25-0.1-0.329-0.1-0.404-0.1-0.474-0.1-0.539-0.1-0.596-0.1-0.645-0.1-0.684-0.1-0.711-0.1-0.727-0.1-0.73-0.1-0.719-0.1-0.695-0.1-0.657-0.1-0.605-0.1-0.541-0.1-0.466-0.1-0.38-0.1-0.286-0.1-0.185-0.1-0.0804-0.1 0.0264-0.1 0.133-0.1 0.236-0.1 0.335-0.1 0.427-0.1 0.509-0.1 0.582-0.1 0.643-0.1 0.691-0.1 0.727-0.1 0.751-0.1 0.762-0.1 0.761-0.1 0.75-0.1 0.73-0.1 0.701-0.1 0.665-0.1 0.625-0.1 0.58-0.1 0.533-0.1 0.485-0.1 0.436-0.1 0.389-0.1 0.342-0.1 0.299-0.1 0.257-0.1 0.219-0.1 0.184-0.1 0.152-0.1 0.123-0.1 0.0973-0.1 0.0739-0.1 0.0529-0.1 0.0339-0.1 0.0169-0.1 0.00135-0.1-0.0128-0.1-0.0257-0.1-0.0376-0.1-0.0485-0.1-0.0584-0.1-0.0672-0.1-0.0749-0.1-0.0814-0.1-0.0864-0.1-0.0898-0.201-0.183-0.1-0.0892-0.1-0.085-0.1-0.0788-0.1-0.0706-0.1-0.0605-0.1-0.0489-0.1-0.0359-0.1-0.0219-0.1-0.00737z" clip-path="url(#a)" fill="#1f77b4" fill-opacity=".3"/>
<path d="m490 121v4.36l0.0932 0.2 0.0932 0.221 0.0932 0.244 0.0932 0.269 0.0932 0.296 0.0932 0.323 0.0932 0.35 0.0932 0.373 0.0932 0.393 0.0932 0.407 0.0932 0.413 0.0932 0.411 0.0932 0.399 0.0932 0.378 0.0932 0.346 0.0932 0.305 0.0932 0.256 0.0932 0.201 0.0932 0.142 0.0932 0.0814 0.0932 0.0216 0.0932-0.0344 0.0932-0.0841 0.0932-0.125 0.0932-0.156 0.0932-0.175 0.0932-0.181 0.0932-0.173 0.0932-0.152 0.0932-0.119 0.0932-0.0733 0.0932-0.0173 0.0932 0.0474 0.0932 0.119 0.0932 0.195 0.0932 0.273 0.0932 0.35 0.0932 0.424 0.0932 0.492 0.0932 0.55 0.0932 0.596 0.0932 0.628 0.0932 0.643 0.0932 0.639 0.0932 0.616 0.0932 0.572 0.0932 0.51 0.0932 0.429 0.0932 0.332 0.0932 0.222 0.0932 0.104 0.0932-0.0189 0.0932-0.141 0.0932-0.259 0.0932-0.367 0.0932-0.461 0.0932-0.537 0.0932-0.594 0.0932-0.63 0.0932-0.644 0.0932-0.637 0.0932-0.61 0.0932-0.567 0.0932-0.51 0.0932-0.444 0.0932-0.372 0.0932-0.299 0.0932-0.229 0.0932-0.165 0.0932-0.11 0.0932-0.067 0.0932-0.0367 0.0932-0.0199 0.0932-0.0164 0.0932-0.0254 0.0932-0.0453 0.0932-0.0741 0.0932-0.109 0.0932-0.148 0.0932-0.189 0.0932-0.228 0.0932-0.264 0.0932-0.294 0.0932-0.318 0.0932-0.335 0.0932-0.343 0.0932-0.344 0.0932-0.338 0.0932-0.326 0.0932-0.308 0.0932-0.287 0.0932-0.263 0.0932-0.238 0.0932-0.214 0.0932-0.19 0.0932-0.169 0.0932-0.15 0.0932-0.134 0.0932-0.121v-2.95l-0.0932-0.121-0.0932-0.134-0.0932-0.15-0.0932-0.169-0.0932-0.19-0.0932-0.214-0.0932-0.238-0.0932-0.263-0.0932-0.287-0.0932-0.308-0.0932-0.326-0.0932-0.338-0.0932-0.344-0.0932-0.343-0.0932-0.335-0.0932-0.318-0.0932-0.294-0.0932-0.264-0.0932-0.228-0.0932-0.189-0.0932-0.148-0.0932-0.109-0.0932-0.0741-0.0932-0.0453-0.0932-0.0254-0.0932-0.0164-0.0932-0.0199-0.0932-0.0367-0.0932-0.067-0.0932-0.11-0.0932-0.165-0.0932-0.229-0.0932-0.299-0.0932-0.372-0.0932-0.444-0.0932-0.51-0.0932-0.567-0.0932-0.61-0.0932-0.637-0.0932-0.644-0.0932-0.63-0.0932-0.594-0.0932-0.537-0.0932-0.461-0.0932-0.367-0.0932-0.259-0.0932-0.141-0.0932-0.0189-0.0932 0.104-0.0932 0.222-0.0932 0.332-0.0932 0.429-0.0932 0.51-0.0932 0.572-0.0932 0.616-0.0932 0.639-0.0932 0.643-0.0932 0.628-0.0932 0.596-0.0932 0.55-0.0932 0.492-0.0932 0.424-0.0932 0.35-0.0932 0.273-0.0932 0.195-0.0932 0.119-0.0932 0.0474-0.0932-0.0173-0.0932-0.0733-0.0932-0.119-0.0932-0.152-0.0932-0.173-0.0932-0.181-0.0932-0.175-0.0932-0.156-0.0932-0.125-0.0932-0.0841-0.0932-0.0344-0.0932 0.0216-0.0932 0.0814-0.0932 0.142-0.0932 0.201-0.0932 0.256-0.0932 0.305-0.0932 0.346-0.0932 0.378-0.0932 0.399-0.0932 0.411-0.0932 0.413-0.0932 0.407-0.0932 0.393-0.0932 0.373-0.0932 0.35-0.0932 0.323-0.0932 0.296-0.0932 0.269-0.0932 0.244-0.0932 0.221-0.0932 0.2z" clip-path="url(#a)" fill="#1f77b4" fill-opacity=".3"/>
<path d="m502 90.7v5.41l0.113 0.229 0.113 0.246 0.113 0.264 0.113 0.285 0.113 0.306 0.113 0.327 0.113 0.347 0.113 0.365 0.113 0.378 0.113 0.387 0.113 0.388 0.113 0.382 0.113 0.368 0.113 0.345 0.113 0.314 0.113 0.275 0.113 0.231 0.113 0.182 0.113 0.13 0.113 0.0784 0.113 0.0287 0.113-0.0166 0.113-0.0554 0.113-0.0856 0.113-0.106 0.113-0.114 0.113-0.11 0.113-0.0936 0.113-0.0644 0.113-0.0231 0.113 0.0291 0.113 0.0906 0.113 0.159 0.113 0.233 0.113 0.308 0.113 0.381 0.113 0.45 0.113 0.509 0.113 0.557 0.113 0.588 0.113 0.602 0.113 0.595 0.113 0.567 0.113 0.517 0.113 0.445 0.113 0.355 0.113 0.249 0.113 0.131 0.113 0.0046 0.113-0.124 0.113-0.25 0.113-0.369 0.113-0.476 0.113-0.566 0.113-0.639 0.113-0.69 0.113-0.721 0.113-0.73 0.113-0.719 0.113-0.691 0.113-0.648 0.113-0.593 0.113-0.53 0.113-0.461 0.113-0.391 0.113-0.321 0.113-0.255 0.113-0.194 0.113-0.14 0.113-0.0948 0.113-0.0587 0.113-0.032 0.113-0.0148 0.113-0.00678 0.113-0.00734 0.113-0.0156 0.113-0.0305 0.113-0.0506 0.113-0.0747 0.113-0.101 0.113-0.129 0.113-0.155 0.113-0.18 0.113-0.202 0.113-0.22 0.113-0.233 0.113-0.241 0.113-0.244 0.113-0.242 0.113-0.235 0.113-0.225 0.113-0.212 0.113-0.197 0.113-0.181 0.113-0.164 0.113-0.148 0.113-0.133 0.113-0.12 0.113-0.108v-2.2l-0.113-0.108-0.113-0.12-0.113-0.133-0.113-0.148-0.113-0.164-0.113-0.181-0.113-0.197-0.113-0.212-0.113-0.225-0.113-0.235-0.113-0.242-0.113-0.244-0.113-0.241-0.113-0.233-0.113-0.22-0.113-0.202-0.113-0.18-0.113-0.155-0.113-0.129-0.113-0.101-0.113-0.0747-0.113-0.0506-0.113-0.0305-0.113-0.0156-0.113-0.00734-0.113-0.00678-0.113-0.0148-0.113-0.032-0.113-0.0587-0.113-0.0948-0.113-0.14-0.113-0.194-0.113-0.255-0.113-0.321-0.113-0.391-0.113-0.461-0.113-0.53-0.113-0.593-0.113-0.648-0.113-0.691-0.113-0.719-0.113-0.73-0.113-0.721-0.113-0.69-0.113-0.639-0.113-0.566-0.113-0.476-0.113-0.369-0.113-0.25-0.113-0.124-0.113 0.0046-0.113 0.131-0.113 0.249-0.113 0.355-0.113 0.445-0.113 0.517-0.113 0.567-0.113 0.595-0.113 0.602-0.113 0.588-0.113 0.557-0.113 0.509-0.113 0.45-0.113 0.381-0.113 0.308-0.113 0.233-0.113 0.159-0.113 0.0906-0.113 0.0291-0.113-0.0231-0.113-0.0644-0.113-0.0936-0.113-0.11-0.113-0.114-0.113-0.106-0.113-0.0856-0.113-0.0554-0.113-0.0166-0.113 0.0287-0.113 0.0784-0.113 0.13-0.113 0.182-0.113 0.231-0.113 0.275-0.113 0.314-0.113 0.345-0.113 0.368-0.113 0.382-0.113 0.388-0.113 0.387-0.113 0.378-0.113 0.365-0.113 0.347-0.113 0.327-0.113 0.306-0.113 0.285-0.113 0.264-0.113 0.246-0.113 0.229z" clip-path="url(#a)" fill="#1f77b4" fill-opacity=".3"/>
<path d="m145 57.4v13.5l3.72 0.079 3.72 0.0188 3.72-0.0419 3.72-0.101 3.72-0.158 3.72-0.211 3.72-0.259 3.72-0.3 3.72-0.334 7.43-0.738 7.43-0.78 3.72-0.388 3.72-0.378 3.72-0.363 3.72-0.343 3.72-0.32 3.72-0.295 3.72-0.269 3.72-0.241 3.72-0.215 3.72-0.189 3.72-0.164 3.72-0.141 3.72-0.12 3.72-0.101 3.72-0.0837 3.72-0.069 3.72-0.0562 3.72-0.0454 3.72-0.0362 3.72-0.0287 3.72-0.0225 3.72-0.0174 3.72-0.0134 3.72-0.0102 3.72-0.00765 7.43-0.00991 29.7-0.0094 22.3 0.00618 7.43 0.00761 3.72 0.00611 3.72 0.00835 3.72 0.0113 3.72 0.0151 3.72 0.0201 3.72 0.0264 3.72 0.0344 3.72 0.0444 3.72 0.0567 3.72 0.0717 3.72 0.0899 3.72 0.111 3.72 0.137 3.72 0.166 3.72 0.2 3.72 0.239 3.72 0.281 3.72 0.328 3.72 0.379 3.72 0.432 3.72 0.488 3.72 0.545 3.72 0.601 3.72 0.655 3.72 0.705 3.72 0.749 3.72 0.786 3.72 0.812 11.1 2.47 3.72 0.783 3.72 0.737 3.72 0.674 3.72 0.596 3.72 0.504 3.72 0.4 3.72 0.285 3.72 0.164 3.72 0.0376 3.72-0.0894 3.72-0.214 3.72-0.333v-28l-3.72-0.333-3.72-0.214-3.72-0.0894-3.72 0.0376-3.72 0.164-3.72 0.285-3.72 0.4-3.72 0.504-3.72 0.596-3.72 0.674-3.72 0.737-3.72 0.783-11.1 2.47-3.72 0.812-3.72 0.786-3.72 0.749-3.72 0.705-3.72 0.655-3.72 0.601-3.72 0.545-3.72 0.488-3.72 0.432-3.72 0.379-3.72 0.328-3.72 0.281-3.72 0.239-3.72 0.2-3.72 0.166-3.72 0.137-3.72 0.111-3.72 0.0899-3.72 0.0717-3.72 0.0567-3.72 0.0444-3.72 0.0344-3.72 0.0264-3.72 0.0201-3.72 0.0151-3.72 0.0113-3.72 0.00835-7.43 0.0105-26 0.00935-26-0.00632-7.43-0.00728-3.72-0.0057-3.72-0.00765-3.72-0.0102-3.72-0.0134-3.72-0.0174-3.72-0.0225-3.72-0.0287-3.72-0.0362-3.72-0.0454-3.72-0.0562-3.72-0.069-3.72-0.0837-3.72-0.101-3.72-0.12-3.72-0.141-3.72-0.164-3.72-0.189-3.72-0.215-3.72-0.241-3.72-0.269-3.72-0.295-3.72-0.32-3.72-0.343-3.72-0.363-3.72-0.378-3.72-0.388-11.1-1.16-3.72-0.36-3.72-0.334-3.72-0.3-3.72-0.259-3.72-0.211-3.72-0.158-3.72-0.101-3.72-0.0419-3.72 0.0188-3.72 0.079z" clip-path="url(#a)" fill="#1f77b4" fill-opacity=".3"/>
<path d="m145 211v-176" clip-path="url(#a)" fill="none" stroke="#b0b0b0" stroke-linecap="square" stroke-width=".8"/>
<defs>
<path id="e" d="m0 0v3.5" stroke="#000" stroke-width=".8"/>
</defs>
<use x="144.624098" y="210.721635" stroke="#000000" stroke-width=".8" xlink:href="#e"/>
<defs>
<path id="f" d="m0 0v-3.5" stroke="#000" stroke-width=".8"/>
</defs>
<use x="144.624098" y="34.79649" stroke="#000000" stroke-width=".8" xlink:href="#f"/>
<g transform="translate(129 225) scale(.1 -.1)">
<defs>
<path id="b" transform="scale(.0156)" d="m2034 4250q-487 0-733-480-245-479-245-1442 0-959 245-1439 246-480 733-480 491 0 736 480 246 480 246 1439 0 963-246 1442-245 480-736 480zm0 500q785 0 1199-621 414-620 414-1801 0-1178-414-1799-414-620-1199-620-784 0-1198 620-414 621-414 1799 0 1181 414 1801 414 621 1198 621z"/>
<path id="c" transform="scale(.0156)" d="m684 794h660v-794h-660v794z"/>
<path id="r" transform="scale(.0156)" d="m1228 531h2203v-531h-2962v531q359 372 979 998 621 627 780 809 303 340 423 576 121 236 121 464 0 372-261 606-261 235-680 235-297 0-627-103-329-103-704-313v638q381 153 712 231 332 78 607 78 725 0 1156-363 431-362 431-968 0-288-108-546-107-257-392-607-78-91-497-524-418-433-1181-1211z"/>
<path id="d" transform="scale(.0156)" d="m4488 3438-1429-1435 1429-1428-372-378-1435 1434-1434-1434-369 378 1425 1428-1425 1435 369 378 1434-1435 1435 1435 372-378z"/>
</defs>
<use xlink:href="#b"/>
<use x="63.623047" xlink:href="#c"/>
<use x="95.410156" xlink:href="#r"/>
<use x="159.033203" xlink:href="#b"/>
<use x="222.65625" xlink:href="#d"/>
</g>
<g transform="translate(129 25.7) scale(.1 -.1)">
<use xlink:href="#b"/>
<use x="63.623047" xlink:href="#c"/>
<use x="95.410156" xlink:href="#r"/>
<use x="159.033203" xlink:href="#b"/>
<use x="222.65625" xlink:href="#d"/>
</g>
<path d="m190 211v-176" clip-path="url(#a)" fill="none" stroke="#b0b0b0" stroke-linecap="square" stroke-width=".8"/>
<use x="190.020601" y="210.721635" stroke="#000000" stroke-width=".8" xlink:href="#e"/>
<use x="190.020601" y="34.79649" stroke="#000000" stroke-width=".8" xlink:href="#f"/>
<g transform="translate(175 225) scale(.1 -.1)">
<defs>
<path id="x" transform="scale(.0156)" d="m2597 2516q453-97 707-404 255-306 255-756 0-690-475-1069-475-378-1350-378-293 0-604 58t-642 174v609q262-153 574-231 313-78 654-78 593 0 904 234t311 681q0 413-289 645-289 233-804 233h-544v519h569q465 0 712 186t247 536q0 359-255 551-254 193-729 193-260 0-557-57-297-56-653-174v562q360 100 674 150t592 50q719 0 1137-327 419-326 419-882 0-388-222-655t-631-370z"/>
</defs>
<use xlink:href="#b"/>
<use x="63.623047" xlink:href="#c"/>
<use x="95.410156" xlink:href="#x"/>
<use x="159.033203" xlink:href="#b"/>
<use x="222.65625" xlink:href="#d"/>
</g>
<g transform="translate(175 25.7) scale(.1 -.1)">
<use xlink:href="#b"/>
<use x="63.623047" xlink:href="#c"/>
<use x="95.410156" xlink:href="#x"/>
<use x="159.033203" xlink:href="#b"/>
<use x="222.65625" xlink:href="#d"/>
</g>
<path d="m235 211v-176" clip-path="url(#a)" fill="none" stroke="#b0b0b0" stroke-linecap="square" stroke-width=".8"/>
<use x="235.417104" y="210.721635" stroke="#000000" stroke-width=".8" xlink:href="#e"/>
<use x="235.417104" y="34.79649" stroke="#000000" stroke-width=".8" xlink:href="#f"/>
<g transform="translate(220 225) scale(.1 -.1)">
<defs>
<path id="q" transform="scale(.0156)" d="m2419 4116-1594-2491h1594v2491zm-166 550h794v-3041h666v-525h-666v-1100h-628v1100h-2106v609l1940 2957z"/>
</defs>
<use xlink:href="#b"/>
<use x="63.623047" xlink:href="#c"/>
<use x="95.410156" xlink:href="#q"/>
<use x="159.033203" xlink:href="#b"/>
<use x="222.65625" xlink:href="#d"/>
</g>
<g transform="translate(220 25.7) scale(.1 -.1)">
<use xlink:href="#b"/>
<use x="63.623047" xlink:href="#c"/>
<use x="95.410156" xlink:href="#q"/>
<use x="159.033203" xlink:href="#b"/>
<use x="222.65625" xlink:href="#d"/>
</g>
<path d="m281 211v-176" clip-path="url(#a)" fill="none" stroke="#b0b0b0" stroke-linecap="square" stroke-width=".8"/>
<use x="280.813606" y="210.721635" stroke="#000000" stroke-width=".8" xlink:href="#e"/>
<use x="280.813606" y="34.79649" stroke="#000000" stroke-width=".8" xlink:href="#f"/>
<g transform="translate(265 225) scale(.1 -.1)">
<defs>
<path id="w" transform="scale(.0156)" d="m691 4666h2478v-532h-1900v-1143q137 47 274 70 138 23 276 23 781 0 1237-428 457-428 457-1159 0-753-469-1171-469-417-1322-417-294 0-599 50-304 50-629 150v635q281-153 581-228t634-75q541 0 856 284 316 284 316 772 0 487-316 771-315 285-856 285-253 0-505-56-251-56-513-175v2344z"/>
</defs>
<use xlink:href="#b"/>
<use x="63.623047" xlink:href="#c"/>
<use x="95.410156" xlink:href="#w"/>
<use x="159.033203" xlink:href="#b"/>
<use x="222.65625" xlink:href="#d"/>
</g>
<g transform="translate(265 25.7) scale(.1 -.1)">
<use xlink:href="#b"/>
<use x="63.623047" xlink:href="#c"/>
<use x="95.410156" xlink:href="#w"/>
<use x="159.033203" xlink:href="#b"/>
<use x="222.65625" xlink:href="#d"/>
</g>
<path d="m326 211v-176" clip-path="url(#a)" fill="none" stroke="#b0b0b0" stroke-linecap="square" stroke-width=".8"/>
<use x="326.210109" y="210.721635" stroke="#000000" stroke-width=".8" xlink:href="#e"/>
<use x="326.210109" y="34.79649" stroke="#000000" stroke-width=".8" xlink:href="#f"/>
<g transform="translate(311 225) scale(.1 -.1)">
<defs>
<path id="ad" transform="scale(.0156)" d="m2113 2584q-425 0-674-291-248-290-248-796 0-503 248-796 249-292 674-292t673 292q248 293 248 796 0 506-248 796-248 291-673 291zm1253 1979v-575q-238 112-480 171-242 60-480 60-625 0-955-422-329-422-376-1275 184 272 462 417 279 145 613 145 703 0 1111-427 408-426 408-1160 0-719-425-1154-425-434-1131-434-810 0-1238 620-428 621-428 1799 0 1106 525 1764t1409 658q238 0 480-47t505-140z"/>
</defs>
<use xlink:href="#b"/>
<use x="63.623047" xlink:href="#c"/>
<use x="95.410156" xlink:href="#ad"/>
<use x="159.033203" xlink:href="#b"/>
<use x="222.65625" xlink:href="#d"/>
</g>
<g transform="translate(311 25.7) scale(.1 -.1)">
<use xlink:href="#b"/>
<use x="63.623047" xlink:href="#c"/>
<use x="95.410156" xlink:href="#ad"/>
<use x="159.033203" xlink:href="#b"/>
<use x="222.65625" xlink:href="#d"/>
</g>
<path d="m372 211v-176" clip-path="url(#a)" fill="none" stroke="#b0b0b0" stroke-linecap="square" stroke-width=".8"/>
<use x="371.606611" y="210.721635" stroke="#000000" stroke-width=".8" xlink:href="#e"/>
<use x="371.606611" y="34.79649" stroke="#000000" stroke-width=".8" xlink:href="#f"/>
<g transform="translate(356 225) scale(.1 -.1)">
<defs>
<path id="p" transform="scale(.0156)" d="m525 4666h3e3v-269l-1694-4397h-659l1594 4134h-2241v532z"/>
</defs>
<use xlink:href="#b"/>
<use x="63.623047" xlink:href="#c"/>
<use x="95.410156" xlink:href="#p"/>
<use x="159.033203" xlink:href="#b"/>
<use x="222.65625" xlink:href="#d"/>
</g>
<g transform="translate(356 25.7) scale(.1 -.1)">
<use xlink:href="#b"/>
<use x="63.623047" xlink:href="#c"/>
<use x="95.410156" xlink:href="#p"/>
<use x="159.033203" xlink:href="#b"/>
<use x="222.65625" xlink:href="#d"/>
</g>
<path d="m417 211v-176" clip-path="url(#a)" fill="none" stroke="#b0b0b0" stroke-linecap="square" stroke-width=".8"/>
<use x="417.003114" y="210.721635" stroke="#000000" stroke-width=".8" xlink:href="#e"/>
<use x="417.003114" y="34.79649" stroke="#000000" stroke-width=".8" xlink:href="#f"/>
<g transform="translate(402 225) scale(.1 -.1)">
<defs>
<path id="ai" transform="scale(.0156)" d="m2034 2216q-450 0-708-241-257-241-257-662 0-422 257-663 258-241 708-241t709 242q260 243 260 662 0 421-258 662-257 241-711 241zm-631 268q-406 100-633 378-226 279-226 679 0 559 398 884 399 325 1092 325 697 0 1094-325t397-884q0-400-227-679-226-278-629-378 456-106 710-416 255-309 255-755 0-679-414-1042-414-362-1186-362-771 0-1186 362-414 363-414 1042 0 446 256 755 257 310 713 416zm-231 997q0-362 226-565 227-203 636-203 407 0 636 203 230 203 230 565 0 363-230 566-229 203-636 203-409 0-636-203-226-203-226-566z"/>
</defs>
<use xlink:href="#b"/>
<use x="63.623047" xlink:href="#c"/>
<use x="95.410156" xlink:href="#ai"/>
<use x="159.033203" xlink:href="#b"/>
<use x="222.65625" xlink:href="#d"/>
</g>
<g transform="translate(402 25.7) scale(.1 -.1)">
<use xlink:href="#b"/>
<use x="63.623047" xlink:href="#c"/>
<use x="95.410156" xlink:href="#ai"/>
<use x="159.033203" xlink:href="#b"/>
<use x="222.65625" xlink:href="#d"/>
</g>
<path d="m462 211v-176" clip-path="url(#a)" fill="none" stroke="#b0b0b0" stroke-linecap="square" stroke-width=".8"/>
<use x="462.399616" y="210.721635" stroke="#000000" stroke-width=".8" xlink:href="#e"/>
<use x="462.399616" y="34.79649" stroke="#000000" stroke-width=".8" xlink:href="#f"/>
<g transform="translate(447 225) scale(.1 -.1)">
<defs>
<path id="v" transform="scale(.0156)" d="m703 97v575q238-113 481-172 244-59 479-59 625 0 954 420 330 420 377 1277-181-269-460-413-278-144-615-144-700 0-1108 423-408 424-408 1159 0 718 425 1152 425 435 1131 435 810 0 1236-621 427-620 427-1801 0-1103-524-1761-523-658-1407-658-238 0-482 47-243 47-506 141zm1256 1978q425 0 673 290 249 291 249 798 0 503-249 795-248 292-673 292t-673-292-248-795q0-507 248-798 248-290 673-290z"/>
</defs>
<use xlink:href="#b"/>
<use x="63.623047" xlink:href="#c"/>
<use x="95.410156" xlink:href="#v"/>
<use x="159.033203" xlink:href="#b"/>
<use x="222.65625" xlink:href="#d"/>
</g>
<g transform="translate(447 25.7) scale(.1 -.1)">
<use xlink:href="#b"/>
<use x="63.623047" xlink:href="#c"/>
<use x="95.410156" xlink:href="#v"/>
<use x="159.033203" xlink:href="#b"/>
<use x="222.65625" xlink:href="#d"/>
</g>
<path d="m508 211v-176" clip-path="url(#a)" fill="none" stroke="#b0b0b0" stroke-linecap="square" stroke-width=".8"/>
<use x="507.796119" y="210.721635" stroke="#000000" stroke-width=".8" xlink:href="#e"/>
<use x="507.796119" y="34.79649" stroke="#000000" stroke-width=".8" xlink:href="#f"/>
<g transform="translate(492 225) scale(.1 -.1)">
<defs>
<path id="m" transform="scale(.0156)" d="m794 531h1031v3560l-1122-225v575l1116 225h631v-4135h1031v-531h-2687v531z"/>
</defs>
<use xlink:href="#m"/>
<use x="63.623047" xlink:href="#c"/>
<use x="95.410156" xlink:href="#b"/>
<use x="159.033203" xlink:href="#b"/>
<use x="222.65625" xlink:href="#d"/>
</g>
<g transform="translate(492 25.7) scale(.1 -.1)">
<use xlink:href="#m"/>
<use x="63.623047" xlink:href="#c"/>
<use x="95.410156" xlink:href="#b"/>
<use x="159.033203" xlink:href="#b"/>
<use x="222.65625" xlink:href="#d"/>
</g>
<path d="m126 181h405" clip-path="url(#a)" fill="none" stroke="#b0b0b0" stroke-linecap="square" stroke-width=".8"/>
<defs>
<path id="s" d="m0 0h-3.5" stroke="#000" stroke-width=".8"/>
</defs>
<use x="126.473678" y="181.400777" stroke="#000000" stroke-width=".8" xlink:href="#s"/>
<g transform="translate(96.7 185) scale(.1 -.1)">
<defs>
<path id="g" transform="scale(.0156)" d="m1172 4494v-994h1184v-447h-1184v-1900q0-428 117-550t477-122h590v-481h-590q-666 0-919 248-253 249-253 905v1900h-422v447h422v994h578z"/>
<path id="i" transform="scale(.0156)" d="m1959 3097q-462 0-731-361t-269-989 267-989q268-361 733-361 460 0 728 362 269 363 269 988 0 622-269 986-268 364-728 364zm0 487q750 0 1178-488 429-487 429-1349 0-859-429-1349-428-489-1178-489-753 0-1180 489-426 490-426 1349 0 862 426 1349 427 488 1180 488z"/>
</defs>
<use xlink:href="#r"/>
<use x="63.623047" xlink:href="#g"/>
<use x="102.832031" xlink:href="#i"/>
<use x="164.013672" xlink:href="#x"/>
</g>
<path d="m126 152h405" clip-path="url(#a)" fill="none" stroke="#b0b0b0" stroke-linecap="square" stroke-width=".8"/>
<use x="126.473678" y="152.07992" stroke="#000000" stroke-width=".8" xlink:href="#s"/>
<g transform="translate(99 156) scale(.1 -.1)">
<defs>
<path id="ao" transform="scale(.0156)" d="m603 3500h575v-3563q0-668-255-968-254-300-820-300h-219v487h154q328 0 446 152 119 151 119 629v3563zm0 1363h575v-729h-575v729z"/>
<path id="h" transform="scale(.0156)" d="m2834 3397v-544q-243 125-506 187-262 63-544 63-428 0-642-131t-214-394q0-200 153-314t616-217l197-44q612-131 870-370t258-667q0-488-386-773-386-284-1061-284-281 0-586 55t-642 164v594q319-166 628-249 309-82 613-82 406 0 624 139 219 139 219 392 0 234-158 359-157 125-692 241l-200 47q-534 112-772 345-237 233-237 639 0 494 350 762 350 269 994 269 318 0 599-47 282-46 519-140z"/>
<path id="j" transform="scale(.0156)" d="m3513 2113v-2113h-575v2094q0 497-194 743-194 247-581 247-466 0-735-297-269-296-269-809v-1978h-578v3500h578v-544q207 316 486 472 280 156 646 156 603 0 912-373 310-373 310-1098z"/>
</defs>
<use xlink:href="#ao"/>
<use x="27.783203" xlink:href="#h"/>
<use x="79.882812" xlink:href="#i"/>
<use x="141.064453" xlink:href="#j"/>
</g>
<path d="m126 123h405" clip-path="url(#a)" fill="none" stroke="#b0b0b0" stroke-linecap="square" stroke-width=".8"/>
<use x="126.473678" y="122.759062" stroke="#000000" stroke-width=".8" xlink:href="#s"/>
<g transform="translate(43.5 127) scale(.1 -.1)">
<defs>
<path id="y" transform="scale(.0156)" d="m1159 525v-1856h-578v4831h578v-531q182 312 458 463 277 152 661 152 638 0 1036-506 399-506 399-1331t-399-1332q-398-506-1036-506-384 0-661 152-276 152-458 464zm1957 1222q0 634-261 995t-717 361q-457 0-718-361t-261-995 261-995 718-361q456 0 717 361t261 995z"/>
<path id="z" transform="scale(.0156)" d="m2059-325q-243-625-475-815-231-191-618-191h-460v481h338q237 0 368 113 132 112 291 531l103 262-1415 3444h609l1094-2737 1094 2737h609l-1538-3825z"/>
<path id="ac" transform="scale(.0156)" d="m3513 2113v-2113h-575v2094q0 497-194 743-194 247-581 247-466 0-735-297-269-296-269-809v-1978h-578v4863h578v-1907q207 316 486 472 280 156 646 156 603 0 912-373 310-373 310-1098z"/>
<path id="u" transform="scale(.0156)" d="m3263-1063v-446h-3326v446h3326z"/>
<path id="l" transform="scale(.0156)" d="m2194 1759q-697 0-966-159t-269-544q0-306 202-486 202-179 548-179 479 0 768 339t289 901v128h-572zm1147 238v-2e3h-575v531q-197-318-491-470t-719-152q-537 0-855 302-317 302-317 808 0 590 395 890 396 300 1180 300h807v57q0 397-261 614t-733 217q-300 0-585-72-284-72-546-216v532q315 122 612 182 297 61 578 61 760 0 1135-394 375-393 375-1193z"/>
<path id="n" transform="scale(.0156)" d="m2631 2963q-97 56-211 82-114 27-251 27-488 0-749-317t-261-911v-1844h-578v3500h578v-544q182 319 472 473 291 155 707 155 59 0 131-8 72-7 159-23l3-590z"/>
<path id="aa" transform="scale(.0156)" d="m544 1381v2119h575v-2097q0-497 193-746 194-248 582-248 465 0 735 297 271 297 271 810v1984h575v-3500h-575v538q-209-319-486-474-276-155-642-155-603 0-916 375-312 375-312 1097zm1447 2203z"/>
</defs>
<use xlink:href="#y"/>
<use x="63.476562" xlink:href="#z"/>
<use x="122.65625" xlink:href="#g"/>
<use x="161.865234" xlink:href="#ac"/>
<use x="225.244141" xlink:href="#i"/>
<use x="286.425781" xlink:href="#j"/>
<use x="349.804688" xlink:href="#u"/>
<use x="399.804688" xlink:href="#h"/>
<use x="451.904297" xlink:href="#g"/>
<use x="491.113281" xlink:href="#l"/>
<use x="552.392578" xlink:href="#n"/>
<use x="593.505859" xlink:href="#g"/>
<use x="632.714844" xlink:href="#aa"/>
<use x="696.09375" xlink:href="#y"/>
</g>
<path d="m126 93.4h405" clip-path="url(#a)" fill="none" stroke="#b0b0b0" stroke-linecap="square" stroke-width=".8"/>
<use x="126.473678" y="93.438205" stroke="#000000" stroke-width=".8" xlink:href="#s"/>
<g transform="translate(3 97.2) scale(.1 -.1)">
<defs>
<path id="o" transform="scale(.0156)" d="m603 3500h575v-3500h-575v3500zm0 1363h575v-729h-575v729z"/>
<path id="k" transform="scale(.0156)" d="m3597 1894v-281h-2644q38-594 358-905t892-311q331 0 642 81t618 244v-544q-310-131-635-200t-659-69q-838 0-1327 487-489 488-489 1320 0 859 464 1363 464 505 1252 505 706 0 1117-455 411-454 411-1235zm-575 169q-6 471-264 752-258 282-683 282-481 0-770-272t-333-766l2050 4z"/>
</defs>
<use xlink:href="#y"/>
<use x="63.476562" xlink:href="#z"/>
<use x="122.65625" xlink:href="#g"/>
<use x="161.865234" xlink:href="#ac"/>
<use x="225.244141" xlink:href="#i"/>
<use x="286.425781" xlink:href="#j"/>
<use x="349.804688" xlink:href="#u"/>
<use x="399.804688" xlink:href="#h"/>
<use x="451.904297" xlink:href="#g"/>
<use x="491.113281" xlink:href="#l"/>
<use x="552.392578" xlink:href="#n"/>
<use x="593.505859" xlink:href="#g"/>
<use x="632.714844" xlink:href="#aa"/>
<use x="696.09375" xlink:href="#y"/>
<use x="759.570312" xlink:href="#u"/>
<use x="809.570312" xlink:href="#j"/>
<use x="872.949219" xlink:href="#i"/>
<use x="934.130859" xlink:href="#u"/>
<use x="984.130859" xlink:href="#h"/>
<use x="1036.230469" xlink:href="#o"/>
<use x="1064.013672" xlink:href="#g"/>
<use x="1103.222656" xlink:href="#k"/>
</g>
<path d="m126 64.1h405" clip-path="url(#a)" fill="none" stroke="#b0b0b0" stroke-linecap="square" stroke-width=".8"/>
<use x="126.473678" y="64.117347" stroke="#000000" stroke-width=".8" xlink:href="#s"/>
<g transform="translate(101 67.9) scale(.1 -.1)">
<defs>
<path id="ar" transform="scale(.0156)" d="m2188 4044-857-2322h1716l-859 2322zm-357 622h716l1778-4666h-656l-425 1197h-2103l-425-1197h-666l1781 4666z"/>
<path id="ah" transform="scale(.0156)" d="m628 4666h631v-4135h2272v-531h-2903v4666z"/>
</defs>
<use xlink:href="#ar"/>
<use x="68.408203" xlink:href="#ah"/>
<use x="124.121094" xlink:href="#ah"/>
</g>
<path d="m508 211v-176" clip-path="url(#a)" fill="none" stroke="#1f77b4" stroke-linecap="square" stroke-width="1.5"/>
<g fill="none" stroke="#1f77b4" stroke-width="1.5">
<path d="m508 189v-14.7" clip-path="url(#a)"/>
<path d="m152 159v-14.7" clip-path="url(#a)"/>
<path d="m495 130v-14.7" clip-path="url(#a)"/>
<path d="m506 101v-14.7" clip-path="url(#a)"/>
<path d="m390 71.4v-14.7" clip-path="url(#a)"/>
</g>
<g fill="none" stroke="#1f77b4" stroke-width="1.5">
<path d="m508 189v-14.7" clip-path="url(#a)"/>
<path d="m155 159v-14.7" clip-path="url(#a)"/>
<path d="m500 130v-14.7" clip-path="url(#a)"/>
<path d="m513 101v-14.7" clip-path="url(#a)"/>
<path d="m513 71.4v-14.7" clip-path="url(#a)"/>
</g>
<g fill="none" stroke="#1f77b4" stroke-width="1.5">
<path d="m508 189v-14.7" clip-path="url(#a)"/>
<path d="m145 159v-14.7" clip-path="url(#a)"/>
<path d="m490 130v-14.7" clip-path="url(#a)"/>
<path d="m502 101v-14.7" clip-path="url(#a)"/>
<path d="m145 71.4v-14.7" clip-path="url(#a)"/>
</g>
<g fill="none" stroke="#1f77b4" stroke-width="1.5">
<path d="m508 181" clip-path="url(#a)"/>
<path d="m145 152h9.94" clip-path="url(#a)"/>
<path d="m490 123h9.22" clip-path="url(#a)"/>
<path d="m502 93.4h11.2" clip-path="url(#a)"/>
<path d="m145 64.1h368" clip-path="url(#a)"/>
</g>
<g fill="none" stroke="#1f77b4" stroke-dasharray="1.5,2.475" stroke-width="1.5">
<path d="m508 189v-14.7" clip-path="url(#a)"/>
<path d="m508 189v-14.7" clip-path="url(#a)"/>
<path d="m150 159v-14.7" clip-path="url(#a)"/>
<path d="m155 159v-14.7" clip-path="url(#a)"/>
<path d="m492 130v-14.7" clip-path="url(#a)"/>
<path d="m498 130v-14.7" clip-path="url(#a)"/>
<path d="m504 101v-14.7" clip-path="url(#a)"/>
<path d="m511 101v-14.7" clip-path="url(#a)"/>
<path d="m150 71.4v-14.7" clip-path="url(#a)"/>
<path d="m507 71.4v-14.7" clip-path="url(#a)"/>
</g>
<path d="m126 211v-176" fill="none" stroke="#000" stroke-linecap="square" stroke-width=".8"/>
<path d="m531 211v-176" fill="none" stroke="#000" stroke-linecap="square" stroke-width=".8"/>
<path d="m126 211h405" fill="none" stroke="#000" stroke-linecap="square" stroke-width=".8"/>
<path d="m126 34.8h405" fill="none" stroke="#000" stroke-linecap="square" stroke-width=".8"/>
<g transform="translate(512 181) scale(.1 -.1)">
<defs>
<path id="af" transform="scale(.0156)" d="m2906 1791q0 625-258 968-257 344-723 344-462 0-720-344-258-343-258-968 0-622 258-966t720-344q466 0 723 344 258 344 258 966zm575-1357q0-893-397-1329-396-436-1215-436-303 0-572 45t-522 139v559q253-137 500-202 247-66 503-66 566 0 847 295t281 892v285q-178-310-456-463t-666-153q-643 0-1037 490-394 491-394 1301 0 812 394 1302 394 491 1037 491 388 0 666-153t456-462v531h575v-3066z"/>
<path id="ag" transform="scale(.0156)" d="m2375 4863v-479h-550q-309 0-430-125-120-125-120-450v-309h947v-447h-947v-3053h-578v3053h-550v447h550v244q0 584 272 851 272 268 862 268h544z"/>
<path id="t" transform="scale(.0156)" d="m3122 3366v-538q-244 135-489 202t-495 67q-560 0-870-355-309-354-309-995t309-996q310-354 870-354 250 0 495 67t489 202v-532q-241-112-499-168-257-57-548-57-791 0-1257 497-465 497-465 1341 0 856 470 1346 471 491 1290 491 265 0 518-55 253-54 491-163z"/>
</defs>
<use xlink:href="#o"/>
<use x="27.783203" xlink:href="#j"/>
<use x="91.162109" xlink:href="#h"/>
<use x="143.261719" xlink:href="#o"/>
<use x="171.044922" xlink:href="#af"/>
<use x="234.521484" xlink:href="#j"/>
<use x="297.900391" xlink:href="#o"/>
<use x="325.683594" xlink:href="#ag"/>
<use x="360.888672" xlink:href="#o"/>
<use x="388.671875" xlink:href="#t"/>
<use x="443.652344" xlink:href="#l"/>
<use x="504.931641" xlink:href="#j"/>
<use x="568.310547" xlink:href="#g"/>
</g>
<g transform="translate(152 143) scale(.08 -.08)">
<use xlink:href="#b"/>
<use x="63.623047" xlink:href="#c"/>
<use x="95.410156" xlink:href="#r"/>
<use x="159.033203" xlink:href="#m"/>
<use x="222.65625" xlink:href="#w"/>
<use x="286.279297" xlink:href="#x"/>
</g>
<g transform="translate(495 114) scale(.08 -.08)">
<use xlink:href="#b"/>
<use x="63.623047" xlink:href="#c"/>
<use x="95.410156" xlink:href="#v"/>
<use x="159.033203" xlink:href="#p"/>
<use x="222.65625" xlink:href="#m"/>
<use x="286.279297" xlink:href="#w"/>
</g>
<g transform="translate(506 84.6) scale(.08 -.08)">
<use xlink:href="#b"/>
<use x="63.623047" xlink:href="#c"/>
<use x="95.410156" xlink:href="#v"/>
<use x="159.033203" xlink:href="#v"/>
<use x="222.65625" xlink:href="#p"/>
<use x="286.279297" xlink:href="#m"/>
</g>
<g transform="translate(390 55.3) scale(.08 -.08)">
<use xlink:href="#b"/>
<use x="63.623047" xlink:href="#c"/>
<use x="95.410156" xlink:href="#p"/>
<use x="159.033203" xlink:href="#q"/>
<use x="222.65625" xlink:href="#m"/>
<use x="286.279297" xlink:href="#r"/>
</g>
<g transform="translate(518 34.8) scale(.1 -.1)">
<defs>
<path id="ab" transform="scale(.0156)" d="m3328 2828q216 388 516 572t706 184q547 0 844-383 297-382 297-1088v-2113h-578v2094q0 503-179 746-178 244-543 244-447 0-707-297-259-296-259-809v-1978h-578v2094q0 506-178 748t-550 242q-441 0-701-298-259-298-259-808v-1978h-578v3500h578v-544q197 322 472 475t653 153q382 0 649-194 267-193 395-562z"/>
<path id="as" transform="scale(.0156)" d="m8863 2147v-281l-1229-1228-375 375 729 728h-7622v531h7622l-729 728 375 375 1229-1228z"/>
</defs>
<use xlink:href="#ab"/>
<use x="97.412109" xlink:href="#i"/>
<use x="158.59375" xlink:href="#n"/>
<use x="197.457031" xlink:href="#k"/>
<use x="258.980469" xlink:href="#DejaVuSans-20"/>
<use x="290.767578" xlink:href="#as"/>
</g>
<g transform="translate(461 34.8) scale(.1 -.1)">
<defs>
<path id="at" transform="scale(.0156)" d="m313 1866v281l1228 1228 375-375-728-728h7621v-531h-7621l728-728-375-375-1228 1228z"/>
<path id="am" transform="scale(.0156)" d="m603 4863h575v-4863h-575v4863z"/>
</defs>
<use xlink:href="#at"/>
<use x="143.359375" xlink:href="#DejaVuSans-20"/>
<use x="175.146484" xlink:href="#am"/>
<use x="202.929688" xlink:href="#k"/>
<use x="264.453125" xlink:href="#h"/>
<use x="316.552734" xlink:href="#h"/>
</g>
<g transform="translate(132 12.1) scale(.12 -.12)">
<defs>
<path id="aq" transform="scale(.0156)" d="m628 4666h941l1190-3175 1197 3175h941v-4666h-616v4097l-1203-3200h-634l-1203 3200v-4097h-613v4666z"/>
<path id="an" transform="scale(.0156)" d="m581 4863h578v-2872l1716 1509h734l-1856-1637 1935-1863h-750l-1779 1709v-1709h-578v4863z"/>
<path id="ae" transform="scale(.0156)" d="m313 2009h1684v-512h-1684v512z"/>
<path id="ap" transform="scale(.0156)" d="m2906 2969v1894h575v-4863h-575v525q-181-312-458-464-276-152-664-152-634 0-1033 506-398 507-398 1332t398 1331q399 506 1033 506 388 0 664-152 277-151 458-463zm-1959-1222q0-634 261-995t717-361 718 361q263 361 263 995t-263 995q-262 361-718 361t-717-361-261-995z"/>
<path id="ak" transform="scale(.0156)" d="m269 3500h575l719-2731 715 2731h678l719-2731 716 2731h575l-916-3500h-678l-753 2869-756-2869h-679l-915 3500z"/>
<path id="aj" transform="scale(.0156)" d="m3513 3500-1266-1703 1331-1797h-678l-1019 1375-1018-1375h-679l1360 1831-1244 1669h678l928-1247 928 1247h679z"/>
<path id="al" transform="scale(.0156)" d="m191 3500h609l1094-2937 1094 2937h609l-1313-3500h-781l-1312 3500z"/>
</defs>
<use xlink:href="#aq"/>
<use x="86.279297" xlink:href="#k"/>
<use x="147.802734" xlink:href="#ab"/>
<use x="245.214844" xlink:href="#i"/>
<use x="306.396484" xlink:href="#n"/>
<use x="347.509766" xlink:href="#z"/>
<use x="406.689453" xlink:href="#DejaVuSans-20"/>
<use x="438.476562" xlink:href="#aa"/>
<use x="501.855469" xlink:href="#h"/>
<use x="553.955078" xlink:href="#l"/>
<use x="615.234375" xlink:href="#af"/>
<use x="678.710938" xlink:href="#k"/>
<use x="740.234375" xlink:href="#DejaVuSans-20"/>
<use x="772.021484" xlink:href="#i"/>
<use x="833.203125" xlink:href="#ag"/>
<use x="868.408203" xlink:href="#DejaVuSans-20"/>
<use x="900.195312" xlink:href="#j"/>
<use x="963.574219" xlink:href="#o"/>
<use x="991.357422" xlink:href="#t"/>
<use x="1046.337891" xlink:href="#an"/>
<use x="1104.248047" xlink:href="#ae"/>
<use x="1140.332031" xlink:href="#l"/>
<use x="1201.611328" xlink:href="#n"/>
<use x="1240.974609" xlink:href="#ab"/>
<use x="1338.386719" xlink:href="#ae"/>
<use x="1374.470703" xlink:href="#t"/>
<use x="1429.451172" xlink:href="#i"/>
<use x="1490.632812" xlink:href="#ap"/>
<use x="1554.109375" xlink:href="#k"/>
<use x="1615.632812" xlink:href="#t"/>
<use x="1670.613281" xlink:href="#l"/>
<use x="1731.892578" xlink:href="#t"/>
<use x="1786.873047" xlink:href="#ac"/>
<use x="1850.251953" xlink:href="#k"/>
<use x="1911.775391" xlink:href="#u"/>
<use x="1961.775391" xlink:href="#n"/>
<use x="2002.888672" xlink:href="#ak"/>
<use x="2084.675781" xlink:href="#aj"/>
<use x="2143.855469" xlink:href="#ae"/>
<use x="2179.939453" xlink:href="#b"/>
<use x="2243.5625" xlink:href="#q"/>
<use x="2307.185547" xlink:href="#q"/>
<use x="2370.808594" xlink:href="#r"/>
<use x="2434.431641" xlink:href="#w"/>
<use x="2498.054688" xlink:href="#p"/>
<use x="2561.677734" xlink:href="#ad"/>
<use x="2625.300781" xlink:href="#DejaVuSans-20"/>
<use x="2657.087891" xlink:href="#al"/>
<use x="2716.267578" xlink:href="#h"/>
<use x="2768.367188" xlink:href="#c"/>
<use x="2800.154297" xlink:href="#DejaVuSans-20"/>
<use x="2831.941406" xlink:href="#x"/>
<use x="2895.564453" xlink:href="#c"/>
<use x="2927.351562" xlink:href="#m"/>
<use x="2990.974609" xlink:href="#q"/>
<use x="3054.597656" xlink:href="#c"/>
<use x="3086.384766" xlink:href="#b"/>
<use x="3150.007812" xlink:href="#l"/>
<use x="3211.287109" xlink:href="#b"/>
</g>
<defs>
<clipPath id="a">
<rect x="126" y="34.8" width="405" height="176"/>
</clipPath>
</defs>
</svg>
