<?xml version="1.0" encoding="utf-8" standalone="no"?>
<!DOCTYPE svg PUBLIC "-//W3C//DTD SVG 1.1//EN"
  "http://www.w3.org/Graphics/SVG/1.1/DTD/svg11.dtd">
<svg xmlns:xlink="http://www.w3.org/1999/xlink" width="360pt" height="216pt" viewBox="0 0 360 216" xmlns="http://www.w3.org/2000/svg" version="1.1">
 <metadata>
  <rdf:RDF xmlns:dc="http://purl.org/dc/elements/1.1/" xmlns:cc="http://creativecommons.org/ns#" xmlns:rdf="http://www.w3.org/1999/02/22-rdf-syntax-ns#">
   <cc:Work>
    <dc:type rdf:resource="http://purl.org/dc/dcmitype/StillImage"/>
    <dc:date>2025-02-14T08:49:49.306544</dc:date>
    <dc:format>image/svg+xml</dc:format>
    <dc:creator>
     <cc:Agent>
      <dc:title>Matplotlib v3.10.0, https://matplotlib.org/</dc:title>
     </cc:Agent>
    </dc:creator>
   </cc:Work>
  </rdf:RDF>
 </metadata>
 <defs>
  <style type="text/css">*{stroke-linejoin: round; stroke-linecap: butt}</style>
 </defs>
 <g id="figure_1">
  <g id="patch_1">
   <path d="M 0 216 
L 360 216 
L 360 0 
L 0 0 
z
" style="fill: #ffffff"/>
  </g>
  <g id="axes_1">
   <g id="patch_2">
    <path d="M 263.999808 108 
C 263.999808 94.580227 260.783902 81.353815 254.622325 69.432184 
C 248.460747 57.510554 239.531058 47.237255 228.583622 39.475556 
C 217.636187 31.713858 204.986481 26.687431 191.697464 24.818649 
C 178.408448 22.949868 164.863074 24.292584 152.199567 28.733969 
L 180 108 
z
" style="fill: #9467bd"/>
   </g>
   <g id="patch_3">
    <path d="M 152.199566 28.733971 
C 142.554422 32.116746 133.607208 37.231726 125.798596 43.826991 
C 117.989984 50.422255 111.450305 58.38771 106.50168 67.331033 
L 180 108 
z
" style="fill: #e377c2"/>
   </g>
   <g id="patch_4">
    <path d="M 106.50168 67.331033 
C 101.609562 76.172231 98.352622 85.824036 96.887684 95.821713 
C 95.42274 105.819389 95.773695 115.999851 97.923651 125.87291 
L 180 108 
z
" style="fill: #7f7f7f"/>
   </g>
   <g id="patch_5">
    <path d="M 97.923651 125.87291 
C 99.489722 133.06466 101.994272 140.019491 105.372872 146.55852 
C 108.751471 153.097548 112.974909 159.164237 117.934579 164.602575 
L 180 108 
z
" style="fill: #8c564b"/>
   </g>
   <g id="patch_6">
    <path d="M 117.934579 164.602575 
C 121.974959 169.032903 126.478131 173.017918 131.36701 176.489418 
C 136.25589 179.960918 141.502435 182.898986 147.016901 185.253369 
L 180 108 
z
" style="fill: #bcbd22"/>
   </g>
   <g id="patch_7">
    <path d="M 147.016901 185.253369 
C 151.159037 187.021843 155.436704 188.454318 159.808515 189.536933 
C 164.180325 190.619549 168.632135 191.348807 173.12087 191.717651 
L 180 108 
z
" style="fill: #d62728"/>
   </g>
   <g id="patch_8">
    <path d="M 173.12087 191.717651 
C 176.580219 192.001911 180.053862 192.071475 183.521818 191.925948 
C 186.989774 191.780421 190.445377 191.420083 193.86875 190.847002 
L 180 108 
z
" style="fill: url(#h4146a282cf)"/>
   </g>
   <g id="patch_9">
    <path d="M 193.86875 190.847002 
C 196.833532 190.35069 199.769555 189.695583 202.664108 188.88452 
C 205.558659 188.073457 208.407569 187.107614 211.198577 185.991133 
L 180 108 
z
" style="fill: url(#he0339985fa)"/>
   </g>
   <g id="patch_10">
    <path d="M 211.198577 185.991133 
C 213.896443 184.911912 216.536497 183.693432 219.108084 182.340605 
C 221.67967 180.987779 224.17933 179.502433 226.596983 177.89055 
L 180 108 
z
" style="fill: url(#hb8e25b0c95)"/>
   </g>
   <g id="patch_11">
    <path d="M 226.596983 177.89055 
C 228.804477 176.418783 230.941014 174.84325 232.999386 173.169263 
C 235.057758 171.495277 237.035651 169.72472 238.926441 167.86353 
L 180 108 
z
" style="fill: #dddddd"/>
   </g>
   <g id="patch_12">
    <path d="M 238.926441 167.86353 
C 240.331103 166.480858 241.686663 165.049169 242.990608 163.571133 
C 244.294554 162.093097 245.546073 160.569624 246.742839 159.003544 
L 180 108 
z
" style="fill: url(#hfc61ac271e)"/>
   </g>
   <g id="patch_13">
    <path d="M 246.742839 159.003544 
C 247.852301 157.551708 248.914098 156.064054 249.926534 154.542965 
C 250.93897 153.021875 251.901498 151.468157 252.812597 149.884285 
L 180 108 
z
" style="fill: #ff7f0e"/>
   </g>
   <g id="patch_14">
    <path d="M 252.812597 149.884285 
C 253.708785 148.326333 254.55474 146.74002 255.349151 145.127795 
C 256.143561 143.51557 256.886027 141.878266 257.575395 140.218406 
L 180 108 
z
" style="fill: url(#h9109121c83)"/>
   </g>
   <g id="patch_15">
    <path d="M 257.575395 140.218406 
C 258.229571 138.643288 258.835616 137.048612 259.3927 135.436594 
C 259.949785 133.824577 260.457637 132.195969 260.915562 130.553032 
L 180 108 
z
" style="fill: url(#h0cbbf531f2)"/>
   </g>
   <g id="patch_16">
    <path d="M 260.915562 130.553032 
C 261.343972 129.015991 261.728498 127.467055 262.068673 125.90811 
C 262.408849 124.349164 262.704534 122.780843 262.955374 121.205055 
L 180 108 
z
" style="fill: #2ca02c"/>
   </g>
   <g id="patch_17">
    <path d="M 262.955374 121.205055 
C 263.070034 120.484746 263.175307 119.762994 263.271166 119.039943 
C 263.367026 118.316892 263.453473 117.592604 263.530468 116.867301 
L 180 108 
z
" style="fill: url(#h92e77ffded)"/>
   </g>
   <g id="patch_18">
    <path d="M 263.530468 116.867301 
C 263.578518 116.414666 263.622888 115.961647 263.663573 115.508291 
C 263.704258 115.054934 263.741258 114.601254 263.774568 114.147295 
L 180 108 
z
" style="fill: url(#hf67ce71e7f)"/>
   </g>
   <g id="patch_19">
    <path d="M 263.774568 114.147295 
C 263.799912 113.801901 263.823124 113.456352 263.844192 113.110671 
C 263.865261 112.764989 263.884196 112.41918 263.900989 112.073264 
L 180 108 
z
" style="fill: url(#h2157851680)"/>
   </g>
   <g id="patch_20">
    <path d="M 263.900989 112.073264 
C 263.917702 111.728982 263.932302 111.38458 263.944778 111.040118 
C 263.957255 110.695656 263.967604 110.351141 263.975841 110.006551 
L 180 108 
z
" style="fill: url(#he17210969d)"/>
   </g>
   <g id="patch_21">
    <path d="M 263.975841 110.006551 
C 263.980988 109.791214 263.985298 109.575858 263.988788 109.360488 
C 263.992278 109.145118 263.994936 108.929735 263.996769 108.714344 
L 180 108 
z
" style="fill: url(#h30aca2ef55)"/>
   </g>
   <g id="patch_22">
    <path d="M 263.996769 108.714344 
C 263.997194 108.664585 263.99757 108.614826 263.997905 108.565066 
C 263.998241 108.515307 263.998531 108.465547 263.998777 108.415787 
L 180 108 
z
" style="fill: url(#h6adca8ad6a)"/>
   </g>
   <g id="patch_23">
    <path d="M 263.998777 108.415787 
C 263.998977 108.375432 263.999152 108.335098 263.999292 108.294744 
C 263.999432 108.254389 263.999543 108.214015 263.999628 108.17366 
L 180 108 
z
" style="fill: url(#hd21e322ae3)"/>
   </g>
   <g id="patch_24">
    <path d="M 263.999628 108.17366 
C 263.999688 108.144728 263.999733 108.115795 263.999763 108.086863 
C 263.999793 108.05793 263.999808 108.028998 263.999808 108.000065 
L 180 108 
z
" style="fill: url(#h5dc2b60740)"/>
   </g>
   <g id="patch_25">
    <path d="M 263.999808 108.000065 
C 263.999808 108.000065 263.999808 108.000065 263.999808 108.000065 
L 180 108 
z
" style="fill: #dddddd"/>
   </g>
   <g id="matplotlib.axis_1"/>
   <g id="matplotlib.axis_2"/>
   <g id="text_1">
    <!-- interpreter 30.37% -->
    <g transform="translate(233.441984 34.278736) scale(0.06 -0.06)">
     <defs>
      <path id="DejaVuSans-69" d="M 603 3500 
L 1178 3500 
L 1178 0 
L 603 0 
L 603 3500 
z
M 603 4863 
L 1178 4863 
L 1178 4134 
L 603 4134 
L 603 4863 
z
" transform="scale(0.015625)"/>
      <path id="DejaVuSans-6e" d="M 3513 2113 
L 3513 0 
L 2938 0 
L 2938 2094 
Q 2938 2591 2744 2837 
Q 2550 3084 2163 3084 
Q 1697 3084 1428 2787 
Q 1159 2491 1159 1978 
L 1159 0 
L 581 0 
L 581 3500 
L 1159 3500 
L 1159 2956 
Q 1366 3272 1645 3428 
Q 1925 3584 2291 3584 
Q 2894 3584 3203 3211 
Q 3513 2838 3513 2113 
z
" transform="scale(0.015625)"/>
      <path id="DejaVuSans-74" d="M 1172 4494 
L 1172 3500 
L 2356 3500 
L 2356 3053 
L 1172 3053 
L 1172 1153 
Q 1172 725 1289 603 
Q 1406 481 1766 481 
L 2356 481 
L 2356 0 
L 1766 0 
Q 1100 0 847 248 
Q 594 497 594 1153 
L 594 3053 
L 172 3053 
L 172 3500 
L 594 3500 
L 594 4494 
L 1172 4494 
z
" transform="scale(0.015625)"/>
      <path id="DejaVuSans-65" d="M 3597 1894 
L 3597 1613 
L 953 1613 
Q 991 1019 1311 708 
Q 1631 397 2203 397 
Q 2534 397 2845 478 
Q 3156 559 3463 722 
L 3463 178 
Q 3153 47 2828 -22 
Q 2503 -91 2169 -91 
Q 1331 -91 842 396 
Q 353 884 353 1716 
Q 353 2575 817 3079 
Q 1281 3584 2069 3584 
Q 2775 3584 3186 3129 
Q 3597 2675 3597 1894 
z
M 3022 2063 
Q 3016 2534 2758 2815 
Q 2500 3097 2075 3097 
Q 1594 3097 1305 2825 
Q 1016 2553 972 2059 
L 3022 2063 
z
" transform="scale(0.015625)"/>
      <path id="DejaVuSans-72" d="M 2631 2963 
Q 2534 3019 2420 3045 
Q 2306 3072 2169 3072 
Q 1681 3072 1420 2755 
Q 1159 2438 1159 1844 
L 1159 0 
L 581 0 
L 581 3500 
L 1159 3500 
L 1159 2956 
Q 1341 3275 1631 3429 
Q 1922 3584 2338 3584 
Q 2397 3584 2469 3576 
Q 2541 3569 2628 3553 
L 2631 2963 
z
" transform="scale(0.015625)"/>
      <path id="DejaVuSans-70" d="M 1159 525 
L 1159 -1331 
L 581 -1331 
L 581 3500 
L 1159 3500 
L 1159 2969 
Q 1341 3281 1617 3432 
Q 1894 3584 2278 3584 
Q 2916 3584 3314 3078 
Q 3713 2572 3713 1747 
Q 3713 922 3314 415 
Q 2916 -91 2278 -91 
Q 1894 -91 1617 61 
Q 1341 213 1159 525 
z
M 3116 1747 
Q 3116 2381 2855 2742 
Q 2594 3103 2138 3103 
Q 1681 3103 1420 2742 
Q 1159 2381 1159 1747 
Q 1159 1113 1420 752 
Q 1681 391 2138 391 
Q 2594 391 2855 752 
Q 3116 1113 3116 1747 
z
" transform="scale(0.015625)"/>
      <path id="DejaVuSans-20" transform="scale(0.015625)"/>
      <path id="DejaVuSans-33" d="M 2597 2516 
Q 3050 2419 3304 2112 
Q 3559 1806 3559 1356 
Q 3559 666 3084 287 
Q 2609 -91 1734 -91 
Q 1441 -91 1130 -33 
Q 819 25 488 141 
L 488 750 
Q 750 597 1062 519 
Q 1375 441 1716 441 
Q 2309 441 2620 675 
Q 2931 909 2931 1356 
Q 2931 1769 2642 2001 
Q 2353 2234 1838 2234 
L 1294 2234 
L 1294 2753 
L 1863 2753 
Q 2328 2753 2575 2939 
Q 2822 3125 2822 3475 
Q 2822 3834 2567 4026 
Q 2313 4219 1838 4219 
Q 1578 4219 1281 4162 
Q 984 4106 628 3988 
L 628 4550 
Q 988 4650 1302 4700 
Q 1616 4750 1894 4750 
Q 2613 4750 3031 4423 
Q 3450 4097 3450 3541 
Q 3450 3153 3228 2886 
Q 3006 2619 2597 2516 
z
" transform="scale(0.015625)"/>
      <path id="DejaVuSans-30" d="M 2034 4250 
Q 1547 4250 1301 3770 
Q 1056 3291 1056 2328 
Q 1056 1369 1301 889 
Q 1547 409 2034 409 
Q 2525 409 2770 889 
Q 3016 1369 3016 2328 
Q 3016 3291 2770 3770 
Q 2525 4250 2034 4250 
z
M 2034 4750 
Q 2819 4750 3233 4129 
Q 3647 3509 3647 2328 
Q 3647 1150 3233 529 
Q 2819 -91 2034 -91 
Q 1250 -91 836 529 
Q 422 1150 422 2328 
Q 422 3509 836 4129 
Q 1250 4750 2034 4750 
z
" transform="scale(0.015625)"/>
      <path id="DejaVuSans-2e" d="M 684 794 
L 1344 794 
L 1344 0 
L 684 0 
L 684 794 
z
" transform="scale(0.015625)"/>
      <path id="DejaVuSans-37" d="M 525 4666 
L 3525 4666 
L 3525 4397 
L 1831 0 
L 1172 0 
L 2766 4134 
L 525 4134 
L 525 4666 
z
" transform="scale(0.015625)"/>
      <path id="DejaVuSans-25" d="M 4653 2053 
Q 4381 2053 4226 1822 
Q 4072 1591 4072 1178 
Q 4072 772 4226 539 
Q 4381 306 4653 306 
Q 4919 306 5073 539 
Q 5228 772 5228 1178 
Q 5228 1588 5073 1820 
Q 4919 2053 4653 2053 
z
M 4653 2450 
Q 5147 2450 5437 2106 
Q 5728 1763 5728 1178 
Q 5728 594 5436 251 
Q 5144 -91 4653 -91 
Q 4153 -91 3862 251 
Q 3572 594 3572 1178 
Q 3572 1766 3864 2108 
Q 4156 2450 4653 2450 
z
M 1428 4353 
Q 1159 4353 1004 4120 
Q 850 3888 850 3481 
Q 850 3069 1003 2837 
Q 1156 2606 1428 2606 
Q 1700 2606 1854 2837 
Q 2009 3069 2009 3481 
Q 2009 3884 1853 4118 
Q 1697 4353 1428 4353 
z
M 4250 4750 
L 4750 4750 
L 1831 -91 
L 1331 -91 
L 4250 4750 
z
M 1428 4750 
Q 1922 4750 2215 4408 
Q 2509 4066 2509 3481 
Q 2509 2891 2217 2550 
Q 1925 2209 1428 2209 
Q 931 2209 642 2551 
Q 353 2894 353 3481 
Q 353 4063 643 4406 
Q 934 4750 1428 4750 
z
" transform="scale(0.015625)"/>
     </defs>
     <use xlink:href="#DejaVuSans-69"/>
     <use xlink:href="#DejaVuSans-6e" transform="translate(27.783203 0)"/>
     <use xlink:href="#DejaVuSans-74" transform="translate(91.162109 0)"/>
     <use xlink:href="#DejaVuSans-65" transform="translate(130.371094 0)"/>
     <use xlink:href="#DejaVuSans-72" transform="translate(191.894531 0)"/>
     <use xlink:href="#DejaVuSans-70" transform="translate(233.007812 0)"/>
     <use xlink:href="#DejaVuSans-72" transform="translate(296.484375 0)"/>
     <use xlink:href="#DejaVuSans-65" transform="translate(335.347656 0)"/>
     <use xlink:href="#DejaVuSans-74" transform="translate(396.871094 0)"/>
     <use xlink:href="#DejaVuSans-65" transform="translate(436.080078 0)"/>
     <use xlink:href="#DejaVuSans-72" transform="translate(497.603516 0)"/>
     <use xlink:href="#DejaVuSans-20" transform="translate(538.716797 0)"/>
     <use xlink:href="#DejaVuSans-33" transform="translate(570.503906 0)"/>
     <use xlink:href="#DejaVuSans-30" transform="translate(634.126953 0)"/>
     <use xlink:href="#DejaVuSans-2e" transform="translate(697.75 0)"/>
     <use xlink:href="#DejaVuSans-33" transform="translate(729.537109 0)"/>
     <use xlink:href="#DejaVuSans-37" transform="translate(793.160156 0)"/>
     <use xlink:href="#DejaVuSans-25" transform="translate(856.783203 0)"/>
    </g>
   </g>
   <g id="text_2">
    <!-- gc 11.59% -->
    <g transform="translate(88.485625 39.065326) scale(0.06 -0.06)">
     <defs>
      <path id="DejaVuSans-67" d="M 2906 1791 
Q 2906 2416 2648 2759 
Q 2391 3103 1925 3103 
Q 1463 3103 1205 2759 
Q 947 2416 947 1791 
Q 947 1169 1205 825 
Q 1463 481 1925 481 
Q 2391 481 2648 825 
Q 2906 1169 2906 1791 
z
M 3481 434 
Q 3481 -459 3084 -895 
Q 2688 -1331 1869 -1331 
Q 1566 -1331 1297 -1286 
Q 1028 -1241 775 -1147 
L 775 -588 
Q 1028 -725 1275 -790 
Q 1522 -856 1778 -856 
Q 2344 -856 2625 -561 
Q 2906 -266 2906 331 
L 2906 616 
Q 2728 306 2450 153 
Q 2172 0 1784 0 
Q 1141 0 747 490 
Q 353 981 353 1791 
Q 353 2603 747 3093 
Q 1141 3584 1784 3584 
Q 2172 3584 2450 3431 
Q 2728 3278 2906 2969 
L 2906 3500 
L 3481 3500 
L 3481 434 
z
" transform="scale(0.015625)"/>
      <path id="DejaVuSans-63" d="M 3122 3366 
L 3122 2828 
Q 2878 2963 2633 3030 
Q 2388 3097 2138 3097 
Q 1578 3097 1268 2742 
Q 959 2388 959 1747 
Q 959 1106 1268 751 
Q 1578 397 2138 397 
Q 2388 397 2633 464 
Q 2878 531 3122 666 
L 3122 134 
Q 2881 22 2623 -34 
Q 2366 -91 2075 -91 
Q 1284 -91 818 406 
Q 353 903 353 1747 
Q 353 2603 823 3093 
Q 1294 3584 2113 3584 
Q 2378 3584 2631 3529 
Q 2884 3475 3122 3366 
z
" transform="scale(0.015625)"/>
      <path id="DejaVuSans-31" d="M 794 531 
L 1825 531 
L 1825 4091 
L 703 3866 
L 703 4441 
L 1819 4666 
L 2450 4666 
L 2450 531 
L 3481 531 
L 3481 0 
L 794 0 
L 794 531 
z
" transform="scale(0.015625)"/>
      <path id="DejaVuSans-35" d="M 691 4666 
L 3169 4666 
L 3169 4134 
L 1269 4134 
L 1269 2991 
Q 1406 3038 1543 3061 
Q 1681 3084 1819 3084 
Q 2600 3084 3056 2656 
Q 3513 2228 3513 1497 
Q 3513 744 3044 326 
Q 2575 -91 1722 -91 
Q 1428 -91 1123 -41 
Q 819 9 494 109 
L 494 744 
Q 775 591 1075 516 
Q 1375 441 1709 441 
Q 2250 441 2565 725 
Q 2881 1009 2881 1497 
Q 2881 1984 2565 2268 
Q 2250 2553 1709 2553 
Q 1456 2553 1204 2497 
Q 953 2441 691 2322 
L 691 4666 
z
" transform="scale(0.015625)"/>
      <path id="DejaVuSans-39" d="M 703 97 
L 703 672 
Q 941 559 1184 500 
Q 1428 441 1663 441 
Q 2288 441 2617 861 
Q 2947 1281 2994 2138 
Q 2813 1869 2534 1725 
Q 2256 1581 1919 1581 
Q 1219 1581 811 2004 
Q 403 2428 403 3163 
Q 403 3881 828 4315 
Q 1253 4750 1959 4750 
Q 2769 4750 3195 4129 
Q 3622 3509 3622 2328 
Q 3622 1225 3098 567 
Q 2575 -91 1691 -91 
Q 1453 -91 1209 -44 
Q 966 3 703 97 
z
M 1959 2075 
Q 2384 2075 2632 2365 
Q 2881 2656 2881 3163 
Q 2881 3666 2632 3958 
Q 2384 4250 1959 4250 
Q 1534 4250 1286 3958 
Q 1038 3666 1038 3163 
Q 1038 2656 1286 2365 
Q 1534 2075 1959 2075 
z
" transform="scale(0.015625)"/>
     </defs>
     <use xlink:href="#DejaVuSans-67"/>
     <use xlink:href="#DejaVuSans-63" transform="translate(63.476562 0)"/>
     <use xlink:href="#DejaVuSans-20" transform="translate(118.457031 0)"/>
     <use xlink:href="#DejaVuSans-31" transform="translate(150.244141 0)"/>
     <use xlink:href="#DejaVuSans-31" transform="translate(213.867188 0)"/>
     <use xlink:href="#DejaVuSans-2e" transform="translate(277.490234 0)"/>
     <use xlink:href="#DejaVuSans-35" transform="translate(309.277344 0)"/>
     <use xlink:href="#DejaVuSans-39" transform="translate(372.900391 0)"/>
     <use xlink:href="#DejaVuSans-25" transform="translate(436.523438 0)"/>
    </g>
   </g>
   <g id="text_3">
    <!-- memory 11.46% -->
    <g transform="translate(38.722074 96.25953) scale(0.06 -0.06)">
     <defs>
      <path id="DejaVuSans-6d" d="M 3328 2828 
Q 3544 3216 3844 3400 
Q 4144 3584 4550 3584 
Q 5097 3584 5394 3201 
Q 5691 2819 5691 2113 
L 5691 0 
L 5113 0 
L 5113 2094 
Q 5113 2597 4934 2840 
Q 4756 3084 4391 3084 
Q 3944 3084 3684 2787 
Q 3425 2491 3425 1978 
L 3425 0 
L 2847 0 
L 2847 2094 
Q 2847 2600 2669 2842 
Q 2491 3084 2119 3084 
Q 1678 3084 1418 2786 
Q 1159 2488 1159 1978 
L 1159 0 
L 581 0 
L 581 3500 
L 1159 3500 
L 1159 2956 
Q 1356 3278 1631 3431 
Q 1906 3584 2284 3584 
Q 2666 3584 2933 3390 
Q 3200 3197 3328 2828 
z
" transform="scale(0.015625)"/>
      <path id="DejaVuSans-6f" d="M 1959 3097 
Q 1497 3097 1228 2736 
Q 959 2375 959 1747 
Q 959 1119 1226 758 
Q 1494 397 1959 397 
Q 2419 397 2687 759 
Q 2956 1122 2956 1747 
Q 2956 2369 2687 2733 
Q 2419 3097 1959 3097 
z
M 1959 3584 
Q 2709 3584 3137 3096 
Q 3566 2609 3566 1747 
Q 3566 888 3137 398 
Q 2709 -91 1959 -91 
Q 1206 -91 779 398 
Q 353 888 353 1747 
Q 353 2609 779 3096 
Q 1206 3584 1959 3584 
z
" transform="scale(0.015625)"/>
      <path id="DejaVuSans-79" d="M 2059 -325 
Q 1816 -950 1584 -1140 
Q 1353 -1331 966 -1331 
L 506 -1331 
L 506 -850 
L 844 -850 
Q 1081 -850 1212 -737 
Q 1344 -625 1503 -206 
L 1606 56 
L 191 3500 
L 800 3500 
L 1894 763 
L 2988 3500 
L 3597 3500 
L 2059 -325 
z
" transform="scale(0.015625)"/>
      <path id="DejaVuSans-34" d="M 2419 4116 
L 825 1625 
L 2419 1625 
L 2419 4116 
z
M 2253 4666 
L 3047 4666 
L 3047 1625 
L 3713 1625 
L 3713 1100 
L 3047 1100 
L 3047 0 
L 2419 0 
L 2419 1100 
L 313 1100 
L 313 1709 
L 2253 4666 
z
" transform="scale(0.015625)"/>
      <path id="DejaVuSans-36" d="M 2113 2584 
Q 1688 2584 1439 2293 
Q 1191 2003 1191 1497 
Q 1191 994 1439 701 
Q 1688 409 2113 409 
Q 2538 409 2786 701 
Q 3034 994 3034 1497 
Q 3034 2003 2786 2293 
Q 2538 2584 2113 2584 
z
M 3366 4563 
L 3366 3988 
Q 3128 4100 2886 4159 
Q 2644 4219 2406 4219 
Q 1781 4219 1451 3797 
Q 1122 3375 1075 2522 
Q 1259 2794 1537 2939 
Q 1816 3084 2150 3084 
Q 2853 3084 3261 2657 
Q 3669 2231 3669 1497 
Q 3669 778 3244 343 
Q 2819 -91 2113 -91 
Q 1303 -91 875 529 
Q 447 1150 447 2328 
Q 447 3434 972 4092 
Q 1497 4750 2381 4750 
Q 2619 4750 2861 4703 
Q 3103 4656 3366 4563 
z
" transform="scale(0.015625)"/>
     </defs>
     <use xlink:href="#DejaVuSans-6d"/>
     <use xlink:href="#DejaVuSans-65" transform="translate(97.412109 0)"/>
     <use xlink:href="#DejaVuSans-6d" transform="translate(158.935547 0)"/>
     <use xlink:href="#DejaVuSans-6f" transform="translate(256.347656 0)"/>
     <use xlink:href="#DejaVuSans-72" transform="translate(317.529297 0)"/>
     <use xlink:href="#DejaVuSans-79" transform="translate(358.642578 0)"/>
     <use xlink:href="#DejaVuSans-20" transform="translate(417.822266 0)"/>
     <use xlink:href="#DejaVuSans-31" transform="translate(449.609375 0)"/>
     <use xlink:href="#DejaVuSans-31" transform="translate(513.232422 0)"/>
     <use xlink:href="#DejaVuSans-2e" transform="translate(576.855469 0)"/>
     <use xlink:href="#DejaVuSans-34" transform="translate(608.642578 0)"/>
     <use xlink:href="#DejaVuSans-36" transform="translate(672.265625 0)"/>
     <use xlink:href="#DejaVuSans-25" transform="translate(735.888672 0)"/>
    </g>
   </g>
   <g id="text_4">
    <!-- lookup 8.36% -->
    <g transform="translate(57.035149 152.069977) scale(0.06 -0.06)">
     <defs>
      <path id="DejaVuSans-6c" d="M 603 4863 
L 1178 4863 
L 1178 0 
L 603 0 
L 603 4863 
z
" transform="scale(0.015625)"/>
      <path id="DejaVuSans-6b" d="M 581 4863 
L 1159 4863 
L 1159 1991 
L 2875 3500 
L 3609 3500 
L 1753 1863 
L 3688 0 
L 2938 0 
L 1159 1709 
L 1159 0 
L 581 0 
L 581 4863 
z
" transform="scale(0.015625)"/>
      <path id="DejaVuSans-75" d="M 544 1381 
L 544 3500 
L 1119 3500 
L 1119 1403 
Q 1119 906 1312 657 
Q 1506 409 1894 409 
Q 2359 409 2629 706 
Q 2900 1003 2900 1516 
L 2900 3500 
L 3475 3500 
L 3475 0 
L 2900 0 
L 2900 538 
Q 2691 219 2414 64 
Q 2138 -91 1772 -91 
Q 1169 -91 856 284 
Q 544 659 544 1381 
z
M 1991 3584 
L 1991 3584 
z
" transform="scale(0.015625)"/>
      <path id="DejaVuSans-38" d="M 2034 2216 
Q 1584 2216 1326 1975 
Q 1069 1734 1069 1313 
Q 1069 891 1326 650 
Q 1584 409 2034 409 
Q 2484 409 2743 651 
Q 3003 894 3003 1313 
Q 3003 1734 2745 1975 
Q 2488 2216 2034 2216 
z
M 1403 2484 
Q 997 2584 770 2862 
Q 544 3141 544 3541 
Q 544 4100 942 4425 
Q 1341 4750 2034 4750 
Q 2731 4750 3128 4425 
Q 3525 4100 3525 3541 
Q 3525 3141 3298 2862 
Q 3072 2584 2669 2484 
Q 3125 2378 3379 2068 
Q 3634 1759 3634 1313 
Q 3634 634 3220 271 
Q 2806 -91 2034 -91 
Q 1263 -91 848 271 
Q 434 634 434 1313 
Q 434 1759 690 2068 
Q 947 2378 1403 2484 
z
M 1172 3481 
Q 1172 3119 1398 2916 
Q 1625 2713 2034 2713 
Q 2441 2713 2670 2916 
Q 2900 3119 2900 3481 
Q 2900 3844 2670 4047 
Q 2441 4250 2034 4250 
Q 1625 4250 1398 4047 
Q 1172 3844 1172 3481 
z
" transform="scale(0.015625)"/>
     </defs>
     <use xlink:href="#DejaVuSans-6c"/>
     <use xlink:href="#DejaVuSans-6f" transform="translate(27.783203 0)"/>
     <use xlink:href="#DejaVuSans-6f" transform="translate(88.964844 0)"/>
     <use xlink:href="#DejaVuSans-6b" transform="translate(150.146484 0)"/>
     <use xlink:href="#DejaVuSans-75" transform="translate(204.931641 0)"/>
     <use xlink:href="#DejaVuSans-70" transform="translate(268.310547 0)"/>
     <use xlink:href="#DejaVuSans-20" transform="translate(331.787109 0)"/>
     <use xlink:href="#DejaVuSans-38" transform="translate(363.574219 0)"/>
     <use xlink:href="#DejaVuSans-2e" transform="translate(427.197266 0)"/>
     <use xlink:href="#DejaVuSans-33" transform="translate(458.984375 0)"/>
     <use xlink:href="#DejaVuSans-36" transform="translate(522.607422 0)"/>
     <use xlink:href="#DejaVuSans-25" transform="translate(586.230469 0)"/>
    </g>
   </g>
   <g id="text_5">
    <!-- dynamic 6.81% -->
    <g transform="translate(79.886527 184.993984) scale(0.06 -0.06)">
     <defs>
      <path id="DejaVuSans-64" d="M 2906 2969 
L 2906 4863 
L 3481 4863 
L 3481 0 
L 2906 0 
L 2906 525 
Q 2725 213 2448 61 
Q 2172 -91 1784 -91 
Q 1150 -91 751 415 
Q 353 922 353 1747 
Q 353 2572 751 3078 
Q 1150 3584 1784 3584 
Q 2172 3584 2448 3432 
Q 2725 3281 2906 2969 
z
M 947 1747 
Q 947 1113 1208 752 
Q 1469 391 1925 391 
Q 2381 391 2643 752 
Q 2906 1113 2906 1747 
Q 2906 2381 2643 2742 
Q 2381 3103 1925 3103 
Q 1469 3103 1208 2742 
Q 947 2381 947 1747 
z
" transform="scale(0.015625)"/>
      <path id="DejaVuSans-61" d="M 2194 1759 
Q 1497 1759 1228 1600 
Q 959 1441 959 1056 
Q 959 750 1161 570 
Q 1363 391 1709 391 
Q 2188 391 2477 730 
Q 2766 1069 2766 1631 
L 2766 1759 
L 2194 1759 
z
M 3341 1997 
L 3341 0 
L 2766 0 
L 2766 531 
Q 2569 213 2275 61 
Q 1981 -91 1556 -91 
Q 1019 -91 701 211 
Q 384 513 384 1019 
Q 384 1609 779 1909 
Q 1175 2209 1959 2209 
L 2766 2209 
L 2766 2266 
Q 2766 2663 2505 2880 
Q 2244 3097 1772 3097 
Q 1472 3097 1187 3025 
Q 903 2953 641 2809 
L 641 3341 
Q 956 3463 1253 3523 
Q 1550 3584 1831 3584 
Q 2591 3584 2966 3190 
Q 3341 2797 3341 1997 
z
" transform="scale(0.015625)"/>
     </defs>
     <use xlink:href="#DejaVuSans-64"/>
     <use xlink:href="#DejaVuSans-79" transform="translate(63.476562 0)"/>
     <use xlink:href="#DejaVuSans-6e" transform="translate(122.65625 0)"/>
     <use xlink:href="#DejaVuSans-61" transform="translate(186.035156 0)"/>
     <use xlink:href="#DejaVuSans-6d" transform="translate(247.314453 0)"/>
     <use xlink:href="#DejaVuSans-69" transform="translate(344.726562 0)"/>
     <use xlink:href="#DejaVuSans-63" transform="translate(372.509766 0)"/>
     <use xlink:href="#DejaVuSans-20" transform="translate(427.490234 0)"/>
     <use xlink:href="#DejaVuSans-36" transform="translate(459.277344 0)"/>
     <use xlink:href="#DejaVuSans-2e" transform="translate(522.900391 0)"/>
     <use xlink:href="#DejaVuSans-38" transform="translate(554.6875 0)"/>
     <use xlink:href="#DejaVuSans-31" transform="translate(618.310547 0)"/>
     <use xlink:href="#DejaVuSans-25" transform="translate(681.933594 0)"/>
    </g>
   </g>
   <g id="text_6">
    <!-- library 5.12% -->
    <g transform="translate(117.518117 199.346253) scale(0.06 -0.06)">
     <defs>
      <path id="DejaVuSans-62" d="M 3116 1747 
Q 3116 2381 2855 2742 
Q 2594 3103 2138 3103 
Q 1681 3103 1420 2742 
Q 1159 2381 1159 1747 
Q 1159 1113 1420 752 
Q 1681 391 2138 391 
Q 2594 391 2855 752 
Q 3116 1113 3116 1747 
z
M 1159 2969 
Q 1341 3281 1617 3432 
Q 1894 3584 2278 3584 
Q 2916 3584 3314 3078 
Q 3713 2572 3713 1747 
Q 3713 922 3314 415 
Q 2916 -91 2278 -91 
Q 1894 -91 1617 61 
Q 1341 213 1159 525 
L 1159 0 
L 581 0 
L 581 4863 
L 1159 4863 
L 1159 2969 
z
" transform="scale(0.015625)"/>
      <path id="DejaVuSans-32" d="M 1228 531 
L 3431 531 
L 3431 0 
L 469 0 
L 469 531 
Q 828 903 1448 1529 
Q 2069 2156 2228 2338 
Q 2531 2678 2651 2914 
Q 2772 3150 2772 3378 
Q 2772 3750 2511 3984 
Q 2250 4219 1831 4219 
Q 1534 4219 1204 4116 
Q 875 4013 500 3803 
L 500 4441 
Q 881 4594 1212 4672 
Q 1544 4750 1819 4750 
Q 2544 4750 2975 4387 
Q 3406 4025 3406 3419 
Q 3406 3131 3298 2873 
Q 3191 2616 2906 2266 
Q 2828 2175 2409 1742 
Q 1991 1309 1228 531 
z
" transform="scale(0.015625)"/>
     </defs>
     <use xlink:href="#DejaVuSans-6c"/>
     <use xlink:href="#DejaVuSans-69" transform="translate(27.783203 0)"/>
     <use xlink:href="#DejaVuSans-62" transform="translate(55.566406 0)"/>
     <use xlink:href="#DejaVuSans-72" transform="translate(119.042969 0)"/>
     <use xlink:href="#DejaVuSans-61" transform="translate(160.15625 0)"/>
     <use xlink:href="#DejaVuSans-72" transform="translate(221.435547 0)"/>
     <use xlink:href="#DejaVuSans-79" transform="translate(262.548828 0)"/>
     <use xlink:href="#DejaVuSans-20" transform="translate(321.728516 0)"/>
     <use xlink:href="#DejaVuSans-35" transform="translate(353.515625 0)"/>
     <use xlink:href="#DejaVuSans-2e" transform="translate(417.138672 0)"/>
     <use xlink:href="#DejaVuSans-31" transform="translate(448.925781 0)"/>
     <use xlink:href="#DejaVuSans-32" transform="translate(512.548828 0)"/>
     <use xlink:href="#DejaVuSans-25" transform="translate(576.171875 0)"/>
    </g>
   </g>
   <g id="text_7">
    <!-- dict 3.94% -->
    <g transform="translate(183.874 201.974166) scale(0.06 -0.06)">
     <use xlink:href="#DejaVuSans-64"/>
     <use xlink:href="#DejaVuSans-69" transform="translate(63.476562 0)"/>
     <use xlink:href="#DejaVuSans-63" transform="translate(91.259766 0)"/>
     <use xlink:href="#DejaVuSans-74" transform="translate(146.240234 0)"/>
     <use xlink:href="#DejaVuSans-20" transform="translate(185.449219 0)"/>
     <use xlink:href="#DejaVuSans-33" transform="translate(217.236328 0)"/>
     <use xlink:href="#DejaVuSans-2e" transform="translate(280.859375 0)"/>
     <use xlink:href="#DejaVuSans-39" transform="translate(312.646484 0)"/>
     <use xlink:href="#DejaVuSans-34" transform="translate(376.269531 0)"/>
     <use xlink:href="#DejaVuSans-25" transform="translate(439.892578 0)"/>
    </g>
   </g>
   <g id="text_8">
    <!-- tuple 3.42% -->
    <g transform="translate(204.930519 198.6286) scale(0.06 -0.06)">
     <use xlink:href="#DejaVuSans-74"/>
     <use xlink:href="#DejaVuSans-75" transform="translate(39.208984 0)"/>
     <use xlink:href="#DejaVuSans-70" transform="translate(102.587891 0)"/>
     <use xlink:href="#DejaVuSans-6c" transform="translate(166.064453 0)"/>
     <use xlink:href="#DejaVuSans-65" transform="translate(193.847656 0)"/>
     <use xlink:href="#DejaVuSans-20" transform="translate(255.371094 0)"/>
     <use xlink:href="#DejaVuSans-33" transform="translate(287.158203 0)"/>
     <use xlink:href="#DejaVuSans-2e" transform="translate(350.78125 0)"/>
     <use xlink:href="#DejaVuSans-34" transform="translate(382.568359 0)"/>
     <use xlink:href="#DejaVuSans-32" transform="translate(446.191406 0)"/>
     <use xlink:href="#DejaVuSans-25" transform="translate(509.814453 0)"/>
    </g>
   </g>
   <g id="text_9">
    <!-- int 3.30% -->
    <g transform="translate(223.018892 191.43029) scale(0.06 -0.06)">
     <use xlink:href="#DejaVuSans-69"/>
     <use xlink:href="#DejaVuSans-6e" transform="translate(27.783203 0)"/>
     <use xlink:href="#DejaVuSans-74" transform="translate(91.162109 0)"/>
     <use xlink:href="#DejaVuSans-20" transform="translate(130.371094 0)"/>
     <use xlink:href="#DejaVuSans-33" transform="translate(162.158203 0)"/>
     <use xlink:href="#DejaVuSans-2e" transform="translate(225.78125 0)"/>
     <use xlink:href="#DejaVuSans-33" transform="translate(257.568359 0)"/>
     <use xlink:href="#DejaVuSans-30" transform="translate(321.191406 0)"/>
     <use xlink:href="#DejaVuSans-25" transform="translate(384.814453 0)"/>
    </g>
   </g>
   <g id="text_10">
    <!-- unknown 3.02% -->
    <g transform="translate(238.299327 181.341812) scale(0.06 -0.06)">
     <defs>
      <path id="DejaVuSans-77" d="M 269 3500 
L 844 3500 
L 1563 769 
L 2278 3500 
L 2956 3500 
L 3675 769 
L 4391 3500 
L 4966 3500 
L 4050 0 
L 3372 0 
L 2619 2869 
L 1863 0 
L 1184 0 
L 269 3500 
z
" transform="scale(0.015625)"/>
     </defs>
     <use xlink:href="#DejaVuSans-75"/>
     <use xlink:href="#DejaVuSans-6e" transform="translate(63.378906 0)"/>
     <use xlink:href="#DejaVuSans-6b" transform="translate(126.757812 0)"/>
     <use xlink:href="#DejaVuSans-6e" transform="translate(184.667969 0)"/>
     <use xlink:href="#DejaVuSans-6f" transform="translate(248.046875 0)"/>
     <use xlink:href="#DejaVuSans-77" transform="translate(309.228516 0)"/>
     <use xlink:href="#DejaVuSans-6e" transform="translate(391.015625 0)"/>
     <use xlink:href="#DejaVuSans-20" transform="translate(454.394531 0)"/>
     <use xlink:href="#DejaVuSans-33" transform="translate(486.181641 0)"/>
     <use xlink:href="#DejaVuSans-2e" transform="translate(549.804688 0)"/>
     <use xlink:href="#DejaVuSans-30" transform="translate(581.591797 0)"/>
     <use xlink:href="#DejaVuSans-32" transform="translate(645.214844 0)"/>
     <use xlink:href="#DejaVuSans-25" transform="translate(708.837891 0)"/>
    </g>
   </g>
  </g>
 </g>
 <defs>
  <pattern id="h4146a282cf" patternUnits="userSpaceOnUse" x="0" y="0" width="72" height="72">
   <rect x="0" y="0" width="73" height="73" fill="#2ca02c"/>
   <path d="M -36 36 
L 36 -36 
M -30 42 
L 42 -30 
M -24 48 
L 48 -24 
M -18 54 
L 54 -18 
M -12 60 
L 60 -12 
M -6 66 
L 66 -6 
M 0 72 
L 72 0 
M 6 78 
L 78 6 
M 12 84 
L 84 12 
M 18 90 
L 90 18 
M 24 96 
L 96 24 
M 30 102 
L 102 30 
M 36 108 
L 108 36 
" style="fill: #000000; stroke: #000000; stroke-width: 1.0; stroke-linecap: butt; stroke-linejoin: miter"/>
  </pattern>
  <pattern id="he0339985fa" patternUnits="userSpaceOnUse" x="0" y="0" width="72" height="72">
   <rect x="0" y="0" width="73" height="73" fill="#ff7f0e"/>
   <path d="M -36 36 
L 36 -36 
M -30 42 
L 42 -30 
M -24 48 
L 48 -24 
M -18 54 
L 54 -18 
M -12 60 
L 60 -12 
M -6 66 
L 66 -6 
M 0 72 
L 72 0 
M 6 78 
L 78 6 
M 12 84 
L 84 12 
M 18 90 
L 90 18 
M 24 96 
L 96 24 
M 30 102 
L 102 30 
M 36 108 
L 108 36 
" style="fill: #000000; stroke: #000000; stroke-width: 1.0; stroke-linecap: butt; stroke-linejoin: miter"/>
  </pattern>
  <pattern id="hb8e25b0c95" patternUnits="userSpaceOnUse" x="0" y="0" width="72" height="72">
   <rect x="0" y="0" width="73" height="73" fill="#1f77b4"/>
   <path d="M -36 36 
L 36 -36 
M -30 42 
L 42 -30 
M -24 48 
L 48 -24 
M -18 54 
L 54 -18 
M -12 60 
L 60 -12 
M -6 66 
L 66 -6 
M 0 72 
L 72 0 
M 6 78 
L 78 6 
M 12 84 
L 84 12 
M 18 90 
L 90 18 
M 24 96 
L 96 24 
M 30 102 
L 102 30 
M 36 108 
L 108 36 
" style="fill: #000000; stroke: #000000; stroke-width: 1.0; stroke-linecap: butt; stroke-linejoin: miter"/>
  </pattern>
  <pattern id="hfc61ac271e" patternUnits="userSpaceOnUse" x="0" y="0" width="72" height="72">
   <rect x="0" y="0" width="73" height="73" fill="#8c564b"/>
   <path d="M -36 36 
L 36 -36 
M -30 42 
L 42 -30 
M -24 48 
L 48 -24 
M -18 54 
L 54 -18 
M -12 60 
L 60 -12 
M -6 66 
L 66 -6 
M 0 72 
L 72 0 
M 6 78 
L 78 6 
M 12 84 
L 84 12 
M 18 90 
L 90 18 
M 24 96 
L 96 24 
M 30 102 
L 102 30 
M 36 108 
L 108 36 
" style="fill: #000000; stroke: #000000; stroke-width: 1.0; stroke-linecap: butt; stroke-linejoin: miter"/>
  </pattern>
  <pattern id="h9109121c83" patternUnits="userSpaceOnUse" x="0" y="0" width="72" height="72">
   <rect x="0" y="0" width="73" height="73" fill="#d62728"/>
   <path d="M -36 36 
L 36 -36 
M -30 42 
L 42 -30 
M -24 48 
L 48 -24 
M -18 54 
L 54 -18 
M -12 60 
L 60 -12 
M -6 66 
L 66 -6 
M 0 72 
L 72 0 
M 6 78 
L 78 6 
M 12 84 
L 84 12 
M 18 90 
L 90 18 
M 24 96 
L 96 24 
M 30 102 
L 102 30 
M 36 108 
L 108 36 
" style="fill: #000000; stroke: #000000; stroke-width: 1.0; stroke-linecap: butt; stroke-linejoin: miter"/>
  </pattern>
  <pattern id="h0cbbf531f2" patternUnits="userSpaceOnUse" x="0" y="0" width="72" height="72">
   <rect x="0" y="0" width="73" height="73" fill="#e377c2"/>
   <path d="M -36 36 
L 36 -36 
M -30 42 
L 42 -30 
M -24 48 
L 48 -24 
M -18 54 
L 54 -18 
M -12 60 
L 60 -12 
M -6 66 
L 66 -6 
M 0 72 
L 72 0 
M 6 78 
L 78 6 
M 12 84 
L 84 12 
M 18 90 
L 90 18 
M 24 96 
L 96 24 
M 30 102 
L 102 30 
M 36 108 
L 108 36 
" style="fill: #000000; stroke: #000000; stroke-width: 1.0; stroke-linecap: butt; stroke-linejoin: miter"/>
  </pattern>
  <pattern id="h92e77ffded" patternUnits="userSpaceOnUse" x="0" y="0" width="72" height="72">
   <rect x="0" y="0" width="73" height="73" fill="#17becf"/>
   <path d="M -36 36 
L 36 -36 
M -30 42 
L 42 -30 
M -24 48 
L 48 -24 
M -18 54 
L 54 -18 
M -12 60 
L 60 -12 
M -6 66 
L 66 -6 
M 0 72 
L 72 0 
M 6 78 
L 78 6 
M 12 84 
L 84 12 
M 18 90 
L 90 18 
M 24 96 
L 96 24 
M 30 102 
L 102 30 
M 36 108 
L 108 36 
" style="fill: #000000; stroke: #000000; stroke-width: 1.0; stroke-linecap: butt; stroke-linejoin: miter"/>
  </pattern>
  <pattern id="hf67ce71e7f" patternUnits="userSpaceOnUse" x="0" y="0" width="72" height="72">
   <rect x="0" y="0" width="73" height="73" fill="#d62728"/>
   <path d="M -36 36 
L 36 108 
M -30 30 
L 42 102 
M -24 24 
L 48 96 
M -18 18 
L 54 90 
M -12 12 
L 60 84 
M -6 6 
L 66 78 
M 0 0 
L 72 72 
M 6 -6 
L 78 66 
M 12 -12 
L 84 60 
M 18 -18 
L 90 54 
M 24 -24 
L 96 48 
M 30 -30 
L 102 42 
M 36 -36 
L 108 36 
" style="fill: #000000; stroke: #000000; stroke-width: 1.0; stroke-linecap: butt; stroke-linejoin: miter"/>
  </pattern>
  <pattern id="h2157851680" patternUnits="userSpaceOnUse" x="0" y="0" width="72" height="72">
   <rect x="0" y="0" width="73" height="73" fill="#9467bd"/>
   <path d="M -36 36 
L 36 -36 
M -30 42 
L 42 -30 
M -24 48 
L 48 -24 
M -18 54 
L 54 -18 
M -12 60 
L 60 -12 
M -6 66 
L 66 -6 
M 0 72 
L 72 0 
M 6 78 
L 78 6 
M 12 84 
L 84 12 
M 18 90 
L 90 18 
M 24 96 
L 96 24 
M 30 102 
L 102 30 
M 36 108 
L 108 36 
" style="fill: #000000; stroke: #000000; stroke-width: 1.0; stroke-linecap: butt; stroke-linejoin: miter"/>
  </pattern>
  <pattern id="he17210969d" patternUnits="userSpaceOnUse" x="0" y="0" width="72" height="72">
   <rect x="0" y="0" width="73" height="73" fill="#7f7f7f"/>
   <path d="M -36 36 
L 36 -36 
M -30 42 
L 42 -30 
M -24 48 
L 48 -24 
M -18 54 
L 54 -18 
M -12 60 
L 60 -12 
M -6 66 
L 66 -6 
M 0 72 
L 72 0 
M 6 78 
L 78 6 
M 12 84 
L 84 12 
M 18 90 
L 90 18 
M 24 96 
L 96 24 
M 30 102 
L 102 30 
M 36 108 
L 108 36 
" style="fill: #000000; stroke: #000000; stroke-width: 1.0; stroke-linecap: butt; stroke-linejoin: miter"/>
  </pattern>
  <pattern id="h30aca2ef55" patternUnits="userSpaceOnUse" x="0" y="0" width="72" height="72">
   <rect x="0" y="0" width="73" height="73" fill="#1f77b4"/>
   <path d="M -36 36 
L 36 108 
M -30 30 
L 42 102 
M -24 24 
L 48 96 
M -18 18 
L 54 90 
M -12 12 
L 60 84 
M -6 6 
L 66 78 
M 0 0 
L 72 72 
M 6 -6 
L 78 66 
M 12 -12 
L 84 60 
M 18 -18 
L 90 54 
M 24 -24 
L 96 48 
M 30 -30 
L 102 42 
M 36 -36 
L 108 36 
" style="fill: #000000; stroke: #000000; stroke-width: 1.0; stroke-linecap: butt; stroke-linejoin: miter"/>
  </pattern>
  <pattern id="h6adca8ad6a" patternUnits="userSpaceOnUse" x="0" y="0" width="72" height="72">
   <rect x="0" y="0" width="73" height="73" fill="#2ca02c"/>
   <path d="M -36 36 
L 36 108 
M -30 30 
L 42 102 
M -24 24 
L 48 96 
M -18 18 
L 54 90 
M -12 12 
L 60 84 
M -6 6 
L 66 78 
M 0 0 
L 72 72 
M 6 -6 
L 78 66 
M 12 -12 
L 84 60 
M 18 -18 
L 90 54 
M 24 -24 
L 96 48 
M 30 -30 
L 102 42 
M 36 -36 
L 108 36 
" style="fill: #000000; stroke: #000000; stroke-width: 1.0; stroke-linecap: butt; stroke-linejoin: miter"/>
  </pattern>
  <pattern id="hd21e322ae3" patternUnits="userSpaceOnUse" x="0" y="0" width="72" height="72">
   <rect x="0" y="0" width="73" height="73" fill="#bcbd22"/>
   <path d="M -36 36 
L 36 -36 
M -30 42 
L 42 -30 
M -24 48 
L 48 -24 
M -18 54 
L 54 -18 
M -12 60 
L 60 -12 
M -6 66 
L 66 -6 
M 0 72 
L 72 0 
M 6 78 
L 78 6 
M 12 84 
L 84 12 
M 18 90 
L 90 18 
M 24 96 
L 96 24 
M 30 102 
L 102 30 
M 36 108 
L 108 36 
" style="fill: #000000; stroke: #000000; stroke-width: 1.0; stroke-linecap: butt; stroke-linejoin: miter"/>
  </pattern>
  <pattern id="h5dc2b60740" patternUnits="userSpaceOnUse" x="0" y="0" width="72" height="72">
   <rect x="0" y="0" width="73" height="73" fill="#ff7f0e"/>
   <path d="M -36 36 
L 36 108 
M -30 30 
L 42 102 
M -24 24 
L 48 96 
M -18 18 
L 54 90 
M -12 12 
L 60 84 
M -6 6 
L 66 78 
M 0 0 
L 72 72 
M 6 -6 
L 78 66 
M 12 -12 
L 84 60 
M 18 -18 
L 90 54 
M 24 -24 
L 96 48 
M 30 -30 
L 102 42 
M 36 -36 
L 108 36 
" style="fill: #000000; stroke: #000000; stroke-width: 1.0; stroke-linecap: butt; stroke-linejoin: miter"/>
  </pattern>
 </defs>
</svg>
