<?xml version="1.0" encoding="utf-8" standalone="no"?>
<!DOCTYPE svg PUBLIC "-//W3C//DTD SVG 1.1//EN"
  "http://www.w3.org/Graphics/SVG/1.1/DTD/svg11.dtd">
<svg xmlns:xlink="http://www.w3.org/1999/xlink" width="360pt" height="216pt" viewBox="0 0 360 216" xmlns="http://www.w3.org/2000/svg" version="1.1">
 <metadata>
  <rdf:RDF xmlns:dc="http://purl.org/dc/elements/1.1/" xmlns:cc="http://creativecommons.org/ns#" xmlns:rdf="http://www.w3.org/1999/02/22-rdf-syntax-ns#">
   <cc:Work>
    <dc:type rdf:resource="http://purl.org/dc/dcmitype/StillImage"/>
    <dc:date>2024-11-04T16:27:59.672186</dc:date>
    <dc:format>image/svg+xml</dc:format>
    <dc:creator>
     <cc:Agent>
      <dc:title>Matplotlib v3.9.0, https://matplotlib.org/</dc:title>
     </cc:Agent>
    </dc:creator>
   </cc:Work>
  </rdf:RDF>
 </metadata>
 <defs>
  <style type="text/css">*{stroke-linejoin: round; stroke-linecap: butt}</style>
 </defs>
 <g id="figure_1">
  <g id="patch_1">
   <path d="M 0 216 
L 360 216 
L 360 0 
L 0 0 
z
" style="fill: #ffffff"/>
  </g>
  <g id="axes_1">
   <g id="patch_2">
    <path d="M 263.999808 108 
C 263.999808 92.747295 259.845424 77.778797 251.984425 64.707849 
C 244.123426 51.6369 232.848764 40.950608 219.37565 33.800769 
C 205.902536 26.650929 190.733065 23.30399 175.502242 24.120694 
C 160.271418 24.937398 145.546839 29.887309 132.915557 38.436913 
L 180 108 
z
" style="fill: #9467bd"/>
   </g>
   <g id="patch_3">
    <path d="M 132.915552 38.436918 
C 124.076284 44.419858 116.45785 52.033126 110.468906 60.868328 
C 104.479963 69.70353 100.229548 79.599811 97.945661 90.02632 
L 180 108 
z
" style="fill: #e377c2"/>
   </g>
   <g id="patch_4">
    <path d="M 97.945661 90.02632 
C 95.987595 98.965399 95.503359 108.164685 96.51215 117.259932 
C 97.520936 126.355179 100.00924 135.22475 103.878549 143.517495 
L 180 108 
z
" style="fill: #7f7f7f"/>
   </g>
   <g id="patch_5">
    <path d="M 103.878549 143.517495 
C 106.869037 149.92674 110.657056 155.932716 115.152598 161.392714 
C 119.648139 166.852711 124.815305 171.723135 130.531334 175.888279 
L 180 108 
z
" style="fill: #d62728"/>
   </g>
   <g id="patch_6">
    <path d="M 130.531334 175.888279 
C 134.507042 178.785287 138.729559 181.327469 143.150176 183.485485 
C 147.570794 185.643502 152.172447 187.409033 156.902053 188.761704 
L 180 108 
z
" style="fill: #bcbd22"/>
   </g>
   <g id="patch_7">
    <path d="M 156.902053 188.761704 
C 160.414256 189.766199 163.98825 190.540517 167.601262 191.079717 
C 171.214274 191.618917 174.858612 191.921857 178.511063 191.98661 
L 180 108 
z
" style="fill: #dddddd"/>
   </g>
   <g id="patch_8">
    <path d="M 178.511063 191.98661 
C 182.008216 192.048604 185.505811 191.892122 188.983454 191.518056 
C 192.461096 191.143989 195.912003 190.553069 199.315975 189.748765 
L 180 108 
z
" style="fill: url(#he0a5f33a94)"/>
   </g>
   <g id="patch_9">
    <path d="M 199.315975 189.748765 
C 202.688528 188.951881 206.008538 187.947061 209.256969 186.740062 
C 212.505399 185.533063 215.676025 184.126198 218.750667 182.527533 
L 180 108 
z
" style="fill: url(#h800d6d8d80)"/>
   </g>
   <g id="patch_10">
    <path d="M 218.750667 182.527533 
C 221.65333 181.01829 224.465342 179.340764 227.172332 177.503516 
C 229.879322 175.666269 232.476669 173.672444 234.951094 171.532237 
L 180 108 
z
" style="fill: url(#h80d8ad487f)"/>
   </g>
   <g id="patch_11">
    <path d="M 234.951094 171.532237 
C 237.162833 169.619232 239.273165 167.592037 241.273479 165.458929 
C 243.273792 163.325821 245.161352 161.089719 246.928445 158.759744 
L 180 108 
z
" style="fill: #ff7f0e"/>
   </g>
   <g id="patch_12">
    <path d="M 246.928445 158.759744 
C 248.223303 157.052432 249.452347 155.296215 250.612898 153.494911 
C 251.77345 151.693607 252.864667 149.848539 253.884122 147.96379 
L 180 108 
z
" style="fill: #2ca02c"/>
   </g>
   <g id="patch_13">
    <path d="M 253.884122 147.96379 
C 254.551035 146.730815 255.186981 145.481341 255.79136 144.216539 
C 256.395738 142.951736 256.968363 141.672004 257.508695 140.378543 
L 180 108 
z
" style="fill: url(#hda5a00b5a1)"/>
   </g>
   <g id="patch_14">
    <path d="M 257.508695 140.378543 
C 258.005652 139.188909 258.475148 137.988011 258.916826 136.776764 
C 259.358504 135.565516 259.772244 134.344243 260.157701 133.113949 
L 180 108 
z
" style="fill: url(#h330ad2f6b3)"/>
   </g>
   <g id="patch_15">
    <path d="M 260.157701 133.113949 
C 260.451804 132.175246 260.7294 131.231431 260.990348 130.282977 
C 261.251297 129.334522 261.495562 128.381576 261.723035 127.424542 
L 180 108 
z
" style="fill: url(#h4047a844e0)"/>
   </g>
   <g id="patch_16">
    <path d="M 261.723035 127.424542 
C 261.924323 126.577685 262.112438 125.727752 262.287304 124.875049 
C 262.462171 124.022345 262.623775 123.166975 262.772056 122.309248 
L 180 108 
z
" style="fill: #8c564b"/>
   </g>
   <g id="patch_17">
    <path d="M 262.772056 122.309248 
C 262.906187 121.533358 263.029404 120.75562 263.141666 119.976265 
C 263.253928 119.19691 263.35523 118.416015 263.445538 117.633812 
L 180 108 
z
" style="fill: url(#hab199b6874)"/>
   </g>
   <g id="patch_18">
    <path d="M 263.445538 117.633812 
C 263.518637 117.000641 263.584526 116.366659 263.643195 115.731988 
C 263.701865 115.097318 263.753304 114.462 263.797514 113.826159 
L 180 108 
z
" style="fill: url(#hda9669e624)"/>
   </g>
   <g id="patch_19">
    <path d="M 263.797514 113.826159 
C 263.825202 113.427898 263.850055 113.029444 263.872065 112.630829 
C 263.894075 112.232214 263.913241 111.833447 263.929563 111.434559 
L 180 108 
z
" style="fill: url(#hb6716b8516)"/>
   </g>
   <g id="patch_20">
    <path d="M 263.929563 111.434559 
C 263.944398 111.072076 263.956885 110.709502 263.967019 110.346858 
C 263.977152 109.984214 263.984938 109.621508 263.990375 109.258763 
L 180 108 
z
" style="fill: url(#h4000f7174c)"/>
   </g>
   <g id="patch_21">
    <path d="M 263.990375 109.258763 
C 263.991907 109.156702 263.993249 109.05464 263.994406 108.952575 
C 263.995562 108.85051 263.996534 108.748443 263.99732 108.646374 
L 180 108 
z
" style="fill: url(#h4ab3a28017)"/>
   </g>
   <g id="patch_22">
    <path d="M 263.99732 108.646374 
C 263.99777 108.58763 263.998161 108.528885 263.998491 108.470139 
C 263.998822 108.411394 263.999087 108.352648 263.999292 108.293903 
L 180 108 
z
" style="fill: url(#hd59dfa3dcd)"/>
   </g>
   <g id="patch_23">
    <path d="M 263.999292 108.293903 
C 263.999463 108.244917 263.999593 108.19593 263.999678 108.146944 
C 263.999763 108.097958 263.999808 108.048972 263.999808 107.999985 
L 180 108 
z
" style="fill: url(#h81dbca0033)"/>
   </g>
   <g id="patch_24">
    <path d="M 263.999808 107.999985 
C 263.999808 107.999985 263.999808 107.999985 263.999808 107.999985 
L 180 108 
z
" style="fill: #dddddd"/>
   </g>
   <g id="matplotlib.axis_1"/>
   <g id="matplotlib.axis_2"/>
   <g id="text_1">
    <!-- interpreter 34.47% -->
    <g transform="translate(223.313211 28.036468) scale(0.06 -0.06)">
     <defs>
      <path id="DejaVuSans-69" d="M 603 3500 
L 1178 3500 
L 1178 0 
L 603 0 
L 603 3500 
z
M 603 4863 
L 1178 4863 
L 1178 4134 
L 603 4134 
L 603 4863 
z
" transform="scale(0.015625)"/>
      <path id="DejaVuSans-6e" d="M 3513 2113 
L 3513 0 
L 2938 0 
L 2938 2094 
Q 2938 2591 2744 2837 
Q 2550 3084 2163 3084 
Q 1697 3084 1428 2787 
Q 1159 2491 1159 1978 
L 1159 0 
L 581 0 
L 581 3500 
L 1159 3500 
L 1159 2956 
Q 1366 3272 1645 3428 
Q 1925 3584 2291 3584 
Q 2894 3584 3203 3211 
Q 3513 2838 3513 2113 
z
" transform="scale(0.015625)"/>
      <path id="DejaVuSans-74" d="M 1172 4494 
L 1172 3500 
L 2356 3500 
L 2356 3053 
L 1172 3053 
L 1172 1153 
Q 1172 725 1289 603 
Q 1406 481 1766 481 
L 2356 481 
L 2356 0 
L 1766 0 
Q 1100 0 847 248 
Q 594 497 594 1153 
L 594 3053 
L 172 3053 
L 172 3500 
L 594 3500 
L 594 4494 
L 1172 4494 
z
" transform="scale(0.015625)"/>
      <path id="DejaVuSans-65" d="M 3597 1894 
L 3597 1613 
L 953 1613 
Q 991 1019 1311 708 
Q 1631 397 2203 397 
Q 2534 397 2845 478 
Q 3156 559 3463 722 
L 3463 178 
Q 3153 47 2828 -22 
Q 2503 -91 2169 -91 
Q 1331 -91 842 396 
Q 353 884 353 1716 
Q 353 2575 817 3079 
Q 1281 3584 2069 3584 
Q 2775 3584 3186 3129 
Q 3597 2675 3597 1894 
z
M 3022 2063 
Q 3016 2534 2758 2815 
Q 2500 3097 2075 3097 
Q 1594 3097 1305 2825 
Q 1016 2553 972 2059 
L 3022 2063 
z
" transform="scale(0.015625)"/>
      <path id="DejaVuSans-72" d="M 2631 2963 
Q 2534 3019 2420 3045 
Q 2306 3072 2169 3072 
Q 1681 3072 1420 2755 
Q 1159 2438 1159 1844 
L 1159 0 
L 581 0 
L 581 3500 
L 1159 3500 
L 1159 2956 
Q 1341 3275 1631 3429 
Q 1922 3584 2338 3584 
Q 2397 3584 2469 3576 
Q 2541 3569 2628 3553 
L 2631 2963 
z
" transform="scale(0.015625)"/>
      <path id="DejaVuSans-70" d="M 1159 525 
L 1159 -1331 
L 581 -1331 
L 581 3500 
L 1159 3500 
L 1159 2969 
Q 1341 3281 1617 3432 
Q 1894 3584 2278 3584 
Q 2916 3584 3314 3078 
Q 3713 2572 3713 1747 
Q 3713 922 3314 415 
Q 2916 -91 2278 -91 
Q 1894 -91 1617 61 
Q 1341 213 1159 525 
z
M 3116 1747 
Q 3116 2381 2855 2742 
Q 2594 3103 2138 3103 
Q 1681 3103 1420 2742 
Q 1159 2381 1159 1747 
Q 1159 1113 1420 752 
Q 1681 391 2138 391 
Q 2594 391 2855 752 
Q 3116 1113 3116 1747 
z
" transform="scale(0.015625)"/>
      <path id="DejaVuSans-20" transform="scale(0.015625)"/>
      <path id="DejaVuSans-33" d="M 2597 2516 
Q 3050 2419 3304 2112 
Q 3559 1806 3559 1356 
Q 3559 666 3084 287 
Q 2609 -91 1734 -91 
Q 1441 -91 1130 -33 
Q 819 25 488 141 
L 488 750 
Q 750 597 1062 519 
Q 1375 441 1716 441 
Q 2309 441 2620 675 
Q 2931 909 2931 1356 
Q 2931 1769 2642 2001 
Q 2353 2234 1838 2234 
L 1294 2234 
L 1294 2753 
L 1863 2753 
Q 2328 2753 2575 2939 
Q 2822 3125 2822 3475 
Q 2822 3834 2567 4026 
Q 2313 4219 1838 4219 
Q 1578 4219 1281 4162 
Q 984 4106 628 3988 
L 628 4550 
Q 988 4650 1302 4700 
Q 1616 4750 1894 4750 
Q 2613 4750 3031 4423 
Q 3450 4097 3450 3541 
Q 3450 3153 3228 2886 
Q 3006 2619 2597 2516 
z
" transform="scale(0.015625)"/>
      <path id="DejaVuSans-34" d="M 2419 4116 
L 825 1625 
L 2419 1625 
L 2419 4116 
z
M 2253 4666 
L 3047 4666 
L 3047 1625 
L 3713 1625 
L 3713 1100 
L 3047 1100 
L 3047 0 
L 2419 0 
L 2419 1100 
L 313 1100 
L 313 1709 
L 2253 4666 
z
" transform="scale(0.015625)"/>
      <path id="DejaVuSans-2e" d="M 684 794 
L 1344 794 
L 1344 0 
L 684 0 
L 684 794 
z
" transform="scale(0.015625)"/>
      <path id="DejaVuSans-37" d="M 525 4666 
L 3525 4666 
L 3525 4397 
L 1831 0 
L 1172 0 
L 2766 4134 
L 525 4134 
L 525 4666 
z
" transform="scale(0.015625)"/>
      <path id="DejaVuSans-25" d="M 4653 2053 
Q 4381 2053 4226 1822 
Q 4072 1591 4072 1178 
Q 4072 772 4226 539 
Q 4381 306 4653 306 
Q 4919 306 5073 539 
Q 5228 772 5228 1178 
Q 5228 1588 5073 1820 
Q 4919 2053 4653 2053 
z
M 4653 2450 
Q 5147 2450 5437 2106 
Q 5728 1763 5728 1178 
Q 5728 594 5436 251 
Q 5144 -91 4653 -91 
Q 4153 -91 3862 251 
Q 3572 594 3572 1178 
Q 3572 1766 3864 2108 
Q 4156 2450 4653 2450 
z
M 1428 4353 
Q 1159 4353 1004 4120 
Q 850 3888 850 3481 
Q 850 3069 1003 2837 
Q 1156 2606 1428 2606 
Q 1700 2606 1854 2837 
Q 2009 3069 2009 3481 
Q 2009 3884 1853 4118 
Q 1697 4353 1428 4353 
z
M 4250 4750 
L 4750 4750 
L 1831 -91 
L 1331 -91 
L 4250 4750 
z
M 1428 4750 
Q 1922 4750 2215 4408 
Q 2509 4066 2509 3481 
Q 2509 2891 2217 2550 
Q 1925 2209 1428 2209 
Q 931 2209 642 2551 
Q 353 2894 353 3481 
Q 353 4063 643 4406 
Q 934 4750 1428 4750 
z
" transform="scale(0.015625)"/>
     </defs>
     <use xlink:href="#DejaVuSans-69"/>
     <use xlink:href="#DejaVuSans-6e" x="27.783203"/>
     <use xlink:href="#DejaVuSans-74" x="91.162109"/>
     <use xlink:href="#DejaVuSans-65" x="130.371094"/>
     <use xlink:href="#DejaVuSans-72" x="191.894531"/>
     <use xlink:href="#DejaVuSans-70" x="233.007812"/>
     <use xlink:href="#DejaVuSans-72" x="296.484375"/>
     <use xlink:href="#DejaVuSans-65" x="335.347656"/>
     <use xlink:href="#DejaVuSans-74" x="396.871094"/>
     <use xlink:href="#DejaVuSans-65" x="436.080078"/>
     <use xlink:href="#DejaVuSans-72" x="497.603516"/>
     <use xlink:href="#DejaVuSans-20" x="538.716797"/>
     <use xlink:href="#DejaVuSans-33" x="570.503906"/>
     <use xlink:href="#DejaVuSans-34" x="634.126953"/>
     <use xlink:href="#DejaVuSans-2e" x="697.75"/>
     <use xlink:href="#DejaVuSans-34" x="729.537109"/>
     <use xlink:href="#DejaVuSans-37" x="793.160156"/>
     <use xlink:href="#DejaVuSans-25" x="856.783203"/>
    </g>
   </g>
   <g id="text_2">
    <!-- gc 12.10% -->
    <g transform="translate(71.62297 57.810804) scale(0.06 -0.06)">
     <defs>
      <path id="DejaVuSans-67" d="M 2906 1791 
Q 2906 2416 2648 2759 
Q 2391 3103 1925 3103 
Q 1463 3103 1205 2759 
Q 947 2416 947 1791 
Q 947 1169 1205 825 
Q 1463 481 1925 481 
Q 2391 481 2648 825 
Q 2906 1169 2906 1791 
z
M 3481 434 
Q 3481 -459 3084 -895 
Q 2688 -1331 1869 -1331 
Q 1566 -1331 1297 -1286 
Q 1028 -1241 775 -1147 
L 775 -588 
Q 1028 -725 1275 -790 
Q 1522 -856 1778 -856 
Q 2344 -856 2625 -561 
Q 2906 -266 2906 331 
L 2906 616 
Q 2728 306 2450 153 
Q 2172 0 1784 0 
Q 1141 0 747 490 
Q 353 981 353 1791 
Q 353 2603 747 3093 
Q 1141 3584 1784 3584 
Q 2172 3584 2450 3431 
Q 2728 3278 2906 2969 
L 2906 3500 
L 3481 3500 
L 3481 434 
z
" transform="scale(0.015625)"/>
      <path id="DejaVuSans-63" d="M 3122 3366 
L 3122 2828 
Q 2878 2963 2633 3030 
Q 2388 3097 2138 3097 
Q 1578 3097 1268 2742 
Q 959 2388 959 1747 
Q 959 1106 1268 751 
Q 1578 397 2138 397 
Q 2388 397 2633 464 
Q 2878 531 3122 666 
L 3122 134 
Q 2881 22 2623 -34 
Q 2366 -91 2075 -91 
Q 1284 -91 818 406 
Q 353 903 353 1747 
Q 353 2603 823 3093 
Q 1294 3584 2113 3584 
Q 2378 3584 2631 3529 
Q 2884 3475 3122 3366 
z
" transform="scale(0.015625)"/>
      <path id="DejaVuSans-31" d="M 794 531 
L 1825 531 
L 1825 4091 
L 703 3866 
L 703 4441 
L 1819 4666 
L 2450 4666 
L 2450 531 
L 3481 531 
L 3481 0 
L 794 0 
L 794 531 
z
" transform="scale(0.015625)"/>
      <path id="DejaVuSans-32" d="M 1228 531 
L 3431 531 
L 3431 0 
L 469 0 
L 469 531 
Q 828 903 1448 1529 
Q 2069 2156 2228 2338 
Q 2531 2678 2651 2914 
Q 2772 3150 2772 3378 
Q 2772 3750 2511 3984 
Q 2250 4219 1831 4219 
Q 1534 4219 1204 4116 
Q 875 4013 500 3803 
L 500 4441 
Q 881 4594 1212 4672 
Q 1544 4750 1819 4750 
Q 2544 4750 2975 4387 
Q 3406 4025 3406 3419 
Q 3406 3131 3298 2873 
Q 3191 2616 2906 2266 
Q 2828 2175 2409 1742 
Q 1991 1309 1228 531 
z
" transform="scale(0.015625)"/>
      <path id="DejaVuSans-30" d="M 2034 4250 
Q 1547 4250 1301 3770 
Q 1056 3291 1056 2328 
Q 1056 1369 1301 889 
Q 1547 409 2034 409 
Q 2525 409 2770 889 
Q 3016 1369 3016 2328 
Q 3016 3291 2770 3770 
Q 2525 4250 2034 4250 
z
M 2034 4750 
Q 2819 4750 3233 4129 
Q 3647 3509 3647 2328 
Q 3647 1150 3233 529 
Q 2819 -91 2034 -91 
Q 1250 -91 836 529 
Q 422 1150 422 2328 
Q 422 3509 836 4129 
Q 1250 4750 2034 4750 
z
" transform="scale(0.015625)"/>
     </defs>
     <use xlink:href="#DejaVuSans-67"/>
     <use xlink:href="#DejaVuSans-63" x="63.476562"/>
     <use xlink:href="#DejaVuSans-20" x="118.457031"/>
     <use xlink:href="#DejaVuSans-31" x="150.244141"/>
     <use xlink:href="#DejaVuSans-32" x="213.867188"/>
     <use xlink:href="#DejaVuSans-2e" x="277.490234"/>
     <use xlink:href="#DejaVuSans-31" x="309.277344"/>
     <use xlink:href="#DejaVuSans-30" x="372.900391"/>
     <use xlink:href="#DejaVuSans-25" x="436.523438"/>
    </g>
   </g>
   <g id="text_3">
    <!-- memory 10.38% -->
    <g transform="translate(38.308988 119.84155) scale(0.06 -0.06)">
     <defs>
      <path id="DejaVuSans-6d" d="M 3328 2828 
Q 3544 3216 3844 3400 
Q 4144 3584 4550 3584 
Q 5097 3584 5394 3201 
Q 5691 2819 5691 2113 
L 5691 0 
L 5113 0 
L 5113 2094 
Q 5113 2597 4934 2840 
Q 4756 3084 4391 3084 
Q 3944 3084 3684 2787 
Q 3425 2491 3425 1978 
L 3425 0 
L 2847 0 
L 2847 2094 
Q 2847 2600 2669 2842 
Q 2491 3084 2119 3084 
Q 1678 3084 1418 2786 
Q 1159 2488 1159 1978 
L 1159 0 
L 581 0 
L 581 3500 
L 1159 3500 
L 1159 2956 
Q 1356 3278 1631 3431 
Q 1906 3584 2284 3584 
Q 2666 3584 2933 3390 
Q 3200 3197 3328 2828 
z
" transform="scale(0.015625)"/>
      <path id="DejaVuSans-6f" d="M 1959 3097 
Q 1497 3097 1228 2736 
Q 959 2375 959 1747 
Q 959 1119 1226 758 
Q 1494 397 1959 397 
Q 2419 397 2687 759 
Q 2956 1122 2956 1747 
Q 2956 2369 2687 2733 
Q 2419 3097 1959 3097 
z
M 1959 3584 
Q 2709 3584 3137 3096 
Q 3566 2609 3566 1747 
Q 3566 888 3137 398 
Q 2709 -91 1959 -91 
Q 1206 -91 779 398 
Q 353 888 353 1747 
Q 353 2609 779 3096 
Q 1206 3584 1959 3584 
z
" transform="scale(0.015625)"/>
      <path id="DejaVuSans-79" d="M 2059 -325 
Q 1816 -950 1584 -1140 
Q 1353 -1331 966 -1331 
L 506 -1331 
L 506 -850 
L 844 -850 
Q 1081 -850 1212 -737 
Q 1344 -625 1503 -206 
L 1606 56 
L 191 3500 
L 800 3500 
L 1894 763 
L 2988 3500 
L 3597 3500 
L 2059 -325 
z
" transform="scale(0.015625)"/>
      <path id="DejaVuSans-38" d="M 2034 2216 
Q 1584 2216 1326 1975 
Q 1069 1734 1069 1313 
Q 1069 891 1326 650 
Q 1584 409 2034 409 
Q 2484 409 2743 651 
Q 3003 894 3003 1313 
Q 3003 1734 2745 1975 
Q 2488 2216 2034 2216 
z
M 1403 2484 
Q 997 2584 770 2862 
Q 544 3141 544 3541 
Q 544 4100 942 4425 
Q 1341 4750 2034 4750 
Q 2731 4750 3128 4425 
Q 3525 4100 3525 3541 
Q 3525 3141 3298 2862 
Q 3072 2584 2669 2484 
Q 3125 2378 3379 2068 
Q 3634 1759 3634 1313 
Q 3634 634 3220 271 
Q 2806 -91 2034 -91 
Q 1263 -91 848 271 
Q 434 634 434 1313 
Q 434 1759 690 2068 
Q 947 2378 1403 2484 
z
M 1172 3481 
Q 1172 3119 1398 2916 
Q 1625 2713 2034 2713 
Q 2441 2713 2670 2916 
Q 2900 3119 2900 3481 
Q 2900 3844 2670 4047 
Q 2441 4250 2034 4250 
Q 1625 4250 1398 4047 
Q 1172 3844 1172 3481 
z
" transform="scale(0.015625)"/>
     </defs>
     <use xlink:href="#DejaVuSans-6d"/>
     <use xlink:href="#DejaVuSans-65" x="97.412109"/>
     <use xlink:href="#DejaVuSans-6d" x="158.935547"/>
     <use xlink:href="#DejaVuSans-6f" x="256.347656"/>
     <use xlink:href="#DejaVuSans-72" x="317.529297"/>
     <use xlink:href="#DejaVuSans-79" x="358.642578"/>
     <use xlink:href="#DejaVuSans-20" x="417.822266"/>
     <use xlink:href="#DejaVuSans-31" x="449.609375"/>
     <use xlink:href="#DejaVuSans-30" x="513.232422"/>
     <use xlink:href="#DejaVuSans-2e" x="576.855469"/>
     <use xlink:href="#DejaVuSans-33" x="608.642578"/>
     <use xlink:href="#DejaVuSans-38" x="672.265625"/>
     <use xlink:href="#DejaVuSans-25" x="735.888672"/>
    </g>
   </g>
   <g id="text_4">
    <!-- library 8.03% -->
    <g transform="translate(68.396608 168.387614) scale(0.06 -0.06)">
     <defs>
      <path id="DejaVuSans-6c" d="M 603 4863 
L 1178 4863 
L 1178 0 
L 603 0 
L 603 4863 
z
" transform="scale(0.015625)"/>
      <path id="DejaVuSans-62" d="M 3116 1747 
Q 3116 2381 2855 2742 
Q 2594 3103 2138 3103 
Q 1681 3103 1420 2742 
Q 1159 2381 1159 1747 
Q 1159 1113 1420 752 
Q 1681 391 2138 391 
Q 2594 391 2855 752 
Q 3116 1113 3116 1747 
z
M 1159 2969 
Q 1341 3281 1617 3432 
Q 1894 3584 2278 3584 
Q 2916 3584 3314 3078 
Q 3713 2572 3713 1747 
Q 3713 922 3314 415 
Q 2916 -91 2278 -91 
Q 1894 -91 1617 61 
Q 1341 213 1159 525 
L 1159 0 
L 581 0 
L 581 4863 
L 1159 4863 
L 1159 2969 
z
" transform="scale(0.015625)"/>
      <path id="DejaVuSans-61" d="M 2194 1759 
Q 1497 1759 1228 1600 
Q 959 1441 959 1056 
Q 959 750 1161 570 
Q 1363 391 1709 391 
Q 2188 391 2477 730 
Q 2766 1069 2766 1631 
L 2766 1759 
L 2194 1759 
z
M 3341 1997 
L 3341 0 
L 2766 0 
L 2766 531 
Q 2569 213 2275 61 
Q 1981 -91 1556 -91 
Q 1019 -91 701 211 
Q 384 513 384 1019 
Q 384 1609 779 1909 
Q 1175 2209 1959 2209 
L 2766 2209 
L 2766 2266 
Q 2766 2663 2505 2880 
Q 2244 3097 1772 3097 
Q 1472 3097 1187 3025 
Q 903 2953 641 2809 
L 641 3341 
Q 956 3463 1253 3523 
Q 1550 3584 1831 3584 
Q 2591 3584 2966 3190 
Q 3341 2797 3341 1997 
z
" transform="scale(0.015625)"/>
     </defs>
     <use xlink:href="#DejaVuSans-6c"/>
     <use xlink:href="#DejaVuSans-69" x="27.783203"/>
     <use xlink:href="#DejaVuSans-62" x="55.566406"/>
     <use xlink:href="#DejaVuSans-72" x="119.042969"/>
     <use xlink:href="#DejaVuSans-61" x="160.15625"/>
     <use xlink:href="#DejaVuSans-72" x="221.435547"/>
     <use xlink:href="#DejaVuSans-79" x="262.548828"/>
     <use xlink:href="#DejaVuSans-20" x="321.728516"/>
     <use xlink:href="#DejaVuSans-38" x="353.515625"/>
     <use xlink:href="#DejaVuSans-2e" x="417.138672"/>
     <use xlink:href="#DejaVuSans-30" x="448.925781"/>
     <use xlink:href="#DejaVuSans-33" x="512.548828"/>
     <use xlink:href="#DejaVuSans-25" x="576.171875"/>
    </g>
   </g>
   <g id="text_5">
    <!-- dynamic 5.59% -->
    <g transform="translate(92.848007 192.689657) scale(0.06 -0.06)">
     <defs>
      <path id="DejaVuSans-64" d="M 2906 2969 
L 2906 4863 
L 3481 4863 
L 3481 0 
L 2906 0 
L 2906 525 
Q 2725 213 2448 61 
Q 2172 -91 1784 -91 
Q 1150 -91 751 415 
Q 353 922 353 1747 
Q 353 2572 751 3078 
Q 1150 3584 1784 3584 
Q 2172 3584 2448 3432 
Q 2725 3281 2906 2969 
z
M 947 1747 
Q 947 1113 1208 752 
Q 1469 391 1925 391 
Q 2381 391 2643 752 
Q 2906 1113 2906 1747 
Q 2906 2381 2643 2742 
Q 2381 3103 1925 3103 
Q 1469 3103 1208 2742 
Q 947 2381 947 1747 
z
" transform="scale(0.015625)"/>
      <path id="DejaVuSans-35" d="M 691 4666 
L 3169 4666 
L 3169 4134 
L 1269 4134 
L 1269 2991 
Q 1406 3038 1543 3061 
Q 1681 3084 1819 3084 
Q 2600 3084 3056 2656 
Q 3513 2228 3513 1497 
Q 3513 744 3044 326 
Q 2575 -91 1722 -91 
Q 1428 -91 1123 -41 
Q 819 9 494 109 
L 494 744 
Q 775 591 1075 516 
Q 1375 441 1709 441 
Q 2250 441 2565 725 
Q 2881 1009 2881 1497 
Q 2881 1984 2565 2268 
Q 2250 2553 1709 2553 
Q 1456 2553 1204 2497 
Q 953 2441 691 2322 
L 691 4666 
z
" transform="scale(0.015625)"/>
      <path id="DejaVuSans-39" d="M 703 97 
L 703 672 
Q 941 559 1184 500 
Q 1428 441 1663 441 
Q 2288 441 2617 861 
Q 2947 1281 2994 2138 
Q 2813 1869 2534 1725 
Q 2256 1581 1919 1581 
Q 1219 1581 811 2004 
Q 403 2428 403 3163 
Q 403 3881 828 4315 
Q 1253 4750 1959 4750 
Q 2769 4750 3195 4129 
Q 3622 3509 3622 2328 
Q 3622 1225 3098 567 
Q 2575 -91 1691 -91 
Q 1453 -91 1209 -44 
Q 966 3 703 97 
z
M 1959 2075 
Q 2384 2075 2632 2365 
Q 2881 2656 2881 3163 
Q 2881 3666 2632 3958 
Q 2384 4250 1959 4250 
Q 1534 4250 1286 3958 
Q 1038 3666 1038 3163 
Q 1038 2656 1286 2365 
Q 1534 2075 1959 2075 
z
" transform="scale(0.015625)"/>
     </defs>
     <use xlink:href="#DejaVuSans-64"/>
     <use xlink:href="#DejaVuSans-79" x="63.476562"/>
     <use xlink:href="#DejaVuSans-6e" x="122.65625"/>
     <use xlink:href="#DejaVuSans-61" x="186.035156"/>
     <use xlink:href="#DejaVuSans-6d" x="247.314453"/>
     <use xlink:href="#DejaVuSans-69" x="344.726562"/>
     <use xlink:href="#DejaVuSans-63" x="372.509766"/>
     <use xlink:href="#DejaVuSans-20" x="427.490234"/>
     <use xlink:href="#DejaVuSans-35" x="459.277344"/>
     <use xlink:href="#DejaVuSans-2e" x="522.900391"/>
     <use xlink:href="#DejaVuSans-35" x="554.6875"/>
     <use xlink:href="#DejaVuSans-39" x="618.310547"/>
     <use xlink:href="#DejaVuSans-25" x="681.933594"/>
    </g>
   </g>
   <g id="text_6">
    <!-- unknown 4.15% -->
    <g transform="translate(118.131701 201.043311) scale(0.06 -0.06)">
     <defs>
      <path id="DejaVuSans-75" d="M 544 1381 
L 544 3500 
L 1119 3500 
L 1119 1403 
Q 1119 906 1312 657 
Q 1506 409 1894 409 
Q 2359 409 2629 706 
Q 2900 1003 2900 1516 
L 2900 3500 
L 3475 3500 
L 3475 0 
L 2900 0 
L 2900 538 
Q 2691 219 2414 64 
Q 2138 -91 1772 -91 
Q 1169 -91 856 284 
Q 544 659 544 1381 
z
M 1991 3584 
L 1991 3584 
z
" transform="scale(0.015625)"/>
      <path id="DejaVuSans-6b" d="M 581 4863 
L 1159 4863 
L 1159 1991 
L 2875 3500 
L 3609 3500 
L 1753 1863 
L 3688 0 
L 2938 0 
L 1159 1709 
L 1159 0 
L 581 0 
L 581 4863 
z
" transform="scale(0.015625)"/>
      <path id="DejaVuSans-77" d="M 269 3500 
L 844 3500 
L 1563 769 
L 2278 3500 
L 2956 3500 
L 3675 769 
L 4391 3500 
L 4966 3500 
L 4050 0 
L 3372 0 
L 2619 2869 
L 1863 0 
L 1184 0 
L 269 3500 
z
" transform="scale(0.015625)"/>
     </defs>
     <use xlink:href="#DejaVuSans-75"/>
     <use xlink:href="#DejaVuSans-6e" x="63.378906"/>
     <use xlink:href="#DejaVuSans-6b" x="126.757812"/>
     <use xlink:href="#DejaVuSans-6e" x="184.667969"/>
     <use xlink:href="#DejaVuSans-6f" x="248.046875"/>
     <use xlink:href="#DejaVuSans-77" x="309.228516"/>
     <use xlink:href="#DejaVuSans-6e" x="391.015625"/>
     <use xlink:href="#DejaVuSans-20" x="454.394531"/>
     <use xlink:href="#DejaVuSans-34" x="486.181641"/>
     <use xlink:href="#DejaVuSans-2e" x="549.804688"/>
     <use xlink:href="#DejaVuSans-31" x="581.591797"/>
     <use xlink:href="#DejaVuSans-35" x="645.214844"/>
     <use xlink:href="#DejaVuSans-25" x="708.837891"/>
    </g>
   </g>
   <g id="text_7">
    <!-- int 3.97% -->
    <g transform="translate(189.881843 201.525479) scale(0.06 -0.06)">
     <use xlink:href="#DejaVuSans-69"/>
     <use xlink:href="#DejaVuSans-6e" x="27.783203"/>
     <use xlink:href="#DejaVuSans-74" x="91.162109"/>
     <use xlink:href="#DejaVuSans-20" x="130.371094"/>
     <use xlink:href="#DejaVuSans-33" x="162.158203"/>
     <use xlink:href="#DejaVuSans-2e" x="225.78125"/>
     <use xlink:href="#DejaVuSans-39" x="257.568359"/>
     <use xlink:href="#DejaVuSans-37" x="321.191406"/>
     <use xlink:href="#DejaVuSans-25" x="384.814453"/>
    </g>
   </g>
   <g id="text_8">
    <!-- dict 3.94% -->
    <g transform="translate(212.182667 196.269694) scale(0.06 -0.06)">
     <use xlink:href="#DejaVuSans-64"/>
     <use xlink:href="#DejaVuSans-69" x="63.476562"/>
     <use xlink:href="#DejaVuSans-63" x="91.259766"/>
     <use xlink:href="#DejaVuSans-74" x="146.240234"/>
     <use xlink:href="#DejaVuSans-20" x="185.449219"/>
     <use xlink:href="#DejaVuSans-33" x="217.236328"/>
     <use xlink:href="#DejaVuSans-2e" x="280.859375"/>
     <use xlink:href="#DejaVuSans-39" x="312.646484"/>
     <use xlink:href="#DejaVuSans-34" x="376.269531"/>
     <use xlink:href="#DejaVuSans-25" x="439.892578"/>
    </g>
   </g>
   <g id="text_9">
    <!-- str 3.72% -->
    <g transform="translate(231.889569 186.109491) scale(0.06 -0.06)">
     <defs>
      <path id="DejaVuSans-73" d="M 2834 3397 
L 2834 2853 
Q 2591 2978 2328 3040 
Q 2066 3103 1784 3103 
Q 1356 3103 1142 2972 
Q 928 2841 928 2578 
Q 928 2378 1081 2264 
Q 1234 2150 1697 2047 
L 1894 2003 
Q 2506 1872 2764 1633 
Q 3022 1394 3022 966 
Q 3022 478 2636 193 
Q 2250 -91 1575 -91 
Q 1294 -91 989 -36 
Q 684 19 347 128 
L 347 722 
Q 666 556 975 473 
Q 1284 391 1588 391 
Q 1994 391 2212 530 
Q 2431 669 2431 922 
Q 2431 1156 2273 1281 
Q 2116 1406 1581 1522 
L 1381 1569 
Q 847 1681 609 1914 
Q 372 2147 372 2553 
Q 372 3047 722 3315 
Q 1072 3584 1716 3584 
Q 2034 3584 2315 3537 
Q 2597 3491 2834 3397 
z
" transform="scale(0.015625)"/>
     </defs>
     <use xlink:href="#DejaVuSans-73"/>
     <use xlink:href="#DejaVuSans-74" x="52.099609"/>
     <use xlink:href="#DejaVuSans-72" x="91.308594"/>
     <use xlink:href="#DejaVuSans-20" x="132.421875"/>
     <use xlink:href="#DejaVuSans-33" x="164.208984"/>
     <use xlink:href="#DejaVuSans-2e" x="227.832031"/>
     <use xlink:href="#DejaVuSans-37" x="259.619141"/>
     <use xlink:href="#DejaVuSans-32" x="323.242188"/>
     <use xlink:href="#DejaVuSans-25" x="386.865234"/>
    </g>
   </g>
   <g id="text_10">
    <!-- kernel 3.32% -->
    <g transform="translate(247.400829 172.860445) scale(0.06 -0.06)">
     <use xlink:href="#DejaVuSans-6b"/>
     <use xlink:href="#DejaVuSans-65" x="54.285156"/>
     <use xlink:href="#DejaVuSans-72" x="115.808594"/>
     <use xlink:href="#DejaVuSans-6e" x="155.171875"/>
     <use xlink:href="#DejaVuSans-65" x="218.550781"/>
     <use xlink:href="#DejaVuSans-6c" x="280.074219"/>
     <use xlink:href="#DejaVuSans-20" x="307.857422"/>
     <use xlink:href="#DejaVuSans-33" x="339.644531"/>
     <use xlink:href="#DejaVuSans-2e" x="403.267578"/>
     <use xlink:href="#DejaVuSans-33" x="435.054688"/>
     <use xlink:href="#DejaVuSans-32" x="498.677734"/>
     <use xlink:href="#DejaVuSans-25" x="562.300781"/>
    </g>
   </g>
  </g>
 </g>
 <defs>
  <pattern id="he0a5f33a94" patternUnits="userSpaceOnUse" x="0" y="0" width="72" height="72">
   <rect x="0" y="0" width="73" height="73" fill="#1f77b4"/>
   <path d="M -36 36 
L 36 -36 
M -30 42 
L 42 -30 
M -24 48 
L 48 -24 
M -18 54 
L 54 -18 
M -12 60 
L 60 -12 
M -6 66 
L 66 -6 
M 0 72 
L 72 0 
M 6 78 
L 78 6 
M 12 84 
L 84 12 
M 18 90 
L 90 18 
M 24 96 
L 96 24 
M 30 102 
L 102 30 
M 36 108 
L 108 36 
" style="fill: #000000; stroke: #000000; stroke-width: 1.0; stroke-linecap: butt; stroke-linejoin: miter"/>
  </pattern>
  <pattern id="h800d6d8d80" patternUnits="userSpaceOnUse" x="0" y="0" width="72" height="72">
   <rect x="0" y="0" width="73" height="73" fill="#2ca02c"/>
   <path d="M -36 36 
L 36 -36 
M -30 42 
L 42 -30 
M -24 48 
L 48 -24 
M -18 54 
L 54 -18 
M -12 60 
L 60 -12 
M -6 66 
L 66 -6 
M 0 72 
L 72 0 
M 6 78 
L 78 6 
M 12 84 
L 84 12 
M 18 90 
L 90 18 
M 24 96 
L 96 24 
M 30 102 
L 102 30 
M 36 108 
L 108 36 
" style="fill: #000000; stroke: #000000; stroke-width: 1.0; stroke-linecap: butt; stroke-linejoin: miter"/>
  </pattern>
  <pattern id="h80d8ad487f" patternUnits="userSpaceOnUse" x="0" y="0" width="72" height="72">
   <rect x="0" y="0" width="73" height="73" fill="#8c564b"/>
   <path d="M -36 36 
L 36 -36 
M -30 42 
L 42 -30 
M -24 48 
L 48 -24 
M -18 54 
L 54 -18 
M -12 60 
L 60 -12 
M -6 66 
L 66 -6 
M 0 72 
L 72 0 
M 6 78 
L 78 6 
M 12 84 
L 84 12 
M 18 90 
L 90 18 
M 24 96 
L 96 24 
M 30 102 
L 102 30 
M 36 108 
L 108 36 
" style="fill: #000000; stroke: #000000; stroke-width: 1.0; stroke-linecap: butt; stroke-linejoin: miter"/>
  </pattern>
  <pattern id="hda5a00b5a1" patternUnits="userSpaceOnUse" x="0" y="0" width="72" height="72">
   <rect x="0" y="0" width="73" height="73" fill="#e377c2"/>
   <path d="M -36 36 
L 36 -36 
M -30 42 
L 42 -30 
M -24 48 
L 48 -24 
M -18 54 
L 54 -18 
M -12 60 
L 60 -12 
M -6 66 
L 66 -6 
M 0 72 
L 72 0 
M 6 78 
L 78 6 
M 12 84 
L 84 12 
M 18 90 
L 90 18 
M 24 96 
L 96 24 
M 30 102 
L 102 30 
M 36 108 
L 108 36 
" style="fill: #000000; stroke: #000000; stroke-width: 1.0; stroke-linecap: butt; stroke-linejoin: miter"/>
  </pattern>
  <pattern id="h330ad2f6b3" patternUnits="userSpaceOnUse" x="0" y="0" width="72" height="72">
   <rect x="0" y="0" width="73" height="73" fill="#d62728"/>
   <path d="M -36 36 
L 36 -36 
M -30 42 
L 42 -30 
M -24 48 
L 48 -24 
M -18 54 
L 54 -18 
M -12 60 
L 60 -12 
M -6 66 
L 66 -6 
M 0 72 
L 72 0 
M 6 78 
L 78 6 
M 12 84 
L 84 12 
M 18 90 
L 90 18 
M 24 96 
L 96 24 
M 30 102 
L 102 30 
M 36 108 
L 108 36 
" style="fill: #000000; stroke: #000000; stroke-width: 1.0; stroke-linecap: butt; stroke-linejoin: miter"/>
  </pattern>
  <pattern id="h4047a844e0" patternUnits="userSpaceOnUse" x="0" y="0" width="72" height="72">
   <rect x="0" y="0" width="73" height="73" fill="#ff7f0e"/>
   <path d="M -36 36 
L 36 -36 
M -30 42 
L 42 -30 
M -24 48 
L 48 -24 
M -18 54 
L 54 -18 
M -12 60 
L 60 -12 
M -6 66 
L 66 -6 
M 0 72 
L 72 0 
M 6 78 
L 78 6 
M 12 84 
L 84 12 
M 18 90 
L 90 18 
M 24 96 
L 96 24 
M 30 102 
L 102 30 
M 36 108 
L 108 36 
" style="fill: #000000; stroke: #000000; stroke-width: 1.0; stroke-linecap: butt; stroke-linejoin: miter"/>
  </pattern>
  <pattern id="hab199b6874" patternUnits="userSpaceOnUse" x="0" y="0" width="72" height="72">
   <rect x="0" y="0" width="73" height="73" fill="#17becf"/>
   <path d="M -36 36 
L 36 -36 
M -30 42 
L 42 -30 
M -24 48 
L 48 -24 
M -18 54 
L 54 -18 
M -12 60 
L 60 -12 
M -6 66 
L 66 -6 
M 0 72 
L 72 0 
M 6 78 
L 78 6 
M 12 84 
L 84 12 
M 18 90 
L 90 18 
M 24 96 
L 96 24 
M 30 102 
L 102 30 
M 36 108 
L 108 36 
" style="fill: #000000; stroke: #000000; stroke-width: 1.0; stroke-linecap: butt; stroke-linejoin: miter"/>
  </pattern>
  <pattern id="hda9669e624" patternUnits="userSpaceOnUse" x="0" y="0" width="72" height="72">
   <rect x="0" y="0" width="73" height="73" fill="#9467bd"/>
   <path d="M -36 36 
L 36 -36 
M -30 42 
L 42 -30 
M -24 48 
L 48 -24 
M -18 54 
L 54 -18 
M -12 60 
L 60 -12 
M -6 66 
L 66 -6 
M 0 72 
L 72 0 
M 6 78 
L 78 6 
M 12 84 
L 84 12 
M 18 90 
L 90 18 
M 24 96 
L 96 24 
M 30 102 
L 102 30 
M 36 108 
L 108 36 
" style="fill: #000000; stroke: #000000; stroke-width: 1.0; stroke-linecap: butt; stroke-linejoin: miter"/>
  </pattern>
  <pattern id="hb6716b8516" patternUnits="userSpaceOnUse" x="0" y="0" width="72" height="72">
   <rect x="0" y="0" width="73" height="73" fill="#7f7f7f"/>
   <path d="M -36 36 
L 36 -36 
M -30 42 
L 42 -30 
M -24 48 
L 48 -24 
M -18 54 
L 54 -18 
M -12 60 
L 60 -12 
M -6 66 
L 66 -6 
M 0 72 
L 72 0 
M 6 78 
L 78 6 
M 12 84 
L 84 12 
M 18 90 
L 90 18 
M 24 96 
L 96 24 
M 30 102 
L 102 30 
M 36 108 
L 108 36 
" style="fill: #000000; stroke: #000000; stroke-width: 1.0; stroke-linecap: butt; stroke-linejoin: miter"/>
  </pattern>
  <pattern id="h4000f7174c" patternUnits="userSpaceOnUse" x="0" y="0" width="72" height="72">
   <rect x="0" y="0" width="73" height="73" fill="#1f77b4"/>
   <path d="M -36 36 
L 36 108 
M -30 30 
L 42 102 
M -24 24 
L 48 96 
M -18 18 
L 54 90 
M -12 12 
L 60 84 
M -6 6 
L 66 78 
M 0 0 
L 72 72 
M 6 -6 
L 78 66 
M 12 -12 
L 84 60 
M 18 -18 
L 90 54 
M 24 -24 
L 96 48 
M 30 -30 
L 102 42 
M 36 -36 
L 108 36 
" style="fill: #000000; stroke: #000000; stroke-width: 1.0; stroke-linecap: butt; stroke-linejoin: miter"/>
  </pattern>
  <pattern id="h4ab3a28017" patternUnits="userSpaceOnUse" x="0" y="0" width="72" height="72">
   <rect x="0" y="0" width="73" height="73" fill="#bcbd22"/>
   <path d="M -36 36 
L 36 -36 
M -30 42 
L 42 -30 
M -24 48 
L 48 -24 
M -18 54 
L 54 -18 
M -12 60 
L 60 -12 
M -6 66 
L 66 -6 
M 0 72 
L 72 0 
M 6 78 
L 78 6 
M 12 84 
L 84 12 
M 18 90 
L 90 18 
M 24 96 
L 96 24 
M 30 102 
L 102 30 
M 36 108 
L 108 36 
" style="fill: #000000; stroke: #000000; stroke-width: 1.0; stroke-linecap: butt; stroke-linejoin: miter"/>
  </pattern>
  <pattern id="hd59dfa3dcd" patternUnits="userSpaceOnUse" x="0" y="0" width="72" height="72">
   <rect x="0" y="0" width="73" height="73" fill="#2ca02c"/>
   <path d="M -36 36 
L 36 108 
M -30 30 
L 42 102 
M -24 24 
L 48 96 
M -18 18 
L 54 90 
M -12 12 
L 60 84 
M -6 6 
L 66 78 
M 0 0 
L 72 72 
M 6 -6 
L 78 66 
M 12 -12 
L 84 60 
M 18 -18 
L 90 54 
M 24 -24 
L 96 48 
M 30 -30 
L 102 42 
M 36 -36 
L 108 36 
" style="fill: #000000; stroke: #000000; stroke-width: 1.0; stroke-linecap: butt; stroke-linejoin: miter"/>
  </pattern>
  <pattern id="h81dbca0033" patternUnits="userSpaceOnUse" x="0" y="0" width="72" height="72">
   <rect x="0" y="0" width="73" height="73" fill="#ff7f0e"/>
   <path d="M -36 36 
L 36 108 
M -30 30 
L 42 102 
M -24 24 
L 48 96 
M -18 18 
L 54 90 
M -12 12 
L 60 84 
M -6 6 
L 66 78 
M 0 0 
L 72 72 
M 6 -6 
L 78 66 
M 12 -12 
L 84 60 
M 18 -18 
L 90 54 
M 24 -24 
L 96 48 
M 30 -30 
L 102 42 
M 36 -36 
L 108 36 
" style="fill: #000000; stroke: #000000; stroke-width: 1.0; stroke-linecap: butt; stroke-linejoin: miter"/>
  </pattern>
 </defs>
</svg>
