<?xml version="1.0" encoding="UTF-8"?>
<!DOCTYPE svg  PUBLIC '-//W3C//DTD SVG 1.1//EN'  'http://www.w3.org/Graphics/SVG/1.1/DTD/svg11.dtd'>
<svg width="720pt" height="720pt" version="1.1" viewBox="0 0 720 720" xmlns="http://www.w3.org/2000/svg" xmlns:xlink="http://www.w3.org/1999/xlink">
<defs>
<style type="text/css">*{stroke-linejoin: round; stroke-linecap: butt}</style>
</defs>
<path d="m0 720h720v-720h-720z" fill="#fff"/>
<path d="m40.6 349h663v-313h-663z" fill="#fff"/>
<path d="m41.6 349v-313" clip-path="url(#h)" fill="none" stroke="#b0b0b0" stroke-linecap="square" stroke-width=".8"/>
<defs>
<path id="k" d="m0 0v3.5" stroke="#000" stroke-width=".8"/>
</defs>
<use x="41.625851" y="348.52899" stroke="#000000" stroke-width=".8" xlink:href="#k"/>
<g transform="translate(20.7 363) scale(.1 -.1)">
<defs>
<path id="c" transform="scale(.0156)" d="m1228 531h2203v-531h-2962v531q359 372 979 998 621 627 780 809 303 340 423 576 121 236 121 464 0 372-261 606-261 235-680 235-297 0-627-103-329-103-704-313v638q381 153 712 231 332 78 607 78 725 0 1156-363 431-362 431-968 0-288-108-546-107-257-392-607-78-91-497-524-418-433-1181-1211z"/>
<path id="b" transform="scale(.0156)" d="m2034 4250q-487 0-733-480-245-479-245-1442 0-959 245-1439 246-480 733-480 491 0 736 480 246 480 246 1439 0 963-246 1442-245 480-736 480zm0 500q785 0 1199-621 414-620 414-1801 0-1178-414-1799-414-620-1199-620-784 0-1198 620-414 621-414 1799 0 1181 414 1801 414 621 1198 621z"/>
<path id="i" transform="scale(.0156)" d="m2419 4116-1594-2491h1594v2491zm-166 550h794v-3041h666v-525h-666v-1100h-628v1100h-2106v609l1940 2957z"/>
<path id="j" transform="scale(.0156)" d="m313 2009h1684v-512h-1684v512z"/>
</defs>
<use xlink:href="#c"/>
<use x="63.623047" xlink:href="#b"/>
<use x="127.246094" xlink:href="#c"/>
<use x="190.869141" xlink:href="#i"/>
<use x="254.492188" xlink:href="#j"/>
<use x="290.576172" xlink:href="#b"/>
<use x="354.199219" xlink:href="#c"/>
</g>
<path d="m98.3 349v-313" clip-path="url(#h)" fill="none" stroke="#b0b0b0" stroke-linecap="square" stroke-width=".8"/>
<use x="98.274186" y="348.52899" stroke="#000000" stroke-width=".8" xlink:href="#k"/>
<g transform="translate(77.4 363) scale(.1 -.1)">
<defs>
<path id="aj" transform="scale(.0156)" d="m2597 2516q453-97 707-404 255-306 255-756 0-690-475-1069-475-378-1350-378-293 0-604 58t-642 174v609q262-153 574-231 313-78 654-78 593 0 904 234t311 681q0 413-289 645-289 233-804 233h-544v519h569q465 0 712 186t247 536q0 359-255 551-254 193-729 193-260 0-557-57-297-56-653-174v562q360 100 674 150t592 50q719 0 1137-327 419-326 419-882 0-388-222-655t-631-370z"/>
</defs>
<use xlink:href="#c"/>
<use x="63.623047" xlink:href="#b"/>
<use x="127.246094" xlink:href="#c"/>
<use x="190.869141" xlink:href="#i"/>
<use x="254.492188" xlink:href="#j"/>
<use x="290.576172" xlink:href="#b"/>
<use x="354.199219" xlink:href="#aj"/>
</g>
<path d="m159 349v-313" clip-path="url(#h)" fill="none" stroke="#b0b0b0" stroke-linecap="square" stroke-width=".8"/>
<use x="158.829303" y="348.52899" stroke="#000000" stroke-width=".8" xlink:href="#k"/>
<g transform="translate(138 363) scale(.1 -.1)">
<use xlink:href="#c"/>
<use x="63.623047" xlink:href="#b"/>
<use x="127.246094" xlink:href="#c"/>
<use x="190.869141" xlink:href="#i"/>
<use x="254.492188" xlink:href="#j"/>
<use x="290.576172" xlink:href="#b"/>
<use x="354.199219" xlink:href="#i"/>
</g>
<path d="m217 349v-313" clip-path="url(#h)" fill="none" stroke="#b0b0b0" stroke-linecap="square" stroke-width=".8"/>
<use x="217.431029" y="348.52899" stroke="#000000" stroke-width=".8" xlink:href="#k"/>
<g transform="translate(197 363) scale(.1 -.1)">
<defs>
<path id="z" transform="scale(.0156)" d="m691 4666h2478v-532h-1900v-1143q137 47 274 70 138 23 276 23 781 0 1237-428 457-428 457-1159 0-753-469-1171-469-417-1322-417-294 0-599 50-304 50-629 150v635q281-153 581-228t634-75q541 0 856 284 316 284 316 772 0 487-316 771-315 285-856 285-253 0-505-56-251-56-513-175v2344z"/>
</defs>
<use xlink:href="#c"/>
<use x="63.623047" xlink:href="#b"/>
<use x="127.246094" xlink:href="#c"/>
<use x="190.869141" xlink:href="#i"/>
<use x="254.492188" xlink:href="#j"/>
<use x="290.576172" xlink:href="#b"/>
<use x="354.199219" xlink:href="#z"/>
</g>
<path d="m278 349v-313" clip-path="url(#h)" fill="none" stroke="#b0b0b0" stroke-linecap="square" stroke-width=".8"/>
<use x="277.986146" y="348.52899" stroke="#000000" stroke-width=".8" xlink:href="#k"/>
<g transform="translate(257 363) scale(.1 -.1)">
<defs>
<path id="ae" transform="scale(.0156)" d="m2113 2584q-425 0-674-291-248-290-248-796 0-503 248-796 249-292 674-292t673 292q248 293 248 796 0 506-248 796-248 291-673 291zm1253 1979v-575q-238 112-480 171-242 60-480 60-625 0-955-422-329-422-376-1275 184 272 462 417 279 145 613 145 703 0 1111-427 408-426 408-1160 0-719-425-1154-425-434-1131-434-810 0-1238 620-428 621-428 1799 0 1106 525 1764t1409 658q238 0 480-47t505-140z"/>
</defs>
<use xlink:href="#c"/>
<use x="63.623047" xlink:href="#b"/>
<use x="127.246094" xlink:href="#c"/>
<use x="190.869141" xlink:href="#i"/>
<use x="254.492188" xlink:href="#j"/>
<use x="290.576172" xlink:href="#b"/>
<use x="354.199219" xlink:href="#ae"/>
</g>
<path d="m337 349v-313" clip-path="url(#h)" fill="none" stroke="#b0b0b0" stroke-linecap="square" stroke-width=".8"/>
<use x="336.587872" y="348.52899" stroke="#000000" stroke-width=".8" xlink:href="#k"/>
<g transform="translate(316 363) scale(.1 -.1)">
<defs>
<path id="ag" transform="scale(.0156)" d="m525 4666h3e3v-269l-1694-4397h-659l1594 4134h-2241v532z"/>
</defs>
<use xlink:href="#c"/>
<use x="63.623047" xlink:href="#b"/>
<use x="127.246094" xlink:href="#c"/>
<use x="190.869141" xlink:href="#i"/>
<use x="254.492188" xlink:href="#j"/>
<use x="290.576172" xlink:href="#b"/>
<use x="354.199219" xlink:href="#ag"/>
</g>
<path d="m397 349v-313" clip-path="url(#h)" fill="none" stroke="#b0b0b0" stroke-linecap="square" stroke-width=".8"/>
<use x="397.142989" y="348.52899" stroke="#000000" stroke-width=".8" xlink:href="#k"/>
<g transform="translate(376 363) scale(.1 -.1)">
<defs>
<path id="ai" transform="scale(.0156)" d="m2034 2216q-450 0-708-241-257-241-257-662 0-422 257-663 258-241 708-241t709 242q260 243 260 662 0 421-258 662-257 241-711 241zm-631 268q-406 100-633 378-226 279-226 679 0 559 398 884 399 325 1092 325 697 0 1094-325t397-884q0-400-227-679-226-278-629-378 456-106 710-416 255-309 255-755 0-679-414-1042-414-362-1186-362-771 0-1186 362-414 363-414 1042 0 446 256 755 257 310 713 416zm-231 997q0-362 226-565 227-203 636-203 407 0 636 203 230 203 230 565 0 363-230 566-229 203-636 203-409 0-636-203-226-203-226-566z"/>
</defs>
<use xlink:href="#c"/>
<use x="63.623047" xlink:href="#b"/>
<use x="127.246094" xlink:href="#c"/>
<use x="190.869141" xlink:href="#i"/>
<use x="254.492188" xlink:href="#j"/>
<use x="290.576172" xlink:href="#b"/>
<use x="354.199219" xlink:href="#ai"/>
</g>
<path d="m458 349v-313" clip-path="url(#h)" fill="none" stroke="#b0b0b0" stroke-linecap="square" stroke-width=".8"/>
<use x="457.698106" y="348.52899" stroke="#000000" stroke-width=".8" xlink:href="#k"/>
<g transform="translate(437 363) scale(.1 -.1)">
<defs>
<path id="ac" transform="scale(.0156)" d="m703 97v575q238-113 481-172 244-59 479-59 625 0 954 420 330 420 377 1277-181-269-460-413-278-144-615-144-700 0-1108 423-408 424-408 1159 0 718 425 1152 425 435 1131 435 810 0 1236-621 427-620 427-1801 0-1103-524-1761-523-658-1407-658-238 0-482 47-243 47-506 141zm1256 1978q425 0 673 290 249 291 249 798 0 503-249 795-248 292-673 292t-673-292-248-795q0-507 248-798 248-290 673-290z"/>
</defs>
<use xlink:href="#c"/>
<use x="63.623047" xlink:href="#b"/>
<use x="127.246094" xlink:href="#c"/>
<use x="190.869141" xlink:href="#i"/>
<use x="254.492188" xlink:href="#j"/>
<use x="290.576172" xlink:href="#b"/>
<use x="354.199219" xlink:href="#ac"/>
</g>
<path d="m516 349v-313" clip-path="url(#h)" fill="none" stroke="#b0b0b0" stroke-linecap="square" stroke-width=".8"/>
<use x="516.299832" y="348.52899" stroke="#000000" stroke-width=".8" xlink:href="#k"/>
<g transform="translate(495 363) scale(.1 -.1)">
<defs>
<path id="q" transform="scale(.0156)" d="m794 531h1031v3560l-1122-225v575l1116 225h631v-4135h1031v-531h-2687v531z"/>
</defs>
<use xlink:href="#c"/>
<use x="63.623047" xlink:href="#b"/>
<use x="127.246094" xlink:href="#c"/>
<use x="190.869141" xlink:href="#i"/>
<use x="254.492188" xlink:href="#j"/>
<use x="290.576172" xlink:href="#q"/>
<use x="354.199219" xlink:href="#b"/>
</g>
<path d="m577 349v-313" clip-path="url(#h)" fill="none" stroke="#b0b0b0" stroke-linecap="square" stroke-width=".8"/>
<use x="576.854949" y="348.52899" stroke="#000000" stroke-width=".8" xlink:href="#k"/>
<g transform="translate(556 363) scale(.1 -.1)">
<use xlink:href="#c"/>
<use x="63.623047" xlink:href="#b"/>
<use x="127.246094" xlink:href="#c"/>
<use x="190.869141" xlink:href="#i"/>
<use x="254.492188" xlink:href="#j"/>
<use x="290.576172" xlink:href="#q"/>
<use x="354.199219" xlink:href="#q"/>
</g>
<path d="m635 349v-313" clip-path="url(#h)" fill="none" stroke="#b0b0b0" stroke-linecap="square" stroke-width=".8"/>
<use x="635.456675" y="348.52899" stroke="#000000" stroke-width=".8" xlink:href="#k"/>
<g transform="translate(615 363) scale(.1 -.1)">
<use xlink:href="#c"/>
<use x="63.623047" xlink:href="#b"/>
<use x="127.246094" xlink:href="#c"/>
<use x="190.869141" xlink:href="#i"/>
<use x="254.492188" xlink:href="#j"/>
<use x="290.576172" xlink:href="#q"/>
<use x="354.199219" xlink:href="#c"/>
</g>
<path d="m696 349v-313" clip-path="url(#h)" fill="none" stroke="#b0b0b0" stroke-linecap="square" stroke-width=".8"/>
<use x="696.011792" y="348.52899" stroke="#000000" stroke-width=".8" xlink:href="#k"/>
<g transform="translate(675 363) scale(.1 -.1)">
<use xlink:href="#c"/>
<use x="63.623047" xlink:href="#b"/>
<use x="127.246094" xlink:href="#c"/>
<use x="190.869141" xlink:href="#z"/>
<use x="254.492188" xlink:href="#j"/>
<use x="290.576172" xlink:href="#b"/>
<use x="354.199219" xlink:href="#q"/>
</g>
<path d="m40.6 345h663" clip-path="url(#h)" fill="none" stroke="#b0b0b0" stroke-linecap="square" stroke-width=".8"/>
<defs>
<path id="n" d="m0 0h-3.5" stroke="#000" stroke-width=".8"/>
</defs>
<use x="40.645553" y="344.644116" stroke="#000000" stroke-width=".8" xlink:href="#n"/>
<g transform="translate(3 348) scale(.1 -.1)">
<defs>
<path id="l" transform="scale(.0156)" d="m684 794h660v-794h-660v794z"/>
<path id="o" transform="scale(.0156)" d="m4488 3438-1429-1435 1429-1428-372-378-1435 1434-1434-1434-369 378 1425 1428-1425 1435 369 378 1434-1435 1435 1435 372-378z"/>
</defs>
<use xlink:href="#b"/>
<use x="63.623047" xlink:href="#l"/>
<use x="95.410156" xlink:href="#ae"/>
<use x="159.033203" xlink:href="#b"/>
<use x="222.65625" xlink:href="#o"/>
</g>
<path d="m40.6 304h663" clip-path="url(#h)" fill="none" stroke="#b0b0b0" stroke-linecap="square" stroke-width=".8"/>
<use x="40.645553" y="304.154104" stroke="#000000" stroke-width=".8" xlink:href="#n"/>
<g transform="translate(3 308) scale(.1 -.1)">
<use xlink:href="#b"/>
<use x="63.623047" xlink:href="#l"/>
<use x="95.410156" xlink:href="#ae"/>
<use x="159.033203" xlink:href="#z"/>
<use x="222.65625" xlink:href="#o"/>
</g>
<path d="m40.6 264h663" clip-path="url(#h)" fill="none" stroke="#b0b0b0" stroke-linecap="square" stroke-width=".8"/>
<use x="40.645553" y="263.664092" stroke="#000000" stroke-width=".8" xlink:href="#n"/>
<g transform="translate(3 267) scale(.1 -.1)">
<use xlink:href="#b"/>
<use x="63.623047" xlink:href="#l"/>
<use x="95.410156" xlink:href="#ag"/>
<use x="159.033203" xlink:href="#b"/>
<use x="222.65625" xlink:href="#o"/>
</g>
<path d="m40.6 223h663" clip-path="url(#h)" fill="none" stroke="#b0b0b0" stroke-linecap="square" stroke-width=".8"/>
<use x="40.645553" y="223.17408" stroke="#000000" stroke-width=".8" xlink:href="#n"/>
<g transform="translate(3 227) scale(.1 -.1)">
<use xlink:href="#b"/>
<use x="63.623047" xlink:href="#l"/>
<use x="95.410156" xlink:href="#ag"/>
<use x="159.033203" xlink:href="#z"/>
<use x="222.65625" xlink:href="#o"/>
</g>
<path d="m40.6 183h663" clip-path="url(#h)" fill="none" stroke="#b0b0b0" stroke-linecap="square" stroke-width=".8"/>
<use x="40.645553" y="182.684068" stroke="#000000" stroke-width=".8" xlink:href="#n"/>
<g transform="translate(3 186) scale(.1 -.1)">
<use xlink:href="#b"/>
<use x="63.623047" xlink:href="#l"/>
<use x="95.410156" xlink:href="#ai"/>
<use x="159.033203" xlink:href="#b"/>
<use x="222.65625" xlink:href="#o"/>
</g>
<path d="m40.6 142h663" clip-path="url(#h)" fill="none" stroke="#b0b0b0" stroke-linecap="square" stroke-width=".8"/>
<use x="40.645553" y="142.194056" stroke="#000000" stroke-width=".8" xlink:href="#n"/>
<g transform="translate(3 146) scale(.1 -.1)">
<use xlink:href="#b"/>
<use x="63.623047" xlink:href="#l"/>
<use x="95.410156" xlink:href="#ai"/>
<use x="159.033203" xlink:href="#z"/>
<use x="222.65625" xlink:href="#o"/>
</g>
<path d="m40.6 102h663" clip-path="url(#h)" fill="none" stroke="#b0b0b0" stroke-linecap="square" stroke-width=".8"/>
<use x="40.645553" y="101.704043" stroke="#000000" stroke-width=".8" xlink:href="#n"/>
<g transform="translate(3 106) scale(.1 -.1)">
<use xlink:href="#b"/>
<use x="63.623047" xlink:href="#l"/>
<use x="95.410156" xlink:href="#ac"/>
<use x="159.033203" xlink:href="#b"/>
<use x="222.65625" xlink:href="#o"/>
</g>
<path d="m40.6 61.2h663" clip-path="url(#h)" fill="none" stroke="#b0b0b0" stroke-linecap="square" stroke-width=".8"/>
<use x="40.645553" y="61.214031" stroke="#000000" stroke-width=".8" xlink:href="#n"/>
<g transform="translate(3 65) scale(.1 -.1)">
<use xlink:href="#b"/>
<use x="63.623047" xlink:href="#l"/>
<use x="95.410156" xlink:href="#ac"/>
<use x="159.033203" xlink:href="#z"/>
<use x="222.65625" xlink:href="#o"/>
</g>
<path d="m-1 132 14.5 1.65 56.8-43.7 51.3 176 336 4.03 13.4-1.93 13.7-0.213 11.3 3.99 16.3-5.15 12.5 3.93 14.7 19.3 13.7-25.7 13.7 4.99 13.3-4.85 14.1-6.09 13.7 0.318 13.6-25 13.4-5.57 13.6-12.2 13.5-5.83" clip-path="url(#h)" fill="none" stroke="#1f77b4" stroke-linecap="square" stroke-opacity=".9" stroke-width="1.5"/>
<defs>
<path id="a" d="m-2.5 2.5h5v-5h-5z" stroke="#1f77b4" stroke-opacity=".9"/>
</defs>
<g clip-path="url(#h)" fill="#1f77b4" fill-opacity=".9" stroke="#1f77b4" stroke-opacity=".9">
<use x="-1" y="132.376017" xlink:href="#a"/>
<use x="13.484361" y="134.024722" xlink:href="#a"/>
<use x="70.246689" y="90.280167" xlink:href="#a"/>
<use x="121.567196" y="266.623492" xlink:href="#a"/>
<use x="457.72128" y="270.651378" xlink:href="#a"/>
<use x="471.109943" y="268.720989" xlink:href="#a"/>
<use x="484.760595" y="268.507978" xlink:href="#a"/>
<use x="496.084701" y="272.493094" xlink:href="#a"/>
<use x="512.41437" y="267.343896" xlink:href="#a"/>
<use x="524.922877" y="271.275563" xlink:href="#a"/>
<use x="539.655672" y="290.623919" xlink:href="#a"/>
<use x="553.396556" y="264.876892" xlink:href="#a"/>
<use x="567.061565" y="269.862826" xlink:href="#a"/>
<use x="580.369967" y="265.01471" xlink:href="#a"/>
<use x="594.518938" y="258.927542" xlink:href="#a"/>
<use x="608.193126" y="259.245077" xlink:href="#a"/>
<use x="621.757187" y="234.290877" xlink:href="#a"/>
<use x="635.184896" y="228.723671" xlink:href="#a"/>
<use x="648.803082" y="216.560908" xlink:href="#a"/>
<use x="662.269429" y="210.729752" xlink:href="#a"/>
</g>
<g stroke="#1f77b4" stroke-opacity=".9">
<path d="m458 283 13.4-1.42 13.7-12.7 11.3-2.75 16.3 0.54 12.5-3.53 14.7 19.7 13.7-13.2 13.7 0.553 13.3-6.82 14.1-4.95 13.7-0.0977 13.6-33.5 13.4-4.95 13.6-5.63 13.5-3.07" clip-path="url(#h)" fill="none" stroke-dasharray="1.5,2.475" stroke-width="1.5"/>
<g clip-path="url(#h)" fill="#1f77b4" fill-opacity=".9">
<use x="457.72128" y="282.672641" xlink:href="#a"/>
<use x="471.109943" y="281.251664" xlink:href="#a"/>
<use x="484.760595" y="268.542828" xlink:href="#a"/>
<use x="496.084701" y="265.793826" xlink:href="#a"/>
<use x="512.41437" y="266.333949" xlink:href="#a"/>
<use x="524.922877" y="262.808349" xlink:href="#a"/>
<use x="539.655672" y="282.501971" xlink:href="#a"/>
<use x="553.396556" y="269.271347" xlink:href="#a"/>
<use x="567.061565" y="269.824342" xlink:href="#a"/>
<use x="580.369967" y="263.002686" xlink:href="#a"/>
<use x="594.518938" y="258.051946" xlink:href="#a"/>
<use x="608.193126" y="257.954233" xlink:href="#a"/>
<use x="621.757187" y="224.49475" xlink:href="#a"/>
<use x="635.184896" y="219.540386" xlink:href="#a"/>
<use x="648.803082" y="213.915039" xlink:href="#a"/>
<use x="662.269429" y="210.842452" xlink:href="#a"/>
</g>
</g>
<path d="m458 327 13.4 0.668 13.7-12.3 11.3-0.386 16.3 0.515 12.5-1.01 14.7 19.7 13.7-15 13.7 3.53 13.3-24.8 14.1-11 13.7 14.8 13.6-42.8 13.4-0.998 13.6 12 13.5 0.828" clip-path="url(#h)" fill="none" stroke="#9467bd" stroke-dasharray="5.55,2.4" stroke-opacity=".9" stroke-width="1.5"/>
<defs>
<path id="e" d="m-2.5 2.5h5v-5h-5z" stroke="#9467bd" stroke-opacity=".9"/>
</defs>
<g clip-path="url(#h)" fill="#9467bd" fill-opacity=".9" stroke="#9467bd" stroke-opacity=".9">
<use x="457.72128" y="327.152465" xlink:href="#e"/>
<use x="471.109943" y="327.820163" xlink:href="#e"/>
<use x="484.760595" y="315.510648" xlink:href="#e"/>
<use x="496.084701" y="315.12487" xlink:href="#e"/>
<use x="512.41437" y="315.640276" xlink:href="#e"/>
<use x="524.922877" y="314.625373" xlink:href="#e"/>
<use x="539.655672" y="334.310972" xlink:href="#e"/>
<use x="553.396556" y="319.278004" xlink:href="#e"/>
<use x="567.061565" y="322.810999" xlink:href="#e"/>
<use x="580.369967" y="297.998295" xlink:href="#e"/>
<use x="594.518938" y="286.959309" xlink:href="#e"/>
<use x="608.193126" y="301.755849" xlink:href="#e"/>
<use x="621.757187" y="258.934861" xlink:href="#e"/>
<use x="635.184896" y="257.937145" xlink:href="#e"/>
<use x="648.803082" y="269.946922" xlink:href="#e"/>
<use x="662.269429" y="270.775279" xlink:href="#e"/>
</g>
<path d="m458 275 13.4 8.63 13.7-22.7 11.3-7 16.3 0.906 12.5-1.16 14.7 22.4 13.7-39.2 13.7 10.3 13.3-10.6 14.1-23.2 13.7 1.18 13.6-43.8 13.4-2.12 13.6 3.17 13.5-8.8" clip-path="url(#h)" fill="none" stroke="#2ca02c" stroke-linecap="square" stroke-opacity=".9" stroke-width="1.5"/>
<defs>
<path id="d" d="m0-2.5-2.5 5h5z" stroke="#2ca02c" stroke-opacity=".9"/>
</defs>
<g clip-path="url(#h)" fill="#2ca02c" fill-opacity=".9" stroke="#2ca02c" stroke-opacity=".9">
<use x="457.72128" y="274.891532" xlink:href="#d"/>
<use x="471.109943" y="283.517827" xlink:href="#d"/>
<use x="484.760595" y="260.811043" xlink:href="#d"/>
<use x="496.084701" y="253.811565" xlink:href="#d"/>
<use x="512.41437" y="254.717777" xlink:href="#d"/>
<use x="524.922877" y="253.557636" xlink:href="#d"/>
<use x="539.655672" y="275.94093" xlink:href="#d"/>
<use x="553.396556" y="236.778966" xlink:href="#d"/>
<use x="567.061565" y="247.094926" xlink:href="#d"/>
<use x="580.369967" y="236.505138" xlink:href="#d"/>
<use x="594.518938" y="213.275459" xlink:href="#d"/>
<use x="608.193126" y="214.456871" xlink:href="#d"/>
<use x="621.757187" y="170.612887" xlink:href="#d"/>
<use x="635.184896" y="168.491423" xlink:href="#d"/>
<use x="648.803082" y="171.664995" xlink:href="#d"/>
<use x="662.269429" y="162.868726" xlink:href="#d"/>
</g>
<path d="m40.6 349v-313" fill="none" stroke="#000" stroke-linecap="square" stroke-width=".8"/>
<path d="m704 349v-313" fill="none" stroke="#000" stroke-linecap="square" stroke-width=".8"/>
<path d="m40.6 349h663" fill="none" stroke="#000" stroke-linecap="square" stroke-width=".8"/>
<path d="m40.6 35.7h663" fill="none" stroke="#000" stroke-linecap="square" stroke-width=".8"/>
<g clip-path="url(#h)">
<g transform="translate(58.2 12.8) rotate(-90) scale(.1 -.1)">
<defs>
<path id="w" transform="scale(.0156)" d="m2375 4863v-479h-550q-309 0-430-125-120-125-120-450v-309h947v-447h-947v-3053h-578v3053h-550v447h550v244q0 584 272 851 272 268 862 268h544z"/>
<path id="t" transform="scale(.0156)" d="m2194 1759q-697 0-966-159t-269-544q0-306 202-486 202-179 548-179 479 0 768 339t289 901v128h-572zm1147 238v-2e3h-575v531q-197-318-491-470t-719-152q-537 0-855 302-317 302-317 808 0 590 395 890 396 300 1180 300h807v57q0 397-261 614t-733 217q-300 0-585-72-284-72-546-216v532q315 122 612 182 297 61 578 61 760 0 1135-394 375-393 375-1193z"/>
<path id="x" transform="scale(.0156)" d="m2834 3397v-544q-243 125-506 187-262 63-544 63-428 0-642-131t-214-394q0-200 153-314t616-217l197-44q612-131 870-370t258-667q0-488-386-773-386-284-1061-284-281 0-586 55t-642 164v594q319-166 628-249 309-82 613-82 406 0 624 139 219 139 219 392 0 234-158 359-157 125-692 241l-200 47q-534 112-772 345-237 233-237 639 0 494 350 762 350 269 994 269 318 0 599-47 282-46 519-140z"/>
<path id="aa" transform="scale(.0156)" d="m1172 4494v-994h1184v-447h-1184v-1900q0-428 117-550t477-122h590v-481h-590q-666 0-919 248-253 249-253 905v1900h-422v447h422v994h578z"/>
<path id="m" transform="scale(.0156)" d="m3597 1894v-281h-2644q38-594 358-905t892-311q331 0 642 81t618 244v-544q-310-131-635-200t-659-69q-838 0-1327 487-489 488-489 1320 0 859 464 1363 464 505 1252 505 706 0 1117-455 411-454 411-1235zm-575 169q-6 471-264 752-258 282-683 282-481 0-770-272t-333-766l2050 4z"/>
<path id="r" transform="scale(.0156)" d="m2631 2963q-97 56-211 82-114 27-251 27-488 0-749-317t-261-911v-1844h-578v3500h578v-544q182 319 472 473 291 155 707 155 59 0 131-8 72-7 159-23l3-590z"/>
<path id="ar" transform="scale(.0156)" d="m8863 2147v-281l-1229-1228-375 375 729 728h-7622v531h7622l-729 728 375 375 1229-1228z"/>
</defs>
<use xlink:href="#w"/>
<use x="35.205078" xlink:href="#t"/>
<use x="96.484375" xlink:href="#x"/>
<use x="148.583984" xlink:href="#aa"/>
<use x="187.792969" xlink:href="#m"/>
<use x="249.316406" xlink:href="#r"/>
<use x="290.429688" xlink:href="#DejaVuSans-20"/>
<use x="322.216797" xlink:href="#ar"/>
</g>
</g>
<g clip-path="url(#h)">
<g transform="translate(58.2 80.8) rotate(-90) scale(.1 -.1)">
<defs>
<path id="as" transform="scale(.0156)" d="m313 1866v281l1228 1228 375-375-728-728h7621v-531h-7621l728-728-375-375-1228 1228z"/>
<path id="ab" transform="scale(.0156)" d="m603 4863h575v-4863h-575v4863z"/>
<path id="u" transform="scale(.0156)" d="m1959 3097q-462 0-731-361t-269-989 267-989q268-361 733-361 460 0 728 362 269 363 269 988 0 622-269 986-268 364-728 364zm0 487q750 0 1178-488 429-487 429-1349 0-859-429-1349-428-489-1178-489-753 0-1180 489-426 490-426 1349 0 862 426 1349 427 488 1180 488z"/>
<path id="ah" transform="scale(.0156)" d="m269 3500h575l719-2731 715 2731h678l719-2731 716 2731h575l-916-3500h-678l-753 2869-756-2869h-679l-915 3500z"/>
</defs>
<use xlink:href="#as"/>
<use x="143.359375" xlink:href="#DejaVuSans-20"/>
<use x="175.146484" xlink:href="#x"/>
<use x="227.246094" xlink:href="#ab"/>
<use x="255.029297" xlink:href="#u"/>
<use x="316.210938" xlink:href="#ah"/>
<use x="397.998047" xlink:href="#m"/>
<use x="459.521484" xlink:href="#r"/>
</g>
</g>
<g transform="translate(226 29.7) scale(.12 -.12)">
<defs>
<path id="ao" transform="scale(.0156)" d="m628 4666h2950v-532h-2319v-1381h2222v-531h-2222v-1691h2375v-531h-3006v4666z"/>
<path id="y" transform="scale(.0156)" d="m3122 3366v-538q-244 135-489 202t-495 67q-560 0-870-355-309-354-309-995t309-996q310-354 870-354 250 0 495 67t489 202v-532q-241-112-499-168-257-57-548-57-791 0-1257 497-465 497-465 1341 0 856 470 1346 471 491 1290 491 265 0 518-55 253-54 491-163z"/>
<path id="al" transform="scale(.0156)" d="m3513 2113v-2113h-575v2094q0 497-194 743-194 247-581 247-466 0-735-297-269-296-269-809v-1978h-578v4863h578v-1907q207 316 486 472 280 156 646 156 603 0 912-373 310-373 310-1098z"/>
<path id="av" transform="scale(.0156)" d="m2906 2969v1894h575v-4863h-575v525q-181-312-458-464-276-152-664-152-634 0-1033 506-398 507-398 1332t398 1331q399 506 1033 506 388 0 664-152 277-151 458-463zm-1959-1222q0-634 261-995t717-361 718 361q263 361 263 995t-263 995q-262 361-718 361t-717-361-261-995z"/>
<path id="p" transform="scale(.0156)" d="m603 3500h575v-3500h-575v3500zm0 1363h575v-729h-575v729z"/>
<path id="s" transform="scale(.0156)" d="m3513 2113v-2113h-575v2094q0 497-194 743-194 247-581 247-466 0-735-297-269-296-269-809v-1978h-578v3500h578v-544q207 316 486 472 280 156 646 156 603 0 912-373 310-373 310-1098z"/>
<path id="an" transform="scale(.0156)" d="m2906 1791q0 625-258 968-257 344-723 344-462 0-720-344-258-343-258-968 0-622 258-966t720-344q466 0 723 344 258 344 258 966zm575-1357q0-893-397-1329-396-436-1215-436-303 0-572 45t-522 139v559q253-137 500-202 247-66 503-66 566 0 847 295t281 892v285q-178-310-456-463t-666-153q-643 0-1037 490-394 491-394 1301 0 812 394 1302 394 491 1037 491 388 0 666-153t456-462v531h575v-3066z"/>
<path id="ak" transform="scale(.0156)" d="m191 3500h609l1094-2937 1094 2937h609l-1313-3500h-781l-1312 3500z"/>
<path id="am" transform="scale(.0156)" d="m-19 4666h3947v-532h-1656v-4134h-634v4134h-1657v532z"/>
<path id="aq" transform="scale(.0156)" d="m1984 4856q-418-718-622-1422-203-703-203-1425 0-721 205-1429t620-1424h-500q-468 735-701 1444t-233 1409q0 697 231 1403 232 707 703 1444h500z"/>
<path id="v" transform="scale(.0156)" d="m3328 2828q216 388 516 572t706 184q547 0 844-383 297-382 297-1088v-2113h-578v2094q0 503-179 746-178 244-543 244-447 0-707-297-259-296-259-809v-1978h-578v2094q0 506-178 748t-550 242q-441 0-701-298-259-298-259-808v-1978h-578v3500h578v-544q197 322 472 475t653 153q382 0 649-194 267-193 395-562z"/>
<path id="ap" transform="scale(.0156)" d="m513 4856h500q468-737 701-1444 233-706 233-1403 0-700-233-1409t-701-1444h-500q415 716 620 1424t205 1429q0 722-205 1425-205 704-620 1422z"/>
</defs>
<use xlink:href="#ao"/>
<use x="63.183594" xlink:href="#w"/>
<use x="98.388672" xlink:href="#w"/>
<use x="133.59375" xlink:href="#m"/>
<use x="195.117188" xlink:href="#y"/>
<use x="250.097656" xlink:href="#aa"/>
<use x="289.306641" xlink:href="#DejaVuSans-20"/>
<use x="321.09375" xlink:href="#u"/>
<use x="382.275391" xlink:href="#w"/>
<use x="417.480469" xlink:href="#DejaVuSans-20"/>
<use x="449.267578" xlink:href="#w"/>
<use x="484.472656" xlink:href="#r"/>
<use x="523.335938" xlink:href="#m"/>
<use x="584.859375" xlink:href="#m"/>
<use x="646.382812" xlink:href="#DejaVuSans-20"/>
<use x="678.169922" xlink:href="#aa"/>
<use x="717.378906" xlink:href="#al"/>
<use x="780.757812" xlink:href="#r"/>
<use x="819.621094" xlink:href="#m"/>
<use x="881.144531" xlink:href="#t"/>
<use x="942.423828" xlink:href="#av"/>
<use x="1005.900391" xlink:href="#p"/>
<use x="1033.683594" xlink:href="#s"/>
<use x="1097.0625" xlink:href="#an"/>
<use x="1160.539062" xlink:href="#DejaVuSans-20"/>
<use x="1192.326172" xlink:href="#ak"/>
<use x="1251.505859" xlink:href="#x"/>
<use x="1303.605469" xlink:href="#l"/>
<use x="1335.392578" xlink:href="#DejaVuSans-20"/>
<use x="1367.179688" xlink:href="#am"/>
<use x="1425.138672" xlink:href="#p"/>
<use x="1452.921875" xlink:href="#m"/>
<use x="1514.445312" xlink:href="#r"/>
<use x="1555.558594" xlink:href="#DejaVuSans-20"/>
<use x="1587.345703" xlink:href="#q"/>
<use x="1650.96875" xlink:href="#DejaVuSans-20"/>
<use x="1682.755859" xlink:href="#aq"/>
<use x="1721.769531" xlink:href="#x"/>
<use x="1773.869141" xlink:href="#t"/>
<use x="1835.148438" xlink:href="#v"/>
<use x="1932.560547" xlink:href="#m"/>
<use x="1994.083984" xlink:href="#DejaVuSans-20"/>
<use x="2025.871094" xlink:href="#y"/>
<use x="2080.851562" xlink:href="#u"/>
<use x="2142.033203" xlink:href="#v"/>
<use x="2239.445312" xlink:href="#v"/>
<use x="2336.857422" xlink:href="#p"/>
<use x="2364.640625" xlink:href="#aa"/>
<use x="2403.849609" xlink:href="#ap"/>
</g>
<path d="m47.6 102h100q2 0 2-2v-57.7q0-2-2-2h-100q-2 0-2 2v57.7q0 2 2 2z" fill="#fff" opacity=".8" stroke="#ccc"/>
<path d="m49.6 48.8h10 10" fill="none" stroke="#1f77b4" stroke-linecap="square" stroke-opacity=".9" stroke-width="1.5"/>
<use x="59.645553" y="48.831032" fill="#1f77b4" fill-opacity=".9" stroke="#1f77b4" stroke-opacity=".9" xlink:href="#a"/>
<g transform="translate(77.6 52.3) scale(.1 -.1)">
<defs>
<path id="ad" transform="scale(.0156)" d="m544 1381v2119h575v-2097q0-497 193-746 194-248 582-248 465 0 735 297 271 297 271 810v1984h575v-3500h-575v538q-209-319-486-474-276-155-642-155-603 0-916 375-312 375-312 1097zm1447 2203z"/>
<path id="af" transform="scale(.0156)" d="m3513 3500-1266-1703 1331-1797h-678l-1019 1375-1018-1375h-679l1360 1831-1244 1669h678l928-1247 928 1247h679z"/>
</defs>
<use xlink:href="#ab"/>
<use x="27.783203" xlink:href="#p"/>
<use x="55.566406" xlink:href="#s"/>
<use x="118.945312" xlink:href="#ad"/>
<use x="182.324219" xlink:href="#af"/>
</g>
<path d="m49.6 63.5h10 10" fill="none" stroke="#1f77b4" stroke-dasharray="1.5,2.475" stroke-opacity=".9" stroke-width="1.5"/>
<use x="59.645553" y="63.509157" fill="#1f77b4" fill-opacity=".9" stroke="#1f77b4" stroke-opacity=".9" xlink:href="#a"/>
<g transform="translate(77.6 67) scale(.1 -.1)">
<use xlink:href="#ab"/>
<use x="27.783203" xlink:href="#p"/>
<use x="55.566406" xlink:href="#s"/>
<use x="118.945312" xlink:href="#ad"/>
<use x="182.324219" xlink:href="#af"/>
<use x="241.503906" xlink:href="#c"/>
</g>
<path d="m49.6 78.2h10 10" fill="none" stroke="#9467bd" stroke-dasharray="5.55,2.4" stroke-opacity=".9" stroke-width="1.5"/>
<use x="59.645553" y="78.187282" fill="#9467bd" fill-opacity=".9" stroke="#9467bd" stroke-opacity=".9" xlink:href="#e"/>
<g transform="translate(77.6 81.7) scale(.1 -.1)">
<use xlink:href="#ab"/>
<use x="27.783203" xlink:href="#p"/>
<use x="55.566406" xlink:href="#s"/>
<use x="118.945312" xlink:href="#ad"/>
<use x="182.324219" xlink:href="#af"/>
<use x="241.503906" xlink:href="#j"/>
<use x="277.587891" xlink:href="#t"/>
<use x="338.867188" xlink:href="#t"/>
<use x="400.146484" xlink:href="#r"/>
<use x="439.009766" xlink:href="#y"/>
<use x="493.990234" xlink:href="#al"/>
<use x="557.369141" xlink:href="#ae"/>
<use x="620.992188" xlink:href="#i"/>
</g>
<path d="m49.6 92.9h10 10" fill="none" stroke="#2ca02c" stroke-linecap="square" stroke-opacity=".9" stroke-width="1.5"/>
<use x="59.645553" y="92.865407" fill="#2ca02c" fill-opacity=".9" stroke="#2ca02c" stroke-opacity=".9" xlink:href="#d"/>
<g transform="translate(77.6 96.4) scale(.1 -.1)">
<use xlink:href="#v"/>
<use x="97.412109" xlink:href="#t"/>
<use x="158.691406" xlink:href="#y"/>
<use x="213.671875" xlink:href="#u"/>
<use x="274.853516" xlink:href="#x"/>
</g>
<path d="m40.6 700h663v-313h-663z" fill="#fff"/>
<path d="m41.7 700v-313" clip-path="url(#f)" fill="none" stroke="#b0b0b0" stroke-linecap="square" stroke-width=".8"/>
<use x="41.707242" y="700.321635" stroke="#000000" stroke-width=".8" xlink:href="#k"/>
<g transform="translate(20.8 715) scale(.1 -.1)">
<use xlink:href="#c"/>
<use x="63.623047" xlink:href="#b"/>
<use x="127.246094" xlink:href="#c"/>
<use x="190.869141" xlink:href="#i"/>
<use x="254.492188" xlink:href="#j"/>
<use x="290.576172" xlink:href="#b"/>
<use x="354.199219" xlink:href="#c"/>
</g>
<path d="m98.4 700v-313" clip-path="url(#f)" fill="none" stroke="#b0b0b0" stroke-linecap="square" stroke-width=".8"/>
<use x="98.355577" y="700.321635" stroke="#000000" stroke-width=".8" xlink:href="#k"/>
<g transform="translate(77.5 715) scale(.1 -.1)">
<use xlink:href="#c"/>
<use x="63.623047" xlink:href="#b"/>
<use x="127.246094" xlink:href="#c"/>
<use x="190.869141" xlink:href="#i"/>
<use x="254.492188" xlink:href="#j"/>
<use x="290.576172" xlink:href="#b"/>
<use x="354.199219" xlink:href="#aj"/>
</g>
<path d="m159 700v-313" clip-path="url(#f)" fill="none" stroke="#b0b0b0" stroke-linecap="square" stroke-width=".8"/>
<use x="158.910694" y="700.321635" stroke="#000000" stroke-width=".8" xlink:href="#k"/>
<g transform="translate(138 715) scale(.1 -.1)">
<use xlink:href="#c"/>
<use x="63.623047" xlink:href="#b"/>
<use x="127.246094" xlink:href="#c"/>
<use x="190.869141" xlink:href="#i"/>
<use x="254.492188" xlink:href="#j"/>
<use x="290.576172" xlink:href="#b"/>
<use x="354.199219" xlink:href="#i"/>
</g>
<path d="m218 700v-313" clip-path="url(#f)" fill="none" stroke="#b0b0b0" stroke-linecap="square" stroke-width=".8"/>
<use x="217.51242" y="700.321635" stroke="#000000" stroke-width=".8" xlink:href="#k"/>
<g transform="translate(197 715) scale(.1 -.1)">
<use xlink:href="#c"/>
<use x="63.623047" xlink:href="#b"/>
<use x="127.246094" xlink:href="#c"/>
<use x="190.869141" xlink:href="#i"/>
<use x="254.492188" xlink:href="#j"/>
<use x="290.576172" xlink:href="#b"/>
<use x="354.199219" xlink:href="#z"/>
</g>
<path d="m278 700v-313" clip-path="url(#f)" fill="none" stroke="#b0b0b0" stroke-linecap="square" stroke-width=".8"/>
<use x="278.067537" y="700.321635" stroke="#000000" stroke-width=".8" xlink:href="#k"/>
<g transform="translate(257 715) scale(.1 -.1)">
<use xlink:href="#c"/>
<use x="63.623047" xlink:href="#b"/>
<use x="127.246094" xlink:href="#c"/>
<use x="190.869141" xlink:href="#i"/>
<use x="254.492188" xlink:href="#j"/>
<use x="290.576172" xlink:href="#b"/>
<use x="354.199219" xlink:href="#ae"/>
</g>
<path d="m337 700v-313" clip-path="url(#f)" fill="none" stroke="#b0b0b0" stroke-linecap="square" stroke-width=".8"/>
<use x="336.669263" y="700.321635" stroke="#000000" stroke-width=".8" xlink:href="#k"/>
<g transform="translate(316 715) scale(.1 -.1)">
<use xlink:href="#c"/>
<use x="63.623047" xlink:href="#b"/>
<use x="127.246094" xlink:href="#c"/>
<use x="190.869141" xlink:href="#i"/>
<use x="254.492188" xlink:href="#j"/>
<use x="290.576172" xlink:href="#b"/>
<use x="354.199219" xlink:href="#ag"/>
</g>
<path d="m397 700v-313" clip-path="url(#f)" fill="none" stroke="#b0b0b0" stroke-linecap="square" stroke-width=".8"/>
<use x="397.22438" y="700.321635" stroke="#000000" stroke-width=".8" xlink:href="#k"/>
<g transform="translate(376 715) scale(.1 -.1)">
<use xlink:href="#c"/>
<use x="63.623047" xlink:href="#b"/>
<use x="127.246094" xlink:href="#c"/>
<use x="190.869141" xlink:href="#i"/>
<use x="254.492188" xlink:href="#j"/>
<use x="290.576172" xlink:href="#b"/>
<use x="354.199219" xlink:href="#ai"/>
</g>
<path d="m458 700v-313" clip-path="url(#f)" fill="none" stroke="#b0b0b0" stroke-linecap="square" stroke-width=".8"/>
<use x="457.779497" y="700.321635" stroke="#000000" stroke-width=".8" xlink:href="#k"/>
<g transform="translate(437 715) scale(.1 -.1)">
<use xlink:href="#c"/>
<use x="63.623047" xlink:href="#b"/>
<use x="127.246094" xlink:href="#c"/>
<use x="190.869141" xlink:href="#i"/>
<use x="254.492188" xlink:href="#j"/>
<use x="290.576172" xlink:href="#b"/>
<use x="354.199219" xlink:href="#ac"/>
</g>
<path d="m516 700v-313" clip-path="url(#f)" fill="none" stroke="#b0b0b0" stroke-linecap="square" stroke-width=".8"/>
<use x="516.381223" y="700.321635" stroke="#000000" stroke-width=".8" xlink:href="#k"/>
<g transform="translate(495 715) scale(.1 -.1)">
<use xlink:href="#c"/>
<use x="63.623047" xlink:href="#b"/>
<use x="127.246094" xlink:href="#c"/>
<use x="190.869141" xlink:href="#i"/>
<use x="254.492188" xlink:href="#j"/>
<use x="290.576172" xlink:href="#q"/>
<use x="354.199219" xlink:href="#b"/>
</g>
<path d="m577 700v-313" clip-path="url(#f)" fill="none" stroke="#b0b0b0" stroke-linecap="square" stroke-width=".8"/>
<use x="576.93634" y="700.321635" stroke="#000000" stroke-width=".8" xlink:href="#k"/>
<g transform="translate(556 715) scale(.1 -.1)">
<use xlink:href="#c"/>
<use x="63.623047" xlink:href="#b"/>
<use x="127.246094" xlink:href="#c"/>
<use x="190.869141" xlink:href="#i"/>
<use x="254.492188" xlink:href="#j"/>
<use x="290.576172" xlink:href="#q"/>
<use x="354.199219" xlink:href="#q"/>
</g>
<path d="m636 700v-313" clip-path="url(#f)" fill="none" stroke="#b0b0b0" stroke-linecap="square" stroke-width=".8"/>
<use x="635.538066" y="700.321635" stroke="#000000" stroke-width=".8" xlink:href="#k"/>
<g transform="translate(615 715) scale(.1 -.1)">
<use xlink:href="#c"/>
<use x="63.623047" xlink:href="#b"/>
<use x="127.246094" xlink:href="#c"/>
<use x="190.869141" xlink:href="#i"/>
<use x="254.492188" xlink:href="#j"/>
<use x="290.576172" xlink:href="#q"/>
<use x="354.199219" xlink:href="#c"/>
</g>
<path d="m696 700v-313" clip-path="url(#f)" fill="none" stroke="#b0b0b0" stroke-linecap="square" stroke-width=".8"/>
<use x="696.093183" y="700.321635" stroke="#000000" stroke-width=".8" xlink:href="#k"/>
<g transform="translate(675 715) scale(.1 -.1)">
<use xlink:href="#c"/>
<use x="63.623047" xlink:href="#b"/>
<use x="127.246094" xlink:href="#c"/>
<use x="190.869141" xlink:href="#z"/>
<use x="254.492188" xlink:href="#j"/>
<use x="290.576172" xlink:href="#b"/>
<use x="354.199219" xlink:href="#q"/>
</g>
<path d="m40.6 685h663" clip-path="url(#f)" fill="none" stroke="#b0b0b0" stroke-linecap="square" stroke-width=".8"/>
<use x="40.645553" y="684.943449" stroke="#000000" stroke-width=".8" xlink:href="#n"/>
<g transform="translate(3 689) scale(.1 -.1)">
<use xlink:href="#b"/>
<use x="63.623047" xlink:href="#l"/>
<use x="95.410156" xlink:href="#ac"/>
<use x="159.033203" xlink:href="#b"/>
<use x="222.65625" xlink:href="#o"/>
</g>
<path d="m40.6 647h663" clip-path="url(#f)" fill="none" stroke="#b0b0b0" stroke-linecap="square" stroke-width=".8"/>
<use x="40.645553" y="647.223351" stroke="#000000" stroke-width=".8" xlink:href="#n"/>
<g transform="translate(3 651) scale(.1 -.1)">
<use xlink:href="#b"/>
<use x="63.623047" xlink:href="#l"/>
<use x="95.410156" xlink:href="#ac"/>
<use x="159.033203" xlink:href="#aj"/>
<use x="222.65625" xlink:href="#o"/>
</g>
<path d="m40.6 610h663" clip-path="url(#f)" fill="none" stroke="#b0b0b0" stroke-linecap="square" stroke-width=".8"/>
<use x="40.645553" y="609.503253" stroke="#000000" stroke-width=".8" xlink:href="#n"/>
<g transform="translate(3 613) scale(.1 -.1)">
<use xlink:href="#b"/>
<use x="63.623047" xlink:href="#l"/>
<use x="95.410156" xlink:href="#ac"/>
<use x="159.033203" xlink:href="#z"/>
<use x="222.65625" xlink:href="#o"/>
</g>
<path d="m40.6 572h663" clip-path="url(#f)" fill="none" stroke="#b0b0b0" stroke-linecap="square" stroke-width=".8"/>
<use x="40.645553" y="571.783155" stroke="#000000" stroke-width=".8" xlink:href="#n"/>
<g transform="translate(3 576) scale(.1 -.1)">
<use xlink:href="#b"/>
<use x="63.623047" xlink:href="#l"/>
<use x="95.410156" xlink:href="#ac"/>
<use x="159.033203" xlink:href="#ag"/>
<use x="222.65625" xlink:href="#o"/>
</g>
<path d="m40.6 534h663" clip-path="url(#f)" fill="none" stroke="#b0b0b0" stroke-linecap="square" stroke-width=".8"/>
<use x="40.645553" y="534.063057" stroke="#000000" stroke-width=".8" xlink:href="#n"/>
<g transform="translate(3 538) scale(.1 -.1)">
<use xlink:href="#q"/>
<use x="63.623047" xlink:href="#l"/>
<use x="95.410156" xlink:href="#b"/>
<use x="159.033203" xlink:href="#b"/>
<use x="222.65625" xlink:href="#o"/>
</g>
<path d="m40.6 496h663" clip-path="url(#f)" fill="none" stroke="#b0b0b0" stroke-linecap="square" stroke-width=".8"/>
<use x="40.645553" y="496.342959" stroke="#000000" stroke-width=".8" xlink:href="#n"/>
<g transform="translate(3 500) scale(.1 -.1)">
<use xlink:href="#q"/>
<use x="63.623047" xlink:href="#l"/>
<use x="95.410156" xlink:href="#b"/>
<use x="159.033203" xlink:href="#c"/>
<use x="222.65625" xlink:href="#o"/>
</g>
<path d="m40.6 459h663" clip-path="url(#f)" fill="none" stroke="#b0b0b0" stroke-linecap="square" stroke-width=".8"/>
<use x="40.645553" y="458.622861" stroke="#000000" stroke-width=".8" xlink:href="#n"/>
<g transform="translate(3 462) scale(.1 -.1)">
<use xlink:href="#q"/>
<use x="63.623047" xlink:href="#l"/>
<use x="95.410156" xlink:href="#b"/>
<use x="159.033203" xlink:href="#z"/>
<use x="222.65625" xlink:href="#o"/>
</g>
<path d="m40.6 421h663" clip-path="url(#f)" fill="none" stroke="#b0b0b0" stroke-linecap="square" stroke-width=".8"/>
<use x="40.645553" y="420.902763" stroke="#000000" stroke-width=".8" xlink:href="#n"/>
<g transform="translate(3 425) scale(.1 -.1)">
<use xlink:href="#q"/>
<use x="63.623047" xlink:href="#l"/>
<use x="95.410156" xlink:href="#b"/>
<use x="159.033203" xlink:href="#ag"/>
<use x="222.65625" xlink:href="#o"/>
</g>
<g stroke="#1f77b4" stroke-opacity=".9">
<path d="m70.2 537 217-13.7 171 4.96 13.4 2.33 9.82 14.3 3.83-6.49 11.3 0.228 16.3 1.06 9.59 14.9 2.92-4.64 14.7-2.1 5.75 4.17 1.63 3.71 6.36-5.47 13.7-6.76 13.3 4.62 14.1 8.31 11.9-5.05 1.73-2.9 13.6-23.3 13.4 3.88 13.6-11.6 13.5 14.3" clip-path="url(#f)" fill="none" stroke-linecap="square" stroke-width="1.5"/>
<g clip-path="url(#f)" fill="#1f77b4" fill-opacity=".9">
<use x="70.246689" y="537.249377" xlink:href="#a"/>
<use x="287.165138" y="523.571252" xlink:href="#a"/>
<use x="457.72128" y="528.533771" xlink:href="#a"/>
<use x="471.109943" y="530.863209" xlink:href="#a"/>
<use x="480.927518" y="545.178774" xlink:href="#a"/>
<use x="484.760595" y="538.692658" xlink:href="#a"/>
<use x="496.084701" y="538.920292" xlink:href="#a"/>
<use x="512.41437" y="539.984898" xlink:href="#a"/>
<use x="522.006017" y="554.856199" xlink:href="#a"/>
<use x="524.922877" y="550.221047" xlink:href="#a"/>
<use x="539.655672" y="548.117385" xlink:href="#a"/>
<use x="545.403864" y="552.28491" xlink:href="#a"/>
<use x="547.037635" y="555.997539" xlink:href="#a"/>
<use x="553.396556" y="550.523907" xlink:href="#a"/>
<use x="567.061565" y="543.759155" xlink:href="#a"/>
<use x="580.369967" y="548.37799" xlink:href="#a"/>
<use x="594.518938" y="556.692516" xlink:href="#a"/>
<use x="606.463267" y="551.640373" xlink:href="#a"/>
<use x="608.193126" y="548.738612" xlink:href="#a"/>
<use x="621.757187" y="525.45673" xlink:href="#a"/>
<use x="635.184896" y="529.33719" xlink:href="#a"/>
<use x="648.803082" y="517.766179" xlink:href="#a"/>
<use x="662.269429" y="532.106163" xlink:href="#a"/>
</g>
</g>
<g stroke="#1f77b4" stroke-opacity=".9">
<path d="m70.2 571 217-23.8 171 6.3 13.4 4.68 13.7-12.1 11.3-3.75 16.3 24.4 12.5-7.03 14.7 6.37 5.75 5.34 7.99 9.72 13.7-2.57 13.3-12.9 14.1 7.64 13.7-3.14 13.6-14.5 13.4-4.76 13.6 5.99 13.5 0.401" clip-path="url(#f)" fill="none" stroke-dasharray="1.5,2.475" stroke-width="1.5"/>
<g clip-path="url(#f)" fill="#1f77b4" fill-opacity=".9">
<use x="70.246689" y="571.279265" xlink:href="#a"/>
<use x="287.165138" y="547.467069" xlink:href="#a"/>
<use x="457.72128" y="553.769864" xlink:href="#a"/>
<use x="471.109943" y="558.451278" xlink:href="#a"/>
<use x="484.760595" y="546.34794" xlink:href="#a"/>
<use x="496.084701" y="542.597384" xlink:href="#a"/>
<use x="512.41437" y="566.969804" xlink:href="#a"/>
<use x="524.922877" y="559.936106" xlink:href="#a"/>
<use x="539.655672" y="566.310015" xlink:href="#a"/>
<use x="545.403864" y="571.647475" xlink:href="#a"/>
<use x="553.396556" y="581.371686" xlink:href="#a"/>
<use x="567.061565" y="578.797238" xlink:href="#a"/>
<use x="580.369967" y="565.932583" xlink:href="#a"/>
<use x="594.518938" y="573.576916" xlink:href="#a"/>
<use x="608.193126" y="570.441885" xlink:href="#a"/>
<use x="621.757187" y="555.909973" xlink:href="#a"/>
<use x="635.184896" y="551.151259" xlink:href="#a"/>
<use x="648.803082" y="557.142852" xlink:href="#a"/>
<use x="662.269429" y="557.544256" xlink:href="#a"/>
</g>
</g>
<g stroke="#9467bd" stroke-opacity=".9">
<path d="m287 619 171 63.4 13.4-8.14 13.7 4.73 11.3-6.86 16.3 11.3 12.5-14.8 14.7 17.6 5.75-15.9 7.99 5.12 13.7 0.214 13.3-94.2 14.1 13.8 13.7-3.17 13.6-35.5 13.4-0.404 13.6 59.2 13.5-10.2" clip-path="url(#f)" fill="none" stroke-dasharray="5.55,2.4" stroke-width="1.5"/>
<g clip-path="url(#f)" fill="#9467bd" fill-opacity=".9">
<use x="287.165138" y="618.851618" xlink:href="#e"/>
<use x="457.72128" y="682.283583" xlink:href="#e"/>
<use x="471.109943" y="674.142085" xlink:href="#e"/>
<use x="484.760595" y="678.873667" xlink:href="#e"/>
<use x="496.084701" y="672.014654" xlink:href="#e"/>
<use x="512.41437" y="683.28444" xlink:href="#e"/>
<use x="524.922877" y="668.508431" xlink:href="#e"/>
<use x="539.655672" y="686.103617" xlink:href="#e"/>
<use x="545.403864" y="670.215974" xlink:href="#e"/>
<use x="553.396556" y="675.333486" xlink:href="#e"/>
<use x="567.061565" y="675.547899" xlink:href="#e"/>
<use x="580.369967" y="581.368731" xlink:href="#e"/>
<use x="594.518938" y="595.171432" xlink:href="#e"/>
<use x="608.193126" y="592.005541" xlink:href="#e"/>
<use x="621.757187" y="556.459793" xlink:href="#e"/>
<use x="635.184896" y="556.055861" xlink:href="#e"/>
<use x="648.803082" y="615.226954" xlink:href="#e"/>
<use x="662.269429" y="604.986183" xlink:href="#e"/>
</g>
</g>
<g stroke="#2ca02c" stroke-opacity=".9">
<path d="m70.2 543 217 24.5 171 38.6 13.4-2.43 13.7 1.78 11.3-9.21 16.3 16.5 12.5-6.48 14.7 0.881 5.75-13.6 7.99-5.41 13.7 10.5 13.3-14.7 14.1-22 13.7 5.36 13.6-11.1 13.4-2.49 13.6 2.85 13.5-10.7" clip-path="url(#f)" fill="none" stroke-linecap="square" stroke-width="1.5"/>
<g clip-path="url(#f)" fill="#2ca02c" fill-opacity=".9">
<use x="70.246689" y="542.713675" xlink:href="#d"/>
<use x="287.165138" y="567.178755" xlink:href="#d"/>
<use x="457.72128" y="605.827727" xlink:href="#d"/>
<use x="471.109943" y="603.393156" xlink:href="#d"/>
<use x="484.760595" y="605.171704" xlink:href="#d"/>
<use x="496.084701" y="595.959386" xlink:href="#d"/>
<use x="512.41437" y="612.485443" xlink:href="#d"/>
<use x="524.922877" y="606.001237" xlink:href="#d"/>
<use x="539.655672" y="606.88215" xlink:href="#d"/>
<use x="545.403864" y="593.290032" xlink:href="#d"/>
<use x="553.396556" y="587.881555" xlink:href="#d"/>
<use x="567.061565" y="598.358938" xlink:href="#d"/>
<use x="580.369967" y="583.661023" xlink:href="#d"/>
<use x="594.518938" y="561.697102" xlink:href="#d"/>
<use x="608.193126" y="567.053003" xlink:href="#d"/>
<use x="621.757187" y="555.938355" xlink:href="#d"/>
<use x="635.184896" y="553.451567" xlink:href="#d"/>
<use x="648.803082" y="556.299004" xlink:href="#d"/>
<use x="662.269429" y="545.645989" xlink:href="#d"/>
</g>
</g>
<path d="m70.2 540 217 40.7 171-98.1 13.4-23.3 13.7-10.9 11.3 4.44 57.3 41.6 13.7-1.74 13.3-18.3 14.1 7.3 13.7-4.2 13.6-14.5 13.4-4.9 13.6-22.6 13.5 25.7" clip-path="url(#f)" fill="none" stroke="#d62728" stroke-linecap="square" stroke-opacity=".9" stroke-width="1.5"/>
<defs>
<path id="g" d="m0 1.25c0.332 0 0.649-0.132 0.884-0.366 0.234-0.234 0.366-0.552 0.366-0.884s-0.132-0.649-0.366-0.884c-0.234-0.234-0.552-0.366-0.884-0.366s-0.649 0.132-0.884 0.366c-0.234 0.234-0.366 0.552-0.366 0.884s0.132 0.649 0.366 0.884c0.234 0.234 0.552 0.366 0.884 0.366z" stroke="#d62728" stroke-opacity=".9"/>
</defs>
<g clip-path="url(#f)" fill="#d62728" fill-opacity=".9" stroke="#d62728" stroke-opacity=".9">
<use x="70.246689" y="539.773012" xlink:href="#g"/>
<use x="287.165138" y="580.47345" xlink:href="#g"/>
<use x="457.72128" y="482.401061" xlink:href="#g"/>
<use x="471.109943" y="459.115113" xlink:href="#g"/>
<use x="484.760595" y="448.242733" xlink:href="#g"/>
<use x="496.084701" y="452.680704" xlink:href="#g"/>
<use x="553.396556" y="494.310402" xlink:href="#g"/>
<use x="567.061565" y="492.573745" xlink:href="#g"/>
<use x="580.369967" y="474.277924" xlink:href="#g"/>
<use x="594.518938" y="481.579947" xlink:href="#g"/>
<use x="608.193126" y="477.376273" xlink:href="#g"/>
<use x="621.757187" y="462.837483" xlink:href="#g"/>
<use x="635.184896" y="457.936943" xlink:href="#g"/>
<use x="648.803082" y="435.297685" xlink:href="#g"/>
<use x="662.269429" y="461.020845" xlink:href="#g"/>
</g>
<g stroke="#d62728" stroke-opacity=".9">
<path d="m70.2 677 387-253 13.4-22.3 13.7 5.39 11.3-3.7 43.6 24.9 5.75 50.8 7.99-2.39 13.7-38 13.3 224 14.1-29.3 13.7 12.9 13.6-11.7 13.4 28.1 13.6-7.99 13.5 2.72" clip-path="url(#f)" fill="none" stroke-dasharray="1.5,2.475" stroke-width="1.5"/>
<g clip-path="url(#f)" fill="#d62728" fill-opacity=".9">
<use x="70.246689" y="676.73433" xlink:href="#g"/>
<use x="457.72128" y="424.091927" xlink:href="#g"/>
<use x="471.109943" y="401.743258" xlink:href="#g"/>
<use x="484.760595" y="407.135426" xlink:href="#g"/>
<use x="496.084701" y="403.434237" xlink:href="#g"/>
<use x="539.655672" y="428.321889" xlink:href="#g"/>
<use x="545.403864" y="479.125368" xlink:href="#g"/>
<use x="553.396556" y="476.736959" xlink:href="#g"/>
<use x="567.061565" y="438.782276" xlink:href="#g"/>
<use x="580.369967" y="662.862318" xlink:href="#g"/>
<use x="594.518938" y="633.580009" xlink:href="#g"/>
<use x="608.193126" y="646.527926" xlink:href="#g"/>
<use x="621.757187" y="634.877809" xlink:href="#g"/>
<use x="635.184896" y="662.94712" xlink:href="#g"/>
<use x="648.803082" y="654.955367" xlink:href="#g"/>
<use x="662.269429" y="657.678365" xlink:href="#g"/>
</g>
</g>
<path d="m40.6 700v-313" fill="none" stroke="#000" stroke-linecap="square" stroke-width=".8"/>
<path d="m704 700v-313" fill="none" stroke="#000" stroke-linecap="square" stroke-width=".8"/>
<path d="m40.6 700h663" fill="none" stroke="#000" stroke-linecap="square" stroke-width=".8"/>
<path d="m40.6 388h663" fill="none" stroke="#000" stroke-linecap="square" stroke-width=".8"/>
<g clip-path="url(#f)">
<g transform="translate(58.2 526) rotate(-90) scale(.1 -.1)">
<use xlink:href="#w"/>
<use x="35.205078" xlink:href="#t"/>
<use x="96.484375" xlink:href="#x"/>
<use x="148.583984" xlink:href="#aa"/>
<use x="187.792969" xlink:href="#m"/>
<use x="249.316406" xlink:href="#r"/>
<use x="290.429688" xlink:href="#DejaVuSans-20"/>
<use x="322.216797" xlink:href="#ar"/>
</g>
</g>
<g clip-path="url(#f)">
<g transform="translate(58.2 594) rotate(-90) scale(.1 -.1)">
<use xlink:href="#as"/>
<use x="143.359375" xlink:href="#DejaVuSans-20"/>
<use x="175.146484" xlink:href="#x"/>
<use x="227.246094" xlink:href="#ab"/>
<use x="255.029297" xlink:href="#u"/>
<use x="316.210938" xlink:href="#ah"/>
<use x="397.998047" xlink:href="#m"/>
<use x="459.521484" xlink:href="#r"/>
</g>
</g>
<g transform="translate(261 382) scale(.12 -.12)">
<defs>
<path id="ay" transform="scale(.0156)" d="m628 4666h631v-4341q0-844-320-1225t-1030-381h-240v531h197q418 0 590 235 172 234 172 840v4341z"/>
<path id="az" transform="scale(.0156)" d="m628 4666h631v-4666h-631v4666z"/>
</defs>
<use xlink:href="#ao"/>
<use x="63.183594" xlink:href="#w"/>
<use x="98.388672" xlink:href="#w"/>
<use x="133.59375" xlink:href="#m"/>
<use x="195.117188" xlink:href="#y"/>
<use x="250.097656" xlink:href="#aa"/>
<use x="289.306641" xlink:href="#DejaVuSans-20"/>
<use x="321.09375" xlink:href="#u"/>
<use x="382.275391" xlink:href="#w"/>
<use x="417.480469" xlink:href="#DejaVuSans-20"/>
<use x="449.267578" xlink:href="#ay"/>
<use x="478.759766" xlink:href="#az"/>
<use x="508.251953" xlink:href="#am"/>
<use x="569.335938" xlink:href="#DejaVuSans-20"/>
<use x="601.123047" xlink:href="#ak"/>
<use x="660.302734" xlink:href="#x"/>
<use x="712.402344" xlink:href="#l"/>
<use x="744.189453" xlink:href="#DejaVuSans-20"/>
<use x="775.976562" xlink:href="#am"/>
<use x="833.935547" xlink:href="#p"/>
<use x="861.71875" xlink:href="#m"/>
<use x="923.242188" xlink:href="#r"/>
<use x="964.355469" xlink:href="#DejaVuSans-20"/>
<use x="996.142578" xlink:href="#q"/>
<use x="1059.765625" xlink:href="#DejaVuSans-20"/>
<use x="1091.552734" xlink:href="#aq"/>
<use x="1130.566406" xlink:href="#x"/>
<use x="1182.666016" xlink:href="#t"/>
<use x="1243.945312" xlink:href="#v"/>
<use x="1341.357422" xlink:href="#m"/>
<use x="1402.880859" xlink:href="#DejaVuSans-20"/>
<use x="1434.667969" xlink:href="#y"/>
<use x="1489.648438" xlink:href="#u"/>
<use x="1550.830078" xlink:href="#v"/>
<use x="1648.242188" xlink:href="#v"/>
<use x="1745.654297" xlink:href="#p"/>
<use x="1773.4375" xlink:href="#aa"/>
<use x="1812.646484" xlink:href="#ap"/>
</g>
<path d="m47.6 484h100q2 0 2-2v-87.1q0-2-2-2h-100q-2 0-2 2v87.1q0 2 2 2z" fill="#fff" opacity=".8" stroke="#ccc"/>
<path d="m49.6 401h10 10" fill="none" stroke="#1f77b4" stroke-linecap="square" stroke-opacity=".9" stroke-width="1.5"/>
<use x="59.645553" y="400.623678" fill="#1f77b4" fill-opacity=".9" stroke="#1f77b4" stroke-opacity=".9" xlink:href="#a"/>
<g transform="translate(77.6 404) scale(.1 -.1)">
<use xlink:href="#ab"/>
<use x="27.783203" xlink:href="#p"/>
<use x="55.566406" xlink:href="#s"/>
<use x="118.945312" xlink:href="#ad"/>
<use x="182.324219" xlink:href="#af"/>
</g>
<path d="m49.6 415h10 10" fill="none" stroke="#1f77b4" stroke-dasharray="1.5,2.475" stroke-opacity=".9" stroke-width="1.5"/>
<use x="59.645553" y="415.301803" fill="#1f77b4" fill-opacity=".9" stroke="#1f77b4" stroke-opacity=".9" xlink:href="#a"/>
<g transform="translate(77.6 419) scale(.1 -.1)">
<use xlink:href="#ab"/>
<use x="27.783203" xlink:href="#p"/>
<use x="55.566406" xlink:href="#s"/>
<use x="118.945312" xlink:href="#ad"/>
<use x="182.324219" xlink:href="#af"/>
<use x="241.503906" xlink:href="#c"/>
</g>
<path d="m49.6 430h10 10" fill="none" stroke="#9467bd" stroke-dasharray="5.55,2.4" stroke-opacity=".9" stroke-width="1.5"/>
<use x="59.645553" y="429.979928" fill="#9467bd" fill-opacity=".9" stroke="#9467bd" stroke-opacity=".9" xlink:href="#e"/>
<g transform="translate(77.6 433) scale(.1 -.1)">
<use xlink:href="#ab"/>
<use x="27.783203" xlink:href="#p"/>
<use x="55.566406" xlink:href="#s"/>
<use x="118.945312" xlink:href="#ad"/>
<use x="182.324219" xlink:href="#af"/>
<use x="241.503906" xlink:href="#j"/>
<use x="277.587891" xlink:href="#t"/>
<use x="338.867188" xlink:href="#t"/>
<use x="400.146484" xlink:href="#r"/>
<use x="439.009766" xlink:href="#y"/>
<use x="493.990234" xlink:href="#al"/>
<use x="557.369141" xlink:href="#ae"/>
<use x="620.992188" xlink:href="#i"/>
</g>
<path d="m49.6 445h10 10" fill="none" stroke="#2ca02c" stroke-linecap="square" stroke-opacity=".9" stroke-width="1.5"/>
<use x="59.645553" y="444.658053" fill="#2ca02c" fill-opacity=".9" stroke="#2ca02c" stroke-opacity=".9" xlink:href="#d"/>
<g transform="translate(77.6 448) scale(.1 -.1)">
<use xlink:href="#v"/>
<use x="97.412109" xlink:href="#t"/>
<use x="158.691406" xlink:href="#y"/>
<use x="213.671875" xlink:href="#u"/>
<use x="274.853516" xlink:href="#x"/>
</g>
<path d="m49.6 459h10 10" fill="none" stroke="#d62728" stroke-linecap="square" stroke-opacity=".9" stroke-width="1.5"/>
<use x="59.645553" y="459.336178" fill="#d62728" fill-opacity=".9" stroke="#d62728" stroke-opacity=".9" xlink:href="#g"/>
<g transform="translate(77.6 463) scale(.1 -.1)">
<use xlink:href="#ah"/>
<use x="81.787109" xlink:href="#p"/>
<use x="109.570312" xlink:href="#s"/>
<use x="172.949219" xlink:href="#ae"/>
<use x="236.572266" xlink:href="#i"/>
</g>
<path d="m49.6 474h10 10" fill="none" stroke="#d62728" stroke-dasharray="1.5,2.475" stroke-opacity=".9" stroke-width="1.5"/>
<use x="59.645553" y="474.014303" fill="#d62728" fill-opacity=".9" stroke="#d62728" stroke-opacity=".9" xlink:href="#g"/>
<g transform="translate(77.6 478) scale(.1 -.1)">
<use xlink:href="#ah"/>
<use x="81.787109" xlink:href="#p"/>
<use x="109.570312" xlink:href="#s"/>
<use x="172.949219" xlink:href="#aj"/>
<use x="236.572266" xlink:href="#c"/>
</g>
<g transform="translate(229 12.1) scale(.12 -.12)">
<defs>
<path id="ax" transform="scale(.0156)" d="m1259 4147v-1753h794q441 0 681 228 241 228 241 650 0 419-241 647-240 228-681 228h-794zm-631 519h1425q785 0 1186-355 402-355 402-1039 0-691-402-1044-401-353-1186-353h-794v-1875h-631v4666z"/>
<path id="au" transform="scale(.0156)" d="m1159 525v-1856h-578v4831h578v-531q182 312 458 463 277 152 661 152 638 0 1036-506 399-506 399-1331t-399-1332q-398-506-1036-506-384 0-661 152-276 152-458 464zm1957 1222q0 634-261 995t-717 361q-457 0-718-361t-261-995 261-995 718-361q456 0 717 361t261 995z"/>
<path id="aw" transform="scale(.0156)" d="m3116 1747q0 634-261 995t-717 361q-457 0-718-361t-261-995 261-995 718-361q456 0 717 361t261 995zm-1957 1222q182 312 458 463 277 152 661 152 638 0 1036-506 399-506 399-1331t-399-1332q-398-506-1036-506-384 0-661 152-276 152-458 464v-525h-578v4863h578v-1894z"/>
<path id="at" transform="scale(.0156)" d="m2059-325q-243-625-475-815-231-191-618-191h-460v481h338q237 0 368 113 132 112 291 531l103 262-1415 3444h609l1094-2737 1094 2737h609l-1538-3825z"/>
</defs>
<use xlink:href="#ax"/>
<use x="56.677734" xlink:href="#m"/>
<use x="118.201172" xlink:href="#r"/>
<use x="159.314453" xlink:href="#w"/>
<use x="194.519531" xlink:href="#u"/>
<use x="255.701172" xlink:href="#r"/>
<use x="295.064453" xlink:href="#v"/>
<use x="392.476562" xlink:href="#t"/>
<use x="453.755859" xlink:href="#s"/>
<use x="517.134766" xlink:href="#y"/>
<use x="572.115234" xlink:href="#m"/>
<use x="633.638672" xlink:href="#DejaVuSans-20"/>
<use x="665.425781" xlink:href="#p"/>
<use x="693.208984" xlink:href="#v"/>
<use x="790.621094" xlink:href="#au"/>
<use x="854.097656" xlink:href="#r"/>
<use x="892.960938" xlink:href="#u"/>
<use x="954.142578" xlink:href="#ak"/>
<use x="1013.322266" xlink:href="#m"/>
<use x="1074.845703" xlink:href="#v"/>
<use x="1172.257812" xlink:href="#m"/>
<use x="1233.78125" xlink:href="#s"/>
<use x="1297.160156" xlink:href="#aa"/>
<use x="1336.369141" xlink:href="#DejaVuSans-20"/>
<use x="1368.15625" xlink:href="#aw"/>
<use x="1431.632812" xlink:href="#at"/>
<use x="1490.8125" xlink:href="#DejaVuSans-20"/>
<use x="1522.599609" xlink:href="#y"/>
<use x="1577.580078" xlink:href="#u"/>
<use x="1638.761719" xlink:href="#s"/>
<use x="1702.140625" xlink:href="#w"/>
<use x="1737.345703" xlink:href="#p"/>
<use x="1765.128906" xlink:href="#an"/>
<use x="1828.605469" xlink:href="#ad"/>
<use x="1891.984375" xlink:href="#r"/>
<use x="1933.097656" xlink:href="#t"/>
<use x="1994.376953" xlink:href="#aa"/>
<use x="2033.585938" xlink:href="#p"/>
<use x="2061.369141" xlink:href="#u"/>
<use x="2122.550781" xlink:href="#s"/>
</g>
<defs>
<clipPath id="h">
<rect x="40.6" y="35.7" width="663" height="313"/>
</clipPath>
<clipPath id="f">
<rect x="40.6" y="388" width="663" height="313"/>
</clipPath>
</defs>
</svg>
