<?xml version="1.0" encoding="UTF-8"?>
<!DOCTYPE svg  PUBLIC '-//W3C//DTD SVG 1.1//EN'  'http://www.w3.org/Graphics/SVG/1.1/DTD/svg11.dtd'>
<svg width="720pt" height="1080pt" version="1.1" viewBox="0 0 720 1080" xmlns="http://www.w3.org/2000/svg" xmlns:xlink="http://www.w3.org/1999/xlink">
<defs>
<style type="text/css">*{stroke-linejoin: round; stroke-linecap: butt}</style>
</defs>
<path d="m0 1080h720v-1080h-720z" fill="#fff"/>
<path d="m40.6 351h668v-316h-668z" fill="#fff"/>
<path d="m40.6 351v-316" clip-path="url(#u)" fill="none" stroke="#b0b0b0" stroke-linecap="square" stroke-width=".8"/>
<defs>
<path id="o" d="m0 0v3.5" stroke="#000" stroke-width=".8"/>
</defs>
<use x="40.645553" y="351.264775" stroke="#000000" stroke-width=".8" xlink:href="#o"/>
<g transform="translate(32.7 366) scale(.1 -.1)">
<defs>
<path id="b" transform="scale(.0156)" d="m2034 4250q-487 0-733-480-245-479-245-1442 0-959 245-1439 246-480 733-480 491 0 736 480 246 480 246 1439 0 963-246 1442-245 480-736 480zm0 500q785 0 1199-621 414-620 414-1801 0-1178-414-1799-414-620-1199-620-784 0-1198 620-414 621-414 1799 0 1181 414 1801 414 621 1198 621z"/>
<path id="f" transform="scale(.0156)" d="m684 794h660v-794h-660v794z"/>
</defs>
<use xlink:href="#b"/>
<use x="63.623047" xlink:href="#f"/>
<use x="95.410156" xlink:href="#b"/>
</g>
<path d="m174 351v-316" clip-path="url(#u)" fill="none" stroke="#b0b0b0" stroke-linecap="square" stroke-width=".8"/>
<use x="174.326081" y="351.264775" stroke="#000000" stroke-width=".8" xlink:href="#o"/>
<g transform="translate(166 366) scale(.1 -.1)">
<defs>
<path id="x" transform="scale(.0156)" d="m1228 531h2203v-531h-2962v531q359 372 979 998 621 627 780 809 303 340 423 576 121 236 121 464 0 372-261 606-261 235-680 235-297 0-627-103-329-103-704-313v638q381 153 712 231 332 78 607 78 725 0 1156-363 431-362 431-968 0-288-108-546-107-257-392-607-78-91-497-524-418-433-1181-1211z"/>
</defs>
<use xlink:href="#b"/>
<use x="63.623047" xlink:href="#f"/>
<use x="95.410156" xlink:href="#x"/>
</g>
<path d="m308 351v-316" clip-path="url(#u)" fill="none" stroke="#b0b0b0" stroke-linecap="square" stroke-width=".8"/>
<use x="308.00661" y="351.264775" stroke="#000000" stroke-width=".8" xlink:href="#o"/>
<g transform="translate(300 366) scale(.1 -.1)">
<defs>
<path id="ah" transform="scale(.0156)" d="m2419 4116-1594-2491h1594v2491zm-166 550h794v-3041h666v-525h-666v-1100h-628v1100h-2106v609l1940 2957z"/>
</defs>
<use xlink:href="#b"/>
<use x="63.623047" xlink:href="#f"/>
<use x="95.410156" xlink:href="#ah"/>
</g>
<path d="m442 351v-316" clip-path="url(#u)" fill="none" stroke="#b0b0b0" stroke-linecap="square" stroke-width=".8"/>
<use x="441.68714" y="351.264775" stroke="#000000" stroke-width=".8" xlink:href="#o"/>
<g transform="translate(434 366) scale(.1 -.1)">
<defs>
<path id="ac" transform="scale(.0156)" d="m2113 2584q-425 0-674-291-248-290-248-796 0-503 248-796 249-292 674-292t673 292q248 293 248 796 0 506-248 796-248 291-673 291zm1253 1979v-575q-238 112-480 171-242 60-480 60-625 0-955-422-329-422-376-1275 184 272 462 417 279 145 613 145 703 0 1111-427 408-426 408-1160 0-719-425-1154-425-434-1131-434-810 0-1238 620-428 621-428 1799 0 1106 525 1764t1409 658q238 0 480-47t505-140z"/>
</defs>
<use xlink:href="#b"/>
<use x="63.623047" xlink:href="#f"/>
<use x="95.410156" xlink:href="#ac"/>
</g>
<path d="m575 351v-316" clip-path="url(#u)" fill="none" stroke="#b0b0b0" stroke-linecap="square" stroke-width=".8"/>
<use x="575.367668" y="351.264775" stroke="#000000" stroke-width=".8" xlink:href="#o"/>
<g transform="translate(567 366) scale(.1 -.1)">
<defs>
<path id="af" transform="scale(.0156)" d="m2034 2216q-450 0-708-241-257-241-257-662 0-422 257-663 258-241 708-241t709 242q260 243 260 662 0 421-258 662-257 241-711 241zm-631 268q-406 100-633 378-226 279-226 679 0 559 398 884 399 325 1092 325 697 0 1094-325t397-884q0-400-227-679-226-278-629-378 456-106 710-416 255-309 255-755 0-679-414-1042-414-362-1186-362-771 0-1186 362-414 363-414 1042 0 446 256 755 257 310 713 416zm-231 997q0-362 226-565 227-203 636-203 407 0 636 203 230 203 230 565 0 363-230 566-229 203-636 203-409 0-636-203-226-203-226-566z"/>
</defs>
<use xlink:href="#b"/>
<use x="63.623047" xlink:href="#f"/>
<use x="95.410156" xlink:href="#af"/>
</g>
<path d="m709 351v-316" clip-path="url(#u)" fill="none" stroke="#b0b0b0" stroke-linecap="square" stroke-width=".8"/>
<use x="709.048197" y="351.264775" stroke="#000000" stroke-width=".8" xlink:href="#o"/>
<g transform="translate(701 366) scale(.1 -.1)">
<defs>
<path id="t" transform="scale(.0156)" d="m794 531h1031v3560l-1122-225v575l1116 225h631v-4135h1031v-531h-2687v531z"/>
</defs>
<use xlink:href="#t"/>
<use x="63.623047" xlink:href="#f"/>
<use x="95.410156" xlink:href="#b"/>
</g>
<path d="m40.6 351h668" clip-path="url(#u)" fill="none" stroke="#b0b0b0" stroke-linecap="square" stroke-width=".8"/>
<defs>
<path id="j" d="m0 0h-3.5" stroke="#000" stroke-width=".8"/>
</defs>
<use x="40.645553" y="351.264775" stroke="#000000" stroke-width=".8" xlink:href="#j"/>
<g transform="translate(3 355) scale(.1 -.1)">
<defs>
<path id="k" transform="scale(.0156)" d="m4488 3438-1429-1435 1429-1428-372-378-1435 1434-1434-1434-369 378 1425 1428-1425 1435 369 378 1434-1435 1435 1435 372-378z"/>
</defs>
<use xlink:href="#b"/>
<use x="63.623047" xlink:href="#f"/>
<use x="95.410156" xlink:href="#b"/>
<use x="159.033203" xlink:href="#b"/>
<use x="222.65625" xlink:href="#k"/>
</g>
<path d="m40.6 288h668" clip-path="url(#u)" fill="none" stroke="#b0b0b0" stroke-linecap="square" stroke-width=".8"/>
<use x="40.645553" y="288.158339" stroke="#000000" stroke-width=".8" xlink:href="#j"/>
<g transform="translate(3 292) scale(.1 -.1)">
<use xlink:href="#b"/>
<use x="63.623047" xlink:href="#f"/>
<use x="95.410156" xlink:href="#x"/>
<use x="159.033203" xlink:href="#b"/>
<use x="222.65625" xlink:href="#k"/>
</g>
<path d="m40.6 225h668" clip-path="url(#u)" fill="none" stroke="#b0b0b0" stroke-linecap="square" stroke-width=".8"/>
<use x="40.645553" y="225.051903" stroke="#000000" stroke-width=".8" xlink:href="#j"/>
<g transform="translate(3 229) scale(.1 -.1)">
<use xlink:href="#b"/>
<use x="63.623047" xlink:href="#f"/>
<use x="95.410156" xlink:href="#ah"/>
<use x="159.033203" xlink:href="#b"/>
<use x="222.65625" xlink:href="#k"/>
</g>
<path d="m40.6 162h668" clip-path="url(#u)" fill="none" stroke="#b0b0b0" stroke-linecap="square" stroke-width=".8"/>
<use x="40.645553" y="161.945467" stroke="#000000" stroke-width=".8" xlink:href="#j"/>
<g transform="translate(3 166) scale(.1 -.1)">
<use xlink:href="#b"/>
<use x="63.623047" xlink:href="#f"/>
<use x="95.410156" xlink:href="#ac"/>
<use x="159.033203" xlink:href="#b"/>
<use x="222.65625" xlink:href="#k"/>
</g>
<path d="m40.6 98.8h668" clip-path="url(#u)" fill="none" stroke="#b0b0b0" stroke-linecap="square" stroke-width=".8"/>
<use x="40.645553" y="98.839031" stroke="#000000" stroke-width=".8" xlink:href="#j"/>
<g transform="translate(3 103) scale(.1 -.1)">
<use xlink:href="#b"/>
<use x="63.623047" xlink:href="#f"/>
<use x="95.410156" xlink:href="#af"/>
<use x="159.033203" xlink:href="#b"/>
<use x="222.65625" xlink:href="#k"/>
</g>
<path d="m40.6 35.7h668" clip-path="url(#u)" fill="none" stroke="#b0b0b0" stroke-linecap="square" stroke-width=".8"/>
<use x="40.645553" y="35.732595" stroke="#000000" stroke-width=".8" xlink:href="#j"/>
<g transform="translate(3 39.5) scale(.1 -.1)">
<use xlink:href="#t"/>
<use x="63.623047" xlink:href="#f"/>
<use x="95.410156" xlink:href="#b"/>
<use x="159.033203" xlink:href="#b"/>
<use x="222.65625" xlink:href="#k"/>
</g>
<path d="m40.6 351v-316" fill="none" stroke="#000" stroke-linecap="square" stroke-width=".8"/>
<path d="m709 351v-316" fill="none" stroke="#000" stroke-linecap="square" stroke-width=".8"/>
<path d="m40.6 351h668" fill="none" stroke="#000" stroke-linecap="square" stroke-width=".8"/>
<path d="m40.6 35.7h668" fill="none" stroke="#000" stroke-linecap="square" stroke-width=".8"/>
<g clip-path="url(#u)">
<g transform="translate(58.2 27.8) rotate(-90) scale(.1 -.1)">
<defs>
<path id="s" transform="scale(.0156)" d="m2375 4863v-479h-550q-309 0-430-125-120-125-120-450v-309h947v-447h-947v-3053h-578v3053h-550v447h550v244q0 584 272 851 272 268 862 268h544z"/>
<path id="n" transform="scale(.0156)" d="m2194 1759q-697 0-966-159t-269-544q0-306 202-486 202-179 548-179 479 0 768 339t289 901v128h-572zm1147 238v-2e3h-575v531q-197-318-491-470t-719-152q-537 0-855 302-317 302-317 808 0 590 395 890 396 300 1180 300h807v57q0 397-261 614t-733 217q-300 0-585-72-284-72-546-216v532q315 122 612 182 297 61 578 61 760 0 1135-394 375-393 375-1193z"/>
<path id="q" transform="scale(.0156)" d="m2834 3397v-544q-243 125-506 187-262 63-544 63-428 0-642-131t-214-394q0-200 153-314t616-217l197-44q612-131 870-370t258-667q0-488-386-773-386-284-1061-284-281 0-586 55t-642 164v594q319-166 628-249 309-82 613-82 406 0 624 139 219 139 219 392 0 234-158 359-157 125-692 241l-200 47q-534 112-772 345-237 233-237 639 0 494 350 762 350 269 994 269 318 0 599-47 282-46 519-140z"/>
<path id="p" transform="scale(.0156)" d="m1172 4494v-994h1184v-447h-1184v-1900q0-428 117-550t477-122h590v-481h-590q-666 0-919 248-253 249-253 905v1900h-422v447h422v994h578z"/>
<path id="i" transform="scale(.0156)" d="m3597 1894v-281h-2644q38-594 358-905t892-311q331 0 642 81t618 244v-544q-310-131-635-200t-659-69q-838 0-1327 487-489 488-489 1320 0 859 464 1363 464 505 1252 505 706 0 1117-455 411-454 411-1235zm-575 169q-6 471-264 752-258 282-683 282-481 0-770-272t-333-766l2050 4z"/>
<path id="m" transform="scale(.0156)" d="m2631 2963q-97 56-211 82-114 27-251 27-488 0-749-317t-261-911v-1844h-578v3500h578v-544q182 319 472 473 291 155 707 155 59 0 131-8 72-7 159-23l3-590z"/>
<path id="aq" transform="scale(.0156)" d="m8863 2147v-281l-1229-1228-375 375 729 728h-7622v531h7622l-729 728 375 375 1229-1228z"/>
</defs>
<use xlink:href="#s"/>
<use x="35.205078" xlink:href="#n"/>
<use x="96.484375" xlink:href="#q"/>
<use x="148.583984" xlink:href="#p"/>
<use x="187.792969" xlink:href="#i"/>
<use x="249.316406" xlink:href="#m"/>
<use x="290.429688" xlink:href="#DejaVuSans-20"/>
<use x="322.216797" xlink:href="#aq"/>
</g>
</g>
<g clip-path="url(#u)">
<g transform="translate(58.2 95.8) rotate(-90) scale(.1 -.1)">
<defs>
<path id="ar" transform="scale(.0156)" d="m313 1866v281l1228 1228 375-375-728-728h7621v-531h-7621l728-728-375-375-1228 1228z"/>
<path id="z" transform="scale(.0156)" d="m603 4863h575v-4863h-575v4863z"/>
<path id="r" transform="scale(.0156)" d="m1959 3097q-462 0-731-361t-269-989 267-989q268-361 733-361 460 0 728 362 269 363 269 988 0 622-269 986-268 364-728 364zm0 487q750 0 1178-488 429-487 429-1349 0-859-429-1349-428-489-1178-489-753 0-1180 489-426 490-426 1349 0 862 426 1349 427 488 1180 488z"/>
<path id="ae" transform="scale(.0156)" d="m269 3500h575l719-2731 715 2731h678l719-2731 716 2731h575l-916-3500h-678l-753 2869-756-2869h-679l-915 3500z"/>
</defs>
<use xlink:href="#ar"/>
<use x="143.359375" xlink:href="#DejaVuSans-20"/>
<use x="175.146484" xlink:href="#q"/>
<use x="227.246094" xlink:href="#z"/>
<use x="255.029297" xlink:href="#r"/>
<use x="316.210938" xlink:href="#ae"/>
<use x="397.998047" xlink:href="#i"/>
<use x="459.521484" xlink:href="#m"/>
</g>
</g>
<g transform="translate(205 29.7) scale(.12 -.12)">
<defs>
<path id="an" transform="scale(.0156)" d="m628 4666h2950v-532h-2319v-1381h2222v-531h-2222v-1691h2375v-531h-3006v4666z"/>
<path id="y" transform="scale(.0156)" d="m3122 3366v-538q-244 135-489 202t-495 67q-560 0-870-355-309-354-309-995t309-996q310-354 870-354 250 0 495 67t489 202v-532q-241-112-499-168-257-57-548-57-791 0-1257 497-465 497-465 1341 0 856 470 1346 471 491 1290 491 265 0 518-55 253-54 491-163z"/>
<path id="at" transform="scale(.0156)" d="m3116 1747q0 634-261 995t-717 361q-457 0-718-361t-261-995 261-995 718-361q456 0 717 361t261 995zm-1957 1222q182 312 458 463 277 152 661 152 638 0 1036-506 399-506 399-1331t-399-1332q-398-506-1036-506-384 0-661 152-276 152-458 464v-525h-578v4863h578v-1894z"/>
<path id="ab" transform="scale(.0156)" d="m544 1381v2119h575v-2097q0-497 193-746 194-248 582-248 465 0 735 297 271 297 271 810v1984h575v-3500h-575v538q-209-319-486-474-276-155-642-155-603 0-916 375-312 375-312 1097zm1447 2203z"/>
<path id="l" transform="scale(.0156)" d="m603 3500h575v-3500h-575v3500zm0 1363h575v-729h-575v729z"/>
<path id="as" transform="scale(.0156)" d="m2906 2969v1894h575v-4863h-575v525q-181-312-458-464-276-152-664-152-634 0-1033 506-398 507-398 1332t398 1331q399 506 1033 506 388 0 664-152 277-151 458-463zm-1959-1222q0-634 261-995t717-361 718 361q263 361 263 995t-263 995q-262 361-718 361t-717-361-261-995z"/>
<path id="aj" transform="scale(.0156)" d="m3513 2113v-2113h-575v2094q0 497-194 743-194 247-581 247-466 0-735-297-269-296-269-809v-1978h-578v4863h578v-1907q207 316 486 472 280 156 646 156 603 0 912-373 310-373 310-1098z"/>
<path id="v" transform="scale(.0156)" d="m3513 2113v-2113h-575v2094q0 497-194 743-194 247-581 247-466 0-735-297-269-296-269-809v-1978h-578v3500h578v-544q207 316 486 472 280 156 646 156 603 0 912-373 310-373 310-1098z"/>
<path id="am" transform="scale(.0156)" d="m2906 1791q0 625-258 968-257 344-723 344-462 0-720-344-258-343-258-968 0-622 258-966t720-344q466 0 723 344 258 344 258 966zm575-1357q0-893-397-1329-396-436-1215-436-303 0-572 45t-522 139v559q253-137 500-202 247-66 503-66 566 0 847 295t281 892v285q-178-310-456-463t-666-153q-643 0-1037 490-394 491-394 1301 0 812 394 1302 394 491 1037 491 388 0 666-153t456-462v531h575v-3066z"/>
<path id="ai" transform="scale(.0156)" d="m191 3500h609l1094-2937 1094 2937h609l-1313-3500h-781l-1312 3500z"/>
<path id="ak" transform="scale(.0156)" d="m-19 4666h3947v-532h-1656v-4134h-634v4134h-1657v532z"/>
<path id="ap" transform="scale(.0156)" d="m1984 4856q-418-718-622-1422-203-703-203-1425 0-721 205-1429t620-1424h-500q-468 735-701 1444t-233 1409q0 697 231 1403 232 707 703 1444h500z"/>
<path id="w" transform="scale(.0156)" d="m3328 2828q216 388 516 572t706 184q547 0 844-383 297-382 297-1088v-2113h-578v2094q0 503-179 746-178 244-543 244-447 0-707-297-259-296-259-809v-1978h-578v2094q0 506-178 748t-550 242q-441 0-701-298-259-298-259-808v-1978h-578v3500h578v-544q197 322 472 475t653 153q382 0 649-194 267-193 395-562z"/>
<path id="ao" transform="scale(.0156)" d="m513 4856h500q468-737 701-1444 233-706 233-1403 0-700-233-1409t-701-1444h-500q415 716 620 1424t205 1429q0 722-205 1425-205 704-620 1422z"/>
</defs>
<use xlink:href="#an"/>
<use x="63.183594" xlink:href="#s"/>
<use x="98.388672" xlink:href="#s"/>
<use x="133.59375" xlink:href="#i"/>
<use x="195.117188" xlink:href="#y"/>
<use x="250.097656" xlink:href="#p"/>
<use x="289.306641" xlink:href="#DejaVuSans-20"/>
<use x="321.09375" xlink:href="#r"/>
<use x="382.275391" xlink:href="#s"/>
<use x="417.480469" xlink:href="#DejaVuSans-20"/>
<use x="449.267578" xlink:href="#at"/>
<use x="512.744141" xlink:href="#ab"/>
<use x="576.123047" xlink:href="#l"/>
<use x="603.90625" xlink:href="#z"/>
<use x="631.689453" xlink:href="#as"/>
<use x="695.166016" xlink:href="#DejaVuSans-20"/>
<use x="726.953125" xlink:href="#ae"/>
<use x="808.740234" xlink:href="#l"/>
<use x="836.523438" xlink:href="#p"/>
<use x="875.732422" xlink:href="#aj"/>
<use x="939.111328" xlink:href="#DejaVuSans-20"/>
<use x="970.898438" xlink:href="#z"/>
<use x="998.681641" xlink:href="#n"/>
<use x="1059.960938" xlink:href="#p"/>
<use x="1099.169922" xlink:href="#i"/>
<use x="1160.693359" xlink:href="#q"/>
<use x="1212.792969" xlink:href="#p"/>
<use x="1252.001953" xlink:href="#DejaVuSans-20"/>
<use x="1283.789062" xlink:href="#y"/>
<use x="1338.769531" xlink:href="#z"/>
<use x="1366.552734" xlink:href="#n"/>
<use x="1427.832031" xlink:href="#v"/>
<use x="1491.210938" xlink:href="#am"/>
<use x="1554.6875" xlink:href="#DejaVuSans-20"/>
<use x="1586.474609" xlink:href="#ai"/>
<use x="1645.654297" xlink:href="#q"/>
<use x="1697.753906" xlink:href="#f"/>
<use x="1729.541016" xlink:href="#DejaVuSans-20"/>
<use x="1761.328125" xlink:href="#ak"/>
<use x="1819.287109" xlink:href="#l"/>
<use x="1847.070312" xlink:href="#i"/>
<use x="1908.59375" xlink:href="#m"/>
<use x="1949.707031" xlink:href="#DejaVuSans-20"/>
<use x="1981.494141" xlink:href="#t"/>
<use x="2045.117188" xlink:href="#DejaVuSans-20"/>
<use x="2076.904297" xlink:href="#ap"/>
<use x="2115.917969" xlink:href="#q"/>
<use x="2168.017578" xlink:href="#n"/>
<use x="2229.296875" xlink:href="#w"/>
<use x="2326.708984" xlink:href="#i"/>
<use x="2388.232422" xlink:href="#DejaVuSans-20"/>
<use x="2420.019531" xlink:href="#y"/>
<use x="2475" xlink:href="#r"/>
<use x="2536.181641" xlink:href="#w"/>
<use x="2633.59375" xlink:href="#w"/>
<use x="2731.005859" xlink:href="#l"/>
<use x="2758.789062" xlink:href="#p"/>
<use x="2797.998047" xlink:href="#ao"/>
</g>
<path d="m47.6 48.7h4q2 0 2-2v-4q0-2-2-2h-4q-2 0-2 2v4q0 2 2 2z" fill="#fff" opacity=".8" stroke="#ccc"/>
<path d="m40.6 706h668v-316h-668z" fill="#fff"/>
<path d="m162 706v-316" clip-path="url(#h)" fill="none" stroke="#b0b0b0" stroke-linecap="square" stroke-width=".8"/>
<use x="161.992518" y="705.793205" stroke="#000000" stroke-width=".8" xlink:href="#o"/>
<g transform="translate(149 720) scale(.1 -.1)">
<defs>
<path id="aa" transform="scale(.0156)" d="m703 97v575q238-113 481-172 244-59 479-59 625 0 954 420 330 420 377 1277-181-269-460-413-278-144-615-144-700 0-1108 423-408 424-408 1159 0 718 425 1152 425 435 1131 435 810 0 1236-621 427-620 427-1801 0-1103-524-1761-523-658-1407-658-238 0-482 47-243 47-506 141zm1256 1978q425 0 673 290 249 291 249 798 0 503-249 795-248 292-673 292t-673-292-248-795q0-507 248-798 248-290 673-290z"/>
</defs>
<use xlink:href="#t"/>
<use x="63.623047" xlink:href="#aa"/>
<use x="127.246094" xlink:href="#af"/>
<use x="190.869141" xlink:href="#b"/>
</g>
<path d="m283 706v-316" clip-path="url(#h)" fill="none" stroke="#b0b0b0" stroke-linecap="square" stroke-width=".8"/>
<use x="283.37548" y="705.793205" stroke="#000000" stroke-width=".8" xlink:href="#o"/>
<g transform="translate(271 720) scale(.1 -.1)">
<use xlink:href="#t"/>
<use x="63.623047" xlink:href="#aa"/>
<use x="127.246094" xlink:href="#aa"/>
<use x="190.869141" xlink:href="#b"/>
</g>
<path d="m405 706v-316" clip-path="url(#h)" fill="none" stroke="#b0b0b0" stroke-linecap="square" stroke-width=".8"/>
<use x="404.725215" y="705.793205" stroke="#000000" stroke-width=".8" xlink:href="#o"/>
<g transform="translate(392 720) scale(.1 -.1)">
<use xlink:href="#x"/>
<use x="63.623047" xlink:href="#b"/>
<use x="127.246094" xlink:href="#b"/>
<use x="190.869141" xlink:href="#b"/>
</g>
<path d="m526 706v-316" clip-path="url(#h)" fill="none" stroke="#b0b0b0" stroke-linecap="square" stroke-width=".8"/>
<use x="526.108177" y="705.793205" stroke="#000000" stroke-width=".8" xlink:href="#o"/>
<g transform="translate(513 720) scale(.1 -.1)">
<use xlink:href="#x"/>
<use x="63.623047" xlink:href="#b"/>
<use x="127.246094" xlink:href="#t"/>
<use x="190.869141" xlink:href="#b"/>
</g>
<path d="m647 706v-316" clip-path="url(#h)" fill="none" stroke="#b0b0b0" stroke-linecap="square" stroke-width=".8"/>
<use x="647.457912" y="705.793205" stroke="#000000" stroke-width=".8" xlink:href="#o"/>
<g transform="translate(635 720) scale(.1 -.1)">
<use xlink:href="#x"/>
<use x="63.623047" xlink:href="#b"/>
<use x="127.246094" xlink:href="#x"/>
<use x="190.869141" xlink:href="#b"/>
</g>
<path d="m40.6 702h668" clip-path="url(#h)" fill="none" stroke="#b0b0b0" stroke-linecap="square" stroke-width=".8"/>
<use x="40.645553" y="701.874353" stroke="#000000" stroke-width=".8" xlink:href="#j"/>
<g transform="translate(3 706) scale(.1 -.1)">
<use xlink:href="#b"/>
<use x="63.623047" xlink:href="#f"/>
<use x="95.410156" xlink:href="#ac"/>
<use x="159.033203" xlink:href="#b"/>
<use x="222.65625" xlink:href="#k"/>
</g>
<path d="m40.6 661h668" clip-path="url(#h)" fill="none" stroke="#b0b0b0" stroke-linecap="square" stroke-width=".8"/>
<use x="40.645553" y="661.030207" stroke="#000000" stroke-width=".8" xlink:href="#j"/>
<g transform="translate(3 665) scale(.1 -.1)">
<defs>
<path id="ag" transform="scale(.0156)" d="m691 4666h2478v-532h-1900v-1143q137 47 274 70 138 23 276 23 781 0 1237-428 457-428 457-1159 0-753-469-1171-469-417-1322-417-294 0-599 50-304 50-629 150v635q281-153 581-228t634-75q541 0 856 284 316 284 316 772 0 487-316 771-315 285-856 285-253 0-505-56-251-56-513-175v2344z"/>
</defs>
<use xlink:href="#b"/>
<use x="63.623047" xlink:href="#f"/>
<use x="95.410156" xlink:href="#ac"/>
<use x="159.033203" xlink:href="#ag"/>
<use x="222.65625" xlink:href="#k"/>
</g>
<path d="m40.6 620h668" clip-path="url(#h)" fill="none" stroke="#b0b0b0" stroke-linecap="square" stroke-width=".8"/>
<use x="40.645553" y="620.18606" stroke="#000000" stroke-width=".8" xlink:href="#j"/>
<g transform="translate(3 624) scale(.1 -.1)">
<defs>
<path id="al" transform="scale(.0156)" d="m525 4666h3e3v-269l-1694-4397h-659l1594 4134h-2241v532z"/>
</defs>
<use xlink:href="#b"/>
<use x="63.623047" xlink:href="#f"/>
<use x="95.410156" xlink:href="#al"/>
<use x="159.033203" xlink:href="#b"/>
<use x="222.65625" xlink:href="#k"/>
</g>
<path d="m40.6 579h668" clip-path="url(#h)" fill="none" stroke="#b0b0b0" stroke-linecap="square" stroke-width=".8"/>
<use x="40.645553" y="579.341914" stroke="#000000" stroke-width=".8" xlink:href="#j"/>
<g transform="translate(3 583) scale(.1 -.1)">
<use xlink:href="#b"/>
<use x="63.623047" xlink:href="#f"/>
<use x="95.410156" xlink:href="#al"/>
<use x="159.033203" xlink:href="#ag"/>
<use x="222.65625" xlink:href="#k"/>
</g>
<path d="m40.6 538h668" clip-path="url(#h)" fill="none" stroke="#b0b0b0" stroke-linecap="square" stroke-width=".8"/>
<use x="40.645553" y="538.497767" stroke="#000000" stroke-width=".8" xlink:href="#j"/>
<g transform="translate(3 542) scale(.1 -.1)">
<use xlink:href="#b"/>
<use x="63.623047" xlink:href="#f"/>
<use x="95.410156" xlink:href="#af"/>
<use x="159.033203" xlink:href="#b"/>
<use x="222.65625" xlink:href="#k"/>
</g>
<path d="m40.6 498h668" clip-path="url(#h)" fill="none" stroke="#b0b0b0" stroke-linecap="square" stroke-width=".8"/>
<use x="40.645553" y="497.653621" stroke="#000000" stroke-width=".8" xlink:href="#j"/>
<g transform="translate(3 501) scale(.1 -.1)">
<use xlink:href="#b"/>
<use x="63.623047" xlink:href="#f"/>
<use x="95.410156" xlink:href="#af"/>
<use x="159.033203" xlink:href="#ag"/>
<use x="222.65625" xlink:href="#k"/>
</g>
<path d="m40.6 457h668" clip-path="url(#h)" fill="none" stroke="#b0b0b0" stroke-linecap="square" stroke-width=".8"/>
<use x="40.645553" y="456.809474" stroke="#000000" stroke-width=".8" xlink:href="#j"/>
<g transform="translate(3 461) scale(.1 -.1)">
<use xlink:href="#b"/>
<use x="63.623047" xlink:href="#f"/>
<use x="95.410156" xlink:href="#aa"/>
<use x="159.033203" xlink:href="#b"/>
<use x="222.65625" xlink:href="#k"/>
</g>
<path d="m40.6 416h668" clip-path="url(#h)" fill="none" stroke="#b0b0b0" stroke-linecap="square" stroke-width=".8"/>
<use x="40.645553" y="415.965327" stroke="#000000" stroke-width=".8" xlink:href="#j"/>
<g transform="translate(3 420) scale(.1 -.1)">
<use xlink:href="#b"/>
<use x="63.623047" xlink:href="#f"/>
<use x="95.410156" xlink:href="#aa"/>
<use x="159.033203" xlink:href="#ag"/>
<use x="222.65625" xlink:href="#k"/>
</g>
<path d="m693 405 1.33 72.2 1.86 12.6 0.966-44.1 0.873 178 5.72 4.06 0.228-1.95 0.232-0.215 0.193 4.02 0.278-5.19 0.213 3.97 0.251 19.5 0.234-26 0.232 5.03 0.226-4.89 0.241-6.14 0.233 0.32 0.231-25.2 0.228-5.62 0.232-12.3 0.188 0.218 0.0415-6.1 0.205-11.2 0.268-10.2 0.236 5.85" clip-path="url(#h)" fill="none" stroke="#1f77b4" stroke-linecap="square" stroke-opacity=".9" stroke-width="1.5"/>
<defs>
<path id="a" d="m-2.5 2.5h5v-5h-5z" stroke="#1f77b4" stroke-opacity=".9"/>
</defs>
<g clip-path="url(#h)" fill="#1f77b4" fill-opacity=".9" stroke="#1f77b4" stroke-opacity=".9">
<use x="693.361236" y="404.603397" xlink:href="#a"/>
<use x="694.693789" y="476.844006" xlink:href="#a"/>
<use x="696.555825" y="489.412836" xlink:href="#a"/>
<use x="697.521385" y="445.285682" xlink:href="#a"/>
<use x="698.394376" y="623.171344" xlink:href="#a"/>
<use x="704.112549" y="627.234459" xlink:href="#a"/>
<use x="704.340298" y="625.287185" xlink:href="#a"/>
<use x="704.572504" y="625.072312" xlink:href="#a"/>
<use x="704.765133" y="629.092282" xlink:href="#a"/>
<use x="705.04291" y="623.898048" xlink:href="#a"/>
<use x="705.255687" y="627.864102" xlink:href="#a"/>
<use x="705.5063" y="647.381683" xlink:href="#a"/>
<use x="705.74004" y="621.409468" xlink:href="#a"/>
<use x="705.97249" y="626.43901" xlink:href="#a"/>
<use x="706.198874" y="621.548491" xlink:href="#a"/>
<use x="706.439556" y="615.408083" xlink:href="#a"/>
<use x="706.672161" y="615.728395" xlink:href="#a"/>
<use x="706.902894" y="590.55594" xlink:href="#a"/>
<use x="707.131307" y="584.940042" xlink:href="#a"/>
<use x="707.36296" y="572.670902" xlink:href="#a"/>
<use x="707.550523" y="572.889087" xlink:href="#a"/>
<use x="707.59203" y="566.788745" xlink:href="#a"/>
<use x="707.797288" y="555.566909" xlink:href="#a"/>
<use x="708.065066" y="545.376761" xlink:href="#a"/>
<use x="708.301199" y="551.225168" xlink:href="#a"/>
</g>
<g stroke="#1f77b4" stroke-opacity=".9">
<path d="m704 639 0.228-1.43 0.232-12.8 0.193-2.77 0.278 0.545 0.213-3.56 0.251 19.9 0.234-13.3 0.232 0.558 0.226-6.88 0.241-4.99 0.233-0.0986 0.231-33.8 0.228-5 0.232-5.67 0.229-3.1 0.205-15.2 0.268-2.58 0.236-3.7" clip-path="url(#h)" fill="none" stroke-dasharray="1.5,2.475" stroke-width="1.5"/>
<g clip-path="url(#h)" fill="#1f77b4" fill-opacity=".9">
<use x="704.112549" y="639.360862" xlink:href="#a"/>
<use x="704.340298" y="637.927457" xlink:href="#a"/>
<use x="704.572504" y="625.107467" xlink:href="#a"/>
<use x="704.765133" y="622.334422" xlink:href="#a"/>
<use x="705.04291" y="622.879268" xlink:href="#a"/>
<use x="705.255687" y="619.322832" xlink:href="#a"/>
<use x="705.5063" y="639.188699" xlink:href="#a"/>
<use x="705.74004" y="625.842357" xlink:href="#a"/>
<use x="705.97249" y="626.400189" xlink:href="#a"/>
<use x="706.198874" y="619.518869" xlink:href="#a"/>
<use x="706.439556" y="614.52483" xlink:href="#a"/>
<use x="706.672161" y="614.426262" xlink:href="#a"/>
<use x="706.902894" y="580.674135" xlink:href="#a"/>
<use x="707.131307" y="575.676439" xlink:href="#a"/>
<use x="707.36296" y="570.001891" xlink:href="#a"/>
<use x="707.59203" y="566.90243" xlink:href="#a"/>
<use x="707.797288" y="551.661023" xlink:href="#a"/>
<use x="708.065066" y="549.079563" xlink:href="#a"/>
<use x="708.301199" y="545.37946" xlink:href="#a"/>
</g>
</g>
<path d="m704 684 0.228 0.674 0.232-12.4 0.193-0.389 0.278 0.52 0.213-1.02 0.251 19.9 0.234-15.2 0.232 3.56 0.226-25 0.241-11.1 0.233 14.9 0.231-43.2 0.228-1.01 0.232 12.1 0.229 0.836 0.205-21.5 0.268-3.74 0.236-4.67" clip-path="url(#h)" fill="none" stroke="#9467bd" stroke-dasharray="5.55,2.4" stroke-opacity=".9" stroke-width="1.5"/>
<defs>
<path id="c" d="m-2.5 2.5h5v-5h-5z" stroke="#9467bd" stroke-opacity=".9"/>
</defs>
<g clip-path="url(#h)" fill="#9467bd" fill-opacity=".9" stroke="#9467bd" stroke-opacity=".9">
<use x="704.112549" y="684.229717" xlink:href="#c"/>
<use x="704.340298" y="684.903255" xlink:href="#c"/>
<use x="704.572504" y="672.486078" xlink:href="#c"/>
<use x="704.765133" y="672.096925" xlink:href="#c"/>
<use x="705.04291" y="672.616839" xlink:href="#c"/>
<use x="705.255687" y="671.59306" xlink:href="#c"/>
<use x="705.5063" y="691.450833" xlink:href="#c"/>
<use x="705.74004" y="676.286384" xlink:href="#c"/>
<use x="705.97249" y="679.850279" xlink:href="#c"/>
<use x="706.198874" y="654.820557" xlink:href="#c"/>
<use x="706.439556" y="643.685022" xlink:href="#c"/>
<use x="706.672161" y="658.610976" xlink:href="#c"/>
<use x="706.902894" y="615.415466" xlink:href="#c"/>
<use x="707.131307" y="614.409024" xlink:href="#c"/>
<use x="707.36296" y="626.523842" xlink:href="#c"/>
<use x="707.59203" y="627.359443" xlink:href="#c"/>
<use x="707.797288" y="605.861672" xlink:href="#c"/>
<use x="708.065066" y="602.119979" xlink:href="#c"/>
<use x="708.301199" y="597.44624" xlink:href="#c"/>
</g>
<path d="m704 632 0.228 8.7 0.232-22.9 0.193-7.06 0.278 0.914 0.213-1.17 0.251 22.6 0.234-39.5 0.232 10.4 0.226-10.7 0.241-23.4 0.233 1.19 0.231-44.2 0.228-2.14 0.232 3.2 0.229-8.87 0.709-6.89" clip-path="url(#h)" fill="none" stroke="#2ca02c" stroke-linecap="square" stroke-opacity=".9" stroke-width="1.5"/>
<defs>
<path id="d" d="m0-2.5-2.5 5h5z" stroke="#2ca02c" stroke-opacity=".9"/>
</defs>
<g clip-path="url(#h)" fill="#2ca02c" fill-opacity=".9" stroke="#2ca02c" stroke-opacity=".9">
<use x="704.112549" y="631.511697" xlink:href="#d"/>
<use x="704.340298" y="640.21344" xlink:href="#d"/>
<use x="704.572504" y="617.308058" xlink:href="#d"/>
<use x="704.765133" y="610.247361" xlink:href="#d"/>
<use x="705.04291" y="611.161499" xlink:href="#d"/>
<use x="705.255687" y="609.991211" xlink:href="#d"/>
<use x="705.5063" y="632.570274" xlink:href="#d"/>
<use x="705.74004" y="593.065791" xlink:href="#d"/>
<use x="705.97249" y="603.471976" xlink:href="#d"/>
<use x="706.198874" y="592.789568" xlink:href="#d"/>
<use x="706.439556" y="569.356717" xlink:href="#d"/>
<use x="706.672161" y="570.548462" xlink:href="#d"/>
<use x="706.902894" y="526.32101" xlink:href="#d"/>
<use x="707.131307" y="524.180991" xlink:href="#d"/>
<use x="707.36296" y="527.382319" xlink:href="#d"/>
<use x="707.59203" y="518.509116" xlink:href="#d"/>
<use x="708.301199" y="511.61678" xlink:href="#d"/>
</g>
<path d="m40.6 706v-316" fill="none" stroke="#000" stroke-linecap="square" stroke-width=".8"/>
<path d="m709 706v-316" fill="none" stroke="#000" stroke-linecap="square" stroke-width=".8"/>
<path d="m40.6 706h668" fill="none" stroke="#000" stroke-linecap="square" stroke-width=".8"/>
<path d="m40.6 390h668" fill="none" stroke="#000" stroke-linecap="square" stroke-width=".8"/>
<g clip-path="url(#h)">
<g transform="translate(58.2 367) rotate(-90) scale(.1 -.1)">
<use xlink:href="#s"/>
<use x="35.205078" xlink:href="#n"/>
<use x="96.484375" xlink:href="#q"/>
<use x="148.583984" xlink:href="#p"/>
<use x="187.792969" xlink:href="#i"/>
<use x="249.316406" xlink:href="#m"/>
<use x="290.429688" xlink:href="#DejaVuSans-20"/>
<use x="322.216797" xlink:href="#aq"/>
</g>
</g>
<g clip-path="url(#h)">
<g transform="translate(58.2 435) rotate(-90) scale(.1 -.1)">
<use xlink:href="#ar"/>
<use x="143.359375" xlink:href="#DejaVuSans-20"/>
<use x="175.146484" xlink:href="#q"/>
<use x="227.246094" xlink:href="#z"/>
<use x="255.029297" xlink:href="#r"/>
<use x="316.210938" xlink:href="#ae"/>
<use x="397.998047" xlink:href="#i"/>
<use x="459.521484" xlink:href="#m"/>
</g>
</g>
<g transform="translate(228 384) scale(.12 -.12)">
<use xlink:href="#an"/>
<use x="63.183594" xlink:href="#s"/>
<use x="98.388672" xlink:href="#s"/>
<use x="133.59375" xlink:href="#i"/>
<use x="195.117188" xlink:href="#y"/>
<use x="250.097656" xlink:href="#p"/>
<use x="289.306641" xlink:href="#DejaVuSans-20"/>
<use x="321.09375" xlink:href="#r"/>
<use x="382.275391" xlink:href="#s"/>
<use x="417.480469" xlink:href="#DejaVuSans-20"/>
<use x="449.267578" xlink:href="#s"/>
<use x="484.472656" xlink:href="#m"/>
<use x="523.335938" xlink:href="#i"/>
<use x="584.859375" xlink:href="#i"/>
<use x="646.382812" xlink:href="#DejaVuSans-20"/>
<use x="678.169922" xlink:href="#p"/>
<use x="717.378906" xlink:href="#aj"/>
<use x="780.757812" xlink:href="#m"/>
<use x="819.621094" xlink:href="#i"/>
<use x="881.144531" xlink:href="#n"/>
<use x="942.423828" xlink:href="#as"/>
<use x="1005.900391" xlink:href="#l"/>
<use x="1033.683594" xlink:href="#v"/>
<use x="1097.0625" xlink:href="#am"/>
<use x="1160.539062" xlink:href="#DejaVuSans-20"/>
<use x="1192.326172" xlink:href="#ai"/>
<use x="1251.505859" xlink:href="#q"/>
<use x="1303.605469" xlink:href="#f"/>
<use x="1335.392578" xlink:href="#DejaVuSans-20"/>
<use x="1367.179688" xlink:href="#ak"/>
<use x="1425.138672" xlink:href="#l"/>
<use x="1452.921875" xlink:href="#i"/>
<use x="1514.445312" xlink:href="#m"/>
<use x="1555.558594" xlink:href="#DejaVuSans-20"/>
<use x="1587.345703" xlink:href="#t"/>
<use x="1650.96875" xlink:href="#DejaVuSans-20"/>
<use x="1682.755859" xlink:href="#ap"/>
<use x="1721.769531" xlink:href="#q"/>
<use x="1773.869141" xlink:href="#n"/>
<use x="1835.148438" xlink:href="#w"/>
<use x="1932.560547" xlink:href="#i"/>
<use x="1994.083984" xlink:href="#DejaVuSans-20"/>
<use x="2025.871094" xlink:href="#y"/>
<use x="2080.851562" xlink:href="#r"/>
<use x="2142.033203" xlink:href="#w"/>
<use x="2239.445312" xlink:href="#w"/>
<use x="2336.857422" xlink:href="#l"/>
<use x="2364.640625" xlink:href="#p"/>
<use x="2403.849609" xlink:href="#ao"/>
</g>
<path d="m47.6 457h100q2 0 2-2v-57.7q0-2-2-2h-100q-2 0-2 2v57.7q0 2 2 2z" fill="#fff" opacity=".8" stroke="#ccc"/>
<path d="m49.6 403h10 10" fill="none" stroke="#1f77b4" stroke-linecap="square" stroke-opacity=".9" stroke-width="1.5"/>
<use x="59.645553" y="403.359462" fill="#1f77b4" fill-opacity=".9" stroke="#1f77b4" stroke-opacity=".9" xlink:href="#a"/>
<g transform="translate(77.6 407) scale(.1 -.1)">
<defs>
<path id="ad" transform="scale(.0156)" d="m3513 3500-1266-1703 1331-1797h-678l-1019 1375-1018-1375h-679l1360 1831-1244 1669h678l928-1247 928 1247h679z"/>
</defs>
<use xlink:href="#z"/>
<use x="27.783203" xlink:href="#l"/>
<use x="55.566406" xlink:href="#v"/>
<use x="118.945312" xlink:href="#ab"/>
<use x="182.324219" xlink:href="#ad"/>
</g>
<path d="m49.6 418h10 10" fill="none" stroke="#1f77b4" stroke-dasharray="1.5,2.475" stroke-opacity=".9" stroke-width="1.5"/>
<use x="59.645553" y="418.037587" fill="#1f77b4" fill-opacity=".9" stroke="#1f77b4" stroke-opacity=".9" xlink:href="#a"/>
<g transform="translate(77.6 422) scale(.1 -.1)">
<use xlink:href="#z"/>
<use x="27.783203" xlink:href="#l"/>
<use x="55.566406" xlink:href="#v"/>
<use x="118.945312" xlink:href="#ab"/>
<use x="182.324219" xlink:href="#ad"/>
<use x="241.503906" xlink:href="#x"/>
</g>
<path d="m49.6 433h10 10" fill="none" stroke="#9467bd" stroke-dasharray="5.55,2.4" stroke-opacity=".9" stroke-width="1.5"/>
<use x="59.645553" y="432.715712" fill="#9467bd" fill-opacity=".9" stroke="#9467bd" stroke-opacity=".9" xlink:href="#c"/>
<g transform="translate(77.6 436) scale(.1 -.1)">
<defs>
<path id="av" transform="scale(.0156)" d="m313 2009h1684v-512h-1684v512z"/>
</defs>
<use xlink:href="#z"/>
<use x="27.783203" xlink:href="#l"/>
<use x="55.566406" xlink:href="#v"/>
<use x="118.945312" xlink:href="#ab"/>
<use x="182.324219" xlink:href="#ad"/>
<use x="241.503906" xlink:href="#av"/>
<use x="277.587891" xlink:href="#n"/>
<use x="338.867188" xlink:href="#n"/>
<use x="400.146484" xlink:href="#m"/>
<use x="439.009766" xlink:href="#y"/>
<use x="493.990234" xlink:href="#aj"/>
<use x="557.369141" xlink:href="#ac"/>
<use x="620.992188" xlink:href="#ah"/>
</g>
<path d="m49.6 447h10 10" fill="none" stroke="#2ca02c" stroke-linecap="square" stroke-opacity=".9" stroke-width="1.5"/>
<use x="59.645553" y="447.393837" fill="#2ca02c" fill-opacity=".9" stroke="#2ca02c" stroke-opacity=".9" xlink:href="#d"/>
<g transform="translate(77.6 451) scale(.1 -.1)">
<use xlink:href="#w"/>
<use x="97.412109" xlink:href="#n"/>
<use x="158.691406" xlink:href="#y"/>
<use x="213.671875" xlink:href="#r"/>
<use x="274.853516" xlink:href="#q"/>
</g>
<path d="m40.6 1060h668v-316h-668z" fill="#fff"/>
<path d="m162 1060v-316" clip-path="url(#g)" fill="none" stroke="#b0b0b0" stroke-linecap="square" stroke-width=".8"/>
<use x="161.993902" y="1060.321635" stroke="#000000" stroke-width=".8" xlink:href="#o"/>
<g transform="translate(149 1075) scale(.1 -.1)">
<use xlink:href="#t"/>
<use x="63.623047" xlink:href="#aa"/>
<use x="127.246094" xlink:href="#af"/>
<use x="190.869141" xlink:href="#b"/>
</g>
<path d="m283 1060v-316" clip-path="url(#g)" fill="none" stroke="#b0b0b0" stroke-linecap="square" stroke-width=".8"/>
<use x="283.376865" y="1060.321635" stroke="#000000" stroke-width=".8" xlink:href="#o"/>
<g transform="translate(271 1075) scale(.1 -.1)">
<use xlink:href="#t"/>
<use x="63.623047" xlink:href="#aa"/>
<use x="127.246094" xlink:href="#aa"/>
<use x="190.869141" xlink:href="#b"/>
</g>
<path d="m405 1060v-316" clip-path="url(#g)" fill="none" stroke="#b0b0b0" stroke-linecap="square" stroke-width=".8"/>
<use x="404.726599" y="1060.321635" stroke="#000000" stroke-width=".8" xlink:href="#o"/>
<g transform="translate(392 1075) scale(.1 -.1)">
<use xlink:href="#x"/>
<use x="63.623047" xlink:href="#b"/>
<use x="127.246094" xlink:href="#b"/>
<use x="190.869141" xlink:href="#b"/>
</g>
<path d="m526 1060v-316" clip-path="url(#g)" fill="none" stroke="#b0b0b0" stroke-linecap="square" stroke-width=".8"/>
<use x="526.109562" y="1060.321635" stroke="#000000" stroke-width=".8" xlink:href="#o"/>
<g transform="translate(513 1075) scale(.1 -.1)">
<use xlink:href="#x"/>
<use x="63.623047" xlink:href="#b"/>
<use x="127.246094" xlink:href="#t"/>
<use x="190.869141" xlink:href="#b"/>
</g>
<path d="m647 1060v-316" clip-path="url(#g)" fill="none" stroke="#b0b0b0" stroke-linecap="square" stroke-width=".8"/>
<use x="647.459296" y="1060.321635" stroke="#000000" stroke-width=".8" xlink:href="#o"/>
<g transform="translate(635 1075) scale(.1 -.1)">
<use xlink:href="#x"/>
<use x="63.623047" xlink:href="#b"/>
<use x="127.246094" xlink:href="#x"/>
<use x="190.869141" xlink:href="#b"/>
</g>
<path d="m40.6 1045h668" clip-path="url(#g)" fill="none" stroke="#b0b0b0" stroke-linecap="square" stroke-width=".8"/>
<use x="40.645553" y="1044.808948" stroke="#000000" stroke-width=".8" xlink:href="#j"/>
<g transform="translate(3 1049) scale(.1 -.1)">
<use xlink:href="#b"/>
<use x="63.623047" xlink:href="#f"/>
<use x="95.410156" xlink:href="#aa"/>
<use x="159.033203" xlink:href="#b"/>
<use x="222.65625" xlink:href="#k"/>
</g>
<path d="m40.6 1007h668" clip-path="url(#g)" fill="none" stroke="#b0b0b0" stroke-linecap="square" stroke-width=".8"/>
<use x="40.645553" y="1006.758942" stroke="#000000" stroke-width=".8" xlink:href="#j"/>
<g transform="translate(3 1011) scale(.1 -.1)">
<defs>
<path id="au" transform="scale(.0156)" d="m2597 2516q453-97 707-404 255-306 255-756 0-690-475-1069-475-378-1350-378-293 0-604 58t-642 174v609q262-153 574-231 313-78 654-78 593 0 904 234t311 681q0 413-289 645-289 233-804 233h-544v519h569q465 0 712 186t247 536q0 359-255 551-254 193-729 193-260 0-557-57-297-56-653-174v562q360 100 674 150t592 50q719 0 1137-327 419-326 419-882 0-388-222-655t-631-370z"/>
</defs>
<use xlink:href="#b"/>
<use x="63.623047" xlink:href="#f"/>
<use x="95.410156" xlink:href="#aa"/>
<use x="159.033203" xlink:href="#au"/>
<use x="222.65625" xlink:href="#k"/>
</g>
<path d="m40.6 969h668" clip-path="url(#g)" fill="none" stroke="#b0b0b0" stroke-linecap="square" stroke-width=".8"/>
<use x="40.645553" y="968.708936" stroke="#000000" stroke-width=".8" xlink:href="#j"/>
<g transform="translate(3 973) scale(.1 -.1)">
<use xlink:href="#b"/>
<use x="63.623047" xlink:href="#f"/>
<use x="95.410156" xlink:href="#aa"/>
<use x="159.033203" xlink:href="#ag"/>
<use x="222.65625" xlink:href="#k"/>
</g>
<path d="m40.6 931h668" clip-path="url(#g)" fill="none" stroke="#b0b0b0" stroke-linecap="square" stroke-width=".8"/>
<use x="40.645553" y="930.658929" stroke="#000000" stroke-width=".8" xlink:href="#j"/>
<g transform="translate(3 934) scale(.1 -.1)">
<use xlink:href="#b"/>
<use x="63.623047" xlink:href="#f"/>
<use x="95.410156" xlink:href="#aa"/>
<use x="159.033203" xlink:href="#al"/>
<use x="222.65625" xlink:href="#k"/>
</g>
<path d="m40.6 893h668" clip-path="url(#g)" fill="none" stroke="#b0b0b0" stroke-linecap="square" stroke-width=".8"/>
<use x="40.645553" y="892.608923" stroke="#000000" stroke-width=".8" xlink:href="#j"/>
<g transform="translate(3 896) scale(.1 -.1)">
<use xlink:href="#t"/>
<use x="63.623047" xlink:href="#f"/>
<use x="95.410156" xlink:href="#b"/>
<use x="159.033203" xlink:href="#b"/>
<use x="222.65625" xlink:href="#k"/>
</g>
<path d="m40.6 855h668" clip-path="url(#g)" fill="none" stroke="#b0b0b0" stroke-linecap="square" stroke-width=".8"/>
<use x="40.645553" y="854.558917" stroke="#000000" stroke-width=".8" xlink:href="#j"/>
<g transform="translate(3 858) scale(.1 -.1)">
<use xlink:href="#t"/>
<use x="63.623047" xlink:href="#f"/>
<use x="95.410156" xlink:href="#b"/>
<use x="159.033203" xlink:href="#x"/>
<use x="222.65625" xlink:href="#k"/>
</g>
<path d="m40.6 817h668" clip-path="url(#g)" fill="none" stroke="#b0b0b0" stroke-linecap="square" stroke-width=".8"/>
<use x="40.645553" y="816.508911" stroke="#000000" stroke-width=".8" xlink:href="#j"/>
<g transform="translate(3 820) scale(.1 -.1)">
<use xlink:href="#t"/>
<use x="63.623047" xlink:href="#f"/>
<use x="95.410156" xlink:href="#b"/>
<use x="159.033203" xlink:href="#ag"/>
<use x="222.65625" xlink:href="#k"/>
</g>
<path d="m40.6 778h668" clip-path="url(#g)" fill="none" stroke="#b0b0b0" stroke-linecap="square" stroke-width=".8"/>
<use x="40.645553" y="778.458905" stroke="#000000" stroke-width=".8" xlink:href="#j"/>
<g transform="translate(3 782) scale(.1 -.1)">
<use xlink:href="#t"/>
<use x="63.623047" xlink:href="#f"/>
<use x="95.410156" xlink:href="#b"/>
<use x="159.033203" xlink:href="#al"/>
<use x="222.65625" xlink:href="#k"/>
</g>
<g stroke="#1f77b4" stroke-opacity=".9">
<path d="m698 896 3.69-13.8 2.9 5.01 0.228 2.35 0.167 14.4 0.0652-6.54 0.193 0.23 0.278 1.07 0.163 15 0.0496-4.68 0.251-2.12 0.0978 4.2 0.0278 3.75 0.108-5.52 0.232-6.82 0.226 4.66 0.241 8.39 0.203-5.1 0.0294-2.93 0.231-23.5 0.228 3.91 0.232-11.7 0.229 14.5 0.205 5.09 0.268-5.07 0.236 4.25" clip-path="url(#g)" fill="none" stroke-linecap="square" stroke-width="1.5"/>
<g clip-path="url(#g)" fill="#1f77b4" fill-opacity=".9">
<use x="697.521385" y="895.823112" xlink:href="#a"/>
<use x="701.211292" y="882.025355" xlink:href="#a"/>
<use x="704.112549" y="887.031277" xlink:href="#a"/>
<use x="704.340298" y="889.381089" xlink:href="#a"/>
<use x="704.507301" y="903.821861" xlink:href="#a"/>
<use x="704.572504" y="897.279016" xlink:href="#a"/>
<use x="704.765133" y="897.508641" xlink:href="#a"/>
<use x="705.04291" y="898.582558" xlink:href="#a"/>
<use x="705.206069" y="913.583927" xlink:href="#a"/>
<use x="705.255687" y="908.908235" xlink:href="#a"/>
<use x="705.5063" y="906.786173" xlink:href="#a"/>
<use x="705.60408" y="910.990149" xlink:href="#a"/>
<use x="705.631872" y="914.735249" xlink:href="#a"/>
<use x="705.74004" y="909.213744" xlink:href="#a"/>
<use x="705.97249" y="902.389825" xlink:href="#a"/>
<use x="706.198874" y="907.049058" xlink:href="#a"/>
<use x="706.439556" y="915.436304" xlink:href="#a"/>
<use x="706.642736" y="910.339974" xlink:href="#a"/>
<use x="706.672161" y="907.412834" xlink:href="#a"/>
<use x="706.902894" y="883.927323" xlink:href="#a"/>
<use x="707.131307" y="887.841723" xlink:href="#a"/>
<use x="707.36296" y="876.169509" xlink:href="#a"/>
<use x="707.59203" y="890.634914" xlink:href="#a"/>
<use x="707.797288" y="895.721703" xlink:href="#a"/>
<use x="708.065066" y="890.648691" xlink:href="#a"/>
<use x="708.301199" y="894.903381" xlink:href="#a"/>
</g>
</g>
<g stroke="#1f77b4" stroke-opacity=".9">
<path d="m698 930 3.69-24 2.9 6.36 0.228 4.72 0.232-12.2 0.193-3.78 0.278 24.6 0.213-7.1 0.251 6.43 0.0978 5.38 0.136 9.81 0.232-2.6 0.226-13 0.241 7.71 0.233-3.16 0.231-14.7 0.228-4.8 0.232 6.04 0.229 0.405 0.205 10.3 0.268 8.74 0.236-5.06" clip-path="url(#g)" fill="none" stroke-dasharray="1.5,2.475" stroke-width="1.5"/>
<g clip-path="url(#g)" fill="#1f77b4" fill-opacity=".9">
<use x="697.521385" y="930.150632" xlink:href="#a"/>
<use x="701.211292" y="906.13017" xlink:href="#a"/>
<use x="704.112549" y="912.48809" xlink:href="#a"/>
<use x="704.340298" y="917.210449" xlink:href="#a"/>
<use x="704.572504" y="905.001253" xlink:href="#a"/>
<use x="704.765133" y="901.217894" xlink:href="#a"/>
<use x="705.04291" y="925.80348" xlink:href="#a"/>
<use x="705.255687" y="918.708263" xlink:href="#a"/>
<use x="705.5063" y="925.13792" xlink:href="#a"/>
<use x="705.60408" y="930.522063" xlink:href="#a"/>
<use x="705.74004" y="940.331324" xlink:href="#a"/>
<use x="705.97249" y="937.734359" xlink:href="#a"/>
<use x="706.198874" y="924.757188" xlink:href="#a"/>
<use x="706.439556" y="932.468379" xlink:href="#a"/>
<use x="706.672161" y="929.305928" xlink:href="#a"/>
<use x="706.902894" y="914.646917" xlink:href="#a"/>
<use x="707.131307" y="909.846582" xlink:href="#a"/>
<use x="707.36296" y="915.890579" xlink:href="#a"/>
<use x="707.59203" y="916.295494" xlink:href="#a"/>
<use x="707.797288" y="926.586406" xlink:href="#a"/>
<use x="708.065066" y="935.324615" xlink:href="#a"/>
<use x="708.301199" y="930.263153" xlink:href="#a"/>
</g>
</g>
<g stroke="#9467bd" stroke-opacity=".9">
<path d="m701 978 2.9 64 0.228-8.21 0.232 4.77 0.193-6.92 0.278 11.4 0.213-14.9 0.251 17.7 0.0978-16 0.136 5.16 0.232 0.216 0.226-95 0.241 13.9 0.233-3.19 0.231-35.9 0.228-0.407 0.232 59.7 0.229-10.3 0.205 4.24 0.268 11.7 0.236-7.9" clip-path="url(#g)" fill="none" stroke-dasharray="5.55,2.4" stroke-width="1.5"/>
<g clip-path="url(#g)" fill="#9467bd" fill-opacity=".9">
<use x="701.211292" y="978.139064" xlink:href="#c"/>
<use x="704.112549" y="1042.125819" xlink:href="#c"/>
<use x="704.340298" y="1033.913113" xlink:href="#c"/>
<use x="704.572504" y="1038.686079" xlink:href="#c"/>
<use x="704.765133" y="1031.767075" xlink:href="#c"/>
<use x="705.04291" y="1043.135429" xlink:href="#c"/>
<use x="705.255687" y="1028.230186" xlink:href="#c"/>
<use x="705.5063" y="1045.979263" xlink:href="#c"/>
<use x="705.60408" y="1029.952664" xlink:href="#c"/>
<use x="705.74004" y="1035.114934" xlink:href="#c"/>
<use x="705.97249" y="1035.331223" xlink:href="#c"/>
<use x="706.198874" y="940.328343" xlink:href="#c"/>
<use x="706.439556" y="954.251766" xlink:href="#c"/>
<use x="706.672161" y="951.058185" xlink:href="#c"/>
<use x="706.902894" y="915.201546" xlink:href="#c"/>
<use x="707.131307" y="914.794081" xlink:href="#c"/>
<use x="707.36296" y="974.482697" xlink:href="#c"/>
<use x="707.59203" y="964.152358" xlink:href="#c"/>
<use x="707.797288" y="968.395593" xlink:href="#c"/>
<use x="708.065066" y="980.047564" xlink:href="#c"/>
<use x="708.301199" y="972.152256" xlink:href="#c"/>
</g>
</g>
<g stroke="#2ca02c" stroke-opacity=".9">
<path d="m698 901 3.69 24.7 2.9 39 0.228-2.46 0.232 1.79 0.193-9.29 0.278 16.7 0.213-6.54 0.251 0.889 0.0978-13.7 0.136-5.46 0.232 10.6 0.226-14.8 0.241-22.2 0.233 5.4 0.231-11.2 0.228-2.51 0.232 2.87 0.229-10.7 0.709 30.7" clip-path="url(#g)" fill="none" stroke-linecap="square" stroke-width="1.5"/>
<g clip-path="url(#g)" fill="#2ca02c" fill-opacity=".9">
<use x="697.521385" y="901.335202" xlink:href="#d"/>
<use x="701.211292" y="926.014259" xlink:href="#d"/>
<use x="704.112549" y="965.001263" xlink:href="#d"/>
<use x="704.340298" y="962.545399" xlink:href="#d"/>
<use x="704.572504" y="964.339502" xlink:href="#d"/>
<use x="704.765133" y="955.046611" xlink:href="#d"/>
<use x="705.04291" y="971.717209" xlink:href="#d"/>
<use x="705.255687" y="965.17629" xlink:href="#d"/>
<use x="705.5063" y="966.064908" xlink:href="#d"/>
<use x="705.60408" y="952.35391" xlink:href="#d"/>
<use x="705.74004" y="946.89813" xlink:href="#d"/>
<use x="705.97249" y="957.467151" xlink:href="#d"/>
<use x="706.198874" y="942.640684" xlink:href="#d"/>
<use x="706.439556" y="920.484662" xlink:href="#d"/>
<use x="706.672161" y="925.887407" xlink:href="#d"/>
<use x="706.902894" y="914.675548" xlink:href="#d"/>
<use x="707.131307" y="912.16701" xlink:href="#d"/>
<use x="707.36296" y="915.039351" xlink:href="#d"/>
<use x="707.59203" y="904.293163" xlink:href="#d"/>
<use x="708.301199" y="935.033743" xlink:href="#d"/>
</g>
</g>
<path d="m698 898 3.69 41.1 2.9-98.9 0.228-23.5 0.232-11 0.193 4.48 0.975 42 0.232-1.75 0.226-18.5 0.241 7.37 0.233-4.24 0.231-14.7 0.228-4.94 0.232-22.8 0.229 25.9 0.205 3.43 0.268-10.2 0.236 23.7" clip-path="url(#g)" fill="none" stroke="#d62728" stroke-linecap="square" stroke-opacity=".9" stroke-width="1.5"/>
<defs>
<path id="e" d="m0 1.25c0.332 0 0.649-0.132 0.884-0.366 0.234-0.234 0.366-0.552 0.366-0.884s-0.132-0.649-0.366-0.884c-0.234-0.234-0.552-0.366-0.884-0.366s-0.649 0.132-0.884 0.366c-0.234 0.234-0.366 0.552-0.366 0.884s0.132 0.649 0.366 0.884c0.234 0.234 0.552 0.366 0.884 0.366z" stroke="#d62728" stroke-opacity=".9"/>
</defs>
<g clip-path="url(#g)" fill="#d62728" fill-opacity=".9" stroke="#d62728" stroke-opacity=".9">
<use x="697.521385" y="898.368819" xlink:href="#e"/>
<use x="701.211292" y="939.425232" xlink:href="#e"/>
<use x="704.112549" y="840.495081" xlink:href="#e"/>
<use x="704.340298" y="817.005469" xlink:href="#e"/>
<use x="704.572504" y="806.037996" xlink:href="#e"/>
<use x="704.765133" y="810.514783" xlink:href="#e"/>
<use x="705.74004" y="852.508583" xlink:href="#e"/>
<use x="705.97249" y="850.756737" xlink:href="#e"/>
<use x="706.198874" y="832.300896" xlink:href="#e"/>
<use x="706.439556" y="839.666785" xlink:href="#e"/>
<use x="706.672161" y="835.426345" xlink:href="#e"/>
<use x="706.902894" y="820.760395" xlink:href="#e"/>
<use x="707.131307" y="815.816994" xlink:href="#e"/>
<use x="707.36296" y="792.979728" xlink:href="#e"/>
<use x="707.59203" y="818.927869" xlink:href="#e"/>
<use x="707.797288" y="822.362034" xlink:href="#e"/>
<use x="708.065066" y="812.121693" xlink:href="#e"/>
<use x="708.301199" y="835.795831" xlink:href="#e"/>
</g>
<g stroke="#d62728" stroke-opacity=".9">
<path d="m698 1037 6.59-255 0.228-22.5 0.232 5.44 0.193-3.73 0.741 25.1 0.0978 51.2 0.136-2.41 0.232-38.3 0.226 226 0.241-29.5 0.233 13.1 0.231-11.8 0.228 28.3 0.232-8.06 0.229 2.75 0.205-2.28 0.268 19.9 0.236-29.4" clip-path="url(#g)" fill="none" stroke-dasharray="1.5,2.475" stroke-width="1.5"/>
<g clip-path="url(#g)" fill="#d62728" fill-opacity=".9">
<use x="697.521385" y="1036.528031" xlink:href="#e"/>
<use x="704.112549" y="781.675962" xlink:href="#e"/>
<use x="704.340298" y="759.131827" xlink:href="#e"/>
<use x="704.572504" y="764.571156" xlink:href="#e"/>
<use x="704.765133" y="760.837595" xlink:href="#e"/>
<use x="705.5063" y="785.94292" xlink:href="#e"/>
<use x="705.60408" y="837.190738" xlink:href="#e"/>
<use x="705.74004" y="834.781439" xlink:href="#e"/>
<use x="705.97249" y="796.494796" xlink:href="#e"/>
<use x="706.198874" y="1022.534691" xlink:href="#e"/>
<use x="706.439556" y="992.996272" xlink:href="#e"/>
<use x="706.672161" y="1006.057434" xlink:href="#e"/>
<use x="706.902894" y="994.305423" xlink:href="#e"/>
<use x="707.131307" y="1022.620235" xlink:href="#e"/>
<use x="707.36296" y="1014.558583" xlink:href="#e"/>
<use x="707.59203" y="1017.305397" xlink:href="#e"/>
<use x="707.797288" y="1015.025032" xlink:href="#e"/>
<use x="708.065066" y="1034.961445" xlink:href="#e"/>
<use x="708.301199" y="1005.537221" xlink:href="#e"/>
</g>
</g>
<path d="m40.6 1060v-316" fill="none" stroke="#000" stroke-linecap="square" stroke-width=".8"/>
<path d="m709 1060v-316" fill="none" stroke="#000" stroke-linecap="square" stroke-width=".8"/>
<path d="m40.6 1060h668" fill="none" stroke="#000" stroke-linecap="square" stroke-width=".8"/>
<path d="m40.6 745h668" fill="none" stroke="#000" stroke-linecap="square" stroke-width=".8"/>
<g clip-path="url(#g)">
<g transform="translate(58.2 885) rotate(-90) scale(.1 -.1)">
<use xlink:href="#s"/>
<use x="35.205078" xlink:href="#n"/>
<use x="96.484375" xlink:href="#q"/>
<use x="148.583984" xlink:href="#p"/>
<use x="187.792969" xlink:href="#i"/>
<use x="249.316406" xlink:href="#m"/>
<use x="290.429688" xlink:href="#DejaVuSans-20"/>
<use x="322.216797" xlink:href="#aq"/>
</g>
</g>
<g clip-path="url(#g)">
<g transform="translate(58.2 953) rotate(-90) scale(.1 -.1)">
<use xlink:href="#ar"/>
<use x="143.359375" xlink:href="#DejaVuSans-20"/>
<use x="175.146484" xlink:href="#q"/>
<use x="227.246094" xlink:href="#z"/>
<use x="255.029297" xlink:href="#r"/>
<use x="316.210938" xlink:href="#ae"/>
<use x="397.998047" xlink:href="#i"/>
<use x="459.521484" xlink:href="#m"/>
</g>
</g>
<g transform="translate(264 739) scale(.12 -.12)">
<defs>
<path id="az" transform="scale(.0156)" d="m628 4666h631v-4341q0-844-320-1225t-1030-381h-240v531h197q418 0 590 235 172 234 172 840v4341z"/>
<path id="ba" transform="scale(.0156)" d="m628 4666h631v-4666h-631v4666z"/>
</defs>
<use xlink:href="#an"/>
<use x="63.183594" xlink:href="#s"/>
<use x="98.388672" xlink:href="#s"/>
<use x="133.59375" xlink:href="#i"/>
<use x="195.117188" xlink:href="#y"/>
<use x="250.097656" xlink:href="#p"/>
<use x="289.306641" xlink:href="#DejaVuSans-20"/>
<use x="321.09375" xlink:href="#r"/>
<use x="382.275391" xlink:href="#s"/>
<use x="417.480469" xlink:href="#DejaVuSans-20"/>
<use x="449.267578" xlink:href="#az"/>
<use x="478.759766" xlink:href="#ba"/>
<use x="508.251953" xlink:href="#ak"/>
<use x="569.335938" xlink:href="#DejaVuSans-20"/>
<use x="601.123047" xlink:href="#ai"/>
<use x="660.302734" xlink:href="#q"/>
<use x="712.402344" xlink:href="#f"/>
<use x="744.189453" xlink:href="#DejaVuSans-20"/>
<use x="775.976562" xlink:href="#ak"/>
<use x="833.935547" xlink:href="#l"/>
<use x="861.71875" xlink:href="#i"/>
<use x="923.242188" xlink:href="#m"/>
<use x="964.355469" xlink:href="#DejaVuSans-20"/>
<use x="996.142578" xlink:href="#t"/>
<use x="1059.765625" xlink:href="#DejaVuSans-20"/>
<use x="1091.552734" xlink:href="#ap"/>
<use x="1130.566406" xlink:href="#q"/>
<use x="1182.666016" xlink:href="#n"/>
<use x="1243.945312" xlink:href="#w"/>
<use x="1341.357422" xlink:href="#i"/>
<use x="1402.880859" xlink:href="#DejaVuSans-20"/>
<use x="1434.667969" xlink:href="#y"/>
<use x="1489.648438" xlink:href="#r"/>
<use x="1550.830078" xlink:href="#w"/>
<use x="1648.242188" xlink:href="#w"/>
<use x="1745.654297" xlink:href="#l"/>
<use x="1773.4375" xlink:href="#p"/>
<use x="1812.646484" xlink:href="#ao"/>
</g>
<path d="m47.6 841h100q2 0 2-2v-87.1q0-2-2-2h-100q-2 0-2 2v87.1q0 2 2 2z" fill="#fff" opacity=".8" stroke="#ccc"/>
<path d="m49.6 758h10 10" fill="none" stroke="#1f77b4" stroke-linecap="square" stroke-opacity=".9" stroke-width="1.5"/>
<use x="59.645553" y="757.887892" fill="#1f77b4" fill-opacity=".9" stroke="#1f77b4" stroke-opacity=".9" xlink:href="#a"/>
<g transform="translate(77.6 761) scale(.1 -.1)">
<use xlink:href="#z"/>
<use x="27.783203" xlink:href="#l"/>
<use x="55.566406" xlink:href="#v"/>
<use x="118.945312" xlink:href="#ab"/>
<use x="182.324219" xlink:href="#ad"/>
</g>
<path d="m49.6 773h10 10" fill="none" stroke="#1f77b4" stroke-dasharray="1.5,2.475" stroke-opacity=".9" stroke-width="1.5"/>
<use x="59.645553" y="772.566017" fill="#1f77b4" fill-opacity=".9" stroke="#1f77b4" stroke-opacity=".9" xlink:href="#a"/>
<g transform="translate(77.6 776) scale(.1 -.1)">
<use xlink:href="#z"/>
<use x="27.783203" xlink:href="#l"/>
<use x="55.566406" xlink:href="#v"/>
<use x="118.945312" xlink:href="#ab"/>
<use x="182.324219" xlink:href="#ad"/>
<use x="241.503906" xlink:href="#x"/>
</g>
<path d="m49.6 787h10 10" fill="none" stroke="#9467bd" stroke-dasharray="5.55,2.4" stroke-opacity=".9" stroke-width="1.5"/>
<use x="59.645553" y="787.244142" fill="#9467bd" fill-opacity=".9" stroke="#9467bd" stroke-opacity=".9" xlink:href="#c"/>
<g transform="translate(77.6 791) scale(.1 -.1)">
<use xlink:href="#z"/>
<use x="27.783203" xlink:href="#l"/>
<use x="55.566406" xlink:href="#v"/>
<use x="118.945312" xlink:href="#ab"/>
<use x="182.324219" xlink:href="#ad"/>
<use x="241.503906" xlink:href="#av"/>
<use x="277.587891" xlink:href="#n"/>
<use x="338.867188" xlink:href="#n"/>
<use x="400.146484" xlink:href="#m"/>
<use x="439.009766" xlink:href="#y"/>
<use x="493.990234" xlink:href="#aj"/>
<use x="557.369141" xlink:href="#ac"/>
<use x="620.992188" xlink:href="#ah"/>
</g>
<path d="m49.6 802h10 10" fill="none" stroke="#2ca02c" stroke-linecap="square" stroke-opacity=".9" stroke-width="1.5"/>
<use x="59.645553" y="801.922267" fill="#2ca02c" fill-opacity=".9" stroke="#2ca02c" stroke-opacity=".9" xlink:href="#d"/>
<g transform="translate(77.6 805) scale(.1 -.1)">
<use xlink:href="#w"/>
<use x="97.412109" xlink:href="#n"/>
<use x="158.691406" xlink:href="#y"/>
<use x="213.671875" xlink:href="#r"/>
<use x="274.853516" xlink:href="#q"/>
</g>
<path d="m49.6 817h10 10" fill="none" stroke="#d62728" stroke-linecap="square" stroke-opacity=".9" stroke-width="1.5"/>
<use x="59.645553" y="816.600392" fill="#d62728" fill-opacity=".9" stroke="#d62728" stroke-opacity=".9" xlink:href="#e"/>
<g transform="translate(77.6 820) scale(.1 -.1)">
<use xlink:href="#ae"/>
<use x="81.787109" xlink:href="#l"/>
<use x="109.570312" xlink:href="#v"/>
<use x="172.949219" xlink:href="#ac"/>
<use x="236.572266" xlink:href="#ah"/>
</g>
<path d="m49.6 831h10 10" fill="none" stroke="#d62728" stroke-dasharray="1.5,2.475" stroke-opacity=".9" stroke-width="1.5"/>
<use x="59.645553" y="831.278517" fill="#d62728" fill-opacity=".9" stroke="#d62728" stroke-opacity=".9" xlink:href="#e"/>
<g transform="translate(77.6 835) scale(.1 -.1)">
<use xlink:href="#ae"/>
<use x="81.787109" xlink:href="#l"/>
<use x="109.570312" xlink:href="#v"/>
<use x="172.949219" xlink:href="#au"/>
<use x="236.572266" xlink:href="#x"/>
</g>
<g transform="translate(229 12.1) scale(.12 -.12)">
<defs>
<path id="ay" transform="scale(.0156)" d="m1259 4147v-1753h794q441 0 681 228 241 228 241 650 0 419-241 647-240 228-681 228h-794zm-631 519h1425q785 0 1186-355 402-355 402-1039 0-691-402-1044-401-353-1186-353h-794v-1875h-631v4666z"/>
<path id="ax" transform="scale(.0156)" d="m1159 525v-1856h-578v4831h578v-531q182 312 458 463 277 152 661 152 638 0 1036-506 399-506 399-1331t-399-1332q-398-506-1036-506-384 0-661 152-276 152-458 464zm1957 1222q0 634-261 995t-717 361q-457 0-718-361t-261-995 261-995 718-361q456 0 717 361t261 995z"/>
<path id="aw" transform="scale(.0156)" d="m2059-325q-243-625-475-815-231-191-618-191h-460v481h338q237 0 368 113 132 112 291 531l103 262-1415 3444h609l1094-2737 1094 2737h609l-1538-3825z"/>
</defs>
<use xlink:href="#ay"/>
<use x="56.677734" xlink:href="#i"/>
<use x="118.201172" xlink:href="#m"/>
<use x="159.314453" xlink:href="#s"/>
<use x="194.519531" xlink:href="#r"/>
<use x="255.701172" xlink:href="#m"/>
<use x="295.064453" xlink:href="#w"/>
<use x="392.476562" xlink:href="#n"/>
<use x="453.755859" xlink:href="#v"/>
<use x="517.134766" xlink:href="#y"/>
<use x="572.115234" xlink:href="#i"/>
<use x="633.638672" xlink:href="#DejaVuSans-20"/>
<use x="665.425781" xlink:href="#l"/>
<use x="693.208984" xlink:href="#w"/>
<use x="790.621094" xlink:href="#ax"/>
<use x="854.097656" xlink:href="#m"/>
<use x="892.960938" xlink:href="#r"/>
<use x="954.142578" xlink:href="#ai"/>
<use x="1013.322266" xlink:href="#i"/>
<use x="1074.845703" xlink:href="#w"/>
<use x="1172.257812" xlink:href="#i"/>
<use x="1233.78125" xlink:href="#v"/>
<use x="1297.160156" xlink:href="#p"/>
<use x="1336.369141" xlink:href="#DejaVuSans-20"/>
<use x="1368.15625" xlink:href="#at"/>
<use x="1431.632812" xlink:href="#aw"/>
<use x="1490.8125" xlink:href="#DejaVuSans-20"/>
<use x="1522.599609" xlink:href="#y"/>
<use x="1577.580078" xlink:href="#r"/>
<use x="1638.761719" xlink:href="#v"/>
<use x="1702.140625" xlink:href="#s"/>
<use x="1737.345703" xlink:href="#l"/>
<use x="1765.128906" xlink:href="#am"/>
<use x="1828.605469" xlink:href="#ab"/>
<use x="1891.984375" xlink:href="#m"/>
<use x="1933.097656" xlink:href="#n"/>
<use x="1994.376953" xlink:href="#p"/>
<use x="2033.585938" xlink:href="#l"/>
<use x="2061.369141" xlink:href="#r"/>
<use x="2122.550781" xlink:href="#v"/>
</g>
<defs>
<clipPath id="u">
<rect x="40.6" y="35.7" width="668" height="316"/>
</clipPath>
<clipPath id="h">
<rect x="40.6" y="390" width="668" height="316"/>
</clipPath>
<clipPath id="g">
<rect x="40.6" y="745" width="668" height="316"/>
</clipPath>
</defs>
</svg>
