<?xml version="1.0" encoding="UTF-8"?>
<!DOCTYPE svg  PUBLIC '-//W3C//DTD SVG 1.1//EN'  'http://www.w3.org/Graphics/SVG/1.1/DTD/svg11.dtd'>
<svg width="720pt" height="720pt" version="1.1" viewBox="0 0 720 720" xmlns="http://www.w3.org/2000/svg" xmlns:xlink="http://www.w3.org/1999/xlink">
<defs>
<style type="text/css">*{stroke-linejoin: round; stroke-linecap: butt}</style>
</defs>
<path d="m0 720h720v-720h-720z" fill="#fff"/>
<path d="m40.6 349h676v-313h-676z" fill="#fff"/>
<path d="m98.9 349v-313" clip-path="url(#h)" fill="none" stroke="#b0b0b0" stroke-linecap="square" stroke-width=".8"/>
<defs>
<path id="q" d="m0 0v3.5" stroke="#000" stroke-width=".8"/>
</defs>
<use x="98.907731" y="348.52899" stroke="#000000" stroke-width=".8" xlink:href="#q"/>
<g transform="translate(78 363) scale(.1 -.1)">
<defs>
<path id="e" transform="scale(.0156)" d="m1228 531h2203v-531h-2962v531q359 372 979 998 621 627 780 809 303 340 423 576 121 236 121 464 0 372-261 606-261 235-680 235-297 0-627-103-329-103-704-313v638q381 153 712 231 332 78 607 78 725 0 1156-363 431-362 431-968 0-288-108-546-107-257-392-607-78-91-497-524-418-433-1181-1211z"/>
<path id="b" transform="scale(.0156)" d="m2034 4250q-487 0-733-480-245-479-245-1442 0-959 245-1439 246-480 733-480 491 0 736 480 246 480 246 1439 0 963-246 1442-245 480-736 480zm0 500q785 0 1199-621 414-620 414-1801 0-1178-414-1799-414-620-1199-620-784 0-1198 620-414 621-414 1799 0 1181 414 1801 414 621 1198 621z"/>
<path id="ae" transform="scale(.0156)" d="m2597 2516q453-97 707-404 255-306 255-756 0-690-475-1069-475-378-1350-378-293 0-604 58t-642 174v609q262-153 574-231 313-78 654-78 593 0 904 234t311 681q0 413-289 645-289 233-804 233h-544v519h569q465 0 712 186t247 536q0 359-255 551-254 193-729 193-260 0-557-57-297-56-653-174v562q360 100 674 150t592 50q719 0 1137-327 419-326 419-882 0-388-222-655t-631-370z"/>
<path id="o" transform="scale(.0156)" d="m313 2009h1684v-512h-1684v512z"/>
<path id="n" transform="scale(.0156)" d="m794 531h1031v3560l-1122-225v575l1116 225h631v-4135h1031v-531h-2687v531z"/>
</defs>
<use xlink:href="#e"/>
<use x="63.623047" xlink:href="#b"/>
<use x="127.246094" xlink:href="#e"/>
<use x="190.869141" xlink:href="#ae"/>
<use x="254.492188" xlink:href="#o"/>
<use x="290.576172" xlink:href="#n"/>
<use x="354.199219" xlink:href="#n"/>
</g>
<path d="m189 349v-313" clip-path="url(#h)" fill="none" stroke="#b0b0b0" stroke-linecap="square" stroke-width=".8"/>
<use x="189.414954" y="348.52899" stroke="#000000" stroke-width=".8" xlink:href="#q"/>
<g transform="translate(169 363) scale(.1 -.1)">
<defs>
<path id="p" transform="scale(.0156)" d="m2419 4116-1594-2491h1594v2491zm-166 550h794v-3041h666v-525h-666v-1100h-628v1100h-2106v609l1940 2957z"/>
</defs>
<use xlink:href="#e"/>
<use x="63.623047" xlink:href="#b"/>
<use x="127.246094" xlink:href="#e"/>
<use x="190.869141" xlink:href="#p"/>
<use x="254.492188" xlink:href="#o"/>
<use x="290.576172" xlink:href="#b"/>
<use x="354.199219" xlink:href="#n"/>
</g>
<path d="m278 349v-313" clip-path="url(#h)" fill="none" stroke="#b0b0b0" stroke-linecap="square" stroke-width=".8"/>
<use x="278.438453" y="348.52899" stroke="#000000" stroke-width=".8" xlink:href="#q"/>
<g transform="translate(258 363) scale(.1 -.1)">
<use xlink:href="#e"/>
<use x="63.623047" xlink:href="#b"/>
<use x="127.246094" xlink:href="#e"/>
<use x="190.869141" xlink:href="#p"/>
<use x="254.492188" xlink:href="#o"/>
<use x="290.576172" xlink:href="#b"/>
<use x="354.199219" xlink:href="#ae"/>
</g>
<path d="m369 349v-313" clip-path="url(#h)" fill="none" stroke="#b0b0b0" stroke-linecap="square" stroke-width=".8"/>
<use x="368.945676" y="348.52899" stroke="#000000" stroke-width=".8" xlink:href="#q"/>
<g transform="translate(348 363) scale(.1 -.1)">
<defs>
<path id="ac" transform="scale(.0156)" d="m691 4666h2478v-532h-1900v-1143q137 47 274 70 138 23 276 23 781 0 1237-428 457-428 457-1159 0-753-469-1171-469-417-1322-417-294 0-599 50-304 50-629 150v635q281-153 581-228t634-75q541 0 856 284 316 284 316 772 0 487-316 771-315 285-856 285-253 0-505-56-251-56-513-175v2344z"/>
</defs>
<use xlink:href="#e"/>
<use x="63.623047" xlink:href="#b"/>
<use x="127.246094" xlink:href="#e"/>
<use x="190.869141" xlink:href="#p"/>
<use x="254.492188" xlink:href="#o"/>
<use x="290.576172" xlink:href="#b"/>
<use x="354.199219" xlink:href="#ac"/>
</g>
<path d="m459 349v-313" clip-path="url(#h)" fill="none" stroke="#b0b0b0" stroke-linecap="square" stroke-width=".8"/>
<use x="459.452899" y="348.52899" stroke="#000000" stroke-width=".8" xlink:href="#q"/>
<g transform="translate(439 363) scale(.1 -.1)">
<defs>
<path id="aj" transform="scale(.0156)" d="m525 4666h3e3v-269l-1694-4397h-659l1594 4134h-2241v532z"/>
</defs>
<use xlink:href="#e"/>
<use x="63.623047" xlink:href="#b"/>
<use x="127.246094" xlink:href="#e"/>
<use x="190.869141" xlink:href="#p"/>
<use x="254.492188" xlink:href="#o"/>
<use x="290.576172" xlink:href="#b"/>
<use x="354.199219" xlink:href="#aj"/>
</g>
<path d="m551 349v-313" clip-path="url(#h)" fill="none" stroke="#b0b0b0" stroke-linecap="square" stroke-width=".8"/>
<use x="551.443848" y="348.52899" stroke="#000000" stroke-width=".8" xlink:href="#q"/>
<g transform="translate(531 363) scale(.1 -.1)">
<defs>
<path id="ab" transform="scale(.0156)" d="m703 97v575q238-113 481-172 244-59 479-59 625 0 954 420 330 420 377 1277-181-269-460-413-278-144-615-144-700 0-1108 423-408 424-408 1159 0 718 425 1152 425 435 1131 435 810 0 1236-621 427-620 427-1801 0-1103-524-1761-523-658-1407-658-238 0-482 47-243 47-506 141zm1256 1978q425 0 673 290 249 291 249 798 0 503-249 795-248 292-673 292t-673-292-248-795q0-507 248-798 248-290 673-290z"/>
</defs>
<use xlink:href="#e"/>
<use x="63.623047" xlink:href="#b"/>
<use x="127.246094" xlink:href="#e"/>
<use x="190.869141" xlink:href="#p"/>
<use x="254.492188" xlink:href="#o"/>
<use x="290.576172" xlink:href="#b"/>
<use x="354.199219" xlink:href="#ab"/>
</g>
<path d="m642 349v-313" clip-path="url(#h)" fill="none" stroke="#b0b0b0" stroke-linecap="square" stroke-width=".8"/>
<use x="641.951071" y="348.52899" stroke="#000000" stroke-width=".8" xlink:href="#q"/>
<g transform="translate(621 363) scale(.1 -.1)">
<use xlink:href="#e"/>
<use x="63.623047" xlink:href="#b"/>
<use x="127.246094" xlink:href="#e"/>
<use x="190.869141" xlink:href="#p"/>
<use x="254.492188" xlink:href="#o"/>
<use x="290.576172" xlink:href="#n"/>
<use x="354.199219" xlink:href="#n"/>
</g>
<path d="m40.6 342h676" clip-path="url(#h)" fill="none" stroke="#b0b0b0" stroke-linecap="square" stroke-width=".8"/>
<defs>
<path id="j" d="m0 0h-3.5" stroke="#000" stroke-width=".8"/>
</defs>
<use x="40.645553" y="341.587486" stroke="#000000" stroke-width=".8" xlink:href="#j"/>
<g transform="translate(3 345) scale(.1 -.1)">
<defs>
<path id="i" transform="scale(.0156)" d="m684 794h660v-794h-660v794z"/>
<path id="ah" transform="scale(.0156)" d="m2113 2584q-425 0-674-291-248-290-248-796 0-503 248-796 249-292 674-292t673 292q248 293 248 796 0 506-248 796-248 291-673 291zm1253 1979v-575q-238 112-480 171-242 60-480 60-625 0-955-422-329-422-376-1275 184 272 462 417 279 145 613 145 703 0 1111-427 408-426 408-1160 0-719-425-1154-425-434-1131-434-810 0-1238 620-428 621-428 1799 0 1106 525 1764t1409 658q238 0 480-47t505-140z"/>
<path id="k" transform="scale(.0156)" d="m4488 3438-1429-1435 1429-1428-372-378-1435 1434-1434-1434-369 378 1425 1428-1425 1435 369 378 1434-1435 1435 1435 372-378z"/>
</defs>
<use xlink:href="#b"/>
<use x="63.623047" xlink:href="#i"/>
<use x="95.410156" xlink:href="#ah"/>
<use x="159.033203" xlink:href="#b"/>
<use x="222.65625" xlink:href="#k"/>
</g>
<path d="m40.6 301h676" clip-path="url(#h)" fill="none" stroke="#b0b0b0" stroke-linecap="square" stroke-width=".8"/>
<use x="40.645553" y="300.511887" stroke="#000000" stroke-width=".8" xlink:href="#j"/>
<g transform="translate(3 304) scale(.1 -.1)">
<use xlink:href="#b"/>
<use x="63.623047" xlink:href="#i"/>
<use x="95.410156" xlink:href="#ah"/>
<use x="159.033203" xlink:href="#ac"/>
<use x="222.65625" xlink:href="#k"/>
</g>
<path d="m40.6 259h676" clip-path="url(#h)" fill="none" stroke="#b0b0b0" stroke-linecap="square" stroke-width=".8"/>
<use x="40.645553" y="259.436289" stroke="#000000" stroke-width=".8" xlink:href="#j"/>
<g transform="translate(3 263) scale(.1 -.1)">
<use xlink:href="#b"/>
<use x="63.623047" xlink:href="#i"/>
<use x="95.410156" xlink:href="#aj"/>
<use x="159.033203" xlink:href="#b"/>
<use x="222.65625" xlink:href="#k"/>
</g>
<path d="m40.6 218h676" clip-path="url(#h)" fill="none" stroke="#b0b0b0" stroke-linecap="square" stroke-width=".8"/>
<use x="40.645553" y="218.360691" stroke="#000000" stroke-width=".8" xlink:href="#j"/>
<g transform="translate(3 222) scale(.1 -.1)">
<use xlink:href="#b"/>
<use x="63.623047" xlink:href="#i"/>
<use x="95.410156" xlink:href="#aj"/>
<use x="159.033203" xlink:href="#ac"/>
<use x="222.65625" xlink:href="#k"/>
</g>
<path d="m40.6 177h676" clip-path="url(#h)" fill="none" stroke="#b0b0b0" stroke-linecap="square" stroke-width=".8"/>
<use x="40.645553" y="177.285092" stroke="#000000" stroke-width=".8" xlink:href="#j"/>
<g transform="translate(3 181) scale(.1 -.1)">
<defs>
<path id="ag" transform="scale(.0156)" d="m2034 2216q-450 0-708-241-257-241-257-662 0-422 257-663 258-241 708-241t709 242q260 243 260 662 0 421-258 662-257 241-711 241zm-631 268q-406 100-633 378-226 279-226 679 0 559 398 884 399 325 1092 325 697 0 1094-325t397-884q0-400-227-679-226-278-629-378 456-106 710-416 255-309 255-755 0-679-414-1042-414-362-1186-362-771 0-1186 362-414 363-414 1042 0 446 256 755 257 310 713 416zm-231 997q0-362 226-565 227-203 636-203 407 0 636 203 230 203 230 565 0 363-230 566-229 203-636 203-409 0-636-203-226-203-226-566z"/>
</defs>
<use xlink:href="#b"/>
<use x="63.623047" xlink:href="#i"/>
<use x="95.410156" xlink:href="#ag"/>
<use x="159.033203" xlink:href="#b"/>
<use x="222.65625" xlink:href="#k"/>
</g>
<path d="m40.6 136h676" clip-path="url(#h)" fill="none" stroke="#b0b0b0" stroke-linecap="square" stroke-width=".8"/>
<use x="40.645553" y="136.209494" stroke="#000000" stroke-width=".8" xlink:href="#j"/>
<g transform="translate(3 140) scale(.1 -.1)">
<use xlink:href="#b"/>
<use x="63.623047" xlink:href="#i"/>
<use x="95.410156" xlink:href="#ag"/>
<use x="159.033203" xlink:href="#ac"/>
<use x="222.65625" xlink:href="#k"/>
</g>
<path d="m40.6 95.1h676" clip-path="url(#h)" fill="none" stroke="#b0b0b0" stroke-linecap="square" stroke-width=".8"/>
<use x="40.645553" y="95.133896" stroke="#000000" stroke-width=".8" xlink:href="#j"/>
<g transform="translate(3 98.9) scale(.1 -.1)">
<use xlink:href="#b"/>
<use x="63.623047" xlink:href="#i"/>
<use x="95.410156" xlink:href="#ab"/>
<use x="159.033203" xlink:href="#b"/>
<use x="222.65625" xlink:href="#k"/>
</g>
<path d="m40.6 54.1h676" clip-path="url(#h)" fill="none" stroke="#b0b0b0" stroke-linecap="square" stroke-width=".8"/>
<use x="40.645553" y="54.058297" stroke="#000000" stroke-width=".8" xlink:href="#j"/>
<g transform="translate(3 57.9) scale(.1 -.1)">
<use xlink:href="#b"/>
<use x="63.623047" xlink:href="#i"/>
<use x="95.410156" xlink:href="#ab"/>
<use x="159.033203" xlink:href="#ac"/>
<use x="222.65625" xlink:href="#k"/>
</g>
<path d="m71.4 50 59.5 68.4 83.1 12.3 43.1-49 39 182 255 5.04 10.2-1.57 10.4-0.257 8.6 3.49 12.4-4.76 9.5 4.27 11.2 17.8 10.4-23.1 10.4 5.44 10.1-6.33 10.7-5.22 10.4-0.439 10.3-27.6 10.2-6.03" clip-path="url(#h)" fill="none" stroke="#1f77b4" stroke-linecap="square" stroke-opacity=".9" stroke-width="1.5"/>
<defs>
<path id="a" d="m-2.5 2.5h5v-5h-5z" stroke="#1f77b4" stroke-opacity=".9"/>
</defs>
<g clip-path="url(#h)" fill="#1f77b4" fill-opacity=".9" stroke="#1f77b4" stroke-opacity=".9">
<use x="71.388926" y="49.950613" xlink:href="#a"/>
<use x="130.890659" y="118.34161" xlink:href="#a"/>
<use x="214.035172" y="130.654844" xlink:href="#a"/>
<use x="257.149781" y="81.692954" xlink:href="#a"/>
<use x="296.13098" y="263.989568" xlink:href="#a"/>
<use x="551.46145" y="269.032103" xlink:href="#a"/>
<use x="561.630994" y="267.462906" xlink:href="#a"/>
<use x="571.999535" y="267.20603" xlink:href="#a"/>
<use x="580.600915" y="270.696268" xlink:href="#a"/>
<use x="593.004341" y="265.939002" xlink:href="#a"/>
<use x="602.50535" y="270.208998" xlink:href="#a"/>
<use x="613.695847" y="288.028527" xlink:href="#a"/>
<use x="624.132925" y="264.918115" xlink:href="#a"/>
<use x="634.512371" y="270.353397" xlink:href="#a"/>
<use x="644.620952" y="264.023393" xlink:href="#a"/>
<use x="655.367998" y="258.801371" xlink:href="#a"/>
<use x="665.754416" y="258.361951" xlink:href="#a"/>
<use x="676.057186" y="230.748734" xlink:href="#a"/>
<use x="686.256387" y="224.716986" xlink:href="#a"/>
</g>
<g stroke="#1f77b4" stroke-opacity=".9">
<path d="m551 283 10.2-2.8 10.4-13.3 8.6-2.79 12.4 1.04 9.5-2.94 11.2 18.1 10.4-11.6 10.4-0.427 10.1-6.94 10.7-4.96 10.4-0.401 10.3-34.3 10.2-5.63" clip-path="url(#h)" fill="none" stroke-dasharray="1.5,2.475" stroke-width="1.5"/>
<g clip-path="url(#h)" fill="#1f77b4" fill-opacity=".9">
<use x="551.46145" y="282.582839" xlink:href="#a"/>
<use x="561.630994" y="279.781543" xlink:href="#a"/>
<use x="571.999535" y="266.502757" xlink:href="#a"/>
<use x="580.600915" y="263.717662" xlink:href="#a"/>
<use x="593.004341" y="264.754079" xlink:href="#a"/>
<use x="602.50535" y="261.815829" xlink:href="#a"/>
<use x="613.695847" y="279.871796" xlink:href="#a"/>
<use x="624.132925" y="268.267367" xlink:href="#a"/>
<use x="634.512371" y="267.840473" xlink:href="#a"/>
<use x="644.620952" y="260.902064" xlink:href="#a"/>
<use x="655.367998" y="255.944712" xlink:href="#a"/>
<use x="665.754416" y="255.543554" xlink:href="#a"/>
<use x="676.057186" y="221.268077" xlink:href="#a"/>
<use x="686.256387" y="215.637967" xlink:href="#a"/>
</g>
</g>
<path d="m551 329 10.2-1.51 10.4-11.8 8.6-1.14 12.4 0.291 9.5-0.0238 11.2 19.4 10.4-14 10.4 2.4 10.1-13.1 10.7 0.873 10.4 3.24 10.3-30.4 10.2-0.248" clip-path="url(#h)" fill="none" stroke="#9467bd" stroke-dasharray="5.55,2.4" stroke-opacity=".9" stroke-width="1.5"/>
<defs>
<path id="d" d="m-2.5 2.5h5v-5h-5z" stroke="#9467bd" stroke-opacity=".9"/>
</defs>
<g clip-path="url(#h)" fill="#9467bd" fill-opacity=".9" stroke="#9467bd" stroke-opacity=".9">
<use x="551.46145" y="329.107943" xlink:href="#d"/>
<use x="561.630994" y="327.59856" xlink:href="#d"/>
<use x="571.999535" y="315.829914" xlink:href="#d"/>
<use x="580.600915" y="314.687206" xlink:href="#d"/>
<use x="593.004341" y="314.978584" xlink:href="#d"/>
<use x="602.50535" y="314.954813" xlink:href="#d"/>
<use x="613.695847" y="334.310972" xlink:href="#d"/>
<use x="624.132925" y="320.35995" xlink:href="#d"/>
<use x="634.512371" y="322.762992" xlink:href="#d"/>
<use x="644.620952" y="309.644001" xlink:href="#d"/>
<use x="655.367998" y="310.516843" xlink:href="#d"/>
<use x="665.754416" y="313.75248" xlink:href="#d"/>
<use x="676.057186" y="283.340467" xlink:href="#d"/>
<use x="686.256387" y="283.092481" xlink:href="#d"/>
</g>
<path d="m551 274 10.2 10.7 10.4-23 8.6-8.22 12.4 1.23 9.5-1.09 11.2 22.7 10.4-40.9 10.4 9.71 10.1-11.3 10.7-24.5 10.4 0.0421 10.3-43.1 10.2-3.55" clip-path="url(#h)" fill="none" stroke="#2ca02c" stroke-linecap="square" stroke-opacity=".9" stroke-width="1.5"/>
<defs>
<path id="c" d="m0-2.5-2.5 5h5z" stroke="#2ca02c" stroke-opacity=".9"/>
</defs>
<g clip-path="url(#h)" fill="#2ca02c" fill-opacity=".9" stroke="#2ca02c" stroke-opacity=".9">
<use x="551.46145" y="273.712505" xlink:href="#c"/>
<use x="561.630994" y="284.37302" xlink:href="#c"/>
<use x="571.999535" y="261.339211" xlink:href="#c"/>
<use x="580.600915" y="253.120771" xlink:href="#c"/>
<use x="593.004341" y="254.350595" xlink:href="#c"/>
<use x="602.50535" y="253.264957" xlink:href="#c"/>
<use x="613.695847" y="275.995534" xlink:href="#c"/>
<use x="624.132925" y="235.105764" xlink:href="#c"/>
<use x="634.512371" y="244.814369" xlink:href="#c"/>
<use x="644.620952" y="233.46972" xlink:href="#c"/>
<use x="655.367998" y="209.013236" xlink:href="#c"/>
<use x="665.754416" y="209.055325" xlink:href="#c"/>
<use x="676.057186" y="165.957455" xlink:href="#c"/>
<use x="686.256387" y="162.403223" xlink:href="#c"/>
</g>
<path d="m40.6 349v-313" fill="none" stroke="#000" stroke-linecap="square" stroke-width=".8"/>
<path d="m717 349v-313" fill="none" stroke="#000" stroke-linecap="square" stroke-width=".8"/>
<path d="m40.6 349h676" fill="none" stroke="#000" stroke-linecap="square" stroke-width=".8"/>
<path d="m40.6 35.7h676" fill="none" stroke="#000" stroke-linecap="square" stroke-width=".8"/>
<g clip-path="url(#h)">
<g transform="translate(58.2 5.06) rotate(-90) scale(.1 -.1)">
<defs>
<path id="w" transform="scale(.0156)" d="m2375 4863v-479h-550q-309 0-430-125-120-125-120-450v-309h947v-447h-947v-3053h-578v3053h-550v447h550v244q0 584 272 851 272 268 862 268h544z"/>
<path id="t" transform="scale(.0156)" d="m2194 1759q-697 0-966-159t-269-544q0-306 202-486 202-179 548-179 479 0 768 339t289 901v128h-572zm1147 238v-2e3h-575v531q-197-318-491-470t-719-152q-537 0-855 302-317 302-317 808 0 590 395 890 396 300 1180 300h807v57q0 397-261 614t-733 217q-300 0-585-72-284-72-546-216v532q315 122 612 182 297 61 578 61 760 0 1135-394 375-393 375-1193z"/>
<path id="x" transform="scale(.0156)" d="m2834 3397v-544q-243 125-506 187-262 63-544 63-428 0-642-131t-214-394q0-200 153-314t616-217l197-44q612-131 870-370t258-667q0-488-386-773-386-284-1061-284-281 0-586 55t-642 164v594q319-166 628-249 309-82 613-82 406 0 624 139 219 139 219 392 0 234-158 359-157 125-692 241l-200 47q-534 112-772 345-237 233-237 639 0 494 350 762 350 269 994 269 318 0 599-47 282-46 519-140z"/>
<path id="z" transform="scale(.0156)" d="m1172 4494v-994h1184v-447h-1184v-1900q0-428 117-550t477-122h590v-481h-590q-666 0-919 248-253 249-253 905v1900h-422v447h422v994h578z"/>
<path id="l" transform="scale(.0156)" d="m3597 1894v-281h-2644q38-594 358-905t892-311q331 0 642 81t618 244v-544q-310-131-635-200t-659-69q-838 0-1327 487-489 488-489 1320 0 859 464 1363 464 505 1252 505 706 0 1117-455 411-454 411-1235zm-575 169q-6 471-264 752-258 282-683 282-481 0-770-272t-333-766l2050 4z"/>
<path id="r" transform="scale(.0156)" d="m2631 2963q-97 56-211 82-114 27-251 27-488 0-749-317t-261-911v-1844h-578v3500h578v-544q182 319 472 473 291 155 707 155 59 0 131-8 72-7 159-23l3-590z"/>
<path id="ar" transform="scale(.0156)" d="m8863 2147v-281l-1229-1228-375 375 729 728h-7622v531h7622l-729 728 375 375 1229-1228z"/>
</defs>
<use xlink:href="#w"/>
<use x="35.205078" xlink:href="#t"/>
<use x="96.484375" xlink:href="#x"/>
<use x="148.583984" xlink:href="#z"/>
<use x="187.792969" xlink:href="#l"/>
<use x="249.316406" xlink:href="#r"/>
<use x="290.429688" xlink:href="#DejaVuSans-20"/>
<use x="322.216797" xlink:href="#ar"/>
</g>
</g>
<g clip-path="url(#h)">
<g transform="translate(58.2 73) rotate(-90) scale(.1 -.1)">
<defs>
<path id="as" transform="scale(.0156)" d="m313 1866v281l1228 1228 375-375-728-728h7621v-531h-7621l728-728-375-375-1228 1228z"/>
<path id="aa" transform="scale(.0156)" d="m603 4863h575v-4863h-575v4863z"/>
<path id="u" transform="scale(.0156)" d="m1959 3097q-462 0-731-361t-269-989 267-989q268-361 733-361 460 0 728 362 269 363 269 988 0 622-269 986-268 364-728 364zm0 487q750 0 1178-488 429-487 429-1349 0-859-429-1349-428-489-1178-489-753 0-1180 489-426 490-426 1349 0 862 426 1349 427 488 1180 488z"/>
<path id="ai" transform="scale(.0156)" d="m269 3500h575l719-2731 715 2731h678l719-2731 716 2731h575l-916-3500h-678l-753 2869-756-2869h-679l-915 3500z"/>
</defs>
<use xlink:href="#as"/>
<use x="143.359375" xlink:href="#DejaVuSans-20"/>
<use x="175.146484" xlink:href="#x"/>
<use x="227.246094" xlink:href="#aa"/>
<use x="255.029297" xlink:href="#u"/>
<use x="316.210938" xlink:href="#ai"/>
<use x="397.998047" xlink:href="#l"/>
<use x="459.521484" xlink:href="#r"/>
</g>
</g>
<g transform="translate(232 29.7) scale(.12 -.12)">
<defs>
<path id="ao" transform="scale(.0156)" d="m628 4666h2950v-532h-2319v-1381h2222v-531h-2222v-1691h2375v-531h-3006v4666z"/>
<path id="y" transform="scale(.0156)" d="m3122 3366v-538q-244 135-489 202t-495 67q-560 0-870-355-309-354-309-995t309-996q310-354 870-354 250 0 495 67t489 202v-532q-241-112-499-168-257-57-548-57-791 0-1257 497-465 497-465 1341 0 856 470 1346 471 491 1290 491 265 0 518-55 253-54 491-163z"/>
<path id="al" transform="scale(.0156)" d="m3513 2113v-2113h-575v2094q0 497-194 743-194 247-581 247-466 0-735-297-269-296-269-809v-1978h-578v4863h578v-1907q207 316 486 472 280 156 646 156 603 0 912-373 310-373 310-1098z"/>
<path id="av" transform="scale(.0156)" d="m2906 2969v1894h575v-4863h-575v525q-181-312-458-464-276-152-664-152-634 0-1033 506-398 507-398 1332t398 1331q399 506 1033 506 388 0 664-152 277-151 458-463zm-1959-1222q0-634 261-995t717-361 718 361q263 361 263 995t-263 995q-262 361-718 361t-717-361-261-995z"/>
<path id="m" transform="scale(.0156)" d="m603 3500h575v-3500h-575v3500zm0 1363h575v-729h-575v729z"/>
<path id="s" transform="scale(.0156)" d="m3513 2113v-2113h-575v2094q0 497-194 743-194 247-581 247-466 0-735-297-269-296-269-809v-1978h-578v3500h578v-544q207 316 486 472 280 156 646 156 603 0 912-373 310-373 310-1098z"/>
<path id="an" transform="scale(.0156)" d="m2906 1791q0 625-258 968-257 344-723 344-462 0-720-344-258-343-258-968 0-622 258-966t720-344q466 0 723 344 258 344 258 966zm575-1357q0-893-397-1329-396-436-1215-436-303 0-572 45t-522 139v559q253-137 500-202 247-66 503-66 566 0 847 295t281 892v285q-178-310-456-463t-666-153q-643 0-1037 490-394 491-394 1301 0 812 394 1302 394 491 1037 491 388 0 666-153t456-462v531h575v-3066z"/>
<path id="ak" transform="scale(.0156)" d="m191 3500h609l1094-2937 1094 2937h609l-1313-3500h-781l-1312 3500z"/>
<path id="am" transform="scale(.0156)" d="m-19 4666h3947v-532h-1656v-4134h-634v4134h-1657v532z"/>
<path id="aq" transform="scale(.0156)" d="m1984 4856q-418-718-622-1422-203-703-203-1425 0-721 205-1429t620-1424h-500q-468 735-701 1444t-233 1409q0 697 231 1403 232 707 703 1444h500z"/>
<path id="v" transform="scale(.0156)" d="m3328 2828q216 388 516 572t706 184q547 0 844-383 297-382 297-1088v-2113h-578v2094q0 503-179 746-178 244-543 244-447 0-707-297-259-296-259-809v-1978h-578v2094q0 506-178 748t-550 242q-441 0-701-298-259-298-259-808v-1978h-578v3500h578v-544q197 322 472 475t653 153q382 0 649-194 267-193 395-562z"/>
<path id="ap" transform="scale(.0156)" d="m513 4856h500q468-737 701-1444 233-706 233-1403 0-700-233-1409t-701-1444h-500q415 716 620 1424t205 1429q0 722-205 1425-205 704-620 1422z"/>
</defs>
<use xlink:href="#ao"/>
<use x="63.183594" xlink:href="#w"/>
<use x="98.388672" xlink:href="#w"/>
<use x="133.59375" xlink:href="#l"/>
<use x="195.117188" xlink:href="#y"/>
<use x="250.097656" xlink:href="#z"/>
<use x="289.306641" xlink:href="#DejaVuSans-20"/>
<use x="321.09375" xlink:href="#u"/>
<use x="382.275391" xlink:href="#w"/>
<use x="417.480469" xlink:href="#DejaVuSans-20"/>
<use x="449.267578" xlink:href="#w"/>
<use x="484.472656" xlink:href="#r"/>
<use x="523.335938" xlink:href="#l"/>
<use x="584.859375" xlink:href="#l"/>
<use x="646.382812" xlink:href="#DejaVuSans-20"/>
<use x="678.169922" xlink:href="#z"/>
<use x="717.378906" xlink:href="#al"/>
<use x="780.757812" xlink:href="#r"/>
<use x="819.621094" xlink:href="#l"/>
<use x="881.144531" xlink:href="#t"/>
<use x="942.423828" xlink:href="#av"/>
<use x="1005.900391" xlink:href="#m"/>
<use x="1033.683594" xlink:href="#s"/>
<use x="1097.0625" xlink:href="#an"/>
<use x="1160.539062" xlink:href="#DejaVuSans-20"/>
<use x="1192.326172" xlink:href="#ak"/>
<use x="1251.505859" xlink:href="#x"/>
<use x="1303.605469" xlink:href="#i"/>
<use x="1335.392578" xlink:href="#DejaVuSans-20"/>
<use x="1367.179688" xlink:href="#am"/>
<use x="1425.138672" xlink:href="#m"/>
<use x="1452.921875" xlink:href="#l"/>
<use x="1514.445312" xlink:href="#r"/>
<use x="1555.558594" xlink:href="#DejaVuSans-20"/>
<use x="1587.345703" xlink:href="#n"/>
<use x="1650.96875" xlink:href="#DejaVuSans-20"/>
<use x="1682.755859" xlink:href="#aq"/>
<use x="1721.769531" xlink:href="#x"/>
<use x="1773.869141" xlink:href="#t"/>
<use x="1835.148438" xlink:href="#v"/>
<use x="1932.560547" xlink:href="#l"/>
<use x="1994.083984" xlink:href="#DejaVuSans-20"/>
<use x="2025.871094" xlink:href="#y"/>
<use x="2080.851562" xlink:href="#u"/>
<use x="2142.033203" xlink:href="#v"/>
<use x="2239.445312" xlink:href="#v"/>
<use x="2336.857422" xlink:href="#m"/>
<use x="2364.640625" xlink:href="#z"/>
<use x="2403.849609" xlink:href="#ap"/>
</g>
<path d="m47.6 102h100q2 0 2-2v-57.7q0-2-2-2h-100q-2 0-2 2v57.7q0 2 2 2z" fill="#fff" opacity=".8" stroke="#ccc"/>
<path d="m49.6 48.8h10 10" fill="none" stroke="#1f77b4" stroke-linecap="square" stroke-opacity=".9" stroke-width="1.5"/>
<use x="59.645553" y="48.831032" fill="#1f77b4" fill-opacity=".9" stroke="#1f77b4" stroke-opacity=".9" xlink:href="#a"/>
<g transform="translate(77.6 52.3) scale(.1 -.1)">
<defs>
<path id="ad" transform="scale(.0156)" d="m544 1381v2119h575v-2097q0-497 193-746 194-248 582-248 465 0 735 297 271 297 271 810v1984h575v-3500h-575v538q-209-319-486-474-276-155-642-155-603 0-916 375-312 375-312 1097zm1447 2203z"/>
<path id="af" transform="scale(.0156)" d="m3513 3500-1266-1703 1331-1797h-678l-1019 1375-1018-1375h-679l1360 1831-1244 1669h678l928-1247 928 1247h679z"/>
</defs>
<use xlink:href="#aa"/>
<use x="27.783203" xlink:href="#m"/>
<use x="55.566406" xlink:href="#s"/>
<use x="118.945312" xlink:href="#ad"/>
<use x="182.324219" xlink:href="#af"/>
</g>
<path d="m49.6 63.5h10 10" fill="none" stroke="#1f77b4" stroke-dasharray="1.5,2.475" stroke-opacity=".9" stroke-width="1.5"/>
<use x="59.645553" y="63.509157" fill="#1f77b4" fill-opacity=".9" stroke="#1f77b4" stroke-opacity=".9" xlink:href="#a"/>
<g transform="translate(77.6 67) scale(.1 -.1)">
<use xlink:href="#aa"/>
<use x="27.783203" xlink:href="#m"/>
<use x="55.566406" xlink:href="#s"/>
<use x="118.945312" xlink:href="#ad"/>
<use x="182.324219" xlink:href="#af"/>
<use x="241.503906" xlink:href="#e"/>
</g>
<path d="m49.6 78.2h10 10" fill="none" stroke="#9467bd" stroke-dasharray="5.55,2.4" stroke-opacity=".9" stroke-width="1.5"/>
<use x="59.645553" y="78.187282" fill="#9467bd" fill-opacity=".9" stroke="#9467bd" stroke-opacity=".9" xlink:href="#d"/>
<g transform="translate(77.6 81.7) scale(.1 -.1)">
<use xlink:href="#aa"/>
<use x="27.783203" xlink:href="#m"/>
<use x="55.566406" xlink:href="#s"/>
<use x="118.945312" xlink:href="#ad"/>
<use x="182.324219" xlink:href="#af"/>
<use x="241.503906" xlink:href="#o"/>
<use x="277.587891" xlink:href="#t"/>
<use x="338.867188" xlink:href="#t"/>
<use x="400.146484" xlink:href="#r"/>
<use x="439.009766" xlink:href="#y"/>
<use x="493.990234" xlink:href="#al"/>
<use x="557.369141" xlink:href="#ah"/>
<use x="620.992188" xlink:href="#p"/>
</g>
<path d="m49.6 92.9h10 10" fill="none" stroke="#2ca02c" stroke-linecap="square" stroke-opacity=".9" stroke-width="1.5"/>
<use x="59.645553" y="92.865407" fill="#2ca02c" fill-opacity=".9" stroke="#2ca02c" stroke-opacity=".9" xlink:href="#c"/>
<g transform="translate(77.6 96.4) scale(.1 -.1)">
<use xlink:href="#v"/>
<use x="97.412109" xlink:href="#t"/>
<use x="158.691406" xlink:href="#y"/>
<use x="213.671875" xlink:href="#u"/>
<use x="274.853516" xlink:href="#x"/>
</g>
<path d="m40.6 700h676v-313h-676z" fill="#fff"/>
<path d="m99 700v-313" clip-path="url(#f)" fill="none" stroke="#b0b0b0" stroke-linecap="square" stroke-width=".8"/>
<use x="98.969553" y="700.321635" stroke="#000000" stroke-width=".8" xlink:href="#q"/>
<g transform="translate(78.1 715) scale(.1 -.1)">
<use xlink:href="#e"/>
<use x="63.623047" xlink:href="#b"/>
<use x="127.246094" xlink:href="#e"/>
<use x="190.869141" xlink:href="#ae"/>
<use x="254.492188" xlink:href="#o"/>
<use x="290.576172" xlink:href="#n"/>
<use x="354.199219" xlink:href="#n"/>
</g>
<path d="m189 700v-313" clip-path="url(#f)" fill="none" stroke="#b0b0b0" stroke-linecap="square" stroke-width=".8"/>
<use x="189.476776" y="700.321635" stroke="#000000" stroke-width=".8" xlink:href="#q"/>
<g transform="translate(169 715) scale(.1 -.1)">
<use xlink:href="#e"/>
<use x="63.623047" xlink:href="#b"/>
<use x="127.246094" xlink:href="#e"/>
<use x="190.869141" xlink:href="#p"/>
<use x="254.492188" xlink:href="#o"/>
<use x="290.576172" xlink:href="#b"/>
<use x="354.199219" xlink:href="#n"/>
</g>
<path d="m279 700v-313" clip-path="url(#f)" fill="none" stroke="#b0b0b0" stroke-linecap="square" stroke-width=".8"/>
<use x="278.500274" y="700.321635" stroke="#000000" stroke-width=".8" xlink:href="#q"/>
<g transform="translate(258 715) scale(.1 -.1)">
<use xlink:href="#e"/>
<use x="63.623047" xlink:href="#b"/>
<use x="127.246094" xlink:href="#e"/>
<use x="190.869141" xlink:href="#p"/>
<use x="254.492188" xlink:href="#o"/>
<use x="290.576172" xlink:href="#b"/>
<use x="354.199219" xlink:href="#ae"/>
</g>
<path d="m369 700v-313" clip-path="url(#f)" fill="none" stroke="#b0b0b0" stroke-linecap="square" stroke-width=".8"/>
<use x="369.007498" y="700.321635" stroke="#000000" stroke-width=".8" xlink:href="#q"/>
<g transform="translate(348 715) scale(.1 -.1)">
<use xlink:href="#e"/>
<use x="63.623047" xlink:href="#b"/>
<use x="127.246094" xlink:href="#e"/>
<use x="190.869141" xlink:href="#p"/>
<use x="254.492188" xlink:href="#o"/>
<use x="290.576172" xlink:href="#b"/>
<use x="354.199219" xlink:href="#ac"/>
</g>
<path d="m460 700v-313" clip-path="url(#f)" fill="none" stroke="#b0b0b0" stroke-linecap="square" stroke-width=".8"/>
<use x="459.514721" y="700.321635" stroke="#000000" stroke-width=".8" xlink:href="#q"/>
<g transform="translate(439 715) scale(.1 -.1)">
<use xlink:href="#e"/>
<use x="63.623047" xlink:href="#b"/>
<use x="127.246094" xlink:href="#e"/>
<use x="190.869141" xlink:href="#p"/>
<use x="254.492188" xlink:href="#o"/>
<use x="290.576172" xlink:href="#b"/>
<use x="354.199219" xlink:href="#aj"/>
</g>
<path d="m552 700v-313" clip-path="url(#f)" fill="none" stroke="#b0b0b0" stroke-linecap="square" stroke-width=".8"/>
<use x="551.50567" y="700.321635" stroke="#000000" stroke-width=".8" xlink:href="#q"/>
<g transform="translate(531 715) scale(.1 -.1)">
<use xlink:href="#e"/>
<use x="63.623047" xlink:href="#b"/>
<use x="127.246094" xlink:href="#e"/>
<use x="190.869141" xlink:href="#p"/>
<use x="254.492188" xlink:href="#o"/>
<use x="290.576172" xlink:href="#b"/>
<use x="354.199219" xlink:href="#ab"/>
</g>
<path d="m642 700v-313" clip-path="url(#f)" fill="none" stroke="#b0b0b0" stroke-linecap="square" stroke-width=".8"/>
<use x="642.012893" y="700.321635" stroke="#000000" stroke-width=".8" xlink:href="#q"/>
<g transform="translate(621 715) scale(.1 -.1)">
<use xlink:href="#e"/>
<use x="63.623047" xlink:href="#b"/>
<use x="127.246094" xlink:href="#e"/>
<use x="190.869141" xlink:href="#p"/>
<use x="254.492188" xlink:href="#o"/>
<use x="290.576172" xlink:href="#n"/>
<use x="354.199219" xlink:href="#n"/>
</g>
<path d="m40.6 698h676" clip-path="url(#f)" fill="none" stroke="#b0b0b0" stroke-linecap="square" stroke-width=".8"/>
<use x="40.645553" y="697.522386" stroke="#000000" stroke-width=".8" xlink:href="#j"/>
<g transform="translate(3 701) scale(.1 -.1)">
<use xlink:href="#b"/>
<use x="63.623047" xlink:href="#i"/>
<use x="95.410156" xlink:href="#ag"/>
<use x="159.033203" xlink:href="#ag"/>
<use x="222.65625" xlink:href="#k"/>
</g>
<path d="m40.6 662h676" clip-path="url(#f)" fill="none" stroke="#b0b0b0" stroke-linecap="square" stroke-width=".8"/>
<use x="40.645553" y="662.371231" stroke="#000000" stroke-width=".8" xlink:href="#j"/>
<g transform="translate(3 666) scale(.1 -.1)">
<use xlink:href="#b"/>
<use x="63.623047" xlink:href="#i"/>
<use x="95.410156" xlink:href="#ab"/>
<use x="159.033203" xlink:href="#b"/>
<use x="222.65625" xlink:href="#k"/>
</g>
<path d="m40.6 627h676" clip-path="url(#f)" fill="none" stroke="#b0b0b0" stroke-linecap="square" stroke-width=".8"/>
<use x="40.645553" y="627.220076" stroke="#000000" stroke-width=".8" xlink:href="#j"/>
<g transform="translate(3 631) scale(.1 -.1)">
<use xlink:href="#b"/>
<use x="63.623047" xlink:href="#i"/>
<use x="95.410156" xlink:href="#ab"/>
<use x="159.033203" xlink:href="#ae"/>
<use x="222.65625" xlink:href="#k"/>
</g>
<path d="m40.6 592h676" clip-path="url(#f)" fill="none" stroke="#b0b0b0" stroke-linecap="square" stroke-width=".8"/>
<use x="40.645553" y="592.068921" stroke="#000000" stroke-width=".8" xlink:href="#j"/>
<g transform="translate(3 596) scale(.1 -.1)">
<use xlink:href="#b"/>
<use x="63.623047" xlink:href="#i"/>
<use x="95.410156" xlink:href="#ab"/>
<use x="159.033203" xlink:href="#ac"/>
<use x="222.65625" xlink:href="#k"/>
</g>
<path d="m40.6 557h676" clip-path="url(#f)" fill="none" stroke="#b0b0b0" stroke-linecap="square" stroke-width=".8"/>
<use x="40.645553" y="556.917766" stroke="#000000" stroke-width=".8" xlink:href="#j"/>
<g transform="translate(3 561) scale(.1 -.1)">
<use xlink:href="#b"/>
<use x="63.623047" xlink:href="#i"/>
<use x="95.410156" xlink:href="#ab"/>
<use x="159.033203" xlink:href="#ag"/>
<use x="222.65625" xlink:href="#k"/>
</g>
<path d="m40.6 522h676" clip-path="url(#f)" fill="none" stroke="#b0b0b0" stroke-linecap="square" stroke-width=".8"/>
<use x="40.645553" y="521.766612" stroke="#000000" stroke-width=".8" xlink:href="#j"/>
<g transform="translate(3 526) scale(.1 -.1)">
<use xlink:href="#n"/>
<use x="63.623047" xlink:href="#i"/>
<use x="95.410156" xlink:href="#b"/>
<use x="159.033203" xlink:href="#b"/>
<use x="222.65625" xlink:href="#k"/>
</g>
<path d="m40.6 487h676" clip-path="url(#f)" fill="none" stroke="#b0b0b0" stroke-linecap="square" stroke-width=".8"/>
<use x="40.645553" y="486.615457" stroke="#000000" stroke-width=".8" xlink:href="#j"/>
<g transform="translate(3 490) scale(.1 -.1)">
<use xlink:href="#n"/>
<use x="63.623047" xlink:href="#i"/>
<use x="95.410156" xlink:href="#b"/>
<use x="159.033203" xlink:href="#ae"/>
<use x="222.65625" xlink:href="#k"/>
</g>
<path d="m40.6 451h676" clip-path="url(#f)" fill="none" stroke="#b0b0b0" stroke-linecap="square" stroke-width=".8"/>
<use x="40.645553" y="451.464302" stroke="#000000" stroke-width=".8" xlink:href="#j"/>
<g transform="translate(3 455) scale(.1 -.1)">
<use xlink:href="#n"/>
<use x="63.623047" xlink:href="#i"/>
<use x="95.410156" xlink:href="#b"/>
<use x="159.033203" xlink:href="#ac"/>
<use x="222.65625" xlink:href="#k"/>
</g>
<path d="m40.6 416h676" clip-path="url(#f)" fill="none" stroke="#b0b0b0" stroke-linecap="square" stroke-width=".8"/>
<use x="40.645553" y="416.313147" stroke="#000000" stroke-width=".8" xlink:href="#j"/>
<g transform="translate(3 420) scale(.1 -.1)">
<use xlink:href="#n"/>
<use x="63.623047" xlink:href="#i"/>
<use x="95.410156" xlink:href="#b"/>
<use x="159.033203" xlink:href="#ag"/>
<use x="222.65625" xlink:href="#k"/>
</g>
<g stroke="#1f77b4" stroke-opacity=".9">
<path d="m257 521 165-8.67 130 4.24 10.2 1.68 7.46 13 2.91-5.82 21 3.04 7.29 15.1 2.22-6.65 11.2-3.18 4.37 6.36 1.24 3.71 4.83-7.08 10.4-3.75 10.1 4.73 10.7 4.54 9.07-2.38 1.31-3.87 10.3-22.4 10.2 3.07" clip-path="url(#f)" fill="none" stroke-linecap="square" stroke-width="1.5"/>
<g clip-path="url(#f)" fill="#1f77b4" fill-opacity=".9">
<use x="257.149781" y="521.321396" xlink:href="#a"/>
<use x="421.913181" y="512.646468" xlink:href="#a"/>
<use x="551.46145" y="516.884846" xlink:href="#a"/>
<use x="561.630994" y="518.566074" xlink:href="#a"/>
<use x="569.088068" y="531.611882" xlink:href="#a"/>
<use x="571.999535" y="525.790323" xlink:href="#a"/>
<use x="580.600915" y="527.043394" xlink:href="#a"/>
<use x="593.004341" y="528.831997" xlink:href="#a"/>
<use x="600.289808" y="543.975279" xlink:href="#a"/>
<use x="602.50535" y="537.329199" xlink:href="#a"/>
<use x="613.695847" y="534.145409" xlink:href="#a"/>
<use x="618.061966" y="540.500916" xlink:href="#a"/>
<use x="619.30292" y="544.213769" xlink:href="#a"/>
<use x="624.132925" y="537.137644" xlink:href="#a"/>
<use x="634.512371" y="533.387896" xlink:href="#a"/>
<use x="644.620952" y="538.113485" xlink:href="#a"/>
<use x="655.367998" y="542.650896" xlink:href="#a"/>
<use x="664.440478" y="540.273842" xlink:href="#a"/>
<use x="665.754416" y="536.406352" xlink:href="#a"/>
<use x="676.057186" y="513.961755" xlink:href="#a"/>
<use x="686.256387" y="517.028654" xlink:href="#a"/>
</g>
</g>
<g stroke="#1f77b4" stroke-opacity=".9">
<path d="m257 558 165-18.9 130 6.19 10.2 2.86 10.4-12.7 8.6-6.22 12.4 25.1 9.5-8.33 11.2 8.89 4.37 5.14 6.07 6.58 10.4-2.82 10.1-10.8 10.7 3 10.4-0.0467 10.3-8.98 10.2-7.72" clip-path="url(#f)" fill="none" stroke-dasharray="1.5,2.475" stroke-width="1.5"/>
<g clip-path="url(#f)" fill="#1f77b4" fill-opacity=".9">
<use x="257.149781" y="558.477345" xlink:href="#a"/>
<use x="421.913181" y="539.603618" xlink:href="#a"/>
<use x="551.46145" y="545.791419" xlink:href="#a"/>
<use x="561.630994" y="548.647694" xlink:href="#a"/>
<use x="571.999535" y="535.952205" xlink:href="#a"/>
<use x="580.600915" y="529.736617" xlink:href="#a"/>
<use x="593.004341" y="554.823594" xlink:href="#a"/>
<use x="602.50535" y="546.496094" xlink:href="#a"/>
<use x="613.695847" y="555.383235" xlink:href="#a"/>
<use x="618.061966" y="560.519404" xlink:href="#a"/>
<use x="624.132925" y="567.100745" xlink:href="#a"/>
<use x="634.512371" y="564.284816" xlink:href="#a"/>
<use x="644.620952" y="553.533993" xlink:href="#a"/>
<use x="655.367998" y="556.53681" xlink:href="#a"/>
<use x="665.754416" y="556.490104" xlink:href="#a"/>
<use x="676.057186" y="547.511271" xlink:href="#a"/>
<use x="686.256387" y="539.791188" xlink:href="#a"/>
</g>
</g>
<g stroke="#9467bd" stroke-opacity=".9">
<path d="m422 627 130 53.2 10.2-9.77 10.4 5.92 8.6-0.771 12.4 10.3 9.5-14.3 11.2 14 4.37-7.53 6.07 0.644 10.4 3.66 10.1-39.6 10.7-6.19 10.4 2.4 10.3-25.3 10.2-8.48" clip-path="url(#f)" fill="none" stroke-dasharray="5.55,2.4" stroke-width="1.5"/>
<g clip-path="url(#f)" fill="#9467bd" fill-opacity=".9">
<use x="421.913181" y="627.227083" xlink:href="#d"/>
<use x="551.46145" y="680.45909" xlink:href="#d"/>
<use x="561.630994" y="670.690089" xlink:href="#d"/>
<use x="571.999535" y="676.606373" xlink:href="#d"/>
<use x="580.600915" y="675.835601" xlink:href="#d"/>
<use x="593.004341" y="686.103617" xlink:href="#d"/>
<use x="602.50535" y="671.851054" xlink:href="#d"/>
<use x="613.695847" y="685.822665" xlink:href="#d"/>
<use x="618.061966" y="678.296029" xlink:href="#d"/>
<use x="624.132925" y="678.940393" xlink:href="#d"/>
<use x="634.512371" y="682.596984" xlink:href="#d"/>
<use x="644.620952" y="643.043413" xlink:href="#d"/>
<use x="655.367998" y="636.851808" xlink:href="#d"/>
<use x="665.754416" y="639.251651" xlink:href="#d"/>
<use x="676.057186" y="613.927156" xlink:href="#d"/>
<use x="686.256387" y="605.443917" xlink:href="#d"/>
</g>
</g>
<g stroke="#2ca02c" stroke-opacity=".9">
<path d="m257 527 165 31 130 30.3 10.2-0.359 10.4 2.69 8.6-8.38 12.4 15.1 9.5-5.63 11.2-0.916 4.37-10.6 6.07-8.35 10.4 14 10.1-17.1 10.7-20.6 10.4 5.12 10.3-10.6 10.2 0.11" clip-path="url(#f)" fill="none" stroke-linecap="square" stroke-width="1.5"/>
<g clip-path="url(#f)" fill="#2ca02c" fill-opacity=".9">
<use x="257.149781" y="527.259767" xlink:href="#c"/>
<use x="421.913181" y="558.283769" xlink:href="#c"/>
<use x="551.46145" y="588.534155" xlink:href="#c"/>
<use x="561.630994" y="588.174908" xlink:href="#c"/>
<use x="571.999535" y="590.86974" xlink:href="#c"/>
<use x="580.600915" y="582.488093" xlink:href="#c"/>
<use x="593.004341" y="597.60147" xlink:href="#c"/>
<use x="602.50535" y="591.967174" xlink:href="#c"/>
<use x="613.695847" y="591.050718" xlink:href="#c"/>
<use x="618.061966" y="580.473535" xlink:href="#c"/>
<use x="624.132925" y="572.12697" xlink:href="#c"/>
<use x="634.512371" y="586.096725" xlink:href="#c"/>
<use x="644.620952" y="568.992617" xlink:href="#c"/>
<use x="655.367998" y="548.358857" xlink:href="#c"/>
<use x="665.754416" y="553.477541" xlink:href="#c"/>
<use x="676.057186" y="542.888611" xlink:href="#c"/>
<use x="686.256387" y="542.998416" xlink:href="#c"/>
</g>
</g>
<path d="m257 528 165 45.2 130-101 10.2-20.4 10.4-10.4 8.6-0.718 43.5 40.5 10.4 0.262 10.1-16.7 10.7 6.84 10.4-8.55 10.3-11.9 10.2-4.34" clip-path="url(#f)" fill="none" stroke="#d62728" stroke-linecap="square" stroke-opacity=".9" stroke-width="1.5"/>
<defs>
<path id="g" d="m0 1.25c0.332 0 0.649-0.132 0.884-0.366 0.234-0.234 0.366-0.552 0.366-0.884s-0.132-0.649-0.366-0.884c-0.234-0.234-0.552-0.366-0.884-0.366s-0.649 0.132-0.884 0.366c-0.234 0.234-0.366 0.552-0.366 0.884s0.132 0.649 0.366 0.884c0.234 0.234 0.552 0.366 0.884 0.366z" stroke="#d62728" stroke-opacity=".9"/>
</defs>
<g clip-path="url(#f)" fill="#d62728" fill-opacity=".9" stroke="#d62728" stroke-opacity=".9">
<use x="257.149781" y="527.815249" xlink:href="#g"/>
<use x="421.913181" y="573.019169" xlink:href="#g"/>
<use x="551.46145" y="472.489301" xlink:href="#g"/>
<use x="561.630994" y="452.106148" xlink:href="#g"/>
<use x="571.999535" y="441.689991" xlink:href="#g"/>
<use x="580.600915" y="440.971787" xlink:href="#g"/>
<use x="624.132925" y="481.423429" xlink:href="#g"/>
<use x="634.512371" y="481.685852" xlink:href="#g"/>
<use x="644.620952" y="465.024714" xlink:href="#g"/>
<use x="655.367998" y="471.86657" xlink:href="#g"/>
<use x="665.754416" y="463.318318" xlink:href="#g"/>
<use x="676.057186" y="451.388284" xlink:href="#g"/>
<use x="686.256387" y="447.048054" xlink:href="#g"/>
</g>
<g stroke="#d62728" stroke-opacity=".9">
<path d="m257 660 294-238 10.2-20.3 10.4 0.102 8.6 2.59 33.1 18.7 4.37 40.7 6.07 2.58 10.4-35.8 10.1 221 10.7-29.1 10.4 13.7 10.3-13.6 10.2 22.2" clip-path="url(#f)" fill="none" stroke-dasharray="1.5,2.475" stroke-width="1.5"/>
<g clip-path="url(#f)" fill="#d62728" fill-opacity=".9">
<use x="257.149781" y="660.058512" xlink:href="#g"/>
<use x="551.46145" y="422.054924" xlink:href="#g"/>
<use x="561.630994" y="401.743258" xlink:href="#g"/>
<use x="571.999535" y="401.845286" xlink:href="#g"/>
<use x="580.600915" y="404.434247" xlink:href="#g"/>
<use x="613.695847" y="423.132007" xlink:href="#g"/>
<use x="618.061966" y="463.803157" xlink:href="#g"/>
<use x="624.132925" y="466.381079" xlink:href="#g"/>
<use x="634.512371" y="430.624257" xlink:href="#g"/>
<use x="644.620952" y="652.033728" xlink:href="#g"/>
<use x="655.367998" y="622.920987" xlink:href="#g"/>
<use x="665.754416" y="636.582591" xlink:href="#g"/>
<use x="676.057186" y="622.950207" xlink:href="#g"/>
<use x="686.256387" y="645.175906" xlink:href="#g"/>
</g>
</g>
<path d="m40.6 700v-313" fill="none" stroke="#000" stroke-linecap="square" stroke-width=".8"/>
<path d="m717 700v-313" fill="none" stroke="#000" stroke-linecap="square" stroke-width=".8"/>
<path d="m40.6 700h676" fill="none" stroke="#000" stroke-linecap="square" stroke-width=".8"/>
<path d="m40.6 388h676" fill="none" stroke="#000" stroke-linecap="square" stroke-width=".8"/>
<g clip-path="url(#f)">
<g transform="translate(58.2 514) rotate(-90) scale(.1 -.1)">
<use xlink:href="#w"/>
<use x="35.205078" xlink:href="#t"/>
<use x="96.484375" xlink:href="#x"/>
<use x="148.583984" xlink:href="#z"/>
<use x="187.792969" xlink:href="#l"/>
<use x="249.316406" xlink:href="#r"/>
<use x="290.429688" xlink:href="#DejaVuSans-20"/>
<use x="322.216797" xlink:href="#ar"/>
</g>
</g>
<g clip-path="url(#f)">
<g transform="translate(58.2 582) rotate(-90) scale(.1 -.1)">
<use xlink:href="#as"/>
<use x="143.359375" xlink:href="#DejaVuSans-20"/>
<use x="175.146484" xlink:href="#x"/>
<use x="227.246094" xlink:href="#aa"/>
<use x="255.029297" xlink:href="#u"/>
<use x="316.210938" xlink:href="#ai"/>
<use x="397.998047" xlink:href="#l"/>
<use x="459.521484" xlink:href="#r"/>
</g>
</g>
<g transform="translate(268 382) scale(.12 -.12)">
<defs>
<path id="ay" transform="scale(.0156)" d="m628 4666h631v-4341q0-844-320-1225t-1030-381h-240v531h197q418 0 590 235 172 234 172 840v4341z"/>
<path id="az" transform="scale(.0156)" d="m628 4666h631v-4666h-631v4666z"/>
</defs>
<use xlink:href="#ao"/>
<use x="63.183594" xlink:href="#w"/>
<use x="98.388672" xlink:href="#w"/>
<use x="133.59375" xlink:href="#l"/>
<use x="195.117188" xlink:href="#y"/>
<use x="250.097656" xlink:href="#z"/>
<use x="289.306641" xlink:href="#DejaVuSans-20"/>
<use x="321.09375" xlink:href="#u"/>
<use x="382.275391" xlink:href="#w"/>
<use x="417.480469" xlink:href="#DejaVuSans-20"/>
<use x="449.267578" xlink:href="#ay"/>
<use x="478.759766" xlink:href="#az"/>
<use x="508.251953" xlink:href="#am"/>
<use x="569.335938" xlink:href="#DejaVuSans-20"/>
<use x="601.123047" xlink:href="#ak"/>
<use x="660.302734" xlink:href="#x"/>
<use x="712.402344" xlink:href="#i"/>
<use x="744.189453" xlink:href="#DejaVuSans-20"/>
<use x="775.976562" xlink:href="#am"/>
<use x="833.935547" xlink:href="#m"/>
<use x="861.71875" xlink:href="#l"/>
<use x="923.242188" xlink:href="#r"/>
<use x="964.355469" xlink:href="#DejaVuSans-20"/>
<use x="996.142578" xlink:href="#n"/>
<use x="1059.765625" xlink:href="#DejaVuSans-20"/>
<use x="1091.552734" xlink:href="#aq"/>
<use x="1130.566406" xlink:href="#x"/>
<use x="1182.666016" xlink:href="#t"/>
<use x="1243.945312" xlink:href="#v"/>
<use x="1341.357422" xlink:href="#l"/>
<use x="1402.880859" xlink:href="#DejaVuSans-20"/>
<use x="1434.667969" xlink:href="#y"/>
<use x="1489.648438" xlink:href="#u"/>
<use x="1550.830078" xlink:href="#v"/>
<use x="1648.242188" xlink:href="#v"/>
<use x="1745.654297" xlink:href="#m"/>
<use x="1773.4375" xlink:href="#z"/>
<use x="1812.646484" xlink:href="#ap"/>
</g>
<path d="m47.6 484h100q2 0 2-2v-87.1q0-2-2-2h-100q-2 0-2 2v87.1q0 2 2 2z" fill="#fff" opacity=".8" stroke="#ccc"/>
<path d="m49.6 401h10 10" fill="none" stroke="#1f77b4" stroke-linecap="square" stroke-opacity=".9" stroke-width="1.5"/>
<use x="59.645553" y="400.623678" fill="#1f77b4" fill-opacity=".9" stroke="#1f77b4" stroke-opacity=".9" xlink:href="#a"/>
<g transform="translate(77.6 404) scale(.1 -.1)">
<use xlink:href="#aa"/>
<use x="27.783203" xlink:href="#m"/>
<use x="55.566406" xlink:href="#s"/>
<use x="118.945312" xlink:href="#ad"/>
<use x="182.324219" xlink:href="#af"/>
</g>
<path d="m49.6 415h10 10" fill="none" stroke="#1f77b4" stroke-dasharray="1.5,2.475" stroke-opacity=".9" stroke-width="1.5"/>
<use x="59.645553" y="415.301803" fill="#1f77b4" fill-opacity=".9" stroke="#1f77b4" stroke-opacity=".9" xlink:href="#a"/>
<g transform="translate(77.6 419) scale(.1 -.1)">
<use xlink:href="#aa"/>
<use x="27.783203" xlink:href="#m"/>
<use x="55.566406" xlink:href="#s"/>
<use x="118.945312" xlink:href="#ad"/>
<use x="182.324219" xlink:href="#af"/>
<use x="241.503906" xlink:href="#e"/>
</g>
<path d="m49.6 430h10 10" fill="none" stroke="#9467bd" stroke-dasharray="5.55,2.4" stroke-opacity=".9" stroke-width="1.5"/>
<use x="59.645553" y="429.979928" fill="#9467bd" fill-opacity=".9" stroke="#9467bd" stroke-opacity=".9" xlink:href="#d"/>
<g transform="translate(77.6 433) scale(.1 -.1)">
<use xlink:href="#aa"/>
<use x="27.783203" xlink:href="#m"/>
<use x="55.566406" xlink:href="#s"/>
<use x="118.945312" xlink:href="#ad"/>
<use x="182.324219" xlink:href="#af"/>
<use x="241.503906" xlink:href="#o"/>
<use x="277.587891" xlink:href="#t"/>
<use x="338.867188" xlink:href="#t"/>
<use x="400.146484" xlink:href="#r"/>
<use x="439.009766" xlink:href="#y"/>
<use x="493.990234" xlink:href="#al"/>
<use x="557.369141" xlink:href="#ah"/>
<use x="620.992188" xlink:href="#p"/>
</g>
<path d="m49.6 445h10 10" fill="none" stroke="#2ca02c" stroke-linecap="square" stroke-opacity=".9" stroke-width="1.5"/>
<use x="59.645553" y="444.658053" fill="#2ca02c" fill-opacity=".9" stroke="#2ca02c" stroke-opacity=".9" xlink:href="#c"/>
<g transform="translate(77.6 448) scale(.1 -.1)">
<use xlink:href="#v"/>
<use x="97.412109" xlink:href="#t"/>
<use x="158.691406" xlink:href="#y"/>
<use x="213.671875" xlink:href="#u"/>
<use x="274.853516" xlink:href="#x"/>
</g>
<path d="m49.6 459h10 10" fill="none" stroke="#d62728" stroke-linecap="square" stroke-opacity=".9" stroke-width="1.5"/>
<use x="59.645553" y="459.336178" fill="#d62728" fill-opacity=".9" stroke="#d62728" stroke-opacity=".9" xlink:href="#g"/>
<g transform="translate(77.6 463) scale(.1 -.1)">
<use xlink:href="#ai"/>
<use x="81.787109" xlink:href="#m"/>
<use x="109.570312" xlink:href="#s"/>
<use x="172.949219" xlink:href="#ah"/>
<use x="236.572266" xlink:href="#p"/>
</g>
<path d="m49.6 474h10 10" fill="none" stroke="#d62728" stroke-dasharray="1.5,2.475" stroke-opacity=".9" stroke-width="1.5"/>
<use x="59.645553" y="474.014303" fill="#d62728" fill-opacity=".9" stroke="#d62728" stroke-opacity=".9" xlink:href="#g"/>
<g transform="translate(77.6 478) scale(.1 -.1)">
<use xlink:href="#ai"/>
<use x="81.787109" xlink:href="#m"/>
<use x="109.570312" xlink:href="#s"/>
<use x="172.949219" xlink:href="#ae"/>
<use x="236.572266" xlink:href="#e"/>
</g>
<g transform="translate(229 12.1) scale(.12 -.12)">
<defs>
<path id="ax" transform="scale(.0156)" d="m1259 4147v-1753h794q441 0 681 228 241 228 241 650 0 419-241 647-240 228-681 228h-794zm-631 519h1425q785 0 1186-355 402-355 402-1039 0-691-402-1044-401-353-1186-353h-794v-1875h-631v4666z"/>
<path id="au" transform="scale(.0156)" d="m1159 525v-1856h-578v4831h578v-531q182 312 458 463 277 152 661 152 638 0 1036-506 399-506 399-1331t-399-1332q-398-506-1036-506-384 0-661 152-276 152-458 464zm1957 1222q0 634-261 995t-717 361q-457 0-718-361t-261-995 261-995 718-361q456 0 717 361t261 995z"/>
<path id="aw" transform="scale(.0156)" d="m3116 1747q0 634-261 995t-717 361q-457 0-718-361t-261-995 261-995 718-361q456 0 717 361t261 995zm-1957 1222q182 312 458 463 277 152 661 152 638 0 1036-506 399-506 399-1331t-399-1332q-398-506-1036-506-384 0-661 152-276 152-458 464v-525h-578v4863h578v-1894z"/>
<path id="at" transform="scale(.0156)" d="m2059-325q-243-625-475-815-231-191-618-191h-460v481h338q237 0 368 113 132 112 291 531l103 262-1415 3444h609l1094-2737 1094 2737h609l-1538-3825z"/>
</defs>
<use xlink:href="#ax"/>
<use x="56.677734" xlink:href="#l"/>
<use x="118.201172" xlink:href="#r"/>
<use x="159.314453" xlink:href="#w"/>
<use x="194.519531" xlink:href="#u"/>
<use x="255.701172" xlink:href="#r"/>
<use x="295.064453" xlink:href="#v"/>
<use x="392.476562" xlink:href="#t"/>
<use x="453.755859" xlink:href="#s"/>
<use x="517.134766" xlink:href="#y"/>
<use x="572.115234" xlink:href="#l"/>
<use x="633.638672" xlink:href="#DejaVuSans-20"/>
<use x="665.425781" xlink:href="#m"/>
<use x="693.208984" xlink:href="#v"/>
<use x="790.621094" xlink:href="#au"/>
<use x="854.097656" xlink:href="#r"/>
<use x="892.960938" xlink:href="#u"/>
<use x="954.142578" xlink:href="#ak"/>
<use x="1013.322266" xlink:href="#l"/>
<use x="1074.845703" xlink:href="#v"/>
<use x="1172.257812" xlink:href="#l"/>
<use x="1233.78125" xlink:href="#s"/>
<use x="1297.160156" xlink:href="#z"/>
<use x="1336.369141" xlink:href="#DejaVuSans-20"/>
<use x="1368.15625" xlink:href="#aw"/>
<use x="1431.632812" xlink:href="#at"/>
<use x="1490.8125" xlink:href="#DejaVuSans-20"/>
<use x="1522.599609" xlink:href="#y"/>
<use x="1577.580078" xlink:href="#u"/>
<use x="1638.761719" xlink:href="#s"/>
<use x="1702.140625" xlink:href="#w"/>
<use x="1737.345703" xlink:href="#m"/>
<use x="1765.128906" xlink:href="#an"/>
<use x="1828.605469" xlink:href="#ad"/>
<use x="1891.984375" xlink:href="#r"/>
<use x="1933.097656" xlink:href="#t"/>
<use x="1994.376953" xlink:href="#z"/>
<use x="2033.585938" xlink:href="#m"/>
<use x="2061.369141" xlink:href="#u"/>
<use x="2122.550781" xlink:href="#s"/>
</g>
<defs>
<clipPath id="h">
<rect x="40.6" y="35.7" width="676" height="313"/>
</clipPath>
<clipPath id="f">
<rect x="40.6" y="388" width="676" height="313"/>
</clipPath>
</defs>
</svg>
