<?xml version="1.0" encoding="UTF-8"?>
<!DOCTYPE svg  PUBLIC '-//W3C//DTD SVG 1.1//EN'  'http://www.w3.org/Graphics/SVG/1.1/DTD/svg11.dtd'>
<svg width="720pt" height="720pt" version="1.1" viewBox="0 0 720 720" xmlns="http://www.w3.org/2000/svg" xmlns:xlink="http://www.w3.org/1999/xlink">
<defs>
<style type="text/css">*{stroke-linejoin: round; stroke-linecap: butt}</style>
</defs>
<path d="m0 720h720v-720h-720z" fill="#fff"/>
<path d="m40.6 349h676v-313h-676z" fill="#fff"/>
<path d="m97.2 349v-313" clip-path="url(#g)" fill="none" stroke="#b0b0b0" stroke-linecap="square" stroke-width=".8"/>
<defs>
<path id="j" d="m0 0v3.5" stroke="#000" stroke-width=".8"/>
</defs>
<use x="97.160163" y="348.52899" stroke="#000000" stroke-width=".8" xlink:href="#j"/>
<g transform="translate(76.3 363) scale(.1 -.1)">
<defs>
<path id="d" transform="scale(.0156)" d="m1228 531h2203v-531h-2962v531q359 372 979 998 621 627 780 809 303 340 423 576 121 236 121 464 0 372-261 606-261 235-680 235-297 0-627-103-329-103-704-313v638q381 153 712 231 332 78 607 78 725 0 1156-363 431-362 431-968 0-288-108-546-107-257-392-607-78-91-497-524-418-433-1181-1211z"/>
<path id="b" transform="scale(.0156)" d="m2034 4250q-487 0-733-480-245-479-245-1442 0-959 245-1439 246-480 733-480 491 0 736 480 246 480 246 1439 0 963-246 1442-245 480-736 480zm0 500q785 0 1199-621 414-620 414-1801 0-1178-414-1799-414-620-1199-620-784 0-1198 620-414 621-414 1799 0 1181 414 1801 414 621 1198 621z"/>
<path id="ad" transform="scale(.0156)" d="m2597 2516q453-97 707-404 255-306 255-756 0-690-475-1069-475-378-1350-378-293 0-604 58t-642 174v609q262-153 574-231 313-78 654-78 593 0 904 234t311 681q0 413-289 645-289 233-804 233h-544v519h569q465 0 712 186t247 536q0 359-255 551-254 193-729 193-260 0-557-57-297-56-653-174v562q360 100 674 150t592 50q719 0 1137-327 419-326 419-882 0-388-222-655t-631-370z"/>
<path id="i" transform="scale(.0156)" d="m313 2009h1684v-512h-1684v512z"/>
<path id="e" transform="scale(.0156)" d="m794 531h1031v3560l-1122-225v575l1116 225h631v-4135h1031v-531h-2687v531z"/>
</defs>
<use xlink:href="#d"/>
<use transform="translate(63.6)" xlink:href="#b"/>
<use transform="translate(127)" xlink:href="#d"/>
<use transform="translate(191)" xlink:href="#ad"/>
<use transform="translate(254)" xlink:href="#i"/>
<use transform="translate(291)" xlink:href="#e"/>
<use transform="translate(354)" xlink:href="#e"/>
</g>
<path d="m182 349v-313" clip-path="url(#g)" fill="none" stroke="#b0b0b0" stroke-linecap="square" stroke-width=".8"/>
<use x="181.91977" y="348.52899" stroke="#000000" stroke-width=".8" xlink:href="#j"/>
<g transform="translate(161 363) scale(.1 -.1)">
<defs>
<path id="n" transform="scale(.0156)" d="m2419 4116-1594-2491h1594v2491zm-166 550h794v-3041h666v-525h-666v-1100h-628v1100h-2106v609l1940 2957z"/>
</defs>
<use xlink:href="#d"/>
<use transform="translate(63.6)" xlink:href="#b"/>
<use transform="translate(127)" xlink:href="#d"/>
<use transform="translate(191)" xlink:href="#n"/>
<use transform="translate(254)" xlink:href="#i"/>
<use transform="translate(291)" xlink:href="#b"/>
<use transform="translate(354)" xlink:href="#e"/>
</g>
<path d="m265 349v-313" clip-path="url(#g)" fill="none" stroke="#b0b0b0" stroke-linecap="square" stroke-width=".8"/>
<use x="265.289876" y="348.52899" stroke="#000000" stroke-width=".8" xlink:href="#j"/>
<g transform="translate(244 363) scale(.1 -.1)">
<use xlink:href="#d"/>
<use transform="translate(63.6)" xlink:href="#b"/>
<use transform="translate(127)" xlink:href="#d"/>
<use transform="translate(191)" xlink:href="#n"/>
<use transform="translate(254)" xlink:href="#i"/>
<use transform="translate(291)" xlink:href="#b"/>
<use transform="translate(354)" xlink:href="#ad"/>
</g>
<path d="m350 349v-313" clip-path="url(#g)" fill="none" stroke="#b0b0b0" stroke-linecap="square" stroke-width=".8"/>
<use x="350.049484" y="348.52899" stroke="#000000" stroke-width=".8" xlink:href="#j"/>
<g transform="translate(329 363) scale(.1 -.1)">
<defs>
<path id="z" transform="scale(.0156)" d="m691 4666h2478v-532h-1900v-1143q137 47 274 70 138 23 276 23 781 0 1237-428 457-428 457-1159 0-753-469-1171-469-417-1322-417-294 0-599 50-304 50-629 150v635q281-153 581-228t634-75q541 0 856 284 316 284 316 772 0 487-316 771-315 285-856 285-253 0-505-56-251-56-513-175v2344z"/>
</defs>
<use xlink:href="#d"/>
<use transform="translate(63.6)" xlink:href="#b"/>
<use transform="translate(127)" xlink:href="#d"/>
<use transform="translate(191)" xlink:href="#n"/>
<use transform="translate(254)" xlink:href="#i"/>
<use transform="translate(291)" xlink:href="#b"/>
<use transform="translate(354)" xlink:href="#z"/>
</g>
<path d="m435 349v-313" clip-path="url(#g)" fill="none" stroke="#b0b0b0" stroke-linecap="square" stroke-width=".8"/>
<use x="434.809092" y="348.52899" stroke="#000000" stroke-width=".8" xlink:href="#j"/>
<g transform="translate(414 363) scale(.1 -.1)">
<defs>
<path id="ah" transform="scale(.0156)" d="m525 4666h3e3v-269l-1694-4397h-659l1594 4134h-2241v532z"/>
</defs>
<use xlink:href="#d"/>
<use transform="translate(63.6)" xlink:href="#b"/>
<use transform="translate(127)" xlink:href="#d"/>
<use transform="translate(191)" xlink:href="#n"/>
<use transform="translate(254)" xlink:href="#i"/>
<use transform="translate(291)" xlink:href="#b"/>
<use transform="translate(354)" xlink:href="#ah"/>
</g>
<path d="m521 349v-313" clip-path="url(#g)" fill="none" stroke="#b0b0b0" stroke-linecap="square" stroke-width=".8"/>
<use x="520.958201" y="348.52899" stroke="#000000" stroke-width=".8" xlink:href="#j"/>
<g transform="translate(500 363) scale(.1 -.1)">
<defs>
<path id="ac" transform="scale(.0156)" d="m703 97v575q238-113 481-172 244-59 479-59 625 0 954 420 330 420 377 1277-181-269-460-413-278-144-615-144-700 0-1108 423-408 424-408 1159 0 718 425 1152 425 435 1131 435 810 0 1236-621 427-620 427-1801 0-1103-524-1761-523-658-1407-658-238 0-482 47-243 47-506 141zm1256 1978q425 0 673 290 249 291 249 798 0 503-249 795-248 292-673 292t-673-292-248-795q0-507 248-798 248-290 673-290z"/>
</defs>
<use xlink:href="#d"/>
<use transform="translate(63.6)" xlink:href="#b"/>
<use transform="translate(127)" xlink:href="#d"/>
<use transform="translate(191)" xlink:href="#n"/>
<use transform="translate(254)" xlink:href="#i"/>
<use transform="translate(291)" xlink:href="#b"/>
<use transform="translate(354)" xlink:href="#ac"/>
</g>
<path d="m606 349v-313" clip-path="url(#g)" fill="none" stroke="#b0b0b0" stroke-linecap="square" stroke-width=".8"/>
<use x="605.717809" y="348.52899" stroke="#000000" stroke-width=".8" xlink:href="#j"/>
<g transform="translate(585 363) scale(.1 -.1)">
<use xlink:href="#d"/>
<use transform="translate(63.6)" xlink:href="#b"/>
<use transform="translate(127)" xlink:href="#d"/>
<use transform="translate(191)" xlink:href="#n"/>
<use transform="translate(254)" xlink:href="#i"/>
<use transform="translate(291)" xlink:href="#e"/>
<use transform="translate(354)" xlink:href="#e"/>
</g>
<path d="m690 349v-313" clip-path="url(#g)" fill="none" stroke="#b0b0b0" stroke-linecap="square" stroke-width=".8"/>
<use x="690.477417" y="348.52899" stroke="#000000" stroke-width=".8" xlink:href="#j"/>
<g transform="translate(670 363) scale(.1 -.1)">
<use xlink:href="#d"/>
<use transform="translate(63.6)" xlink:href="#b"/>
<use transform="translate(127)" xlink:href="#d"/>
<use transform="translate(191)" xlink:href="#z"/>
<use transform="translate(254)" xlink:href="#i"/>
<use transform="translate(291)" xlink:href="#b"/>
<use transform="translate(354)" xlink:href="#e"/>
</g>
<path d="m40.6 325h676" clip-path="url(#g)" fill="none" stroke="#b0b0b0" stroke-linecap="square" stroke-width=".8"/>
<defs>
<path id="k" d="m0 0h-3.5" stroke="#000" stroke-width=".8"/>
</defs>
<use x="40.645553" y="325.138057" stroke="#000000" stroke-width=".8" xlink:href="#k"/>
<g transform="translate(3 329) scale(.1 -.1)">
<defs>
<path id="h" transform="scale(.0156)" d="m684 794h660v-794h-660v794z"/>
<path id="ai" transform="scale(.0156)" d="m2113 2584q-425 0-674-291-248-290-248-796 0-503 248-796 249-292 674-292t673 292q248 293 248 796 0 506-248 796-248 291-673 291zm1253 1979v-575q-238 112-480 171-242 60-480 60-625 0-955-422-329-422-376-1275 184 272 462 417 279 145 613 145 703 0 1111-427 408-426 408-1160 0-719-425-1154-425-434-1131-434-810 0-1238 620-428 621-428 1799 0 1106 525 1764t1409 658q238 0 480-47t505-140z"/>
<path id="l" transform="scale(.0156)" d="m4488 3438-1429-1435 1429-1428-372-378-1435 1434-1434-1434-369 378 1425 1428-1425 1435 369 378 1434-1435 1435 1435 372-378z"/>
</defs>
<use xlink:href="#b"/>
<use transform="translate(63.6)" xlink:href="#h"/>
<use transform="translate(95.4)" xlink:href="#ai"/>
<use transform="translate(159)" xlink:href="#b"/>
<use transform="translate(223)" xlink:href="#l"/>
</g>
<path d="m40.6 279h676" clip-path="url(#g)" fill="none" stroke="#b0b0b0" stroke-linecap="square" stroke-width=".8"/>
<use x="40.645553" y="279.273483" stroke="#000000" stroke-width=".8" xlink:href="#k"/>
<g transform="translate(3 283) scale(.1 -.1)">
<use xlink:href="#b"/>
<use transform="translate(63.6)" xlink:href="#h"/>
<use transform="translate(95.4)" xlink:href="#ah"/>
<use transform="translate(159)" xlink:href="#b"/>
<use transform="translate(223)" xlink:href="#l"/>
</g>
<path d="m40.6 233h676" clip-path="url(#g)" fill="none" stroke="#b0b0b0" stroke-linecap="square" stroke-width=".8"/>
<use x="40.645553" y="233.408909" stroke="#000000" stroke-width=".8" xlink:href="#k"/>
<g transform="translate(3 237) scale(.1 -.1)">
<defs>
<path id="av" transform="scale(.0156)" d="m2034 2216q-450 0-708-241-257-241-257-662 0-422 257-663 258-241 708-241t709 242q260 243 260 662 0 421-258 662-257 241-711 241zm-631 268q-406 100-633 378-226 279-226 679 0 559 398 884 399 325 1092 325 697 0 1094-325t397-884q0-400-227-679-226-278-629-378 456-106 710-416 255-309 255-755 0-679-414-1042-414-362-1186-362-771 0-1186 362-414 363-414 1042 0 446 256 755 257 310 713 416zm-231 997q0-362 226-565 227-203 636-203 407 0 636 203 230 203 230 565 0 363-230 566-229 203-636 203-409 0-636-203-226-203-226-566z"/>
</defs>
<use xlink:href="#b"/>
<use transform="translate(63.6)" xlink:href="#h"/>
<use transform="translate(95.4)" xlink:href="#av"/>
<use transform="translate(159)" xlink:href="#b"/>
<use transform="translate(223)" xlink:href="#l"/>
</g>
<path d="m40.6 188h676" clip-path="url(#g)" fill="none" stroke="#b0b0b0" stroke-linecap="square" stroke-width=".8"/>
<use x="40.645553" y="187.544335" stroke="#000000" stroke-width=".8" xlink:href="#k"/>
<g transform="translate(3 191) scale(.1 -.1)">
<use xlink:href="#b"/>
<use transform="translate(63.6)" xlink:href="#h"/>
<use transform="translate(95.4)" xlink:href="#ac"/>
<use transform="translate(159)" xlink:href="#b"/>
<use transform="translate(223)" xlink:href="#l"/>
</g>
<path d="m40.6 142h676" clip-path="url(#g)" fill="none" stroke="#b0b0b0" stroke-linecap="square" stroke-width=".8"/>
<use x="40.645553" y="141.679761" stroke="#000000" stroke-width=".8" xlink:href="#k"/>
<g transform="translate(3 145) scale(.1 -.1)">
<use xlink:href="#e"/>
<use transform="translate(63.6)" xlink:href="#h"/>
<use transform="translate(95.4)" xlink:href="#b"/>
<use transform="translate(159)" xlink:href="#b"/>
<use transform="translate(223)" xlink:href="#l"/>
</g>
<path d="m40.6 95.8h676" clip-path="url(#g)" fill="none" stroke="#b0b0b0" stroke-linecap="square" stroke-width=".8"/>
<use x="40.645553" y="95.815187" stroke="#000000" stroke-width=".8" xlink:href="#k"/>
<g transform="translate(3 99.6) scale(.1 -.1)">
<use xlink:href="#e"/>
<use transform="translate(63.6)" xlink:href="#h"/>
<use transform="translate(95.4)" xlink:href="#e"/>
<use transform="translate(159)" xlink:href="#b"/>
<use transform="translate(223)" xlink:href="#l"/>
</g>
<path d="m40.6 50h676" clip-path="url(#g)" fill="none" stroke="#b0b0b0" stroke-linecap="square" stroke-width=".8"/>
<use x="40.645553" y="49.950613" stroke="#000000" stroke-width=".8" xlink:href="#k"/>
<g transform="translate(3 53.7) scale(.1 -.1)">
<use xlink:href="#e"/>
<use transform="translate(63.6)" xlink:href="#h"/>
<use transform="translate(95.4)" xlink:href="#d"/>
<use transform="translate(159)" xlink:href="#b"/>
<use transform="translate(223)" xlink:href="#l"/>
</g>
<path d="m71.4 334 55.7-13.8 77.9-243 40.4 22.9 36.5-18.3 239-9.17 9.52 4.59 9.71-4.59h8.06 11.6 8.9l10.5-4.59 9.77 4.59h9.72 9.47l10.1-18.3 9.73 4.59 9.65-4.59 9.55 4.59h9.69 7.84 1.74 8.58 11.2" clip-path="url(#g)" fill="none" stroke="#1f77b4" stroke-linecap="square" stroke-opacity=".9" stroke-width="1.5"/>
<defs>
<path id="a" d="m-2.5 2.5h5v-5h-5z" stroke="#1f77b4" stroke-opacity=".9"/>
</defs>
<g clip-path="url(#g)" fill="#1f77b4" fill-opacity=".9" stroke="#1f77b4" stroke-opacity=".9">
<use x="71.388926" y="334.310972" xlink:href="#a"/>
<use x="127.112031" y="320.5516" xlink:href="#a"/>
<use x="204.976494" y="77.469357" xlink:href="#a"/>
<use x="245.353131" y="100.401644" xlink:href="#a"/>
<use x="281.858849" y="82.055815" xlink:href="#a"/>
<use x="520.974686" y="72.8829" xlink:href="#a"/>
<use x="530.498417" y="77.469357" xlink:href="#a"/>
<use x="540.20851" y="72.8829" xlink:href="#a"/>
<use x="548.263664" y="72.8829" xlink:href="#a"/>
<use x="559.879416" y="72.8829" xlink:href="#a"/>
<use x="568.777068" y="72.8829" xlink:href="#a"/>
<use x="579.256919" y="68.296443" xlink:href="#a"/>
<use x="589.031195" y="72.8829" xlink:href="#a"/>
<use x="598.7515" y="72.8829" xlink:href="#a"/>
<use x="608.21814" y="72.8829" xlink:href="#a"/>
<use x="618.2827" y="54.53707" xlink:href="#a"/>
<use x="628.009534" y="59.123528" xlink:href="#a"/>
<use x="637.658032" y="54.53707" xlink:href="#a"/>
<use x="647.209538" y="59.123528" xlink:href="#a"/>
<use x="656.896536" y="59.123528" xlink:href="#a"/>
<use x="664.739823" y="59.123528" xlink:href="#a"/>
<use x="666.475527" y="59.123528" xlink:href="#a"/>
<use x="675.05874" y="59.123528" xlink:href="#a"/>
<use x="686.256387" y="59.123528" xlink:href="#a"/>
</g>
<g stroke="#1f77b4" stroke-opacity=".9">
<path d="m521 72.9h9.52 9.71l8.06-4.59h11.6 8.9l10.5-4.59h9.77 9.72l9.47 4.59 10.1-18.3h9.73 9.65l9.55 4.59h9.69 9.58 8.58 11.2" clip-path="url(#g)" fill="none" stroke-dasharray="1.5,2.475" stroke-width="1.5"/>
<g clip-path="url(#g)" fill="#1f77b4" fill-opacity=".9">
<use x="520.974686" y="72.8829" xlink:href="#a"/>
<use x="530.498417" y="72.8829" xlink:href="#a"/>
<use x="540.20851" y="72.8829" xlink:href="#a"/>
<use x="548.263664" y="68.296443" xlink:href="#a"/>
<use x="559.879416" y="68.296443" xlink:href="#a"/>
<use x="568.777068" y="68.296443" xlink:href="#a"/>
<use x="579.256919" y="63.709985" xlink:href="#a"/>
<use x="589.031195" y="63.709985" xlink:href="#a"/>
<use x="598.7515" y="63.709985" xlink:href="#a"/>
<use x="608.21814" y="68.296443" xlink:href="#a"/>
<use x="618.2827" y="49.950613" xlink:href="#a"/>
<use x="628.009534" y="49.950613" xlink:href="#a"/>
<use x="637.658032" y="49.950613" xlink:href="#a"/>
<use x="647.209538" y="54.53707" xlink:href="#a"/>
<use x="656.896536" y="54.53707" xlink:href="#a"/>
<use x="666.475527" y="54.53707" xlink:href="#a"/>
<use x="675.05874" y="54.53707" xlink:href="#a"/>
<use x="686.256387" y="54.53707" xlink:href="#a"/>
</g>
</g>
<path d="m521 68.3h9.52 9.71 8.06 11.6l8.9-4.59h10.5 9.77l9.72 4.59 9.47-4.59 10.1-13.8 9.73 4.59h9.65 9.55l9.69-4.59 9.58 4.59h8.58l11.2 4.59" clip-path="url(#g)" fill="none" stroke="#9467bd" stroke-dasharray="5.55,2.4" stroke-opacity=".9" stroke-width="1.5"/>
<defs>
<path id="c" d="m-2.5 2.5h5v-5h-5z" stroke="#9467bd" stroke-opacity=".9"/>
</defs>
<g clip-path="url(#g)" fill="#9467bd" fill-opacity=".9" stroke="#9467bd" stroke-opacity=".9">
<use x="520.974686" y="68.296443" xlink:href="#c"/>
<use x="530.498417" y="68.296443" xlink:href="#c"/>
<use x="540.20851" y="68.296443" xlink:href="#c"/>
<use x="548.263664" y="68.296443" xlink:href="#c"/>
<use x="559.879416" y="68.296443" xlink:href="#c"/>
<use x="568.777068" y="63.709985" xlink:href="#c"/>
<use x="579.256919" y="63.709985" xlink:href="#c"/>
<use x="589.031195" y="63.709985" xlink:href="#c"/>
<use x="598.7515" y="68.296443" xlink:href="#c"/>
<use x="608.21814" y="63.709985" xlink:href="#c"/>
<use x="618.2827" y="49.950613" xlink:href="#c"/>
<use x="628.009534" y="54.53707" xlink:href="#c"/>
<use x="637.658032" y="54.53707" xlink:href="#c"/>
<use x="647.209538" y="54.53707" xlink:href="#c"/>
<use x="656.896536" y="49.950613" xlink:href="#c"/>
<use x="666.475527" y="54.53707" xlink:href="#c"/>
<use x="675.05874" y="54.53707" xlink:href="#c"/>
<use x="686.256387" y="59.123528" xlink:href="#c"/>
</g>
<path d="m40.6 349v-313" fill="none" stroke="#000" stroke-linecap="square" stroke-width=".8"/>
<path d="m717 349v-313" fill="none" stroke="#000" stroke-linecap="square" stroke-width=".8"/>
<path d="m40.6 349h676" fill="none" stroke="#000" stroke-linecap="square" stroke-width=".8"/>
<path d="m40.6 35.7h676" fill="none" stroke="#000" stroke-linecap="square" stroke-width=".8"/>
<g clip-path="url(#g)">
<g transform="translate(58.2 134) rotate(-90) scale(.1 -.1)">
<defs>
<path id="u" transform="scale(.0156)" d="m3328 2828q216 388 516 572t706 184q547 0 844-383 297-382 297-1088v-2113h-578v2094q0 503-179 746-178 244-543 244-447 0-707-297-259-296-259-809v-1978h-578v2094q0 506-178 748t-550 242q-441 0-701-298-259-298-259-808v-1978h-578v3500h578v-544q197 322 472 475t653 153q382 0 649-194 267-193 395-562z"/>
<path id="t" transform="scale(.0156)" d="m1959 3097q-462 0-731-361t-269-989 267-989q268-361 733-361 460 0 728 362 269 363 269 988 0 622-269 986-268 364-728 364zm0 487q750 0 1178-488 429-487 429-1349 0-859-429-1349-428-489-1178-489-753 0-1180 489-426 490-426 1349 0 862 426 1349 427 488 1180 488z"/>
<path id="p" transform="scale(.0156)" d="m2631 2963q-97 56-211 82-114 27-251 27-488 0-749-317t-261-911v-1844h-578v3500h578v-544q182 319 472 473 291 155 707 155 59 0 131-8 72-7 159-23l3-590z"/>
<path id="m" transform="scale(.0156)" d="m3597 1894v-281h-2644q38-594 358-905t892-311q331 0 642 81t618 244v-544q-310-131-635-200t-659-69q-838 0-1327 487-489 488-489 1320 0 859 464 1363 464 505 1252 505 706 0 1117-455 411-454 411-1235zm-575 169q-6 471-264 752-258 282-683 282-481 0-770-272t-333-766l2050 4z"/>
<path id="ao" transform="scale(.0156)" d="m8863 2147v-281l-1229-1228-375 375 729 728h-7622v531h7622l-729 728 375 375 1229-1228z"/>
</defs>
<use xlink:href="#u"/>
<use transform="translate(97.4)" xlink:href="#t"/>
<use transform="translate(159)" xlink:href="#p"/>
<use transform="translate(197)" xlink:href="#m"/>
<use transform="translate(259)" xlink:href="#DejaVuSans-20"/>
<use transform="translate(291)" xlink:href="#ao"/>
</g>
</g>
<g clip-path="url(#g)">
<g transform="translate(58.2 189) rotate(-90) scale(.1 -.1)">
<defs>
<path id="ap" transform="scale(.0156)" d="m313 1866v281l1228 1228 375-375-728-728h7621v-531h-7621l728-728-375-375-1228 1228z"/>
<path id="w" transform="scale(.0156)" d="m603 4863h575v-4863h-575v4863z"/>
<path id="s" transform="scale(.0156)" d="m2834 3397v-544q-243 125-506 187-262 63-544 63-428 0-642-131t-214-394q0-200 153-314t616-217l197-44q612-131 870-370t258-667q0-488-386-773-386-284-1061-284-281 0-586 55t-642 164v594q319-166 628-249 309-82 613-82 406 0 624 139 219 139 219 392 0 234-158 359-157 125-692 241l-200 47q-534 112-772 345-237 233-237 639 0 494 350 762 350 269 994 269 318 0 599-47 282-46 519-140z"/>
</defs>
<use xlink:href="#ap"/>
<use transform="translate(143)" xlink:href="#DejaVuSans-20"/>
<use transform="translate(175)" xlink:href="#w"/>
<use transform="translate(203)" xlink:href="#m"/>
<use transform="translate(264)" xlink:href="#s"/>
<use transform="translate(317)" xlink:href="#s"/>
</g>
</g>
<g transform="translate(232 29.7) scale(.12 -.12)">
<defs>
<path id="al" transform="scale(.0156)" d="m628 4666h2950v-532h-2319v-1381h2222v-531h-2222v-1691h2375v-531h-3006v4666z"/>
<path id="x" transform="scale(.0156)" d="m2375 4863v-479h-550q-309 0-430-125-120-125-120-450v-309h947v-447h-947v-3053h-578v3053h-550v447h550v244q0 584 272 851 272 268 862 268h544z"/>
<path id="y" transform="scale(.0156)" d="m3122 3366v-538q-244 135-489 202t-495 67q-560 0-870-355-309-354-309-995t309-996q310-354 870-354 250 0 495 67t489 202v-532q-241-112-499-168-257-57-548-57-791 0-1257 497-465 497-465 1341 0 856 470 1346 471 491 1290 491 265 0 518-55 253-54 491-163z"/>
<path id="ab" transform="scale(.0156)" d="m1172 4494v-994h1184v-447h-1184v-1900q0-428 117-550t477-122h590v-481h-590q-666 0-919 248-253 249-253 905v1900h-422v447h422v994h578z"/>
<path id="ae" transform="scale(.0156)" d="m3513 2113v-2113h-575v2094q0 497-194 743-194 247-581 247-466 0-735-297-269-296-269-809v-1978h-578v4863h578v-1907q207 316 486 472 280 156 646 156 603 0 912-373 310-373 310-1098z"/>
<path id="r" transform="scale(.0156)" d="m2194 1759q-697 0-966-159t-269-544q0-306 202-486 202-179 548-179 479 0 768 339t289 901v128h-572zm1147 238v-2e3h-575v531q-197-318-491-470t-719-152q-537 0-855 302-317 302-317 808 0 590 395 890 396 300 1180 300h807v57q0 397-261 614t-733 217q-300 0-585-72-284-72-546-216v532q315 122 612 182 297 61 578 61 760 0 1135-394 375-393 375-1193z"/>
<path id="aq" transform="scale(.0156)" d="m2906 2969v1894h575v-4863h-575v525q-181-312-458-464-276-152-664-152-634 0-1033 506-398 507-398 1332t398 1331q399 506 1033 506 388 0 664-152 277-151 458-463zm-1959-1222q0-634 261-995t717-361 718 361q263 361 263 995t-263 995q-262 361-718 361t-717-361-261-995z"/>
<path id="o" transform="scale(.0156)" d="m603 3500h575v-3500h-575v3500zm0 1363h575v-729h-575v729z"/>
<path id="q" transform="scale(.0156)" d="m3513 2113v-2113h-575v2094q0 497-194 743-194 247-581 247-466 0-735-297-269-296-269-809v-1978h-578v3500h578v-544q207 316 486 472 280 156 646 156 603 0 912-373 310-373 310-1098z"/>
<path id="af" transform="scale(.0156)" d="m2906 1791q0 625-258 968-257 344-723 344-462 0-720-344-258-343-258-968 0-622 258-966t720-344q466 0 723 344 258 344 258 966zm575-1357q0-893-397-1329-396-436-1215-436-303 0-572 45t-522 139v559q253-137 500-202 247-66 503-66 566 0 847 295t281 892v285q-178-310-456-463t-666-153q-643 0-1037 490-394 491-394 1301 0 812 394 1302 394 491 1037 491 388 0 666-153t456-462v531h575v-3066z"/>
<path id="ak" transform="scale(.0156)" d="m191 3500h609l1094-2937 1094 2937h609l-1313-3500h-781l-1312 3500z"/>
<path id="ag" transform="scale(.0156)" d="m-19 4666h3947v-532h-1656v-4134h-634v4134h-1657v532z"/>
<path id="an" transform="scale(.0156)" d="m1984 4856q-418-718-622-1422-203-703-203-1425 0-721 205-1429t620-1424h-500q-468 735-701 1444t-233 1409q0 697 231 1403 232 707 703 1444h500z"/>
<path id="am" transform="scale(.0156)" d="m513 4856h500q468-737 701-1444 233-706 233-1403 0-700-233-1409t-701-1444h-500q415 716 620 1424t205 1429q0 722-205 1425-205 704-620 1422z"/>
</defs>
<use xlink:href="#al"/>
<use transform="translate(63.2)" xlink:href="#x"/>
<use transform="translate(98.4)" xlink:href="#x"/>
<use transform="translate(134)" xlink:href="#m"/>
<use transform="translate(195)" xlink:href="#y"/>
<use transform="translate(250)" xlink:href="#ab"/>
<use transform="translate(289)" xlink:href="#DejaVuSans-20"/>
<use transform="translate(321)" xlink:href="#t"/>
<use transform="translate(382)" xlink:href="#x"/>
<use transform="translate(417)" xlink:href="#DejaVuSans-20"/>
<use transform="translate(449)" xlink:href="#x"/>
<use transform="translate(484)" xlink:href="#p"/>
<use transform="translate(523)" xlink:href="#m"/>
<use transform="translate(585)" xlink:href="#m"/>
<use transform="translate(646)" xlink:href="#DejaVuSans-20"/>
<use transform="translate(678)" xlink:href="#ab"/>
<use transform="translate(717)" xlink:href="#ae"/>
<use transform="translate(781)" xlink:href="#p"/>
<use transform="translate(820)" xlink:href="#m"/>
<use transform="translate(881)" xlink:href="#r"/>
<use transform="translate(942)" xlink:href="#aq"/>
<use transform="translate(1006)" xlink:href="#o"/>
<use transform="translate(1034)" xlink:href="#q"/>
<use transform="translate(1097)" xlink:href="#af"/>
<use transform="translate(1161)" xlink:href="#DejaVuSans-20"/>
<use transform="translate(1192)" xlink:href="#ak"/>
<use transform="translate(1252)" xlink:href="#s"/>
<use transform="translate(1304)" xlink:href="#h"/>
<use transform="translate(1335)" xlink:href="#DejaVuSans-20"/>
<use transform="translate(1367)" xlink:href="#ag"/>
<use transform="translate(1425)" xlink:href="#o"/>
<use transform="translate(1453)" xlink:href="#m"/>
<use transform="translate(1514)" xlink:href="#p"/>
<use transform="translate(1556)" xlink:href="#DejaVuSans-20"/>
<use transform="translate(1587)" xlink:href="#e"/>
<use transform="translate(1651)" xlink:href="#DejaVuSans-20"/>
<use transform="translate(1683)" xlink:href="#an"/>
<use transform="translate(1722)" xlink:href="#s"/>
<use transform="translate(1774)" xlink:href="#r"/>
<use transform="translate(1835)" xlink:href="#u"/>
<use transform="translate(1933)" xlink:href="#m"/>
<use transform="translate(1994)" xlink:href="#DejaVuSans-20"/>
<use transform="translate(2026)" xlink:href="#y"/>
<use transform="translate(2081)" xlink:href="#t"/>
<use transform="translate(2142)" xlink:href="#u"/>
<use transform="translate(2239)" xlink:href="#u"/>
<use transform="translate(2337)" xlink:href="#o"/>
<use transform="translate(2365)" xlink:href="#ab"/>
<use transform="translate(2404)" xlink:href="#am"/>
</g>
<path d="m47.6 87.8h100q2 0 2-2v-43q0-2-2-2h-100q-2 0-2 2v43q0 2 2 2z" fill="#fff" opacity=".8" stroke="#ccc"/>
<path d="m49.6 48.8h10 10" fill="none" stroke="#1f77b4" stroke-linecap="square" stroke-opacity=".9" stroke-width="1.5"/>
<use x="59.645553" y="48.831032" fill="#1f77b4" fill-opacity=".9" stroke="#1f77b4" stroke-opacity=".9" xlink:href="#a"/>
<g transform="translate(77.6 52.3) scale(.1 -.1)">
<defs>
<path id="v" transform="scale(.0156)" d="m544 1381v2119h575v-2097q0-497 193-746 194-248 582-248 465 0 735 297 271 297 271 810v1984h575v-3500h-575v538q-209-319-486-474-276-155-642-155-603 0-916 375-312 375-312 1097zm1447 2203z"/>
<path id="aa" transform="scale(.0156)" d="m3513 3500-1266-1703 1331-1797h-678l-1019 1375-1018-1375h-679l1360 1831-1244 1669h678l928-1247 928 1247h679z"/>
</defs>
<use xlink:href="#w"/>
<use transform="translate(27.8)" xlink:href="#o"/>
<use transform="translate(55.6)" xlink:href="#q"/>
<use transform="translate(119)" xlink:href="#v"/>
<use transform="translate(182)" xlink:href="#aa"/>
</g>
<path d="m49.6 63.5h10 10" fill="none" stroke="#1f77b4" stroke-dasharray="1.5,2.475" stroke-opacity=".9" stroke-width="1.5"/>
<use x="59.645553" y="63.509157" fill="#1f77b4" fill-opacity=".9" stroke="#1f77b4" stroke-opacity=".9" xlink:href="#a"/>
<g transform="translate(77.6 67) scale(.1 -.1)">
<use xlink:href="#w"/>
<use transform="translate(27.8)" xlink:href="#o"/>
<use transform="translate(55.6)" xlink:href="#q"/>
<use transform="translate(119)" xlink:href="#v"/>
<use transform="translate(182)" xlink:href="#aa"/>
<use transform="translate(242)" xlink:href="#d"/>
</g>
<path d="m49.6 78.2h10 10" fill="none" stroke="#9467bd" stroke-dasharray="5.55,2.4" stroke-opacity=".9" stroke-width="1.5"/>
<use x="59.645553" y="78.187282" fill="#9467bd" fill-opacity=".9" stroke="#9467bd" stroke-opacity=".9" xlink:href="#c"/>
<g transform="translate(77.6 81.7) scale(.1 -.1)">
<use xlink:href="#w"/>
<use transform="translate(27.8)" xlink:href="#o"/>
<use transform="translate(55.6)" xlink:href="#q"/>
<use transform="translate(119)" xlink:href="#v"/>
<use transform="translate(182)" xlink:href="#aa"/>
<use transform="translate(242)" xlink:href="#i"/>
<use transform="translate(278)" xlink:href="#r"/>
<use transform="translate(339)" xlink:href="#r"/>
<use transform="translate(400)" xlink:href="#p"/>
<use transform="translate(439)" xlink:href="#y"/>
<use transform="translate(494)" xlink:href="#ae"/>
<use transform="translate(557)" xlink:href="#ai"/>
<use transform="translate(621)" xlink:href="#n"/>
</g>
<path d="m40.6 700h676v-313h-676z" fill="#fff"/>
<path d="m97.2 700v-313" clip-path="url(#f)" fill="none" stroke="#b0b0b0" stroke-linecap="square" stroke-width=".8"/>
<use x="97.218059" y="700.321635" stroke="#000000" stroke-width=".8" xlink:href="#j"/>
<g transform="translate(76.3 715) scale(.1 -.1)">
<use xlink:href="#d"/>
<use transform="translate(63.6)" xlink:href="#b"/>
<use transform="translate(127)" xlink:href="#d"/>
<use transform="translate(191)" xlink:href="#ad"/>
<use transform="translate(254)" xlink:href="#i"/>
<use transform="translate(291)" xlink:href="#e"/>
<use transform="translate(354)" xlink:href="#e"/>
</g>
<path d="m182 700v-313" clip-path="url(#f)" fill="none" stroke="#b0b0b0" stroke-linecap="square" stroke-width=".8"/>
<use x="181.977666" y="700.321635" stroke="#000000" stroke-width=".8" xlink:href="#j"/>
<g transform="translate(161 715) scale(.1 -.1)">
<use xlink:href="#d"/>
<use transform="translate(63.6)" xlink:href="#b"/>
<use transform="translate(127)" xlink:href="#d"/>
<use transform="translate(191)" xlink:href="#n"/>
<use transform="translate(254)" xlink:href="#i"/>
<use transform="translate(291)" xlink:href="#b"/>
<use transform="translate(354)" xlink:href="#e"/>
</g>
<path d="m265 700v-313" clip-path="url(#f)" fill="none" stroke="#b0b0b0" stroke-linecap="square" stroke-width=".8"/>
<use x="265.347772" y="700.321635" stroke="#000000" stroke-width=".8" xlink:href="#j"/>
<g transform="translate(244 715) scale(.1 -.1)">
<use xlink:href="#d"/>
<use transform="translate(63.6)" xlink:href="#b"/>
<use transform="translate(127)" xlink:href="#d"/>
<use transform="translate(191)" xlink:href="#n"/>
<use transform="translate(254)" xlink:href="#i"/>
<use transform="translate(291)" xlink:href="#b"/>
<use transform="translate(354)" xlink:href="#ad"/>
</g>
<path d="m350 700v-313" clip-path="url(#f)" fill="none" stroke="#b0b0b0" stroke-linecap="square" stroke-width=".8"/>
<use x="350.10738" y="700.321635" stroke="#000000" stroke-width=".8" xlink:href="#j"/>
<g transform="translate(329 715) scale(.1 -.1)">
<use xlink:href="#d"/>
<use transform="translate(63.6)" xlink:href="#b"/>
<use transform="translate(127)" xlink:href="#d"/>
<use transform="translate(191)" xlink:href="#n"/>
<use transform="translate(254)" xlink:href="#i"/>
<use transform="translate(291)" xlink:href="#b"/>
<use transform="translate(354)" xlink:href="#z"/>
</g>
<path d="m435 700v-313" clip-path="url(#f)" fill="none" stroke="#b0b0b0" stroke-linecap="square" stroke-width=".8"/>
<use x="434.866988" y="700.321635" stroke="#000000" stroke-width=".8" xlink:href="#j"/>
<g transform="translate(414 715) scale(.1 -.1)">
<use xlink:href="#d"/>
<use transform="translate(63.6)" xlink:href="#b"/>
<use transform="translate(127)" xlink:href="#d"/>
<use transform="translate(191)" xlink:href="#n"/>
<use transform="translate(254)" xlink:href="#i"/>
<use transform="translate(291)" xlink:href="#b"/>
<use transform="translate(354)" xlink:href="#ah"/>
</g>
<path d="m521 700v-313" clip-path="url(#f)" fill="none" stroke="#b0b0b0" stroke-linecap="square" stroke-width=".8"/>
<use x="521.016097" y="700.321635" stroke="#000000" stroke-width=".8" xlink:href="#j"/>
<g transform="translate(500 715) scale(.1 -.1)">
<use xlink:href="#d"/>
<use transform="translate(63.6)" xlink:href="#b"/>
<use transform="translate(127)" xlink:href="#d"/>
<use transform="translate(191)" xlink:href="#n"/>
<use transform="translate(254)" xlink:href="#i"/>
<use transform="translate(291)" xlink:href="#b"/>
<use transform="translate(354)" xlink:href="#ac"/>
</g>
<path d="m606 700v-313" clip-path="url(#f)" fill="none" stroke="#b0b0b0" stroke-linecap="square" stroke-width=".8"/>
<use x="605.775705" y="700.321635" stroke="#000000" stroke-width=".8" xlink:href="#j"/>
<g transform="translate(585 715) scale(.1 -.1)">
<use xlink:href="#d"/>
<use transform="translate(63.6)" xlink:href="#b"/>
<use transform="translate(127)" xlink:href="#d"/>
<use transform="translate(191)" xlink:href="#n"/>
<use transform="translate(254)" xlink:href="#i"/>
<use transform="translate(291)" xlink:href="#e"/>
<use transform="translate(354)" xlink:href="#e"/>
</g>
<path d="m691 700v-313" clip-path="url(#f)" fill="none" stroke="#b0b0b0" stroke-linecap="square" stroke-width=".8"/>
<use x="690.535313" y="700.321635" stroke="#000000" stroke-width=".8" xlink:href="#j"/>
<g transform="translate(670 715) scale(.1 -.1)">
<use xlink:href="#d"/>
<use transform="translate(63.6)" xlink:href="#b"/>
<use transform="translate(127)" xlink:href="#d"/>
<use transform="translate(191)" xlink:href="#z"/>
<use transform="translate(254)" xlink:href="#i"/>
<use transform="translate(291)" xlink:href="#b"/>
<use transform="translate(354)" xlink:href="#e"/>
</g>
<path d="m40.6 700h676" clip-path="url(#f)" fill="none" stroke="#b0b0b0" stroke-linecap="square" stroke-width=".8"/>
<use x="40.645553" y="700.321635" stroke="#000000" stroke-width=".8" xlink:href="#k"/>
<g transform="translate(3 704) scale(.1 -.1)">
<use xlink:href="#b"/>
<use transform="translate(63.6)" xlink:href="#h"/>
<use transform="translate(95.4)" xlink:href="#ac"/>
<use transform="translate(159)" xlink:href="#b"/>
<use transform="translate(223)" xlink:href="#l"/>
</g>
<path d="m40.6 661h676" clip-path="url(#f)" fill="none" stroke="#b0b0b0" stroke-linecap="square" stroke-width=".8"/>
<use x="40.645553" y="661.222086" stroke="#000000" stroke-width=".8" xlink:href="#k"/>
<g transform="translate(3 665) scale(.1 -.1)">
<use xlink:href="#b"/>
<use transform="translate(63.6)" xlink:href="#h"/>
<use transform="translate(95.4)" xlink:href="#ac"/>
<use transform="translate(159)" xlink:href="#z"/>
<use transform="translate(223)" xlink:href="#l"/>
</g>
<path d="m40.6 622h676" clip-path="url(#f)" fill="none" stroke="#b0b0b0" stroke-linecap="square" stroke-width=".8"/>
<use x="40.645553" y="622.122536" stroke="#000000" stroke-width=".8" xlink:href="#k"/>
<g transform="translate(3 626) scale(.1 -.1)">
<use xlink:href="#e"/>
<use transform="translate(63.6)" xlink:href="#h"/>
<use transform="translate(95.4)" xlink:href="#b"/>
<use transform="translate(159)" xlink:href="#b"/>
<use transform="translate(223)" xlink:href="#l"/>
</g>
<path d="m40.6 583h676" clip-path="url(#f)" fill="none" stroke="#b0b0b0" stroke-linecap="square" stroke-width=".8"/>
<use x="40.645553" y="583.022987" stroke="#000000" stroke-width=".8" xlink:href="#k"/>
<g transform="translate(3 587) scale(.1 -.1)">
<use xlink:href="#e"/>
<use transform="translate(63.6)" xlink:href="#h"/>
<use transform="translate(95.4)" xlink:href="#b"/>
<use transform="translate(159)" xlink:href="#z"/>
<use transform="translate(223)" xlink:href="#l"/>
</g>
<path d="m40.6 544h676" clip-path="url(#f)" fill="none" stroke="#b0b0b0" stroke-linecap="square" stroke-width=".8"/>
<use x="40.645553" y="543.923437" stroke="#000000" stroke-width=".8" xlink:href="#k"/>
<g transform="translate(3 548) scale(.1 -.1)">
<use xlink:href="#e"/>
<use transform="translate(63.6)" xlink:href="#h"/>
<use transform="translate(95.4)" xlink:href="#e"/>
<use transform="translate(159)" xlink:href="#b"/>
<use transform="translate(223)" xlink:href="#l"/>
</g>
<path d="m40.6 505h676" clip-path="url(#f)" fill="none" stroke="#b0b0b0" stroke-linecap="square" stroke-width=".8"/>
<use x="40.645553" y="504.823888" stroke="#000000" stroke-width=".8" xlink:href="#k"/>
<g transform="translate(3 509) scale(.1 -.1)">
<use xlink:href="#e"/>
<use transform="translate(63.6)" xlink:href="#h"/>
<use transform="translate(95.4)" xlink:href="#e"/>
<use transform="translate(159)" xlink:href="#z"/>
<use transform="translate(223)" xlink:href="#l"/>
</g>
<path d="m40.6 466h676" clip-path="url(#f)" fill="none" stroke="#b0b0b0" stroke-linecap="square" stroke-width=".8"/>
<use x="40.645553" y="465.724339" stroke="#000000" stroke-width=".8" xlink:href="#k"/>
<g transform="translate(3 470) scale(.1 -.1)">
<use xlink:href="#e"/>
<use transform="translate(63.6)" xlink:href="#h"/>
<use transform="translate(95.4)" xlink:href="#d"/>
<use transform="translate(159)" xlink:href="#b"/>
<use transform="translate(223)" xlink:href="#l"/>
</g>
<path d="m40.6 427h676" clip-path="url(#f)" fill="none" stroke="#b0b0b0" stroke-linecap="square" stroke-width=".8"/>
<use x="40.645553" y="426.624789" stroke="#000000" stroke-width=".8" xlink:href="#k"/>
<g transform="translate(3 430) scale(.1 -.1)">
<use xlink:href="#e"/>
<use transform="translate(63.6)" xlink:href="#h"/>
<use transform="translate(95.4)" xlink:href="#d"/>
<use transform="translate(159)" xlink:href="#z"/>
<use transform="translate(223)" xlink:href="#l"/>
</g>
<path d="m40.6 388h676" clip-path="url(#f)" fill="none" stroke="#b0b0b0" stroke-linecap="square" stroke-width=".8"/>
<use x="40.645553" y="387.52524" stroke="#000000" stroke-width=".8" xlink:href="#k"/>
<g transform="translate(3 391) scale(.1 -.1)">
<use xlink:href="#e"/>
<use transform="translate(63.6)" xlink:href="#h"/>
<use transform="translate(95.4)" xlink:href="#ad"/>
<use transform="translate(159)" xlink:href="#b"/>
<use transform="translate(223)" xlink:href="#l"/>
</g>
<g stroke="#1f77b4" stroke-opacity=".9">
<path d="m245 638 154-86 121 7.82h9.52 6.98 2.73 8.06l11.6 15.6h6.82 2.07 10.5 4.09 1.16 4.52 9.72 9.47 10.1 8.5 1.23l9.65 31.3h9.55 9.69 9.58 8.58 11.2" clip-path="url(#f)" fill="none" stroke-linecap="square" stroke-width="1.5"/>
<g clip-path="url(#f)" fill="#1f77b4" fill-opacity=".9">
<use x="245.353131" y="637.762356" xlink:href="#a"/>
<use x="399.653314" y="551.743347" xlink:href="#a"/>
<use x="520.974686" y="559.563257" xlink:href="#a"/>
<use x="530.498417" y="559.563257" xlink:href="#a"/>
<use x="537.481934" y="559.563257" xlink:href="#a"/>
<use x="540.20851" y="559.563257" xlink:href="#a"/>
<use x="548.263664" y="559.563257" xlink:href="#a"/>
<use x="559.879416" y="575.203077" xlink:href="#a"/>
<use x="566.702224" y="575.203077" xlink:href="#a"/>
<use x="568.777068" y="575.203077" xlink:href="#a"/>
<use x="579.256919" y="575.203077" xlink:href="#a"/>
<use x="583.345769" y="575.203077" xlink:href="#a"/>
<use x="584.507917" y="575.203077" xlink:href="#a"/>
<use x="589.031195" y="575.203077" xlink:href="#a"/>
<use x="598.7515" y="575.203077" xlink:href="#a"/>
<use x="608.21814" y="575.203077" xlink:href="#a"/>
<use x="618.2827" y="575.203077" xlink:href="#a"/>
<use x="626.779037" y="575.203077" xlink:href="#a"/>
<use x="628.009534" y="575.203077" xlink:href="#a"/>
<use x="637.658032" y="606.482716" xlink:href="#a"/>
<use x="647.209538" y="606.482716" xlink:href="#a"/>
<use x="656.896536" y="606.482716" xlink:href="#a"/>
<use x="666.475527" y="606.482716" xlink:href="#a"/>
<use x="675.05874" y="606.482716" xlink:href="#a"/>
<use x="686.256387" y="606.482716" xlink:href="#a"/>
</g>
</g>
<g stroke="#1f77b4" stroke-opacity=".9">
<path d="m245 599 154-46.9 121 7.82h9.52 9.71 8.06l11.6 15.6h8.9l10.5-7.82 4.09 7.82h5.69 9.72 9.47 10.1 9.73l9.65 31.3h9.55 9.69 9.58 8.58 11.2" clip-path="url(#f)" fill="none" stroke-dasharray="1.5,2.475" stroke-width="1.5"/>
<g clip-path="url(#f)" fill="#1f77b4" fill-opacity=".9">
<use x="245.353131" y="598.662807" xlink:href="#a"/>
<use x="399.653314" y="551.743347" xlink:href="#a"/>
<use x="520.974686" y="559.563257" xlink:href="#a"/>
<use x="530.498417" y="559.563257" xlink:href="#a"/>
<use x="540.20851" y="559.563257" xlink:href="#a"/>
<use x="548.263664" y="559.563257" xlink:href="#a"/>
<use x="559.879416" y="575.203077" xlink:href="#a"/>
<use x="568.777068" y="575.203077" xlink:href="#a"/>
<use x="579.256919" y="567.383167" xlink:href="#a"/>
<use x="583.345769" y="575.203077" xlink:href="#a"/>
<use x="589.031195" y="575.203077" xlink:href="#a"/>
<use x="598.7515" y="575.203077" xlink:href="#a"/>
<use x="608.21814" y="575.203077" xlink:href="#a"/>
<use x="618.2827" y="575.203077" xlink:href="#a"/>
<use x="628.009534" y="575.203077" xlink:href="#a"/>
<use x="637.658032" y="606.482716" xlink:href="#a"/>
<use x="647.209538" y="606.482716" xlink:href="#a"/>
<use x="656.896536" y="606.482716" xlink:href="#a"/>
<use x="666.475527" y="606.482716" xlink:href="#a"/>
<use x="675.05874" y="606.482716" xlink:href="#a"/>
<use x="686.256387" y="606.482716" xlink:href="#a"/>
</g>
</g>
<g stroke="#9467bd" stroke-opacity=".9">
<path d="m400 552 121-7.82 9.52 7.82h9.71 8.06l11.6 23.5h8.9l10.5-7.82h4.09 5.69 9.72l9.47 7.82h10.1l9.73-7.82 9.65 39.1h9.55l9.69 7.82 9.58-7.82h8.58 11.2" clip-path="url(#f)" fill="none" stroke-dasharray="5.55,2.4" stroke-width="1.5"/>
<g clip-path="url(#f)" fill="#9467bd" fill-opacity=".9">
<use x="399.653314" y="551.743347" xlink:href="#c"/>
<use x="520.974686" y="543.923437" xlink:href="#c"/>
<use x="530.498417" y="551.743347" xlink:href="#c"/>
<use x="540.20851" y="551.743347" xlink:href="#c"/>
<use x="548.263664" y="551.743347" xlink:href="#c"/>
<use x="559.879416" y="575.203077" xlink:href="#c"/>
<use x="568.777068" y="575.203077" xlink:href="#c"/>
<use x="579.256919" y="567.383167" xlink:href="#c"/>
<use x="583.345769" y="567.383167" xlink:href="#c"/>
<use x="589.031195" y="567.383167" xlink:href="#c"/>
<use x="598.7515" y="567.383167" xlink:href="#c"/>
<use x="608.21814" y="575.203077" xlink:href="#c"/>
<use x="618.2827" y="575.203077" xlink:href="#c"/>
<use x="628.009534" y="567.383167" xlink:href="#c"/>
<use x="637.658032" y="606.482716" xlink:href="#c"/>
<use x="647.209538" y="606.482716" xlink:href="#c"/>
<use x="656.896536" y="614.302626" xlink:href="#c"/>
<use x="666.475527" y="606.482716" xlink:href="#c"/>
<use x="675.05874" y="606.482716" xlink:href="#c"/>
<use x="686.256387" y="606.482716" xlink:href="#c"/>
</g>
</g>
<path d="m40.6 700v-313" fill="none" stroke="#000" stroke-linecap="square" stroke-width=".8"/>
<path d="m717 700v-313" fill="none" stroke="#000" stroke-linecap="square" stroke-width=".8"/>
<path d="m40.6 700h676" fill="none" stroke="#000" stroke-linecap="square" stroke-width=".8"/>
<path d="m40.6 388h676" fill="none" stroke="#000" stroke-linecap="square" stroke-width=".8"/>
<g clip-path="url(#f)">
<g transform="translate(58.2 614) rotate(-90) scale(.1 -.1)">
<use xlink:href="#u"/>
<use transform="translate(97.4)" xlink:href="#t"/>
<use transform="translate(159)" xlink:href="#p"/>
<use transform="translate(197)" xlink:href="#m"/>
<use transform="translate(259)" xlink:href="#DejaVuSans-20"/>
<use transform="translate(291)" xlink:href="#ao"/>
</g>
</g>
<g clip-path="url(#f)">
<g transform="translate(58.2 669) rotate(-90) scale(.1 -.1)">
<use xlink:href="#ap"/>
<use transform="translate(143)" xlink:href="#DejaVuSans-20"/>
<use transform="translate(175)" xlink:href="#w"/>
<use transform="translate(203)" xlink:href="#m"/>
<use transform="translate(264)" xlink:href="#s"/>
<use transform="translate(317)" xlink:href="#s"/>
</g>
</g>
<g transform="translate(268 382) scale(.12 -.12)">
<defs>
<path id="at" transform="scale(.0156)" d="m628 4666h631v-4341q0-844-320-1225t-1030-381h-240v531h197q418 0 590 235 172 234 172 840v4341z"/>
<path id="au" transform="scale(.0156)" d="m628 4666h631v-4666h-631v4666z"/>
</defs>
<use xlink:href="#al"/>
<use transform="translate(63.2)" xlink:href="#x"/>
<use transform="translate(98.4)" xlink:href="#x"/>
<use transform="translate(134)" xlink:href="#m"/>
<use transform="translate(195)" xlink:href="#y"/>
<use transform="translate(250)" xlink:href="#ab"/>
<use transform="translate(289)" xlink:href="#DejaVuSans-20"/>
<use transform="translate(321)" xlink:href="#t"/>
<use transform="translate(382)" xlink:href="#x"/>
<use transform="translate(417)" xlink:href="#DejaVuSans-20"/>
<use transform="translate(449)" xlink:href="#at"/>
<use transform="translate(479)" xlink:href="#au"/>
<use transform="translate(508)" xlink:href="#ag"/>
<use transform="translate(569)" xlink:href="#DejaVuSans-20"/>
<use transform="translate(601)" xlink:href="#ak"/>
<use transform="translate(660)" xlink:href="#s"/>
<use transform="translate(712)" xlink:href="#h"/>
<use transform="translate(744)" xlink:href="#DejaVuSans-20"/>
<use transform="translate(776)" xlink:href="#ag"/>
<use transform="translate(834)" xlink:href="#o"/>
<use transform="translate(862)" xlink:href="#m"/>
<use transform="translate(923)" xlink:href="#p"/>
<use transform="translate(964)" xlink:href="#DejaVuSans-20"/>
<use transform="translate(996)" xlink:href="#e"/>
<use transform="translate(1060)" xlink:href="#DejaVuSans-20"/>
<use transform="translate(1092)" xlink:href="#an"/>
<use transform="translate(1131)" xlink:href="#s"/>
<use transform="translate(1183)" xlink:href="#r"/>
<use transform="translate(1244)" xlink:href="#u"/>
<use transform="translate(1341)" xlink:href="#m"/>
<use transform="translate(1403)" xlink:href="#DejaVuSans-20"/>
<use transform="translate(1435)" xlink:href="#y"/>
<use transform="translate(1490)" xlink:href="#t"/>
<use transform="translate(1551)" xlink:href="#u"/>
<use transform="translate(1648)" xlink:href="#u"/>
<use transform="translate(1746)" xlink:href="#o"/>
<use transform="translate(1773)" xlink:href="#ab"/>
<use transform="translate(1813)" xlink:href="#am"/>
</g>
<path d="m47.6 440h100q2 0 2-2v-43q0-2-2-2h-100q-2 0-2 2v43q0 2 2 2z" fill="#fff" opacity=".8" stroke="#ccc"/>
<path d="m49.6 401h10 10" fill="none" stroke="#1f77b4" stroke-linecap="square" stroke-opacity=".9" stroke-width="1.5"/>
<use x="59.645553" y="400.623678" fill="#1f77b4" fill-opacity=".9" stroke="#1f77b4" stroke-opacity=".9" xlink:href="#a"/>
<g transform="translate(77.6 404) scale(.1 -.1)">
<use xlink:href="#w"/>
<use transform="translate(27.8)" xlink:href="#o"/>
<use transform="translate(55.6)" xlink:href="#q"/>
<use transform="translate(119)" xlink:href="#v"/>
<use transform="translate(182)" xlink:href="#aa"/>
</g>
<path d="m49.6 415h10 10" fill="none" stroke="#1f77b4" stroke-dasharray="1.5,2.475" stroke-opacity=".9" stroke-width="1.5"/>
<use x="59.645553" y="415.301803" fill="#1f77b4" fill-opacity=".9" stroke="#1f77b4" stroke-opacity=".9" xlink:href="#a"/>
<g transform="translate(77.6 419) scale(.1 -.1)">
<use xlink:href="#w"/>
<use transform="translate(27.8)" xlink:href="#o"/>
<use transform="translate(55.6)" xlink:href="#q"/>
<use transform="translate(119)" xlink:href="#v"/>
<use transform="translate(182)" xlink:href="#aa"/>
<use transform="translate(242)" xlink:href="#d"/>
</g>
<path d="m49.6 430h10 10" fill="none" stroke="#9467bd" stroke-dasharray="5.55,2.4" stroke-opacity=".9" stroke-width="1.5"/>
<use x="59.645553" y="429.979928" fill="#9467bd" fill-opacity=".9" stroke="#9467bd" stroke-opacity=".9" xlink:href="#c"/>
<g transform="translate(77.6 433) scale(.1 -.1)">
<use xlink:href="#w"/>
<use transform="translate(27.8)" xlink:href="#o"/>
<use transform="translate(55.6)" xlink:href="#q"/>
<use transform="translate(119)" xlink:href="#v"/>
<use transform="translate(182)" xlink:href="#aa"/>
<use transform="translate(242)" xlink:href="#i"/>
<use transform="translate(278)" xlink:href="#r"/>
<use transform="translate(339)" xlink:href="#r"/>
<use transform="translate(400)" xlink:href="#p"/>
<use transform="translate(439)" xlink:href="#y"/>
<use transform="translate(494)" xlink:href="#ae"/>
<use transform="translate(557)" xlink:href="#ai"/>
<use transform="translate(621)" xlink:href="#n"/>
</g>
<g transform="translate(241 12.1) scale(.12 -.12)">
<defs>
<path id="as" transform="scale(.0156)" d="m628 4666h941l1190-3175 1197 3175h941v-4666h-616v4097l-1203-3200h-634l-1203 3200v-4097h-613v4666z"/>
<path id="aj" transform="scale(.0156)" d="m2059-325q-243-625-475-815-231-191-618-191h-460v481h338q237 0 368 113 132 112 291 531l103 262-1415 3444h609l1094-2737 1094 2737h609l-1538-3825z"/>
<path id="ar" transform="scale(.0156)" d="m3116 1747q0 634-261 995t-717 361q-457 0-718-361t-261-995 261-995 718-361q456 0 717 361t261 995zm-1957 1222q182 312 458 463 277 152 661 152 638 0 1036-506 399-506 399-1331t-399-1332q-398-506-1036-506-384 0-661 152-276 152-458 464v-525h-578v4863h578v-1894z"/>
</defs>
<use xlink:href="#as"/>
<use transform="translate(86.3)" xlink:href="#m"/>
<use transform="translate(148)" xlink:href="#u"/>
<use transform="translate(245)" xlink:href="#t"/>
<use transform="translate(306)" xlink:href="#p"/>
<use transform="translate(348)" xlink:href="#aj"/>
<use transform="translate(407)" xlink:href="#DejaVuSans-20"/>
<use transform="translate(438)" xlink:href="#v"/>
<use transform="translate(502)" xlink:href="#s"/>
<use transform="translate(554)" xlink:href="#r"/>
<use transform="translate(615)" xlink:href="#af"/>
<use transform="translate(679)" xlink:href="#m"/>
<use transform="translate(740)" xlink:href="#DejaVuSans-20"/>
<use transform="translate(772)" xlink:href="#y"/>
<use transform="translate(827)" xlink:href="#ae"/>
<use transform="translate(890)" xlink:href="#r"/>
<use transform="translate(952)" xlink:href="#q"/>
<use transform="translate(1015)" xlink:href="#af"/>
<use transform="translate(1079)" xlink:href="#m"/>
<use transform="translate(1140)" xlink:href="#DejaVuSans-20"/>
<use transform="translate(1172)" xlink:href="#ar"/>
<use transform="translate(1235)" xlink:href="#aj"/>
<use transform="translate(1294)" xlink:href="#DejaVuSans-20"/>
<use transform="translate(1326)" xlink:href="#y"/>
<use transform="translate(1381)" xlink:href="#t"/>
<use transform="translate(1442)" xlink:href="#q"/>
<use transform="translate(1506)" xlink:href="#x"/>
<use transform="translate(1541)" xlink:href="#o"/>
<use transform="translate(1569)" xlink:href="#af"/>
<use transform="translate(1632)" xlink:href="#v"/>
<use transform="translate(1696)" xlink:href="#p"/>
<use transform="translate(1737)" xlink:href="#r"/>
<use transform="translate(1798)" xlink:href="#ab"/>
<use transform="translate(1837)" xlink:href="#o"/>
<use transform="translate(1865)" xlink:href="#t"/>
<use transform="translate(1926)" xlink:href="#q"/>
</g>
<defs>
<clipPath id="g">
<rect x="40.6" y="35.7" width="676" height="313"/>
</clipPath>
<clipPath id="f">
<rect x="40.6" y="388" width="676" height="313"/>
</clipPath>
</defs>
</svg>
