<?xml version="1.0" encoding="UTF-8"?>
<!DOCTYPE svg  PUBLIC '-//W3C//DTD SVG 1.1//EN'  'http://www.w3.org/Graphics/SVG/1.1/DTD/svg11.dtd'>
<svg width="576pt" height="425pt" version="1.1" viewBox="0 0 576 425" xmlns="http://www.w3.org/2000/svg" xmlns:xlink="http://www.w3.org/1999/xlink">
<defs>
<style type="text/css">*{stroke-linejoin: round; stroke-linecap: butt}</style>
</defs>
<path d="m0 425h576v-425h-576z" fill="#fff"/>
<path d="m183 405h344v-370h-344z" fill="#fff"/>
<path d="m509 368v24.7-24.7z" clip-path="url(#a)" fill="#1f77b4" fill-opacity=".3"/>
<path d="m509 343v24.7-24.7z" clip-path="url(#a)" fill="#1f77b4" fill-opacity=".3"/>
<path d="m199 328v5.88l0.00478 0.163 0.00478 0.165 0.00478 0.166 0.00478 0.167 0.00478 0.169 0.00478 0.17 0.00478 0.171 0.00478 0.173 0.00478 0.174 0.00478 0.175 0.00478 0.176 0.00478 0.177 0.00478 0.177 0.00478 0.176 0.00478 0.175 0.00478 0.174 0.00478 0.171 0.00478 0.168 0.00478 0.164 0.00478 0.159 0.00478 0.153 0.00478 0.147 0.00478 0.14 0.00478 0.132 0.00478 0.123 0.00478 0.114 0.00478 0.105 0.00478 0.0951 0.00478 0.085 0.00478 0.0747 0.00478 0.0642 0.00478 0.0535 0.00478 0.0425 0.00478 0.0314 0.00478 0.02 0.00478 0.00837 0.00478-0.00349 0.00478-0.0156 0.00478-0.0278 0.00478-0.0401 0.00478-0.0523 0.00478-0.0644 0.00478-0.0761 0.00478-0.0872 0.00478-0.0974 0.00478-0.106 0.00478-0.114 0.00478-0.12 0.00478-0.124 0.00478-0.126 0.00478-0.125 0.00478-0.122 0.00478-0.116 0.00478-0.107 0.00478-0.0948 0.00478-0.0801 0.00478-0.0625 0.00478-0.0424 0.00478-0.0199 0.00478 0.00481 0.00478 0.0313 0.00478 0.0592 0.00478 0.0882 0.00478 0.118 0.00478 0.148 0.00478 0.177 0.00478 0.206 0.00478 0.234 0.00478 0.26 0.00478 0.284 0.00478 0.305 0.00478 0.324 0.00478 0.339 0.00478 0.35 0.00478 0.357 0.00478 0.36 0.00478 0.358 0.00478 0.351 0.00478 0.339 0.00478 0.323 0.00478 0.301 0.00478 0.274 0.00478 0.242 0.00478 0.206 0.00478 0.166 0.00478 0.122 0.00478 0.0754 0.00478 0.0259 0.00478-0.0253 0.00478-0.0777 0.00478-0.13 0.00478-0.182 0.00478-0.233 0.00478-0.282 0.00478-0.327 0.00478-0.37 0.00478-0.408 0.00478-0.441 0.00478-0.469v-18.8l-0.00478-0.469-0.00478-0.441-0.00478-0.408-0.00478-0.37-0.00478-0.327-0.00478-0.282-0.00478-0.233-0.00478-0.182-0.00478-0.13-0.00478-0.0777-0.00478-0.0253-0.00478 0.0259-0.00478 0.0754-0.00478 0.122-0.00478 0.166-0.00478 0.206-0.00478 0.242-0.00478 0.274-0.00478 0.301-0.00478 0.323-0.00478 0.339-0.00478 0.351-0.00478 0.358-0.00478 0.36-0.00478 0.357-0.00478 0.35-0.00478 0.339-0.00478 0.324-0.00478 0.305-0.00478 0.284-0.00478 0.26-0.00478 0.234-0.00478 0.206-0.00478 0.177-0.00478 0.148-0.00478 0.118-0.00478 0.0882-0.00478 0.0592-0.00478 0.0313-0.00478 0.00481-0.00478-0.0199-0.00478-0.0424-0.00478-0.0625-0.00478-0.0801-0.00478-0.0948-0.00478-0.107-0.00478-0.116-0.00478-0.122-0.00478-0.125-0.00478-0.126-0.00478-0.124-0.00478-0.12-0.00478-0.114-0.00478-0.106-0.00478-0.0974-0.00478-0.0872-0.00478-0.0761-0.00478-0.0644-0.00478-0.0523-0.00478-0.0401-0.00478-0.0278-0.00478-0.0156-0.00478-0.00349-0.00478 0.00837-0.00478 0.02-0.00478 0.0314-0.00478 0.0425-0.00478 0.0535-0.00478 0.0642-0.00478 0.0747-0.00478 0.085-0.00478 0.0951-0.00478 0.105-0.00478 0.114-0.00478 0.123-0.00478 0.132-0.00478 0.14-0.00478 0.147-0.00478 0.153-0.00478 0.159-0.00478 0.164-0.00478 0.168-0.00478 0.171-0.00478 0.174-0.00478 0.175-0.00478 0.176-0.00478 0.177-0.00478 0.177-0.00478 0.176-0.00478 0.175-0.00478 0.174-0.00478 0.173-0.00478 0.171-0.00478 0.17-0.00478 0.169-0.00478 0.167-0.00478 0.166-0.00478 0.165-0.00478 0.163z" clip-path="url(#a)" fill="#1f77b4" fill-opacity=".3"/>
<path d="m202 304v3.95l0.00112 0.0846 0.00112 0.0862 0.00112 0.0905 0.00112 0.0978 0.00112 0.108 0.00112 0.123 0.00112 0.14 0.00112 0.161 0.00112 0.185 0.00112 0.211 0.00112 0.239 0.00112 0.268 0.00112 0.297 0.00112 0.325 0.00112 0.352 0.00112 0.376 0.00112 0.397 0.00112 0.414 0.00112 0.426 0.00112 0.434 0.00112 0.437 0.00112 0.435 0.00112 0.428 0.00112 0.417 0.00112 0.402 0.00112 0.384 0.00112 0.364 0.00112 0.342 0.00112 0.32 0.00112 0.297 0.00112 0.274 0.00112 0.251 0.00112 0.229 0.00112 0.207 0.00112 0.185 0.00112 0.163 0.00112 0.14 0.00112 0.115 0.00112 0.0868 0.00112 0.0559 0.00112 0.0215 0.00112-0.0167 0.00112-0.0585 0.00112-0.103 0.00112-0.151 0.00112-0.199 0.00112-0.248 0.00112-0.294 0.00112-0.337 0.00112-0.374 0.00112-0.404 0.00112-0.424 0.00112-0.435 0.00112-0.434 0.00112-0.422 0.00112-0.398 0.00112-0.362 0.00112-0.317 0.00112-0.262 0.00112-0.201 0.00112-0.135 0.00112-0.0673 0.00112 3.75e-4 0.00112 0.065 0.00112 0.124 0.00112 0.176 0.00112 0.217 0.00112 0.248 0.00112 0.266 0.00112 0.272 0.00112 0.264 0.00112 0.244 0.00112 0.213 0.00112 0.172 0.00112 0.122 0.00112 0.066 0.00112 0.00603 0.00112-0.0557 0.00112-0.117 0.00112-0.176 0.00112-0.23 0.00112-0.278 0.00112-0.319 0.00112-0.353 0.00112-0.377 0.00112-0.394 0.00112-0.402 0.00112-0.403 0.00112-0.397 0.00112-0.385 0.00112-0.369 0.00112-0.35 0.00112-0.329 0.00112-0.308 0.00112-0.286 0.00112-0.265 0.00112-0.246 0.00112-0.228 0.00112-0.213v-5.35l-0.00112-0.213-0.00112-0.228-0.00112-0.246-0.00112-0.265-0.00112-0.286-0.00112-0.308-0.00112-0.329-0.00112-0.35-0.00112-0.369-0.00112-0.385-0.00112-0.397-0.00112-0.403-0.00112-0.402-0.00112-0.394-0.00112-0.377-0.00112-0.353-0.00112-0.319-0.00112-0.278-0.00112-0.23-0.00112-0.176-0.00112-0.117-0.00112-0.0557-0.00112 0.00603-0.00112 0.066-0.00112 0.122-0.00112 0.172-0.00112 0.213-0.00112 0.244-0.00112 0.264-0.00112 0.272-0.00112 0.266-0.00112 0.248-0.00112 0.217-0.00112 0.176-0.00112 0.124-0.00112 0.065-0.00112 3.75e-4 -0.00112-0.0673-0.00112-0.135-0.00112-0.201-0.00112-0.262-0.00112-0.317-0.00112-0.362-0.00112-0.398-0.00112-0.422-0.00112-0.434-0.00112-0.435-0.00112-0.424-0.00112-0.404-0.00112-0.374-0.00112-0.337-0.00112-0.294-0.00112-0.248-0.00112-0.199-0.00112-0.151-0.00112-0.103-0.00112-0.0585-0.00112-0.0167-0.00112 0.0215-0.00112 0.0559-0.00112 0.0868-0.00112 0.115-0.00112 0.14-0.00112 0.163-0.00112 0.185-0.00112 0.207-0.00112 0.229-0.00112 0.251-0.00112 0.274-0.00112 0.297-0.00112 0.32-0.00112 0.342-0.00112 0.364-0.00112 0.384-0.00112 0.402-0.00112 0.417-0.00112 0.428-0.00112 0.435-0.00112 0.437-0.00112 0.434-0.00112 0.426-0.00112 0.414-0.00112 0.397-0.00112 0.376-0.00112 0.352-0.00112 0.325-0.00112 0.297-0.00112 0.268-0.00112 0.239-0.00112 0.211-0.00112 0.185-0.00112 0.161-0.00112 0.14-0.00112 0.123-0.00112 0.108-0.00112 0.0978-0.00112 0.0905-0.00112 0.0862-0.00112 0.0846z" clip-path="url(#a)" fill="#1f77b4" fill-opacity=".3"/>
<path d="m203 269v24.6l0.0502 0.0264 0.0502-0.00748 0.0502-0.0413 0.0502-0.0747 0.0502-0.108 0.0502-0.139 0.0502-0.17 0.0502-0.2 0.0502-0.228 0.0502-0.254 0.0502-0.278 0.0502-0.3 0.0502-0.32 0.0502-0.337 0.0502-0.352 0.0502-0.365 0.0502-0.375 0.0502-0.383 0.0502-0.388 0.0502-0.391 0.0502-0.392 0.0502-0.39 0.0502-0.387 0.0502-0.381 0.0502-0.374 0.0502-0.365 0.0502-0.355 0.0502-0.344 0.0502-0.331 0.0502-0.318 0.0502-0.303 0.0502-0.288 0.0502-0.273 0.0502-0.257 0.0502-0.241 0.0502-0.225 0.0502-0.209 0.0502-0.193 0.0502-0.177 0.0502-0.161 0.0502-0.145 0.0502-0.13 0.0502-0.115 0.0502-0.101 0.0502-0.0863 0.0502-0.0723 0.0502-0.0586 0.0502-0.0451 0.0502-0.0319 0.0502-0.0189 0.0502-0.00608 0.0502 0.00662 0.0502 0.0192 0.0502 0.0317 0.0502 0.0442 0.0502 0.0567 0.0502 0.0692 0.0502 0.0818 0.0502 0.0944 0.0502 0.107 0.0502 0.12 0.0502 0.132 0.0502 0.145 0.0502 0.157 0.0502 0.17 0.0502 0.182 0.0502 0.194 0.0502 0.206 0.0502 0.217 0.0502 0.228 0.0502 0.238 0.0502 0.247 0.0502 0.256 0.0502 0.264 0.0502 0.27 0.0502 0.275 0.0502 0.28 0.0502 0.282 0.0502 0.283 0.0502 0.283 0.0502 0.281 0.0502 0.277 0.0502 0.272 0.0502 0.265 0.0502 0.256 0.0502 0.245 0.0502 0.232 0.0502 0.218 0.0502 0.202 0.0502 0.185 0.0502 0.166 0.0502 0.146 0.0502 0.124 0.0502 0.102 0.0502 0.079 0.0502 0.0553 0.0502 0.031 0.0502 0.00656 0.0502-0.018v-17.9l-0.0502-0.018-0.0502 0.00656-0.0502 0.031-0.0502 0.0553-0.0502 0.079-0.0502 0.102-0.0502 0.124-0.0502 0.146-0.0502 0.166-0.0502 0.185-0.0502 0.202-0.0502 0.218-0.0502 0.232-0.0502 0.245-0.0502 0.256-0.0502 0.265-0.0502 0.272-0.0502 0.277-0.0502 0.281-0.0502 0.283-0.0502 0.283-0.0502 0.282-0.0502 0.28-0.0502 0.275-0.0502 0.27-0.0502 0.264-0.0502 0.256-0.0502 0.247-0.0502 0.238-0.0502 0.228-0.0502 0.217-0.0502 0.206-0.0502 0.194-0.0502 0.182-0.0502 0.17-0.0502 0.157-0.0502 0.145-0.0502 0.132-0.0502 0.12-0.0502 0.107-0.0502 0.0944-0.0502 0.0818-0.0502 0.0692-0.0502 0.0567-0.0502 0.0442-0.0502 0.0317-0.0502 0.0192-0.0502 0.00662-0.0502-0.00608-0.0502-0.0189-0.0502-0.0319-0.0502-0.0451-0.0502-0.0586-0.0502-0.0723-0.0502-0.0863-0.0502-0.101-0.0502-0.115-0.0502-0.13-0.0502-0.145-0.0502-0.161-0.0502-0.177-0.0502-0.193-0.0502-0.209-0.0502-0.225-0.0502-0.241-0.0502-0.257-0.0502-0.273-0.0502-0.288-0.0502-0.303-0.0502-0.318-0.0502-0.331-0.0502-0.344-0.0502-0.355-0.0502-0.365-0.0502-0.374-0.0502-0.381-0.0502-0.387-0.0502-0.39-0.0502-0.392-0.0502-0.391-0.0502-0.388-0.0502-0.383-0.0502-0.375-0.0502-0.365-0.0502-0.352-0.0502-0.337-0.0502-0.32-0.0502-0.3-0.0502-0.278-0.0502-0.254-0.0502-0.228-0.0502-0.2-0.0502-0.17-0.0502-0.139-0.0502-0.108-0.0502-0.0747-0.0502-0.0413-0.0502-0.00748-0.0502 0.0264z" clip-path="url(#a)" fill="#1f77b4" fill-opacity=".3"/>
<path d="m233 255v4.05l3e-3 0.092 3e-3 0.0856 3e-3 0.0787 3e-3 0.0713 3e-3 0.0635 3e-3 0.0556 3e-3 0.0476 3e-3 0.0396 3e-3 0.0319 3e-3 0.0243 3e-3 0.0172 3e-3 0.0105 3e-3 0.00444 3e-3 -1e-3 3e-3 -0.0057 3e-3 -0.00957 3e-3 -0.0125 3e-3 -0.0145 3e-3 -0.0155 3e-3 -0.0153 3e-3 -0.0141 3e-3 -0.0117 3e-3 -0.00829 3e-3 -0.00386 3e-3 0.00148 3e-3 0.00761 3e-3 0.0143 3e-3 0.0215 3e-3 0.0289 3e-3 0.0363 3e-3 0.0436 3e-3 0.0504 3e-3 0.0567 3e-3 0.0622 3e-3 0.067 3e-3 0.0709 3e-3 0.074 3e-3 0.0764 3e-3 0.0782 3e-3 0.0795 3e-3 0.0806 3e-3 0.0818 3e-3 0.0833 3e-3 0.0855 3e-3 0.0885 3e-3 0.0928 3e-3 0.0984 3e-3 0.106 3e-3 0.115 3e-3 0.125 3e-3 0.138 3e-3 0.153 3e-3 0.169 3e-3 0.187 3e-3 0.206 3e-3 0.227 3e-3 0.248 3e-3 0.269 3e-3 0.291 3e-3 0.312 3e-3 0.331 3e-3 0.35 3e-3 0.366 3e-3 0.38 3e-3 0.39 3e-3 0.397 3e-3 0.4 3e-3 0.398 3e-3 0.392 3e-3 0.381 3e-3 0.364 3e-3 0.342 3e-3 0.316 3e-3 0.284 3e-3 0.247 3e-3 0.206 3e-3 0.161 3e-3 0.112 3e-3 0.0606 3e-3 0.00696 3e-3 -0.048 3e-3 -0.103 3e-3 -0.158 3e-3 -0.212 3e-3 -0.264 3e-3 -0.313 3e-3 -0.358 3e-3 -0.398 3e-3 -0.434 3e-3 -0.464 3e-3 -0.488 3e-3 -0.507 3e-3 -0.519 3e-3 -0.526 3e-3 -0.526 3e-3 -0.522 3e-3 -0.513 3e-3 -0.499 3e-3 -0.482v-10l-3e-3 -0.482-3e-3 -0.499-3e-3 -0.513-3e-3 -0.522-3e-3 -0.526-3e-3 -0.526-3e-3 -0.519-3e-3 -0.507-3e-3 -0.488-3e-3 -0.464-3e-3 -0.434-3e-3 -0.398-3e-3 -0.358-3e-3 -0.313-3e-3 -0.264-3e-3 -0.212-3e-3 -0.158-3e-3 -0.103-3e-3 -0.048-3e-3 0.00696-3e-3 0.0606-3e-3 0.112-3e-3 0.161-3e-3 0.206-3e-3 0.247-3e-3 0.284-3e-3 0.316-3e-3 0.342-3e-3 0.364-3e-3 0.381-3e-3 0.392-3e-3 0.398-3e-3 0.4-3e-3 0.397-3e-3 0.39-3e-3 0.38-3e-3 0.366-3e-3 0.35-3e-3 0.331-3e-3 0.312-3e-3 0.291-3e-3 0.269-3e-3 0.248-3e-3 0.227-3e-3 0.206-3e-3 0.187-3e-3 0.169-3e-3 0.153-3e-3 0.138-3e-3 0.125-3e-3 0.115-3e-3 0.106-3e-3 0.0984-3e-3 0.0928-3e-3 0.0885-3e-3 0.0855-3e-3 0.0833-3e-3 0.0818-3e-3 0.0806-3e-3 0.0795-3e-3 0.0782-3e-3 0.0764-3e-3 0.074-3e-3 0.0709-3e-3 0.067-3e-3 0.0622-3e-3 0.0567-3e-3 0.0504-3e-3 0.0436-3e-3 0.0363-3e-3 0.0289-3e-3 0.0215-3e-3 0.0143-3e-3 0.00761-3e-3 0.00148-3e-3 -0.00386-3e-3 -0.00829-3e-3 -0.0117-3e-3 -0.0141-3e-3 -0.0153-3e-3 -0.0155-3e-3 -0.0145-3e-3 -0.0125-3e-3 -0.00957-3e-3 -0.0057-3e-3 -1e-3 -3e-3 0.00444-3e-3 0.0105-3e-3 0.0172-3e-3 0.0243-3e-3 0.0319-3e-3 0.0396-3e-3 0.0476-3e-3 0.0556-3e-3 0.0635-3e-3 0.0713-3e-3 0.0787-3e-3 0.0856-3e-3 0.092z" clip-path="url(#a)" fill="#1f77b4" fill-opacity=".3"/>
<path d="m235 228v9.26l0.0176 0.202 0.0176 0.186 0.0176 0.167 0.0176 0.147 0.0176 0.126 0.0176 0.105 0.0176 0.083 0.0176 0.0619 0.0176 0.0418 0.0176 0.0233 0.0176 0.00687 0.0176-0.00714 0.0176-0.0184 0.0176-0.0265 0.0176-0.0314 0.0176-0.033 0.0176-0.0313 0.0176-0.0265 0.0176-0.0189 0.0176-0.00877 0.0176 0.00343 0.0176 0.0172 0.0176 0.032 0.0176 0.0473 0.0176 0.0624 0.0176 0.0768 0.0176 0.0901 0.0176 0.102 0.0176 0.111 0.0176 0.119 0.0176 0.124 0.0176 0.126 0.0176 0.126 0.0176 0.124 0.0176 0.121 0.0176 0.115 0.0176 0.109 0.0176 0.102 0.0176 0.0946 0.0176 0.088 0.0176 0.0823 0.0176 0.0779 0.0176 0.0752 0.0176 0.0744 0.0176 0.0757 0.0176 0.0793 0.0176 0.0849 0.0176 0.0926 0.0176 0.102 0.0176 0.113 0.0176 0.125 0.0176 0.138 0.0176 0.151 0.0176 0.164 0.0176 0.176 0.0176 0.187 0.0176 0.197 0.0176 0.206 0.0176 0.212 0.0176 0.217 0.0176 0.219 0.0176 0.219 0.0176 0.217 0.0176 0.213 0.0176 0.206 0.0176 0.197 0.0176 0.186 0.0176 0.174 0.0176 0.159 0.0176 0.142 0.0176 0.123 0.0176 0.103 0.0176 0.082 0.0176 0.0592 0.0176 0.0353 0.0176 0.0105 0.0176-0.0152 0.0176-0.0414 0.0176-0.068 0.0176-0.0947 0.0176-0.121 0.0176-0.147 0.0176-0.173 0.0176-0.198 0.0176-0.222 0.0176-0.245 0.0176-0.266 0.0176-0.286 0.0176-0.304 0.0176-0.321 0.0176-0.335 0.0176-0.348 0.0176-0.36 0.0176-0.369 0.0176-0.377 0.0176-0.382 0.0176-0.386 0.0176-0.389 0.0176-0.389v-13l-0.0176-0.389-0.0176-0.389-0.0176-0.386-0.0176-0.382-0.0176-0.377-0.0176-0.369-0.0176-0.36-0.0176-0.348-0.0176-0.335-0.0176-0.321-0.0176-0.304-0.0176-0.286-0.0176-0.266-0.0176-0.245-0.0176-0.222-0.0176-0.198-0.0176-0.173-0.0176-0.147-0.0176-0.121-0.0176-0.0947-0.0176-0.068-0.0176-0.0414-0.0176-0.0152-0.0176 0.0105-0.0176 0.0353-0.0176 0.0592-0.0176 0.082-0.0176 0.103-0.0176 0.123-0.0176 0.142-0.0176 0.159-0.0176 0.174-0.0176 0.186-0.0176 0.197-0.0176 0.206-0.0176 0.213-0.0176 0.217-0.0176 0.219-0.0176 0.219-0.0176 0.217-0.0176 0.212-0.0176 0.206-0.0176 0.197-0.0176 0.187-0.0176 0.176-0.0176 0.164-0.0176 0.151-0.0176 0.138-0.0176 0.125-0.0176 0.113-0.0176 0.102-0.0176 0.0926-0.0176 0.0849-0.0176 0.0793-0.0176 0.0757-0.0176 0.0744-0.0176 0.0752-0.0176 0.0779-0.0176 0.0823-0.0176 0.088-0.0176 0.0946-0.0176 0.102-0.0176 0.109-0.0176 0.115-0.0176 0.121-0.0176 0.124-0.0176 0.126-0.0176 0.126-0.0176 0.124-0.0176 0.119-0.0176 0.111-0.0176 0.102-0.0176 0.0901-0.0176 0.0768-0.0176 0.0624-0.0176 0.0473-0.0176 0.032-0.0176 0.0172-0.0176 0.00343-0.0176-0.00877-0.0176-0.0189-0.0176-0.0265-0.0176-0.0313-0.0176-0.033-0.0176-0.0314-0.0176-0.0265-0.0176-0.0184-0.0176-0.00714-0.0176 0.00687-0.0176 0.0233-0.0176 0.0418-0.0176 0.0619-0.0176 0.083-0.0176 0.105-0.0176 0.126-0.0176 0.147-0.0176 0.167-0.0176 0.186-0.0176 0.202z" clip-path="url(#a)" fill="#1f77b4" fill-opacity=".3"/>
<path d="m266 204v7.32l0.0129 0.266 0.0129 0.272 0.0129 0.278 0.0129 0.284 0.0129 0.289 0.0129 0.294 0.0129 0.297 0.0129 0.299 0.0129 0.3 0.0129 0.299 0.0129 0.297 0.0129 0.292 0.0129 0.286 0.0129 0.277 0.0129 0.266 0.0129 0.252 0.0129 0.237 0.0129 0.22 0.0129 0.202 0.0129 0.182 0.0129 0.161 0.0129 0.14 0.0129 0.119 0.0129 0.0985 0.0129 0.0788 0.0129 0.0604 0.0129 0.0436 0.0129 0.0287 0.0129 0.0158 0.0129 0.00508 0.0129-0.00341 0.0129-0.00969 0.0129-0.0138 0.0129-0.0159 0.0129-0.0161 0.0129-0.0145 0.0129-0.0113 0.0129-0.00663 0.0129-5.65e-4 0.0129 0.0068 0.0129 0.0154 0.0129 0.0252 0.0129 0.0361 0.0129 0.0481 0.0129 0.0611 0.0129 0.0749 0.0129 0.0895 0.0129 0.105 0.0129 0.12 0.0129 0.134 0.0129 0.148 0.0129 0.161 0.0129 0.171 0.0129 0.179 0.0129 0.183 0.0129 0.184 0.0129 0.179 0.0129 0.17 0.0129 0.156 0.0129 0.136 0.0129 0.112 0.0129 0.0822 0.0129 0.0485 0.0129 0.0113 0.0129-0.0286 0.0129-0.07 0.0129-0.112 0.0129-0.153 0.0129-0.193 0.0129-0.23 0.0129-0.263 0.0129-0.292 0.0129-0.315 0.0129-0.334 0.0129-0.348 0.0129-0.356 0.0129-0.36 0.0129-0.36 0.0129-0.355 0.0129-0.348 0.0129-0.338 0.0129-0.327 0.0129-0.315 0.0129-0.302 0.0129-0.29 0.0129-0.278 0.0129-0.267 0.0129-0.257 0.0129-0.248 0.0129-0.241 0.0129-0.235 0.0129-0.23 0.0129-0.226 0.0129-0.223 0.0129-0.221 0.0129-0.219 0.0129-0.218 0.0129-0.217 0.0129-0.215v-6.72l-0.0129-0.215-0.0129-0.217-0.0129-0.218-0.0129-0.219-0.0129-0.221-0.0129-0.223-0.0129-0.226-0.0129-0.23-0.0129-0.235-0.0129-0.241-0.0129-0.248-0.0129-0.257-0.0129-0.267-0.0129-0.278-0.0129-0.29-0.0129-0.302-0.0129-0.315-0.0129-0.327-0.0129-0.338-0.0129-0.348-0.0129-0.355-0.0129-0.36-0.0129-0.36-0.0129-0.356-0.0129-0.348-0.0129-0.334-0.0129-0.315-0.0129-0.292-0.0129-0.263-0.0129-0.23-0.0129-0.193-0.0129-0.153-0.0129-0.112-0.0129-0.07-0.0129-0.0286-0.0129 0.0113-0.0129 0.0485-0.0129 0.0822-0.0129 0.112-0.0129 0.136-0.0129 0.156-0.0129 0.17-0.0129 0.179-0.0129 0.184-0.0129 0.183-0.0129 0.179-0.0129 0.171-0.0129 0.161-0.0129 0.148-0.0129 0.134-0.0129 0.12-0.0129 0.105-0.0129 0.0895-0.0129 0.0749-0.0129 0.0611-0.0129 0.0481-0.0129 0.0361-0.0129 0.0252-0.0129 0.0154-0.0129 0.0068-0.0129-5.65e-4 -0.0129-0.00663-0.0129-0.0113-0.0129-0.0145-0.0129-0.0161-0.0129-0.0159-0.0129-0.0138-0.0129-0.00969-0.0129-0.00341-0.0129 0.00508-0.0129 0.0158-0.0129 0.0287-0.0129 0.0436-0.0129 0.0604-0.0129 0.0788-0.0129 0.0985-0.0129 0.119-0.0129 0.14-0.0129 0.161-0.0129 0.182-0.0129 0.202-0.0129 0.22-0.0129 0.237-0.0129 0.252-0.0129 0.266-0.0129 0.277-0.0129 0.286-0.0129 0.292-0.0129 0.297-0.0129 0.299-0.0129 0.3-0.0129 0.299-0.0129 0.297-0.0129 0.294-0.0129 0.289-0.0129 0.284-0.0129 0.278-0.0129 0.272-0.0129 0.266z" clip-path="url(#a)" fill="#1f77b4" fill-opacity=".3"/>
<path d="m281 176v13.9l0.022 0.156 0.022 0.126 0.022 0.0954 0.022 0.0657 0.022 0.0373 0.022 0.0108 0.022-0.013 0.022-0.0338 0.022-0.0511 0.022-0.0645 0.022-0.0738 0.022-0.0788 0.022-0.0796 0.022-0.0763 0.022-0.069 0.022-0.0581 0.022-0.0439 0.022-0.0269 0.022-0.0076 0.022 0.0135 0.022 0.0358 0.022 0.0587 0.022 0.0817 0.022 0.104 0.022 0.125 0.022 0.145 0.022 0.163 0.022 0.179 0.022 0.191 0.022 0.201 0.022 0.208 0.022 0.212 0.022 0.212 0.022 0.21 0.022 0.204 0.022 0.196 0.022 0.185 0.022 0.172 0.022 0.157 0.022 0.14 0.022 0.123 0.022 0.105 0.022 0.0869 0.022 0.0692 0.022 0.0522 0.022 0.0363 0.022 0.022 0.022 0.00949 0.022-9.05e-4 0.022-0.00897 0.022-0.0145 0.022-0.0175 0.022-0.0178 0.022-0.0155 0.022-0.0106 0.022-0.0033 0.022 0.00619 0.022 0.0176 0.022 0.0306 0.022 0.0449 0.022 0.06 0.022 0.0754 0.022 0.0906 0.022 0.105 0.022 0.119 0.022 0.13 0.022 0.14 0.022 0.146 0.022 0.15 0.022 0.15 0.022 0.146 0.022 0.139 0.022 0.127 0.022 0.111 0.022 0.0907 0.022 0.0667 0.022 0.0392 0.022 0.00845 0.022-0.025 0.022-0.0605 0.022-0.0975 0.022-0.135 0.022-0.174 0.022-0.211 0.022-0.248 0.022-0.282 0.022-0.315 0.022-0.345 0.022-0.371 0.022-0.394 0.022-0.413 0.022-0.428 0.022-0.44 0.022-0.447 0.022-0.451 0.022-0.451 0.022-0.448 0.022-0.442 0.022-0.433v-11.5l-0.022-0.433-0.022-0.442-0.022-0.448-0.022-0.451-0.022-0.451-0.022-0.447-0.022-0.44-0.022-0.428-0.022-0.413-0.022-0.394-0.022-0.371-0.022-0.345-0.022-0.315-0.022-0.282-0.022-0.248-0.022-0.211-0.022-0.174-0.022-0.135-0.022-0.0975-0.022-0.0605-0.022-0.025-0.022 0.00845-0.022 0.0392-0.022 0.0667-0.022 0.0907-0.022 0.111-0.022 0.127-0.022 0.139-0.022 0.146-0.022 0.15-0.022 0.15-0.022 0.146-0.022 0.14-0.022 0.13-0.022 0.119-0.022 0.105-0.022 0.0906-0.022 0.0754-0.022 0.06-0.022 0.0449-0.022 0.0306-0.022 0.0176-0.022 0.00619-0.022-0.0033-0.022-0.0106-0.022-0.0155-0.022-0.0178-0.022-0.0175-0.022-0.0145-0.022-0.00897-0.022-9.05e-4 -0.022 0.00949-0.022 0.022-0.022 0.0363-0.022 0.0522-0.022 0.0692-0.022 0.0869-0.022 0.105-0.022 0.123-0.022 0.14-0.022 0.157-0.022 0.172-0.022 0.185-0.022 0.196-0.022 0.204-0.022 0.21-0.022 0.212-0.022 0.212-0.022 0.208-0.022 0.201-0.022 0.191-0.022 0.179-0.022 0.163-0.022 0.145-0.022 0.125-0.022 0.104-0.022 0.0817-0.022 0.0587-0.022 0.0358-0.022 0.0135-0.022-0.0076-0.022-0.0269-0.022-0.0439-0.022-0.0581-0.022-0.069-0.022-0.0763-0.022-0.0796-0.022-0.0788-0.022-0.0738-0.022-0.0645-0.022-0.0511-0.022-0.0338-0.022-0.013-0.022 0.0108-0.022 0.0373-0.022 0.0657-0.022 0.0954-0.022 0.126-0.022 0.156z" clip-path="url(#a)" fill="#f00" fill-opacity=".3"/>
<path d="m281 154v9.08l0.0302 0.223 0.0302 0.202 0.0302 0.179 0.0302 0.155 0.0302 0.131 0.0302 0.107 0.0302 0.0861 0.0302 0.0677 0.0302 0.0529 0.0302 0.0426 0.0302 0.0372 0.0302 0.037 0.0302 0.042 0.0302 0.0522 0.0302 0.0671 0.0302 0.086 0.0302 0.108 0.0302 0.133 0.0302 0.158 0.0302 0.184 0.0302 0.209 0.0302 0.233 0.0302 0.254 0.0302 0.272 0.0302 0.287 0.0302 0.298 0.0302 0.305 0.0604 0.616 0.0302 0.305 0.0302 0.299 0.0302 0.29 0.0302 0.279 0.0302 0.266 0.0302 0.252 0.0302 0.236 0.0302 0.218 0.0302 0.199 0.0302 0.179 0.0302 0.158 0.0302 0.136 0.0302 0.114 0.0302 0.0916 0.0302 0.0694 0.0302 0.0481 0.0302 0.0282 0.0302 0.0102 0.0302-0.00514 0.0302-0.0175 0.0302-0.0265 0.0302-0.032 0.0302-0.0338 0.0302-0.0323 0.0302-0.0278 0.0302-0.0209 0.0302-0.0123 0.0302-0.00295 0.0302 0.0062 0.0302 0.0141 0.0302 0.0198 0.0302 0.0224 0.0302 0.021 0.0302 0.0151 0.0302 0.0041 0.0302-0.0121 0.0302-0.0334 0.0302-0.0596 0.0302-0.0902 0.0302-0.124 0.0302-0.162 0.0302-0.2 0.0302-0.24 0.0302-0.279 0.0302-0.316 0.0302-0.351 0.0302-0.382 0.0302-0.408 0.0302-0.43 0.0302-0.446 0.0302-0.456 0.0302-0.46 0.0302-0.458 0.0302-0.45 0.0302-0.438 0.0302-0.421 0.0302-0.4 0.0302-0.376 0.0302-0.351 0.0302-0.324 0.0302-0.297 0.0302-0.271 0.0302-0.246 0.0302-0.223 0.0302-0.203 0.0302-0.185 0.0302-0.17 0.0302-0.158 0.0302-0.149 0.0302-0.142v-5.06l-0.0302-0.142-0.0302-0.149-0.0302-0.158-0.0302-0.17-0.0302-0.185-0.0302-0.203-0.0302-0.223-0.0302-0.246-0.0302-0.271-0.0302-0.297-0.0302-0.324-0.0302-0.351-0.0302-0.376-0.0302-0.4-0.0302-0.421-0.0302-0.438-0.0302-0.45-0.0302-0.458-0.0302-0.46-0.0302-0.456-0.0302-0.446-0.0302-0.43-0.0302-0.408-0.0302-0.382-0.0302-0.351-0.0302-0.316-0.0302-0.279-0.0302-0.24-0.0302-0.2-0.0302-0.162-0.0302-0.124-0.0302-0.0902-0.0302-0.0596-0.0302-0.0334-0.0302-0.0121-0.0302 0.0041-0.0302 0.0151-0.0302 0.021-0.0302 0.0224-0.0302 0.0198-0.0302 0.0141-0.0302 0.0062-0.0302-0.00295-0.0302-0.0123-0.0302-0.0209-0.0302-0.0278-0.0302-0.0323-0.0302-0.0338-0.0302-0.032-0.0302-0.0265-0.0302-0.0175-0.0302-0.00514-0.0302 0.0102-0.0302 0.0282-0.0302 0.0481-0.0302 0.0694-0.0302 0.0916-0.0302 0.114-0.0302 0.136-0.0302 0.158-0.0302 0.179-0.0302 0.199-0.0302 0.218-0.0302 0.236-0.0302 0.252-0.0302 0.266-0.0302 0.279-0.0302 0.29-0.0302 0.299-0.0302 0.305-0.0604 0.616-0.0302 0.305-0.0302 0.298-0.0302 0.287-0.0302 0.272-0.0302 0.254-0.0302 0.233-0.0302 0.209-0.0302 0.184-0.0302 0.158-0.0302 0.133-0.0302 0.108-0.0302 0.086-0.0302 0.0671-0.0302 0.0522-0.0302 0.042-0.0302 0.037-0.0302 0.0372-0.0302 0.0426-0.0302 0.0529-0.0302 0.0677-0.0302 0.0861-0.0302 0.107-0.0302 0.131-0.0302 0.155-0.0302 0.179-0.0302 0.202-0.0302 0.223z" clip-path="url(#a)" fill="#1f77b4" fill-opacity=".3"/>
<path d="m281 126v14.1l0.0573 0.472 0.0573 0.471 0.0573 0.467 0.0573 0.458 0.0573 0.445 0.0573 0.428 0.0573 0.406 0.0573 0.38 0.0573 0.351 0.0573 0.318 0.0573 0.281 0.0573 0.242 0.0573 0.2 0.0573 0.157 0.0573 0.112 0.0573 0.0664 0.0573 0.0209 0.0573-0.0241 0.0573-0.068 0.0573-0.11 0.0573-0.15 0.0573-0.187 0.0573-0.221 0.0573-0.251 0.0573-0.278 0.0573-0.3 0.0573-0.318 0.0573-0.332 0.0573-0.341 0.0573-0.346 0.0573-0.347 0.0573-0.344 0.0573-0.337 0.0573-0.326 0.0573-0.312 0.0573-0.295 0.0573-0.275 0.0573-0.253 0.0573-0.229 0.0573-0.204 0.0573-0.177 0.0573-0.15 0.0573-0.122 0.0573-0.0936 0.0573-0.0656 0.0573-0.038 0.0573-0.011 0.0573 0.0153 0.0573 0.0405 0.0573 0.0646 0.0573 0.0873 0.0573 0.109 0.0573 0.129 0.0573 0.147 0.0573 0.163 0.0573 0.178 0.0573 0.191 0.0573 0.202 0.0573 0.211 0.0573 0.217 0.0573 0.222 0.115 0.447 0.0573 0.221 0.0573 0.216 0.0573 0.208 0.0573 0.198 0.0573 0.186 0.0573 0.172 0.0573 0.156 0.0573 0.139 0.0573 0.12 0.0573 0.0995 0.0573 0.0784 0.0573 0.0568 0.0573 0.0349 0.0573 0.013 0.0573-0.00852 0.0573-0.0295 0.0573-0.0498 0.0573-0.0691 0.0573-0.0874 0.0573-0.105 0.0573-0.121 0.0573-0.136 0.0573-0.149 0.0573-0.162 0.0573-0.175 0.0573-0.186 0.0573-0.197 0.0573-0.207 0.0573-0.217 0.0573-0.227 0.0573-0.236 0.0573-0.245 0.0573-0.254 0.0573-0.263 0.0573-0.271 0.0573-0.278v-13l-0.0573-0.278-0.0573-0.271-0.0573-0.263-0.0573-0.254-0.0573-0.245-0.0573-0.236-0.0573-0.227-0.0573-0.217-0.0573-0.207-0.0573-0.197-0.0573-0.186-0.0573-0.175-0.0573-0.162-0.0573-0.149-0.0573-0.136-0.0573-0.121-0.0573-0.105-0.0573-0.0874-0.0573-0.0691-0.0573-0.0498-0.0573-0.0295-0.0573-0.00852-0.0573 0.013-0.0573 0.0349-0.0573 0.0568-0.0573 0.0784-0.0573 0.0995-0.0573 0.12-0.0573 0.139-0.0573 0.156-0.0573 0.172-0.0573 0.186-0.0573 0.198-0.0573 0.208-0.0573 0.216-0.0573 0.221-0.115 0.447-0.0573 0.222-0.0573 0.217-0.0573 0.211-0.0573 0.202-0.0573 0.191-0.0573 0.178-0.0573 0.163-0.0573 0.147-0.0573 0.129-0.0573 0.109-0.0573 0.0873-0.0573 0.0646-0.0573 0.0405-0.0573 0.0153-0.0573-0.011-0.0573-0.038-0.0573-0.0656-0.0573-0.0936-0.0573-0.122-0.0573-0.15-0.0573-0.177-0.0573-0.204-0.0573-0.229-0.0573-0.253-0.0573-0.275-0.0573-0.295-0.0573-0.312-0.0573-0.326-0.0573-0.337-0.0573-0.344-0.0573-0.347-0.0573-0.346-0.0573-0.341-0.0573-0.332-0.0573-0.318-0.0573-0.3-0.0573-0.278-0.0573-0.251-0.0573-0.221-0.0573-0.187-0.0573-0.15-0.0573-0.11-0.0573-0.068-0.0573-0.0241-0.0573 0.0209-0.0573 0.0664-0.0573 0.112-0.0573 0.157-0.0573 0.2-0.0573 0.242-0.0573 0.281-0.0573 0.318-0.0573 0.351-0.0573 0.38-0.0573 0.406-0.0573 0.428-0.0573 0.445-0.0573 0.458-0.0573 0.467-0.0573 0.471-0.0573 0.472z" clip-path="url(#a)" fill="#1f77b4" fill-opacity=".3"/>
<path d="m287 103v11.4l0.0279 0.36 0.0279 0.364 0.0279 0.367 0.0279 0.369 0.0279 0.369 0.0279 0.368 0.0279 0.366 0.0279 0.362 0.0279 0.357 0.0279 0.35 0.0279 0.342 0.0279 0.331 0.0279 0.319 0.0279 0.304 0.0279 0.287 0.0279 0.267 0.0279 0.245 0.0279 0.221 0.0279 0.194 0.0279 0.165 0.0279 0.134 0.0279 0.102 0.0279 0.0683 0.0279 0.0338 0.0279-9.83e-4 0.0279-0.0355 0.0279-0.0691 0.0279-0.101 0.0279-0.131 0.0279-0.159 0.0279-0.183 0.0279-0.204 0.0279-0.22 0.0279-0.233 0.0279-0.24 0.0279-0.244 0.0279-0.243 0.0279-0.237 0.0279-0.227 0.0279-0.214 0.0279-0.198 0.0279-0.179 0.0279-0.158 0.0279-0.136 0.0279-0.113 0.0279-0.0895 0.0279-0.0667 0.0279-0.0447 0.0279-0.0242 0.0279-0.00528 0.0279 0.0116 0.0279 0.0264 0.0279 0.039 0.0279 0.0495 0.0279 0.0578 0.0279 0.0643 0.0279 0.0692 0.0279 0.0726 0.0279 0.0751 0.0279 0.0768 0.0279 0.0781 0.0279 0.0793 0.0279 0.0807 0.0279 0.0824 0.0279 0.0847 0.0279 0.0876 0.0279 0.0912 0.0279 0.0954 0.0279 0.1 0.0279 0.105 0.0279 0.111 0.0279 0.116 0.0279 0.121 0.0279 0.126 0.0279 0.129 0.0279 0.131 0.0279 0.131 0.0279 0.129 0.0279 0.125 0.0279 0.118 0.0279 0.108 0.0279 0.0957 0.0279 0.0798 0.0279 0.0607 0.0279 0.0384 0.0279 0.0132 0.0279-0.0149 0.0279-0.0454 0.0279-0.0781 0.0279-0.112 0.0279-0.148 0.0279-0.184 0.0279-0.221 0.0279-0.256 0.0279-0.291 0.0279-0.324 0.0279-0.354 0.0279-0.382 0.0279-0.406v-17.7l-0.0279-0.406-0.0279-0.382-0.0279-0.354-0.0279-0.324-0.0279-0.291-0.0279-0.256-0.0279-0.221-0.0279-0.184-0.0279-0.148-0.0279-0.112-0.0279-0.0781-0.0279-0.0454-0.0279-0.0149-0.0279 0.0132-0.0279 0.0384-0.0279 0.0607-0.0279 0.0798-0.0279 0.0957-0.0279 0.108-0.0279 0.118-0.0279 0.125-0.0279 0.129-0.0279 0.131-0.0279 0.131-0.0279 0.129-0.0279 0.126-0.0279 0.121-0.0279 0.116-0.0279 0.111-0.0279 0.105-0.0279 0.1-0.0279 0.0954-0.0279 0.0912-0.0279 0.0876-0.0279 0.0847-0.0279 0.0824-0.0279 0.0807-0.0279 0.0793-0.0279 0.0781-0.0279 0.0768-0.0279 0.0751-0.0279 0.0726-0.0279 0.0692-0.0279 0.0643-0.0279 0.0578-0.0279 0.0495-0.0279 0.039-0.0279 0.0264-0.0279 0.0116-0.0279-0.00528-0.0279-0.0242-0.0279-0.0447-0.0279-0.0667-0.0279-0.0895-0.0279-0.113-0.0279-0.136-0.0279-0.158-0.0279-0.179-0.0279-0.198-0.0279-0.214-0.0279-0.227-0.0279-0.237-0.0279-0.243-0.0279-0.244-0.0279-0.24-0.0279-0.233-0.0279-0.22-0.0279-0.204-0.0279-0.183-0.0279-0.159-0.0279-0.131-0.0279-0.101-0.0279-0.0691-0.0279-0.0355-0.0279-9.83e-4 -0.0279 0.0338-0.0279 0.0683-0.0279 0.102-0.0279 0.134-0.0279 0.165-0.0279 0.194-0.0279 0.221-0.0279 0.245-0.0279 0.267-0.0279 0.287-0.0279 0.304-0.0279 0.319-0.0279 0.331-0.0279 0.342-0.0279 0.35-0.0279 0.357-0.0279 0.362-0.0279 0.366-0.0279 0.368-0.0279 0.369-0.0279 0.369-0.0279 0.367-0.0279 0.364-0.0279 0.36z" clip-path="url(#a)" fill="#f00" fill-opacity=".3"/>
<path d="m507 82.5v3.33l0.0483 0.25 0.0483 0.294 0.0483 0.346 0.0483 0.406 0.0483 0.472 0.0483 0.542 0.0483 0.613 0.0483 0.683 0.0483 0.745 0.0483 0.796 0.0483 0.829 0.0483 0.841 0.0483 0.826 0.0483 0.782 0.0483 0.708 0.0483 0.605 0.0483 0.473 0.0483 0.319 0.0483 0.148 0.0483-0.0319 0.0483-0.213 0.0483-0.386 0.0483-0.544 0.0483-0.679 0.0483-0.788 0.0483-0.865 0.0483-0.911 0.0483-0.926 0.0483-0.913 0.0483-0.875 0.0483-0.818 0.0483-0.747 0.0483-0.666 0.0483-0.581 0.0483-0.496 0.0483-0.415 0.0483-0.339 0.0483-0.271 0.0483-0.212 0.0483-0.16 0.0483-0.117 0.0483-0.0805 0.0483-0.0507 0.0483-0.0262 0.0483-0.00617 0.0483 0.0102 0.0483 0.0235 0.0483 0.0342 0.0483 0.0425 0.0483 0.0487 0.0483 0.0528 0.0483 0.0546 0.0483 0.0542 0.0483 0.0516 0.0483 0.0467 0.0483 0.0398 0.0483 0.0311 0.0483 0.0209 0.0483 0.00975 0.0483-0.00189 0.0483-0.0135 0.0483-0.0244 0.0483-0.0342 0.0483-0.0426 0.0483-0.049 0.0483-0.0536 0.0483-0.056 0.0483-0.0566 0.0483-0.0553 0.0483-0.0526 0.0483-0.0487 0.0483-0.0438 0.0483-0.0384 0.0483-0.0326 0.0483-0.0267 0.0483-0.0208 0.0483-0.015 0.0483-0.0093 0.0483-0.00372 0.0483 0.00183 0.0483 0.00739 0.0483 0.013 0.0483 0.0188 0.0483 0.0247 0.0483 0.0306 0.0483 0.0364 0.0483 0.042 0.0483 0.0471 0.0483 0.0514 0.0483 0.0546 0.0483 0.0563 0.0483 0.0564 0.0483 0.0546 0.0483 0.0508 0.0483 0.045 0.0483 0.0373 0.0483 0.0279 0.0483 0.0173 0.0483 0.00585v-1.49l-0.0483 0.00585-0.0483 0.0173-0.0483 0.0279-0.0483 0.0373-0.0483 0.045-0.0483 0.0508-0.0483 0.0546-0.0483 0.0564-0.0483 0.0563-0.0483 0.0546-0.0483 0.0514-0.0483 0.0471-0.0483 0.042-0.0483 0.0364-0.0483 0.0306-0.0483 0.0247-0.0483 0.0188-0.0483 0.013-0.0483 0.00739-0.0483 0.00183-0.0483-0.00372-0.0483-0.0093-0.0483-0.015-0.0483-0.0208-0.0483-0.0267-0.0483-0.0326-0.0483-0.0384-0.0483-0.0438-0.0483-0.0487-0.0483-0.0526-0.0483-0.0553-0.0483-0.0566-0.0483-0.056-0.0483-0.0536-0.0483-0.049-0.0483-0.0426-0.0483-0.0342-0.0483-0.0244-0.0483-0.0135-0.0483-0.00189-0.0483 0.00975-0.0483 0.0209-0.0483 0.0311-0.0483 0.0398-0.0483 0.0467-0.0483 0.0516-0.0483 0.0542-0.0483 0.0546-0.0483 0.0528-0.0483 0.0487-0.0483 0.0425-0.0483 0.0342-0.0483 0.0235-0.0483 0.0102-0.0483-0.00617-0.0483-0.0262-0.0483-0.0507-0.0483-0.0805-0.0483-0.117-0.0483-0.16-0.0483-0.212-0.0483-0.271-0.0483-0.339-0.0483-0.415-0.0483-0.496-0.0483-0.581-0.0483-0.666-0.0483-0.747-0.0483-0.818-0.0483-0.875-0.0483-0.913-0.0483-0.926-0.0483-0.911-0.0483-0.865-0.0483-0.788-0.0483-0.679-0.0483-0.544-0.0483-0.386-0.0483-0.213-0.0483-0.0319-0.0483 0.148-0.0483 0.319-0.0483 0.473-0.0483 0.605-0.0483 0.708-0.0483 0.782-0.0483 0.826-0.0483 0.841-0.0483 0.829-0.0483 0.796-0.0483 0.745-0.0483 0.683-0.0483 0.613-0.0483 0.542-0.0483 0.472-0.0483 0.406-0.0483 0.346-0.0483 0.294-0.0483 0.25z" clip-path="url(#a)" fill="#1f77b4" fill-opacity=".3"/>
<path d="m199 51.6v15.8l3.16 0.338 3.16 0.0789 3.16-0.137 3.16-0.279 3.16-0.334 3.16-0.314 3.16-0.245 3.16-0.166 3.16-0.111 3.16-0.1 3.16-0.135 3.16-0.196 3.16-0.255 3.16-0.276 3.16-0.233 3.16-0.112 3.16 0.0813 3.16 0.328 3.16 0.594 3.16 0.842 3.16 1.03 3.16 1.12 3.16 1.09 3.16 0.933 3.16 0.646 3.16 0.26 3.16-0.182 3.16-0.624 3.16-1.01 3.16-1.3 3.16-1.46 3.16-1.5 3.16-1.42 3.16-1.25 3.16-1.04 3.16-0.816 3.16-0.605 3.16-0.426 3.16-0.284 3.16-0.181 3.16-0.109 3.16-0.0629 3.16-0.0345 3.16-0.018 3.16-0.00899 3.16-0.00428 28.4-0.00335h3.16 3.16 3.16 3.16 3.16 3.16 3.16 3.16 3.16 3.16 3.16 3.16 3.16 3.16 3.16 3.16 3.16l25.3 0.00154 3.16 0.00189 3.16 0.00386 3.16 0.00752 3.16 0.0139 3.16 0.0245 3.16 0.0409 3.16 0.0648 3.16 0.0974 3.16 0.138 3.16 0.186 3.16 0.234 3.16 0.278 3.16 0.306 3.16 0.311 3.16 0.286 3.16 0.229 3.16 0.143 3.16 0.039 3.16-0.0706v-4.67l-3.16-0.0706-3.16 0.039-3.16 0.143-3.16 0.229-3.16 0.286-3.16 0.311-3.16 0.306-3.16 0.278-3.16 0.234-3.16 0.186-3.16 0.138-3.16 0.0974-3.16 0.0648-3.16 0.0409-3.16 0.0245-3.16 0.0139-3.16 0.00752-3.16 0.00386-28.4 0.00343h-3.16-3.16-3.16-3.16-3.16-3.16-3.16-3.16-3.16-3.16-3.16-3.16-3.16-3.16-3.16-3.16-3.16l-25.3-0.00141-3.16-0.00194-3.16-0.00428-3.16-0.00899-3.16-0.018-3.16-0.0345-3.16-0.0629-3.16-0.109-3.16-0.181-3.16-0.284-3.16-0.426-3.16-0.605-3.16-0.816-3.16-1.04-3.16-1.25-3.16-1.42-3.16-1.5-3.16-1.46-3.16-1.3-3.16-1.01-3.16-0.624-3.16-0.182-3.16 0.26-3.16 0.646-3.16 0.933-3.16 1.09-3.16 1.12-3.16 1.03-3.16 0.842-3.16 0.594-3.16 0.328-3.16 0.0813-3.16-0.112-3.16-0.233-3.16-0.276-3.16-0.255-3.16-0.196-3.16-0.135-3.16-0.1-3.16-0.111-3.16-0.166-3.16-0.245-3.16-0.314-3.16-0.334-3.16-0.279-3.16-0.137-3.16 0.0789-3.16 0.338z" clip-path="url(#a)" fill="#1f77b4" fill-opacity=".3"/>
<path d="m189 405v-370" clip-path="url(#a)" fill="none" stroke="#b0b0b0" stroke-linecap="square" stroke-width=".8"/>
<defs>
<path id="z" d="m0 0v3.5" stroke="#000" stroke-width=".8"/>
</defs>
<use x="189.170173" y="405.121635" stroke="#000000" stroke-width=".8" xlink:href="#z"/>
<defs>
<path id="y" d="m0 0v-3.5" stroke="#000" stroke-width=".8"/>
</defs>
<use x="189.170173" y="34.79649" stroke="#000000" stroke-width=".8" xlink:href="#y"/>
<g transform="translate(174 420) scale(.1 -.1)">
<defs>
<path id="b" transform="scale(.0156)" d="m2034 4250q-487 0-733-480-245-479-245-1442 0-959 245-1439 246-480 733-480 491 0 736 480 246 480 246 1439 0 963-246 1442-245 480-736 480zm0 500q785 0 1199-621 414-620 414-1801 0-1178-414-1799-414-620-1199-620-784 0-1198 620-414 621-414 1799 0 1181 414 1801 414 621 1198 621z"/>
<path id="c" transform="scale(.0156)" d="m684 794h660v-794h-660v794z"/>
<path id="o" transform="scale(.0156)" d="m4488 3438-1429-1435 1429-1428-372-378-1435 1434-1434-1434-369 378 1425 1428-1425 1435 369 378 1434-1435 1435 1435 372-378z"/>
</defs>
<use xlink:href="#b"/>
<use x="63.623047" xlink:href="#c"/>
<use x="95.410156" xlink:href="#b"/>
<use x="159.033203" xlink:href="#b"/>
<use x="222.65625" xlink:href="#o"/>
</g>
<g transform="translate(174 25.7) scale(.1 -.1)">
<use xlink:href="#b"/>
<use x="63.623047" xlink:href="#c"/>
<use x="95.410156" xlink:href="#b"/>
<use x="159.033203" xlink:href="#b"/>
<use x="222.65625" xlink:href="#o"/>
</g>
<path d="m253 405v-370" clip-path="url(#a)" fill="none" stroke="#b0b0b0" stroke-linecap="square" stroke-width=".8"/>
<use x="253.182507" y="405.121635" stroke="#000000" stroke-width=".8" xlink:href="#z"/>
<use x="253.182507" y="34.79649" stroke="#000000" stroke-width=".8" xlink:href="#y"/>
<g transform="translate(238 420) scale(.1 -.1)">
<defs>
<path id="p" transform="scale(.0156)" d="m1228 531h2203v-531h-2962v531q359 372 979 998 621 627 780 809 303 340 423 576 121 236 121 464 0 372-261 606-261 235-680 235-297 0-627-103-329-103-704-313v638q381 153 712 231 332 78 607 78 725 0 1156-363 431-362 431-968 0-288-108-546-107-257-392-607-78-91-497-524-418-433-1181-1211z"/>
</defs>
<use xlink:href="#b"/>
<use x="63.623047" xlink:href="#c"/>
<use x="95.410156" xlink:href="#p"/>
<use x="159.033203" xlink:href="#b"/>
<use x="222.65625" xlink:href="#o"/>
</g>
<g transform="translate(238 25.7) scale(.1 -.1)">
<use xlink:href="#b"/>
<use x="63.623047" xlink:href="#c"/>
<use x="95.410156" xlink:href="#p"/>
<use x="159.033203" xlink:href="#b"/>
<use x="222.65625" xlink:href="#o"/>
</g>
<path d="m317 405v-370" clip-path="url(#a)" fill="none" stroke="#b0b0b0" stroke-linecap="square" stroke-width=".8"/>
<use x="317.194841" y="405.121635" stroke="#000000" stroke-width=".8" xlink:href="#z"/>
<use x="317.194841" y="34.79649" stroke="#000000" stroke-width=".8" xlink:href="#y"/>
<g transform="translate(302 420) scale(.1 -.1)">
<defs>
<path id="x" transform="scale(.0156)" d="m2419 4116-1594-2491h1594v2491zm-166 550h794v-3041h666v-525h-666v-1100h-628v1100h-2106v609l1940 2957z"/>
</defs>
<use xlink:href="#b"/>
<use x="63.623047" xlink:href="#c"/>
<use x="95.410156" xlink:href="#x"/>
<use x="159.033203" xlink:href="#b"/>
<use x="222.65625" xlink:href="#o"/>
</g>
<g transform="translate(302 25.7) scale(.1 -.1)">
<use xlink:href="#b"/>
<use x="63.623047" xlink:href="#c"/>
<use x="95.410156" xlink:href="#x"/>
<use x="159.033203" xlink:href="#b"/>
<use x="222.65625" xlink:href="#o"/>
</g>
<path d="m381 405v-370" clip-path="url(#a)" fill="none" stroke="#b0b0b0" stroke-linecap="square" stroke-width=".8"/>
<use x="381.207176" y="405.121635" stroke="#000000" stroke-width=".8" xlink:href="#z"/>
<use x="381.207176" y="34.79649" stroke="#000000" stroke-width=".8" xlink:href="#y"/>
<g transform="translate(366 420) scale(.1 -.1)">
<defs>
<path id="ah" transform="scale(.0156)" d="m2113 2584q-425 0-674-291-248-290-248-796 0-503 248-796 249-292 674-292t673 292q248 293 248 796 0 506-248 796-248 291-673 291zm1253 1979v-575q-238 112-480 171-242 60-480 60-625 0-955-422-329-422-376-1275 184 272 462 417 279 145 613 145 703 0 1111-427 408-426 408-1160 0-719-425-1154-425-434-1131-434-810 0-1238 620-428 621-428 1799 0 1106 525 1764t1409 658q238 0 480-47t505-140z"/>
</defs>
<use xlink:href="#b"/>
<use x="63.623047" xlink:href="#c"/>
<use x="95.410156" xlink:href="#ah"/>
<use x="159.033203" xlink:href="#b"/>
<use x="222.65625" xlink:href="#o"/>
</g>
<g transform="translate(366 25.7) scale(.1 -.1)">
<use xlink:href="#b"/>
<use x="63.623047" xlink:href="#c"/>
<use x="95.410156" xlink:href="#ah"/>
<use x="159.033203" xlink:href="#b"/>
<use x="222.65625" xlink:href="#o"/>
</g>
<path d="m445 405v-370" clip-path="url(#a)" fill="none" stroke="#b0b0b0" stroke-linecap="square" stroke-width=".8"/>
<use x="445.21951" y="405.121635" stroke="#000000" stroke-width=".8" xlink:href="#z"/>
<use x="445.21951" y="34.79649" stroke="#000000" stroke-width=".8" xlink:href="#y"/>
<g transform="translate(430 420) scale(.1 -.1)">
<defs>
<path id="v" transform="scale(.0156)" d="m2034 2216q-450 0-708-241-257-241-257-662 0-422 257-663 258-241 708-241t709 242q260 243 260 662 0 421-258 662-257 241-711 241zm-631 268q-406 100-633 378-226 279-226 679 0 559 398 884 399 325 1092 325 697 0 1094-325t397-884q0-400-227-679-226-278-629-378 456-106 710-416 255-309 255-755 0-679-414-1042-414-362-1186-362-771 0-1186 362-414 363-414 1042 0 446 256 755 257 310 713 416zm-231 997q0-362 226-565 227-203 636-203 407 0 636 203 230 203 230 565 0 363-230 566-229 203-636 203-409 0-636-203-226-203-226-566z"/>
</defs>
<use xlink:href="#b"/>
<use x="63.623047" xlink:href="#c"/>
<use x="95.410156" xlink:href="#v"/>
<use x="159.033203" xlink:href="#b"/>
<use x="222.65625" xlink:href="#o"/>
</g>
<g transform="translate(430 25.7) scale(.1 -.1)">
<use xlink:href="#b"/>
<use x="63.623047" xlink:href="#c"/>
<use x="95.410156" xlink:href="#v"/>
<use x="159.033203" xlink:href="#b"/>
<use x="222.65625" xlink:href="#o"/>
</g>
<path d="m509 405v-370" clip-path="url(#a)" fill="none" stroke="#b0b0b0" stroke-linecap="square" stroke-width=".8"/>
<use x="509.231844" y="405.121635" stroke="#000000" stroke-width=".8" xlink:href="#z"/>
<use x="509.231844" y="34.79649" stroke="#000000" stroke-width=".8" xlink:href="#y"/>
<g transform="translate(494 420) scale(.1 -.1)">
<defs>
<path id="t" transform="scale(.0156)" d="m794 531h1031v3560l-1122-225v575l1116 225h631v-4135h1031v-531h-2687v531z"/>
</defs>
<use xlink:href="#t"/>
<use x="63.623047" xlink:href="#c"/>
<use x="95.410156" xlink:href="#b"/>
<use x="159.033203" xlink:href="#b"/>
<use x="222.65625" xlink:href="#o"/>
</g>
<g transform="translate(494 25.7) scale(.1 -.1)">
<use xlink:href="#t"/>
<use x="63.623047" xlink:href="#c"/>
<use x="95.410156" xlink:href="#b"/>
<use x="159.033203" xlink:href="#b"/>
<use x="222.65625" xlink:href="#o"/>
</g>
<path d="m183 380h344" clip-path="url(#a)" fill="none" stroke="#b0b0b0" stroke-linecap="square" stroke-width=".8"/>
<defs>
<path id="l" d="m0 0h-3.5" stroke="#000" stroke-width=".8"/>
</defs>
<use x="183.429927" y="380.433292" stroke="#000000" stroke-width=".8" xlink:href="#l"/>
<g transform="translate(154 384) scale(.1 -.1)">
<defs>
<path id="e" transform="scale(.0156)" d="m1172 4494v-994h1184v-447h-1184v-1900q0-428 117-550t477-122h590v-481h-590q-666 0-919 248-253 249-253 905v1900h-422v447h422v994h578z"/>
<path id="j" transform="scale(.0156)" d="m1959 3097q-462 0-731-361t-269-989 267-989q268-361 733-361 460 0 728 362 269 363 269 988 0 622-269 986-268 364-728 364zm0 487q750 0 1178-488 429-487 429-1349 0-859-429-1349-428-489-1178-489-753 0-1180 489-426 490-426 1349 0 862 426 1349 427 488 1180 488z"/>
<path id="r" transform="scale(.0156)" d="m2597 2516q453-97 707-404 255-306 255-756 0-690-475-1069-475-378-1350-378-293 0-604 58t-642 174v609q262-153 574-231 313-78 654-78 593 0 904 234t311 681q0 413-289 645-289 233-804 233h-544v519h569q465 0 712 186t247 536q0 359-255 551-254 193-729 193-260 0-557-57-297-56-653-174v562q360 100 674 150t592 50q719 0 1137-327 419-326 419-882 0-388-222-655t-631-370z"/>
</defs>
<use xlink:href="#p"/>
<use x="63.623047" xlink:href="#e"/>
<use x="102.832031" xlink:href="#j"/>
<use x="164.013672" xlink:href="#r"/>
</g>
<path d="m183 356h344" clip-path="url(#a)" fill="none" stroke="#b0b0b0" stroke-linecap="square" stroke-width=".8"/>
<use x="183.429927" y="355.744949" stroke="#000000" stroke-width=".8" xlink:href="#l"/>
<g transform="translate(60 360) scale(.1 -.1)">
<defs>
<path id="q" transform="scale(.0156)" d="m1159 525v-1856h-578v4831h578v-531q182 312 458 463 277 152 661 152 638 0 1036-506 399-506 399-1331t-399-1332q-398-506-1036-506-384 0-661 152-276 152-458 464zm1957 1222q0 634-261 995t-717 361q-457 0-718-361t-261-995 261-995 718-361q456 0 717 361t261 995z"/>
<path id="m" transform="scale(.0156)" d="m2059-325q-243-625-475-815-231-191-618-191h-460v481h338q237 0 368 113 132 112 291 531l103 262-1415 3444h609l1094-2737 1094 2737h609l-1538-3825z"/>
<path id="ab" transform="scale(.0156)" d="m3513 2113v-2113h-575v2094q0 497-194 743-194 247-581 247-466 0-735-297-269-296-269-809v-1978h-578v4863h578v-1907q207 316 486 472 280 156 646 156 603 0 912-373 310-373 310-1098z"/>
<path id="k" transform="scale(.0156)" d="m3513 2113v-2113h-575v2094q0 497-194 743-194 247-581 247-466 0-735-297-269-296-269-809v-1978h-578v3500h578v-544q207 316 486 472 280 156 646 156 603 0 912-373 310-373 310-1098z"/>
<path id="i" transform="scale(.0156)" d="m3263-1063v-446h-3326v446h3326z"/>
<path id="g" transform="scale(.0156)" d="m2834 3397v-544q-243 125-506 187-262 63-544 63-428 0-642-131t-214-394q0-200 153-314t616-217l197-44q612-131 870-370t258-667q0-488-386-773-386-284-1061-284-281 0-586 55t-642 164v594q319-166 628-249 309-82 613-82 406 0 624 139 219 139 219 392 0 234-158 359-157 125-692 241l-200 47q-534 112-772 345-237 233-237 639 0 494 350 762 350 269 994 269 318 0 599-47 282-46 519-140z"/>
<path id="f" transform="scale(.0156)" d="m2194 1759q-697 0-966-159t-269-544q0-306 202-486 202-179 548-179 479 0 768 339t289 901v128h-572zm1147 238v-2e3h-575v531q-197-318-491-470t-719-152q-537 0-855 302-317 302-317 808 0 590 395 890 396 300 1180 300h807v57q0 397-261 614t-733 217q-300 0-585-72-284-72-546-216v532q315 122 612 182 297 61 578 61 760 0 1135-394 375-393 375-1193z"/>
<path id="n" transform="scale(.0156)" d="m2631 2963q-97 56-211 82-114 27-251 27-488 0-749-317t-261-911v-1844h-578v3500h578v-544q182 319 472 473 291 155 707 155 59 0 131-8 72-7 159-23l3-590z"/>
<path id="af" transform="scale(.0156)" d="m544 1381v2119h575v-2097q0-497 193-746 194-248 582-248 465 0 735 297 271 297 271 810v1984h575v-3500h-575v538q-209-319-486-474-276-155-642-155-603 0-916 375-312 375-312 1097zm1447 2203z"/>
<path id="h" transform="scale(.0156)" d="m603 3500h575v-3500h-575v3500zm0 1363h575v-729h-575v729z"/>
<path id="d" transform="scale(.0156)" d="m3597 1894v-281h-2644q38-594 358-905t892-311q331 0 642 81t618 244v-544q-310-131-635-200t-659-69q-838 0-1327 487-489 488-489 1320 0 859 464 1363 464 505 1252 505 706 0 1117-455 411-454 411-1235zm-575 169q-6 471-264 752-258 282-683 282-481 0-770-272t-333-766l2050 4z"/>
</defs>
<use xlink:href="#q"/>
<use x="63.476562" xlink:href="#m"/>
<use x="122.65625" xlink:href="#e"/>
<use x="161.865234" xlink:href="#ab"/>
<use x="225.244141" xlink:href="#j"/>
<use x="286.425781" xlink:href="#k"/>
<use x="349.804688" xlink:href="#i"/>
<use x="399.804688" xlink:href="#g"/>
<use x="451.904297" xlink:href="#e"/>
<use x="491.113281" xlink:href="#f"/>
<use x="552.392578" xlink:href="#n"/>
<use x="593.505859" xlink:href="#e"/>
<use x="632.714844" xlink:href="#af"/>
<use x="696.09375" xlink:href="#q"/>
<use x="759.570312" xlink:href="#i"/>
<use x="809.570312" xlink:href="#k"/>
<use x="872.949219" xlink:href="#j"/>
<use x="934.130859" xlink:href="#i"/>
<use x="984.130859" xlink:href="#g"/>
<use x="1036.230469" xlink:href="#h"/>
<use x="1064.013672" xlink:href="#e"/>
<use x="1103.222656" xlink:href="#d"/>
</g>
<path d="m183 331h344" clip-path="url(#a)" fill="none" stroke="#b0b0b0" stroke-linecap="square" stroke-width=".8"/>
<use x="183.429927" y="331.056606" stroke="#000000" stroke-width=".8" xlink:href="#l"/>
<g transform="translate(142 335) scale(.1 -.1)">
<defs>
<path id="aa" transform="scale(.0156)" d="m3328 2828q216 388 516 572t706 184q547 0 844-383 297-382 297-1088v-2113h-578v2094q0 503-179 746-178 244-543 244-447 0-707-297-259-296-259-809v-1978h-578v2094q0 506-178 748t-550 242q-441 0-701-298-259-298-259-808v-1978h-578v3500h578v-544q197 322 472 475t653 153q382 0 649-194 267-193 395-562z"/>
</defs>
<use xlink:href="#aa"/>
<use x="97.412109" xlink:href="#m"/>
<use x="156.591797" xlink:href="#q"/>
<use x="220.068359" xlink:href="#m"/>
<use x="279.248047" xlink:href="#p"/>
</g>
<path d="m183 306h344" clip-path="url(#a)" fill="none" stroke="#b0b0b0" stroke-linecap="square" stroke-width=".8"/>
<use x="183.429927" y="306.368263" stroke="#000000" stroke-width=".8" xlink:href="#l"/>
<g transform="translate(59.2 310) scale(.1 -.1)">
<defs>
<path id="s" transform="scale(.0156)" d="m3122 3366v-538q-244 135-489 202t-495 67q-560 0-870-355-309-354-309-995t309-996q310-354 870-354 250 0 495 67t489 202v-532q-241-112-499-168-257-57-548-57-791 0-1257 497-465 497-465 1341 0 856 470 1346 471 491 1290 491 265 0 518-55 253-54 491-163z"/>
<path id="u" transform="scale(.0156)" d="m2906 1791q0 625-258 968-257 344-723 344-462 0-720-344-258-343-258-968 0-622 258-966t720-344q466 0 723 344 258 344 258 966zm575-1357q0-893-397-1329-396-436-1215-436-303 0-572 45t-522 139v559q253-137 500-202 247-66 503-66 566 0 847 295t281 892v285q-178-310-456-463t-666-153q-643 0-1037 490-394 491-394 1301 0 812 394 1302 394 491 1037 491 388 0 666-153t456-462v531h575v-3066z"/>
</defs>
<use xlink:href="#f"/>
<use x="61.279297" xlink:href="#g"/>
<use x="113.378906" xlink:href="#m"/>
<use x="172.558594" xlink:href="#k"/>
<use x="235.9375" xlink:href="#s"/>
<use x="290.917969" xlink:href="#i"/>
<use x="340.917969" xlink:href="#e"/>
<use x="380.126953" xlink:href="#n"/>
<use x="418.990234" xlink:href="#d"/>
<use x="480.513672" xlink:href="#d"/>
<use x="542.037109" xlink:href="#i"/>
<use x="592.037109" xlink:href="#d"/>
<use x="653.560547" xlink:href="#f"/>
<use x="714.839844" xlink:href="#u"/>
<use x="778.316406" xlink:href="#d"/>
<use x="839.839844" xlink:href="#n"/>
<use x="880.953125" xlink:href="#i"/>
<use x="930.953125" xlink:href="#h"/>
<use x="958.736328" xlink:href="#j"/>
<use x="1019.917969" xlink:href="#i"/>
<use x="1069.917969" xlink:href="#e"/>
<use x="1109.126953" xlink:href="#u"/>
</g>
<path d="m183 282h344" clip-path="url(#a)" fill="none" stroke="#b0b0b0" stroke-linecap="square" stroke-width=".8"/>
<use x="183.429927" y="281.67992" stroke="#000000" stroke-width=".8" xlink:href="#l"/>
<g transform="translate(75.2 285) scale(.1 -.1)">
<defs>
<path id="ao" transform="scale(.0156)" d="m269 3500h575l719-2731 715 2731h678l719-2731 716 2731h575l-916-3500h-678l-753 2869-756-2869h-679l-915 3500z"/>
<path id="ag" transform="scale(.0156)" d="m3116 1747q0 634-261 995t-717 361q-457 0-718-361t-261-995 261-995 718-361q456 0 717 361t261 995zm-1957 1222q182 312 458 463 277 152 661 152 638 0 1036-506 399-506 399-1331t-399-1332q-398-506-1036-506-384 0-661 152-276 152-458 464v-525h-578v4863h578v-1894z"/>
<path id="ap" transform="scale(.0156)" d="m581 4863h578v-2872l1716 1509h734l-1856-1637 1935-1863h-750l-1779 1709v-1709h-578v4863z"/>
</defs>
<use xlink:href="#f"/>
<use x="61.279297" xlink:href="#g"/>
<use x="113.378906" xlink:href="#m"/>
<use x="172.558594" xlink:href="#k"/>
<use x="235.9375" xlink:href="#s"/>
<use x="290.917969" xlink:href="#h"/>
<use x="318.701172" xlink:href="#j"/>
<use x="379.882812" xlink:href="#i"/>
<use x="429.882812" xlink:href="#ao"/>
<use x="511.669922" xlink:href="#d"/>
<use x="573.193359" xlink:href="#ag"/>
<use x="636.669922" xlink:href="#g"/>
<use x="688.769531" xlink:href="#j"/>
<use x="749.951172" xlink:href="#s"/>
<use x="804.931641" xlink:href="#ap"/>
<use x="859.216797" xlink:href="#d"/>
<use x="920.740234" xlink:href="#e"/>
<use x="959.949219" xlink:href="#g"/>
</g>
<path d="m183 257h344" clip-path="url(#a)" fill="none" stroke="#b0b0b0" stroke-linecap="square" stroke-width=".8"/>
<use x="183.429927" y="256.991577" stroke="#000000" stroke-width=".8" xlink:href="#l"/>
<g transform="translate(3 261) scale(.1 -.1)">
<defs>
<path id="an" transform="scale(.0156)" d="m353 3500h2731v-525l-2162-2516h2162v-459h-2809v525l2163 2516h-2085v459z"/>
</defs>
<use xlink:href="#f"/>
<use x="61.279297" xlink:href="#g"/>
<use x="113.378906" xlink:href="#m"/>
<use x="172.558594" xlink:href="#k"/>
<use x="235.9375" xlink:href="#s"/>
<use x="290.917969" xlink:href="#i"/>
<use x="340.917969" xlink:href="#e"/>
<use x="380.126953" xlink:href="#n"/>
<use x="418.990234" xlink:href="#d"/>
<use x="480.513672" xlink:href="#d"/>
<use x="542.037109" xlink:href="#i"/>
<use x="592.037109" xlink:href="#d"/>
<use x="653.560547" xlink:href="#f"/>
<use x="714.839844" xlink:href="#u"/>
<use x="778.316406" xlink:href="#d"/>
<use x="839.839844" xlink:href="#n"/>
<use x="880.953125" xlink:href="#i"/>
<use x="930.953125" xlink:href="#aa"/>
<use x="1028.365234" xlink:href="#d"/>
<use x="1089.888672" xlink:href="#aa"/>
<use x="1187.300781" xlink:href="#j"/>
<use x="1248.482422" xlink:href="#h"/>
<use x="1276.265625" xlink:href="#an"/>
<use x="1328.755859" xlink:href="#f"/>
<use x="1390.035156" xlink:href="#e"/>
<use x="1429.244141" xlink:href="#h"/>
<use x="1457.027344" xlink:href="#j"/>
<use x="1518.208984" xlink:href="#k"/>
<use x="1581.587891" xlink:href="#i"/>
<use x="1631.587891" xlink:href="#e"/>
<use x="1670.796875" xlink:href="#u"/>
</g>
<path d="m183 232h344" clip-path="url(#a)" fill="none" stroke="#b0b0b0" stroke-linecap="square" stroke-width=".8"/>
<use x="183.429927" y="232.303234" stroke="#000000" stroke-width=".8" xlink:href="#l"/>
<g transform="translate(135 236) scale(.1 -.1)">
<defs>
<path id="ad" transform="scale(.0156)" d="m603 4863h575v-4863h-575v4863z"/>
<path id="w" transform="scale(.0156)" d="m691 4666h2478v-532h-1900v-1143q137 47 274 70 138 23 276 23 781 0 1237-428 457-428 457-1159 0-753-469-1171-469-417-1322-417-294 0-599 50-304 50-629 150v635q281-153 581-228t634-75q541 0 856 284 316 284 316 772 0 487-316 771-315 285-856 285-253 0-505-56-251-56-513-175v2344z"/>
</defs>
<use xlink:href="#ab"/>
<use x="63.378906" xlink:href="#e"/>
<use x="102.587891" xlink:href="#aa"/>
<use x="200" xlink:href="#ad"/>
<use x="227.783203" xlink:href="#w"/>
<use x="291.40625" xlink:href="#ad"/>
<use x="319.189453" xlink:href="#h"/>
<use x="346.972656" xlink:href="#ag"/>
</g>
<path d="m183 208h344" clip-path="url(#a)" fill="none" stroke="#b0b0b0" stroke-linecap="square" stroke-width=".8"/>
<use x="183.429927" y="207.614891" stroke="#000000" stroke-width=".8" xlink:href="#l"/>
<g transform="translate(88.3 211) scale(.1 -.1)">
<use xlink:href="#f"/>
<use x="61.279297" xlink:href="#g"/>
<use x="113.378906" xlink:href="#m"/>
<use x="172.558594" xlink:href="#k"/>
<use x="235.9375" xlink:href="#s"/>
<use x="290.917969" xlink:href="#i"/>
<use x="340.917969" xlink:href="#e"/>
<use x="380.126953" xlink:href="#n"/>
<use x="418.990234" xlink:href="#d"/>
<use x="480.513672" xlink:href="#d"/>
<use x="542.037109" xlink:href="#i"/>
<use x="592.037109" xlink:href="#d"/>
<use x="653.560547" xlink:href="#f"/>
<use x="714.839844" xlink:href="#u"/>
<use x="778.316406" xlink:href="#d"/>
<use x="839.839844" xlink:href="#n"/>
</g>
<path d="m183 183h344" clip-path="url(#a)" fill="none" stroke="#b0b0b0" stroke-linecap="square" stroke-width=".8"/>
<use x="183.429927" y="182.926548" stroke="#000000" stroke-width=".8" xlink:href="#l"/>
<g transform="translate(128 187) scale(.1 -.1)">
<defs>
<path id="aj" transform="scale(.0156)" d="m2906 2969v1894h575v-4863h-575v525q-181-312-458-464-276-152-664-152-634 0-1033 506-398 507-398 1332t398 1331q399 506 1033 506 388 0 664-152 277-151 458-463zm-1959-1222q0-634 261-995t717-361 718 361q263 361 263 995t-263 995q-262 361-718 361t-717-361-261-995z"/>
</defs>
<use xlink:href="#aj"/>
<use x="63.476562" xlink:href="#d"/>
<use x="125" xlink:href="#d"/>
<use x="186.523438" xlink:href="#q"/>
<use x="250" xlink:href="#s"/>
<use x="304.980469" xlink:href="#j"/>
<use x="366.162109" xlink:href="#q"/>
<use x="429.638672" xlink:href="#m"/>
</g>
<path d="m183 158h344" clip-path="url(#a)" fill="none" stroke="#b0b0b0" stroke-linecap="square" stroke-width=".8"/>
<use x="183.429927" y="158.238205" stroke="#000000" stroke-width=".8" xlink:href="#l"/>
<g transform="translate(142 162) scale(.1 -.1)">
<use xlink:href="#q"/>
<use x="63.476562" xlink:href="#f"/>
<use x="124.755859" xlink:href="#e"/>
<use x="163.964844" xlink:href="#ab"/>
<use x="227.34375" xlink:href="#ad"/>
<use x="255.126953" xlink:href="#h"/>
<use x="282.910156" xlink:href="#ag"/>
</g>
<path d="m183 134h344" clip-path="url(#a)" fill="none" stroke="#b0b0b0" stroke-linecap="square" stroke-width=".8"/>
<use x="183.429927" y="133.549862" stroke="#000000" stroke-width=".8" xlink:href="#l"/>
<g transform="translate(110 137) scale(.1 -.1)">
<use xlink:href="#s"/>
<use x="54.980469" xlink:href="#n"/>
<use x="96.09375" xlink:href="#m"/>
<use x="155.273438" xlink:href="#q"/>
<use x="218.75" xlink:href="#e"/>
<use x="257.958984" xlink:href="#j"/>
<use x="319.140625" xlink:href="#i"/>
<use x="369.140625" xlink:href="#q"/>
<use x="432.617188" xlink:href="#m"/>
<use x="491.796875" xlink:href="#f"/>
<use x="553.076172" xlink:href="#d"/>
<use x="614.599609" xlink:href="#g"/>
</g>
<path d="m183 109h344" clip-path="url(#a)" fill="none" stroke="#b0b0b0" stroke-linecap="square" stroke-width=".8"/>
<use x="183.429927" y="108.861519" stroke="#000000" stroke-width=".8" xlink:href="#l"/>
<g transform="translate(136 113) scale(.1 -.1)">
<use xlink:href="#n"/>
<use x="41.113281" xlink:href="#h"/>
<use x="68.896484" xlink:href="#s"/>
<use x="123.876953" xlink:href="#ab"/>
<use x="187.255859" xlink:href="#f"/>
<use x="248.535156" xlink:href="#n"/>
<use x="287.898438" xlink:href="#aj"/>
<use x="351.375" xlink:href="#g"/>
</g>
<path d="m183 84.2h344" clip-path="url(#a)" fill="none" stroke="#b0b0b0" stroke-linecap="square" stroke-width=".8"/>
<use x="183.429927" y="84.173176" stroke="#000000" stroke-width=".8" xlink:href="#l"/>
<g transform="translate(100 88) scale(.1 -.1)">
<use xlink:href="#q"/>
<use x="63.476562" xlink:href="#m"/>
<use x="122.65625" xlink:href="#e"/>
<use x="161.865234" xlink:href="#ab"/>
<use x="225.244141" xlink:href="#j"/>
<use x="286.425781" xlink:href="#k"/>
<use x="349.804688" xlink:href="#i"/>
<use x="399.804688" xlink:href="#g"/>
<use x="451.904297" xlink:href="#e"/>
<use x="491.113281" xlink:href="#f"/>
<use x="552.392578" xlink:href="#n"/>
<use x="593.505859" xlink:href="#e"/>
<use x="632.714844" xlink:href="#af"/>
<use x="696.09375" xlink:href="#q"/>
</g>
<path d="m183 59.5h344" clip-path="url(#a)" fill="none" stroke="#b0b0b0" stroke-linecap="square" stroke-width=".8"/>
<use x="183.429927" y="59.484833" stroke="#000000" stroke-width=".8" xlink:href="#l"/>
<g transform="translate(158 63.3) scale(.1 -.1)">
<defs>
<path id="ar" transform="scale(.0156)" d="m2188 4044-857-2322h1716l-859 2322zm-357 622h716l1778-4666h-656l-425 1197h-2103l-425-1197h-666l1781 4666z"/>
<path id="ak" transform="scale(.0156)" d="m628 4666h631v-4135h2272v-531h-2903v4666z"/>
</defs>
<use xlink:href="#ar"/>
<use x="68.408203" xlink:href="#ak"/>
<use x="124.121094" xlink:href="#ak"/>
</g>
<path d="m509 405v-370" clip-path="url(#a)" fill="none" stroke="#1f77b4" stroke-linecap="square" stroke-width="1.5"/>
<g fill="none" stroke="#1f77b4" stroke-width="1.5">
<path d="m509 387v-12.3" clip-path="url(#a)"/>
<path d="m509 362v-12.3" clip-path="url(#a)"/>
<path d="m199 337v-12.3" clip-path="url(#a)"/>
<path d="m202 313v-12.3" clip-path="url(#a)"/>
<path d="m205 288v-12.3" clip-path="url(#a)"/>
<path d="m233 263v-12.3" clip-path="url(#a)"/>
<path d="m236 238v-12.3" clip-path="url(#a)"/>
<path d="m267 214v-12.3" clip-path="url(#a)"/>
<path d="m282 189v-12.3" clip-path="url(#a)"/>
<path d="m282 164v-12.3" clip-path="url(#a)"/>
<path d="m284 140v-12.3" clip-path="url(#a)"/>
<path d="m289 115v-12.3" clip-path="url(#a)"/>
<path d="m508 90.3v-12.3" clip-path="url(#a)"/>
<path d="m270 65.7v-12.3" clip-path="url(#a)"/>
</g>
<g fill="none" stroke="#1f77b4" stroke-width="1.5">
<path d="m509 387v-12.3" clip-path="url(#a)"/>
<path d="m509 362v-12.3" clip-path="url(#a)"/>
<path d="m200 337v-12.3" clip-path="url(#a)"/>
<path d="m202 313v-12.3" clip-path="url(#a)"/>
<path d="m208 288v-12.3" clip-path="url(#a)"/>
<path d="m233 263v-12.3" clip-path="url(#a)"/>
<path d="m237 238v-12.3" clip-path="url(#a)"/>
<path d="m267 214v-12.3" clip-path="url(#a)"/>
<path d="m283 189v-12.3" clip-path="url(#a)"/>
<path d="m284 164v-12.3" clip-path="url(#a)"/>
<path d="m287 140v-12.3" clip-path="url(#a)"/>
<path d="m290 115v-12.3" clip-path="url(#a)"/>
<path d="m512 90.3v-12.3" clip-path="url(#a)"/>
<path d="m512 65.7v-12.3" clip-path="url(#a)"/>
</g>
<g fill="none" stroke="#1f77b4" stroke-width="1.5">
<path d="m509 387v-12.3" clip-path="url(#a)"/>
<path d="m509 362v-12.3" clip-path="url(#a)"/>
<path d="m199 337v-12.3" clip-path="url(#a)"/>
<path d="m202 313v-12.3" clip-path="url(#a)"/>
<path d="m203 288v-12.3" clip-path="url(#a)"/>
<path d="m233 263v-12.3" clip-path="url(#a)"/>
<path d="m235 238v-12.3" clip-path="url(#a)"/>
<path d="m266 214v-12.3" clip-path="url(#a)"/>
<path d="m281 189v-12.3" clip-path="url(#a)"/>
<path d="m281 164v-12.3" clip-path="url(#a)"/>
<path d="m281 140v-12.3" clip-path="url(#a)"/>
<path d="m287 115v-12.3" clip-path="url(#a)"/>
<path d="m507 90.3v-12.3" clip-path="url(#a)"/>
<path d="m199 65.7v-12.3" clip-path="url(#a)"/>
</g>
<g fill="none" stroke="#1f77b4" stroke-width="1.5">
<path d="m509 380" clip-path="url(#a)"/>
<path d="m509 356" clip-path="url(#a)"/>
<path d="m199 331h0.474" clip-path="url(#a)"/>
<path d="m202 306h0.111" clip-path="url(#a)"/>
<path d="m203 282h4.97" clip-path="url(#a)"/>
<path d="m233 257h0.297" clip-path="url(#a)"/>
<path d="m235 232h1.74" clip-path="url(#a)"/>
<path d="m266 208h1.27" clip-path="url(#a)"/>
<path d="m281 183h2.18" clip-path="url(#a)"/>
<path d="m281 158h2.99" clip-path="url(#a)"/>
<path d="m281 134h5.67" clip-path="url(#a)"/>
<path d="m287 109h2.76" clip-path="url(#a)"/>
<path d="m507 84.2h4.78" clip-path="url(#a)"/>
<path d="m199 59.5h313" clip-path="url(#a)"/>
</g>
<g fill="none" stroke="#1f77b4" stroke-dasharray="1.5,2.475" stroke-width="1.5">
<path d="m509 387v-12.3" clip-path="url(#a)"/>
<path d="m509 387v-12.3" clip-path="url(#a)"/>
<path d="m509 362v-12.3" clip-path="url(#a)"/>
<path d="m509 362v-12.3" clip-path="url(#a)"/>
<path d="m199 337v-12.3" clip-path="url(#a)"/>
<path d="m200 337v-12.3" clip-path="url(#a)"/>
<path d="m202 313v-12.3" clip-path="url(#a)"/>
<path d="m202 313v-12.3" clip-path="url(#a)"/>
<path d="m203 288v-12.3" clip-path="url(#a)"/>
<path d="m208 288v-12.3" clip-path="url(#a)"/>
<path d="m233 263v-12.3" clip-path="url(#a)"/>
<path d="m233 263v-12.3" clip-path="url(#a)"/>
<path d="m235 238v-12.3" clip-path="url(#a)"/>
<path d="m236 238v-12.3" clip-path="url(#a)"/>
<path d="m266 214v-12.3" clip-path="url(#a)"/>
<path d="m267 214v-12.3" clip-path="url(#a)"/>
<path d="m281 189v-12.3" clip-path="url(#a)"/>
<path d="m283 189v-12.3" clip-path="url(#a)"/>
<path d="m281 164v-12.3" clip-path="url(#a)"/>
<path d="m283 164v-12.3" clip-path="url(#a)"/>
<path d="m282 140v-12.3" clip-path="url(#a)"/>
<path d="m286 140v-12.3" clip-path="url(#a)"/>
<path d="m287 115v-12.3" clip-path="url(#a)"/>
<path d="m290 115v-12.3" clip-path="url(#a)"/>
<path d="m508 90.3v-12.3" clip-path="url(#a)"/>
<path d="m508 90.3v-12.3" clip-path="url(#a)"/>
<path d="m202 65.7v-12.3" clip-path="url(#a)"/>
<path d="m290 65.7v-12.3" clip-path="url(#a)"/>
</g>
<path d="m183 405v-370" fill="none" stroke="#000" stroke-linecap="square" stroke-width=".8"/>
<path d="m527 405v-370" fill="none" stroke="#000" stroke-linecap="square" stroke-width=".8"/>
<path d="m183 405h344" fill="none" stroke="#000" stroke-linecap="square" stroke-width=".8"/>
<path d="m183 34.8h344" fill="none" stroke="#000" stroke-linecap="square" stroke-width=".8"/>
<g transform="translate(512 380) scale(.1 -.1)">
<defs>
<path id="ae" transform="scale(.0156)" d="m2375 4863v-479h-550q-309 0-430-125-120-125-120-450v-309h947v-447h-947v-3053h-578v3053h-550v447h550v244q0 584 272 851 272 268 862 268h544z"/>
</defs>
<use xlink:href="#h"/>
<use x="27.783203" xlink:href="#k"/>
<use x="91.162109" xlink:href="#g"/>
<use x="143.261719" xlink:href="#h"/>
<use x="171.044922" xlink:href="#u"/>
<use x="234.521484" xlink:href="#k"/>
<use x="297.900391" xlink:href="#h"/>
<use x="325.683594" xlink:href="#ae"/>
<use x="360.888672" xlink:href="#h"/>
<use x="388.671875" xlink:href="#s"/>
<use x="443.652344" xlink:href="#f"/>
<use x="504.931641" xlink:href="#k"/>
<use x="568.310547" xlink:href="#e"/>
</g>
<g transform="translate(512 356) scale(.1 -.1)">
<use xlink:href="#h"/>
<use x="27.783203" xlink:href="#k"/>
<use x="91.162109" xlink:href="#g"/>
<use x="143.261719" xlink:href="#h"/>
<use x="171.044922" xlink:href="#u"/>
<use x="234.521484" xlink:href="#k"/>
<use x="297.900391" xlink:href="#h"/>
<use x="325.683594" xlink:href="#ae"/>
<use x="360.888672" xlink:href="#h"/>
<use x="388.671875" xlink:href="#s"/>
<use x="443.652344" xlink:href="#f"/>
<use x="504.931641" xlink:href="#k"/>
<use x="568.310547" xlink:href="#e"/>
</g>
<g transform="translate(199 324) scale(.08 -.08)">
<use xlink:href="#b"/>
<use x="63.623047" xlink:href="#c"/>
<use x="95.410156" xlink:href="#b"/>
<use x="159.033203" xlink:href="#r"/>
<use x="222.65625" xlink:href="#t"/>
<use x="286.279297" xlink:href="#v"/>
</g>
<g transform="translate(202 299) scale(.08 -.08)">
<defs>
<path id="al" transform="scale(.0156)" d="m525 4666h3e3v-269l-1694-4397h-659l1594 4134h-2241v532z"/>
</defs>
<use xlink:href="#b"/>
<use x="63.623047" xlink:href="#c"/>
<use x="95.410156" xlink:href="#b"/>
<use x="159.033203" xlink:href="#x"/>
<use x="222.65625" xlink:href="#b"/>
<use x="286.279297" xlink:href="#al"/>
</g>
<g transform="translate(205 274) scale(.08 -.08)">
<use xlink:href="#b"/>
<use x="63.623047" xlink:href="#c"/>
<use x="95.410156" xlink:href="#b"/>
<use x="159.033203" xlink:href="#x"/>
<use x="222.65625" xlink:href="#v"/>
<use x="286.279297" xlink:href="#w"/>
</g>
<g transform="translate(233 250) scale(.08 -.08)">
<use xlink:href="#b"/>
<use x="63.623047" xlink:href="#c"/>
<use x="95.410156" xlink:href="#t"/>
<use x="159.033203" xlink:href="#r"/>
<use x="222.65625" xlink:href="#v"/>
<use x="286.279297" xlink:href="#t"/>
</g>
<g transform="translate(236 225) scale(.08 -.08)">
<use xlink:href="#b"/>
<use x="63.623047" xlink:href="#c"/>
<use x="95.410156" xlink:href="#t"/>
<use x="159.033203" xlink:href="#x"/>
<use x="222.65625" xlink:href="#w"/>
<use x="286.279297" xlink:href="#v"/>
</g>
<g transform="translate(267 200) scale(.08 -.08)">
<use xlink:href="#b"/>
<use x="63.623047" xlink:href="#c"/>
<use x="95.410156" xlink:href="#p"/>
<use x="159.033203" xlink:href="#x"/>
<use x="222.65625" xlink:href="#p"/>
<use x="286.279297" xlink:href="#x"/>
</g>
<g transform="translate(282 176) scale(.08 -.08)">
<defs>
<path id="ac" transform="scale(.0156)" d="m703 97v575q238-113 481-172 244-59 479-59 625 0 954 420 330 420 377 1277-181-269-460-413-278-144-615-144-700 0-1108 423-408 424-408 1159 0 718 425 1152 425 435 1131 435 810 0 1236-621 427-620 427-1801 0-1103-524-1761-523-658-1407-658-238 0-482 47-243 47-506 141zm1256 1978q425 0 673 290 249 291 249 798 0 503-249 795-248 292-673 292t-673-292-248-795q0-507 248-798 248-290 673-290z"/>
</defs>
<use xlink:href="#b"/>
<use x="63.623047" xlink:href="#c"/>
<use x="95.410156" xlink:href="#p"/>
<use x="159.033203" xlink:href="#v"/>
<use x="222.65625" xlink:href="#ac"/>
<use x="286.279297" xlink:href="#w"/>
</g>
<g transform="translate(282 151) scale(.08 -.08)">
<use xlink:href="#b"/>
<use x="63.623047" xlink:href="#c"/>
<use x="95.410156" xlink:href="#p"/>
<use x="159.033203" xlink:href="#ac"/>
<use x="222.65625" xlink:href="#b"/>
<use x="286.279297" xlink:href="#b"/>
</g>
<g transform="translate(284 126) scale(.08 -.08)">
<use xlink:href="#b"/>
<use x="63.623047" xlink:href="#c"/>
<use x="95.410156" xlink:href="#p"/>
<use x="159.033203" xlink:href="#ac"/>
<use x="222.65625" xlink:href="#w"/>
<use x="286.279297" xlink:href="#p"/>
</g>
<g transform="translate(289 101) scale(.08 -.08)">
<use xlink:href="#b"/>
<use x="63.623047" xlink:href="#c"/>
<use x="95.410156" xlink:href="#r"/>
<use x="159.033203" xlink:href="#t"/>
<use x="222.65625" xlink:href="#b"/>
<use x="286.279297" xlink:href="#v"/>
</g>
<g transform="translate(508 76.8) scale(.08 -.08)">
<use xlink:href="#b"/>
<use x="63.623047" xlink:href="#c"/>
<use x="95.410156" xlink:href="#ac"/>
<use x="159.033203" xlink:href="#ac"/>
<use x="222.65625" xlink:href="#ah"/>
<use x="286.279297" xlink:href="#p"/>
</g>
<g transform="translate(270 52.1) scale(.08 -.08)">
<use xlink:href="#b"/>
<use x="63.623047" xlink:href="#c"/>
<use x="95.410156" xlink:href="#p"/>
<use x="159.033203" xlink:href="#w"/>
<use x="222.65625" xlink:href="#t"/>
<use x="286.279297" xlink:href="#al"/>
</g>
<g transform="translate(519 34.8) scale(.1 -.1)">
<defs>
<path id="as" transform="scale(.0156)" d="m8863 2147v-281l-1229-1228-375 375 729 728h-7622v531h7622l-729 728 375 375 1229-1228z"/>
</defs>
<use xlink:href="#aa"/>
<use x="97.412109" xlink:href="#j"/>
<use x="158.59375" xlink:href="#n"/>
<use x="197.457031" xlink:href="#d"/>
<use x="258.980469" xlink:href="#DejaVuSans-20"/>
<use x="290.767578" xlink:href="#as"/>
</g>
<g transform="translate(462 34.8) scale(.1 -.1)">
<defs>
<path id="at" transform="scale(.0156)" d="m313 1866v281l1228 1228 375-375-728-728h7621v-531h-7621l728-728-375-375-1228 1228z"/>
</defs>
<use xlink:href="#at"/>
<use x="143.359375" xlink:href="#DejaVuSans-20"/>
<use x="175.146484" xlink:href="#ad"/>
<use x="202.929688" xlink:href="#d"/>
<use x="264.453125" xlink:href="#g"/>
<use x="316.552734" xlink:href="#g"/>
</g>
<g transform="translate(182 12.1) scale(.12 -.12)">
<defs>
<path id="aq" transform="scale(.0156)" d="m628 4666h941l1190-3175 1197 3175h941v-4666h-616v4097l-1203-3200h-634l-1203 3200v-4097h-613v4666z"/>
<path id="am" transform="scale(.0156)" d="m313 2009h1684v-512h-1684v512z"/>
<path id="ai" transform="scale(.0156)" d="m191 3500h609l1094-2937 1094 2937h609l-1313-3500h-781l-1312 3500z"/>
</defs>
<use xlink:href="#aq"/>
<use x="86.279297" xlink:href="#d"/>
<use x="147.802734" xlink:href="#aa"/>
<use x="245.214844" xlink:href="#j"/>
<use x="306.396484" xlink:href="#n"/>
<use x="347.509766" xlink:href="#m"/>
<use x="406.689453" xlink:href="#DejaVuSans-20"/>
<use x="438.476562" xlink:href="#af"/>
<use x="501.855469" xlink:href="#g"/>
<use x="553.955078" xlink:href="#f"/>
<use x="615.234375" xlink:href="#u"/>
<use x="678.710938" xlink:href="#d"/>
<use x="740.234375" xlink:href="#DejaVuSans-20"/>
<use x="772.021484" xlink:href="#j"/>
<use x="833.203125" xlink:href="#ae"/>
<use x="868.408203" xlink:href="#DejaVuSans-20"/>
<use x="900.195312" xlink:href="#q"/>
<use x="963.671875" xlink:href="#m"/>
<use x="1022.851562" xlink:href="#e"/>
<use x="1062.060547" xlink:href="#ab"/>
<use x="1125.439453" xlink:href="#j"/>
<use x="1186.621094" xlink:href="#k"/>
<use x="1250" xlink:href="#am"/>
<use x="1283.458984" xlink:href="#ai"/>
<use x="1342.638672" xlink:href="#r"/>
<use x="1406.261719" xlink:href="#c"/>
<use x="1438.048828" xlink:href="#t"/>
<use x="1501.671875" xlink:href="#r"/>
<use x="1565.294922" xlink:href="#c"/>
<use x="1597.082031" xlink:href="#b"/>
<use x="1660.705078" xlink:href="#f"/>
<use x="1721.984375" xlink:href="#r"/>
<use x="1785.607422" xlink:href="#am"/>
<use x="1821.691406" xlink:href="#ae"/>
<use x="1856.896484" xlink:href="#b"/>
<use x="1920.519531" xlink:href="#b"/>
<use x="1984.142578" xlink:href="#ac"/>
<use x="2047.765625" xlink:href="#r"/>
<use x="2111.388672" xlink:href="#b"/>
<use x="2175.011719" xlink:href="#w"/>
<use x="2238.634766" xlink:href="#DejaVuSans-20"/>
<use x="2270.421875" xlink:href="#ai"/>
<use x="2329.601562" xlink:href="#g"/>
<use x="2381.701172" xlink:href="#c"/>
<use x="2413.488281" xlink:href="#DejaVuSans-20"/>
<use x="2445.275391" xlink:href="#r"/>
<use x="2508.898438" xlink:href="#c"/>
<use x="2540.685547" xlink:href="#t"/>
<use x="2604.308594" xlink:href="#r"/>
<use x="2667.931641" xlink:href="#c"/>
<use x="2699.71875" xlink:href="#b"/>
<use x="2763.341797" xlink:href="#f"/>
<use x="2824.621094" xlink:href="#r"/>
</g>
<defs>
<clipPath id="a">
<rect x="183" y="34.8" width="344" height="370"/>
</clipPath>
</defs>
</svg>
