<?xml version="1.0" encoding="UTF-8"?>
<!DOCTYPE svg  PUBLIC '-//W3C//DTD SVG 1.1//EN'  'http://www.w3.org/Graphics/SVG/1.1/DTD/svg11.dtd'>
<svg width="576pt" height="468pt" version="1.1" viewBox="0 0 576 468" xmlns="http://www.w3.org/2000/svg" xmlns:xlink="http://www.w3.org/1999/xlink">
<defs>
<style type="text/css">*{stroke-linejoin: round; stroke-linecap: butt}</style>
</defs>
<path d="m0 468h576v-468h-576z" fill="#fff"/>
<path d="m183 448h344v-414h-344z" fill="#fff"/>
<path d="m509 412v24.3-24.3z" clip-path="url(#a)" fill="#1f77b4" fill-opacity=".3"/>
<path d="m509 388v24.3-24.3z" clip-path="url(#a)" fill="#1f77b4" fill-opacity=".3"/>
<path d="m199 372v5.8l0.00478 0.161 0.00478 0.162 0.00478 0.164 0.00478 0.165 0.00478 0.166 0.00478 0.167 0.00478 0.169 0.00478 0.17 0.00478 0.171 0.00478 0.172 0.00478 0.173 0.00478 0.174 0.00478 0.174 0.00478 0.174 0.00478 0.173 0.00478 0.171 0.00478 0.169 0.00478 0.166 0.00478 0.162 0.00478 0.157 0.00478 0.151 0.00478 0.145 0.00478 0.138 0.00478 0.13 0.00478 0.121 0.00478 0.113 0.00478 0.103 0.00478 0.0937 0.00478 0.0838 0.00478 0.0736 0.00478 0.0633 0.00478 0.0527 0.00478 0.0419 0.00478 0.0309 0.00478 0.0197 0.00478 0.00824 0.00478-0.00344 0.00478-0.0153 0.00478-0.0274 0.00478-0.0395 0.00478-0.0516 0.00478-0.0635 0.00478-0.075 0.00478-0.0859 0.00478-0.0959 0.00478-0.105 0.00478-0.112 0.00478-0.118 0.00478-0.122 0.00478-0.124 0.00478-0.123 0.00478-0.12 0.00478-0.114 0.00478-0.105 0.00478-0.0934 0.00478-0.0789 0.00478-0.0616 0.00478-0.0418 0.00478-0.0196 0.00478 0.00474 0.00478 0.0308 0.00478 0.0583 0.00478 0.0869 0.00478 0.116 0.00478 0.145 0.00478 0.175 0.00478 0.203 0.00478 0.23 0.00478 0.256 0.00478 0.28 0.00478 0.301 0.00478 0.319 0.00478 0.334 0.00478 0.345 0.00478 0.352 0.00478 0.355 0.00478 0.353 0.00478 0.346 0.00478 0.334 0.00478 0.318 0.00478 0.296 0.00478 0.27 0.00478 0.239 0.00478 0.203 0.00478 0.164 0.00478 0.121 0.00478 0.0742 0.00478 0.0255 0.00478-0.025 0.00478-0.0765 0.00478-0.128 0.00478-0.18 0.00478-0.23 0.00478-0.277 0.00478-0.323 0.00478-0.364 0.00478-0.402 0.00478-0.434 0.00478-0.462v-18.5l-0.00478-0.462-0.00478-0.434-0.00478-0.402-0.00478-0.364-0.00478-0.323-0.00478-0.277-0.00478-0.23-0.00478-0.18-0.00478-0.128-0.00478-0.0765-0.00478-0.025-0.00478 0.0255-0.00478 0.0742-0.00478 0.121-0.00478 0.164-0.00478 0.203-0.00478 0.239-0.00478 0.27-0.00478 0.296-0.00478 0.318-0.00478 0.334-0.00478 0.346-0.00478 0.353-0.00478 0.355-0.00478 0.352-0.00478 0.345-0.00478 0.334-0.00478 0.319-0.00478 0.301-0.00478 0.28-0.00478 0.256-0.00478 0.23-0.00478 0.203-0.00478 0.175-0.00478 0.145-0.00478 0.116-0.00478 0.0869-0.00478 0.0583-0.00478 0.0308-0.00478 0.00474-0.00478-0.0196-0.00478-0.0418-0.00478-0.0616-0.00478-0.0789-0.00478-0.0934-0.00478-0.105-0.00478-0.114-0.00478-0.12-0.00478-0.123-0.00478-0.124-0.00478-0.122-0.00478-0.118-0.00478-0.112-0.00478-0.105-0.00478-0.0959-0.00478-0.0859-0.00478-0.075-0.00478-0.0635-0.00478-0.0516-0.00478-0.0395-0.00478-0.0274-0.00478-0.0153-0.00478-0.00344-0.00478 0.00824-0.00478 0.0197-0.00478 0.0309-0.00478 0.0419-0.00478 0.0527-0.00478 0.0633-0.00478 0.0736-0.00478 0.0838-0.00478 0.0937-0.00478 0.103-0.00478 0.113-0.00478 0.121-0.00478 0.13-0.00478 0.138-0.00478 0.145-0.00478 0.151-0.00478 0.157-0.00478 0.162-0.00478 0.166-0.00478 0.169-0.00478 0.171-0.00478 0.173-0.00478 0.174-0.00478 0.174-0.00478 0.174-0.00478 0.173-0.00478 0.172-0.00478 0.171-0.00478 0.17-0.00478 0.169-0.00478 0.167-0.00478 0.166-0.00478 0.165-0.00478 0.164-0.00478 0.162-0.00478 0.161z" clip-path="url(#a)" fill="#1f77b4" fill-opacity=".3"/>
<path d="m202 349v3.89l0.00112 0.0834 0.00112 0.0849 0.00112 0.0891 0.00112 0.0963 0.00112 0.107 0.00112 0.121 0.00112 0.138 0.00112 0.159 0.00112 0.182 0.00112 0.208 0.00112 0.236 0.00112 0.264 0.00112 0.293 0.00112 0.32 0.00112 0.347 0.00112 0.37 0.00112 0.391 0.00112 0.408 0.00112 0.42 0.00112 0.428 0.00112 0.43 0.00112 0.428 0.00112 0.422 0.00112 0.411 0.00112 0.396 0.00112 0.379 0.00112 0.359 0.00112 0.337 0.00112 0.315 0.00112 0.292 0.00112 0.27 0.00112 0.247 0.00112 0.226 0.00112 0.204 0.00112 0.183 0.00112 0.161 0.00112 0.138 0.00112 0.113 0.00112 0.0855 0.00112 0.0551 0.00112 0.0212 0.00112-0.0165 0.00112-0.0576 0.00112-0.102 0.00112-0.149 0.00112-0.196 0.00112-0.244 0.00112-0.29 0.00112-0.332 0.00112-0.368 0.00112-0.398 0.00112-0.418 0.00112-0.429 0.00112-0.428 0.00112-0.416 0.00112-0.392 0.00112-0.357 0.00112-0.312 0.00112-0.259 0.00112-0.198 0.00112-0.133 0.00112-0.0663 0.00112 3.69e-4 0.00112 0.0641 0.00112 0.122 0.00112 0.173 0.00112 0.214 0.00112 0.244 0.00112 0.262 0.00112 0.268 0.00112 0.26 0.00112 0.241 0.00112 0.21 0.00112 0.169 0.00112 0.12 0.00112 0.065 0.00112 0.00594 0.00112-0.0549 0.00112-0.115 0.00112-0.173 0.00112-0.227 0.00112-0.274 0.00112-0.315 0.00112-0.347 0.00112-0.372 0.00112-0.388 0.00112-0.396 0.00112-0.397 0.00112-0.391 0.00112-0.38 0.00112-0.364 0.00112-0.345 0.00112-0.325 0.00112-0.303 0.00112-0.282 0.00112-0.261 0.00112-0.242 0.00112-0.225 0.00112-0.209v-5.27l-0.00112-0.209-0.00112-0.225-0.00112-0.242-0.00112-0.261-0.00112-0.282-0.00112-0.303-0.00112-0.325-0.00112-0.345-0.00112-0.364-0.00112-0.38-0.00112-0.391-0.00112-0.397-0.00112-0.396-0.00112-0.388-0.00112-0.372-0.00112-0.347-0.00112-0.315-0.00112-0.274-0.00112-0.227-0.00112-0.173-0.00112-0.115-0.00112-0.0549-0.00112 0.00594-0.00112 0.065-0.00112 0.12-0.00112 0.169-0.00112 0.21-0.00112 0.241-0.00112 0.26-0.00112 0.268-0.00112 0.262-0.00112 0.244-0.00112 0.214-0.00112 0.173-0.00112 0.122-0.00112 0.0641-0.00112 3.7e-4 -0.00112-0.0663-0.00112-0.133-0.00112-0.198-0.00112-0.259-0.00112-0.312-0.00112-0.357-0.00112-0.392-0.00112-0.416-0.00112-0.428-0.00112-0.429-0.00112-0.418-0.00112-0.398-0.00112-0.368-0.00112-0.332-0.00112-0.29-0.00112-0.244-0.00112-0.196-0.00112-0.149-0.00112-0.102-0.00112-0.0576-0.00112-0.0165-0.00112 0.0212-0.00112 0.0551-0.00112 0.0855-0.00112 0.113-0.00112 0.138-0.00112 0.161-0.00112 0.183-0.00112 0.204-0.00112 0.226-0.00112 0.247-0.00112 0.27-0.00112 0.292-0.00112 0.315-0.00112 0.337-0.00112 0.359-0.00112 0.379-0.00112 0.396-0.00112 0.411-0.00112 0.422-0.00112 0.428-0.00112 0.43-0.00112 0.428-0.00112 0.42-0.00112 0.408-0.00112 0.391-0.00112 0.37-0.00112 0.347-0.00112 0.32-0.00112 0.293-0.00112 0.264-0.00112 0.236-0.00112 0.208-0.00112 0.182-0.00112 0.159-0.00112 0.138-0.00112 0.121-0.00112 0.107-0.00112 0.0963-0.00112 0.0891-0.00112 0.0849-0.00112 0.0834z" clip-path="url(#a)" fill="#1f77b4" fill-opacity=".3"/>
<path d="m203 315v24.3l0.0502 0.026 0.0502-0.00737 0.0502-0.0406 0.0502-0.0736 0.0502-0.106 0.0502-0.137 0.0502-0.168 0.0502-0.197 0.0502-0.224 0.0502-0.25 0.0502-0.274 0.0502-0.295 0.0502-0.315 0.0502-0.332 0.0502-0.347 0.0502-0.359 0.0502-0.369 0.0502-0.377 0.0502-0.382 0.0502-0.385 0.0502-0.386 0.0502-0.384 0.0502-0.381 0.0502-0.376 0.0502-0.369 0.0502-0.36 0.0502-0.35 0.0502-0.339 0.0502-0.326 0.0502-0.313 0.0502-0.299 0.0502-0.284 0.0502-0.269 0.0502-0.253 0.0502-0.238 0.0502-0.222 0.0502-0.206 0.0502-0.19 0.0502-0.174 0.0502-0.159 0.0502-0.143 0.0502-0.128 0.0502-0.114 0.0502-0.0992 0.0502-0.085 0.0502-0.0712 0.0502-0.0577 0.0502-0.0445 0.0502-0.0315 0.0502-0.0186 0.0502-0.00599 0.0502 0.00652 0.0502 0.0189 0.0502 0.0313 0.0502 0.0436 0.0502 0.0559 0.0502 0.0682 0.0502 0.0806 0.0502 0.093 0.0502 0.105 0.0502 0.118 0.0502 0.13 0.0502 0.143 0.0502 0.155 0.0502 0.167 0.0502 0.179 0.0502 0.191 0.0502 0.203 0.0502 0.214 0.0502 0.224 0.0502 0.234 0.0502 0.244 0.0502 0.252 0.0502 0.26 0.0502 0.266 0.0502 0.271 0.0502 0.275 0.0502 0.278 0.0502 0.279 0.0502 0.279 0.0502 0.277 0.0502 0.273 0.0502 0.268 0.0502 0.261 0.0502 0.252 0.0502 0.241 0.0502 0.229 0.0502 0.215 0.0502 0.199 0.0502 0.182 0.0502 0.163 0.0502 0.144 0.0502 0.123 0.0502 0.101 0.0502 0.0779 0.0502 0.0545 0.0502 0.0306 0.0502 0.00646 0.0502-0.0177v-17.6l-0.0502-0.0177-0.0502 0.00646-0.0502 0.0306-0.0502 0.0545-0.0502 0.0779-0.0502 0.101-0.0502 0.123-0.0502 0.144-0.0502 0.163-0.0502 0.182-0.0502 0.199-0.0502 0.215-0.0502 0.229-0.0502 0.241-0.0502 0.252-0.0502 0.261-0.0502 0.268-0.0502 0.273-0.0502 0.277-0.0502 0.279-0.0502 0.279-0.0502 0.278-0.0502 0.275-0.0502 0.271-0.0502 0.266-0.0502 0.26-0.0502 0.252-0.0502 0.244-0.0502 0.234-0.0502 0.224-0.0502 0.214-0.0502 0.203-0.0502 0.191-0.0502 0.179-0.0502 0.167-0.0502 0.155-0.0502 0.143-0.0502 0.13-0.0502 0.118-0.0502 0.105-0.0502 0.093-0.0502 0.0806-0.0502 0.0682-0.0502 0.0559-0.0502 0.0436-0.0502 0.0313-0.0502 0.0189-0.0502 0.00652-0.0502-0.00599-0.0502-0.0186-0.0502-0.0315-0.0502-0.0445-0.0502-0.0577-0.0502-0.0712-0.0502-0.085-0.0502-0.0992-0.0502-0.114-0.0502-0.128-0.0502-0.143-0.0502-0.159-0.0502-0.174-0.0502-0.19-0.0502-0.206-0.0502-0.222-0.0502-0.238-0.0502-0.253-0.0502-0.269-0.0502-0.284-0.0502-0.299-0.0502-0.313-0.0502-0.326-0.0502-0.339-0.0502-0.35-0.0502-0.36-0.0502-0.369-0.0502-0.376-0.0502-0.381-0.0502-0.384-0.0502-0.386-0.0502-0.385-0.0502-0.382-0.0502-0.377-0.0502-0.369-0.0502-0.359-0.0502-0.347-0.0502-0.332-0.0502-0.315-0.0502-0.295-0.0502-0.274-0.0502-0.25-0.0502-0.224-0.0502-0.197-0.0502-0.168-0.0502-0.137-0.0502-0.106-0.0502-0.0736-0.0502-0.0406-0.0502-0.00737-0.0502 0.026z" clip-path="url(#a)" fill="#1f77b4" fill-opacity=".3"/>
<path d="m233 300v3.99l3e-3 0.0906 3e-3 0.0844 3e-3 0.0775 3e-3 0.0702 3e-3 0.0626 3e-3 0.0548 3e-3 0.0469 3e-3 0.0391 3e-3 0.0314 3e-3 0.024 3e-3 0.0169 3e-3 0.0104 3e-3 0.00437 3e-3 -9.89e-4 3e-3 -0.00562 3e-3 -0.00943 3e-3 -0.0123 3e-3 -0.0143 3e-3 -0.0152 3e-3 -0.0151 3e-3 -0.0139 3e-3 -0.0115 3e-3 -0.00817 3e-3 -0.0038 3e-3 0.00146 3e-3 0.00749 3e-3 0.0141 3e-3 0.0212 3e-3 0.0285 3e-3 0.0358 3e-3 0.0429 3e-3 0.0497 3e-3 0.0558 3e-3 0.0613 3e-3 0.066 3e-3 0.0699 3e-3 0.0729 3e-3 0.0753 3e-3 0.077 3e-3 0.0783 3e-3 0.0794 3e-3 0.0806 3e-3 0.0821 3e-3 0.0842 3e-3 0.0872 3e-3 0.0914 3e-3 0.0969 3e-3 0.104 3e-3 0.113 3e-3 0.124 3e-3 0.136 3e-3 0.15 3e-3 0.166 3e-3 0.184 3e-3 0.203 3e-3 0.223 3e-3 0.244 3e-3 0.265 3e-3 0.286 3e-3 0.307 3e-3 0.327 3e-3 0.345 3e-3 0.361 3e-3 0.374 3e-3 0.384 3e-3 0.391 3e-3 0.394 3e-3 0.392 3e-3 0.386 3e-3 0.375 3e-3 0.359 3e-3 0.337 3e-3 0.311 3e-3 0.28 3e-3 0.243 3e-3 0.203 3e-3 0.158 3e-3 0.11 3e-3 0.0597 3e-3 0.00685 3e-3 -0.0473 3e-3 -0.102 3e-3 -0.156 3e-3 -0.209 3e-3 -0.26 3e-3 -0.308 3e-3 -0.352 3e-3 -0.392 3e-3 -0.427 3e-3 -0.457 3e-3 -0.481 3e-3 -0.499 3e-3 -0.511 3e-3 -0.518 3e-3 -0.519 3e-3 -0.514 3e-3 -0.505 3e-3 -0.492 3e-3 -0.475v-9.87l-3e-3 -0.475-3e-3 -0.492-3e-3 -0.505-3e-3 -0.514-3e-3 -0.519-3e-3 -0.518-3e-3 -0.511-3e-3 -0.499-3e-3 -0.481-3e-3 -0.457-3e-3 -0.427-3e-3 -0.392-3e-3 -0.352-3e-3 -0.308-3e-3 -0.26-3e-3 -0.209-3e-3 -0.156-3e-3 -0.102-3e-3 -0.0473-3e-3 0.00685-3e-3 0.0597-3e-3 0.11-3e-3 0.158-3e-3 0.203-3e-3 0.243-3e-3 0.28-3e-3 0.311-3e-3 0.337-3e-3 0.359-3e-3 0.375-3e-3 0.386-3e-3 0.392-3e-3 0.394-3e-3 0.391-3e-3 0.384-3e-3 0.374-3e-3 0.361-3e-3 0.345-3e-3 0.327-3e-3 0.307-3e-3 0.286-3e-3 0.265-3e-3 0.244-3e-3 0.223-3e-3 0.203-3e-3 0.184-3e-3 0.166-3e-3 0.15-3e-3 0.136-3e-3 0.124-3e-3 0.113-3e-3 0.104-3e-3 0.0969-3e-3 0.0914-3e-3 0.0872-3e-3 0.0842-3e-3 0.0821-3e-3 0.0806-3e-3 0.0794-3e-3 0.0783-3e-3 0.077-3e-3 0.0753-3e-3 0.0729-3e-3 0.0699-3e-3 0.066-3e-3 0.0613-3e-3 0.0558-3e-3 0.0497-3e-3 0.0429-3e-3 0.0358-3e-3 0.0285-3e-3 0.0212-3e-3 0.0141-3e-3 0.00749-3e-3 0.00146-3e-3 -0.0038-3e-3 -0.00817-3e-3 -0.0115-3e-3 -0.0139-3e-3 -0.0151-3e-3 -0.0152-3e-3 -0.0143-3e-3 -0.0123-3e-3 -0.00943-3e-3 -0.00562-3e-3 -9.89e-4 -3e-3 0.00437-3e-3 0.0104-3e-3 0.0169-3e-3 0.024-3e-3 0.0314-3e-3 0.0391-3e-3 0.0469-3e-3 0.0548-3e-3 0.0626-3e-3 0.0702-3e-3 0.0775-3e-3 0.0844-3e-3 0.0906z" clip-path="url(#a)" fill="#1f77b4" fill-opacity=".3"/>
<path d="m235 273v9.12l0.0176 0.199 0.0176 0.183 0.0176 0.165 0.0176 0.145 0.0176 0.124 0.0176 0.103 0.0176 0.0818 0.0176 0.061 0.0176 0.0412 0.0176 0.023 0.0176 0.00677 0.0176-0.00704 0.0176-0.0181 0.0176-0.0261 0.0176-0.0309 0.0176-0.0325 0.0176-0.0309 0.0176-0.0261 0.0176-0.0186 0.0176-0.00864 0.0176 0.00338 0.0176 0.017 0.0176 0.0315 0.0176 0.0466 0.0176 0.0615 0.0176 0.0757 0.0176 0.0888 0.0176 0.1 0.0176 0.11 0.0176 0.117 0.0176 0.122 0.0176 0.124 0.0176 0.125 0.0176 0.123 0.0176 0.119 0.0176 0.113 0.0176 0.107 0.0176 0.1 0.0176 0.0932 0.0176 0.0867 0.0176 0.0811 0.0176 0.0767 0.0176 0.074 0.0176 0.0733 0.0176 0.0746 0.0176 0.0781 0.0176 0.0837 0.0176 0.0912 0.0176 0.101 0.0176 0.111 0.0176 0.123 0.0176 0.136 0.0176 0.148 0.0176 0.161 0.0176 0.173 0.0176 0.184 0.0176 0.194 0.0176 0.203 0.0176 0.209 0.0176 0.214 0.0176 0.216 0.0176 0.216 0.0176 0.214 0.0176 0.21 0.0176 0.203 0.0176 0.195 0.0176 0.184 0.0176 0.171 0.0176 0.156 0.0176 0.14 0.0176 0.122 0.0176 0.102 0.0176 0.0808 0.0176 0.0584 0.0176 0.0348 0.0176 0.0103 0.0176-0.015 0.0176-0.0408 0.0176-0.067 0.0176-0.0933 0.0176-0.119 0.0176-0.145 0.0176-0.171 0.0176-0.195 0.0176-0.219 0.0176-0.241 0.0176-0.262 0.0176-0.282 0.0176-0.3 0.0176-0.316 0.0176-0.33 0.0176-0.343 0.0176-0.354 0.0176-0.364 0.0176-0.371 0.0176-0.377 0.0176-0.381 0.0176-0.383 0.0176-0.383v-12.8l-0.0176-0.383-0.0176-0.383-0.0176-0.381-0.0176-0.377-0.0176-0.371-0.0176-0.364-0.0176-0.354-0.0176-0.343-0.0176-0.33-0.0176-0.316-0.0176-0.3-0.0176-0.282-0.0176-0.262-0.0176-0.241-0.0176-0.219-0.0176-0.195-0.0176-0.171-0.0176-0.145-0.0176-0.119-0.0176-0.0933-0.0176-0.067-0.0176-0.0408-0.0176-0.015-0.0176 0.0103-0.0176 0.0348-0.0176 0.0584-0.0176 0.0808-0.0176 0.102-0.0176 0.122-0.0176 0.14-0.0176 0.156-0.0176 0.171-0.0176 0.184-0.0176 0.195-0.0176 0.203-0.0176 0.21-0.0176 0.214-0.0176 0.216-0.0176 0.216-0.0176 0.214-0.0176 0.209-0.0176 0.203-0.0176 0.194-0.0176 0.184-0.0176 0.173-0.0176 0.161-0.0176 0.148-0.0176 0.136-0.0176 0.123-0.0176 0.111-0.0176 0.101-0.0176 0.0912-0.0176 0.0837-0.0176 0.0781-0.0176 0.0746-0.0176 0.0733-0.0176 0.074-0.0176 0.0767-0.0176 0.0811-0.0176 0.0867-0.0176 0.0932-0.0176 0.1-0.0176 0.107-0.0176 0.113-0.0176 0.119-0.0176 0.123-0.0176 0.125-0.0176 0.124-0.0176 0.122-0.0176 0.117-0.0176 0.11-0.0176 0.1-0.0176 0.0888-0.0176 0.0757-0.0176 0.0615-0.0176 0.0466-0.0176 0.0315-0.0176 0.017-0.0176 0.00338-0.0176-0.00864-0.0176-0.0186-0.0176-0.0261-0.0176-0.0309-0.0176-0.0325-0.0176-0.0309-0.0176-0.0261-0.0176-0.0181-0.0176-0.00704-0.0176 0.00677-0.0176 0.023-0.0176 0.0412-0.0176 0.061-0.0176 0.0818-0.0176 0.103-0.0176 0.124-0.0176 0.145-0.0176 0.165-0.0176 0.183-0.0176 0.199z" clip-path="url(#a)" fill="#1f77b4" fill-opacity=".3"/>
<path d="m266 250v7.21l0.0129 0.262 0.0129 0.268 0.0129 0.274 0.0129 0.28 0.0129 0.285 0.0129 0.289 0.0129 0.293 0.0129 0.295 0.0129 0.296 0.0129 0.295 0.0129 0.292 0.0129 0.288 0.0129 0.281 0.0129 0.273 0.0129 0.262 0.0129 0.249 0.0129 0.234 0.0129 0.217 0.0129 0.199 0.0129 0.179 0.0129 0.159 0.0129 0.138 0.0129 0.117 0.0129 0.097 0.0129 0.0776 0.0129 0.0595 0.0129 0.043 0.0129 0.0283 0.0129 0.0156 0.0129 5e-3 0.0129-0.00336 0.0129-0.00955 0.0129-0.0136 0.0129-0.0157 0.0129-0.0159 0.0129-0.0143 0.0129-0.0112 0.0129-0.00653 0.0129-5.56e-4 0.0129 0.0067 0.0129 0.0152 0.0129 0.0248 0.0129 0.0355 0.0129 0.0474 0.0129 0.0602 0.0129 0.0738 0.0129 0.0882 0.0129 0.103 0.0129 0.118 0.0129 0.132 0.0129 0.146 0.0129 0.158 0.0129 0.169 0.0129 0.176 0.0129 0.181 0.0129 0.181 0.0129 0.177 0.0129 0.168 0.0129 0.154 0.0129 0.134 0.0129 0.11 0.0129 0.081 0.0129 0.0478 0.0129 0.0111 0.0129-0.0282 0.0129-0.069 0.0129-0.11 0.0129-0.151 0.0129-0.19 0.0129-0.226 0.0129-0.259 0.0129-0.287 0.0129-0.311 0.0129-0.329 0.0129-0.343 0.0129-0.351 0.0129-0.355 0.0129-0.354 0.0129-0.35 0.0129-0.343 0.0129-0.333 0.0129-0.322 0.0129-0.31 0.0129-0.298 0.0129-0.285 0.0129-0.274 0.0129-0.263 0.0129-0.253 0.0129-0.245 0.0129-0.237 0.0129-0.232 0.0129-0.227 0.0129-0.223 0.0129-0.22 0.0129-0.218 0.0129-0.216 0.0129-0.215 0.0129-0.213 0.0129-0.212v-6.62l-0.0129-0.212-0.0129-0.213-0.0129-0.215-0.0129-0.216-0.0129-0.218-0.0129-0.22-0.0129-0.223-0.0129-0.227-0.0129-0.232-0.0129-0.237-0.0129-0.245-0.0129-0.253-0.0129-0.263-0.0129-0.274-0.0129-0.285-0.0129-0.298-0.0129-0.31-0.0129-0.322-0.0129-0.333-0.0129-0.343-0.0129-0.35-0.0129-0.354-0.0129-0.355-0.0129-0.351-0.0129-0.343-0.0129-0.329-0.0129-0.311-0.0129-0.287-0.0129-0.259-0.0129-0.226-0.0129-0.19-0.0129-0.151-0.0129-0.11-0.0129-0.069-0.0129-0.0282-0.0129 0.0111-0.0129 0.0478-0.0129 0.081-0.0129 0.11-0.0129 0.134-0.0129 0.154-0.0129 0.168-0.0129 0.177-0.0129 0.181-0.0129 0.181-0.0129 0.176-0.0129 0.169-0.0129 0.158-0.0129 0.146-0.0129 0.132-0.0129 0.118-0.0129 0.103-0.0129 0.0882-0.0129 0.0738-0.0129 0.0602-0.0129 0.0474-0.0129 0.0355-0.0129 0.0248-0.0129 0.0152-0.0129 0.0067-0.0129-5.56e-4 -0.0129-0.00653-0.0129-0.0112-0.0129-0.0143-0.0129-0.0159-0.0129-0.0157-0.0129-0.0136-0.0129-0.00954-0.0129-0.00336-0.0129 5e-3 -0.0129 0.0156-0.0129 0.0283-0.0129 0.043-0.0129 0.0595-0.0129 0.0776-0.0129 0.097-0.0129 0.117-0.0129 0.138-0.0129 0.159-0.0129 0.179-0.0129 0.199-0.0129 0.217-0.0129 0.234-0.0129 0.249-0.0129 0.262-0.0129 0.273-0.0129 0.281-0.0129 0.288-0.0129 0.292-0.0129 0.295-0.0129 0.296-0.0129 0.295-0.0129 0.293-0.0129 0.289-0.0129 0.285-0.0129 0.28-0.0129 0.274-0.0129 0.268-0.0129 0.262z" clip-path="url(#a)" fill="#1f77b4" fill-opacity=".3"/>
<path d="m280 224v9.82l0.0108 0.206 0.0108 0.191 0.0108 0.175 0.0108 0.157 0.0108 0.138 0.0108 0.118 0.0108 0.0975 0.0108 0.0768 0.0108 0.0562 0.0108 0.0361 0.0108 0.0166 0.0108-0.0017 0.0108-0.0185 0.0108-0.0334 0.0108-0.0459 0.0108-0.0558 0.0108-0.0626 0.0108-0.0662 0.0108-0.0661 0.0108-0.0624 0.0108-0.0549 0.0108-0.0438 0.0108-0.0291 0.0108-0.0111 0.0108 0.00981 0.0108 0.0332 0.0108 0.0585 0.0108 0.0852 0.0108 0.113 0.0108 0.14 0.0108 0.167 0.0108 0.194 0.0108 0.218 0.0108 0.241 0.0108 0.262 0.0108 0.28 0.0108 0.295 0.0108 0.307 0.0108 0.316 0.0108 0.322 0.0108 0.325 0.0108 0.325 0.0108 0.321 0.0108 0.315 0.0108 0.305 0.0108 0.292 0.0108 0.276 0.0108 0.258 0.0108 0.236 0.0108 0.211 0.0108 0.184 0.0108 0.155 0.0108 0.124 0.0108 0.0909 0.0108 0.0568 0.0108 0.0222 0.0108-0.0126 0.0108-0.0468 0.0108-0.0799 0.0108-0.111 0.0108-0.141 0.0108-0.168 0.0108-0.192 0.0108-0.213 0.0108-0.23 0.0108-0.244 0.0108-0.255 0.0108-0.263 0.0108-0.269 0.0108-0.271 0.0108-0.272 0.0108-0.27 0.0108-0.267 0.0108-0.263 0.0108-0.258 0.0108-0.252 0.0108-0.246 0.0108-0.239 0.0108-0.233 0.0108-0.226 0.0108-0.22 0.0108-0.213 0.0108-0.208 0.0108-0.202 0.0108-0.197 0.0108-0.192 0.0108-0.188 0.0108-0.185 0.0108-0.182 0.0108-0.18 0.0108-0.179 0.0108-0.178 0.0108-0.179 0.0108-0.18 0.0108-0.181 0.0108-0.184 0.0108-0.186 0.0108-0.189 0.0108-0.192v-7.06l-0.0108-0.192-0.0108-0.189-0.0108-0.186-0.0108-0.184-0.0108-0.181-0.0108-0.18-0.0108-0.179-0.0108-0.178-0.0108-0.179-0.0108-0.18-0.0108-0.182-0.0108-0.185-0.0108-0.188-0.0108-0.192-0.0108-0.197-0.0108-0.202-0.0108-0.208-0.0108-0.213-0.0108-0.22-0.0108-0.226-0.0108-0.233-0.0108-0.239-0.0108-0.246-0.0108-0.252-0.0108-0.258-0.0108-0.263-0.0108-0.267-0.0108-0.27-0.0108-0.272-0.0108-0.271-0.0108-0.269-0.0108-0.263-0.0108-0.255-0.0108-0.244-0.0108-0.23-0.0108-0.213-0.0108-0.192-0.0108-0.168-0.0108-0.141-0.0108-0.111-0.0108-0.0799-0.0108-0.0468-0.0108-0.0126-0.0108 0.0222-0.0108 0.0568-0.0108 0.0909-0.0108 0.124-0.0108 0.155-0.0108 0.184-0.0108 0.211-0.0108 0.236-0.0108 0.258-0.0108 0.276-0.0108 0.292-0.0108 0.305-0.0108 0.315-0.0108 0.321-0.0108 0.325-0.0108 0.325-0.0108 0.322-0.0108 0.316-0.0108 0.307-0.0108 0.295-0.0108 0.28-0.0108 0.262-0.0108 0.241-0.0108 0.218-0.0108 0.194-0.0108 0.167-0.0108 0.14-0.0108 0.113-0.0108 0.0852-0.0108 0.0585-0.0108 0.0332-0.0108 0.00982-0.0108-0.0111-0.0108-0.0291-0.0108-0.0438-0.0108-0.0549-0.0108-0.0624-0.0108-0.0661-0.0108-0.0662-0.0108-0.0626-0.0108-0.0558-0.0108-0.0459-0.0108-0.0334-0.0108-0.0185-0.0108-0.0017-0.0108 0.0166-0.0108 0.0361-0.0108 0.0562-0.0108 0.0768-0.0108 0.0975-0.0108 0.118-0.0108 0.138-0.0108 0.157-0.0108 0.175-0.0108 0.191-0.0108 0.206z" clip-path="url(#a)" fill="#1f77b4" fill-opacity=".3"/>
<path d="m281 198v13.7l0.022 0.154 0.022 0.124 0.022 0.094 0.022 0.0647 0.022 0.0367 0.022 0.0107 0.022-0.0129 0.022-0.0333 0.022-0.0503 0.022-0.0635 0.022-0.0727 0.022-0.0777 0.022-0.0785 0.022-0.0752 0.022-0.068 0.022-0.0573 0.022-0.0433 0.022-0.0265 0.022-0.00748 0.022 0.0133 0.022 0.0353 0.022 0.0578 0.022 0.0805 0.022 0.103 0.022 0.124 0.022 0.143 0.022 0.161 0.022 0.176 0.022 0.189 0.022 0.198 0.022 0.205 0.022 0.209 0.022 0.209 0.022 0.207 0.022 0.201 0.022 0.193 0.022 0.182 0.022 0.169 0.022 0.154 0.022 0.138 0.022 0.121 0.022 0.103 0.022 0.0856 0.022 0.0681 0.022 0.0514 0.022 0.0358 0.022 0.0217 0.022 0.00935 0.022-8.91e-4 0.022-0.00884 0.022-0.0143 0.022-0.0172 0.022-0.0175 0.022-0.0153 0.022-0.0104 0.022-0.00326 0.022 0.0061 0.022 0.0174 0.022 0.0302 0.022 0.0442 0.022 0.0591 0.022 0.0743 0.022 0.0893 0.022 0.104 0.022 0.117 0.022 0.128 0.022 0.138 0.022 0.144 0.022 0.148 0.022 0.148 0.022 0.144 0.022 0.137 0.022 0.125 0.022 0.109 0.022 0.0893 0.022 0.0657 0.022 0.0386 0.022 0.00832 0.022-0.0246 0.022-0.0596 0.022-0.0961 0.022-0.133 0.022-0.171 0.022-0.208 0.022-0.244 0.022-0.278 0.022-0.31 0.022-0.339 0.022-0.365 0.022-0.388 0.022-0.407 0.022-0.422 0.022-0.433 0.022-0.441 0.022-0.444 0.022-0.444 0.022-0.441 0.022-0.435 0.022-0.426v-11.3l-0.022-0.426-0.022-0.435-0.022-0.441-0.022-0.444-0.022-0.444-0.022-0.441-0.022-0.433-0.022-0.422-0.022-0.407-0.022-0.388-0.022-0.365-0.022-0.339-0.022-0.31-0.022-0.278-0.022-0.244-0.022-0.208-0.022-0.171-0.022-0.133-0.022-0.0961-0.022-0.0596-0.022-0.0246-0.022 0.00832-0.022 0.0386-0.022 0.0657-0.022 0.0893-0.022 0.109-0.022 0.125-0.022 0.137-0.022 0.144-0.022 0.148-0.022 0.148-0.022 0.144-0.022 0.138-0.022 0.128-0.022 0.117-0.022 0.104-0.022 0.0893-0.022 0.0743-0.022 0.0591-0.022 0.0442-0.022 0.0302-0.022 0.0174-0.022 0.0061-0.022-0.00326-0.022-0.0104-0.022-0.0153-0.022-0.0175-0.022-0.0172-0.022-0.0143-0.022-0.00884-0.022-8.91e-4 -0.022 0.00936-0.022 0.0217-0.022 0.0358-0.022 0.0514-0.022 0.0681-0.022 0.0856-0.022 0.103-0.022 0.121-0.022 0.138-0.022 0.154-0.022 0.169-0.022 0.182-0.022 0.193-0.022 0.201-0.022 0.207-0.022 0.209-0.022 0.209-0.022 0.205-0.022 0.198-0.022 0.189-0.022 0.176-0.022 0.161-0.022 0.143-0.022 0.124-0.022 0.103-0.022 0.0805-0.022 0.0578-0.022 0.0353-0.022 0.0133-0.022-0.00748-0.022-0.0265-0.022-0.0433-0.022-0.0573-0.022-0.068-0.022-0.0752-0.022-0.0785-0.022-0.0777-0.022-0.0727-0.022-0.0635-0.022-0.0503-0.022-0.0333-0.022-0.0129-0.022 0.0107-0.022 0.0367-0.022 0.0647-0.022 0.094-0.022 0.124-0.022 0.154z" clip-path="url(#a)" fill="#f00" fill-opacity=".3"/>
<path d="m281 176v8.95l0.0302 0.219 0.0302 0.199 0.0302 0.176 0.0302 0.152 0.0302 0.129 0.0302 0.106 0.0302 0.0848 0.0302 0.0667 0.0302 0.0522 0.0302 0.042 0.0302 0.0366 0.0302 0.0364 0.0302 0.0414 0.0302 0.0514 0.0302 0.0661 0.0302 0.0847 0.0302 0.107 0.0302 0.131 0.0302 0.156 0.0302 0.182 0.0302 0.206 0.0302 0.23 0.0302 0.25 0.0302 0.268 0.0302 0.283 0.0302 0.293 0.0302 0.3 0.0604 0.607 0.0302 0.3 0.0302 0.294 0.0302 0.286 0.0302 0.275 0.0302 0.262 0.0302 0.248 0.0302 0.232 0.0302 0.215 0.0302 0.196 0.0302 0.177 0.0302 0.156 0.0302 0.134 0.0302 0.112 0.0302 0.0902 0.0302 0.0684 0.0302 0.0474 0.0302 0.0277 0.0302 0.0101 0.0302-0.00506 0.0302-0.0172 0.0302-0.0261 0.0302-0.0315 0.0302-0.0333 0.0302-0.0318 0.0302-0.0274 0.0302-0.0206 0.0302-0.0121 0.0302-0.00291 0.0302 0.0061 0.0302 0.0139 0.0302 0.0195 0.0302 0.0221 0.0302 0.0207 0.0302 0.0148 0.0302 0.00404 0.0302-0.0119 0.0302-0.0329 0.0302-0.0588 0.0302-0.0889 0.0302-0.123 0.0302-0.159 0.0302-0.197 0.0302-0.236 0.0302-0.275 0.0302-0.311 0.0302-0.346 0.0302-0.376 0.0302-0.402 0.0302-0.424 0.0302-0.439 0.0302-0.449 0.0302-0.453 0.0302-0.451 0.0302-0.443 0.0302-0.431 0.0302-0.414 0.0302-0.394 0.0302-0.371 0.0302-0.346 0.0302-0.319 0.0302-0.293 0.0302-0.267 0.0302-0.242 0.0302-0.22 0.0302-0.2 0.0302-0.182 0.0302-0.167 0.0302-0.156 0.0302-0.147 0.0302-0.14v-4.98l-0.0302-0.14-0.0302-0.147-0.0302-0.156-0.0302-0.167-0.0302-0.182-0.0302-0.2-0.0302-0.22-0.0302-0.242-0.0302-0.267-0.0302-0.293-0.0302-0.319-0.0302-0.346-0.0302-0.371-0.0302-0.394-0.0302-0.414-0.0302-0.431-0.0302-0.443-0.0302-0.451-0.0302-0.453-0.0302-0.449-0.0302-0.439-0.0302-0.424-0.0302-0.402-0.0302-0.376-0.0302-0.346-0.0302-0.311-0.0302-0.275-0.0302-0.236-0.0302-0.197-0.0302-0.159-0.0302-0.123-0.0302-0.0889-0.0302-0.0588-0.0302-0.0329-0.0302-0.0119-0.0302 0.00404-0.0302 0.0148-0.0302 0.0207-0.0302 0.0221-0.0302 0.0195-0.0302 0.0139-0.0302 0.00611-0.0302-0.00291-0.0302-0.0121-0.0302-0.0206-0.0302-0.0274-0.0302-0.0318-0.0302-0.0333-0.0302-0.0315-0.0302-0.0261-0.0302-0.0172-0.0302-0.00506-0.0302 0.0101-0.0302 0.0277-0.0302 0.0474-0.0302 0.0684-0.0302 0.0902-0.0302 0.112-0.0302 0.134-0.0302 0.156-0.0302 0.177-0.0302 0.196-0.0302 0.215-0.0302 0.232-0.0302 0.248-0.0302 0.262-0.0302 0.275-0.0302 0.286-0.0302 0.294-0.0302 0.3-0.0604 0.607-0.0302 0.3-0.0302 0.293-0.0302 0.283-0.0302 0.268-0.0302 0.25-0.0302 0.23-0.0302 0.206-0.0302 0.182-0.0302 0.156-0.0302 0.131-0.0302 0.107-0.0302 0.0847-0.0302 0.0661-0.0302 0.0514-0.0302 0.0414-0.0302 0.0364-0.0302 0.0366-0.0302 0.042-0.0302 0.0522-0.0302 0.0667-0.0302 0.0848-0.0302 0.106-0.0302 0.129-0.0302 0.152-0.0302 0.176-0.0302 0.199-0.0302 0.219z" clip-path="url(#a)" fill="#1f77b4" fill-opacity=".3"/>
<path d="m281 149v13.9l0.0573 0.465 0.0573 0.464 0.0573 0.46 0.0573 0.451 0.0573 0.438 0.0573 0.421 0.0573 0.4 0.0573 0.375 0.0573 0.346 0.0573 0.313 0.0573 0.277 0.0573 0.238 0.0573 0.197 0.0573 0.154 0.0573 0.11 0.0573 0.0654 0.0573 0.0205 0.0573-0.0238 0.0573-0.067 0.0573-0.109 0.0573-0.148 0.0573-0.184 0.0573-0.218 0.0573-0.248 0.0573-0.274 0.0573-0.296 0.0573-0.314 0.0573-0.327 0.0573-0.336 0.0573-0.341 0.0573-0.342 0.0573-0.339 0.0573-0.332 0.0573-0.321 0.0573-0.307 0.0573-0.29 0.0573-0.271 0.0573-0.249 0.0573-0.226 0.0573-0.201 0.0573-0.174 0.0573-0.147 0.0573-0.12 0.0573-0.0922 0.0573-0.0646 0.0573-0.0374 0.0573-0.0108 0.0573 0.015 0.0573 0.0399 0.0573 0.0636 0.0573 0.0861 0.0573 0.107 0.0573 0.127 0.0573 0.145 0.0573 0.161 0.0573 0.176 0.0573 0.188 0.0573 0.199 0.0573 0.208 0.0573 0.214 0.0573 0.218 0.115 0.44 0.0573 0.217 0.0573 0.212 0.0573 0.205 0.0573 0.195 0.0573 0.184 0.0573 0.17 0.0573 0.154 0.0573 0.137 0.0573 0.118 0.0573 0.098 0.0573 0.0773 0.0573 0.056 0.0573 0.0344 0.0573 0.0128 0.0573-0.0084 0.0573-0.0291 0.0573-0.049 0.0573-0.0681 0.0573-0.0861 0.0573-0.103 0.0573-0.119 0.0573-0.134 0.0573-0.147 0.0573-0.16 0.0573-0.172 0.0573-0.183 0.0573-0.194 0.0573-0.204 0.0573-0.214 0.0573-0.223 0.0573-0.233 0.0573-0.242 0.0573-0.25 0.0573-0.259 0.0573-0.267 0.0573-0.274v-12.8l-0.0573-0.274-0.0573-0.267-0.0573-0.259-0.0573-0.25-0.0573-0.242-0.0573-0.233-0.0573-0.223-0.0573-0.214-0.0573-0.204-0.0573-0.194-0.0573-0.183-0.0573-0.172-0.0573-0.16-0.0573-0.147-0.0573-0.134-0.0573-0.119-0.0573-0.103-0.0573-0.0861-0.0573-0.0681-0.0573-0.049-0.0573-0.0291-0.0573-0.0084-0.0573 0.0128-0.0573 0.0344-0.0573 0.056-0.0573 0.0773-0.0573 0.098-0.0573 0.118-0.0573 0.137-0.0573 0.154-0.0573 0.17-0.0573 0.184-0.0573 0.195-0.0573 0.205-0.0573 0.212-0.0573 0.217-0.115 0.44-0.0573 0.218-0.0573 0.214-0.0573 0.208-0.0573 0.199-0.0573 0.188-0.0573 0.176-0.0573 0.161-0.0573 0.145-0.0573 0.127-0.0573 0.107-0.0573 0.0861-0.0573 0.0636-0.0573 0.0399-0.0573 0.015-0.0573-0.0108-0.0573-0.0374-0.0573-0.0646-0.0573-0.0922-0.0573-0.12-0.0573-0.147-0.0573-0.174-0.0573-0.201-0.0573-0.226-0.0573-0.249-0.0573-0.271-0.0573-0.29-0.0573-0.307-0.0573-0.321-0.0573-0.332-0.0573-0.339-0.0573-0.342-0.0573-0.341-0.0573-0.336-0.0573-0.327-0.0573-0.314-0.0573-0.296-0.0573-0.274-0.0573-0.248-0.0573-0.218-0.0573-0.184-0.0573-0.148-0.0573-0.109-0.0573-0.067-0.0573-0.0238-0.0573 0.0205-0.0573 0.0654-0.0573 0.11-0.0573 0.154-0.0573 0.197-0.0573 0.238-0.0573 0.277-0.0573 0.313-0.0573 0.346-0.0573 0.375-0.0573 0.4-0.0573 0.421-0.0573 0.438-0.0573 0.451-0.0573 0.46-0.0573 0.464-0.0573 0.465z" clip-path="url(#a)" fill="#1f77b4" fill-opacity=".3"/>
<path d="m287 126v11.2l0.0279 0.355 0.0279 0.359 0.0279 0.362 0.0279 0.363 0.0279 0.364 0.0279 0.363 0.0279 0.361 0.0279 0.357 0.0279 0.352 0.0279 0.345 0.0279 0.337 0.0279 0.326 0.0279 0.314 0.0279 0.299 0.0279 0.282 0.0279 0.263 0.0279 0.241 0.0279 0.217 0.0279 0.191 0.0279 0.163 0.0279 0.132 0.0279 0.1 0.0279 0.0673 0.0279 0.0333 0.0279-9.68e-4 0.0279-0.035 0.0279-0.0681 0.0279-0.0998 0.0279-0.129 0.0279-0.157 0.0279-0.18 0.0279-0.201 0.0279-0.217 0.0279-0.229 0.0279-0.237 0.0279-0.24 0.0279-0.239 0.0279-0.234 0.0279-0.224 0.0279-0.211 0.0279-0.195 0.0279-0.176 0.0279-0.156 0.0279-0.134 0.0279-0.111 0.0279-0.0882 0.0279-0.0657 0.0279-0.0441 0.0279-0.0238 0.0279-0.0052 0.0279 0.0115 0.0279 0.026 0.0279 0.0385 0.0279 0.0487 0.0279 0.057 0.0279 0.0634 0.0279 0.0681 0.0279 0.0716 0.0279 0.074 0.0279 0.0757 0.0279 0.077 0.0279 0.0781 0.0279 0.0795 0.0279 0.0812 0.0279 0.0834 0.0279 0.0863 0.0279 0.0898 0.0279 0.094 0.0279 0.0987 0.0279 0.104 0.0279 0.109 0.0279 0.115 0.0279 0.119 0.0279 0.124 0.0279 0.127 0.0279 0.129 0.0279 0.129 0.0279 0.127 0.0279 0.123 0.0279 0.116 0.0279 0.107 0.0279 0.0943 0.0279 0.0786 0.0279 0.0598 0.0279 0.0379 0.0279 0.013 0.0279-0.0146 0.0279-0.0447 0.0279-0.077 0.0279-0.111 0.0279-0.146 0.0279-0.182 0.0279-0.217 0.0279-0.253 0.0279-0.287 0.0279-0.319 0.0279-0.349 0.0279-0.376 0.0279-0.4v-17.4l-0.0279-0.4-0.0279-0.376-0.0279-0.349-0.0279-0.319-0.0279-0.287-0.0279-0.253-0.0279-0.217-0.0279-0.182-0.0279-0.146-0.0279-0.111-0.0279-0.077-0.0279-0.0447-0.0279-0.0146-0.0279 0.013-0.0279 0.0379-0.0279 0.0598-0.0279 0.0786-0.0279 0.0943-0.0279 0.107-0.0279 0.116-0.0279 0.123-0.0279 0.127-0.0279 0.129-0.0279 0.129-0.0279 0.127-0.0279 0.124-0.0279 0.119-0.0279 0.115-0.0279 0.109-0.0279 0.104-0.0279 0.0987-0.0279 0.094-0.0279 0.0898-0.0279 0.0863-0.0279 0.0834-0.0279 0.0812-0.0279 0.0795-0.0279 0.0781-0.0279 0.077-0.0279 0.0757-0.0279 0.074-0.0279 0.0716-0.0279 0.0681-0.0279 0.0634-0.0279 0.057-0.0279 0.0487-0.0279 0.0385-0.0279 0.026-0.0279 0.0115-0.0279-0.0052-0.0279-0.0238-0.0279-0.0441-0.0279-0.0657-0.0279-0.0882-0.0279-0.111-0.0279-0.134-0.0279-0.156-0.0279-0.176-0.0279-0.195-0.0279-0.211-0.0279-0.224-0.0279-0.234-0.0279-0.239-0.0279-0.24-0.0279-0.237-0.0279-0.229-0.0279-0.217-0.0279-0.201-0.0279-0.18-0.0279-0.157-0.0279-0.129-0.0279-0.0998-0.0279-0.0681-0.0279-0.035-0.0279-9.68e-4 -0.0279 0.0333-0.0279 0.0673-0.0279 0.1-0.0279 0.132-0.0279 0.163-0.0279 0.191-0.0279 0.217-0.0279 0.241-0.0279 0.263-0.0279 0.282-0.0279 0.299-0.0279 0.314-0.0279 0.326-0.0279 0.337-0.0279 0.345-0.0279 0.352-0.0279 0.357-0.0279 0.361-0.0279 0.363-0.0279 0.364-0.0279 0.363-0.0279 0.362-0.0279 0.359-0.0279 0.355z" clip-path="url(#a)" fill="#f00" fill-opacity=".3"/>
<path d="m497 106v3.12l0.0915 0.176 0.0915 0.184 0.0915 0.193 0.0915 0.2 0.0915 0.206 0.0915 0.211 0.0915 0.214 0.0915 0.217 0.0915 0.218 0.0915 0.219 0.0915 0.218 0.0915 0.217 0.0915 0.216 0.0915 0.214 0.0915 0.212 0.0915 0.211 0.0915 0.21 0.0915 0.211 0.0915 0.212 0.0915 0.214 0.0915 0.218 0.0915 0.223 0.0915 0.23 0.0915 0.237 0.0915 0.245 0.0915 0.254 0.0915 0.264 0.0915 0.273 0.0915 0.282 0.0915 0.29 0.0915 0.296 0.0915 0.301 0.0915 0.304 0.0915 0.304 0.0915 0.301 0.0915 0.296 0.0915 0.287 0.0915 0.276 0.0915 0.261 0.0915 0.243 0.0915 0.223 0.0915 0.2 0.0915 0.175 0.0915 0.148 0.0915 0.12 0.0915 0.0901 0.0915 0.0599 0.0915 0.0295 0.0915-6.96e-4 0.0915-0.0302 0.0915-0.0587 0.0915-0.0856 0.0915-0.111 0.0915-0.133 0.0915-0.153 0.0915-0.171 0.0915-0.185 0.0915-0.196 0.0915-0.205 0.0915-0.21 0.183-0.425 0.0915-0.211 0.0915-0.207 0.0915-0.202 0.0915-0.196 0.0915-0.189 0.0915-0.182 0.0915-0.176 0.0915-0.17 0.0915-0.166 0.0915-0.162 0.183-0.322 0.0915-0.163 0.0915-0.167 0.0915-0.173 0.0915-0.181 0.0915-0.19 0.0915-0.2 0.0915-0.211 0.0915-0.223 0.0915-0.234 0.0915-0.245 0.0915-0.255 0.0915-0.263 0.0915-0.271 0.0915-0.276 0.0915-0.28 0.0915-0.281 0.0915-0.281 0.0915-0.279 0.0915-0.276 0.0915-0.27 0.0915-0.263 0.0915-0.255 0.0915-0.246 0.0915-0.236 0.0915-0.225v-4.14l-0.0915-0.225-0.0915-0.236-0.0915-0.246-0.0915-0.255-0.0915-0.263-0.0915-0.27-0.0915-0.276-0.0915-0.279-0.0915-0.281-0.0915-0.281-0.0915-0.28-0.0915-0.276-0.0915-0.271-0.0915-0.263-0.0915-0.255-0.0915-0.245-0.0915-0.234-0.0915-0.223-0.0915-0.211-0.0915-0.2-0.0915-0.19-0.0915-0.181-0.0915-0.173-0.0915-0.167-0.0915-0.163-0.183-0.322-0.0915-0.162-0.0915-0.166-0.0915-0.17-0.0915-0.176-0.0915-0.182-0.0915-0.189-0.0915-0.196-0.0915-0.202-0.0915-0.207-0.0915-0.211-0.183-0.425-0.0915-0.21-0.0915-0.205-0.0915-0.196-0.0915-0.185-0.0915-0.171-0.0915-0.153-0.0915-0.133-0.0915-0.111-0.0915-0.0856-0.0915-0.0587-0.0915-0.0302-0.0915-6.96e-4 -0.0915 0.0295-0.0915 0.0599-0.0915 0.0901-0.0915 0.12-0.0915 0.148-0.0915 0.175-0.0915 0.2-0.0915 0.223-0.0915 0.243-0.0915 0.261-0.0915 0.276-0.0915 0.287-0.0915 0.296-0.0915 0.301-0.0915 0.304-0.0915 0.304-0.0915 0.301-0.0915 0.296-0.0915 0.29-0.0915 0.282-0.0915 0.273-0.0915 0.264-0.0915 0.254-0.0915 0.245-0.0915 0.237-0.0915 0.23-0.0915 0.223-0.0915 0.218-0.0915 0.214-0.0915 0.212-0.0915 0.211-0.0915 0.21-0.0915 0.211-0.0915 0.212-0.0915 0.214-0.0915 0.216-0.0915 0.217-0.0915 0.218-0.0915 0.219-0.0915 0.218-0.0915 0.217-0.0915 0.214-0.0915 0.211-0.0915 0.206-0.0915 0.2-0.0915 0.193-0.0915 0.184-0.0915 0.176z" clip-path="url(#a)" fill="#1f77b4" fill-opacity=".3"/>
<path d="m507 81.8v3.28l0.0483 0.246 0.0483 0.29 0.0483 0.341 0.0483 0.4 0.0483 0.465 0.0483 0.534 0.0483 0.604 0.0483 0.673 0.0483 0.734 0.0483 0.784 0.0483 0.817 0.0483 0.828 0.0483 0.814 0.0483 0.771 0.0483 0.698 0.0483 0.596 0.0483 0.466 0.0483 0.314 0.0483 0.146 0.0483-0.0314 0.0483-0.21 0.0483-0.38 0.0483-0.536 0.0483-0.669 0.0483-0.776 0.0483-0.852 0.0483-0.898 0.0483-0.913 0.0483-0.9 0.0483-0.862 0.0483-0.806 0.0483-0.736 0.0483-0.656 0.0483-0.573 0.0483-0.489 0.0483-0.409 0.0483-0.334 0.0483-0.267 0.0483-0.208 0.0483-0.158 0.0483-0.115 0.0483-0.0794 0.0483-0.0499 0.0483-0.0258 0.0483-0.00608 0.0483 0.01 0.0483 0.0231 0.0483 0.0337 0.0483 0.0419 0.0483 0.048 0.0483 0.052 0.0483 0.0538 0.0483 0.0534 0.0483 0.0508 0.0483 0.046 0.0483 0.0392 0.0483 0.0306 0.0483 0.0206 0.0483 0.00961 0.0483-0.00186 0.0483-0.0133 0.0483-0.024 0.0483-0.0337 0.0483-0.0419 0.0483-0.0483 0.0483-0.0528 0.0483-0.0552 0.0483-0.0557 0.0483-0.0545 0.0483-0.0518 0.0483-0.0479 0.0483-0.0432 0.0483-0.0378 0.0483-0.0321 0.0483-0.0263 0.0483-0.0205 0.0483-0.0148 0.0483-0.00917 0.0483-0.00366 0.0483 0.0018 0.0483 0.00728 0.0483 0.0128 0.0483 0.0185 0.0483 0.0243 0.0483 0.0301 0.0483 0.0359 0.0483 0.0414 0.0483 0.0464 0.0483 0.0506 0.0483 0.0538 0.0483 0.0555 0.0483 0.0556 0.0483 0.0538 0.0483 0.0501 0.0483 0.0443 0.0483 0.0367 0.0483 0.0275 0.0483 0.017 0.0483 0.00576v-1.47l-0.0483 0.00576-0.0483 0.017-0.0483 0.0275-0.0483 0.0367-0.0483 0.0443-0.0483 0.0501-0.0483 0.0538-0.0483 0.0556-0.0483 0.0555-0.0483 0.0538-0.0483 0.0506-0.0483 0.0464-0.0483 0.0414-0.0483 0.0359-0.0483 0.0301-0.0483 0.0243-0.0483 0.0185-0.0483 0.0128-0.0483 0.00728-0.0483 0.0018-0.0483-0.00366-0.0483-0.00917-0.0483-0.0148-0.0483-0.0205-0.0483-0.0263-0.0483-0.0321-0.0483-0.0378-0.0483-0.0432-0.0483-0.0479-0.0483-0.0518-0.0483-0.0545-0.0483-0.0557-0.0483-0.0552-0.0483-0.0528-0.0483-0.0483-0.0483-0.0419-0.0483-0.0337-0.0483-0.024-0.0483-0.0133-0.0483-0.00186-0.0483 0.00961-0.0483 0.0206-0.0483 0.0306-0.0483 0.0392-0.0483 0.046-0.0483 0.0508-0.0483 0.0534-0.0483 0.0538-0.0483 0.052-0.0483 0.048-0.0483 0.0419-0.0483 0.0337-0.0483 0.0231-0.0483 0.01-0.0483-0.00608-0.0483-0.0258-0.0483-0.0499-0.0483-0.0794-0.0483-0.115-0.0483-0.158-0.0483-0.208-0.0483-0.267-0.0483-0.334-0.0483-0.409-0.0483-0.489-0.0483-0.573-0.0483-0.656-0.0483-0.736-0.0483-0.806-0.0483-0.862-0.0483-0.9-0.0483-0.913-0.0483-0.898-0.0483-0.852-0.0483-0.776-0.0483-0.669-0.0483-0.536-0.0483-0.38-0.0483-0.21-0.0483-0.0314-0.0483 0.146-0.0483 0.314-0.0483 0.466-0.0483 0.596-0.0483 0.698-0.0483 0.771-0.0483 0.814-0.0483 0.828-0.0483 0.817-0.0483 0.784-0.0483 0.734-0.0483 0.673-0.0483 0.604-0.0483 0.534-0.0483 0.465-0.0483 0.4-0.0483 0.341-0.0483 0.29-0.0483 0.246z" clip-path="url(#a)" fill="#1f77b4" fill-opacity=".3"/>
<path d="m199 52.6v13.1l3.16 0.311 3.16 0.175 3.16 0.0519 3.16-0.0468 3.16-0.116 9.47-0.495 3.16-0.162 3.16-0.152 3.16-0.139 3.16-0.118 3.16-0.0814 3.16-0.0202 3.16 0.0722 3.16 0.197 3.16 0.35 3.16 0.516 3.16 0.676 3.16 0.808 3.16 0.887 3.16 0.895 3.16 0.818 3.16 0.654 3.16 0.414 3.16 0.116 3.16-0.211 3.16-0.535 3.16-0.824 3.16-1.05 3.16-1.2 3.16-1.27 3.16-1.26 3.16-1.18 3.16-1.05 3.16-0.899 3.16-0.735 3.16-0.576 3.16-0.435 3.16-0.316 3.16-0.221 3.16-0.149 3.16-0.0966 3.16-0.0606 3.16-0.0367 3.16-0.0215 3.16-0.0121 3.16-0.00661 3.16-0.00349 31.6-0.00341h3.16 3.16 3.16 3.16 3.16 3.16l31.6 2e-3 3.16 0.00196 3.16 0.00364 3.16 0.00651 3.16 0.0113 3.16 0.0188 3.16 0.0303 3.16 0.0471 3.16 0.0705 3.16 0.102 3.16 0.142 3.16 0.19 3.16 0.244 3.16 0.301 3.16 0.355 3.16 0.4 3.16 0.428 3.16 0.433 3.16 0.409 3.16 0.353 3.16 0.268 3.16 0.159 3.16 0.035 3.16-0.0924 3.16-0.211v-7.41l-3.16-0.211-3.16-0.0924-3.16 0.035-3.16 0.159-3.16 0.268-3.16 0.353-3.16 0.409-3.16 0.433-3.16 0.428-3.16 0.4-3.16 0.355-3.16 0.301-3.16 0.244-3.16 0.19-3.16 0.142-3.16 0.102-3.16 0.0705-3.16 0.0471-3.16 0.0303-3.16 0.0188-3.16 0.0113-3.16 0.00651-3.16 0.00364-31.6 0.00396h-3.16-3.16-3.16-3.16-3.16-3.16-3.16l-28.4-0.00163-3.16-0.00178-3.16-0.00349-3.16-0.00661-3.16-0.0121-3.16-0.0215-3.16-0.0367-3.16-0.0606-3.16-0.0966-3.16-0.149-3.16-0.221-3.16-0.316-3.16-0.435-3.16-0.576-3.16-0.735-3.16-0.899-3.16-1.05-3.16-1.18-3.16-1.26-3.16-1.27-3.16-1.2-3.16-1.05-3.16-0.824-3.16-0.535-3.16-0.211-3.16 0.116-3.16 0.414-3.16 0.654-3.16 0.818-3.16 0.895-3.16 0.887-3.16 0.808-3.16 0.676-3.16 0.516-3.16 0.35-3.16 0.197-3.16 0.0722-3.16-0.0202-3.16-0.0814-3.16-0.118-3.16-0.139-3.16-0.152-3.16-0.162-9.47-0.495-3.16-0.116-3.16-0.0468-3.16 0.0519-3.16 0.175-3.16 0.311z" clip-path="url(#a)" fill="#1f77b4" fill-opacity=".3"/>
<path d="m189 448v-414" clip-path="url(#a)" fill="none" stroke="#b0b0b0" stroke-linecap="square" stroke-width=".8"/>
<defs>
<path id="ab" d="m0 0v3.5" stroke="#000" stroke-width=".8"/>
</defs>
<use x="189.170173" y="448.321635" stroke="#000000" stroke-width=".8" xlink:href="#ab"/>
<defs>
<path id="aa" d="m0 0v-3.5" stroke="#000" stroke-width=".8"/>
</defs>
<use x="189.170173" y="34.79649" stroke="#000000" stroke-width=".8" xlink:href="#aa"/>
<g transform="translate(174 463) scale(.1 -.1)">
<defs>
<path id="b" transform="scale(.0156)" d="m2034 4250q-487 0-733-480-245-479-245-1442 0-959 245-1439 246-480 733-480 491 0 736 480 246 480 246 1439 0 963-246 1442-245 480-736 480zm0 500q785 0 1199-621 414-620 414-1801 0-1178-414-1799-414-620-1199-620-784 0-1198 620-414 621-414 1799 0 1181 414 1801 414 621 1198 621z"/>
<path id="c" transform="scale(.0156)" d="m684 794h660v-794h-660v794z"/>
<path id="q" transform="scale(.0156)" d="m4488 3438-1429-1435 1429-1428-372-378-1435 1434-1434-1434-369 378 1425 1428-1425 1435 369 378 1434-1435 1435 1435 372-378z"/>
</defs>
<use xlink:href="#b"/>
<use x="63.623047" xlink:href="#c"/>
<use x="95.410156" xlink:href="#b"/>
<use x="159.033203" xlink:href="#b"/>
<use x="222.65625" xlink:href="#q"/>
</g>
<g transform="translate(174 25.7) scale(.1 -.1)">
<use xlink:href="#b"/>
<use x="63.623047" xlink:href="#c"/>
<use x="95.410156" xlink:href="#b"/>
<use x="159.033203" xlink:href="#b"/>
<use x="222.65625" xlink:href="#q"/>
</g>
<path d="m253 448v-414" clip-path="url(#a)" fill="none" stroke="#b0b0b0" stroke-linecap="square" stroke-width=".8"/>
<use x="253.182507" y="448.321635" stroke="#000000" stroke-width=".8" xlink:href="#ab"/>
<use x="253.182507" y="34.79649" stroke="#000000" stroke-width=".8" xlink:href="#aa"/>
<g transform="translate(238 463) scale(.1 -.1)">
<defs>
<path id="o" transform="scale(.0156)" d="m1228 531h2203v-531h-2962v531q359 372 979 998 621 627 780 809 303 340 423 576 121 236 121 464 0 372-261 606-261 235-680 235-297 0-627-103-329-103-704-313v638q381 153 712 231 332 78 607 78 725 0 1156-363 431-362 431-968 0-288-108-546-107-257-392-607-78-91-497-524-418-433-1181-1211z"/>
</defs>
<use xlink:href="#b"/>
<use x="63.623047" xlink:href="#c"/>
<use x="95.410156" xlink:href="#o"/>
<use x="159.033203" xlink:href="#b"/>
<use x="222.65625" xlink:href="#q"/>
</g>
<g transform="translate(238 25.7) scale(.1 -.1)">
<use xlink:href="#b"/>
<use x="63.623047" xlink:href="#c"/>
<use x="95.410156" xlink:href="#o"/>
<use x="159.033203" xlink:href="#b"/>
<use x="222.65625" xlink:href="#q"/>
</g>
<path d="m317 448v-414" clip-path="url(#a)" fill="none" stroke="#b0b0b0" stroke-linecap="square" stroke-width=".8"/>
<use x="317.194841" y="448.321635" stroke="#000000" stroke-width=".8" xlink:href="#ab"/>
<use x="317.194841" y="34.79649" stroke="#000000" stroke-width=".8" xlink:href="#aa"/>
<g transform="translate(302 463) scale(.1 -.1)">
<defs>
<path id="x" transform="scale(.0156)" d="m2419 4116-1594-2491h1594v2491zm-166 550h794v-3041h666v-525h-666v-1100h-628v1100h-2106v609l1940 2957z"/>
</defs>
<use xlink:href="#b"/>
<use x="63.623047" xlink:href="#c"/>
<use x="95.410156" xlink:href="#x"/>
<use x="159.033203" xlink:href="#b"/>
<use x="222.65625" xlink:href="#q"/>
</g>
<g transform="translate(302 25.7) scale(.1 -.1)">
<use xlink:href="#b"/>
<use x="63.623047" xlink:href="#c"/>
<use x="95.410156" xlink:href="#x"/>
<use x="159.033203" xlink:href="#b"/>
<use x="222.65625" xlink:href="#q"/>
</g>
<path d="m381 448v-414" clip-path="url(#a)" fill="none" stroke="#b0b0b0" stroke-linecap="square" stroke-width=".8"/>
<use x="381.207176" y="448.321635" stroke="#000000" stroke-width=".8" xlink:href="#ab"/>
<use x="381.207176" y="34.79649" stroke="#000000" stroke-width=".8" xlink:href="#aa"/>
<g transform="translate(366 463) scale(.1 -.1)">
<defs>
<path id="ad" transform="scale(.0156)" d="m2113 2584q-425 0-674-291-248-290-248-796 0-503 248-796 249-292 674-292t673 292q248 293 248 796 0 506-248 796-248 291-673 291zm1253 1979v-575q-238 112-480 171-242 60-480 60-625 0-955-422-329-422-376-1275 184 272 462 417 279 145 613 145 703 0 1111-427 408-426 408-1160 0-719-425-1154-425-434-1131-434-810 0-1238 620-428 621-428 1799 0 1106 525 1764t1409 658q238 0 480-47t505-140z"/>
</defs>
<use xlink:href="#b"/>
<use x="63.623047" xlink:href="#c"/>
<use x="95.410156" xlink:href="#ad"/>
<use x="159.033203" xlink:href="#b"/>
<use x="222.65625" xlink:href="#q"/>
</g>
<g transform="translate(366 25.7) scale(.1 -.1)">
<use xlink:href="#b"/>
<use x="63.623047" xlink:href="#c"/>
<use x="95.410156" xlink:href="#ad"/>
<use x="159.033203" xlink:href="#b"/>
<use x="222.65625" xlink:href="#q"/>
</g>
<path d="m445 448v-414" clip-path="url(#a)" fill="none" stroke="#b0b0b0" stroke-linecap="square" stroke-width=".8"/>
<use x="445.21951" y="448.321635" stroke="#000000" stroke-width=".8" xlink:href="#ab"/>
<use x="445.21951" y="34.79649" stroke="#000000" stroke-width=".8" xlink:href="#aa"/>
<g transform="translate(430 463) scale(.1 -.1)">
<defs>
<path id="v" transform="scale(.0156)" d="m2034 2216q-450 0-708-241-257-241-257-662 0-422 257-663 258-241 708-241t709 242q260 243 260 662 0 421-258 662-257 241-711 241zm-631 268q-406 100-633 378-226 279-226 679 0 559 398 884 399 325 1092 325 697 0 1094-325t397-884q0-400-227-679-226-278-629-378 456-106 710-416 255-309 255-755 0-679-414-1042-414-362-1186-362-771 0-1186 362-414 363-414 1042 0 446 256 755 257 310 713 416zm-231 997q0-362 226-565 227-203 636-203 407 0 636 203 230 203 230 565 0 363-230 566-229 203-636 203-409 0-636-203-226-203-226-566z"/>
</defs>
<use xlink:href="#b"/>
<use x="63.623047" xlink:href="#c"/>
<use x="95.410156" xlink:href="#v"/>
<use x="159.033203" xlink:href="#b"/>
<use x="222.65625" xlink:href="#q"/>
</g>
<g transform="translate(430 25.7) scale(.1 -.1)">
<use xlink:href="#b"/>
<use x="63.623047" xlink:href="#c"/>
<use x="95.410156" xlink:href="#v"/>
<use x="159.033203" xlink:href="#b"/>
<use x="222.65625" xlink:href="#q"/>
</g>
<path d="m509 448v-414" clip-path="url(#a)" fill="none" stroke="#b0b0b0" stroke-linecap="square" stroke-width=".8"/>
<use x="509.231844" y="448.321635" stroke="#000000" stroke-width=".8" xlink:href="#ab"/>
<use x="509.231844" y="34.79649" stroke="#000000" stroke-width=".8" xlink:href="#aa"/>
<g transform="translate(494 463) scale(.1 -.1)">
<defs>
<path id="t" transform="scale(.0156)" d="m794 531h1031v3560l-1122-225v575l1116 225h631v-4135h1031v-531h-2687v531z"/>
</defs>
<use xlink:href="#t"/>
<use x="63.623047" xlink:href="#c"/>
<use x="95.410156" xlink:href="#b"/>
<use x="159.033203" xlink:href="#b"/>
<use x="222.65625" xlink:href="#q"/>
</g>
<g transform="translate(494 25.7) scale(.1 -.1)">
<use xlink:href="#t"/>
<use x="63.623047" xlink:href="#c"/>
<use x="95.410156" xlink:href="#b"/>
<use x="159.033203" xlink:href="#b"/>
<use x="222.65625" xlink:href="#q"/>
</g>
<path d="m183 424h344" clip-path="url(#a)" fill="none" stroke="#b0b0b0" stroke-linecap="square" stroke-width=".8"/>
<defs>
<path id="k" d="m0 0h-3.5" stroke="#000" stroke-width=".8"/>
</defs>
<use x="183.429927" y="423.996626" stroke="#000000" stroke-width=".8" xlink:href="#k"/>
<g transform="translate(154 428) scale(.1 -.1)">
<defs>
<path id="e" transform="scale(.0156)" d="m1172 4494v-994h1184v-447h-1184v-1900q0-428 117-550t477-122h590v-481h-590q-666 0-919 248-253 249-253 905v1900h-422v447h422v994h578z"/>
<path id="g" transform="scale(.0156)" d="m1959 3097q-462 0-731-361t-269-989 267-989q268-361 733-361 460 0 728 362 269 363 269 988 0 622-269 986-268 364-728 364zm0 487q750 0 1178-488 429-487 429-1349 0-859-429-1349-428-489-1178-489-753 0-1180 489-426 490-426 1349 0 862 426 1349 427 488 1180 488z"/>
<path id="s" transform="scale(.0156)" d="m2597 2516q453-97 707-404 255-306 255-756 0-690-475-1069-475-378-1350-378-293 0-604 58t-642 174v609q262-153 574-231 313-78 654-78 593 0 904 234t311 681q0 413-289 645-289 233-804 233h-544v519h569q465 0 712 186t247 536q0 359-255 551-254 193-729 193-260 0-557-57-297-56-653-174v562q360 100 674 150t592 50q719 0 1137-327 419-326 419-882 0-388-222-655t-631-370z"/>
</defs>
<use xlink:href="#o"/>
<use x="63.623047" xlink:href="#e"/>
<use x="102.832031" xlink:href="#g"/>
<use x="164.013672" xlink:href="#s"/>
</g>
<path d="m183 400h344" clip-path="url(#a)" fill="none" stroke="#b0b0b0" stroke-linecap="square" stroke-width=".8"/>
<use x="183.429927" y="399.671618" stroke="#000000" stroke-width=".8" xlink:href="#k"/>
<g transform="translate(60 403) scale(.1 -.1)">
<defs>
<path id="n" transform="scale(.0156)" d="m1159 525v-1856h-578v4831h578v-531q182 312 458 463 277 152 661 152 638 0 1036-506 399-506 399-1331t-399-1332q-398-506-1036-506-384 0-661 152-276 152-458 464zm1957 1222q0 634-261 995t-717 361q-457 0-718-361t-261-995 261-995 718-361q456 0 717 361t261 995z"/>
<path id="p" transform="scale(.0156)" d="m2059-325q-243-625-475-815-231-191-618-191h-460v481h338q237 0 368 113 132 112 291 531l103 262-1415 3444h609l1094-2737 1094 2737h609l-1538-3825z"/>
<path id="u" transform="scale(.0156)" d="m3513 2113v-2113h-575v2094q0 497-194 743-194 247-581 247-466 0-735-297-269-296-269-809v-1978h-578v4863h578v-1907q207 316 486 472 280 156 646 156 603 0 912-373 310-373 310-1098z"/>
<path id="j" transform="scale(.0156)" d="m3513 2113v-2113h-575v2094q0 497-194 743-194 247-581 247-466 0-735-297-269-296-269-809v-1978h-578v3500h578v-544q207 316 486 472 280 156 646 156 603 0 912-373 310-373 310-1098z"/>
<path id="f" transform="scale(.0156)" d="m3263-1063v-446h-3326v446h3326z"/>
<path id="i" transform="scale(.0156)" d="m2834 3397v-544q-243 125-506 187-262 63-544 63-428 0-642-131t-214-394q0-200 153-314t616-217l197-44q612-131 870-370t258-667q0-488-386-773-386-284-1061-284-281 0-586 55t-642 164v594q319-166 628-249 309-82 613-82 406 0 624 139 219 139 219 392 0 234-158 359-157 125-692 241l-200 47q-534 112-772 345-237 233-237 639 0 494 350 762 350 269 994 269 318 0 599-47 282-46 519-140z"/>
<path id="h" transform="scale(.0156)" d="m2194 1759q-697 0-966-159t-269-544q0-306 202-486 202-179 548-179 479 0 768 339t289 901v128h-572zm1147 238v-2e3h-575v531q-197-318-491-470t-719-152q-537 0-855 302-317 302-317 808 0 590 395 890 396 300 1180 300h807v57q0 397-261 614t-733 217q-300 0-585-72-284-72-546-216v532q315 122 612 182 297 61 578 61 760 0 1135-394 375-393 375-1193z"/>
<path id="m" transform="scale(.0156)" d="m2631 2963q-97 56-211 82-114 27-251 27-488 0-749-317t-261-911v-1844h-578v3500h578v-544q182 319 472 473 291 155 707 155 59 0 131-8 72-7 159-23l3-590z"/>
<path id="ah" transform="scale(.0156)" d="m544 1381v2119h575v-2097q0-497 193-746 194-248 582-248 465 0 735 297 271 297 271 810v1984h575v-3500h-575v538q-209-319-486-474-276-155-642-155-603 0-916 375-312 375-312 1097zm1447 2203z"/>
<path id="l" transform="scale(.0156)" d="m603 3500h575v-3500h-575v3500zm0 1363h575v-729h-575v729z"/>
<path id="d" transform="scale(.0156)" d="m3597 1894v-281h-2644q38-594 358-905t892-311q331 0 642 81t618 244v-544q-310-131-635-200t-659-69q-838 0-1327 487-489 488-489 1320 0 859 464 1363 464 505 1252 505 706 0 1117-455 411-454 411-1235zm-575 169q-6 471-264 752-258 282-683 282-481 0-770-272t-333-766l2050 4z"/>
</defs>
<use xlink:href="#n"/>
<use x="63.476562" xlink:href="#p"/>
<use x="122.65625" xlink:href="#e"/>
<use x="161.865234" xlink:href="#u"/>
<use x="225.244141" xlink:href="#g"/>
<use x="286.425781" xlink:href="#j"/>
<use x="349.804688" xlink:href="#f"/>
<use x="399.804688" xlink:href="#i"/>
<use x="451.904297" xlink:href="#e"/>
<use x="491.113281" xlink:href="#h"/>
<use x="552.392578" xlink:href="#m"/>
<use x="593.505859" xlink:href="#e"/>
<use x="632.714844" xlink:href="#ah"/>
<use x="696.09375" xlink:href="#n"/>
<use x="759.570312" xlink:href="#f"/>
<use x="809.570312" xlink:href="#j"/>
<use x="872.949219" xlink:href="#g"/>
<use x="934.130859" xlink:href="#f"/>
<use x="984.130859" xlink:href="#i"/>
<use x="1036.230469" xlink:href="#l"/>
<use x="1064.013672" xlink:href="#e"/>
<use x="1103.222656" xlink:href="#d"/>
</g>
<path d="m183 375h344" clip-path="url(#a)" fill="none" stroke="#b0b0b0" stroke-linecap="square" stroke-width=".8"/>
<use x="183.429927" y="375.346609" stroke="#000000" stroke-width=".8" xlink:href="#k"/>
<g transform="translate(142 379) scale(.1 -.1)">
<defs>
<path id="y" transform="scale(.0156)" d="m3328 2828q216 388 516 572t706 184q547 0 844-383 297-382 297-1088v-2113h-578v2094q0 503-179 746-178 244-543 244-447 0-707-297-259-296-259-809v-1978h-578v2094q0 506-178 748t-550 242q-441 0-701-298-259-298-259-808v-1978h-578v3500h578v-544q197 322 472 475t653 153q382 0 649-194 267-193 395-562z"/>
</defs>
<use xlink:href="#y"/>
<use x="97.412109" xlink:href="#p"/>
<use x="156.591797" xlink:href="#n"/>
<use x="220.068359" xlink:href="#p"/>
<use x="279.248047" xlink:href="#o"/>
</g>
<path d="m183 351h344" clip-path="url(#a)" fill="none" stroke="#b0b0b0" stroke-linecap="square" stroke-width=".8"/>
<use x="183.429927" y="351.021601" stroke="#000000" stroke-width=".8" xlink:href="#k"/>
<g transform="translate(59.2 355) scale(.1 -.1)">
<defs>
<path id="r" transform="scale(.0156)" d="m3122 3366v-538q-244 135-489 202t-495 67q-560 0-870-355-309-354-309-995t309-996q310-354 870-354 250 0 495 67t489 202v-532q-241-112-499-168-257-57-548-57-791 0-1257 497-465 497-465 1341 0 856 470 1346 471 491 1290 491 265 0 518-55 253-54 491-163z"/>
<path id="w" transform="scale(.0156)" d="m2906 1791q0 625-258 968-257 344-723 344-462 0-720-344-258-343-258-968 0-622 258-966t720-344q466 0 723 344 258 344 258 966zm575-1357q0-893-397-1329-396-436-1215-436-303 0-572 45t-522 139v559q253-137 500-202 247-66 503-66 566 0 847 295t281 892v285q-178-310-456-463t-666-153q-643 0-1037 490-394 491-394 1301 0 812 394 1302 394 491 1037 491 388 0 666-153t456-462v531h575v-3066z"/>
</defs>
<use xlink:href="#h"/>
<use x="61.279297" xlink:href="#i"/>
<use x="113.378906" xlink:href="#p"/>
<use x="172.558594" xlink:href="#j"/>
<use x="235.9375" xlink:href="#r"/>
<use x="290.917969" xlink:href="#f"/>
<use x="340.917969" xlink:href="#e"/>
<use x="380.126953" xlink:href="#m"/>
<use x="418.990234" xlink:href="#d"/>
<use x="480.513672" xlink:href="#d"/>
<use x="542.037109" xlink:href="#f"/>
<use x="592.037109" xlink:href="#d"/>
<use x="653.560547" xlink:href="#h"/>
<use x="714.839844" xlink:href="#w"/>
<use x="778.316406" xlink:href="#d"/>
<use x="839.839844" xlink:href="#m"/>
<use x="880.953125" xlink:href="#f"/>
<use x="930.953125" xlink:href="#l"/>
<use x="958.736328" xlink:href="#g"/>
<use x="1019.917969" xlink:href="#f"/>
<use x="1069.917969" xlink:href="#e"/>
<use x="1109.126953" xlink:href="#w"/>
</g>
<path d="m183 327h344" clip-path="url(#a)" fill="none" stroke="#b0b0b0" stroke-linecap="square" stroke-width=".8"/>
<use x="183.429927" y="326.696592" stroke="#000000" stroke-width=".8" xlink:href="#k"/>
<g transform="translate(75.2 330) scale(.1 -.1)">
<defs>
<path id="ao" transform="scale(.0156)" d="m269 3500h575l719-2731 715 2731h678l719-2731 716 2731h575l-916-3500h-678l-753 2869-756-2869h-679l-915 3500z"/>
<path id="af" transform="scale(.0156)" d="m3116 1747q0 634-261 995t-717 361q-457 0-718-361t-261-995 261-995 718-361q456 0 717 361t261 995zm-1957 1222q182 312 458 463 277 152 661 152 638 0 1036-506 399-506 399-1331t-399-1332q-398-506-1036-506-384 0-661 152-276 152-458 464v-525h-578v4863h578v-1894z"/>
<path id="ap" transform="scale(.0156)" d="m581 4863h578v-2872l1716 1509h734l-1856-1637 1935-1863h-750l-1779 1709v-1709h-578v4863z"/>
</defs>
<use xlink:href="#h"/>
<use x="61.279297" xlink:href="#i"/>
<use x="113.378906" xlink:href="#p"/>
<use x="172.558594" xlink:href="#j"/>
<use x="235.9375" xlink:href="#r"/>
<use x="290.917969" xlink:href="#l"/>
<use x="318.701172" xlink:href="#g"/>
<use x="379.882812" xlink:href="#f"/>
<use x="429.882812" xlink:href="#ao"/>
<use x="511.669922" xlink:href="#d"/>
<use x="573.193359" xlink:href="#af"/>
<use x="636.669922" xlink:href="#i"/>
<use x="688.769531" xlink:href="#g"/>
<use x="749.951172" xlink:href="#r"/>
<use x="804.931641" xlink:href="#ap"/>
<use x="859.216797" xlink:href="#d"/>
<use x="920.740234" xlink:href="#e"/>
<use x="959.949219" xlink:href="#i"/>
</g>
<path d="m183 302h344" clip-path="url(#a)" fill="none" stroke="#b0b0b0" stroke-linecap="square" stroke-width=".8"/>
<use x="183.429927" y="302.371584" stroke="#000000" stroke-width=".8" xlink:href="#k"/>
<g transform="translate(3 306) scale(.1 -.1)">
<defs>
<path id="an" transform="scale(.0156)" d="m353 3500h2731v-525l-2162-2516h2162v-459h-2809v525l2163 2516h-2085v459z"/>
</defs>
<use xlink:href="#h"/>
<use x="61.279297" xlink:href="#i"/>
<use x="113.378906" xlink:href="#p"/>
<use x="172.558594" xlink:href="#j"/>
<use x="235.9375" xlink:href="#r"/>
<use x="290.917969" xlink:href="#f"/>
<use x="340.917969" xlink:href="#e"/>
<use x="380.126953" xlink:href="#m"/>
<use x="418.990234" xlink:href="#d"/>
<use x="480.513672" xlink:href="#d"/>
<use x="542.037109" xlink:href="#f"/>
<use x="592.037109" xlink:href="#d"/>
<use x="653.560547" xlink:href="#h"/>
<use x="714.839844" xlink:href="#w"/>
<use x="778.316406" xlink:href="#d"/>
<use x="839.839844" xlink:href="#m"/>
<use x="880.953125" xlink:href="#f"/>
<use x="930.953125" xlink:href="#y"/>
<use x="1028.365234" xlink:href="#d"/>
<use x="1089.888672" xlink:href="#y"/>
<use x="1187.300781" xlink:href="#g"/>
<use x="1248.482422" xlink:href="#l"/>
<use x="1276.265625" xlink:href="#an"/>
<use x="1328.755859" xlink:href="#h"/>
<use x="1390.035156" xlink:href="#e"/>
<use x="1429.244141" xlink:href="#l"/>
<use x="1457.027344" xlink:href="#g"/>
<use x="1518.208984" xlink:href="#j"/>
<use x="1581.587891" xlink:href="#f"/>
<use x="1631.587891" xlink:href="#e"/>
<use x="1670.796875" xlink:href="#w"/>
</g>
<path d="m183 278h344" clip-path="url(#a)" fill="none" stroke="#b0b0b0" stroke-linecap="square" stroke-width=".8"/>
<use x="183.429927" y="278.046575" stroke="#000000" stroke-width=".8" xlink:href="#k"/>
<g transform="translate(135 282) scale(.1 -.1)">
<defs>
<path id="ac" transform="scale(.0156)" d="m603 4863h575v-4863h-575v4863z"/>
<path id="ae" transform="scale(.0156)" d="m691 4666h2478v-532h-1900v-1143q137 47 274 70 138 23 276 23 781 0 1237-428 457-428 457-1159 0-753-469-1171-469-417-1322-417-294 0-599 50-304 50-629 150v635q281-153 581-228t634-75q541 0 856 284 316 284 316 772 0 487-316 771-315 285-856 285-253 0-505-56-251-56-513-175v2344z"/>
</defs>
<use xlink:href="#u"/>
<use x="63.378906" xlink:href="#e"/>
<use x="102.587891" xlink:href="#y"/>
<use x="200" xlink:href="#ac"/>
<use x="227.783203" xlink:href="#ae"/>
<use x="291.40625" xlink:href="#ac"/>
<use x="319.189453" xlink:href="#l"/>
<use x="346.972656" xlink:href="#af"/>
</g>
<path d="m183 254h344" clip-path="url(#a)" fill="none" stroke="#b0b0b0" stroke-linecap="square" stroke-width=".8"/>
<use x="183.429927" y="253.721567" stroke="#000000" stroke-width=".8" xlink:href="#k"/>
<g transform="translate(88.3 257) scale(.1 -.1)">
<use xlink:href="#h"/>
<use x="61.279297" xlink:href="#i"/>
<use x="113.378906" xlink:href="#p"/>
<use x="172.558594" xlink:href="#j"/>
<use x="235.9375" xlink:href="#r"/>
<use x="290.917969" xlink:href="#f"/>
<use x="340.917969" xlink:href="#e"/>
<use x="380.126953" xlink:href="#m"/>
<use x="418.990234" xlink:href="#d"/>
<use x="480.513672" xlink:href="#d"/>
<use x="542.037109" xlink:href="#f"/>
<use x="592.037109" xlink:href="#d"/>
<use x="653.560547" xlink:href="#h"/>
<use x="714.839844" xlink:href="#w"/>
<use x="778.316406" xlink:href="#d"/>
<use x="839.839844" xlink:href="#m"/>
</g>
<path d="m183 229h344" clip-path="url(#a)" fill="none" stroke="#b0b0b0" stroke-linecap="square" stroke-width=".8"/>
<use x="183.429927" y="229.396558" stroke="#000000" stroke-width=".8" xlink:href="#k"/>
<g transform="translate(81.6 233) scale(.1 -.1)">
<defs>
<path id="ai" transform="scale(.0156)" d="m2906 2969v1894h575v-4863h-575v525q-181-312-458-464-276-152-664-152-634 0-1033 506-398 507-398 1332t398 1331q399 506 1033 506 388 0 664-152 277-151 458-463zm-1959-1222q0-634 261-995t717-361 718 361q263 361 263 995t-263 995q-262 361-718 361t-717-361-261-995z"/>
</defs>
<use xlink:href="#af"/>
<use x="63.476562" xlink:href="#d"/>
<use x="125" xlink:href="#j"/>
<use x="188.378906" xlink:href="#r"/>
<use x="243.359375" xlink:href="#u"/>
<use x="306.738281" xlink:href="#f"/>
<use x="356.738281" xlink:href="#e"/>
<use x="395.947266" xlink:href="#u"/>
<use x="459.326172" xlink:href="#m"/>
<use x="498.189453" xlink:href="#d"/>
<use x="559.712891" xlink:href="#h"/>
<use x="620.992188" xlink:href="#ai"/>
<use x="684.46875" xlink:href="#f"/>
<use x="734.46875" xlink:href="#n"/>
<use x="797.945312" xlink:href="#g"/>
<use x="859.126953" xlink:href="#g"/>
<use x="920.308594" xlink:href="#ac"/>
</g>
<path d="m183 205h344" clip-path="url(#a)" fill="none" stroke="#b0b0b0" stroke-linecap="square" stroke-width=".8"/>
<use x="183.429927" y="205.07155" stroke="#000000" stroke-width=".8" xlink:href="#k"/>
<g transform="translate(128 209) scale(.1 -.1)">
<use xlink:href="#ai"/>
<use x="63.476562" xlink:href="#d"/>
<use x="125" xlink:href="#d"/>
<use x="186.523438" xlink:href="#n"/>
<use x="250" xlink:href="#r"/>
<use x="304.980469" xlink:href="#g"/>
<use x="366.162109" xlink:href="#n"/>
<use x="429.638672" xlink:href="#p"/>
</g>
<path d="m183 181h344" clip-path="url(#a)" fill="none" stroke="#b0b0b0" stroke-linecap="square" stroke-width=".8"/>
<use x="183.429927" y="180.746541" stroke="#000000" stroke-width=".8" xlink:href="#k"/>
<g transform="translate(142 185) scale(.1 -.1)">
<use xlink:href="#n"/>
<use x="63.476562" xlink:href="#h"/>
<use x="124.755859" xlink:href="#e"/>
<use x="163.964844" xlink:href="#u"/>
<use x="227.34375" xlink:href="#ac"/>
<use x="255.126953" xlink:href="#l"/>
<use x="282.910156" xlink:href="#af"/>
</g>
<path d="m183 156h344" clip-path="url(#a)" fill="none" stroke="#b0b0b0" stroke-linecap="square" stroke-width=".8"/>
<use x="183.429927" y="156.421533" stroke="#000000" stroke-width=".8" xlink:href="#k"/>
<g transform="translate(110 160) scale(.1 -.1)">
<use xlink:href="#r"/>
<use x="54.980469" xlink:href="#m"/>
<use x="96.09375" xlink:href="#p"/>
<use x="155.273438" xlink:href="#n"/>
<use x="218.75" xlink:href="#e"/>
<use x="257.958984" xlink:href="#g"/>
<use x="319.140625" xlink:href="#f"/>
<use x="369.140625" xlink:href="#n"/>
<use x="432.617188" xlink:href="#p"/>
<use x="491.796875" xlink:href="#h"/>
<use x="553.076172" xlink:href="#d"/>
<use x="614.599609" xlink:href="#i"/>
</g>
<path d="m183 132h344" clip-path="url(#a)" fill="none" stroke="#b0b0b0" stroke-linecap="square" stroke-width=".8"/>
<use x="183.429927" y="132.096524" stroke="#000000" stroke-width=".8" xlink:href="#k"/>
<g transform="translate(136 136) scale(.1 -.1)">
<use xlink:href="#m"/>
<use x="41.113281" xlink:href="#l"/>
<use x="68.896484" xlink:href="#r"/>
<use x="123.876953" xlink:href="#u"/>
<use x="187.255859" xlink:href="#h"/>
<use x="248.535156" xlink:href="#m"/>
<use x="287.898438" xlink:href="#ai"/>
<use x="351.375" xlink:href="#i"/>
</g>
<path d="m183 108h344" clip-path="url(#a)" fill="none" stroke="#b0b0b0" stroke-linecap="square" stroke-width=".8"/>
<use x="183.429927" y="107.771516" stroke="#000000" stroke-width=".8" xlink:href="#k"/>
<g transform="translate(98.3 112) scale(.1 -.1)">
<use xlink:href="#af"/>
<use x="63.476562" xlink:href="#d"/>
<use x="125" xlink:href="#j"/>
<use x="188.378906" xlink:href="#r"/>
<use x="243.359375" xlink:href="#u"/>
<use x="306.738281" xlink:href="#f"/>
<use x="356.738281" xlink:href="#y"/>
<use x="454.150391" xlink:href="#n"/>
<use x="517.626953" xlink:href="#f"/>
<use x="567.626953" xlink:href="#n"/>
<use x="631.103516" xlink:href="#g"/>
<use x="692.285156" xlink:href="#g"/>
<use x="753.466797" xlink:href="#ac"/>
</g>
<path d="m183 83.4h344" clip-path="url(#a)" fill="none" stroke="#b0b0b0" stroke-linecap="square" stroke-width=".8"/>
<use x="183.429927" y="83.446507" stroke="#000000" stroke-width=".8" xlink:href="#k"/>
<g transform="translate(100 87.2) scale(.1 -.1)">
<use xlink:href="#n"/>
<use x="63.476562" xlink:href="#p"/>
<use x="122.65625" xlink:href="#e"/>
<use x="161.865234" xlink:href="#u"/>
<use x="225.244141" xlink:href="#g"/>
<use x="286.425781" xlink:href="#j"/>
<use x="349.804688" xlink:href="#f"/>
<use x="399.804688" xlink:href="#i"/>
<use x="451.904297" xlink:href="#e"/>
<use x="491.113281" xlink:href="#h"/>
<use x="552.392578" xlink:href="#m"/>
<use x="593.505859" xlink:href="#e"/>
<use x="632.714844" xlink:href="#ah"/>
<use x="696.09375" xlink:href="#n"/>
</g>
<path d="m183 59.1h344" clip-path="url(#a)" fill="none" stroke="#b0b0b0" stroke-linecap="square" stroke-width=".8"/>
<use x="183.429927" y="59.121499" stroke="#000000" stroke-width=".8" xlink:href="#k"/>
<g transform="translate(158 62.9) scale(.1 -.1)">
<defs>
<path id="ar" transform="scale(.0156)" d="m2188 4044-857-2322h1716l-859 2322zm-357 622h716l1778-4666h-656l-425 1197h-2103l-425-1197h-666l1781 4666z"/>
<path id="ak" transform="scale(.0156)" d="m628 4666h631v-4135h2272v-531h-2903v4666z"/>
</defs>
<use xlink:href="#ar"/>
<use x="68.408203" xlink:href="#ak"/>
<use x="124.121094" xlink:href="#ak"/>
</g>
<path d="m509 448v-414" clip-path="url(#a)" fill="none" stroke="#1f77b4" stroke-linecap="square" stroke-width="1.5"/>
<g fill="none" stroke="#1f77b4" stroke-width="1.5">
<path d="m509 430v-12.2" clip-path="url(#a)"/>
<path d="m509 406v-12.2" clip-path="url(#a)"/>
<path d="m199 381v-12.2" clip-path="url(#a)"/>
<path d="m202 357v-12.2" clip-path="url(#a)"/>
<path d="m205 333v-12.2" clip-path="url(#a)"/>
<path d="m233 308v-12.2" clip-path="url(#a)"/>
<path d="m236 284v-12.2" clip-path="url(#a)"/>
<path d="m267 260v-12.2" clip-path="url(#a)"/>
<path d="m281 235v-12.2" clip-path="url(#a)"/>
<path d="m282 211v-12.2" clip-path="url(#a)"/>
<path d="m282 187v-12.2" clip-path="url(#a)"/>
<path d="m284 163v-12.2" clip-path="url(#a)"/>
<path d="m289 138v-12.2" clip-path="url(#a)"/>
<path d="m502 114v-12.2" clip-path="url(#a)"/>
<path d="m508 89.5v-12.2" clip-path="url(#a)"/>
<path d="m289 65.2v-12.2" clip-path="url(#a)"/>
</g>
<g fill="none" stroke="#1f77b4" stroke-width="1.5">
<path d="m509 430v-12.2" clip-path="url(#a)"/>
<path d="m509 406v-12.2" clip-path="url(#a)"/>
<path d="m200 381v-12.2" clip-path="url(#a)"/>
<path d="m202 357v-12.2" clip-path="url(#a)"/>
<path d="m208 333v-12.2" clip-path="url(#a)"/>
<path d="m233 308v-12.2" clip-path="url(#a)"/>
<path d="m237 284v-12.2" clip-path="url(#a)"/>
<path d="m267 260v-12.2" clip-path="url(#a)"/>
<path d="m281 235v-12.2" clip-path="url(#a)"/>
<path d="m283 211v-12.2" clip-path="url(#a)"/>
<path d="m284 187v-12.2" clip-path="url(#a)"/>
<path d="m287 163v-12.2" clip-path="url(#a)"/>
<path d="m290 138v-12.2" clip-path="url(#a)"/>
<path d="m506 114v-12.2" clip-path="url(#a)"/>
<path d="m512 89.5v-12.2" clip-path="url(#a)"/>
<path d="m512 65.2v-12.2" clip-path="url(#a)"/>
</g>
<g fill="none" stroke="#1f77b4" stroke-width="1.5">
<path d="m509 430v-12.2" clip-path="url(#a)"/>
<path d="m509 406v-12.2" clip-path="url(#a)"/>
<path d="m199 381v-12.2" clip-path="url(#a)"/>
<path d="m202 357v-12.2" clip-path="url(#a)"/>
<path d="m203 333v-12.2" clip-path="url(#a)"/>
<path d="m233 308v-12.2" clip-path="url(#a)"/>
<path d="m235 284v-12.2" clip-path="url(#a)"/>
<path d="m266 260v-12.2" clip-path="url(#a)"/>
<path d="m280 235v-12.2" clip-path="url(#a)"/>
<path d="m281 211v-12.2" clip-path="url(#a)"/>
<path d="m281 187v-12.2" clip-path="url(#a)"/>
<path d="m281 163v-12.2" clip-path="url(#a)"/>
<path d="m287 138v-12.2" clip-path="url(#a)"/>
<path d="m497 114v-12.2" clip-path="url(#a)"/>
<path d="m507 89.5v-12.2" clip-path="url(#a)"/>
<path d="m199 65.2v-12.2" clip-path="url(#a)"/>
</g>
<g fill="none" stroke="#1f77b4" stroke-width="1.5">
<path d="m509 424" clip-path="url(#a)"/>
<path d="m509 400" clip-path="url(#a)"/>
<path d="m199 375h0.474" clip-path="url(#a)"/>
<path d="m202 351h0.111" clip-path="url(#a)"/>
<path d="m203 327h4.97" clip-path="url(#a)"/>
<path d="m233 302h0.297" clip-path="url(#a)"/>
<path d="m235 278h1.74" clip-path="url(#a)"/>
<path d="m266 254h1.27" clip-path="url(#a)"/>
<path d="m280 229h1.07" clip-path="url(#a)"/>
<path d="m281 205h2.18" clip-path="url(#a)"/>
<path d="m281 181h2.99" clip-path="url(#a)"/>
<path d="m281 156h5.67" clip-path="url(#a)"/>
<path d="m287 132h2.76" clip-path="url(#a)"/>
<path d="m497 108h9.06" clip-path="url(#a)"/>
<path d="m507 83.4h4.78" clip-path="url(#a)"/>
<path d="m199 59.1h313" clip-path="url(#a)"/>
</g>
<g fill="none" stroke="#1f77b4" stroke-dasharray="1.5,2.475" stroke-width="1.5">
<path d="m509 430v-12.2" clip-path="url(#a)"/>
<path d="m509 430v-12.2" clip-path="url(#a)"/>
<path d="m509 406v-12.2" clip-path="url(#a)"/>
<path d="m509 406v-12.2" clip-path="url(#a)"/>
<path d="m199 381v-12.2" clip-path="url(#a)"/>
<path d="m200 381v-12.2" clip-path="url(#a)"/>
<path d="m202 357v-12.2" clip-path="url(#a)"/>
<path d="m202 357v-12.2" clip-path="url(#a)"/>
<path d="m203 333v-12.2" clip-path="url(#a)"/>
<path d="m208 333v-12.2" clip-path="url(#a)"/>
<path d="m233 308v-12.2" clip-path="url(#a)"/>
<path d="m233 308v-12.2" clip-path="url(#a)"/>
<path d="m235 284v-12.2" clip-path="url(#a)"/>
<path d="m236 284v-12.2" clip-path="url(#a)"/>
<path d="m266 260v-12.2" clip-path="url(#a)"/>
<path d="m267 260v-12.2" clip-path="url(#a)"/>
<path d="m280 235v-12.2" clip-path="url(#a)"/>
<path d="m281 235v-12.2" clip-path="url(#a)"/>
<path d="m281 211v-12.2" clip-path="url(#a)"/>
<path d="m283 211v-12.2" clip-path="url(#a)"/>
<path d="m281 187v-12.2" clip-path="url(#a)"/>
<path d="m283 187v-12.2" clip-path="url(#a)"/>
<path d="m282 163v-12.2" clip-path="url(#a)"/>
<path d="m286 163v-12.2" clip-path="url(#a)"/>
<path d="m287 138v-12.2" clip-path="url(#a)"/>
<path d="m290 138v-12.2" clip-path="url(#a)"/>
<path d="m499 114v-12.2" clip-path="url(#a)"/>
<path d="m504 114v-12.2" clip-path="url(#a)"/>
<path d="m508 89.5v-12.2" clip-path="url(#a)"/>
<path d="m508 89.5v-12.2" clip-path="url(#a)"/>
<path d="m202 65.2v-12.2" clip-path="url(#a)"/>
<path d="m502 65.2v-12.2" clip-path="url(#a)"/>
</g>
<path d="m183 448v-414" fill="none" stroke="#000" stroke-linecap="square" stroke-width=".8"/>
<path d="m527 448v-414" fill="none" stroke="#000" stroke-linecap="square" stroke-width=".8"/>
<path d="m183 448h344" fill="none" stroke="#000" stroke-linecap="square" stroke-width=".8"/>
<path d="m183 34.8h344" fill="none" stroke="#000" stroke-linecap="square" stroke-width=".8"/>
<g transform="translate(512 424) scale(.1 -.1)">
<defs>
<path id="ag" transform="scale(.0156)" d="m2375 4863v-479h-550q-309 0-430-125-120-125-120-450v-309h947v-447h-947v-3053h-578v3053h-550v447h550v244q0 584 272 851 272 268 862 268h544z"/>
</defs>
<use xlink:href="#l"/>
<use x="27.783203" xlink:href="#j"/>
<use x="91.162109" xlink:href="#i"/>
<use x="143.261719" xlink:href="#l"/>
<use x="171.044922" xlink:href="#w"/>
<use x="234.521484" xlink:href="#j"/>
<use x="297.900391" xlink:href="#l"/>
<use x="325.683594" xlink:href="#ag"/>
<use x="360.888672" xlink:href="#l"/>
<use x="388.671875" xlink:href="#r"/>
<use x="443.652344" xlink:href="#h"/>
<use x="504.931641" xlink:href="#j"/>
<use x="568.310547" xlink:href="#e"/>
</g>
<g transform="translate(512 400) scale(.1 -.1)">
<use xlink:href="#l"/>
<use x="27.783203" xlink:href="#j"/>
<use x="91.162109" xlink:href="#i"/>
<use x="143.261719" xlink:href="#l"/>
<use x="171.044922" xlink:href="#w"/>
<use x="234.521484" xlink:href="#j"/>
<use x="297.900391" xlink:href="#l"/>
<use x="325.683594" xlink:href="#ag"/>
<use x="360.888672" xlink:href="#l"/>
<use x="388.671875" xlink:href="#r"/>
<use x="443.652344" xlink:href="#h"/>
<use x="504.931641" xlink:href="#j"/>
<use x="568.310547" xlink:href="#e"/>
</g>
<g transform="translate(199 368) scale(.08 -.08)">
<use xlink:href="#b"/>
<use x="63.623047" xlink:href="#c"/>
<use x="95.410156" xlink:href="#b"/>
<use x="159.033203" xlink:href="#s"/>
<use x="222.65625" xlink:href="#t"/>
<use x="286.279297" xlink:href="#v"/>
</g>
<g transform="translate(202 344) scale(.08 -.08)">
<defs>
<path id="al" transform="scale(.0156)" d="m525 4666h3e3v-269l-1694-4397h-659l1594 4134h-2241v532z"/>
</defs>
<use xlink:href="#b"/>
<use x="63.623047" xlink:href="#c"/>
<use x="95.410156" xlink:href="#b"/>
<use x="159.033203" xlink:href="#x"/>
<use x="222.65625" xlink:href="#b"/>
<use x="286.279297" xlink:href="#al"/>
</g>
<g transform="translate(205 319) scale(.08 -.08)">
<use xlink:href="#b"/>
<use x="63.623047" xlink:href="#c"/>
<use x="95.410156" xlink:href="#b"/>
<use x="159.033203" xlink:href="#x"/>
<use x="222.65625" xlink:href="#v"/>
<use x="286.279297" xlink:href="#ae"/>
</g>
<g transform="translate(233 295) scale(.08 -.08)">
<use xlink:href="#b"/>
<use x="63.623047" xlink:href="#c"/>
<use x="95.410156" xlink:href="#t"/>
<use x="159.033203" xlink:href="#s"/>
<use x="222.65625" xlink:href="#v"/>
<use x="286.279297" xlink:href="#t"/>
</g>
<g transform="translate(236 271) scale(.08 -.08)">
<use xlink:href="#b"/>
<use x="63.623047" xlink:href="#c"/>
<use x="95.410156" xlink:href="#t"/>
<use x="159.033203" xlink:href="#x"/>
<use x="222.65625" xlink:href="#ae"/>
<use x="286.279297" xlink:href="#v"/>
</g>
<g transform="translate(267 246) scale(.08 -.08)">
<use xlink:href="#b"/>
<use x="63.623047" xlink:href="#c"/>
<use x="95.410156" xlink:href="#o"/>
<use x="159.033203" xlink:href="#x"/>
<use x="222.65625" xlink:href="#o"/>
<use x="286.279297" xlink:href="#x"/>
</g>
<g transform="translate(281 222) scale(.08 -.08)">
<use xlink:href="#b"/>
<use x="63.623047" xlink:href="#c"/>
<use x="95.410156" xlink:href="#o"/>
<use x="159.033203" xlink:href="#v"/>
<use x="222.65625" xlink:href="#ad"/>
<use x="286.279297" xlink:href="#ad"/>
</g>
<g transform="translate(282 198) scale(.08 -.08)">
<defs>
<path id="z" transform="scale(.0156)" d="m703 97v575q238-113 481-172 244-59 479-59 625 0 954 420 330 420 377 1277-181-269-460-413-278-144-615-144-700 0-1108 423-408 424-408 1159 0 718 425 1152 425 435 1131 435 810 0 1236-621 427-620 427-1801 0-1103-524-1761-523-658-1407-658-238 0-482 47-243 47-506 141zm1256 1978q425 0 673 290 249 291 249 798 0 503-249 795-248 292-673 292t-673-292-248-795q0-507 248-798 248-290 673-290z"/>
</defs>
<use xlink:href="#b"/>
<use x="63.623047" xlink:href="#c"/>
<use x="95.410156" xlink:href="#o"/>
<use x="159.033203" xlink:href="#v"/>
<use x="222.65625" xlink:href="#z"/>
<use x="286.279297" xlink:href="#ae"/>
</g>
<g transform="translate(282 173) scale(.08 -.08)">
<use xlink:href="#b"/>
<use x="63.623047" xlink:href="#c"/>
<use x="95.410156" xlink:href="#o"/>
<use x="159.033203" xlink:href="#z"/>
<use x="222.65625" xlink:href="#b"/>
<use x="286.279297" xlink:href="#b"/>
</g>
<g transform="translate(284 149) scale(.08 -.08)">
<use xlink:href="#b"/>
<use x="63.623047" xlink:href="#c"/>
<use x="95.410156" xlink:href="#o"/>
<use x="159.033203" xlink:href="#z"/>
<use x="222.65625" xlink:href="#ae"/>
<use x="286.279297" xlink:href="#o"/>
</g>
<g transform="translate(289 125) scale(.08 -.08)">
<use xlink:href="#b"/>
<use x="63.623047" xlink:href="#c"/>
<use x="95.410156" xlink:href="#s"/>
<use x="159.033203" xlink:href="#t"/>
<use x="222.65625" xlink:href="#b"/>
<use x="286.279297" xlink:href="#v"/>
</g>
<g transform="translate(502 100) scale(.08 -.08)">
<use xlink:href="#b"/>
<use x="63.623047" xlink:href="#c"/>
<use x="95.410156" xlink:href="#z"/>
<use x="159.033203" xlink:href="#al"/>
<use x="222.65625" xlink:href="#ad"/>
<use x="286.279297" xlink:href="#o"/>
</g>
<g transform="translate(508 76.1) scale(.08 -.08)">
<use xlink:href="#b"/>
<use x="63.623047" xlink:href="#c"/>
<use x="95.410156" xlink:href="#z"/>
<use x="159.033203" xlink:href="#z"/>
<use x="222.65625" xlink:href="#ad"/>
<use x="286.279297" xlink:href="#o"/>
</g>
<g transform="translate(289 51.8) scale(.08 -.08)">
<use xlink:href="#b"/>
<use x="63.623047" xlink:href="#c"/>
<use x="95.410156" xlink:href="#s"/>
<use x="159.033203" xlink:href="#t"/>
<use x="222.65625" xlink:href="#o"/>
<use x="286.279297" xlink:href="#x"/>
</g>
<g transform="translate(519 34.8) scale(.1 -.1)">
<defs>
<path id="as" transform="scale(.0156)" d="m8863 2147v-281l-1229-1228-375 375 729 728h-7622v531h7622l-729 728 375 375 1229-1228z"/>
</defs>
<use xlink:href="#y"/>
<use x="97.412109" xlink:href="#g"/>
<use x="158.59375" xlink:href="#m"/>
<use x="197.457031" xlink:href="#d"/>
<use x="258.980469" xlink:href="#DejaVuSans-20"/>
<use x="290.767578" xlink:href="#as"/>
</g>
<g transform="translate(462 34.8) scale(.1 -.1)">
<defs>
<path id="at" transform="scale(.0156)" d="m313 1866v281l1228 1228 375-375-728-728h7621v-531h-7621l728-728-375-375-1228 1228z"/>
</defs>
<use xlink:href="#at"/>
<use x="143.359375" xlink:href="#DejaVuSans-20"/>
<use x="175.146484" xlink:href="#ac"/>
<use x="202.929688" xlink:href="#d"/>
<use x="264.453125" xlink:href="#i"/>
<use x="316.552734" xlink:href="#i"/>
</g>
<g transform="translate(182 12.1) scale(.12 -.12)">
<defs>
<path id="aq" transform="scale(.0156)" d="m628 4666h941l1190-3175 1197 3175h941v-4666h-616v4097l-1203-3200h-634l-1203 3200v-4097h-613v4666z"/>
<path id="am" transform="scale(.0156)" d="m313 2009h1684v-512h-1684v512z"/>
<path id="aj" transform="scale(.0156)" d="m191 3500h609l1094-2937 1094 2937h609l-1313-3500h-781l-1312 3500z"/>
</defs>
<use xlink:href="#aq"/>
<use x="86.279297" xlink:href="#d"/>
<use x="147.802734" xlink:href="#y"/>
<use x="245.214844" xlink:href="#g"/>
<use x="306.396484" xlink:href="#m"/>
<use x="347.509766" xlink:href="#p"/>
<use x="406.689453" xlink:href="#DejaVuSans-20"/>
<use x="438.476562" xlink:href="#ah"/>
<use x="501.855469" xlink:href="#i"/>
<use x="553.955078" xlink:href="#h"/>
<use x="615.234375" xlink:href="#w"/>
<use x="678.710938" xlink:href="#d"/>
<use x="740.234375" xlink:href="#DejaVuSans-20"/>
<use x="772.021484" xlink:href="#g"/>
<use x="833.203125" xlink:href="#ag"/>
<use x="868.408203" xlink:href="#DejaVuSans-20"/>
<use x="900.195312" xlink:href="#n"/>
<use x="963.671875" xlink:href="#p"/>
<use x="1022.851562" xlink:href="#e"/>
<use x="1062.060547" xlink:href="#u"/>
<use x="1125.439453" xlink:href="#g"/>
<use x="1186.621094" xlink:href="#j"/>
<use x="1250" xlink:href="#am"/>
<use x="1283.458984" xlink:href="#aj"/>
<use x="1342.638672" xlink:href="#s"/>
<use x="1406.261719" xlink:href="#c"/>
<use x="1438.048828" xlink:href="#t"/>
<use x="1501.671875" xlink:href="#s"/>
<use x="1565.294922" xlink:href="#c"/>
<use x="1597.082031" xlink:href="#b"/>
<use x="1660.705078" xlink:href="#h"/>
<use x="1721.984375" xlink:href="#s"/>
<use x="1785.607422" xlink:href="#am"/>
<use x="1821.691406" xlink:href="#ag"/>
<use x="1856.896484" xlink:href="#b"/>
<use x="1920.519531" xlink:href="#b"/>
<use x="1984.142578" xlink:href="#z"/>
<use x="2047.765625" xlink:href="#s"/>
<use x="2111.388672" xlink:href="#b"/>
<use x="2175.011719" xlink:href="#ae"/>
<use x="2238.634766" xlink:href="#DejaVuSans-20"/>
<use x="2270.421875" xlink:href="#aj"/>
<use x="2329.601562" xlink:href="#i"/>
<use x="2381.701172" xlink:href="#c"/>
<use x="2413.488281" xlink:href="#DejaVuSans-20"/>
<use x="2445.275391" xlink:href="#s"/>
<use x="2508.898438" xlink:href="#c"/>
<use x="2540.685547" xlink:href="#t"/>
<use x="2604.308594" xlink:href="#s"/>
<use x="2667.931641" xlink:href="#c"/>
<use x="2699.71875" xlink:href="#b"/>
<use x="2763.341797" xlink:href="#h"/>
<use x="2824.621094" xlink:href="#s"/>
</g>
<defs>
<clipPath id="a">
<rect x="183" y="34.8" width="344" height="414"/>
</clipPath>
</defs>
</svg>
