<?xml version="1.0" encoding="UTF-8"?>
<!DOCTYPE svg  PUBLIC '-//W3C//DTD SVG 1.1//EN'  'http://www.w3.org/Graphics/SVG/1.1/DTD/svg11.dtd'>
<svg width="576pt" height="295pt" version="1.1" viewBox="0 0 576 295" xmlns="http://www.w3.org/2000/svg" xmlns:xlink="http://www.w3.org/1999/xlink">
<defs>
<style type="text/css">*{stroke-linejoin: round; stroke-linecap: butt}</style>
</defs>
<path d="m0 295h576v-295h-576z" fill="#fff"/>
<path d="m126 276h436v-241h-436z" fill="#fff"/>
<path d="m146 235v26.7-26.7z" clip-path="url(#a)" fill="#1f77b4" fill-opacity=".3"/>
<path d="m146 209v26.7-26.7z" clip-path="url(#a)" fill="#1f77b4" fill-opacity=".3"/>
<path d="m146 182v26.7-26.7z" clip-path="url(#a)" fill="#1f77b4" fill-opacity=".3"/>
<path d="m146 155v26.7-26.7z" clip-path="url(#a)" fill="#1f77b4" fill-opacity=".3"/>
<path d="m172 138v7.93l0.109 0.215 0.109 0.229 0.109 0.253 0.109 0.289 0.109 0.337 0.109 0.394 0.109 0.46 0.109 0.529 0.109 0.598 0.109 0.66 0.109 0.71 0.109 0.743 0.109 0.752 0.109 0.736 0.109 0.69 0.109 0.615 0.109 0.511 0.109 0.382 0.109 0.234 0.109 0.0721 0.109-0.0953 0.109-0.26 0.109-0.416 0.109-0.554 0.109-0.669 0.109-0.758 0.109-0.818 0.109-0.849 0.109-0.853 0.109-0.832 0.109-0.79 0.109-0.733 0.109-0.665 0.109-0.592 0.109-0.518 0.109-0.448 0.109-0.383 0.109-0.327 0.109-0.279 0.109-0.24 0.109-0.21 0.109-0.188 0.109-0.172 0.109-0.16 0.109-0.152 0.109-0.145 0.109-0.139 0.109-0.133 0.109-0.126 0.109-0.119 0.109-0.11 0.109-0.1 0.109-0.0901 0.109-0.0795 0.109-0.0688 0.109-0.0584 0.109-0.0485 0.109-0.0393 0.109-0.0309 0.109-0.0234 0.109-0.0168 0.109-0.011 0.109-0.00592 0.109-0.00158 0.109 0.00213 0.109 0.00529 0.109 0.00794 0.109 0.0101 0.109 0.0119 0.109 0.0132 0.109 0.0141 0.109 0.0146 0.654 0.087 0.109 0.0146 0.109 0.0156 0.109 0.0173 0.109 0.0197 0.109 0.023 0.109 0.027 0.109 0.0316 0.109 0.0367 0.109 0.0419 0.109 0.0469 0.109 0.0513 0.109 0.0547 0.109 0.0567 0.109 0.057 0.109 0.0553 0.109 0.0514 0.109 0.0453 0.109 0.0371 0.109 0.0272 0.109 0.0158 0.109 0.00339v-1.92l-0.109 0.00339-0.109 0.0158-0.109 0.0272-0.109 0.0371-0.109 0.0453-0.109 0.0514-0.109 0.0553-0.109 0.057-0.109 0.0567-0.109 0.0547-0.109 0.0513-0.109 0.0469-0.109 0.0419-0.109 0.0367-0.109 0.0316-0.109 0.027-0.109 0.023-0.109 0.0197-0.109 0.0173-0.109 0.0156-0.109 0.0146-0.763 0.102-0.109 0.0141-0.109 0.0132-0.109 0.0119-0.109 0.0101-0.109 0.00794-0.109 0.00529-0.109 0.00213-0.109-0.00158-0.109-0.00592-0.109-0.011-0.109-0.0168-0.109-0.0234-0.109-0.0309-0.109-0.0393-0.109-0.0485-0.109-0.0584-0.109-0.0688-0.109-0.0795-0.109-0.0901-0.109-0.1-0.109-0.11-0.109-0.119-0.109-0.126-0.109-0.133-0.109-0.139-0.109-0.145-0.109-0.152-0.109-0.16-0.109-0.172-0.109-0.188-0.109-0.21-0.109-0.24-0.109-0.279-0.109-0.327-0.109-0.383-0.109-0.448-0.109-0.518-0.109-0.592-0.109-0.665-0.109-0.733-0.109-0.79-0.109-0.832-0.109-0.853-0.109-0.849-0.109-0.818-0.109-0.758-0.109-0.669-0.109-0.554-0.109-0.416-0.109-0.26-0.109-0.0953-0.109 0.0721-0.109 0.234-0.109 0.382-0.109 0.511-0.109 0.615-0.109 0.69-0.109 0.736-0.109 0.752-0.109 0.743-0.109 0.71-0.109 0.66-0.109 0.598-0.109 0.529-0.109 0.46-0.109 0.394-0.109 0.337-0.109 0.289-0.109 0.253-0.109 0.229-0.109 0.215z" clip-path="url(#a)" fill="#1f77b4" fill-opacity=".3"/>
<path d="m222 113v3.24l0.448 0.158 0.448 0.164 0.448 0.17 0.448 0.176 0.448 0.183 0.448 0.191 0.448 0.2 0.448 0.209 0.448 0.22 0.448 0.231 0.448 0.243 0.448 0.256 0.448 0.268 0.448 0.28 0.448 0.291 0.448 0.301 0.448 0.31 0.448 0.317 0.448 0.322 0.448 0.325 1.34 0.978 0.448 0.322 0.448 0.319 0.448 0.315 0.448 0.311 0.448 0.308 0.448 0.304 0.448 0.301 0.448 0.298 0.448 0.296 0.448 0.293 0.448 0.289 0.448 0.284 0.448 0.278 0.448 0.27 0.448 0.26 0.448 0.247 0.448 0.231 0.448 0.212 0.448 0.191 0.448 0.168 0.448 0.143 0.448 0.117 0.448 0.0902 0.448 0.063 0.448 0.0361 0.448 0.00991 0.448-0.0152 0.448-0.0391 0.448-0.0616 0.448-0.0826 0.448-0.102 0.448-0.121 0.448-0.138 0.448-0.154 0.448-0.17 0.448-0.186 0.448-0.201 0.448-0.216 0.448-0.231 0.448-0.245 0.448-0.26 0.448-0.274 0.448-0.287 0.448-0.3 0.448-0.312 0.448-0.322 0.448-0.331 0.448-0.338 0.448-0.343 1.34-1.04 0.448-0.346 0.448-0.343 0.448-0.338 0.448-0.332 0.448-0.326 0.448-0.319 0.448-0.312 0.448-0.304 0.448-0.296 0.448-0.288 0.448-0.279 0.448-0.271 0.448-0.262 0.448-0.253 0.448-0.244 0.448-0.235 0.448-0.225 0.448-0.216 0.448-0.206 0.448-0.196 0.448-0.187 0.448-0.177 0.448-0.167 0.448-0.157v-2.65l-0.448-0.157-0.448-0.167-0.448-0.177-0.448-0.187-0.448-0.196-0.448-0.206-0.448-0.216-0.448-0.225-0.448-0.235-0.448-0.244-0.448-0.253-0.448-0.262-0.448-0.271-0.448-0.279-0.448-0.288-0.448-0.296-0.448-0.304-0.448-0.312-0.448-0.319-0.448-0.326-0.448-0.332-0.448-0.338-0.448-0.343-0.448-0.346-0.448-0.348-0.896-0.695-0.448-0.343-0.448-0.338-0.448-0.331-0.448-0.322-0.448-0.312-0.448-0.3-0.448-0.287-0.448-0.274-0.448-0.26-0.448-0.245-0.448-0.231-0.448-0.216-0.448-0.201-0.448-0.186-0.448-0.17-0.448-0.154-0.448-0.138-0.448-0.121-0.448-0.102-0.448-0.0826-0.448-0.0616-0.448-0.0391-0.448-0.0152-0.448 0.00991-0.448 0.0361-0.448 0.063-0.448 0.0902-0.448 0.117-0.448 0.143-0.448 0.168-0.448 0.191-0.448 0.212-0.448 0.231-0.448 0.247-0.448 0.26-0.448 0.27-0.448 0.278-0.448 0.284-0.448 0.289-0.448 0.293-0.448 0.296-0.448 0.298-0.448 0.301-0.448 0.304-0.448 0.308-0.448 0.311-0.448 0.315-0.448 0.319-0.448 0.322-1.34 0.978-0.448 0.325-0.448 0.322-0.448 0.317-0.448 0.31-0.448 0.301-0.448 0.291-0.448 0.28-0.448 0.268-0.448 0.256-0.448 0.243-0.448 0.231-0.448 0.22-0.448 0.209-0.448 0.2-0.448 0.191-0.448 0.183-0.448 0.176-0.448 0.17-0.448 0.164-0.448 0.158z" clip-path="url(#a)" fill="#1f77b4" fill-opacity=".3"/>
<path d="m458 87.5v1.48l0.859 0.0301 0.859 0.0211 0.859 0.0125 0.859 0.00474 0.859-0.00161 3.44-0.0325 0.859-0.00471 0.859 2.85e-4 0.859 0.00674 0.859 0.0144 0.859 0.0232 0.859 0.0328 0.859 0.0432 0.859 0.0544 0.859 0.0663 0.859 0.0791 0.859 0.0928 0.859 0.108 0.859 0.124 0.859 0.141 0.859 0.16 0.859 0.181 0.859 0.202 0.859 0.225 0.859 0.248 0.859 0.27 0.859 0.292 0.859 0.313 0.859 0.333 0.859 0.351 0.859 0.368 0.859 0.383 0.859 0.397 0.859 0.41 0.859 0.422 0.859 0.434 0.859 0.446 0.859 0.456 0.859 0.466 0.859 0.474 0.859 0.48 1.72 0.963 0.859 0.474 0.859 0.461 0.859 0.442 0.859 0.416 0.859 0.383 0.859 0.344 0.859 0.299 0.859 0.25 0.859 0.198 0.859 0.144 0.859 0.0902 0.859 0.0377 0.859-0.0123 0.859-0.0588 0.859-0.101 0.859-0.14 0.859-0.174 0.859-0.204 0.859-0.232 0.859-0.257 0.859-0.281 0.859-0.303 0.859-0.326 0.859-0.348 0.859-0.37 0.859-0.392 0.859-0.414 0.859-0.435 0.859-0.453 0.859-0.47 0.859-0.483 0.859-0.493 1.72-0.996 0.859-0.494 0.859-0.485 0.859-0.472 0.859-0.454 0.859-0.432 0.859-0.407 0.859-0.38 0.859-0.351 0.859-0.321 0.859-0.291 0.859-0.262 0.859-0.234 0.859-0.208 0.859-0.184 0.859-0.163 0.859-0.145 0.859-0.129 0.859-0.116 0.859-0.105v-1.6l-0.859-0.105-0.859-0.116-0.859-0.129-0.859-0.145-0.859-0.163-0.859-0.184-0.859-0.208-0.859-0.234-0.859-0.262-0.859-0.291-0.859-0.321-0.859-0.351-0.859-0.38-0.859-0.407-0.859-0.432-0.859-0.454-0.859-0.472-0.859-0.485-0.859-0.494-1.72-0.996-0.859-0.493-0.859-0.483-0.859-0.47-0.859-0.453-0.859-0.435-0.859-0.414-0.859-0.392-0.859-0.37-0.859-0.348-0.859-0.326-0.859-0.303-0.859-0.281-0.859-0.257-0.859-0.232-0.859-0.204-0.859-0.174-0.859-0.14-0.859-0.101-0.859-0.0588-0.859-0.0123-0.859 0.0377-0.859 0.0902-0.859 0.144-0.859 0.198-0.859 0.25-0.859 0.299-0.859 0.344-0.859 0.383-0.859 0.416-0.859 0.442-0.859 0.461-0.859 0.474-1.72 0.963-0.859 0.48-0.859 0.474-0.859 0.466-0.859 0.456-0.859 0.446-0.859 0.434-0.859 0.422-0.859 0.41-0.859 0.397-0.859 0.383-0.859 0.368-0.859 0.351-0.859 0.333-0.859 0.313-0.859 0.292-0.859 0.27-0.859 0.248-0.859 0.225-0.859 0.202-0.859 0.181-0.859 0.16-0.859 0.141-0.859 0.124-0.859 0.108-0.859 0.0928-0.859 0.0791-0.859 0.0663-0.859 0.0544-0.859 0.0432-0.859 0.0328-0.859 0.0232-0.859 0.0144-0.859 0.00674-0.859 2.85e-4 -0.859-0.0047-0.859-0.00801-2.58-0.0245-0.859-0.00161-0.859 0.00474-0.859 0.0125-0.859 0.0211-0.859 0.0301z" clip-path="url(#a)" fill="#1f77b4" fill-opacity=".3"/>
<path d="m146 53.3v16.5l4.01 0.783 4.01 0.748 4.01 0.698 4.01 0.634 4.01 0.559 4.01 0.476 4.01 0.39 4.01 0.305 4.01 0.224 4.01 0.152 4.01 0.0907 4.01 0.0411 4.01 0.00378 12-0.112 12-0.205 4.01-0.1 4.01-0.13 4.01-0.17 4.01-0.22 4.01-0.279 4.01-0.345 4.01-0.415 4.01-0.485 4.01-0.553 4.01-0.614 4.01-0.665 4.01-0.704 12-2.21 4.01-0.72 4.01-0.69 4.01-0.65 4.01-0.602 4.01-0.549 4.01-0.492 4.01-0.435 4.01-0.378 4.01-0.324 4.01-0.273 4.01-0.227 4.01-0.186 4.01-0.15 4.01-0.119 4.01-0.0936 4.01-0.0722 4.01-0.0546 4.01-0.0404 4.01-0.0289 4.01-0.0196 4.01-0.0118 4.01-0.00522 4.01 8.22e-4 4.01 0.00673 4.01 0.013 4.01 0.02 4.01 0.0282 4.01 0.038 4.01 0.05 4.01 0.0646 4.01 0.0822 4.01 0.103 4.01 0.128 4.01 0.157 4.01 0.19 4.01 0.228 4.01 0.269 4.01 0.315 4.01 0.363 4.01 0.413 4.01 0.463 4.01 0.512 4.01 0.558 4.01 0.599 4.01 0.632 4.01 0.655 8.02 1.33 4.01 0.643 4.01 0.608 4.01 0.555 4.01 0.487 4.01 0.403 4.01 0.307 4.01 0.2 4.01 0.0869 4.01-0.0298 4.01-0.146 4.01-0.257 4.01-0.361 4.01-0.453 4.01-0.531 4.01-0.594 4.01-0.639 4.01-0.667v-13.8l-4.01-0.667-4.01-0.639-4.01-0.594-4.01-0.531-4.01-0.453-4.01-0.361-4.01-0.257-4.01-0.146-4.01-0.0298-4.01 0.0869-4.01 0.2-4.01 0.307-4.01 0.403-4.01 0.487-4.01 0.555-4.01 0.608-12 1.97-4.01 0.655-4.01 0.632-4.01 0.599-4.01 0.558-4.01 0.512-4.01 0.463-4.01 0.413-4.01 0.363-4.01 0.315-4.01 0.269-4.01 0.228-4.01 0.19-4.01 0.157-4.01 0.128-4.01 0.103-4.01 0.0822-4.01 0.0646-4.01 0.05-4.01 0.038-4.01 0.0282-4.01 0.02-4.01 0.013-4.01 0.00673-4.01 8.23e-4 -4.01-0.00522-4.01-0.0118-4.01-0.0196-4.01-0.0289-4.01-0.0404-4.01-0.0546-4.01-0.0722-4.01-0.0936-4.01-0.119-4.01-0.15-4.01-0.186-4.01-0.227-4.01-0.273-4.01-0.324-4.01-0.378-4.01-0.435-4.01-0.492-4.01-0.549-4.01-0.602-4.01-0.65-4.01-0.69-4.01-0.72-4.01-0.737-8.02-1.47-4.01-0.704-4.01-0.665-4.01-0.614-4.01-0.553-4.01-0.485-4.01-0.415-4.01-0.345-4.01-0.279-4.01-0.22-4.01-0.17-4.01-0.13-4.01-0.1-16-0.255-8.02-0.0616-4.01 0.00378-4.01 0.0411-4.01 0.0907-4.01 0.152-4.01 0.224-4.01 0.305-4.01 0.39-4.01 0.476-4.01 0.559-4.01 0.634-4.01 0.698-4.01 0.748-4.01 0.783z" clip-path="url(#a)" fill="#1f77b4" fill-opacity=".3"/>
<path d="m146 276v-241" clip-path="url(#a)" fill="none" stroke="#b0b0b0" stroke-linecap="square" stroke-width=".8"/>
<defs>
<path id="t" d="m0 0v3.5" stroke="#000" stroke-width=".8"/>
</defs>
<use x="146.311394" y="275.521635" stroke="#000000" stroke-width=".8" xlink:href="#t"/>
<defs>
<path id="s" d="m0 0v-3.5" stroke="#000" stroke-width=".8"/>
</defs>
<use x="146.311394" y="34.79649" stroke="#000000" stroke-width=".8" xlink:href="#s"/>
<!-- 1.00× -->
<g transform="translate(131 290) scale(.1 -.1)">
<defs>
<path id="b" transform="scale(.0156)" d="m794 531h1031v3560l-1122-225v575l1116 225h631v-4135h1031v-531h-2687v531z"/>
<path id="d" transform="scale(.0156)" d="m684 794h660v-794h-660v794z"/>
<path id="c" transform="scale(.0156)" d="m2034 4250q-487 0-733-480-245-479-245-1442 0-959 245-1439 246-480 733-480 491 0 736 480 246 480 246 1439 0 963-246 1442-245 480-736 480zm0 500q785 0 1199-621 414-620 414-1801 0-1178-414-1799-414-620-1199-620-784 0-1198 620-414 621-414 1799 0 1181 414 1801 414 621 1198 621z"/>
<path id="h" transform="scale(.0156)" d="m4488 3438-1429-1435 1429-1428-372-378-1435 1434-1434-1434-369 378 1425 1428-1425 1435 369 378 1434-1435 1435 1435 372-378z"/>
</defs>
<use xlink:href="#b"/>
<use x="63.623047" xlink:href="#d"/>
<use x="95.410156" xlink:href="#c"/>
<use x="159.033203" xlink:href="#c"/>
<use x="222.65625" xlink:href="#h"/>
</g>
<!-- 1.00× -->
<g transform="translate(131 25.7) scale(.1 -.1)">
<use xlink:href="#b"/>
<use x="63.623047" xlink:href="#d"/>
<use x="95.410156" xlink:href="#c"/>
<use x="159.033203" xlink:href="#c"/>
<use x="222.65625" xlink:href="#h"/>
</g>
<path d="m215 276v-241" clip-path="url(#a)" fill="none" stroke="#b0b0b0" stroke-linecap="square" stroke-width=".8"/>
<use x="214.872581" y="275.521635" stroke="#000000" stroke-width=".8" xlink:href="#t"/>
<use x="214.872581" y="34.79649" stroke="#000000" stroke-width=".8" xlink:href="#s"/>
<!-- 1.05× -->
<g transform="translate(200 290) scale(.1 -.1)">
<defs>
<path id="p" transform="scale(.0156)" d="m691 4666h2478v-532h-1900v-1143q137 47 274 70 138 23 276 23 781 0 1237-428 457-428 457-1159 0-753-469-1171-469-417-1322-417-294 0-599 50-304 50-629 150v635q281-153 581-228t634-75q541 0 856 284 316 284 316 772 0 487-316 771-315 285-856 285-253 0-505-56-251-56-513-175v2344z"/>
</defs>
<use xlink:href="#b"/>
<use x="63.623047" xlink:href="#d"/>
<use x="95.410156" xlink:href="#c"/>
<use x="159.033203" xlink:href="#p"/>
<use x="222.65625" xlink:href="#h"/>
</g>
<!-- 1.05× -->
<g transform="translate(200 25.7) scale(.1 -.1)">
<use xlink:href="#b"/>
<use x="63.623047" xlink:href="#d"/>
<use x="95.410156" xlink:href="#c"/>
<use x="159.033203" xlink:href="#p"/>
<use x="222.65625" xlink:href="#h"/>
</g>
<path d="m283 276v-241" clip-path="url(#a)" fill="none" stroke="#b0b0b0" stroke-linecap="square" stroke-width=".8"/>
<use x="283.433768" y="275.521635" stroke="#000000" stroke-width=".8" xlink:href="#t"/>
<use x="283.433768" y="34.79649" stroke="#000000" stroke-width=".8" xlink:href="#s"/>
<!-- 1.10× -->
<g transform="translate(268 290) scale(.1 -.1)">
<use xlink:href="#b"/>
<use x="63.623047" xlink:href="#d"/>
<use x="95.410156" xlink:href="#b"/>
<use x="159.033203" xlink:href="#c"/>
<use x="222.65625" xlink:href="#h"/>
</g>
<!-- 1.10× -->
<g transform="translate(268 25.7) scale(.1 -.1)">
<use xlink:href="#b"/>
<use x="63.623047" xlink:href="#d"/>
<use x="95.410156" xlink:href="#b"/>
<use x="159.033203" xlink:href="#c"/>
<use x="222.65625" xlink:href="#h"/>
</g>
<path d="m352 276v-241" clip-path="url(#a)" fill="none" stroke="#b0b0b0" stroke-linecap="square" stroke-width=".8"/>
<use x="351.994955" y="275.521635" stroke="#000000" stroke-width=".8" xlink:href="#t"/>
<use x="351.994955" y="34.79649" stroke="#000000" stroke-width=".8" xlink:href="#s"/>
<!-- 1.15× -->
<g transform="translate(337 290) scale(.1 -.1)">
<use xlink:href="#b"/>
<use x="63.623047" xlink:href="#d"/>
<use x="95.410156" xlink:href="#b"/>
<use x="159.033203" xlink:href="#p"/>
<use x="222.65625" xlink:href="#h"/>
</g>
<!-- 1.15× -->
<g transform="translate(337 25.7) scale(.1 -.1)">
<use xlink:href="#b"/>
<use x="63.623047" xlink:href="#d"/>
<use x="95.410156" xlink:href="#b"/>
<use x="159.033203" xlink:href="#p"/>
<use x="222.65625" xlink:href="#h"/>
</g>
<path d="m421 276v-241" clip-path="url(#a)" fill="none" stroke="#b0b0b0" stroke-linecap="square" stroke-width=".8"/>
<use x="420.556142" y="275.521635" stroke="#000000" stroke-width=".8" xlink:href="#t"/>
<use x="420.556142" y="34.79649" stroke="#000000" stroke-width=".8" xlink:href="#s"/>
<!-- 1.20× -->
<g transform="translate(405 290) scale(.1 -.1)">
<defs>
<path id="q" transform="scale(.0156)" d="m1228 531h2203v-531h-2962v531q359 372 979 998 621 627 780 809 303 340 423 576 121 236 121 464 0 372-261 606-261 235-680 235-297 0-627-103-329-103-704-313v638q381 153 712 231 332 78 607 78 725 0 1156-363 431-362 431-968 0-288-108-546-107-257-392-607-78-91-497-524-418-433-1181-1211z"/>
</defs>
<use xlink:href="#b"/>
<use x="63.623047" xlink:href="#d"/>
<use x="95.410156" xlink:href="#q"/>
<use x="159.033203" xlink:href="#c"/>
<use x="222.65625" xlink:href="#h"/>
</g>
<!-- 1.20× -->
<g transform="translate(405 25.7) scale(.1 -.1)">
<use xlink:href="#b"/>
<use x="63.623047" xlink:href="#d"/>
<use x="95.410156" xlink:href="#q"/>
<use x="159.033203" xlink:href="#c"/>
<use x="222.65625" xlink:href="#h"/>
</g>
<path d="m489 276v-241" clip-path="url(#a)" fill="none" stroke="#b0b0b0" stroke-linecap="square" stroke-width=".8"/>
<use x="489.117329" y="275.521635" stroke="#000000" stroke-width=".8" xlink:href="#t"/>
<use x="489.117329" y="34.79649" stroke="#000000" stroke-width=".8" xlink:href="#s"/>
<!-- 1.25× -->
<g transform="translate(474 290) scale(.1 -.1)">
<use xlink:href="#b"/>
<use x="63.623047" xlink:href="#d"/>
<use x="95.410156" xlink:href="#q"/>
<use x="159.033203" xlink:href="#p"/>
<use x="222.65625" xlink:href="#h"/>
</g>
<!-- 1.25× -->
<g transform="translate(474 25.7) scale(.1 -.1)">
<use xlink:href="#b"/>
<use x="63.623047" xlink:href="#d"/>
<use x="95.410156" xlink:href="#q"/>
<use x="159.033203" xlink:href="#p"/>
<use x="222.65625" xlink:href="#h"/>
</g>
<path d="m558 276v-241" clip-path="url(#a)" fill="none" stroke="#b0b0b0" stroke-linecap="square" stroke-width=".8"/>
<use x="557.678516" y="275.521635" stroke="#000000" stroke-width=".8" xlink:href="#t"/>
<use x="557.678516" y="34.79649" stroke="#000000" stroke-width=".8" xlink:href="#s"/>
<!-- 1.30× -->
<g transform="translate(542 290) scale(.1 -.1)">
<defs>
<path id="w" transform="scale(.0156)" d="m2597 2516q453-97 707-404 255-306 255-756 0-690-475-1069-475-378-1350-378-293 0-604 58t-642 174v609q262-153 574-231 313-78 654-78 593 0 904 234t311 681q0 413-289 645-289 233-804 233h-544v519h569q465 0 712 186t247 536q0 359-255 551-254 193-729 193-260 0-557-57-297-56-653-174v562q360 100 674 150t592 50q719 0 1137-327 419-326 419-882 0-388-222-655t-631-370z"/>
</defs>
<use xlink:href="#b"/>
<use x="63.623047" xlink:href="#d"/>
<use x="95.410156" xlink:href="#w"/>
<use x="159.033203" xlink:href="#c"/>
<use x="222.65625" xlink:href="#h"/>
</g>
<!-- 1.30× -->
<g transform="translate(542 25.7) scale(.1 -.1)">
<use xlink:href="#b"/>
<use x="63.623047" xlink:href="#d"/>
<use x="95.410156" xlink:href="#w"/>
<use x="159.033203" xlink:href="#c"/>
<use x="222.65625" xlink:href="#h"/>
</g>
<path d="m126 249h436" clip-path="url(#a)" fill="none" stroke="#b0b0b0" stroke-linecap="square" stroke-width=".8"/>
<defs>
<path id="r" d="m0 0h-3.5" stroke="#000" stroke-width=".8"/>
</defs>
<use x="126.473678" y="248.774397" stroke="#000000" stroke-width=".8" xlink:href="#r"/>
<!-- asyncio_tcp_ssl -->
<g transform="translate(42.5 253) scale(.1 -.1)">
<defs>
<path id="k" transform="scale(.0156)" d="m2194 1759q-697 0-966-159t-269-544q0-306 202-486 202-179 548-179 479 0 768 339t289 901v128h-572zm1147 238v-2e3h-575v531q-197-318-491-470t-719-152q-537 0-855 302-317 302-317 808 0 590 395 890 396 300 1180 300h807v57q0 397-261 614t-733 217q-300 0-585-72-284-72-546-216v532q315 122 612 182 297 61 578 61 760 0 1135-394 375-393 375-1193z"/>
<path id="i" transform="scale(.0156)" d="m2834 3397v-544q-243 125-506 187-262 63-544 63-428 0-642-131t-214-394q0-200 153-314t616-217l197-44q612-131 870-370t258-667q0-488-386-773-386-284-1061-284-281 0-586 55t-642 164v594q319-166 628-249 309-82 613-82 406 0 624 139 219 139 219 392 0 234-158 359-157 125-692 241l-200 47q-534 112-772 345-237 233-237 639 0 494 350 762 350 269 994 269 318 0 599-47 282-46 519-140z"/>
<path id="x" transform="scale(.0156)" d="m2059-325q-243-625-475-815-231-191-618-191h-460v481h338q237 0 368 113 132 112 291 531l103 262-1415 3444h609l1094-2737 1094 2737h609l-1538-3825z"/>
<path id="e" transform="scale(.0156)" d="m3513 2113v-2113h-575v2094q0 497-194 743-194 247-581 247-466 0-735-297-269-296-269-809v-1978h-578v3500h578v-544q207 316 486 472 280 156 646 156 603 0 912-373 310-373 310-1098z"/>
<path id="l" transform="scale(.0156)" d="m3122 3366v-538q-244 135-489 202t-495 67q-560 0-870-355-309-354-309-995t309-996q310-354 870-354 250 0 495 67t489 202v-532q-241-112-499-168-257-57-548-57-791 0-1257 497-465 497-465 1341 0 856 470 1346 471 491 1290 491 265 0 518-55 253-54 491-163z"/>
<path id="f" transform="scale(.0156)" d="m603 3500h575v-3500h-575v3500zm0 1363h575v-729h-575v729z"/>
<path id="j" transform="scale(.0156)" d="m1959 3097q-462 0-731-361t-269-989 267-989q268-361 733-361 460 0 728 362 269 363 269 988 0 622-269 986-268 364-728 364zm0 487q750 0 1178-488 429-487 429-1349 0-859-429-1349-428-489-1178-489-753 0-1180 489-426 490-426 1349 0 862 426 1349 427 488 1180 488z"/>
<path id="o" transform="scale(.0156)" d="m3263-1063v-446h-3326v446h3326z"/>
<path id="g" transform="scale(.0156)" d="m1172 4494v-994h1184v-447h-1184v-1900q0-428 117-550t477-122h590v-481h-590q-666 0-919 248-253 249-253 905v1900h-422v447h422v994h578z"/>
<path id="m" transform="scale(.0156)" d="m1159 525v-1856h-578v4831h578v-531q182 312 458 463 277 152 661 152 638 0 1036-506 399-506 399-1331t-399-1332q-398-506-1036-506-384 0-661 152-276 152-458 464zm1957 1222q0 634-261 995t-717 361q-457 0-718-361t-261-995 261-995 718-361q456 0 717 361t261 995z"/>
<path id="ab" transform="scale(.0156)" d="m603 4863h575v-4863h-575v4863z"/>
</defs>
<use xlink:href="#k"/>
<use x="61.279297" xlink:href="#i"/>
<use x="113.378906" xlink:href="#x"/>
<use x="172.558594" xlink:href="#e"/>
<use x="235.9375" xlink:href="#l"/>
<use x="290.917969" xlink:href="#f"/>
<use x="318.701172" xlink:href="#j"/>
<use x="379.882812" xlink:href="#o"/>
<use x="429.882812" xlink:href="#g"/>
<use x="469.091797" xlink:href="#l"/>
<use x="524.072266" xlink:href="#m"/>
<use x="587.548828" xlink:href="#o"/>
<use x="637.548828" xlink:href="#i"/>
<use x="689.648438" xlink:href="#i"/>
<use x="741.748047" xlink:href="#ab"/>
</g>
<path d="m126 222h436" clip-path="url(#a)" fill="none" stroke="#b0b0b0" stroke-linecap="square" stroke-width=".8"/>
<use x="126.473678" y="222.027158" stroke="#000000" stroke-width=".8" xlink:href="#r"/>
<!-- pathlib -->
<g transform="translate(84.8 226) scale(.1 -.1)">
<defs>
<path id="v" transform="scale(.0156)" d="m3513 2113v-2113h-575v2094q0 497-194 743-194 247-581 247-466 0-735-297-269-296-269-809v-1978h-578v4863h578v-1907q207 316 486 472 280 156 646 156 603 0 912-373 310-373 310-1098z"/>
<path id="u" transform="scale(.0156)" d="m3116 1747q0 634-261 995t-717 361q-457 0-718-361t-261-995 261-995 718-361q456 0 717 361t261 995zm-1957 1222q182 312 458 463 277 152 661 152 638 0 1036-506 399-506 399-1331t-399-1332q-398-506-1036-506-384 0-661 152-276 152-458 464v-525h-578v4863h578v-1894z"/>
</defs>
<use xlink:href="#m"/>
<use x="63.476562" xlink:href="#k"/>
<use x="124.755859" xlink:href="#g"/>
<use x="163.964844" xlink:href="#v"/>
<use x="227.34375" xlink:href="#ab"/>
<use x="255.126953" xlink:href="#f"/>
<use x="282.910156" xlink:href="#u"/>
</g>
<path d="m126 195h436" clip-path="url(#a)" fill="none" stroke="#b0b0b0" stroke-linecap="square" stroke-width=".8"/>
<use x="126.473678" y="195.27992" stroke="#000000" stroke-width=".8" xlink:href="#r"/>
<!-- python_startup -->
<g transform="translate(43.5 199) scale(.1 -.1)">
<defs>
<path id="y" transform="scale(.0156)" d="m2631 2963q-97 56-211 82-114 27-251 27-488 0-749-317t-261-911v-1844h-578v3500h578v-544q182 319 472 473 291 155 707 155 59 0 131-8 72-7 159-23l3-590z"/>
<path id="ad" transform="scale(.0156)" d="m544 1381v2119h575v-2097q0-497 193-746 194-248 582-248 465 0 735 297 271 297 271 810v1984h575v-3500h-575v538q-209-319-486-474-276-155-642-155-603 0-916 375-312 375-312 1097zm1447 2203z"/>
</defs>
<use xlink:href="#m"/>
<use x="63.476562" xlink:href="#x"/>
<use x="122.65625" xlink:href="#g"/>
<use x="161.865234" xlink:href="#v"/>
<use x="225.244141" xlink:href="#j"/>
<use x="286.425781" xlink:href="#e"/>
<use x="349.804688" xlink:href="#o"/>
<use x="399.804688" xlink:href="#i"/>
<use x="451.904297" xlink:href="#g"/>
<use x="491.113281" xlink:href="#k"/>
<use x="552.392578" xlink:href="#y"/>
<use x="593.505859" xlink:href="#g"/>
<use x="632.714844" xlink:href="#ad"/>
<use x="696.09375" xlink:href="#m"/>
</g>
<path d="m126 169h436" clip-path="url(#a)" fill="none" stroke="#b0b0b0" stroke-linecap="square" stroke-width=".8"/>
<use x="126.473678" y="168.532682" stroke="#000000" stroke-width=".8" xlink:href="#r"/>
<!-- tornado_http -->
<g transform="translate(55 172) scale(.1 -.1)">
<defs>
<path id="af" transform="scale(.0156)" d="m2906 2969v1894h575v-4863h-575v525q-181-312-458-464-276-152-664-152-634 0-1033 506-398 507-398 1332t398 1331q399 506 1033 506 388 0 664-152 277-151 458-463zm-1959-1222q0-634 261-995t717-361 718 361q263 361 263 995t-263 995q-262 361-718 361t-717-361-261-995z"/>
</defs>
<use xlink:href="#g"/>
<use x="39.208984" xlink:href="#j"/>
<use x="100.390625" xlink:href="#y"/>
<use x="139.753906" xlink:href="#e"/>
<use x="203.132812" xlink:href="#k"/>
<use x="264.412109" xlink:href="#af"/>
<use x="327.888672" xlink:href="#j"/>
<use x="389.070312" xlink:href="#o"/>
<use x="439.070312" xlink:href="#v"/>
<use x="502.449219" xlink:href="#g"/>
<use x="541.658203" xlink:href="#g"/>
<use x="580.867188" xlink:href="#m"/>
</g>
<path d="m126 142h436" clip-path="url(#a)" fill="none" stroke="#b0b0b0" stroke-linecap="square" stroke-width=".8"/>
<use x="126.473678" y="141.785443" stroke="#000000" stroke-width=".8" xlink:href="#r"/>
<!-- python_startup_no_site -->
<g transform="translate(3 146) scale(.1 -.1)">
<defs>
<path id="n" transform="scale(.0156)" d="m3597 1894v-281h-2644q38-594 358-905t892-311q331 0 642 81t618 244v-544q-310-131-635-200t-659-69q-838 0-1327 487-489 488-489 1320 0 859 464 1363 464 505 1252 505 706 0 1117-455 411-454 411-1235zm-575 169q-6 471-264 752-258 282-683 282-481 0-770-272t-333-766l2050 4z"/>
</defs>
<use xlink:href="#m"/>
<use x="63.476562" xlink:href="#x"/>
<use x="122.65625" xlink:href="#g"/>
<use x="161.865234" xlink:href="#v"/>
<use x="225.244141" xlink:href="#j"/>
<use x="286.425781" xlink:href="#e"/>
<use x="349.804688" xlink:href="#o"/>
<use x="399.804688" xlink:href="#i"/>
<use x="451.904297" xlink:href="#g"/>
<use x="491.113281" xlink:href="#k"/>
<use x="552.392578" xlink:href="#y"/>
<use x="593.505859" xlink:href="#g"/>
<use x="632.714844" xlink:href="#ad"/>
<use x="696.09375" xlink:href="#m"/>
<use x="759.570312" xlink:href="#o"/>
<use x="809.570312" xlink:href="#e"/>
<use x="872.949219" xlink:href="#j"/>
<use x="934.130859" xlink:href="#o"/>
<use x="984.130859" xlink:href="#i"/>
<use x="1036.230469" xlink:href="#f"/>
<use x="1064.013672" xlink:href="#g"/>
<use x="1103.222656" xlink:href="#n"/>
</g>
<path d="m126 115h436" clip-path="url(#a)" fill="none" stroke="#b0b0b0" stroke-linecap="square" stroke-width=".8"/>
<use x="126.473678" y="115.038205" stroke="#000000" stroke-width=".8" xlink:href="#r"/>
<!-- bench_mp_pool -->
<g transform="translate(41.3 119) scale(.1 -.1)">
<defs>
<path id="ae" transform="scale(.0156)" d="m3328 2828q216 388 516 572t706 184q547 0 844-383 297-382 297-1088v-2113h-578v2094q0 503-179 746-178 244-543 244-447 0-707-297-259-296-259-809v-1978h-578v2094q0 506-178 748t-550 242q-441 0-701-298-259-298-259-808v-1978h-578v3500h578v-544q197 322 472 475t653 153q382 0 649-194 267-193 395-562z"/>
</defs>
<use xlink:href="#u"/>
<use x="63.476562" xlink:href="#n"/>
<use x="125" xlink:href="#e"/>
<use x="188.378906" xlink:href="#l"/>
<use x="243.359375" xlink:href="#v"/>
<use x="306.738281" xlink:href="#o"/>
<use x="356.738281" xlink:href="#ae"/>
<use x="454.150391" xlink:href="#m"/>
<use x="517.626953" xlink:href="#o"/>
<use x="567.626953" xlink:href="#m"/>
<use x="631.103516" xlink:href="#j"/>
<use x="692.285156" xlink:href="#j"/>
<use x="753.466797" xlink:href="#ab"/>
</g>
<path d="m126 88.3h436" clip-path="url(#a)" fill="none" stroke="#b0b0b0" stroke-linecap="square" stroke-width=".8"/>
<use x="126.473678" y="88.290967" stroke="#000000" stroke-width=".8" xlink:href="#r"/>
<!-- 2to3 -->
<g transform="translate(96.7 92.1) scale(.1 -.1)">
<use xlink:href="#q"/>
<use x="63.623047" xlink:href="#g"/>
<use x="102.832031" xlink:href="#j"/>
<use x="164.013672" xlink:href="#w"/>
</g>
<path d="m126 61.5h436" clip-path="url(#a)" fill="none" stroke="#b0b0b0" stroke-linecap="square" stroke-width=".8"/>
<use x="126.473678" y="61.543728" stroke="#000000" stroke-width=".8" xlink:href="#r"/>
<!-- ALL -->
<g transform="translate(101 65.3) scale(.1 -.1)">
<defs>
<path id="am" transform="scale(.0156)" d="m2188 4044-857-2322h1716l-859 2322zm-357 622h716l1778-4666h-656l-425 1197h-2103l-425-1197h-666l1781 4666z"/>
<path id="ah" transform="scale(.0156)" d="m628 4666h631v-4135h2272v-531h-2903v4666z"/>
</defs>
<use xlink:href="#am"/>
<use x="68.408203" xlink:href="#ah"/>
<use x="124.121094" xlink:href="#ah"/>
</g>
<path d="m146 276v-241" clip-path="url(#a)" fill="none" stroke="#1f77b4" stroke-linecap="square" stroke-width="1.5"/>
<g fill="none" stroke="#1f77b4" stroke-width="1.5">
<path d="m146 255v-13.4" clip-path="url(#a)"/>
<path d="m146 229v-13.4" clip-path="url(#a)"/>
<path d="m146 202v-13.4" clip-path="url(#a)"/>
<path d="m146 175v-13.4" clip-path="url(#a)"/>
<path d="m175 148v-13.4" clip-path="url(#a)"/>
<path d="m244 122v-13.4" clip-path="url(#a)"/>
<path d="m507 95v-13.4" clip-path="url(#a)"/>
<path d="m312 68.2v-13.4" clip-path="url(#a)"/>
</g>
<g fill="none" stroke="#1f77b4" stroke-width="1.5">
<path d="m146 255v-13.4" clip-path="url(#a)"/>
<path d="m146 229v-13.4" clip-path="url(#a)"/>
<path d="m146 202v-13.4" clip-path="url(#a)"/>
<path d="m146 175v-13.4" clip-path="url(#a)"/>
<path d="m183 148v-13.4" clip-path="url(#a)"/>
<path d="m267 122v-13.4" clip-path="url(#a)"/>
<path d="m543 95v-13.4" clip-path="url(#a)"/>
<path d="m543 68.2v-13.4" clip-path="url(#a)"/>
</g>
<g fill="none" stroke="#1f77b4" stroke-width="1.5">
<path d="m146 255v-13.4" clip-path="url(#a)"/>
<path d="m146 229v-13.4" clip-path="url(#a)"/>
<path d="m146 202v-13.4" clip-path="url(#a)"/>
<path d="m146 175v-13.4" clip-path="url(#a)"/>
<path d="m172 148v-13.4" clip-path="url(#a)"/>
<path d="m222 122v-13.4" clip-path="url(#a)"/>
<path d="m458 95v-13.4" clip-path="url(#a)"/>
<path d="m146 68.2v-13.4" clip-path="url(#a)"/>
</g>
<g fill="none" stroke="#1f77b4" stroke-width="1.5">
<path d="m146 249" clip-path="url(#a)"/>
<path d="m146 222" clip-path="url(#a)"/>
<path d="m146 195" clip-path="url(#a)"/>
<path d="m146 169" clip-path="url(#a)"/>
<path d="m172 142h10.8" clip-path="url(#a)"/>
<path d="m222 115h44.3" clip-path="url(#a)"/>
<path d="m458 88.3h85.1" clip-path="url(#a)"/>
<path d="m146 61.5h397" clip-path="url(#a)"/>
</g>
<g fill="none" stroke="#1f77b4" stroke-dasharray="1.5,2.475" stroke-width="1.5">
<path d="m146 255v-13.4" clip-path="url(#a)"/>
<path d="m146 255v-13.4" clip-path="url(#a)"/>
<path d="m146 229v-13.4" clip-path="url(#a)"/>
<path d="m146 229v-13.4" clip-path="url(#a)"/>
<path d="m146 202v-13.4" clip-path="url(#a)"/>
<path d="m146 202v-13.4" clip-path="url(#a)"/>
<path d="m146 175v-13.4" clip-path="url(#a)"/>
<path d="m146 175v-13.4" clip-path="url(#a)"/>
<path d="m172 148v-13.4" clip-path="url(#a)"/>
<path d="m176 148v-13.4" clip-path="url(#a)"/>
<path d="m232 122v-13.4" clip-path="url(#a)"/>
<path d="m257 122v-13.4" clip-path="url(#a)"/>
<path d="m488 95v-13.4" clip-path="url(#a)"/>
<path d="m525 95v-13.4" clip-path="url(#a)"/>
<path d="m174 68.2v-13.4" clip-path="url(#a)"/>
<path d="m516 68.2v-13.4" clip-path="url(#a)"/>
</g>
<path d="m126 276v-241" fill="none" stroke="#000" stroke-linecap="square" stroke-width=".8"/>
<path d="m563 276v-241" fill="none" stroke="#000" stroke-linecap="square" stroke-width=".8"/>
<path d="m126 276h436" fill="none" stroke="#000" stroke-linecap="square" stroke-width=".8"/>
<path d="m126 34.8h436" fill="none" stroke="#000" stroke-linecap="square" stroke-width=".8"/>
<!-- insignificant -->
<g transform="translate(160 249) scale(.1 -.1)">
<defs>
<path id="z" transform="scale(.0156)" d="m2906 1791q0 625-258 968-257 344-723 344-462 0-720-344-258-343-258-968 0-622 258-966t720-344q466 0 723 344 258 344 258 966zm575-1357q0-893-397-1329-396-436-1215-436-303 0-572 45t-522 139v559q253-137 500-202 247-66 503-66 566 0 847 295t281 892v285q-178-310-456-463t-666-153q-643 0-1037 490-394 491-394 1301 0 812 394 1302 394 491 1037 491 388 0 666-153t456-462v531h575v-3066z"/>
<path id="aa" transform="scale(.0156)" d="m2375 4863v-479h-550q-309 0-430-125-120-125-120-450v-309h947v-447h-947v-3053h-578v3053h-550v447h550v244q0 584 272 851 272 268 862 268h544z"/>
</defs>
<use xlink:href="#f"/>
<use x="27.783203" xlink:href="#e"/>
<use x="91.162109" xlink:href="#i"/>
<use x="143.261719" xlink:href="#f"/>
<use x="171.044922" xlink:href="#z"/>
<use x="234.521484" xlink:href="#e"/>
<use x="297.900391" xlink:href="#f"/>
<use x="325.683594" xlink:href="#aa"/>
<use x="360.888672" xlink:href="#f"/>
<use x="388.671875" xlink:href="#l"/>
<use x="443.652344" xlink:href="#k"/>
<use x="504.931641" xlink:href="#e"/>
<use x="568.310547" xlink:href="#g"/>
</g>
<!-- insignificant -->
<g transform="translate(160 222) scale(.1 -.1)">
<use xlink:href="#f"/>
<use x="27.783203" xlink:href="#e"/>
<use x="91.162109" xlink:href="#i"/>
<use x="143.261719" xlink:href="#f"/>
<use x="171.044922" xlink:href="#z"/>
<use x="234.521484" xlink:href="#e"/>
<use x="297.900391" xlink:href="#f"/>
<use x="325.683594" xlink:href="#aa"/>
<use x="360.888672" xlink:href="#f"/>
<use x="388.671875" xlink:href="#l"/>
<use x="443.652344" xlink:href="#k"/>
<use x="504.931641" xlink:href="#e"/>
<use x="568.310547" xlink:href="#g"/>
</g>
<!-- insignificant -->
<g transform="translate(160 195) scale(.1 -.1)">
<use xlink:href="#f"/>
<use x="27.783203" xlink:href="#e"/>
<use x="91.162109" xlink:href="#i"/>
<use x="143.261719" xlink:href="#f"/>
<use x="171.044922" xlink:href="#z"/>
<use x="234.521484" xlink:href="#e"/>
<use x="297.900391" xlink:href="#f"/>
<use x="325.683594" xlink:href="#aa"/>
<use x="360.888672" xlink:href="#f"/>
<use x="388.671875" xlink:href="#l"/>
<use x="443.652344" xlink:href="#k"/>
<use x="504.931641" xlink:href="#e"/>
<use x="568.310547" xlink:href="#g"/>
</g>
<!-- insignificant -->
<g transform="translate(160 169) scale(.1 -.1)">
<use xlink:href="#f"/>
<use x="27.783203" xlink:href="#e"/>
<use x="91.162109" xlink:href="#i"/>
<use x="143.261719" xlink:href="#f"/>
<use x="171.044922" xlink:href="#z"/>
<use x="234.521484" xlink:href="#e"/>
<use x="297.900391" xlink:href="#f"/>
<use x="325.683594" xlink:href="#aa"/>
<use x="360.888672" xlink:href="#f"/>
<use x="388.671875" xlink:href="#l"/>
<use x="443.652344" xlink:href="#k"/>
<use x="504.931641" xlink:href="#e"/>
<use x="568.310547" xlink:href="#g"/>
</g>
<!-- 1.0206 -->
<g transform="translate(175 134) scale(.08 -.08)">
<defs>
<path id="ag" transform="scale(.0156)" d="m2113 2584q-425 0-674-291-248-290-248-796 0-503 248-796 249-292 674-292t673 292q248 293 248 796 0 506-248 796-248 291-673 291zm1253 1979v-575q-238 112-480 171-242 60-480 60-625 0-955-422-329-422-376-1275 184 272 462 417 279 145 613 145 703 0 1111-427 408-426 408-1160 0-719-425-1154-425-434-1131-434-810 0-1238 620-428 621-428 1799 0 1106 525 1764t1409 658q238 0 480-47t505-140z"/>
</defs>
<use xlink:href="#b"/>
<use x="63.623047" xlink:href="#d"/>
<use x="95.410156" xlink:href="#c"/>
<use x="159.033203" xlink:href="#q"/>
<use x="222.65625" xlink:href="#c"/>
<use x="286.279297" xlink:href="#ag"/>
</g>
<!-- 1.0715 -->
<g transform="translate(244 107) scale(.08 -.08)">
<defs>
<path id="an" transform="scale(.0156)" d="m525 4666h3e3v-269l-1694-4397h-659l1594 4134h-2241v532z"/>
</defs>
<use xlink:href="#b"/>
<use x="63.623047" xlink:href="#d"/>
<use x="95.410156" xlink:href="#c"/>
<use x="159.033203" xlink:href="#an"/>
<use x="222.65625" xlink:href="#b"/>
<use x="286.279297" xlink:href="#p"/>
</g>
<!-- 1.2633 -->
<g transform="translate(507 80.3) scale(.08 -.08)">
<use xlink:href="#b"/>
<use x="63.623047" xlink:href="#d"/>
<use x="95.410156" xlink:href="#q"/>
<use x="159.033203" xlink:href="#ag"/>
<use x="222.65625" xlink:href="#w"/>
<use x="286.279297" xlink:href="#w"/>
</g>
<!-- 1.1206 -->
<g transform="translate(312 53.5) scale(.08 -.08)">
<use xlink:href="#b"/>
<use x="63.623047" xlink:href="#d"/>
<use x="95.410156" xlink:href="#b"/>
<use x="159.033203" xlink:href="#q"/>
<use x="222.65625" xlink:href="#c"/>
<use x="286.279297" xlink:href="#ag"/>
</g>
<!-- more ⟶ -->
<g transform="translate(156 34.8) scale(.1 -.1)">
<defs>
<path id="ao" transform="scale(.0156)" d="m8863 2147v-281l-1229-1228-375 375 729 728h-7622v531h7622l-729 728 375 375 1229-1228z"/>
</defs>
<use xlink:href="#ae"/>
<use x="97.412109" xlink:href="#j"/>
<use x="158.59375" xlink:href="#y"/>
<use x="197.457031" xlink:href="#n"/>
<use x="258.980469" xlink:href="#DejaVuSans-20"/>
<use x="290.767578" xlink:href="#ao"/>
</g>
<!-- ⟵ less -->
<g transform="translate(99.4 34.8) scale(.1 -.1)">
<defs>
<path id="ap" transform="scale(.0156)" d="m313 1866v281l1228 1228 375-375-728-728h7621v-531h-7621l728-728-375-375-1228 1228z"/>
</defs>
<use xlink:href="#ap"/>
<use x="143.359375" xlink:href="#DejaVuSans-20"/>
<use x="175.146484" xlink:href="#ab"/>
<use x="202.929688" xlink:href="#n"/>
<use x="264.453125" xlink:href="#i"/>
<use x="316.552734" xlink:href="#i"/>
</g>
<!-- Memory usage of python-04eb5c8db1e24cabd0cb-04eb5c8 vs. 3.14.0a0 -->
<g transform="translate(126 12.1) scale(.12 -.12)">
<defs>
<path id="al" transform="scale(.0156)" d="m628 4666h941l1190-3175 1197 3175h941v-4666h-616v4097l-1203-3200h-634l-1203 3200v-4097h-613v4666z"/>
<path id="aj" transform="scale(.0156)" d="m313 2009h1684v-512h-1684v512z"/>
<path id="ac" transform="scale(.0156)" d="m2419 4116-1594-2491h1594v2491zm-166 550h794v-3041h666v-525h-666v-1100h-628v1100h-2106v609l1940 2957z"/>
<path id="ai" transform="scale(.0156)" d="m2034 2216q-450 0-708-241-257-241-257-662 0-422 257-663 258-241 708-241t709 242q260 243 260 662 0 421-258 662-257 241-711 241zm-631 268q-406 100-633 378-226 279-226 679 0 559 398 884 399 325 1092 325 697 0 1094-325t397-884q0-400-227-679-226-278-629-378 456-106 710-416 255-309 255-755 0-679-414-1042-414-362-1186-362-771 0-1186 362-414 363-414 1042 0 446 256 755 257 310 713 416zm-231 997q0-362 226-565 227-203 636-203 407 0 636 203 230 203 230 565 0 363-230 566-229 203-636 203-409 0-636-203-226-203-226-566z"/>
<path id="ak" transform="scale(.0156)" d="m191 3500h609l1094-2937 1094 2937h609l-1313-3500h-781l-1312 3500z"/>
</defs>
<use xlink:href="#al"/>
<use x="86.279297" xlink:href="#n"/>
<use x="147.802734" xlink:href="#ae"/>
<use x="245.214844" xlink:href="#j"/>
<use x="306.396484" xlink:href="#y"/>
<use x="347.509766" xlink:href="#x"/>
<use x="406.689453" xlink:href="#DejaVuSans-20"/>
<use x="438.476562" xlink:href="#ad"/>
<use x="501.855469" xlink:href="#i"/>
<use x="553.955078" xlink:href="#k"/>
<use x="615.234375" xlink:href="#z"/>
<use x="678.710938" xlink:href="#n"/>
<use x="740.234375" xlink:href="#DejaVuSans-20"/>
<use x="772.021484" xlink:href="#j"/>
<use x="833.203125" xlink:href="#aa"/>
<use x="868.408203" xlink:href="#DejaVuSans-20"/>
<use x="900.195312" xlink:href="#m"/>
<use x="963.671875" xlink:href="#x"/>
<use x="1022.851562" xlink:href="#g"/>
<use x="1062.060547" xlink:href="#v"/>
<use x="1125.439453" xlink:href="#j"/>
<use x="1186.621094" xlink:href="#e"/>
<use x="1250" xlink:href="#aj"/>
<use x="1286.083984" xlink:href="#c"/>
<use x="1349.707031" xlink:href="#ac"/>
<use x="1413.330078" xlink:href="#n"/>
<use x="1474.853516" xlink:href="#u"/>
<use x="1538.330078" xlink:href="#p"/>
<use x="1601.953125" xlink:href="#l"/>
<use x="1656.933594" xlink:href="#ai"/>
<use x="1720.556641" xlink:href="#af"/>
<use x="1784.033203" xlink:href="#u"/>
<use x="1847.509766" xlink:href="#b"/>
<use x="1911.132812" xlink:href="#n"/>
<use x="1972.65625" xlink:href="#q"/>
<use x="2036.279297" xlink:href="#ac"/>
<use x="2099.902344" xlink:href="#l"/>
<use x="2154.882812" xlink:href="#k"/>
<use x="2216.162109" xlink:href="#u"/>
<use x="2279.638672" xlink:href="#af"/>
<use x="2343.115234" xlink:href="#c"/>
<use x="2406.738281" xlink:href="#l"/>
<use x="2461.71875" xlink:href="#u"/>
<use x="2525.195312" xlink:href="#aj"/>
<use x="2561.279297" xlink:href="#c"/>
<use x="2624.902344" xlink:href="#ac"/>
<use x="2688.525391" xlink:href="#n"/>
<use x="2750.048828" xlink:href="#u"/>
<use x="2813.525391" xlink:href="#p"/>
<use x="2877.148438" xlink:href="#l"/>
<use x="2932.128906" xlink:href="#ai"/>
<use x="2995.751953" xlink:href="#DejaVuSans-20"/>
<use x="3027.539062" xlink:href="#ak"/>
<use x="3086.71875" xlink:href="#i"/>
<use x="3138.818359" xlink:href="#d"/>
<use x="3170.605469" xlink:href="#DejaVuSans-20"/>
<use x="3202.392578" xlink:href="#w"/>
<use x="3266.015625" xlink:href="#d"/>
<use x="3297.802734" xlink:href="#b"/>
<use x="3361.425781" xlink:href="#ac"/>
<use x="3425.048828" xlink:href="#d"/>
<use x="3456.835938" xlink:href="#c"/>
<use x="3520.458984" xlink:href="#k"/>
<use x="3581.738281" xlink:href="#c"/>
</g>
<defs>
<clipPath id="a">
<rect x="126" y="34.8" width="436" height="241"/>
</clipPath>
</defs>
</svg>
