<?xml version="1.0" encoding="UTF-8"?>
<!DOCTYPE svg  PUBLIC '-//W3C//DTD SVG 1.1//EN'  'http://www.w3.org/Graphics/SVG/1.1/DTD/svg11.dtd'>
<svg width="576pt" height="230pt" version="1.1" viewBox="0 0 576 230" xmlns="http://www.w3.org/2000/svg" xmlns:xlink="http://www.w3.org/1999/xlink">
<defs>
<style type="text/css">*{stroke-linejoin: round; stroke-linecap: butt}</style>
</defs>
<path d="m0 230h576v-230h-576z" fill="#fff"/>
<path d="m126 211h432v-176h-432z" fill="#fff"/>
<path d="m163 181v1.75l0.119-0.00911 0.119-0.0268 0.119-0.0428 0.119-0.0562 0.119-0.0665 0.119-0.0732 0.119-0.0763 0.119-0.076 0.119-0.0728 0.119-0.0674 0.119-0.0604 0.119-0.0525 0.119-0.0443 0.119-0.0363 0.119-0.0288 0.119-0.0221 0.119-0.0163 0.119-0.0114 0.119-0.00717 0.119-0.00362 0.119-5.69e-4 0.119 0.00212 0.119 0.00455 0.119 0.00681 0.119 0.00891 0.119 0.0108 0.119 0.0126 0.119 0.014 0.119 0.0149 0.238 0.0306 0.119 0.0145 0.119 0.0132 0.119 0.0114 0.119 0.0096 0.238 0.0156 0.119 0.0087 0.119 0.0127 0.119 0.0208 0.119 0.0345 0.119 0.0558 0.119 0.0866 0.119 0.129 0.119 0.186 0.119 0.257 0.119 0.346 0.119 0.451 0.119 0.572 0.119 0.704 0.119 0.841 0.119 0.977 0.119 1.1 0.119 1.2 0.119 1.27 0.119 1.28 0.119 1.25 0.119 1.15 0.119 0.995 0.119 0.783 0.119 0.524 0.119 0.233 0.119-0.0718 0.119-0.372 0.119-0.649 0.119-0.887 0.119-1.07 0.119-1.2 0.119-1.26 0.119-1.27 0.119-1.22 0.119-1.14 0.119-1.02 0.119-0.88 0.119-0.736 0.119-0.593 0.119-0.459 0.119-0.339 0.119-0.237 0.119-0.153 0.119-0.0869 0.119-0.0378 0.119-0.00365 0.119 0.0181 0.119 0.0298 0.119 0.0341 0.119 0.0332 0.119 0.0292 0.119 0.0236 0.119 0.0176 0.119 0.0118 0.119 0.00639 0.119 0.00136 0.119-0.00368 0.119-0.00919 0.119-0.0156 0.119-0.0231 0.119-0.0319 0.119-0.0415v-2.11l-0.119-0.0415-0.119-0.0319-0.119-0.0231-0.119-0.0156-0.119-0.00919-0.119-0.00368-0.119 0.00136-0.119 0.00639-0.119 0.0118-0.119 0.0176-0.119 0.0236-0.119 0.0292-0.119 0.0332-0.119 0.0341-0.119 0.0298-0.119 0.0181-0.119-0.00365-0.119-0.0378-0.119-0.0869-0.119-0.153-0.119-0.237-0.119-0.339-0.119-0.459-0.119-0.593-0.119-0.736-0.119-0.88-0.119-1.02-0.119-1.14-0.119-1.22-0.119-1.27-0.119-1.26-0.119-1.2-0.119-1.07-0.119-0.887-0.119-0.649-0.119-0.372-0.119-0.0718-0.119 0.233-0.119 0.524-0.119 0.783-0.119 0.995-0.119 1.15-0.119 1.25-0.119 1.28-0.119 1.27-0.119 1.2-0.119 1.1-0.119 0.977-0.119 0.841-0.119 0.704-0.119 0.572-0.119 0.451-0.119 0.346-0.119 0.257-0.119 0.186-0.119 0.129-0.119 0.0866-0.119 0.0558-0.119 0.0345-0.119 0.0208-0.119 0.0127-0.119 0.0087-0.238 0.0156-0.119 0.0096-0.119 0.0114-0.119 0.0132-0.119 0.0145-0.238 0.0306-0.119 0.0149-0.119 0.014-0.119 0.0126-0.119 0.0108-0.119 0.00891-0.119 0.00681-0.119 0.00455-0.119 0.00212-0.119-5.69e-4 -0.119-0.00362-0.119-0.00717-0.119-0.0114-0.119-0.0163-0.119-0.0221-0.119-0.0288-0.119-0.0363-0.119-0.0443-0.119-0.0525-0.119-0.0604-0.119-0.0674-0.119-0.0728-0.119-0.076-0.119-0.0763-0.119-0.0732-0.119-0.0665-0.119-0.0562-0.119-0.0428-0.119-0.0268-0.119-0.00911z" clip-path="url(#a)" fill="#1f77b4" fill-opacity=".3"/>
<path d="m188 137v29.3-29.3z" clip-path="url(#a)" fill="#1f77b4" fill-opacity=".3"/>
<path d="m204 122v1.65l2.36 0.198 0.589 0.053 0.589 0.0595 0.589 0.0692 0.589 0.0824 0.589 0.099 0.589 0.119 0.589 0.142 0.589 0.167 0.589 0.195 0.589 0.223 0.589 0.253 0.589 0.282 0.589 0.31 0.589 0.337 0.589 0.36 0.589 0.38 0.589 0.396 0.589 0.408 0.589 0.414 0.589 0.415 0.589 0.41 0.589 0.4 0.589 0.386 0.589 0.367 0.589 0.347 0.589 0.325 0.589 0.304 0.589 0.284 0.589 0.267 0.589 0.255 1.18 0.497 0.589 0.255 0.589 0.266 0.589 0.283 0.589 0.303 0.589 0.325 0.589 0.346 0.589 0.365 0.589 0.378 1.18 0.765 0.589 0.368 0.589 0.344 0.589 0.31 0.589 0.265 0.589 0.211 0.589 0.149 0.589 0.0829 0.589 0.0137 0.589-0.0558 0.589-0.123 0.589-0.186 0.589-0.243 0.589-0.293 0.589-0.334 0.589-0.367 0.589-0.39 0.589-0.406 1.18-0.827 0.589-0.409 0.589-0.4 0.589-0.388 0.589-0.374 0.589-0.36 0.589-0.346 0.589-0.333 0.589-0.321 0.589-0.312 0.589-0.304 0.589-0.299 0.589-0.297 1.77-0.892 0.589-0.302 0.589-0.306 0.589-0.31 2.36-1.26 0.589-0.312 0.589-0.307 0.589-0.299 0.589-0.29 0.589-0.278 0.589-0.265 0.589-0.251 0.589-0.235 0.589-0.219 0.589-0.202 0.589-0.186 0.589-0.17v-2.42l-0.589-0.17-0.589-0.186-0.589-0.202-0.589-0.219-0.589-0.235-0.589-0.251-0.589-0.265-0.589-0.278-0.589-0.29-0.589-0.299-0.589-0.307-0.589-0.312-0.589-0.315-1.77-0.944-0.589-0.31-0.589-0.306-0.589-0.302-2.36-1.19-0.589-0.299-0.589-0.304-0.589-0.312-0.589-0.321-0.589-0.333-0.589-0.346-0.589-0.36-0.589-0.374-0.589-0.388-0.589-0.4-0.589-0.409-1.18-0.827-0.589-0.406-0.589-0.39-0.589-0.367-0.589-0.334-0.589-0.293-0.589-0.243-0.589-0.186-0.589-0.123-0.589-0.0558-0.589 0.0137-0.589 0.0829-0.589 0.149-0.589 0.211-0.589 0.265-0.589 0.31-0.589 0.344-0.589 0.368-1.18 0.765-0.589 0.378-0.589 0.365-0.589 0.346-0.589 0.325-0.589 0.303-0.589 0.283-0.589 0.266-0.589 0.255-1.18 0.497-0.589 0.255-0.589 0.267-0.589 0.284-0.589 0.304-0.589 0.325-0.589 0.347-0.589 0.367-0.589 0.386-0.589 0.4-0.589 0.41-0.589 0.415-0.589 0.414-0.589 0.408-0.589 0.396-0.589 0.38-0.589 0.36-0.589 0.337-0.589 0.31-0.589 0.282-0.589 0.253-0.589 0.223-0.589 0.195-0.589 0.167-0.589 0.142-0.589 0.119-0.589 0.099-0.589 0.0824-0.589 0.0692-0.589 0.0595-0.589 0.053-0.589 0.0494-1.77 0.149z" clip-path="url(#a)" fill="#1f77b4" fill-opacity=".3"/>
<path d="m471 93v0.948l2.05 0.0964 0.685 0.0333 0.685 0.0354 0.685 0.0382 0.685 0.0411 0.685 0.0437 0.685 0.0457 2.74 0.182 2.05 0.122 0.685 0.0428 0.685 0.0485 0.685 0.0579 0.685 0.0714 0.685 0.0889 0.685 0.11 0.685 0.135 0.685 0.162 0.685 0.19 0.685 0.219 0.685 0.247 0.685 0.274 0.685 0.3 0.685 0.325 0.685 0.348 0.685 0.371 0.685 0.394 0.685 0.418 0.685 0.444 0.685 0.471 0.685 0.501 0.685 0.532 0.685 0.563 0.685 0.594 0.685 0.621 0.685 0.642 0.685 0.656 0.685 0.658 0.685 0.649 0.685 0.626 0.685 0.588 0.685 0.538 0.685 0.475 0.685 0.402 0.685 0.322 0.685 0.239 0.685 0.155 0.685 0.0734 0.685-0.00283 0.685-0.072 0.685-0.133 0.685-0.186 0.685-0.23 0.685-0.267 0.685-0.299 0.685-0.326 0.685-0.351 0.685-0.374 0.685-0.395 0.685-0.417 0.685-0.438 0.685-0.458 0.685-0.476 0.685-0.492 0.685-0.505 0.685-0.515 1.37-1.04 0.685-0.52 0.685-0.513 0.685-0.503 0.685-0.489 0.685-0.473 0.685-0.453 0.685-0.431 0.685-0.408 0.685-0.382 0.685-0.356 0.685-0.329 0.685-0.302 0.685-0.275 0.685-0.249 0.685-0.223 0.685-0.199 0.685-0.176 0.685-0.155 0.685-0.135 0.685-0.118 0.685-0.102 0.685-0.0896 0.685-0.0791 0.685-0.0709 0.685-0.0646v-1.17l-0.685-0.0646-0.685-0.0709-0.685-0.0791-0.685-0.0896-0.685-0.102-0.685-0.118-0.685-0.135-0.685-0.155-0.685-0.176-0.685-0.199-0.685-0.223-0.685-0.249-0.685-0.275-0.685-0.302-0.685-0.329-0.685-0.356-0.685-0.382-0.685-0.408-0.685-0.431-0.685-0.453-0.685-0.473-0.685-0.489-0.685-0.503-0.685-0.513-0.685-0.52-1.37-1.04-0.685-0.515-0.685-0.505-0.685-0.492-0.685-0.476-0.685-0.458-0.685-0.438-0.685-0.417-0.685-0.395-0.685-0.374-0.685-0.351-0.685-0.326-0.685-0.299-0.685-0.267-0.685-0.23-0.685-0.186-0.685-0.133-0.685-0.072-0.685-0.00283-0.685 0.0734-0.685 0.155-0.685 0.239-0.685 0.322-0.685 0.402-0.685 0.475-0.685 0.538-0.685 0.588-0.685 0.626-0.685 0.649-0.685 0.658-0.685 0.656-0.685 0.642-0.685 0.621-0.685 0.594-0.685 0.563-0.685 0.532-0.685 0.501-0.685 0.471-0.685 0.444-0.685 0.418-0.685 0.394-0.685 0.371-0.685 0.348-0.685 0.325-0.685 0.3-0.685 0.274-0.685 0.247-0.685 0.219-0.685 0.19-0.685 0.162-0.685 0.135-0.685 0.11-0.685 0.0889-0.685 0.0714-0.685 0.0579-0.685 0.0485-0.685 0.0428-2.74 0.165-2.05 0.138-0.685 0.0457-0.685 0.0437-0.685 0.0411-0.685 0.0382-0.685 0.0354-0.685 0.0333-2.05 0.0964z" clip-path="url(#a)" fill="#1f77b4" fill-opacity=".3"/>
<path d="m163 52.4v23.4l3.79 0.77 3.79 0.673 3.79 0.56 3.79 0.437 3.79 0.308 3.79 0.178 3.79 0.0525 3.79-0.0649 3.79-0.171 3.79-0.263 3.79-0.341 3.79-0.404 3.79-0.454 3.79-0.493 3.79-0.522 7.57-1.11 11.4-1.77 18.9-3.1 3.79-0.609 3.79-0.592 3.79-0.569 3.79-0.54 3.79-0.505 3.79-0.465 3.79-0.423 3.79-0.379 3.79-0.334 3.79-0.291 3.79-0.249 3.79-0.21 3.79-0.174 3.79-0.143 3.79-0.115 3.79-0.0915 3.79-0.0717 3.79-0.0553 3.79-0.042 3.79-0.0315 3.79-0.0233 3.79-0.0169 3.79-0.0121 3.79-0.00855 3.79-0.00593 11.4-0.00827 7.57-0.00105 15.1 0.00606 7.57 0.0103 3.79 0.00867 3.79 0.0121 3.79 0.0167 3.79 0.0228 3.79 0.0306 3.79 0.0405 3.79 0.0529 3.79 0.0681 3.79 0.0864 3.79 0.108 3.79 0.133 3.79 0.162 3.79 0.194 3.79 0.229 3.79 0.265 3.79 0.302 3.79 0.338 3.79 0.372 3.79 0.402 3.79 0.425 3.79 0.441 7.57 0.885 3.79 0.42 3.79 0.387 3.79 0.342 3.79 0.284 3.79 0.216 3.79 0.139 3.79 0.0573 3.79-0.027 3.79-0.11 3.79-0.19 3.79-0.262 3.79-0.324 3.79-0.375 3.79-0.413 3.79-0.437v-8.64l-3.79-0.437-3.79-0.413-3.79-0.375-3.79-0.324-3.79-0.262-3.79-0.19-3.79-0.11-3.79-0.027-3.79 0.0573-3.79 0.139-3.79 0.216-3.79 0.284-3.79 0.342-3.79 0.387-3.79 0.42-11.4 1.33-3.79 0.425-3.79 0.402-3.79 0.372-3.79 0.338-3.79 0.302-3.79 0.265-3.79 0.229-3.79 0.194-3.79 0.162-3.79 0.133-3.79 0.108-3.79 0.0864-3.79 0.0681-3.79 0.0529-3.79 0.0405-3.79 0.0306-3.79 0.0228-3.79 0.0167-3.79 0.0121-3.79 0.00867-7.57 0.0103-15.1 0.00606-15.1-0.0053-3.79-0.00402-3.79-0.00593-3.79-0.00855-3.79-0.0121-3.79-0.0169-3.79-0.0233-3.79-0.0315-3.79-0.042-3.79-0.0553-3.79-0.0717-3.79-0.0915-3.79-0.115-3.79-0.143-3.79-0.174-3.79-0.21-3.79-0.249-3.79-0.291-3.79-0.334-3.79-0.379-3.79-0.423-3.79-0.465-3.79-0.505-3.79-0.54-3.79-0.569-3.79-0.592-3.79-0.609-3.79-0.62-18.9-3.08-7.57-1.17-7.57-1.11-3.79-0.522-3.79-0.493-3.79-0.454-3.79-0.404-3.79-0.341-3.79-0.263-3.79-0.171-3.79-0.0649-3.79 0.0525-3.79 0.178-3.79 0.308-3.79 0.437-3.79 0.56-3.79 0.673-3.79 0.77z" clip-path="url(#a)" fill="#1f77b4" fill-opacity=".3"/>
<path d="m146 211v-176" clip-path="url(#a)" fill="none" stroke="#b0b0b0" stroke-linecap="square" stroke-width=".8"/>
<defs>
<path id="i" d="m0 0v3.5" stroke="#000" stroke-width=".8"/>
</defs>
<use x="146.08826" y="210.721635" stroke="#000000" stroke-width=".8" xlink:href="#i"/>
<defs>
<path id="j" d="m0 0v-3.5" stroke="#000" stroke-width=".8"/>
</defs>
<use x="146.08826" y="34.79649" stroke="#000000" stroke-width=".8" xlink:href="#j"/>
<!-- 1.00× -->
<g transform="translate(131 225) scale(.1 -.1)">
<defs>
<path id="b" transform="scale(.0156)" d="m794 531h1031v3560l-1122-225v575l1116 225h631v-4135h1031v-531h-2687v531z"/>
<path id="c" transform="scale(.0156)" d="m684 794h660v-794h-660v794z"/>
<path id="d" transform="scale(.0156)" d="m2034 4250q-487 0-733-480-245-479-245-1442 0-959 245-1439 246-480 733-480 491 0 736 480 246 480 246 1439 0 963-246 1442-245 480-736 480zm0 500q785 0 1199-621 414-620 414-1801 0-1178-414-1799-414-620-1199-620-784 0-1198 620-414 621-414 1799 0 1181 414 1801 414 621 1198 621z"/>
<path id="e" transform="scale(.0156)" d="m4488 3438-1429-1435 1429-1428-372-378-1435 1434-1434-1434-369 378 1425 1428-1425 1435 369 378 1434-1435 1435 1435 372-378z"/>
</defs>
<use xlink:href="#b"/>
<use x="63.623047" xlink:href="#c"/>
<use x="95.410156" xlink:href="#d"/>
<use x="159.033203" xlink:href="#d"/>
<use x="222.65625" xlink:href="#e"/>
</g>
<!-- 1.00× -->
<g transform="translate(131 25.7) scale(.1 -.1)">
<use xlink:href="#b"/>
<use x="63.623047" xlink:href="#c"/>
<use x="95.410156" xlink:href="#d"/>
<use x="159.033203" xlink:href="#d"/>
<use x="222.65625" xlink:href="#e"/>
</g>
<path d="m198 211v-176" clip-path="url(#a)" fill="none" stroke="#b0b0b0" stroke-linecap="square" stroke-width=".8"/>
<use x="197.536867" y="210.721635" stroke="#000000" stroke-width=".8" xlink:href="#i"/>
<use x="197.536867" y="34.79649" stroke="#000000" stroke-width=".8" xlink:href="#j"/>
<!-- 1.05× -->
<g transform="translate(182 225) scale(.1 -.1)">
<defs>
<path id="l" transform="scale(.0156)" d="m691 4666h2478v-532h-1900v-1143q137 47 274 70 138 23 276 23 781 0 1237-428 457-428 457-1159 0-753-469-1171-469-417-1322-417-294 0-599 50-304 50-629 150v635q281-153 581-228t634-75q541 0 856 284 316 284 316 772 0 487-316 771-315 285-856 285-253 0-505-56-251-56-513-175v2344z"/>
</defs>
<use xlink:href="#b"/>
<use x="63.623047" xlink:href="#c"/>
<use x="95.410156" xlink:href="#d"/>
<use x="159.033203" xlink:href="#l"/>
<use x="222.65625" xlink:href="#e"/>
</g>
<!-- 1.05× -->
<g transform="translate(182 25.7) scale(.1 -.1)">
<use xlink:href="#b"/>
<use x="63.623047" xlink:href="#c"/>
<use x="95.410156" xlink:href="#d"/>
<use x="159.033203" xlink:href="#l"/>
<use x="222.65625" xlink:href="#e"/>
</g>
<path d="m249 211v-176" clip-path="url(#a)" fill="none" stroke="#b0b0b0" stroke-linecap="square" stroke-width=".8"/>
<use x="248.985473" y="210.721635" stroke="#000000" stroke-width=".8" xlink:href="#i"/>
<use x="248.985473" y="34.79649" stroke="#000000" stroke-width=".8" xlink:href="#j"/>
<!-- 1.10× -->
<g transform="translate(234 225) scale(.1 -.1)">
<use xlink:href="#b"/>
<use x="63.623047" xlink:href="#c"/>
<use x="95.410156" xlink:href="#b"/>
<use x="159.033203" xlink:href="#d"/>
<use x="222.65625" xlink:href="#e"/>
</g>
<!-- 1.10× -->
<g transform="translate(234 25.7) scale(.1 -.1)">
<use xlink:href="#b"/>
<use x="63.623047" xlink:href="#c"/>
<use x="95.410156" xlink:href="#b"/>
<use x="159.033203" xlink:href="#d"/>
<use x="222.65625" xlink:href="#e"/>
</g>
<path d="m300 211v-176" clip-path="url(#a)" fill="none" stroke="#b0b0b0" stroke-linecap="square" stroke-width=".8"/>
<use x="300.43408" y="210.721635" stroke="#000000" stroke-width=".8" xlink:href="#i"/>
<use x="300.43408" y="34.79649" stroke="#000000" stroke-width=".8" xlink:href="#j"/>
<!-- 1.15× -->
<g transform="translate(285 225) scale(.1 -.1)">
<use xlink:href="#b"/>
<use x="63.623047" xlink:href="#c"/>
<use x="95.410156" xlink:href="#b"/>
<use x="159.033203" xlink:href="#l"/>
<use x="222.65625" xlink:href="#e"/>
</g>
<!-- 1.15× -->
<g transform="translate(285 25.7) scale(.1 -.1)">
<use xlink:href="#b"/>
<use x="63.623047" xlink:href="#c"/>
<use x="95.410156" xlink:href="#b"/>
<use x="159.033203" xlink:href="#l"/>
<use x="222.65625" xlink:href="#e"/>
</g>
<path d="m352 211v-176" clip-path="url(#a)" fill="none" stroke="#b0b0b0" stroke-linecap="square" stroke-width=".8"/>
<use x="351.882686" y="210.721635" stroke="#000000" stroke-width=".8" xlink:href="#i"/>
<use x="351.882686" y="34.79649" stroke="#000000" stroke-width=".8" xlink:href="#j"/>
<!-- 1.20× -->
<g transform="translate(337 225) scale(.1 -.1)">
<defs>
<path id="f" transform="scale(.0156)" d="m1228 531h2203v-531h-2962v531q359 372 979 998 621 627 780 809 303 340 423 576 121 236 121 464 0 372-261 606-261 235-680 235-297 0-627-103-329-103-704-313v638q381 153 712 231 332 78 607 78 725 0 1156-363 431-362 431-968 0-288-108-546-107-257-392-607-78-91-497-524-418-433-1181-1211z"/>
</defs>
<use xlink:href="#b"/>
<use x="63.623047" xlink:href="#c"/>
<use x="95.410156" xlink:href="#f"/>
<use x="159.033203" xlink:href="#d"/>
<use x="222.65625" xlink:href="#e"/>
</g>
<!-- 1.20× -->
<g transform="translate(337 25.7) scale(.1 -.1)">
<use xlink:href="#b"/>
<use x="63.623047" xlink:href="#c"/>
<use x="95.410156" xlink:href="#f"/>
<use x="159.033203" xlink:href="#d"/>
<use x="222.65625" xlink:href="#e"/>
</g>
<path d="m403 211v-176" clip-path="url(#a)" fill="none" stroke="#b0b0b0" stroke-linecap="square" stroke-width=".8"/>
<use x="403.331292" y="210.721635" stroke="#000000" stroke-width=".8" xlink:href="#i"/>
<use x="403.331292" y="34.79649" stroke="#000000" stroke-width=".8" xlink:href="#j"/>
<!-- 1.25× -->
<g transform="translate(388 225) scale(.1 -.1)">
<use xlink:href="#b"/>
<use x="63.623047" xlink:href="#c"/>
<use x="95.410156" xlink:href="#f"/>
<use x="159.033203" xlink:href="#l"/>
<use x="222.65625" xlink:href="#e"/>
</g>
<!-- 1.25× -->
<g transform="translate(388 25.7) scale(.1 -.1)">
<use xlink:href="#b"/>
<use x="63.623047" xlink:href="#c"/>
<use x="95.410156" xlink:href="#f"/>
<use x="159.033203" xlink:href="#l"/>
<use x="222.65625" xlink:href="#e"/>
</g>
<path d="m455 211v-176" clip-path="url(#a)" fill="none" stroke="#b0b0b0" stroke-linecap="square" stroke-width=".8"/>
<use x="454.779899" y="210.721635" stroke="#000000" stroke-width=".8" xlink:href="#i"/>
<use x="454.779899" y="34.79649" stroke="#000000" stroke-width=".8" xlink:href="#j"/>
<!-- 1.30× -->
<g transform="translate(439 225) scale(.1 -.1)">
<defs>
<path id="h" transform="scale(.0156)" d="m2597 2516q453-97 707-404 255-306 255-756 0-690-475-1069-475-378-1350-378-293 0-604 58t-642 174v609q262-153 574-231 313-78 654-78 593 0 904 234t311 681q0 413-289 645-289 233-804 233h-544v519h569q465 0 712 186t247 536q0 359-255 551-254 193-729 193-260 0-557-57-297-56-653-174v562q360 100 674 150t592 50q719 0 1137-327 419-326 419-882 0-388-222-655t-631-370z"/>
</defs>
<use xlink:href="#b"/>
<use x="63.623047" xlink:href="#c"/>
<use x="95.410156" xlink:href="#h"/>
<use x="159.033203" xlink:href="#d"/>
<use x="222.65625" xlink:href="#e"/>
</g>
<!-- 1.30× -->
<g transform="translate(439 25.7) scale(.1 -.1)">
<use xlink:href="#b"/>
<use x="63.623047" xlink:href="#c"/>
<use x="95.410156" xlink:href="#h"/>
<use x="159.033203" xlink:href="#d"/>
<use x="222.65625" xlink:href="#e"/>
</g>
<path d="m506 211v-176" clip-path="url(#a)" fill="none" stroke="#b0b0b0" stroke-linecap="square" stroke-width=".8"/>
<use x="506.228505" y="210.721635" stroke="#000000" stroke-width=".8" xlink:href="#i"/>
<use x="506.228505" y="34.79649" stroke="#000000" stroke-width=".8" xlink:href="#j"/>
<!-- 1.35× -->
<g transform="translate(491 225) scale(.1 -.1)">
<use xlink:href="#b"/>
<use x="63.623047" xlink:href="#c"/>
<use x="95.410156" xlink:href="#h"/>
<use x="159.033203" xlink:href="#l"/>
<use x="222.65625" xlink:href="#e"/>
</g>
<!-- 1.35× -->
<g transform="translate(491 25.7) scale(.1 -.1)">
<use xlink:href="#b"/>
<use x="63.623047" xlink:href="#c"/>
<use x="95.410156" xlink:href="#h"/>
<use x="159.033203" xlink:href="#l"/>
<use x="222.65625" xlink:href="#e"/>
</g>
<path d="m558 211v-176" clip-path="url(#a)" fill="none" stroke="#b0b0b0" stroke-linecap="square" stroke-width=".8"/>
<use x="557.677112" y="210.721635" stroke="#000000" stroke-width=".8" xlink:href="#i"/>
<use x="557.677112" y="34.79649" stroke="#000000" stroke-width=".8" xlink:href="#j"/>
<!-- 1.40× -->
<g transform="translate(542 225) scale(.1 -.1)">
<defs>
<path id="m" transform="scale(.0156)" d="m2419 4116-1594-2491h1594v2491zm-166 550h794v-3041h666v-525h-666v-1100h-628v1100h-2106v609l1940 2957z"/>
</defs>
<use xlink:href="#b"/>
<use x="63.623047" xlink:href="#c"/>
<use x="95.410156" xlink:href="#m"/>
<use x="159.033203" xlink:href="#d"/>
<use x="222.65625" xlink:href="#e"/>
</g>
<!-- 1.40× -->
<g transform="translate(542 25.7) scale(.1 -.1)">
<use xlink:href="#b"/>
<use x="63.623047" xlink:href="#c"/>
<use x="95.410156" xlink:href="#m"/>
<use x="159.033203" xlink:href="#d"/>
<use x="222.65625" xlink:href="#e"/>
</g>
<path d="m126 181h432" clip-path="url(#a)" fill="none" stroke="#b0b0b0" stroke-linecap="square" stroke-width=".8"/>
<defs>
<path id="s" d="m0 0h-3.5" stroke="#000" stroke-width=".8"/>
</defs>
<use x="126.473678" y="181.400777" stroke="#000000" stroke-width=".8" xlink:href="#s"/>
<!-- python_startup -->
<g transform="translate(43.5 185) scale(.1 -.1)">
<defs>
<path id="o" transform="scale(.0156)" d="m1159 525v-1856h-578v4831h578v-531q182 312 458 463 277 152 661 152 638 0 1036-506 399-506 399-1331t-399-1332q-398-506-1036-506-384 0-661 152-276 152-458 464zm1957 1222q0 634-261 995t-717 361q-457 0-718-361t-261-995 261-995 718-361q456 0 717 361t261 995z"/>
<path id="v" transform="scale(.0156)" d="m2059-325q-243-625-475-815-231-191-618-191h-460v481h338q237 0 368 113 132 112 291 531l103 262-1415 3444h609l1094-2737 1094 2737h609l-1538-3825z"/>
<path id="k" transform="scale(.0156)" d="m1172 4494v-994h1184v-447h-1184v-1900q0-428 117-550t477-122h590v-481h-590q-666 0-919 248-253 249-253 905v1900h-422v447h422v994h578z"/>
<path id="x" transform="scale(.0156)" d="m3513 2113v-2113h-575v2094q0 497-194 743-194 247-581 247-466 0-735-297-269-296-269-809v-1978h-578v4863h578v-1907q207 316 486 472 280 156 646 156 603 0 912-373 310-373 310-1098z"/>
<path id="g" transform="scale(.0156)" d="m1959 3097q-462 0-731-361t-269-989 267-989q268-361 733-361 460 0 728 362 269 363 269 988 0 622-269 986-268 364-728 364zm0 487q750 0 1178-488 429-487 429-1349 0-859-429-1349-428-489-1178-489-753 0-1180 489-426 490-426 1349 0 862 426 1349 427 488 1180 488z"/>
<path id="t" transform="scale(.0156)" d="m3513 2113v-2113h-575v2094q0 497-194 743-194 247-581 247-466 0-735-297-269-296-269-809v-1978h-578v3500h578v-544q207 316 486 472 280 156 646 156 603 0 912-373 310-373 310-1098z"/>
<path id="r" transform="scale(.0156)" d="m3263-1063v-446h-3326v446h3326z"/>
<path id="n" transform="scale(.0156)" d="m2834 3397v-544q-243 125-506 187-262 63-544 63-428 0-642-131t-214-394q0-200 153-314t616-217l197-44q612-131 870-370t258-667q0-488-386-773-386-284-1061-284-281 0-586 55t-642 164v594q319-166 628-249 309-82 613-82 406 0 624 139 219 139 219 392 0 234-158 359-157 125-692 241l-200 47q-534 112-772 345-237 233-237 639 0 494 350 762 350 269 994 269 318 0 599-47 282-46 519-140z"/>
<path id="z" transform="scale(.0156)" d="m2194 1759q-697 0-966-159t-269-544q0-306 202-486 202-179 548-179 479 0 768 339t289 901v128h-572zm1147 238v-2e3h-575v531q-197-318-491-470t-719-152q-537 0-855 302-317 302-317 808 0 590 395 890 396 300 1180 300h807v57q0 397-261 614t-733 217q-300 0-585-72-284-72-546-216v532q315 122 612 182 297 61 578 61 760 0 1135-394 375-393 375-1193z"/>
<path id="w" transform="scale(.0156)" d="m2631 2963q-97 56-211 82-114 27-251 27-488 0-749-317t-261-911v-1844h-578v3500h578v-544q182 319 472 473 291 155 707 155 59 0 131-8 72-7 159-23l3-590z"/>
<path id="aa" transform="scale(.0156)" d="m544 1381v2119h575v-2097q0-497 193-746 194-248 582-248 465 0 735 297 271 297 271 810v1984h575v-3500h-575v538q-209-319-486-474-276-155-642-155-603 0-916 375-312 375-312 1097zm1447 2203z"/>
</defs>
<use xlink:href="#o"/>
<use x="63.476562" xlink:href="#v"/>
<use x="122.65625" xlink:href="#k"/>
<use x="161.865234" xlink:href="#x"/>
<use x="225.244141" xlink:href="#g"/>
<use x="286.425781" xlink:href="#t"/>
<use x="349.804688" xlink:href="#r"/>
<use x="399.804688" xlink:href="#n"/>
<use x="451.904297" xlink:href="#k"/>
<use x="491.113281" xlink:href="#z"/>
<use x="552.392578" xlink:href="#w"/>
<use x="593.505859" xlink:href="#k"/>
<use x="632.714844" xlink:href="#aa"/>
<use x="696.09375" xlink:href="#o"/>
</g>
<path d="m126 152h432" clip-path="url(#a)" fill="none" stroke="#b0b0b0" stroke-linecap="square" stroke-width=".8"/>
<use x="126.473678" y="152.07992" stroke="#000000" stroke-width=".8" xlink:href="#s"/>
<!-- python_startup_no_site -->
<g transform="translate(3 156) scale(.1 -.1)">
<defs>
<path id="aj" transform="scale(.0156)" d="m603 3500h575v-3500h-575v3500zm0 1363h575v-729h-575v729z"/>
<path id="q" transform="scale(.0156)" d="m3597 1894v-281h-2644q38-594 358-905t892-311q331 0 642 81t618 244v-544q-310-131-635-200t-659-69q-838 0-1327 487-489 488-489 1320 0 859 464 1363 464 505 1252 505 706 0 1117-455 411-454 411-1235zm-575 169q-6 471-264 752-258 282-683 282-481 0-770-272t-333-766l2050 4z"/>
</defs>
<use xlink:href="#o"/>
<use x="63.476562" xlink:href="#v"/>
<use x="122.65625" xlink:href="#k"/>
<use x="161.865234" xlink:href="#x"/>
<use x="225.244141" xlink:href="#g"/>
<use x="286.425781" xlink:href="#t"/>
<use x="349.804688" xlink:href="#r"/>
<use x="399.804688" xlink:href="#n"/>
<use x="451.904297" xlink:href="#k"/>
<use x="491.113281" xlink:href="#z"/>
<use x="552.392578" xlink:href="#w"/>
<use x="593.505859" xlink:href="#k"/>
<use x="632.714844" xlink:href="#aa"/>
<use x="696.09375" xlink:href="#o"/>
<use x="759.570312" xlink:href="#r"/>
<use x="809.570312" xlink:href="#t"/>
<use x="872.949219" xlink:href="#g"/>
<use x="934.130859" xlink:href="#r"/>
<use x="984.130859" xlink:href="#n"/>
<use x="1036.230469" xlink:href="#aj"/>
<use x="1064.013672" xlink:href="#k"/>
<use x="1103.222656" xlink:href="#q"/>
</g>
<path d="m126 123h432" clip-path="url(#a)" fill="none" stroke="#b0b0b0" stroke-linecap="square" stroke-width=".8"/>
<use x="126.473678" y="122.759062" stroke="#000000" stroke-width=".8" xlink:href="#s"/>
<!-- bench_mp_pool -->
<g transform="translate(41.3 127) scale(.1 -.1)">
<defs>
<path id="ac" transform="scale(.0156)" d="m3116 1747q0 634-261 995t-717 361q-457 0-718-361t-261-995 261-995 718-361q456 0 717 361t261 995zm-1957 1222q182 312 458 463 277 152 661 152 638 0 1036-506 399-506 399-1331t-399-1332q-398-506-1036-506-384 0-661 152-276 152-458 464v-525h-578v4863h578v-1894z"/>
<path id="y" transform="scale(.0156)" d="m3122 3366v-538q-244 135-489 202t-495 67q-560 0-870-355-309-354-309-995t309-996q310-354 870-354 250 0 495 67t489 202v-532q-241-112-499-168-257-57-548-57-791 0-1257 497-465 497-465 1341 0 856 470 1346 471 491 1290 491 265 0 518-55 253-54 491-163z"/>
<path id="ab" transform="scale(.0156)" d="m3328 2828q216 388 516 572t706 184q547 0 844-383 297-382 297-1088v-2113h-578v2094q0 503-179 746-178 244-543 244-447 0-707-297-259-296-259-809v-1978h-578v2094q0 506-178 748t-550 242q-441 0-701-298-259-298-259-808v-1978h-578v3500h578v-544q197 322 472 475t653 153q382 0 649-194 267-193 395-562z"/>
<path id="ae" transform="scale(.0156)" d="m603 4863h575v-4863h-575v4863z"/>
</defs>
<use xlink:href="#ac"/>
<use x="63.476562" xlink:href="#q"/>
<use x="125" xlink:href="#t"/>
<use x="188.378906" xlink:href="#y"/>
<use x="243.359375" xlink:href="#x"/>
<use x="306.738281" xlink:href="#r"/>
<use x="356.738281" xlink:href="#ab"/>
<use x="454.150391" xlink:href="#o"/>
<use x="517.626953" xlink:href="#r"/>
<use x="567.626953" xlink:href="#o"/>
<use x="631.103516" xlink:href="#g"/>
<use x="692.285156" xlink:href="#g"/>
<use x="753.466797" xlink:href="#ae"/>
</g>
<path d="m126 93.4h432" clip-path="url(#a)" fill="none" stroke="#b0b0b0" stroke-linecap="square" stroke-width=".8"/>
<use x="126.473678" y="93.438205" stroke="#000000" stroke-width=".8" xlink:href="#s"/>
<!-- 2to3 -->
<g transform="translate(96.7 97.2) scale(.1 -.1)">
<use xlink:href="#f"/>
<use x="63.623047" xlink:href="#k"/>
<use x="102.832031" xlink:href="#g"/>
<use x="164.013672" xlink:href="#h"/>
</g>
<path d="m126 64.1h432" clip-path="url(#a)" fill="none" stroke="#b0b0b0" stroke-linecap="square" stroke-width=".8"/>
<use x="126.473678" y="64.117347" stroke="#000000" stroke-width=".8" xlink:href="#s"/>
<!-- ALL -->
<g transform="translate(101 67.9) scale(.1 -.1)">
<defs>
<path id="an" transform="scale(.0156)" d="m2188 4044-857-2322h1716l-859 2322zm-357 622h716l1778-4666h-656l-425 1197h-2103l-425-1197h-666l1781 4666z"/>
<path id="af" transform="scale(.0156)" d="m628 4666h631v-4135h2272v-531h-2903v4666z"/>
</defs>
<use xlink:href="#an"/>
<use x="68.408203" xlink:href="#af"/>
<use x="124.121094" xlink:href="#af"/>
</g>
<path d="m146 211v-176" clip-path="url(#a)" fill="none" stroke="#1f77b4" stroke-linecap="square" stroke-width="1.5"/>
<g fill="none" stroke="#1f77b4" stroke-width="1.5">
<path d="m171 189v-14.7" clip-path="url(#a)"/>
<path d="m188 159v-14.7" clip-path="url(#a)"/>
<path d="m235 130v-14.7" clip-path="url(#a)"/>
<path d="m509 101v-14.7" clip-path="url(#a)"/>
<path d="m278 71.4v-14.7" clip-path="url(#a)"/>
</g>
<g fill="none" stroke="#1f77b4" stroke-width="1.5">
<path d="m175 189v-14.7" clip-path="url(#a)"/>
<path d="m188 159v-14.7" clip-path="url(#a)"/>
<path d="m262 130v-14.7" clip-path="url(#a)"/>
<path d="m538 101v-14.7" clip-path="url(#a)"/>
<path d="m538 71.4v-14.7" clip-path="url(#a)"/>
</g>
<g fill="none" stroke="#1f77b4" stroke-width="1.5">
<path d="m163 189v-14.7" clip-path="url(#a)"/>
<path d="m188 159v-14.7" clip-path="url(#a)"/>
<path d="m204 130v-14.7" clip-path="url(#a)"/>
<path d="m471 101v-14.7" clip-path="url(#a)"/>
<path d="m163 71.4v-14.7" clip-path="url(#a)"/>
</g>
<g fill="none" stroke="#1f77b4" stroke-width="1.5">
<path d="m163 181h11.8" clip-path="url(#a)"/>
<path d="m188 152" clip-path="url(#a)"/>
<path d="m204 123h58.3" clip-path="url(#a)"/>
<path d="m471 93.4h67.8" clip-path="url(#a)"/>
<path d="m163 64.1h375" clip-path="url(#a)"/>
</g>
<g fill="none" stroke="#1f77b4" stroke-dasharray="1.5,2.475" stroke-width="1.5">
<path d="m171 189v-14.7" clip-path="url(#a)"/>
<path d="m171 189v-14.7" clip-path="url(#a)"/>
<path d="m188 159v-14.7" clip-path="url(#a)"/>
<path d="m188 159v-14.7" clip-path="url(#a)"/>
<path d="m220 130v-14.7" clip-path="url(#a)"/>
<path d="m250 130v-14.7" clip-path="url(#a)"/>
<path d="m495 101v-14.7" clip-path="url(#a)"/>
<path d="m523 101v-14.7" clip-path="url(#a)"/>
<path d="m171 71.4v-14.7" clip-path="url(#a)"/>
<path d="m512 71.4v-14.7" clip-path="url(#a)"/>
</g>
<path d="m126 211v-176" fill="none" stroke="#000" stroke-linecap="square" stroke-width=".8"/>
<path d="m558 211v-176" fill="none" stroke="#000" stroke-linecap="square" stroke-width=".8"/>
<path d="m126 211h432" fill="none" stroke="#000" stroke-linecap="square" stroke-width=".8"/>
<path d="m126 34.8h432" fill="none" stroke="#000" stroke-linecap="square" stroke-width=".8"/>
<!-- 1.0241 -->
<g transform="translate(171 173) scale(.08 -.08)">
<use xlink:href="#b"/>
<use x="63.623047" xlink:href="#c"/>
<use x="95.410156" xlink:href="#d"/>
<use x="159.033203" xlink:href="#f"/>
<use x="222.65625" xlink:href="#m"/>
<use x="286.279297" xlink:href="#b"/>
</g>
<!-- 1.0408 -->
<g transform="translate(188 143) scale(.08 -.08)">
<defs>
<path id="u" transform="scale(.0156)" d="m2034 2216q-450 0-708-241-257-241-257-662 0-422 257-663 258-241 708-241t709 242q260 243 260 662 0 421-258 662-257 241-711 241zm-631 268q-406 100-633 378-226 279-226 679 0 559 398 884 399 325 1092 325 697 0 1094-325t397-884q0-400-227-679-226-278-629-378 456-106 710-416 255-309 255-755 0-679-414-1042-414-362-1186-362-771 0-1186 362-414 363-414 1042 0 446 256 755 257 310 713 416zm-231 997q0-362 226-565 227-203 636-203 407 0 636 203 230 203 230 565 0 363-230 566-229 203-636 203-409 0-636-203-226-203-226-566z"/>
</defs>
<use xlink:href="#b"/>
<use x="63.623047" xlink:href="#c"/>
<use x="95.410156" xlink:href="#d"/>
<use x="159.033203" xlink:href="#m"/>
<use x="222.65625" xlink:href="#d"/>
<use x="286.279297" xlink:href="#u"/>
</g>
<!-- 1.0862 -->
<g transform="translate(235 114) scale(.08 -.08)">
<defs>
<path id="ad" transform="scale(.0156)" d="m2113 2584q-425 0-674-291-248-290-248-796 0-503 248-796 249-292 674-292t673 292q248 293 248 796 0 506-248 796-248 291-673 291zm1253 1979v-575q-238 112-480 171-242 60-480 60-625 0-955-422-329-422-376-1275 184 272 462 417 279 145 613 145 703 0 1111-427 408-426 408-1160 0-719-425-1154-425-434-1131-434-810 0-1238 620-428 621-428 1799 0 1106 525 1764t1409 658q238 0 480-47t505-140z"/>
</defs>
<use xlink:href="#b"/>
<use x="63.623047" xlink:href="#c"/>
<use x="95.410156" xlink:href="#d"/>
<use x="159.033203" xlink:href="#u"/>
<use x="222.65625" xlink:href="#ad"/>
<use x="286.279297" xlink:href="#f"/>
</g>
<!-- 1.3522 -->
<g transform="translate(509 84.6) scale(.08 -.08)">
<use xlink:href="#b"/>
<use x="63.623047" xlink:href="#c"/>
<use x="95.410156" xlink:href="#h"/>
<use x="159.033203" xlink:href="#l"/>
<use x="222.65625" xlink:href="#f"/>
<use x="286.279297" xlink:href="#f"/>
</g>
<!-- 1.1278 -->
<g transform="translate(278 55.3) scale(.08 -.08)">
<defs>
<path id="ag" transform="scale(.0156)" d="m525 4666h3e3v-269l-1694-4397h-659l1594 4134h-2241v532z"/>
</defs>
<use xlink:href="#b"/>
<use x="63.623047" xlink:href="#c"/>
<use x="95.410156" xlink:href="#b"/>
<use x="159.033203" xlink:href="#f"/>
<use x="222.65625" xlink:href="#ag"/>
<use x="286.279297" xlink:href="#u"/>
</g>
<!-- more ⟶ -->
<g transform="translate(156 34.8) scale(.1 -.1)">
<defs>
<path id="ao" transform="scale(.0156)" d="m8863 2147v-281l-1229-1228-375 375 729 728h-7622v531h7622l-729 728 375 375 1229-1228z"/>
</defs>
<use xlink:href="#ab"/>
<use x="97.412109" xlink:href="#g"/>
<use x="158.59375" xlink:href="#w"/>
<use x="197.457031" xlink:href="#q"/>
<use x="258.980469" xlink:href="#DejaVuSans-20"/>
<use x="290.767578" xlink:href="#ao"/>
</g>
<!-- ⟵ less -->
<g transform="translate(99.2 34.8) scale(.1 -.1)">
<defs>
<path id="ap" transform="scale(.0156)" d="m313 1866v281l1228 1228 375-375-728-728h7621v-531h-7621l728-728-375-375-1228 1228z"/>
</defs>
<use xlink:href="#ap"/>
<use x="143.359375" xlink:href="#DejaVuSans-20"/>
<use x="175.146484" xlink:href="#ae"/>
<use x="202.929688" xlink:href="#q"/>
<use x="264.453125" xlink:href="#n"/>
<use x="316.552734" xlink:href="#n"/>
</g>
<!-- Memory usage of python-34ddb64d088dd7ccc321-34ddb64 vs. 3.14.0a0 -->
<g transform="translate(122 12.1) scale(.12 -.12)">
<defs>
<path id="am" transform="scale(.0156)" d="m628 4666h941l1190-3175 1197 3175h941v-4666h-616v4097l-1203-3200h-634l-1203 3200v-4097h-613v4666z"/>
<path id="ak" transform="scale(.0156)" d="m2906 1791q0 625-258 968-257 344-723 344-462 0-720-344-258-343-258-968 0-622 258-966t720-344q466 0 723 344 258 344 258 966zm575-1357q0-893-397-1329-396-436-1215-436-303 0-572 45t-522 139v559q253-137 500-202 247-66 503-66 566 0 847 295t281 892v285q-178-310-456-463t-666-153q-643 0-1037 490-394 491-394 1301 0 812 394 1302 394 491 1037 491 388 0 666-153t456-462v531h575v-3066z"/>
<path id="al" transform="scale(.0156)" d="m2375 4863v-479h-550q-309 0-430-125-120-125-120-450v-309h947v-447h-947v-3053h-578v3053h-550v447h550v244q0 584 272 851 272 268 862 268h544z"/>
<path id="ah" transform="scale(.0156)" d="m313 2009h1684v-512h-1684v512z"/>
<path id="p" transform="scale(.0156)" d="m2906 2969v1894h575v-4863h-575v525q-181-312-458-464-276-152-664-152-634 0-1033 506-398 507-398 1332t398 1331q399 506 1033 506 388 0 664-152 277-151 458-463zm-1959-1222q0-634 261-995t717-361 718 361q263 361 263 995t-263 995q-262 361-718 361t-717-361-261-995z"/>
<path id="ai" transform="scale(.0156)" d="m191 3500h609l1094-2937 1094 2937h609l-1313-3500h-781l-1312 3500z"/>
</defs>
<use xlink:href="#am"/>
<use x="86.279297" xlink:href="#q"/>
<use x="147.802734" xlink:href="#ab"/>
<use x="245.214844" xlink:href="#g"/>
<use x="306.396484" xlink:href="#w"/>
<use x="347.509766" xlink:href="#v"/>
<use x="406.689453" xlink:href="#DejaVuSans-20"/>
<use x="438.476562" xlink:href="#aa"/>
<use x="501.855469" xlink:href="#n"/>
<use x="553.955078" xlink:href="#z"/>
<use x="615.234375" xlink:href="#ak"/>
<use x="678.710938" xlink:href="#q"/>
<use x="740.234375" xlink:href="#DejaVuSans-20"/>
<use x="772.021484" xlink:href="#g"/>
<use x="833.203125" xlink:href="#al"/>
<use x="868.408203" xlink:href="#DejaVuSans-20"/>
<use x="900.195312" xlink:href="#o"/>
<use x="963.671875" xlink:href="#v"/>
<use x="1022.851562" xlink:href="#k"/>
<use x="1062.060547" xlink:href="#x"/>
<use x="1125.439453" xlink:href="#g"/>
<use x="1186.621094" xlink:href="#t"/>
<use x="1250" xlink:href="#ah"/>
<use x="1286.083984" xlink:href="#h"/>
<use x="1349.707031" xlink:href="#m"/>
<use x="1413.330078" xlink:href="#p"/>
<use x="1476.806641" xlink:href="#p"/>
<use x="1540.283203" xlink:href="#ac"/>
<use x="1603.759766" xlink:href="#ad"/>
<use x="1667.382812" xlink:href="#m"/>
<use x="1731.005859" xlink:href="#p"/>
<use x="1794.482422" xlink:href="#d"/>
<use x="1858.105469" xlink:href="#u"/>
<use x="1921.728516" xlink:href="#u"/>
<use x="1985.351562" xlink:href="#p"/>
<use x="2048.828125" xlink:href="#p"/>
<use x="2112.304688" xlink:href="#ag"/>
<use x="2175.927734" xlink:href="#y"/>
<use x="2230.908203" xlink:href="#y"/>
<use x="2285.888672" xlink:href="#y"/>
<use x="2340.869141" xlink:href="#h"/>
<use x="2404.492188" xlink:href="#f"/>
<use x="2468.115234" xlink:href="#b"/>
<use x="2531.738281" xlink:href="#ah"/>
<use x="2567.822266" xlink:href="#h"/>
<use x="2631.445312" xlink:href="#m"/>
<use x="2695.068359" xlink:href="#p"/>
<use x="2758.544922" xlink:href="#p"/>
<use x="2822.021484" xlink:href="#ac"/>
<use x="2885.498047" xlink:href="#ad"/>
<use x="2949.121094" xlink:href="#m"/>
<use x="3012.744141" xlink:href="#DejaVuSans-20"/>
<use x="3044.53125" xlink:href="#ai"/>
<use x="3103.710938" xlink:href="#n"/>
<use x="3155.810547" xlink:href="#c"/>
<use x="3187.597656" xlink:href="#DejaVuSans-20"/>
<use x="3219.384766" xlink:href="#h"/>
<use x="3283.007812" xlink:href="#c"/>
<use x="3314.794922" xlink:href="#b"/>
<use x="3378.417969" xlink:href="#m"/>
<use x="3442.041016" xlink:href="#c"/>
<use x="3473.828125" xlink:href="#d"/>
<use x="3537.451172" xlink:href="#z"/>
<use x="3598.730469" xlink:href="#d"/>
</g>
<defs>
<clipPath id="a">
<rect x="126" y="34.8" width="432" height="176"/>
</clipPath>
</defs>
</svg>
