<?xml version="1.0" encoding="UTF-8"?>
<!DOCTYPE svg  PUBLIC '-//W3C//DTD SVG 1.1//EN'  'http://www.w3.org/Graphics/SVG/1.1/DTD/svg11.dtd'>
<svg width="576pt" height="166pt" version="1.1" viewBox="0 0 576 166" xmlns="http://www.w3.org/2000/svg" xmlns:xlink="http://www.w3.org/1999/xlink">
<defs>
<style type="text/css">*{stroke-linejoin: round; stroke-linecap: butt}</style>
</defs>
<path d="m0 166h576v-166h-576z" fill="#fff"/>
<path d="m46.9 146h526v-111h-526z" fill="#fff"/>
<path d="m499 108v2.41l0.508 0.165 0.508 0.182 0.508 0.2 0.508 0.219 0.508 0.241 0.508 0.263 0.508 0.286 0.508 0.309 0.508 0.332 0.508 0.355 0.508 0.376 0.508 0.396 0.508 0.415 0.508 0.433 0.508 0.449 0.508 0.465 0.508 0.481 0.508 0.496 0.508 0.511 0.508 0.527 0.508 0.542 0.508 0.556 0.508 0.568 0.508 0.579 0.508 0.587 0.508 0.592 0.508 0.593 0.508 0.59 0.508 0.584 0.508 0.573 0.508 0.558 0.508 0.539 0.508 0.517 0.508 0.49 0.508 0.458 0.508 0.422 0.508 0.38 0.508 0.332 0.508 0.278 0.508 0.219 0.508 0.155 0.508 0.0877 0.508 0.0181 0.508-0.0518 0.508-0.12 0.508-0.185 0.508-0.245 0.508-0.298 0.508-0.345 0.508-0.384 0.508-0.417 0.508-0.444 0.508-0.467 0.508-0.487 0.508-0.505 0.508-0.522 0.508-0.539 0.508-0.555 0.508-0.571 0.508-0.586 0.508-0.598 0.508-0.606 0.508-0.61 0.508-0.609 0.508-0.601 0.508-0.587 0.508-0.567 0.508-0.542 0.508-0.514 0.508-0.483 0.508-0.451 0.508-0.42 0.508-0.391 0.508-0.365 0.508-0.342 0.508-0.322 0.508-0.305 0.508-0.29 0.508-0.278 0.508-0.267 0.508-0.255 0.508-0.243 0.508-0.23 0.508-0.216 0.508-0.199 0.508-0.18 0.508-0.16 0.508-0.139 0.508-0.118 0.508-0.0965 0.508-0.0763 0.508-0.0581 0.508-0.0424 0.508-0.0298 0.508-0.0206 0.508-0.0149 1.02-0.0253 0.508-0.0157v-1.06l-0.508-0.0157-1.02-0.0253-0.508-0.0149-0.508-0.0206-0.508-0.0298-0.508-0.0424-0.508-0.0581-0.508-0.0763-0.508-0.0965-0.508-0.118-0.508-0.139-0.508-0.16-0.508-0.18-0.508-0.199-0.508-0.216-0.508-0.23-0.508-0.243-0.508-0.255-0.508-0.267-0.508-0.278-0.508-0.29-0.508-0.305-0.508-0.322-0.508-0.342-0.508-0.365-0.508-0.391-0.508-0.42-0.508-0.451-0.508-0.483-0.508-0.514-0.508-0.542-0.508-0.567-0.508-0.587-0.508-0.601-0.508-0.609-0.508-0.61-0.508-0.606-0.508-0.598-0.508-0.586-0.508-0.571-0.508-0.555-0.508-0.539-0.508-0.522-0.508-0.505-0.508-0.487-0.508-0.467-0.508-0.444-0.508-0.417-0.508-0.384-0.508-0.345-0.508-0.298-0.508-0.245-0.508-0.185-0.508-0.12-0.508-0.0518-0.508 0.0181-0.508 0.0877-0.508 0.155-0.508 0.219-0.508 0.278-0.508 0.332-0.508 0.38-0.508 0.422-0.508 0.458-0.508 0.49-0.508 0.517-0.508 0.539-0.508 0.558-0.508 0.573-0.508 0.584-0.508 0.59-0.508 0.593-0.508 0.592-0.508 0.587-0.508 0.579-0.508 0.568-0.508 0.556-0.508 0.542-0.508 0.527-0.508 0.511-0.508 0.496-0.508 0.481-0.508 0.465-0.508 0.449-0.508 0.433-0.508 0.415-0.508 0.396-0.508 0.376-0.508 0.355-0.508 0.332-0.508 0.309-0.508 0.286-0.508 0.263-0.508 0.241-0.508 0.219-0.508 0.2-0.508 0.182-0.508 0.165z" clip-path="url(#a)" fill="#f00" fill-opacity=".3"/>
<path d="m499 71.4v0.843l0.508 0.16 0.508 0.19 0.508 0.217 0.508 0.239 0.508 0.254 0.508 0.265 0.508 0.275 0.508 0.288 0.508 0.309 0.508 0.338 0.508 0.373 0.508 0.411 0.508 0.444 0.508 0.464 0.508 0.465 0.508 0.447 0.508 0.41 0.508 0.366 0.508 0.327 0.508 0.312 0.508 0.335 0.508 0.399 0.508 0.5 0.508 0.618 0.508 0.725 0.508 0.795 0.508 0.812 0.508 0.771 0.508 0.681 0.508 0.565 0.508 0.447 0.508 0.352 1.02 0.599 0.508 0.345 0.508 0.424 0.508 0.509 0.508 0.575 0.508 0.598 0.508 0.564 0.508 0.47 0.508 0.323 0.508 0.136 0.508-0.0731 0.508-0.283 0.508-0.47 0.508-0.612 0.508-0.694 0.508-0.709 0.508-0.665 0.508-0.58 0.508-0.477 0.508-0.378 0.508-0.299 0.508-0.248 0.508-0.229 0.508-0.245 0.508-0.299 0.508-0.387 0.508-0.504 0.508-0.635 0.508-0.76 0.508-0.856 0.508-0.904 0.508-0.893 0.508-0.824 0.508-0.711 0.508-0.576 0.508-0.445 0.508-0.333 0.508-0.248 0.508-0.19 0.508-0.154 0.508-0.14 0.508-0.148 0.508-0.179 0.508-0.226 0.508-0.277 0.508-0.318 0.508-0.338 0.508-0.332 0.508-0.305 0.508-0.263 0.508-0.215 0.508-0.169 0.508-0.128 0.508-0.0954 0.508-0.0693 0.508-0.0497 0.508-0.0363 1.02-0.0588 0.508-0.0347 0.508-0.0433 0.508-0.0514 1.02-0.113 0.508-0.0526 0.508-0.0463v-0.306l-0.508-0.0463-0.508-0.0526-1.02-0.113-0.508-0.0514-0.508-0.0433-0.508-0.0347-1.02-0.0588-0.508-0.0363-0.508-0.0497-0.508-0.0693-0.508-0.0954-0.508-0.128-0.508-0.169-0.508-0.215-0.508-0.263-0.508-0.305-0.508-0.332-0.508-0.338-0.508-0.318-0.508-0.277-0.508-0.226-0.508-0.179-0.508-0.148-0.508-0.14-0.508-0.154-0.508-0.19-0.508-0.248-0.508-0.333-0.508-0.445-0.508-0.576-0.508-0.711-0.508-0.824-0.508-0.893-0.508-0.904-0.508-0.856-0.508-0.76-0.508-0.635-0.508-0.504-0.508-0.387-0.508-0.299-0.508-0.245-0.508-0.229-0.508-0.248-0.508-0.299-0.508-0.378-0.508-0.477-0.508-0.58-0.508-0.665-0.508-0.709-0.508-0.694-0.508-0.612-0.508-0.47-0.508-0.283-0.508-0.0731-0.508 0.136-0.508 0.323-0.508 0.47-0.508 0.564-0.508 0.598-0.508 0.575-0.508 0.509-0.508 0.424-0.508 0.345-1.02 0.599-0.508 0.352-0.508 0.447-0.508 0.565-0.508 0.681-0.508 0.771-0.508 0.812-0.508 0.795-0.508 0.725-0.508 0.618-0.508 0.5-0.508 0.399-0.508 0.335-0.508 0.312-0.508 0.327-0.508 0.366-0.508 0.41-0.508 0.447-0.508 0.465-0.508 0.464-0.508 0.444-0.508 0.411-0.508 0.373-0.508 0.338-0.508 0.309-0.508 0.288-0.508 0.275-0.508 0.265-0.508 0.254-0.508 0.239-0.508 0.217-0.508 0.19-0.508 0.16z" clip-path="url(#a)" fill="#1f77b4" fill-opacity=".3"/>
<path d="m70.8 146v-111" clip-path="url(#a)" fill="none" stroke="#b0b0b0" stroke-linecap="square" stroke-width=".8"/>
<defs>
<path id="g" d="m0 0v3.5" stroke="#000" stroke-width=".8"/>
</defs>
<use x="70.787008" y="145.921635" stroke="#000000" stroke-width=".8" xlink:href="#g"/>
<defs>
<path id="f" d="m0 0v-3.5" stroke="#000" stroke-width=".8"/>
</defs>
<use x="70.787008" y="34.79649" stroke="#000000" stroke-width=".8" xlink:href="#f"/>
<!-- 1.00× -->
<g transform="translate(55.5 161) scale(.1 -.1)">
<defs>
<path id="b" transform="scale(.0156)" d="m794 531h1031v3560l-1122-225v575l1116 225h631v-4135h1031v-531h-2687v531z"/>
<path id="c" transform="scale(.0156)" d="m684 794h660v-794h-660v794z"/>
<path id="d" transform="scale(.0156)" d="m2034 4250q-487 0-733-480-245-479-245-1442 0-959 245-1439 246-480 733-480 491 0 736 480 246 480 246 1439 0 963-246 1442-245 480-736 480zm0 500q785 0 1199-621 414-620 414-1801 0-1178-414-1799-414-620-1199-620-784 0-1198 620-414 621-414 1799 0 1181 414 1801 414 621 1198 621z"/>
<path id="e" transform="scale(.0156)" d="m4488 3438-1429-1435 1429-1428-372-378-1435 1434-1434-1434-369 378 1425 1428-1425 1435 369 378 1434-1435 1435 1435 372-378z"/>
</defs>
<use xlink:href="#b"/>
<use x="63.623047" xlink:href="#c"/>
<use x="95.410156" xlink:href="#d"/>
<use x="159.033203" xlink:href="#d"/>
<use x="222.65625" xlink:href="#e"/>
</g>
<!-- 1.00× -->
<g transform="translate(55.5 25.7) scale(.1 -.1)">
<use xlink:href="#b"/>
<use x="63.623047" xlink:href="#c"/>
<use x="95.410156" xlink:href="#d"/>
<use x="159.033203" xlink:href="#d"/>
<use x="222.65625" xlink:href="#e"/>
</g>
<path d="m149 146v-111" clip-path="url(#a)" fill="none" stroke="#b0b0b0" stroke-linecap="square" stroke-width=".8"/>
<use x="149.248051" y="145.921635" stroke="#000000" stroke-width=".8" xlink:href="#g"/>
<use x="149.248051" y="34.79649" stroke="#000000" stroke-width=".8" xlink:href="#f"/>
<!-- 1.10× -->
<g transform="translate(134 161) scale(.1 -.1)">
<use xlink:href="#b"/>
<use x="63.623047" xlink:href="#c"/>
<use x="95.410156" xlink:href="#b"/>
<use x="159.033203" xlink:href="#d"/>
<use x="222.65625" xlink:href="#e"/>
</g>
<!-- 1.10× -->
<g transform="translate(134 25.7) scale(.1 -.1)">
<use xlink:href="#b"/>
<use x="63.623047" xlink:href="#c"/>
<use x="95.410156" xlink:href="#b"/>
<use x="159.033203" xlink:href="#d"/>
<use x="222.65625" xlink:href="#e"/>
</g>
<path d="m228 146v-111" clip-path="url(#a)" fill="none" stroke="#b0b0b0" stroke-linecap="square" stroke-width=".8"/>
<use x="227.709094" y="145.921635" stroke="#000000" stroke-width=".8" xlink:href="#g"/>
<use x="227.709094" y="34.79649" stroke="#000000" stroke-width=".8" xlink:href="#f"/>
<!-- 1.20× -->
<g transform="translate(212 161) scale(.1 -.1)">
<defs>
<path id="aa" transform="scale(.0156)" d="m1228 531h2203v-531h-2962v531q359 372 979 998 621 627 780 809 303 340 423 576 121 236 121 464 0 372-261 606-261 235-680 235-297 0-627-103-329-103-704-313v638q381 153 712 231 332 78 607 78 725 0 1156-363 431-362 431-968 0-288-108-546-107-257-392-607-78-91-497-524-418-433-1181-1211z"/>
</defs>
<use xlink:href="#b"/>
<use x="63.623047" xlink:href="#c"/>
<use x="95.410156" xlink:href="#aa"/>
<use x="159.033203" xlink:href="#d"/>
<use x="222.65625" xlink:href="#e"/>
</g>
<!-- 1.20× -->
<g transform="translate(212 25.7) scale(.1 -.1)">
<use xlink:href="#b"/>
<use x="63.623047" xlink:href="#c"/>
<use x="95.410156" xlink:href="#aa"/>
<use x="159.033203" xlink:href="#d"/>
<use x="222.65625" xlink:href="#e"/>
</g>
<path d="m306 146v-111" clip-path="url(#a)" fill="none" stroke="#b0b0b0" stroke-linecap="square" stroke-width=".8"/>
<use x="306.170137" y="145.921635" stroke="#000000" stroke-width=".8" xlink:href="#g"/>
<use x="306.170137" y="34.79649" stroke="#000000" stroke-width=".8" xlink:href="#f"/>
<!-- 1.30× -->
<g transform="translate(291 161) scale(.1 -.1)">
<defs>
<path id="h" transform="scale(.0156)" d="m2597 2516q453-97 707-404 255-306 255-756 0-690-475-1069-475-378-1350-378-293 0-604 58t-642 174v609q262-153 574-231 313-78 654-78 593 0 904 234t311 681q0 413-289 645-289 233-804 233h-544v519h569q465 0 712 186t247 536q0 359-255 551-254 193-729 193-260 0-557-57-297-56-653-174v562q360 100 674 150t592 50q719 0 1137-327 419-326 419-882 0-388-222-655t-631-370z"/>
</defs>
<use xlink:href="#b"/>
<use x="63.623047" xlink:href="#c"/>
<use x="95.410156" xlink:href="#h"/>
<use x="159.033203" xlink:href="#d"/>
<use x="222.65625" xlink:href="#e"/>
</g>
<!-- 1.30× -->
<g transform="translate(291 25.7) scale(.1 -.1)">
<use xlink:href="#b"/>
<use x="63.623047" xlink:href="#c"/>
<use x="95.410156" xlink:href="#h"/>
<use x="159.033203" xlink:href="#d"/>
<use x="222.65625" xlink:href="#e"/>
</g>
<path d="m385 146v-111" clip-path="url(#a)" fill="none" stroke="#b0b0b0" stroke-linecap="square" stroke-width=".8"/>
<use x="384.631181" y="145.921635" stroke="#000000" stroke-width=".8" xlink:href="#g"/>
<use x="384.631181" y="34.79649" stroke="#000000" stroke-width=".8" xlink:href="#f"/>
<!-- 1.40× -->
<g transform="translate(369 161) scale(.1 -.1)">
<defs>
<path id="s" transform="scale(.0156)" d="m2419 4116-1594-2491h1594v2491zm-166 550h794v-3041h666v-525h-666v-1100h-628v1100h-2106v609l1940 2957z"/>
</defs>
<use xlink:href="#b"/>
<use x="63.623047" xlink:href="#c"/>
<use x="95.410156" xlink:href="#s"/>
<use x="159.033203" xlink:href="#d"/>
<use x="222.65625" xlink:href="#e"/>
</g>
<!-- 1.40× -->
<g transform="translate(369 25.7) scale(.1 -.1)">
<use xlink:href="#b"/>
<use x="63.623047" xlink:href="#c"/>
<use x="95.410156" xlink:href="#s"/>
<use x="159.033203" xlink:href="#d"/>
<use x="222.65625" xlink:href="#e"/>
</g>
<path d="m463 146v-111" clip-path="url(#a)" fill="none" stroke="#b0b0b0" stroke-linecap="square" stroke-width=".8"/>
<use x="463.092224" y="145.921635" stroke="#000000" stroke-width=".8" xlink:href="#g"/>
<use x="463.092224" y="34.79649" stroke="#000000" stroke-width=".8" xlink:href="#f"/>
<!-- 1.50× -->
<g transform="translate(448 161) scale(.1 -.1)">
<defs>
<path id="i" transform="scale(.0156)" d="m691 4666h2478v-532h-1900v-1143q137 47 274 70 138 23 276 23 781 0 1237-428 457-428 457-1159 0-753-469-1171-469-417-1322-417-294 0-599 50-304 50-629 150v635q281-153 581-228t634-75q541 0 856 284 316 284 316 772 0 487-316 771-315 285-856 285-253 0-505-56-251-56-513-175v2344z"/>
</defs>
<use xlink:href="#b"/>
<use x="63.623047" xlink:href="#c"/>
<use x="95.410156" xlink:href="#i"/>
<use x="159.033203" xlink:href="#d"/>
<use x="222.65625" xlink:href="#e"/>
</g>
<!-- 1.50× -->
<g transform="translate(448 25.7) scale(.1 -.1)">
<use xlink:href="#b"/>
<use x="63.623047" xlink:href="#c"/>
<use x="95.410156" xlink:href="#i"/>
<use x="159.033203" xlink:href="#d"/>
<use x="222.65625" xlink:href="#e"/>
</g>
<path d="m542 146v-111" clip-path="url(#a)" fill="none" stroke="#b0b0b0" stroke-linecap="square" stroke-width=".8"/>
<use x="541.553267" y="145.921635" stroke="#000000" stroke-width=".8" xlink:href="#g"/>
<use x="541.553267" y="34.79649" stroke="#000000" stroke-width=".8" xlink:href="#f"/>
<!-- 1.60× -->
<g transform="translate(526 161) scale(.1 -.1)">
<defs>
<path id="r" transform="scale(.0156)" d="m2113 2584q-425 0-674-291-248-290-248-796 0-503 248-796 249-292 674-292t673 292q248 293 248 796 0 506-248 796-248 291-673 291zm1253 1979v-575q-238 112-480 171-242 60-480 60-625 0-955-422-329-422-376-1275 184 272 462 417 279 145 613 145 703 0 1111-427 408-426 408-1160 0-719-425-1154-425-434-1131-434-810 0-1238 620-428 621-428 1799 0 1106 525 1764t1409 658q238 0 480-47t505-140z"/>
</defs>
<use xlink:href="#b"/>
<use x="63.623047" xlink:href="#c"/>
<use x="95.410156" xlink:href="#r"/>
<use x="159.033203" xlink:href="#d"/>
<use x="222.65625" xlink:href="#e"/>
</g>
<!-- 1.60× -->
<g transform="translate(526 25.7) scale(.1 -.1)">
<use xlink:href="#b"/>
<use x="63.623047" xlink:href="#c"/>
<use x="95.410156" xlink:href="#r"/>
<use x="159.033203" xlink:href="#d"/>
<use x="222.65625" xlink:href="#e"/>
</g>
<path d="m46.9 109h526" clip-path="url(#a)" fill="none" stroke="#b0b0b0" stroke-linecap="square" stroke-width=".8"/>
<defs>
<path id="t" d="m0 0h-3.5" stroke="#000" stroke-width=".8"/>
</defs>
<use x="46.872115" y="108.87992" stroke="#000000" stroke-width=".8" xlink:href="#t"/>
<!-- hexiom -->
<g transform="translate(3 113) scale(.1 -.1)">
<defs>
<path id="w" transform="scale(.0156)" d="m3513 2113v-2113h-575v2094q0 497-194 743-194 247-581 247-466 0-735-297-269-296-269-809v-1978h-578v4863h578v-1907q207 316 486 472 280 156 646 156 603 0 912-373 310-373 310-1098z"/>
<path id="p" transform="scale(.0156)" d="m3597 1894v-281h-2644q38-594 358-905t892-311q331 0 642 81t618 244v-544q-310-131-635-200t-659-69q-838 0-1327 487-489 488-489 1320 0 859 464 1363 464 505 1252 505 706 0 1117-455 411-454 411-1235zm-575 169q-6 471-264 752-258 282-683 282-481 0-770-272t-333-766l2050 4z"/>
<path id="ad" transform="scale(.0156)" d="m3513 3500-1266-1703 1331-1797h-678l-1019 1375-1018-1375h-679l1360 1831-1244 1669h678l928-1247 928 1247h679z"/>
<path id="l" transform="scale(.0156)" d="m603 3500h575v-3500h-575v3500zm0 1363h575v-729h-575v729z"/>
<path id="k" transform="scale(.0156)" d="m1959 3097q-462 0-731-361t-269-989 267-989q268-361 733-361 460 0 728 362 269 363 269 988 0 622-269 986-268 364-728 364zm0 487q750 0 1178-488 429-487 429-1349 0-859-429-1349-428-489-1178-489-753 0-1180 489-426 490-426 1349 0 862 426 1349 427 488 1180 488z"/>
<path id="o" transform="scale(.0156)" d="m3328 2828q216 388 516 572t706 184q547 0 844-383 297-382 297-1088v-2113h-578v2094q0 503-179 746-178 244-543 244-447 0-707-297-259-296-259-809v-1978h-578v2094q0 506-178 748t-550 242q-441 0-701-298-259-298-259-808v-1978h-578v3500h578v-544q197 322 472 475t653 153q382 0 649-194 267-193 395-562z"/>
</defs>
<use xlink:href="#w"/>
<use x="63.378906" xlink:href="#p"/>
<use x="123.152344" xlink:href="#ad"/>
<use x="182.332031" xlink:href="#l"/>
<use x="210.115234" xlink:href="#k"/>
<use x="271.296875" xlink:href="#o"/>
</g>
<path d="m46.9 71.8h526" clip-path="url(#a)" fill="none" stroke="#b0b0b0" stroke-linecap="square" stroke-width=".8"/>
<use x="46.872115" y="71.838205" stroke="#000000" stroke-width=".8" xlink:href="#t"/>
<!-- ALL -->
<g transform="translate(21.9 75.6) scale(.1 -.1)">
<defs>
<path id="ak" transform="scale(.0156)" d="m2188 4044-857-2322h1716l-859 2322zm-357 622h716l1778-4666h-656l-425 1197h-2103l-425-1197h-666l1781 4666z"/>
<path id="z" transform="scale(.0156)" d="m628 4666h631v-4135h2272v-531h-2903v4666z"/>
</defs>
<use xlink:href="#ak"/>
<use x="68.408203" xlink:href="#z"/>
<use x="124.121094" xlink:href="#z"/>
</g>
<path d="m70.8 146v-111" clip-path="url(#a)" fill="none" stroke="#1f77b4" stroke-linecap="square" stroke-width="1.5"/>
<g fill="none" stroke="#1f77b4" stroke-width="1.5">
<path d="m521 118v-18.5" clip-path="url(#a)"/>
<path d="m521 81.1v-18.5" clip-path="url(#a)"/>
</g>
<g fill="none" stroke="#1f77b4" stroke-width="1.5">
<path d="m549 118v-18.5" clip-path="url(#a)"/>
<path d="m549 81.1v-18.5" clip-path="url(#a)"/>
</g>
<g fill="none" stroke="#1f77b4" stroke-width="1.5">
<path d="m499 118v-18.5" clip-path="url(#a)"/>
<path d="m499 81.1v-18.5" clip-path="url(#a)"/>
</g>
<g fill="none" stroke="#1f77b4" stroke-width="1.5">
<path d="m499 109h50.3" clip-path="url(#a)"/>
<path d="m499 71.8h50.3" clip-path="url(#a)"/>
</g>
<g fill="none" stroke="#1f77b4" stroke-dasharray="1.5,2.475" stroke-width="1.5">
<path d="m510 118v-18.5" clip-path="url(#a)"/>
<path d="m531 118v-18.5" clip-path="url(#a)"/>
<path d="m510 81.1v-18.5" clip-path="url(#a)"/>
<path d="m531 81.1v-18.5" clip-path="url(#a)"/>
</g>
<path d="m46.9 146v-111" fill="none" stroke="#000" stroke-linecap="square" stroke-width=".8"/>
<path d="m573 146v-111" fill="none" stroke="#000" stroke-linecap="square" stroke-width=".8"/>
<path d="m46.9 146h526" fill="none" stroke="#000" stroke-linecap="square" stroke-width=".8"/>
<path d="m46.9 34.8h526" fill="none" stroke="#000" stroke-linecap="square" stroke-width=".8"/>
<!-- 1.5737 -->
<g transform="translate(521 97.8) scale(.08 -.08)">
<defs>
<path id="q" transform="scale(.0156)" d="m525 4666h3e3v-269l-1694-4397h-659l1594 4134h-2241v532z"/>
</defs>
<use xlink:href="#b"/>
<use x="63.623047" xlink:href="#c"/>
<use x="95.410156" xlink:href="#i"/>
<use x="159.033203" xlink:href="#q"/>
<use x="222.65625" xlink:href="#h"/>
<use x="286.279297" xlink:href="#q"/>
</g>
<!-- 1.5736 -->
<g transform="translate(521 60.7) scale(.08 -.08)">
<use xlink:href="#b"/>
<use x="63.623047" xlink:href="#c"/>
<use x="95.410156" xlink:href="#i"/>
<use x="159.033203" xlink:href="#q"/>
<use x="222.65625" xlink:href="#h"/>
<use x="286.279297" xlink:href="#r"/>
</g>
<!-- faster ⟶ -->
<g transform="translate(80.8 34.8) scale(.1 -.1)">
<defs>
<path id="m" transform="scale(.0156)" d="m2375 4863v-479h-550q-309 0-430-125-120-125-120-450v-309h947v-447h-947v-3053h-578v3053h-550v447h550v244q0 584 272 851 272 268 862 268h544z"/>
<path id="y" transform="scale(.0156)" d="m2194 1759q-697 0-966-159t-269-544q0-306 202-486 202-179 548-179 479 0 768 339t289 901v128h-572zm1147 238v-2e3h-575v531q-197-318-491-470t-719-152q-537 0-855 302-317 302-317 808 0 590 395 890 396 300 1180 300h807v57q0 397-261 614t-733 217q-300 0-585-72-284-72-546-216v532q315 122 612 182 297 61 578 61 760 0 1135-394 375-393 375-1193z"/>
<path id="j" transform="scale(.0156)" d="m2834 3397v-544q-243 125-506 187-262 63-544 63-428 0-642-131t-214-394q0-200 153-314t616-217l197-44q612-131 870-370t258-667q0-488-386-773-386-284-1061-284-281 0-586 55t-642 164v594q319-166 628-249 309-82 613-82 406 0 624 139 219 139 219 392 0 234-158 359-157 125-692 241l-200 47q-534 112-772 345-237 233-237 639 0 494 350 762 350 269 994 269 318 0 599-47 282-46 519-140z"/>
<path id="u" transform="scale(.0156)" d="m1172 4494v-994h1184v-447h-1184v-1900q0-428 117-550t477-122h590v-481h-590q-666 0-919 248-253 249-253 905v1900h-422v447h422v994h578z"/>
<path id="v" transform="scale(.0156)" d="m2631 2963q-97 56-211 82-114 27-251 27-488 0-749-317t-261-911v-1844h-578v3500h578v-544q182 319 472 473 291 155 707 155 59 0 131-8 72-7 159-23l3-590z"/>
<path id="am" transform="scale(.0156)" d="m8863 2147v-281l-1229-1228-375 375 729 728h-7622v531h7622l-729 728 375 375 1229-1228z"/>
</defs>
<use xlink:href="#m"/>
<use x="35.205078" xlink:href="#y"/>
<use x="96.484375" xlink:href="#j"/>
<use x="148.583984" xlink:href="#u"/>
<use x="187.792969" xlink:href="#p"/>
<use x="249.316406" xlink:href="#v"/>
<use x="290.429688" xlink:href="#DejaVuSans-20"/>
<use x="322.216797" xlink:href="#am"/>
</g>
<!-- ⟵ slower -->
<g transform="translate(10.7 34.8) scale(.1 -.1)">
<defs>
<path id="an" transform="scale(.0156)" d="m313 1866v281l1228 1228 375-375-728-728h7621v-531h-7621l728-728-375-375-1228 1228z"/>
<path id="ah" transform="scale(.0156)" d="m603 4863h575v-4863h-575v4863z"/>
<path id="ae" transform="scale(.0156)" d="m269 3500h575l719-2731 715 2731h678l719-2731 716 2731h575l-916-3500h-678l-753 2869-756-2869h-679l-915 3500z"/>
</defs>
<use xlink:href="#an"/>
<use x="143.359375" xlink:href="#DejaVuSans-20"/>
<use x="175.146484" xlink:href="#j"/>
<use x="227.246094" xlink:href="#ah"/>
<use x="255.029297" xlink:href="#k"/>
<use x="316.210938" xlink:href="#ae"/>
<use x="397.998047" xlink:href="#p"/>
<use x="459.521484" xlink:href="#v"/>
</g>
<!-- Timings of python-main-df93f5d vs. 3.10.4 -->
<g transform="translate(182 12.1) scale(.12 -.12)">
<defs>
<path id="aj" transform="scale(.0156)" d="m-19 4666h3947v-532h-1656v-4134h-634v4134h-1657v532z"/>
<path id="n" transform="scale(.0156)" d="m3513 2113v-2113h-575v2094q0 497-194 743-194 247-581 247-466 0-735-297-269-296-269-809v-1978h-578v3500h578v-544q207 316 486 472 280 156 646 156 603 0 912-373 310-373 310-1098z"/>
<path id="ai" transform="scale(.0156)" d="m2906 1791q0 625-258 968-257 344-723 344-462 0-720-344-258-343-258-968 0-622 258-966t720-344q466 0 723 344 258 344 258 966zm575-1357q0-893-397-1329-396-436-1215-436-303 0-572 45t-522 139v559q253-137 500-202 247-66 503-66 566 0 847 295t281 892v285q-178-310-456-463t-666-153q-643 0-1037 490-394 491-394 1301 0 812 394 1302 394 491 1037 491 388 0 666-153t456-462v531h575v-3066z"/>
<path id="ag" transform="scale(.0156)" d="m1159 525v-1856h-578v4831h578v-531q182 312 458 463 277 152 661 152 638 0 1036-506 399-506 399-1331t-399-1332q-398-506-1036-506-384 0-661 152-276 152-458 464zm1957 1222q0 634-261 995t-717 361q-457 0-718-361t-261-995 261-995 718-361q456 0 717 361t261 995z"/>
<path id="ac" transform="scale(.0156)" d="m2059-325q-243-625-475-815-231-191-618-191h-460v481h338q237 0 368 113 132 112 291 531l103 262-1415 3444h609l1094-2737 1094 2737h609l-1538-3825z"/>
<path id="ab" transform="scale(.0156)" d="m313 2009h1684v-512h-1684v512z"/>
<path id="x" transform="scale(.0156)" d="m2906 2969v1894h575v-4863h-575v525q-181-312-458-464-276-152-664-152-634 0-1033 506-398 507-398 1332t398 1331q399 506 1033 506 388 0 664-152 277-151 458-463zm-1959-1222q0-634 261-995t717-361 718 361q263 361 263 995t-263 995q-262 361-718 361t-717-361-261-995z"/>
<path id="al" transform="scale(.0156)" d="m703 97v575q238-113 481-172 244-59 479-59 625 0 954 420 330 420 377 1277-181-269-460-413-278-144-615-144-700 0-1108 423-408 424-408 1159 0 718 425 1152 425 435 1131 435 810 0 1236-621 427-620 427-1801 0-1103-524-1761-523-658-1407-658-238 0-482 47-243 47-506 141zm1256 1978q425 0 673 290 249 291 249 798 0 503-249 795-248 292-673 292t-673-292-248-795q0-507 248-798 248-290 673-290z"/>
<path id="af" transform="scale(.0156)" d="m191 3500h609l1094-2937 1094 2937h609l-1313-3500h-781l-1312 3500z"/>
</defs>
<use xlink:href="#aj"/>
<use x="57.958984" xlink:href="#l"/>
<use x="85.742188" xlink:href="#o"/>
<use x="183.154297" xlink:href="#l"/>
<use x="210.9375" xlink:href="#n"/>
<use x="274.316406" xlink:href="#ai"/>
<use x="337.792969" xlink:href="#j"/>
<use x="389.892578" xlink:href="#DejaVuSans-20"/>
<use x="421.679688" xlink:href="#k"/>
<use x="482.861328" xlink:href="#m"/>
<use x="518.066406" xlink:href="#DejaVuSans-20"/>
<use x="549.853516" xlink:href="#ag"/>
<use x="613.330078" xlink:href="#ac"/>
<use x="672.509766" xlink:href="#u"/>
<use x="711.71875" xlink:href="#w"/>
<use x="775.097656" xlink:href="#k"/>
<use x="836.279297" xlink:href="#n"/>
<use x="899.658203" xlink:href="#ab"/>
<use x="935.742188" xlink:href="#o"/>
<use x="1033.154297" xlink:href="#y"/>
<use x="1094.433594" xlink:href="#l"/>
<use x="1122.216797" xlink:href="#n"/>
<use x="1185.595703" xlink:href="#ab"/>
<use x="1221.679688" xlink:href="#x"/>
<use x="1285.15625" xlink:href="#m"/>
<use x="1320.361328" xlink:href="#al"/>
<use x="1383.984375" xlink:href="#h"/>
<use x="1447.607422" xlink:href="#m"/>
<use x="1482.8125" xlink:href="#i"/>
<use x="1546.435547" xlink:href="#x"/>
<use x="1609.912109" xlink:href="#DejaVuSans-20"/>
<use x="1641.699219" xlink:href="#af"/>
<use x="1700.878906" xlink:href="#j"/>
<use x="1752.978516" xlink:href="#c"/>
<use x="1784.765625" xlink:href="#DejaVuSans-20"/>
<use x="1816.552734" xlink:href="#h"/>
<use x="1880.175781" xlink:href="#c"/>
<use x="1911.962891" xlink:href="#b"/>
<use x="1975.585938" xlink:href="#d"/>
<use x="2039.208984" xlink:href="#c"/>
<use x="2070.996094" xlink:href="#s"/>
</g>
<defs>
<clipPath id="a">
<rect x="46.9" y="34.8" width="526" height="111"/>
</clipPath>
</defs>
</svg>
