<?xml version="1.0" encoding="UTF-8"?>
<!DOCTYPE svg  PUBLIC '-//W3C//DTD SVG 1.1//EN'  'http://www.w3.org/Graphics/SVG/1.1/DTD/svg11.dtd'>
<svg width="576pt" height="230pt" version="1.1" viewBox="0 0 576 230" xmlns="http://www.w3.org/2000/svg" xmlns:xlink="http://www.w3.org/1999/xlink">
<defs>
<style type="text/css">*{stroke-linejoin: round; stroke-linecap: butt}</style>
</defs>
<path d="m0 230h576v-230h-576z" fill="#fff"/>
<path d="m126 211h447v-176h-447z" fill="#fff"/>
<path d="m354 180v1.84l0.0659 0.00952 0.0659 8.08e-4 0.0659-0.00646 0.0659-0.0119 0.0659-0.0151 0.0659-0.0161 0.0659-0.0148 0.0659-0.0117 0.0659-0.00717 0.0659-0.00175 0.0659 0.00389 0.0659 0.00905 0.0659 0.0131 0.0659 0.0155 0.0659 0.016 0.0659 0.0141 0.0659 0.01 0.0659 0.00389 0.0659-0.00398 0.0659-0.0131 0.0659-0.0228 0.0659-0.0326 0.0659-0.0418 0.0659-0.0499 0.0659-0.0565 0.0659-0.0611 0.132-0.127 0.0659-0.0618 0.0659-0.0576 0.0659-0.0512 0.0659-0.0427 0.0659-0.0321 0.0659-0.0191 0.0659-0.00364 0.0659 0.0148 0.0659 0.0368 0.0659 0.0629 0.0659 0.0936 0.0659 0.13 0.0659 0.171 0.0659 0.219 0.0659 0.272 0.0659 0.33 0.0659 0.392 0.0659 0.456 0.0659 0.519 0.0659 0.578 0.0659 0.63 0.0659 0.671 0.0659 0.699 0.0659 0.709 0.0659 0.7 0.0659 0.671 0.0659 0.623 0.0659 0.557 0.0659 0.478 0.0659 0.389 0.0659 0.297 0.0659 0.209 0.0659 0.131 0.0659 0.07 0.0659 0.0302 0.0659 0.0153 0.0659 0.0265 0.0659 0.0625 0.0659 0.12 0.0659 0.193 0.0659 0.274 0.0659 0.354 0.0659 0.425 0.0659 0.477 0.0659 0.504 0.0659 0.501 0.0659 0.463 0.0659 0.391 0.0659 0.288 0.0659 0.159 0.0659 0.0118 0.0659-0.145 0.0659-0.302 0.0659-0.449 0.0659-0.578 0.0659-0.682 0.0659-0.755 0.0659-0.797 0.0659-0.806 0.0659-0.786 0.0659-0.741 0.0659-0.678 0.0659-0.602 0.0659-0.521 0.0659-0.442 0.0659-0.37 0.0659-0.309 0.0659-0.262 0.0659-0.23 0.0659-0.214 0.0659-0.211v-9.56l-0.0659-0.211-0.0659-0.214-0.0659-0.23-0.0659-0.262-0.0659-0.309-0.0659-0.37-0.0659-0.442-0.0659-0.521-0.0659-0.602-0.0659-0.678-0.0659-0.741-0.0659-0.786-0.0659-0.806-0.0659-0.797-0.0659-0.755-0.0659-0.682-0.0659-0.578-0.0659-0.449-0.0659-0.302-0.0659-0.145-0.0659 0.0118-0.0659 0.159-0.0659 0.288-0.0659 0.391-0.0659 0.463-0.0659 0.501-0.0659 0.504-0.0659 0.477-0.0659 0.425-0.0659 0.354-0.0659 0.274-0.0659 0.193-0.0659 0.12-0.0659 0.0625-0.0659 0.0265-0.0659 0.0153-0.0659 0.0302-0.0659 0.07-0.0659 0.131-0.0659 0.209-0.0659 0.297-0.0659 0.389-0.0659 0.478-0.0659 0.557-0.0659 0.623-0.0659 0.671-0.0659 0.7-0.0659 0.709-0.0659 0.699-0.0659 0.671-0.0659 0.63-0.0659 0.578-0.0659 0.519-0.0659 0.456-0.0659 0.392-0.0659 0.33-0.0659 0.272-0.0659 0.219-0.0659 0.171-0.0659 0.13-0.0659 0.0936-0.0659 0.0629-0.0659 0.0368-0.0659 0.0148-0.0659-0.00364-0.0659-0.0191-0.0659-0.0321-0.0659-0.0427-0.0659-0.0512-0.0659-0.0576-0.0659-0.0618-0.132-0.127-0.0659-0.0611-0.0659-0.0565-0.0659-0.0499-0.0659-0.0418-0.0659-0.0326-0.0659-0.0228-0.0659-0.0131-0.0659-0.00398-0.0659 0.00389-0.0659 0.01-0.0659 0.0141-0.0659 0.016-0.0659 0.0155-0.0659 0.0131-0.0659 0.00905-0.0659 0.00389-0.0659-0.00175-0.0659-0.00717-0.0659-0.0117-0.0659-0.0148-0.0659-0.0161-0.0659-0.0151-0.0659-0.0119-0.0659-0.00646-0.0659 8.08e-4 -0.0659 0.00952z" clip-path="url(#a)" fill="#1f77b4" fill-opacity=".3"/>
<path d="m350 150v5.08l0.306 0.234 0.306 0.237 0.306 0.238 0.306 0.239 0.306 0.24 0.306 0.24 0.306 0.241 0.306 0.243 0.306 0.246 0.306 0.25 0.306 0.256 0.306 0.264 0.306 0.274 0.306 0.285 0.306 0.298 0.306 0.312 0.306 0.328 0.306 0.344 0.306 0.36 0.306 0.376 0.306 0.391 0.306 0.404 0.306 0.415 0.306 0.424 0.306 0.428 0.306 0.429 0.306 0.426 0.306 0.418 0.306 0.405 0.306 0.388 0.306 0.366 0.306 0.341 0.306 0.313 0.306 0.282 0.306 0.25 0.306 0.217 0.306 0.185 0.306 0.153 0.306 0.123 0.306 0.0954 0.306 0.0701 0.306 0.0476 0.306 0.0279 0.306 0.011 0.306-0.00352 0.306-0.0159 0.306-0.0266 0.306-0.0362 0.306-0.0452 0.306-0.0542 0.306-0.0637 0.306-0.0742 0.306-0.0862 0.306-0.1 0.306-0.116 0.306-0.134 0.306-0.154 0.306-0.177 0.306-0.201 0.306-0.227 0.306-0.253 0.306-0.28 0.306-0.307 0.306-0.333 0.306-0.358 0.306-0.381 0.306-0.401 0.306-0.418 0.306-0.432 0.306-0.442 0.306-0.449 0.612-0.906 0.306-0.451 0.306-0.446 0.306-0.439 0.306-0.431 0.306-0.421 0.306-0.409 0.306-0.397 0.306-0.384 0.306-0.37 0.306-0.355 0.306-0.339 0.306-0.323 0.306-0.305 0.306-0.287 0.306-0.268 0.306-0.249 0.306-0.229 0.306-0.209 0.306-0.19 0.306-0.171 0.306-0.154 0.306-0.137 0.306-0.122 0.306-0.109 0.306-0.0979 0.306-0.0881v-1.61l-0.306-0.0881-0.306-0.0979-0.306-0.109-0.306-0.122-0.306-0.137-0.306-0.154-0.306-0.171-0.306-0.19-0.306-0.209-0.306-0.229-0.306-0.249-0.306-0.268-0.306-0.287-0.306-0.305-0.306-0.323-0.306-0.339-0.306-0.355-0.306-0.37-0.306-0.384-0.306-0.397-0.306-0.409-0.306-0.421-0.306-0.431-0.306-0.439-0.306-0.446-0.306-0.451-0.612-0.906-0.306-0.449-0.306-0.442-0.306-0.432-0.306-0.418-0.306-0.401-0.306-0.381-0.306-0.358-0.306-0.333-0.306-0.307-0.306-0.28-0.306-0.253-0.306-0.227-0.306-0.201-0.306-0.177-0.306-0.154-0.306-0.134-0.306-0.116-0.306-0.1-0.306-0.0862-0.306-0.0742-0.306-0.0637-0.306-0.0542-0.306-0.0452-0.306-0.0362-0.306-0.0266-0.306-0.0159-0.306-0.00352-0.306 0.011-0.306 0.0279-0.306 0.0476-0.306 0.0701-0.306 0.0954-0.306 0.123-0.306 0.153-0.306 0.185-0.306 0.217-0.306 0.25-0.306 0.282-0.306 0.313-0.306 0.341-0.306 0.366-0.306 0.388-0.306 0.405-0.306 0.418-0.306 0.426-0.306 0.429-0.306 0.428-0.306 0.424-0.306 0.415-0.306 0.404-0.306 0.391-0.306 0.376-0.306 0.36-0.306 0.344-0.306 0.328-0.306 0.312-0.306 0.298-0.306 0.285-0.306 0.274-0.306 0.264-0.306 0.256-0.306 0.25-0.306 0.246-0.306 0.243-0.306 0.241-0.306 0.24-0.306 0.24-0.306 0.239-0.306 0.238-0.306 0.237-0.306 0.234z" clip-path="url(#a)" fill="#1f77b4" fill-opacity=".3"/>
<path d="m351 120v5.07l0.364 0.324 0.364 0.343 0.364 0.361 0.364 0.376 0.364 0.389 0.364 0.398 0.364 0.404 0.728 0.814 0.364 0.404 0.364 0.398 0.364 0.39 0.364 0.38 0.364 0.37 0.364 0.359 0.364 0.348 0.364 0.338 0.364 0.329 0.364 0.321 0.364 0.314 0.364 0.309 0.364 0.304 0.364 0.3 0.364 0.296 0.364 0.292 0.364 0.287 0.364 0.281 0.364 0.274 0.364 0.265 0.364 0.255 0.364 0.243 0.364 0.23 0.364 0.216 0.364 0.201 0.364 0.186 0.364 0.169 0.364 0.152 0.364 0.135 0.364 0.116 0.364 0.0959 0.364 0.0748 0.364 0.0522 0.364 0.0282 0.364 0.00281 0.364-0.0239 0.364-0.0515 0.364-0.0796 0.364-0.108 0.364-0.135 0.364-0.161 0.364-0.186 0.364-0.208 0.364-0.228 0.364-0.245 0.364-0.258 0.364-0.269 0.364-0.278 0.364-0.284 0.364-0.289 0.364-0.293 0.364-0.295 0.364-0.298 0.364-0.3 0.364-0.303 0.364-0.305 0.364-0.308 0.364-0.311 0.364-0.313 1.46-1.27 0.364-0.315 0.364-0.313 0.364-0.311 0.364-0.308 0.364-0.305 0.364-0.301 0.364-0.298 0.364-0.294 0.364-0.291 0.364-0.287 0.364-0.283 0.364-0.278 0.364-0.272 0.364-0.266 0.364-0.259 0.364-0.25 0.364-0.24 0.364-0.23 0.364-0.219 0.364-0.207 0.364-0.196 0.364-0.184 0.364-0.172 0.364-0.161 0.364-0.15 0.364-0.14 0.364-0.131v-2.4l-0.364-0.131-0.364-0.14-0.364-0.15-0.364-0.161-0.364-0.172-0.364-0.184-0.364-0.196-0.364-0.207-0.364-0.219-0.364-0.23-0.364-0.24-0.364-0.25-0.364-0.259-0.364-0.266-0.364-0.272-0.364-0.278-0.364-0.283-0.364-0.287-0.364-0.291-0.364-0.294-0.364-0.298-0.364-0.301-0.364-0.305-0.364-0.308-0.364-0.311-0.364-0.313-0.364-0.315-0.364-0.317-1.09-0.949-0.364-0.313-0.364-0.311-0.364-0.308-0.364-0.305-0.364-0.303-0.364-0.3-0.364-0.298-0.364-0.295-0.364-0.293-0.364-0.289-0.364-0.284-0.364-0.278-0.364-0.269-0.364-0.258-0.364-0.245-0.364-0.228-0.364-0.208-0.364-0.186-0.364-0.161-0.364-0.135-0.364-0.108-0.364-0.0796-0.364-0.0515-0.364-0.0239-0.364 0.00281-0.364 0.0282-0.364 0.0522-0.364 0.0748-0.364 0.0959-0.364 0.116-0.364 0.135-0.364 0.152-0.364 0.169-0.364 0.186-0.364 0.201-0.364 0.216-0.364 0.23-0.364 0.243-0.364 0.255-0.364 0.265-0.364 0.274-0.364 0.281-0.364 0.287-0.364 0.292-0.364 0.296-0.364 0.3-0.364 0.304-0.364 0.309-0.364 0.314-0.364 0.321-0.364 0.329-0.364 0.338-0.364 0.348-0.364 0.359-0.364 0.37-0.364 0.38-0.364 0.39-0.364 0.398-0.364 0.404-0.728 0.814-0.364 0.404-0.364 0.398-0.364 0.389-0.364 0.376-0.364 0.361-0.364 0.343-0.364 0.324z" clip-path="url(#a)" fill="#1f77b4" fill-opacity=".3"/>
<path d="m366 88.8v9.26l0.0587 0.288 0.0587 0.308 0.0587 0.33 0.0587 0.355 0.0587 0.383 0.0587 0.412 0.0587 0.443 0.0587 0.473 0.0587 0.502 0.0587 0.528 0.0587 0.551 0.0587 0.568 0.0587 0.579 0.0587 0.581 0.0587 0.575 0.0587 0.558 0.0587 0.53 0.0587 0.492 0.0587 0.442 0.0587 0.382 0.0587 0.312 0.0587 0.234 0.0587 0.148 0.0587 0.0577 0.0587-0.0362 0.0587-0.131 0.0587-0.225 0.0587-0.316 0.0587-0.402 0.0587-0.481 0.0587-0.551 0.0587-0.611 0.0587-0.661 0.0587-0.699 0.0587-0.725 0.0587-0.74 0.0587-0.744 0.0587-0.738 0.0587-0.722 0.0587-0.698 0.0587-0.667 0.0587-0.63 0.0587-0.589 0.0587-0.545 0.0587-0.499 0.0587-0.453 0.0587-0.407 0.0587-0.363 0.0587-0.32 0.0587-0.28 0.0587-0.242 0.0587-0.208 0.0587-0.177 0.0587-0.149 0.0587-0.125 0.0587-0.103 0.0587-0.0845 0.0587-0.0684 0.0587-0.0545 0.0587-0.0426 0.0587-0.0324 0.0587-0.0237 0.0587-0.0161 0.0587-0.00935 0.0587-0.00326 0.0587 0.00242 0.0587 0.0079 0.0587 0.0134 0.0587 0.0189 0.0587 0.0248 0.0587 0.0311 0.0587 0.0378 0.0587 0.0451 0.0587 0.0529 0.0587 0.0613 0.0587 0.0703 0.0587 0.0797 0.0587 0.0894 0.0587 0.0993 0.0587 0.109 0.0587 0.119 0.0587 0.128 0.0587 0.137 0.0587 0.144 0.0587 0.15 0.0587 0.155 0.0587 0.157 0.0587 0.158 0.0587 0.156 0.0587 0.152 0.0587 0.145 0.0587 0.136 0.0587 0.124 0.0587 0.109 0.0587 0.0927 0.0587 0.0742 0.0587 0.0541 0.0587 0.033 0.0587 0.0111v-6.13l-0.0587 0.0111-0.0587 0.033-0.0587 0.0541-0.0587 0.0742-0.0587 0.0927-0.0587 0.109-0.0587 0.124-0.0587 0.136-0.0587 0.145-0.0587 0.152-0.0587 0.156-0.0587 0.158-0.0587 0.157-0.0587 0.155-0.0587 0.15-0.0587 0.144-0.0587 0.137-0.0587 0.128-0.0587 0.119-0.0587 0.109-0.0587 0.0993-0.0587 0.0894-0.0587 0.0797-0.0587 0.0703-0.0587 0.0613-0.0587 0.0529-0.0587 0.0451-0.0587 0.0378-0.0587 0.0311-0.0587 0.0248-0.0587 0.0189-0.0587 0.0134-0.0587 0.0079-0.0587 0.00242-0.0587-0.00326-0.0587-0.00935-0.0587-0.0161-0.0587-0.0237-0.0587-0.0324-0.0587-0.0426-0.0587-0.0545-0.0587-0.0684-0.0587-0.0845-0.0587-0.103-0.0587-0.125-0.0587-0.149-0.0587-0.177-0.0587-0.208-0.0587-0.242-0.0587-0.28-0.0587-0.32-0.0587-0.363-0.0587-0.407-0.0587-0.453-0.0587-0.499-0.0587-0.545-0.0587-0.589-0.0587-0.63-0.0587-0.667-0.0587-0.698-0.0587-0.722-0.0587-0.738-0.0587-0.744-0.0587-0.74-0.0587-0.725-0.0587-0.699-0.0587-0.661-0.0587-0.611-0.0587-0.551-0.0587-0.481-0.0587-0.402-0.0587-0.316-0.0587-0.225-0.0587-0.131-0.0587-0.0362-0.0587 0.0577-0.0587 0.148-0.0587 0.234-0.0587 0.312-0.0587 0.382-0.0587 0.442-0.0587 0.492-0.0587 0.53-0.0587 0.558-0.0587 0.575-0.0587 0.581-0.0587 0.579-0.0587 0.568-0.0587 0.551-0.0587 0.528-0.0587 0.502-0.0587 0.473-0.0587 0.443-0.0587 0.412-0.0587 0.383-0.0587 0.355-0.0587 0.33-0.0587 0.308-0.0587 0.288z" clip-path="url(#a)" fill="#1f77b4" fill-opacity=".3"/>
<path d="m350 63.4v1.35l0.368 0.126 0.368 0.139 0.368 0.156 0.368 0.178 0.368 0.2 0.368 0.222 0.368 0.243 0.368 0.264 0.368 0.293 0.368 0.341 0.368 0.421 0.368 0.541 0.368 0.706 0.368 0.907 0.368 1.12 0.368 1.32 0.368 1.46 0.368 1.5 0.368 1.41 0.368 1.19 0.368 0.841 0.368 0.408 0.368-0.058 0.368-0.497 0.368-0.857 0.368-1.1 0.368-1.21 0.368-1.21 0.368-1.1 0.368-0.937 0.368-0.739 0.368-0.534 0.368-0.332 0.368-0.134 0.368 0.0677 0.368 0.283 0.368 0.517 0.368 0.764 0.368 1 0.368 1.2 0.368 1.31 0.368 1.29 0.368 1.1 0.368 0.754 0.368 0.285 0.368-0.237 0.368-0.722 0.368-1.09 0.368-1.29 0.368-1.31 0.368-1.18 0.368-0.957 0.368-0.709 0.368-0.492 0.368-0.339 0.368-0.263 0.368-0.254 0.368-0.289 0.368-0.339 0.368-0.379 0.368-0.393 0.368-0.378 0.368-0.342 0.368-0.296 0.368-0.253 0.368-0.223 0.368-0.208 0.368-0.205 0.737-0.415 0.368-0.202 0.368-0.185 0.368-0.159 0.368-0.127 0.368-0.0942 0.368-0.0652 0.368-0.0441 0.368-0.0332 0.368-0.0324 0.368-0.0397 0.368-0.0521 0.368-0.0659 0.368-0.0779 0.737-0.173 0.368-0.0832 0.368-0.0742 0.368-0.062 0.368-0.0487 0.368-0.0362 0.368-0.0261 0.368-0.0191 0.368-0.0155 0.737-0.0315 0.368-0.0193 0.368-0.0222 0.737-0.0498v-0.25l-0.737-0.0498-0.368-0.0222-0.368-0.0193-1.11-0.047-0.368-0.0191-0.368-0.0261-0.368-0.0362-0.368-0.0487-0.368-0.062-0.368-0.0742-0.368-0.0832-0.737-0.173-0.368-0.0779-0.368-0.0659-0.368-0.0521-0.368-0.0397-0.368-0.0324-0.368-0.0332-0.368-0.0441-0.368-0.0652-0.368-0.0942-0.368-0.127-0.368-0.159-0.368-0.185-0.368-0.202-0.737-0.415-0.368-0.205-0.368-0.208-0.368-0.223-0.368-0.253-0.368-0.296-0.368-0.342-0.368-0.378-0.368-0.393-0.368-0.379-0.368-0.339-0.368-0.289-0.368-0.254-0.368-0.263-0.368-0.339-0.368-0.492-0.368-0.709-0.368-0.957-0.368-1.18-0.368-1.31-0.368-1.29-0.368-1.09-0.368-0.722-0.368-0.237-0.368 0.285-0.368 0.754-0.368 1.1-0.368 1.29-0.368 1.31-0.368 1.2-0.368 1-0.368 0.764-0.368 0.517-0.368 0.283-0.368 0.0677-0.368-0.134-0.368-0.332-0.368-0.534-0.368-0.739-0.368-0.937-0.368-1.1-0.368-1.21-0.368-1.21-0.368-1.1-0.368-0.857-0.368-0.497-0.368-0.058-0.368 0.408-0.368 0.841-0.368 1.19-0.368 1.41-0.368 1.5-0.368 1.46-0.368 1.32-0.368 1.12-0.368 0.907-0.368 0.706-0.368 0.541-0.368 0.421-0.368 0.341-0.368 0.293-0.368 0.264-0.368 0.243-0.368 0.222-0.368 0.2-0.368 0.178-0.368 0.156-0.368 0.139-0.368 0.126z" clip-path="url(#a)" fill="#1f77b4" fill-opacity=".3"/>
<path d="m171 211v-176" clip-path="url(#a)" fill="none" stroke="#b0b0b0" stroke-linecap="square" stroke-width=".8"/>
<defs>
<path id="o" d="m0 0v3.5" stroke="#000" stroke-width=".8"/>
</defs>
<use x="171.126286" y="210.721635" stroke="#000000" stroke-width=".8" xlink:href="#o"/>
<defs>
<path id="p" d="m0 0v-3.5" stroke="#000" stroke-width=".8"/>
</defs>
<use x="171.126286" y="34.79649" stroke="#000000" stroke-width=".8" xlink:href="#p"/>
<!-- 0.80× -->
<g transform="translate(156 225) scale(.1 -.1)">
<defs>
<path id="b" transform="scale(.0156)" d="m2034 4250q-487 0-733-480-245-479-245-1442 0-959 245-1439 246-480 733-480 491 0 736 480 246 480 246 1439 0 963-246 1442-245 480-736 480zm0 500q785 0 1199-621 414-620 414-1801 0-1178-414-1799-414-620-1199-620-784 0-1198 620-414 621-414 1799 0 1181 414 1801 414 621 1198 621z"/>
<path id="d" transform="scale(.0156)" d="m684 794h660v-794h-660v794z"/>
<path id="x" transform="scale(.0156)" d="m2034 2216q-450 0-708-241-257-241-257-662 0-422 257-663 258-241 708-241t709 242q260 243 260 662 0 421-258 662-257 241-711 241zm-631 268q-406 100-633 378-226 279-226 679 0 559 398 884 399 325 1092 325 697 0 1094-325t397-884q0-400-227-679-226-278-629-378 456-106 710-416 255-309 255-755 0-679-414-1042-414-362-1186-362-771 0-1186 362-414 363-414 1042 0 446 256 755 257 310 713 416zm-231 997q0-362 226-565 227-203 636-203 407 0 636 203 230 203 230 565 0 363-230 566-229 203-636 203-409 0-636-203-226-203-226-566z"/>
<path id="e" transform="scale(.0156)" d="m4488 3438-1429-1435 1429-1428-372-378-1435 1434-1434-1434-369 378 1425 1428-1425 1435 369 378 1434-1435 1435 1435 372-378z"/>
</defs>
<use xlink:href="#b"/>
<use x="63.623047" xlink:href="#d"/>
<use x="95.410156" xlink:href="#x"/>
<use x="159.033203" xlink:href="#b"/>
<use x="222.65625" xlink:href="#e"/>
</g>
<!-- 0.80× -->
<g transform="translate(156 25.7) scale(.1 -.1)">
<use xlink:href="#b"/>
<use x="63.623047" xlink:href="#d"/>
<use x="95.410156" xlink:href="#x"/>
<use x="159.033203" xlink:href="#b"/>
<use x="222.65625" xlink:href="#e"/>
</g>
<path d="m260 211v-176" clip-path="url(#a)" fill="none" stroke="#b0b0b0" stroke-linecap="square" stroke-width=".8"/>
<use x="260.431502" y="210.721635" stroke="#000000" stroke-width=".8" xlink:href="#o"/>
<use x="260.431502" y="34.79649" stroke="#000000" stroke-width=".8" xlink:href="#p"/>
<!-- 0.90× -->
<g transform="translate(245 225) scale(.1 -.1)">
<defs>
<path id="s" transform="scale(.0156)" d="m703 97v575q238-113 481-172 244-59 479-59 625 0 954 420 330 420 377 1277-181-269-460-413-278-144-615-144-700 0-1108 423-408 424-408 1159 0 718 425 1152 425 435 1131 435 810 0 1236-621 427-620 427-1801 0-1103-524-1761-523-658-1407-658-238 0-482 47-243 47-506 141zm1256 1978q425 0 673 290 249 291 249 798 0 503-249 795-248 292-673 292t-673-292-248-795q0-507 248-798 248-290 673-290z"/>
</defs>
<use xlink:href="#b"/>
<use x="63.623047" xlink:href="#d"/>
<use x="95.410156" xlink:href="#s"/>
<use x="159.033203" xlink:href="#b"/>
<use x="222.65625" xlink:href="#e"/>
</g>
<!-- 0.90× -->
<g transform="translate(245 25.7) scale(.1 -.1)">
<use xlink:href="#b"/>
<use x="63.623047" xlink:href="#d"/>
<use x="95.410156" xlink:href="#s"/>
<use x="159.033203" xlink:href="#b"/>
<use x="222.65625" xlink:href="#e"/>
</g>
<path d="m350 211v-176" clip-path="url(#a)" fill="none" stroke="#b0b0b0" stroke-linecap="square" stroke-width=".8"/>
<use x="349.736719" y="210.721635" stroke="#000000" stroke-width=".8" xlink:href="#o"/>
<use x="349.736719" y="34.79649" stroke="#000000" stroke-width=".8" xlink:href="#p"/>
<!-- 1.00× -->
<g transform="translate(334 225) scale(.1 -.1)">
<defs>
<path id="c" transform="scale(.0156)" d="m794 531h1031v3560l-1122-225v575l1116 225h631v-4135h1031v-531h-2687v531z"/>
</defs>
<use xlink:href="#c"/>
<use x="63.623047" xlink:href="#d"/>
<use x="95.410156" xlink:href="#b"/>
<use x="159.033203" xlink:href="#b"/>
<use x="222.65625" xlink:href="#e"/>
</g>
<!-- 1.00× -->
<g transform="translate(334 25.7) scale(.1 -.1)">
<use xlink:href="#c"/>
<use x="63.623047" xlink:href="#d"/>
<use x="95.410156" xlink:href="#b"/>
<use x="159.033203" xlink:href="#b"/>
<use x="222.65625" xlink:href="#e"/>
</g>
<path d="m439 211v-176" clip-path="url(#a)" fill="none" stroke="#b0b0b0" stroke-linecap="square" stroke-width=".8"/>
<use x="439.041935" y="210.721635" stroke="#000000" stroke-width=".8" xlink:href="#o"/>
<use x="439.041935" y="34.79649" stroke="#000000" stroke-width=".8" xlink:href="#p"/>
<!-- 1.10× -->
<g transform="translate(424 225) scale(.1 -.1)">
<use xlink:href="#c"/>
<use x="63.623047" xlink:href="#d"/>
<use x="95.410156" xlink:href="#c"/>
<use x="159.033203" xlink:href="#b"/>
<use x="222.65625" xlink:href="#e"/>
</g>
<!-- 1.10× -->
<g transform="translate(424 25.7) scale(.1 -.1)">
<use xlink:href="#c"/>
<use x="63.623047" xlink:href="#d"/>
<use x="95.410156" xlink:href="#c"/>
<use x="159.033203" xlink:href="#b"/>
<use x="222.65625" xlink:href="#e"/>
</g>
<path d="m528 211v-176" clip-path="url(#a)" fill="none" stroke="#b0b0b0" stroke-linecap="square" stroke-width=".8"/>
<use x="528.347152" y="210.721635" stroke="#000000" stroke-width=".8" xlink:href="#o"/>
<use x="528.347152" y="34.79649" stroke="#000000" stroke-width=".8" xlink:href="#p"/>
<!-- 1.20× -->
<g transform="translate(513 225) scale(.1 -.1)">
<defs>
<path id="k" transform="scale(.0156)" d="m1228 531h2203v-531h-2962v531q359 372 979 998 621 627 780 809 303 340 423 576 121 236 121 464 0 372-261 606-261 235-680 235-297 0-627-103-329-103-704-313v638q381 153 712 231 332 78 607 78 725 0 1156-363 431-362 431-968 0-288-108-546-107-257-392-607-78-91-497-524-418-433-1181-1211z"/>
</defs>
<use xlink:href="#c"/>
<use x="63.623047" xlink:href="#d"/>
<use x="95.410156" xlink:href="#k"/>
<use x="159.033203" xlink:href="#b"/>
<use x="222.65625" xlink:href="#e"/>
</g>
<!-- 1.20× -->
<g transform="translate(513 25.7) scale(.1 -.1)">
<use xlink:href="#c"/>
<use x="63.623047" xlink:href="#d"/>
<use x="95.410156" xlink:href="#k"/>
<use x="159.033203" xlink:href="#b"/>
<use x="222.65625" xlink:href="#e"/>
</g>
<path d="m126 181h447" clip-path="url(#a)" fill="none" stroke="#b0b0b0" stroke-linecap="square" stroke-width=".8"/>
<defs>
<path id="n" d="m0 0h-3.5" stroke="#000" stroke-width=".8"/>
</defs>
<use x="126.473678" y="181.400777" stroke="#000000" stroke-width=".8" xlink:href="#n"/>
<!-- python_startup -->
<g transform="translate(43.5 185) scale(.1 -.1)">
<defs>
<path id="i" transform="scale(.0156)" d="m1159 525v-1856h-578v4831h578v-531q182 312 458 463 277 152 661 152 638 0 1036-506 399-506 399-1331t-399-1332q-398-506-1036-506-384 0-661 152-276 152-458 464zm1957 1222q0 634-261 995t-717 361q-457 0-718-361t-261-995 261-995 718-361q456 0 717 361t261 995z"/>
<path id="u" transform="scale(.0156)" d="m2059-325q-243-625-475-815-231-191-618-191h-460v481h338q237 0 368 113 132 112 291 531l103 262-1415 3444h609l1094-2737 1094 2737h609l-1538-3825z"/>
<path id="g" transform="scale(.0156)" d="m1172 4494v-994h1184v-447h-1184v-1900q0-428 117-550t477-122h590v-481h-590q-666 0-919 248-253 249-253 905v1900h-422v447h422v994h578z"/>
<path id="w" transform="scale(.0156)" d="m3513 2113v-2113h-575v2094q0 497-194 743-194 247-581 247-466 0-735-297-269-296-269-809v-1978h-578v4863h578v-1907q207 316 486 472 280 156 646 156 603 0 912-373 310-373 310-1098z"/>
<path id="f" transform="scale(.0156)" d="m1959 3097q-462 0-731-361t-269-989 267-989q268-361 733-361 460 0 728 362 269 363 269 988 0 622-269 986-268 364-728 364zm0 487q750 0 1178-488 429-487 429-1349 0-859-429-1349-428-489-1178-489-753 0-1180 489-426 490-426 1349 0 862 426 1349 427 488 1180 488z"/>
<path id="q" transform="scale(.0156)" d="m3513 2113v-2113h-575v2094q0 497-194 743-194 247-581 247-466 0-735-297-269-296-269-809v-1978h-578v3500h578v-544q207 316 486 472 280 156 646 156 603 0 912-373 310-373 310-1098z"/>
<path id="l" transform="scale(.0156)" d="m3263-1063v-446h-3326v446h3326z"/>
<path id="h" transform="scale(.0156)" d="m2834 3397v-544q-243 125-506 187-262 63-544 63-428 0-642-131t-214-394q0-200 153-314t616-217l197-44q612-131 870-370t258-667q0-488-386-773-386-284-1061-284-281 0-586 55t-642 164v594q319-166 628-249 309-82 613-82 406 0 624 139 219 139 219 392 0 234-158 359-157 125-692 241l-200 47q-534 112-772 345-237 233-237 639 0 494 350 762 350 269 994 269 318 0 599-47 282-46 519-140z"/>
<path id="r" transform="scale(.0156)" d="m2194 1759q-697 0-966-159t-269-544q0-306 202-486 202-179 548-179 479 0 768 339t289 901v128h-572zm1147 238v-2e3h-575v531q-197-318-491-470t-719-152q-537 0-855 302-317 302-317 808 0 590 395 890 396 300 1180 300h807v57q0 397-261 614t-733 217q-300 0-585-72-284-72-546-216v532q315 122 612 182 297 61 578 61 760 0 1135-394 375-393 375-1193z"/>
<path id="v" transform="scale(.0156)" d="m2631 2963q-97 56-211 82-114 27-251 27-488 0-749-317t-261-911v-1844h-578v3500h578v-544q182 319 472 473 291 155 707 155 59 0 131-8 72-7 159-23l3-590z"/>
<path id="z" transform="scale(.0156)" d="m544 1381v2119h575v-2097q0-497 193-746 194-248 582-248 465 0 735 297 271 297 271 810v1984h575v-3500h-575v538q-209-319-486-474-276-155-642-155-603 0-916 375-312 375-312 1097zm1447 2203z"/>
</defs>
<use xlink:href="#i"/>
<use x="63.476562" xlink:href="#u"/>
<use x="122.65625" xlink:href="#g"/>
<use x="161.865234" xlink:href="#w"/>
<use x="225.244141" xlink:href="#f"/>
<use x="286.425781" xlink:href="#q"/>
<use x="349.804688" xlink:href="#l"/>
<use x="399.804688" xlink:href="#h"/>
<use x="451.904297" xlink:href="#g"/>
<use x="491.113281" xlink:href="#r"/>
<use x="552.392578" xlink:href="#v"/>
<use x="593.505859" xlink:href="#g"/>
<use x="632.714844" xlink:href="#z"/>
<use x="696.09375" xlink:href="#i"/>
</g>
<path d="m126 152h447" clip-path="url(#a)" fill="none" stroke="#b0b0b0" stroke-linecap="square" stroke-width=".8"/>
<use x="126.473678" y="152.07992" stroke="#000000" stroke-width=".8" xlink:href="#n"/>
<!-- bench_mp_pool -->
<g transform="translate(41.3 156) scale(.1 -.1)">
<defs>
<path id="ad" transform="scale(.0156)" d="m3116 1747q0 634-261 995t-717 361q-457 0-718-361t-261-995 261-995 718-361q456 0 717 361t261 995zm-1957 1222q182 312 458 463 277 152 661 152 638 0 1036-506 399-506 399-1331t-399-1332q-398-506-1036-506-384 0-661 152-276 152-458 464v-525h-578v4863h578v-1894z"/>
<path id="j" transform="scale(.0156)" d="m3597 1894v-281h-2644q38-594 358-905t892-311q331 0 642 81t618 244v-544q-310-131-635-200t-659-69q-838 0-1327 487-489 488-489 1320 0 859 464 1363 464 505 1252 505 706 0 1117-455 411-454 411-1235zm-575 169q-6 471-264 752-258 282-683 282-481 0-770-272t-333-766l2050 4z"/>
<path id="ac" transform="scale(.0156)" d="m3122 3366v-538q-244 135-489 202t-495 67q-560 0-870-355-309-354-309-995t309-996q310-354 870-354 250 0 495 67t489 202v-532q-241-112-499-168-257-57-548-57-791 0-1257 497-465 497-465 1341 0 856 470 1346 471 491 1290 491 265 0 518-55 253-54 491-163z"/>
<path id="aa" transform="scale(.0156)" d="m3328 2828q216 388 516 572t706 184q547 0 844-383 297-382 297-1088v-2113h-578v2094q0 503-179 746-178 244-543 244-447 0-707-297-259-296-259-809v-1978h-578v2094q0 506-178 748t-550 242q-441 0-701-298-259-298-259-808v-1978h-578v3500h578v-544q197 322 472 475t653 153q382 0 649-194 267-193 395-562z"/>
<path id="ae" transform="scale(.0156)" d="m603 4863h575v-4863h-575v4863z"/>
</defs>
<use xlink:href="#ad"/>
<use x="63.476562" xlink:href="#j"/>
<use x="125" xlink:href="#q"/>
<use x="188.378906" xlink:href="#ac"/>
<use x="243.359375" xlink:href="#w"/>
<use x="306.738281" xlink:href="#l"/>
<use x="356.738281" xlink:href="#aa"/>
<use x="454.150391" xlink:href="#i"/>
<use x="517.626953" xlink:href="#l"/>
<use x="567.626953" xlink:href="#i"/>
<use x="631.103516" xlink:href="#f"/>
<use x="692.285156" xlink:href="#f"/>
<use x="753.466797" xlink:href="#ae"/>
</g>
<path d="m126 123h447" clip-path="url(#a)" fill="none" stroke="#b0b0b0" stroke-linecap="square" stroke-width=".8"/>
<use x="126.473678" y="122.759062" stroke="#000000" stroke-width=".8" xlink:href="#n"/>
<!-- 2to3 -->
<g transform="translate(96.7 127) scale(.1 -.1)">
<defs>
<path id="y" transform="scale(.0156)" d="m2597 2516q453-97 707-404 255-306 255-756 0-690-475-1069-475-378-1350-378-293 0-604 58t-642 174v609q262-153 574-231 313-78 654-78 593 0 904 234t311 681q0 413-289 645-289 233-804 233h-544v519h569q465 0 712 186t247 536q0 359-255 551-254 193-729 193-260 0-557-57-297-56-653-174v562q360 100 674 150t592 50q719 0 1137-327 419-326 419-882 0-388-222-655t-631-370z"/>
</defs>
<use xlink:href="#k"/>
<use x="63.623047" xlink:href="#g"/>
<use x="102.832031" xlink:href="#f"/>
<use x="164.013672" xlink:href="#y"/>
</g>
<path d="m126 93.4h447" clip-path="url(#a)" fill="none" stroke="#b0b0b0" stroke-linecap="square" stroke-width=".8"/>
<use x="126.473678" y="93.438205" stroke="#000000" stroke-width=".8" xlink:href="#n"/>
<!-- python_startup_no_site -->
<g transform="translate(3 97.2) scale(.1 -.1)">
<defs>
<path id="ak" transform="scale(.0156)" d="m603 3500h575v-3500h-575v3500zm0 1363h575v-729h-575v729z"/>
</defs>
<use xlink:href="#i"/>
<use x="63.476562" xlink:href="#u"/>
<use x="122.65625" xlink:href="#g"/>
<use x="161.865234" xlink:href="#w"/>
<use x="225.244141" xlink:href="#f"/>
<use x="286.425781" xlink:href="#q"/>
<use x="349.804688" xlink:href="#l"/>
<use x="399.804688" xlink:href="#h"/>
<use x="451.904297" xlink:href="#g"/>
<use x="491.113281" xlink:href="#r"/>
<use x="552.392578" xlink:href="#v"/>
<use x="593.505859" xlink:href="#g"/>
<use x="632.714844" xlink:href="#z"/>
<use x="696.09375" xlink:href="#i"/>
<use x="759.570312" xlink:href="#l"/>
<use x="809.570312" xlink:href="#q"/>
<use x="872.949219" xlink:href="#f"/>
<use x="934.130859" xlink:href="#l"/>
<use x="984.130859" xlink:href="#h"/>
<use x="1036.230469" xlink:href="#ak"/>
<use x="1064.013672" xlink:href="#g"/>
<use x="1103.222656" xlink:href="#j"/>
</g>
<path d="m126 64.1h447" clip-path="url(#a)" fill="none" stroke="#b0b0b0" stroke-linecap="square" stroke-width=".8"/>
<use x="126.473678" y="64.117347" stroke="#000000" stroke-width=".8" xlink:href="#n"/>
<!-- ALL -->
<g transform="translate(101 67.9) scale(.1 -.1)">
<defs>
<path id="ao" transform="scale(.0156)" d="m2188 4044-857-2322h1716l-859 2322zm-357 622h716l1778-4666h-656l-425 1197h-2103l-425-1197h-666l1781 4666z"/>
<path id="af" transform="scale(.0156)" d="m628 4666h631v-4135h2272v-531h-2903v4666z"/>
</defs>
<use xlink:href="#ao"/>
<use x="68.408203" xlink:href="#af"/>
<use x="124.121094" xlink:href="#af"/>
</g>
<path d="m350 211v-176" clip-path="url(#a)" fill="none" stroke="#1f77b4" stroke-linecap="square" stroke-width="1.5"/>
<g fill="none" stroke="#1f77b4" stroke-width="1.5">
<path d="m358 189v-14.7" clip-path="url(#a)"/>
<path d="m364 159v-14.7" clip-path="url(#a)"/>
<path d="m367 130v-14.7" clip-path="url(#a)"/>
<path d="m368 101v-14.7" clip-path="url(#a)"/>
<path d="m364 71.4v-14.7" clip-path="url(#a)"/>
</g>
<g fill="none" stroke="#1f77b4" stroke-width="1.5">
<path d="m360 189v-14.7" clip-path="url(#a)"/>
<path d="m381 159v-14.7" clip-path="url(#a)"/>
<path d="m387 130v-14.7" clip-path="url(#a)"/>
<path d="m372 101v-14.7" clip-path="url(#a)"/>
<path d="m387 71.4v-14.7" clip-path="url(#a)"/>
</g>
<g fill="none" stroke="#1f77b4" stroke-width="1.5">
<path d="m354 189v-14.7" clip-path="url(#a)"/>
<path d="m350 159v-14.7" clip-path="url(#a)"/>
<path d="m351 130v-14.7" clip-path="url(#a)"/>
<path d="m366 101v-14.7" clip-path="url(#a)"/>
<path d="m350 71.4v-14.7" clip-path="url(#a)"/>
</g>
<g fill="none" stroke="#1f77b4" stroke-width="1.5">
<path d="m354 181h6.52" clip-path="url(#a)"/>
<path d="m350 152h30.3" clip-path="url(#a)"/>
<path d="m351 123h36.1" clip-path="url(#a)"/>
<path d="m366 93.4h5.81" clip-path="url(#a)"/>
<path d="m350 64.1h36.5" clip-path="url(#a)"/>
</g>
<g fill="none" stroke="#1f77b4" stroke-dasharray="1.5,2.475" stroke-width="1.5">
<path d="m358 189v-14.7" clip-path="url(#a)"/>
<path d="m360 189v-14.7" clip-path="url(#a)"/>
<path d="m356 159v-14.7" clip-path="url(#a)"/>
<path d="m372 159v-14.7" clip-path="url(#a)"/>
<path d="m357 130v-14.7" clip-path="url(#a)"/>
<path d="m378 130v-14.7" clip-path="url(#a)"/>
<path d="m366 101v-14.7" clip-path="url(#a)"/>
<path d="m372 101v-14.7" clip-path="url(#a)"/>
<path d="m358 71.4v-14.7" clip-path="url(#a)"/>
<path d="m372 71.4v-14.7" clip-path="url(#a)"/>
</g>
<path d="m126 211v-176" fill="none" stroke="#000" stroke-linecap="square" stroke-width=".8"/>
<path d="m573 211v-176" fill="none" stroke="#000" stroke-linecap="square" stroke-width=".8"/>
<path d="m126 211h447" fill="none" stroke="#000" stroke-linecap="square" stroke-width=".8"/>
<path d="m126 34.8h447" fill="none" stroke="#000" stroke-linecap="square" stroke-width=".8"/>
<!-- 1.0096 -->
<g transform="translate(358 173) scale(.08 -.08)">
<defs>
<path id="m" transform="scale(.0156)" d="m2113 2584q-425 0-674-291-248-290-248-796 0-503 248-796 249-292 674-292t673 292q248 293 248 796 0 506-248 796-248 291-673 291zm1253 1979v-575q-238 112-480 171-242 60-480 60-625 0-955-422-329-422-376-1275 184 272 462 417 279 145 613 145 703 0 1111-427 408-426 408-1160 0-719-425-1154-425-434-1131-434-810 0-1238 620-428 621-428 1799 0 1106 525 1764t1409 658q238 0 480-47t505-140z"/>
</defs>
<use xlink:href="#c"/>
<use x="63.623047" xlink:href="#d"/>
<use x="95.410156" xlink:href="#b"/>
<use x="159.033203" xlink:href="#b"/>
<use x="222.65625" xlink:href="#s"/>
<use x="286.279297" xlink:href="#m"/>
</g>
<!-- 1.0164 -->
<g transform="translate(364 143) scale(.08 -.08)">
<defs>
<path id="ah" transform="scale(.0156)" d="m2419 4116-1594-2491h1594v2491zm-166 550h794v-3041h666v-525h-666v-1100h-628v1100h-2106v609l1940 2957z"/>
</defs>
<use xlink:href="#c"/>
<use x="63.623047" xlink:href="#d"/>
<use x="95.410156" xlink:href="#b"/>
<use x="159.033203" xlink:href="#c"/>
<use x="222.65625" xlink:href="#m"/>
<use x="286.279297" xlink:href="#ah"/>
</g>
<!-- 1.0194 -->
<g transform="translate(367 114) scale(.08 -.08)">
<use xlink:href="#c"/>
<use x="63.623047" xlink:href="#d"/>
<use x="95.410156" xlink:href="#b"/>
<use x="159.033203" xlink:href="#c"/>
<use x="222.65625" xlink:href="#s"/>
<use x="286.279297" xlink:href="#ah"/>
</g>
<!-- 1.0200 -->
<g transform="translate(368 84.6) scale(.08 -.08)">
<use xlink:href="#c"/>
<use x="63.623047" xlink:href="#d"/>
<use x="95.410156" xlink:href="#b"/>
<use x="159.033203" xlink:href="#k"/>
<use x="222.65625" xlink:href="#b"/>
<use x="286.279297" xlink:href="#b"/>
</g>
<!-- 1.0162 -->
<g transform="translate(364 55.3) scale(.08 -.08)">
<use xlink:href="#c"/>
<use x="63.623047" xlink:href="#d"/>
<use x="95.410156" xlink:href="#b"/>
<use x="159.033203" xlink:href="#c"/>
<use x="222.65625" xlink:href="#m"/>
<use x="286.279297" xlink:href="#k"/>
</g>
<!-- more ⟶ -->
<g transform="translate(360 34.8) scale(.1 -.1)">
<defs>
<path id="aq" transform="scale(.0156)" d="m8863 2147v-281l-1229-1228-375 375 729 728h-7622v531h7622l-729 728 375 375 1229-1228z"/>
</defs>
<use xlink:href="#aa"/>
<use x="97.412109" xlink:href="#f"/>
<use x="158.59375" xlink:href="#v"/>
<use x="197.457031" xlink:href="#j"/>
<use x="258.980469" xlink:href="#DejaVuSans-20"/>
<use x="290.767578" xlink:href="#aq"/>
</g>
<!-- ⟵ less -->
<g transform="translate(303 34.8) scale(.1 -.1)">
<defs>
<path id="ar" transform="scale(.0156)" d="m313 1866v281l1228 1228 375-375-728-728h7621v-531h-7621l728-728-375-375-1228 1228z"/>
</defs>
<use xlink:href="#ar"/>
<use x="143.359375" xlink:href="#DejaVuSans-20"/>
<use x="175.146484" xlink:href="#ae"/>
<use x="202.929688" xlink:href="#j"/>
<use x="264.453125" xlink:href="#h"/>
<use x="316.552734" xlink:href="#h"/>
</g>
<!-- Memory usage of python-6725c78d376eadb01a9d-6725c78 vs. 3.13.0b1+ -->
<g transform="translate(125 12.1) scale(.12 -.12)">
<defs>
<path id="an" transform="scale(.0156)" d="m628 4666h941l1190-3175 1197 3175h941v-4666h-616v4097l-1203-3200h-634l-1203 3200v-4097h-613v4666z"/>
<path id="al" transform="scale(.0156)" d="m2906 1791q0 625-258 968-257 344-723 344-462 0-720-344-258-343-258-968 0-622 258-966t720-344q466 0 723 344 258 344 258 966zm575-1357q0-893-397-1329-396-436-1215-436-303 0-572 45t-522 139v559q253-137 500-202 247-66 503-66 566 0 847 295t281 892v285q-178-310-456-463t-666-153q-643 0-1037 490-394 491-394 1301 0 812 394 1302 394 491 1037 491 388 0 666-153t456-462v531h575v-3066z"/>
<path id="am" transform="scale(.0156)" d="m2375 4863v-479h-550q-309 0-430-125-120-125-120-450v-309h947v-447h-947v-3053h-578v3053h-550v447h550v244q0 584 272 851 272 268 862 268h544z"/>
<path id="ai" transform="scale(.0156)" d="m313 2009h1684v-512h-1684v512z"/>
<path id="t" transform="scale(.0156)" d="m525 4666h3e3v-269l-1694-4397h-659l1594 4134h-2241v532z"/>
<path id="ag" transform="scale(.0156)" d="m691 4666h2478v-532h-1900v-1143q137 47 274 70 138 23 276 23 781 0 1237-428 457-428 457-1159 0-753-469-1171-469-417-1322-417-294 0-599 50-304 50-629 150v635q281-153 581-228t634-75q541 0 856 284 316 284 316 772 0 487-316 771-315 285-856 285-253 0-505-56-251-56-513-175v2344z"/>
<path id="ab" transform="scale(.0156)" d="m2906 2969v1894h575v-4863h-575v525q-181-312-458-464-276-152-664-152-634 0-1033 506-398 507-398 1332t398 1331q399 506 1033 506 388 0 664-152 277-151 458-463zm-1959-1222q0-634 261-995t717-361 718 361q263 361 263 995t-263 995q-262 361-718 361t-717-361-261-995z"/>
<path id="aj" transform="scale(.0156)" d="m191 3500h609l1094-2937 1094 2937h609l-1313-3500h-781l-1312 3500z"/>
<path id="ap" transform="scale(.0156)" d="m2944 4013v-1741h1740v-531h-1740v-1741h-525v1741h-1741v531h1741v1741h525z"/>
</defs>
<use xlink:href="#an"/>
<use x="86.279297" xlink:href="#j"/>
<use x="147.802734" xlink:href="#aa"/>
<use x="245.214844" xlink:href="#f"/>
<use x="306.396484" xlink:href="#v"/>
<use x="347.509766" xlink:href="#u"/>
<use x="406.689453" xlink:href="#DejaVuSans-20"/>
<use x="438.476562" xlink:href="#z"/>
<use x="501.855469" xlink:href="#h"/>
<use x="553.955078" xlink:href="#r"/>
<use x="615.234375" xlink:href="#al"/>
<use x="678.710938" xlink:href="#j"/>
<use x="740.234375" xlink:href="#DejaVuSans-20"/>
<use x="772.021484" xlink:href="#f"/>
<use x="833.203125" xlink:href="#am"/>
<use x="868.408203" xlink:href="#DejaVuSans-20"/>
<use x="900.195312" xlink:href="#i"/>
<use x="963.671875" xlink:href="#u"/>
<use x="1022.851562" xlink:href="#g"/>
<use x="1062.060547" xlink:href="#w"/>
<use x="1125.439453" xlink:href="#f"/>
<use x="1186.621094" xlink:href="#q"/>
<use x="1250" xlink:href="#ai"/>
<use x="1286.083984" xlink:href="#m"/>
<use x="1349.707031" xlink:href="#t"/>
<use x="1413.330078" xlink:href="#k"/>
<use x="1476.953125" xlink:href="#ag"/>
<use x="1540.576172" xlink:href="#ac"/>
<use x="1595.556641" xlink:href="#t"/>
<use x="1659.179688" xlink:href="#x"/>
<use x="1722.802734" xlink:href="#ab"/>
<use x="1786.279297" xlink:href="#y"/>
<use x="1849.902344" xlink:href="#t"/>
<use x="1913.525391" xlink:href="#m"/>
<use x="1977.148438" xlink:href="#j"/>
<use x="2038.671875" xlink:href="#r"/>
<use x="2099.951172" xlink:href="#ab"/>
<use x="2163.427734" xlink:href="#ad"/>
<use x="2226.904297" xlink:href="#b"/>
<use x="2290.527344" xlink:href="#c"/>
<use x="2354.150391" xlink:href="#r"/>
<use x="2415.429688" xlink:href="#s"/>
<use x="2479.052734" xlink:href="#ab"/>
<use x="2542.529297" xlink:href="#ai"/>
<use x="2578.613281" xlink:href="#m"/>
<use x="2642.236328" xlink:href="#t"/>
<use x="2705.859375" xlink:href="#k"/>
<use x="2769.482422" xlink:href="#ag"/>
<use x="2833.105469" xlink:href="#ac"/>
<use x="2888.085938" xlink:href="#t"/>
<use x="2951.708984" xlink:href="#x"/>
<use x="3015.332031" xlink:href="#DejaVuSans-20"/>
<use x="3047.119141" xlink:href="#aj"/>
<use x="3106.298828" xlink:href="#h"/>
<use x="3158.398438" xlink:href="#d"/>
<use x="3190.185547" xlink:href="#DejaVuSans-20"/>
<use x="3221.972656" xlink:href="#y"/>
<use x="3285.595703" xlink:href="#d"/>
<use x="3317.382812" xlink:href="#c"/>
<use x="3381.005859" xlink:href="#y"/>
<use x="3444.628906" xlink:href="#d"/>
<use x="3476.416016" xlink:href="#b"/>
<use x="3540.039062" xlink:href="#ad"/>
<use x="3603.515625" xlink:href="#c"/>
<use x="3667.138672" xlink:href="#ap"/>
</g>
<defs>
<clipPath id="a">
<rect x="126" y="34.8" width="447" height="176"/>
</clipPath>
</defs>
</svg>
