<?xml version="1.0" encoding="UTF-8"?>
<!DOCTYPE svg  PUBLIC '-//W3C//DTD SVG 1.1//EN'  'http://www.w3.org/Graphics/SVG/1.1/DTD/svg11.dtd'>
<svg width="576pt" height="382pt" version="1.1" viewBox="0 0 576 382" xmlns="http://www.w3.org/2000/svg" xmlns:xlink="http://www.w3.org/1999/xlink">
<defs>
<style type="text/css">*{stroke-linejoin: round; stroke-linecap: butt}</style>
</defs>
<path d="m0 382h576v-382h-576z" fill="#fff"/>
<path d="m126 362h447v-327h-447z" fill="#fff"/>
<path d="m147 330v14.5l5.15e-4 -0.0265 5.15e-4 -0.0798 5.15e-4 -0.131 5.14e-4 -0.179 5.15e-4 -0.224 5.15e-4 -0.263 5.15e-4 -0.297 5.15e-4 -0.324 5.15e-4 -0.345 5.14e-4 -0.359 5.15e-4 -0.366 5.15e-4 -0.366 5.15e-4 -0.36 5.15e-4 -0.347 5.15e-4 -0.329 5.14e-4 -0.306 5.15e-4 -0.278 5.15e-4 -0.245 5.15e-4 -0.209 5.15e-4 -0.17 5.15e-4 -0.127 5.14e-4 -0.0827 5.15e-4 -0.0357 5.15e-4 0.0133 5.15e-4 0.064 5.15e-4 0.116 5.15e-4 0.169 5.14e-4 0.223 5.15e-4 0.277 5.15e-4 0.33 5.15e-4 0.383 5.15e-4 0.434 5.15e-4 0.481 5.14e-4 0.525 5.15e-4 0.565 5.15e-4 0.598 5.15e-4 0.624 5.15e-4 0.641 5.15e-4 0.65 5.14e-4 0.648 5.15e-4 0.635 5.15e-4 0.611 5.15e-4 0.576 5.15e-4 0.53 5.15e-4 0.473 5.14e-4 0.406 5.15e-4 0.33 5.15e-4 0.247 5.15e-4 0.159 5.15e-4 0.067 5.14e-4 -0.0264 5.15e-4 -0.119 5.15e-4 -0.209 5.15e-4 -0.295 5.15e-4 -0.374 5.15e-4 -0.445 5.14e-4 -0.507 5.15e-4 -0.559 5.15e-4 -0.6 5.15e-4 -0.629 5.15e-4 -0.648 5.15e-4 -0.656 5.14e-4 -0.653 5.15e-4 -0.641 5.15e-4 -0.621 5.15e-4 -0.594 5.15e-4 -0.561 5.15e-4 -0.524 5.14e-4 -0.483 5.15e-4 -0.44 5.15e-4 -0.396 5.15e-4 -0.351 5.15e-4 -0.307 5.15e-4 -0.265 5.14e-4 -0.224 5.15e-4 -0.186 5.15e-4 -0.15 5.15e-4 -0.117 5.15e-4 -0.0873 5.15e-4 -0.0602 5.14e-4 -0.0359 5.15e-4 -0.0145 5.15e-4 0.00407 5.15e-4 0.02 5.15e-4 0.0333 5.15e-4 0.0441 5.14e-4 0.0524 5.15e-4 0.0584 5.15e-4 0.0622 5.15e-4 0.0638 5.15e-4 0.0633 5.15e-4 0.0609 5.14e-4 0.0567 5.15e-4 0.0509 5.15e-4 0.0436 5.15e-4 0.0352 5.15e-4 0.0257 5.15e-4 0.0155 5.14e-4 0.00479v-2.99l-5.14e-4 0.00479-5.15e-4 0.0155-5.15e-4 0.0257-5.15e-4 0.0352-5.15e-4 0.0436-5.15e-4 0.0509-5.14e-4 0.0567-5.15e-4 0.0609-5.15e-4 0.0633-5.15e-4 0.0638-5.15e-4 0.0622-5.15e-4 0.0584-5.14e-4 0.0524-5.15e-4 0.0441-5.15e-4 0.0333-5.15e-4 0.02-5.15e-4 0.00407-5.15e-4 -0.0145-5.14e-4 -0.0359-5.15e-4 -0.0602-5.15e-4 -0.0873-5.15e-4 -0.117-5.15e-4 -0.15-5.15e-4 -0.186-5.14e-4 -0.224-5.15e-4 -0.265-5.15e-4 -0.307-5.15e-4 -0.351-5.15e-4 -0.396-5.15e-4 -0.44-5.14e-4 -0.483-5.15e-4 -0.524-5.15e-4 -0.561-5.15e-4 -0.594-5.15e-4 -0.621-5.15e-4 -0.641-5.14e-4 -0.653-5.15e-4 -0.656-5.15e-4 -0.648-5.15e-4 -0.629-5.15e-4 -0.6-5.15e-4 -0.559-5.14e-4 -0.507-5.15e-4 -0.445-5.15e-4 -0.374-5.15e-4 -0.295-5.15e-4 -0.209-5.15e-4 -0.119-5.14e-4 -0.0264-5.15e-4 0.067-5.15e-4 0.159-5.15e-4 0.247-5.15e-4 0.33-5.14e-4 0.406-5.15e-4 0.473-5.15e-4 0.53-5.15e-4 0.576-5.15e-4 0.611-5.15e-4 0.635-5.14e-4 0.648-5.15e-4 0.65-5.15e-4 0.641-5.15e-4 0.624-5.15e-4 0.598-5.15e-4 0.565-5.14e-4 0.525-5.15e-4 0.481-5.15e-4 0.434-5.15e-4 0.383-5.15e-4 0.33-5.15e-4 0.277-5.14e-4 0.223-5.15e-4 0.169-5.15e-4 0.116-5.15e-4 0.064-5.15e-4 0.0133-5.15e-4 -0.0357-5.14e-4 -0.0827-5.15e-4 -0.127-5.15e-4 -0.17-5.15e-4 -0.209-5.15e-4 -0.245-5.15e-4 -0.278-5.14e-4 -0.306-5.15e-4 -0.329-5.15e-4 -0.347-5.15e-4 -0.36-5.15e-4 -0.366-5.15e-4 -0.366-5.14e-4 -0.359-5.15e-4 -0.345-5.15e-4 -0.324-5.15e-4 -0.297-5.15e-4 -0.263-5.15e-4 -0.224-5.14e-4 -0.179-5.15e-4 -0.131-5.15e-4 -0.0798-5.15e-4 -0.0265z" clip-path="url(#a)" fill="#1f77b4" fill-opacity=".3"/>
<path d="m147 303v16.8l2.75e-4 -0.0111 2.74e-4 -0.0333 2.75e-4 -0.0552 2.74e-4 -0.0767 2.74e-4 -0.0975 2.75e-4 -0.118 2.74e-4 -0.137 2.75e-4 -0.155 2.74e-4 -0.172 2.75e-4 -0.188 2.74e-4 -0.202 2.75e-4 -0.215 2.74e-4 -0.226 2.75e-4 -0.236 2.74e-4 -0.244 2.75e-4 -0.251 2.74e-4 -0.256 2.75e-4 -0.259 2.74e-4 -0.261 2.75e-4 -0.262 2.74e-4 -0.261 2.74e-4 -0.258 2.75e-4 -0.255 2.74e-4 -0.25 2.75e-4 -0.244 2.74e-4 -0.238 2.75e-4 -0.23 2.74e-4 -0.222 2.75e-4 -0.213 2.74e-4 -0.203 2.75e-4 -0.193 2.74e-4 -0.183 2.75e-4 -0.172 2.74e-4 -0.161 2.75e-4 -0.15 2.74e-4 -0.138 2.75e-4 -0.127 2.74e-4 -0.116 2.74e-4 -0.104 2.75e-4 -0.0928 2.74e-4 -0.0814 2.75e-4 -0.0701 2.74e-4 -0.0588 2.75e-4 -0.0475 2.74e-4 -0.0362 2.75e-4 -0.0249 2.74e-4 -0.0135 2.75e-4 -0.00204 2.74e-4 0.00955 2.75e-4 0.0213 2.74e-4 0.0333 2.75e-4 0.0455 2.74e-4 0.0579 2.75e-4 0.0707 2.74e-4 0.0837 2.74e-4 0.0971 2.75e-4 0.111 2.74e-4 0.125 2.75e-4 0.139 2.74e-4 0.154 2.75e-4 0.169 2.74e-4 0.185 2.75e-4 0.2 2.74e-4 0.216 2.75e-4 0.232 2.74e-4 0.247 2.75e-4 0.263 2.74e-4 0.278 2.75e-4 0.293 2.74e-4 0.308 2.75e-4 0.322 2.74e-4 0.335 2.75e-4 0.347 2.74e-4 0.358 2.74e-4 0.368 2.75e-4 0.376 2.74e-4 0.383 2.75e-4 0.388 2.74e-4 0.391 2.75e-4 0.393 2.74e-4 0.392 2.75e-4 0.389 2.74e-4 0.384 2.75e-4 0.376 2.74e-4 0.366 2.75e-4 0.354 2.74e-4 0.339 2.75e-4 0.322 2.74e-4 0.303 2.75e-4 0.281 2.74e-4 0.258 2.74e-4 0.232 2.75e-4 0.205 2.74e-4 0.176 2.75e-4 0.146 2.74e-4 0.115 2.75e-4 0.0828 2.74e-4 0.0499 2.75e-4 0.0167v-25.2l-2.75e-4 0.0167-2.74e-4 0.0499-2.75e-4 0.0828-2.74e-4 0.115-2.75e-4 0.146-2.74e-4 0.176-2.75e-4 0.205-2.74e-4 0.232-2.74e-4 0.258-2.75e-4 0.281-2.74e-4 0.303-2.75e-4 0.322-2.74e-4 0.339-2.75e-4 0.354-2.74e-4 0.366-2.75e-4 0.376-2.74e-4 0.384-2.75e-4 0.389-2.74e-4 0.392-2.75e-4 0.393-2.74e-4 0.391-2.75e-4 0.388-2.74e-4 0.383-2.75e-4 0.376-2.74e-4 0.368-2.74e-4 0.358-2.75e-4 0.347-2.74e-4 0.335-2.75e-4 0.322-2.74e-4 0.308-2.75e-4 0.293-2.74e-4 0.278-2.75e-4 0.263-2.74e-4 0.247-2.75e-4 0.232-2.74e-4 0.216-2.75e-4 0.2-2.74e-4 0.185-2.75e-4 0.169-2.74e-4 0.154-2.75e-4 0.139-2.74e-4 0.125-2.75e-4 0.111-2.74e-4 0.0971-2.74e-4 0.0837-2.75e-4 0.0707-2.74e-4 0.0579-2.75e-4 0.0455-2.74e-4 0.0333-2.75e-4 0.0213-2.74e-4 0.00955-2.75e-4 -0.00204-2.74e-4 -0.0135-2.75e-4 -0.0249-2.74e-4 -0.0362-2.75e-4 -0.0475-2.74e-4 -0.0588-2.75e-4 -0.0701-2.74e-4 -0.0814-2.75e-4 -0.0928-2.74e-4 -0.104-2.74e-4 -0.116-2.75e-4 -0.127-2.74e-4 -0.138-2.75e-4 -0.15-2.74e-4 -0.161-2.75e-4 -0.172-2.74e-4 -0.183-2.75e-4 -0.193-2.74e-4 -0.203-2.75e-4 -0.213-2.74e-4 -0.222-2.75e-4 -0.23-2.74e-4 -0.238-2.75e-4 -0.244-2.74e-4 -0.25-2.75e-4 -0.255-2.74e-4 -0.258-2.74e-4 -0.261-2.75e-4 -0.262-2.74e-4 -0.261-2.75e-4 -0.259-2.74e-4 -0.256-2.75e-4 -0.251-2.74e-4 -0.244-2.75e-4 -0.236-2.74e-4 -0.226-2.75e-4 -0.215-2.74e-4 -0.202-2.75e-4 -0.188-2.74e-4 -0.172-2.75e-4 -0.155-2.74e-4 -0.137-2.75e-4 -0.118-2.74e-4 -0.0975-2.74e-4 -0.0767-2.75e-4 -0.0552-2.74e-4 -0.0333-2.75e-4 -0.0111z" clip-path="url(#a)" fill="#1f77b4" fill-opacity=".3"/>
<path d="m150 286v1.17l0.00737 0.069 0.00737 0.0783 0.00737 0.0899 0.00737 0.104 0.00737 0.12 0.00737 0.139 0.00737 0.16 0.00737 0.182 0.00737 0.205 0.00737 0.228 0.00737 0.251 0.00737 0.273 0.00737 0.295 0.00737 0.315 0.00737 0.334 0.00737 0.351 0.00737 0.367 0.00737 0.382 0.00737 0.396 0.00737 0.409 0.00737 0.421 0.00737 0.432 0.00737 0.441 0.00737 0.449 0.00737 0.455 0.00737 0.457 0.00737 0.457 0.00737 0.452 0.00737 0.443 0.00737 0.429 0.00737 0.41 0.00737 0.387 0.00737 0.358 0.00737 0.326 0.00737 0.29 0.00737 0.253 0.00737 0.215 0.00737 0.177 0.00737 0.141 0.00737 0.107 0.00737 0.0756 0.00737 0.0473 0.00737 0.0219 0.00737-0.00113 0.00737-0.0224 0.00737-0.0427 0.00737-0.0628 0.00737-0.0833 0.00737-0.105 0.00737-0.128 0.00737-0.152 0.00737-0.177 0.00737-0.203 0.00737-0.229 0.00737-0.254 0.00737-0.279 0.00737-0.303 0.00737-0.326 0.00737-0.346 0.00737-0.365 0.00737-0.381 0.00737-0.395 0.00737-0.406 0.00737-0.415 0.00737-0.42 0.00737-0.422 0.00737-0.42 0.00737-0.414 0.00737-0.404 0.00737-0.391 0.00737-0.375 0.00737-0.356 0.00737-0.335 0.00737-0.314 0.00737-0.292 0.00737-0.271 0.00737-0.252 0.00737-0.234 0.00737-0.219 0.00737-0.207 0.00737-0.197 0.00737-0.188 0.00737-0.181 0.00737-0.174 0.00737-0.167 0.00737-0.159 0.00737-0.15 0.00737-0.14 0.00737-0.128 0.00737-0.116 0.00737-0.102 0.00737-0.0887 0.00737-0.0757 0.00737-0.0638 0.00737-0.0534 0.00737-0.045 0.00737-0.0386 0.00737-0.0343 0.00737-0.0318v-0.893l-0.00737-0.0318-0.00737-0.0343-0.00737-0.0386-0.00737-0.045-0.00737-0.0534-0.00737-0.0638-0.00737-0.0757-0.00737-0.0887-0.00737-0.102-0.00737-0.116-0.00737-0.128-0.00737-0.14-0.00737-0.15-0.00737-0.159-0.00737-0.167-0.00737-0.174-0.00737-0.181-0.00737-0.188-0.00737-0.197-0.00737-0.207-0.00737-0.219-0.00737-0.234-0.00737-0.252-0.00737-0.271-0.00737-0.292-0.00737-0.314-0.00737-0.335-0.00737-0.356-0.00737-0.375-0.00737-0.391-0.00737-0.404-0.00737-0.414-0.00737-0.42-0.00737-0.422-0.00737-0.42-0.00737-0.415-0.00737-0.406-0.00737-0.395-0.00737-0.381-0.00737-0.365-0.00737-0.346-0.00737-0.326-0.00737-0.303-0.00737-0.279-0.00737-0.254-0.00737-0.229-0.00737-0.203-0.00737-0.177-0.00737-0.152-0.00737-0.128-0.00737-0.105-0.00737-0.0833-0.00737-0.0628-0.00737-0.0427-0.00737-0.0224-0.00737-0.00113-0.00737 0.0219-0.00737 0.0473-0.00737 0.0756-0.00737 0.107-0.00737 0.141-0.00737 0.177-0.00737 0.215-0.00737 0.253-0.00737 0.29-0.00737 0.326-0.00737 0.358-0.00737 0.387-0.00737 0.41-0.00737 0.429-0.00737 0.443-0.00737 0.452-0.00737 0.457-0.00737 0.457-0.00737 0.455-0.00737 0.449-0.00737 0.441-0.00737 0.432-0.00737 0.421-0.00737 0.409-0.00737 0.396-0.00737 0.382-0.00737 0.367-0.00737 0.351-0.00737 0.334-0.00737 0.315-0.00737 0.295-0.00737 0.273-0.00737 0.251-0.00737 0.228-0.00737 0.205-0.00737 0.182-0.00737 0.16-0.00737 0.139-0.00737 0.12-0.00737 0.104-0.00737 0.0899-0.00737 0.0783-0.00737 0.069z" clip-path="url(#a)" fill="#1f77b4" fill-opacity=".3"/>
<path d="m150 260v1.72l0.0111 0.084 0.0111 0.0838 0.0111 0.0846 0.0111 0.087 0.0111 0.092 0.0112 0.1 0.0111 0.112 0.0111 0.127 0.0111 0.146 0.0111 0.168 0.0111 0.193 0.0111 0.219 0.0111 0.247 0.0111 0.274 0.0111 0.301 0.0111 0.326 0.0111 0.349 0.0111 0.37 0.0111 0.389 0.0111 0.405 0.0112 0.418 0.0111 0.429 0.0111 0.436 0.0111 0.441 0.0111 0.442 0.0111 0.44 0.0111 0.435 0.0111 0.427 0.0111 0.417 0.0111 0.404 0.0111 0.391 0.0111 0.376 0.0111 0.361 0.0111 0.344 0.0111 0.327 0.0111 0.307 0.0112 0.284 0.0111 0.256 0.0111 0.221 0.0111 0.181 0.0111 0.133 0.0111 0.0777 0.0111 0.0174 0.0111-0.0466 0.0111-0.112 0.0111-0.175 0.0111-0.234 0.0111-0.286 0.0111-0.329 0.0111-0.362 0.0111-0.386 0.0111-0.401 0.0112-0.409 0.0111-0.412 0.0111-0.413 0.0111-0.412 0.0111-0.411 0.0111-0.412 0.0111-0.414 0.0111-0.417 0.0111-0.42 0.0111-0.421 0.0111-0.42 0.0111-0.415 0.0111-0.406 0.0111-0.392 0.0111-0.375 0.0111-0.354 0.0112-0.33 0.0111-0.305 0.0111-0.28 0.0111-0.255 0.0111-0.231 0.0111-0.209 0.0111-0.189 0.0111-0.171 0.0111-0.155 0.0111-0.141 0.0111-0.127 0.0111-0.115 0.0111-0.104 0.0111-0.0941 0.0111-0.0846 0.0112-0.0758 0.0111-0.0676 0.0111-0.06 0.0111-0.053 0.0111-0.0465 0.0111-0.0404 0.0111-0.0349 0.0111-0.03 0.0111-0.0256 0.0111-0.0221 0.0111-0.0193 0.0111-0.0176 0.0111-0.0169 0.0111-0.0172 0.0111-0.0185 0.0111-0.0205v-0.785l-0.0111-0.0205-0.0111-0.0185-0.0111-0.0172-0.0111-0.0169-0.0111-0.0176-0.0111-0.0193-0.0111-0.0221-0.0111-0.0256-0.0111-0.03-0.0111-0.0349-0.0111-0.0404-0.0111-0.0465-0.0111-0.053-0.0111-0.06-0.0111-0.0676-0.0112-0.0758-0.0111-0.0846-0.0111-0.0941-0.0111-0.104-0.0111-0.115-0.0111-0.127-0.0111-0.141-0.0111-0.155-0.0111-0.171-0.0111-0.189-0.0111-0.209-0.0111-0.231-0.0111-0.255-0.0111-0.28-0.0111-0.305-0.0112-0.33-0.0111-0.354-0.0111-0.375-0.0111-0.392-0.0111-0.406-0.0111-0.415-0.0111-0.42-0.0111-0.421-0.0111-0.42-0.0111-0.417-0.0111-0.414-0.0111-0.412-0.0111-0.411-0.0111-0.412-0.0111-0.413-0.0111-0.412-0.0112-0.409-0.0111-0.401-0.0111-0.386-0.0111-0.362-0.0111-0.329-0.0111-0.286-0.0111-0.234-0.0111-0.175-0.0111-0.112-0.0111-0.0466-0.0111 0.0174-0.0111 0.0777-0.0111 0.133-0.0111 0.181-0.0111 0.221-0.0111 0.256-0.0112 0.284-0.0111 0.307-0.0111 0.327-0.0111 0.344-0.0111 0.361-0.0111 0.376-0.0111 0.391-0.0111 0.404-0.0111 0.417-0.0111 0.427-0.0111 0.435-0.0111 0.44-0.0111 0.442-0.0111 0.441-0.0111 0.436-0.0111 0.429-0.0112 0.418-0.0111 0.405-0.0111 0.389-0.0111 0.37-0.0111 0.349-0.0111 0.326-0.0111 0.301-0.0111 0.274-0.0111 0.247-0.0111 0.219-0.0111 0.193-0.0111 0.168-0.0111 0.146-0.0111 0.127-0.0111 0.112-0.0112 0.1-0.0111 0.092-0.0111 0.087-0.0111 0.0846-0.0111 0.0838-0.0111 0.084z" clip-path="url(#a)" fill="#1f77b4" fill-opacity=".3"/>
<path d="m192 225v22.4l0.0106 0.341 0.0106 0.278 0.0106 0.21 0.0106 0.139 0.0106 0.0673 0.0106-0.00444 0.0106-0.0743 0.0106-0.141 0.0106-0.202 0.0106-0.257 0.0106-0.305 0.0106-0.345 0.0106-0.375 0.0106-0.395 0.0106-0.406 0.0106-0.407 0.0106-0.399 0.0106-0.381 0.0106-0.356 0.0106-0.324 0.0106-0.285 0.0106-0.242 0.0106-0.195 0.0106-0.146 0.0106-0.0955 0.0106-0.0451 0.0106 0.00432 0.0106 0.0518 0.0106 0.0966 0.0106 0.138 0.0106 0.175 0.0106 0.209 0.0106 0.238 0.0106 0.262 0.0106 0.282 0.0106 0.297 0.0106 0.308 0.0106 0.315 0.0106 0.317 0.0106 0.316 0.0106 0.312 0.0106 0.304 0.0106 0.293 0.0106 0.28 0.0106 0.263 0.0106 0.244 0.0106 0.223 0.0106 0.199 0.0106 0.174 0.0106 0.146 0.0106 0.117 0.0106 0.0868 0.0106 0.0552 0.0106 0.0228 0.0106-0.0102 0.0106-0.0435 0.0106-0.0767 0.0106-0.11 0.0106-0.142 0.0106-0.173 0.0106-0.203 0.0106-0.231 0.0106-0.258 0.0106-0.283 0.0106-0.305 0.0106-0.326 0.0106-0.344 0.0106-0.359 0.0106-0.371 0.0106-0.381 0.0106-0.389 0.0106-0.393 0.0106-0.394 0.0106-0.393 0.0106-0.389 0.0106-0.382 0.0106-0.372 0.0106-0.36 0.0106-0.345 0.0106-0.329 0.0106-0.31 0.0106-0.29 0.0106-0.269 0.0106-0.247 0.0106-0.224 0.0106-0.202 0.0106-0.18 0.0106-0.159 0.0106-0.14 0.0106-0.122 0.0106-0.106 0.0106-0.0929 0.0106-0.082 0.0106-0.0735 0.0106-0.0676 0.0106-0.064 0.0106-0.0627 0.0106-0.0634 0.0106-0.0659v-4.8l-0.0106-0.0659-0.0106-0.0634-0.0106-0.0627-0.0106-0.064-0.0106-0.0676-0.0106-0.0735-0.0106-0.082-0.0106-0.0929-0.0106-0.106-0.0106-0.122-0.0106-0.14-0.0106-0.159-0.0106-0.18-0.0106-0.202-0.0106-0.224-0.0106-0.247-0.0106-0.269-0.0106-0.29-0.0106-0.31-0.0106-0.329-0.0106-0.345-0.0106-0.36-0.0106-0.372-0.0106-0.382-0.0106-0.389-0.0106-0.393-0.0106-0.394-0.0106-0.393-0.0106-0.389-0.0106-0.381-0.0106-0.371-0.0106-0.359-0.0106-0.344-0.0106-0.326-0.0106-0.305-0.0106-0.283-0.0106-0.258-0.0106-0.231-0.0106-0.203-0.0106-0.173-0.0106-0.142-0.0106-0.11-0.0106-0.0767-0.0106-0.0435-0.0106-0.0102-0.0106 0.0228-0.0106 0.0552-0.0106 0.0868-0.0106 0.117-0.0106 0.146-0.0106 0.174-0.0106 0.199-0.0106 0.223-0.0106 0.244-0.0106 0.263-0.0106 0.28-0.0106 0.293-0.0106 0.304-0.0106 0.312-0.0106 0.316-0.0106 0.317-0.0106 0.315-0.0106 0.308-0.0106 0.297-0.0106 0.282-0.0106 0.262-0.0106 0.238-0.0106 0.209-0.0106 0.175-0.0106 0.138-0.0106 0.0966-0.0106 0.0518-0.0106 0.00433-0.0106-0.0451-0.0106-0.0955-0.0106-0.146-0.0106-0.195-0.0106-0.242-0.0106-0.285-0.0106-0.324-0.0106-0.356-0.0106-0.381-0.0106-0.399-0.0106-0.407-0.0106-0.406-0.0106-0.395-0.0106-0.375-0.0106-0.345-0.0106-0.305-0.0106-0.257-0.0106-0.202-0.0106-0.141-0.0106-0.0743-0.0106-0.00444-0.0106 0.0673-0.0106 0.139-0.0106 0.21-0.0106 0.278-0.0106 0.341z" clip-path="url(#a)" fill="#1f77b4" fill-opacity=".3"/>
<path d="m203 207v8.56l0.0469 0.317 0.0469 0.326 0.0469 0.335 0.0469 0.342 0.0469 0.349 0.0469 0.353 0.0469 0.356 0.0469 0.357 0.0469 0.357 0.0469 0.354 0.0469 0.349 0.0469 0.342 0.0469 0.333 0.0469 0.323 0.0469 0.31 0.0469 0.297 0.0469 0.282 0.0469 0.267 0.0469 0.251 0.0469 0.235 0.0469 0.219 0.0469 0.203 0.0469 0.188 0.0469 0.174 0.0469 0.16 0.0469 0.147 0.0469 0.134 0.0469 0.121 0.0469 0.109 0.0469 0.0974 0.0469 0.0852 0.0469 0.0727 0.0469 0.0598 0.0469 0.0463 0.0469 0.0322 0.0469 0.0175 0.0469 0.00231 0.0469-0.0134 0.0469-0.0293 0.0469-0.0453 0.0469-0.0613 0.0469-0.0769 0.0469-0.0919 0.0469-0.106 0.0469-0.12 0.0469-0.132 0.0469-0.143 0.0469-0.153 0.0469-0.162 0.0469-0.169 0.0469-0.175 0.0469-0.18 0.0469-0.184 0.0469-0.186 0.0469-0.187 0.0469-0.187 0.0469-0.186 0.0469-0.183 0.0469-0.178 0.0469-0.172 0.0469-0.164 0.0469-0.154 0.0469-0.142 0.0469-0.129 0.0469-0.114 0.0469-0.0974 0.0469-0.0794 0.0469-0.0605 0.0469-0.0409 0.0469-0.0211 0.0469-0.00156 0.0469 0.0172 0.0469 0.0347 0.0469 0.0504 0.0469 0.0638 0.0469 0.0744 0.0469 0.0819 0.0469 0.0858 0.0469 0.0859 0.0469 0.0821 0.0469 0.0742 0.0469 0.0623 0.0469 0.0464 0.0469 0.0269 0.0469 0.00397 0.0469-0.022 0.0469-0.0504 0.0469-0.0808 0.0469-0.113 0.0469-0.145 0.0469-0.178 0.0469-0.21 0.0469-0.241 0.0469-0.27 0.0469-0.297 0.0469-0.321 0.0469-0.342 0.0469-0.359 0.0469-0.373v-12.5l-0.0469-0.373-0.0469-0.359-0.0469-0.342-0.0469-0.321-0.0469-0.297-0.0469-0.27-0.0469-0.241-0.0469-0.21-0.0469-0.178-0.0469-0.145-0.0469-0.113-0.0469-0.0808-0.0469-0.0504-0.0469-0.022-0.0469 0.00397-0.0469 0.0269-0.0469 0.0464-0.0469 0.0623-0.0469 0.0742-0.0469 0.0821-0.0469 0.0859-0.0469 0.0858-0.0469 0.0819-0.0469 0.0744-0.0469 0.0638-0.0469 0.0504-0.0469 0.0347-0.0469 0.0172-0.0469-0.00156-0.0469-0.0211-0.0469-0.0409-0.0469-0.0605-0.0469-0.0794-0.0469-0.0974-0.0469-0.114-0.0469-0.129-0.0469-0.142-0.0469-0.154-0.0469-0.164-0.0469-0.172-0.0469-0.178-0.0469-0.183-0.0469-0.186-0.0469-0.187-0.0469-0.187-0.0469-0.186-0.0469-0.184-0.0469-0.18-0.0469-0.175-0.0469-0.169-0.0469-0.162-0.0469-0.153-0.0469-0.143-0.0469-0.132-0.0469-0.12-0.0469-0.106-0.0469-0.0919-0.0469-0.0769-0.0469-0.0613-0.0469-0.0453-0.0469-0.0293-0.0469-0.0134-0.0469 0.00231-0.0469 0.0175-0.0469 0.0322-0.0469 0.0463-0.0469 0.0598-0.0469 0.0727-0.0469 0.0852-0.0469 0.0974-0.0469 0.109-0.0469 0.121-0.0469 0.134-0.0469 0.147-0.0469 0.16-0.0469 0.174-0.0469 0.188-0.0469 0.203-0.0469 0.219-0.0469 0.235-0.0469 0.251-0.0469 0.267-0.0469 0.282-0.0469 0.297-0.0469 0.31-0.0469 0.323-0.0469 0.333-0.0469 0.342-0.0469 0.349-0.0469 0.354-0.0469 0.357-0.0469 0.357-0.0469 0.356-0.0469 0.353-0.0469 0.349-0.0469 0.342-0.0469 0.335-0.0469 0.326-0.0469 0.317z" clip-path="url(#a)" fill="#1f77b4" fill-opacity=".3"/>
<path d="m223 182v7.71l0.0257 0.203 0.0257 0.191 0.0257 0.177 0.0257 0.161 0.0257 0.143 0.0257 0.125 0.0257 0.106 0.0257 0.086 0.0257 0.0661 0.0257 0.0465 0.0257 0.0278 0.0257 0.0103 0.0257-0.00527 0.0257-0.0184 0.0257-0.0283 0.0257-0.0345 0.0257-0.0364 0.0257-0.0334 0.0257-0.025 0.0257-0.011 0.0257 0.00876 0.0257 0.0343 0.0257 0.0653 0.0257 0.101 0.0257 0.141 0.0257 0.185 0.0257 0.23 0.0257 0.276 0.0257 0.321 0.0257 0.364 0.0257 0.403 0.0257 0.436 0.0257 0.462 0.0257 0.481 0.0257 0.49 0.0257 0.491 0.0257 0.481 0.0257 0.462 0.0257 0.434 0.0257 0.398 0.0257 0.354 0.0257 0.303 0.0257 0.249 0.0257 0.191 0.0257 0.131 0.0257 0.0719 0.0257 0.0142 0.0257-0.0404 0.0257-0.0907 0.0257-0.136 0.0257-0.175 0.0257-0.207 0.0257-0.232 0.0257-0.25 0.0257-0.261 0.0257-0.265 0.0257-0.263 0.0257-0.256 0.0257-0.245 0.0257-0.23 0.0257-0.212 0.0257-0.193 0.0257-0.174 0.0257-0.155 0.0257-0.138 0.0257-0.123 0.0257-0.112 0.0257-0.104 0.0257-0.101 0.0257-0.103 0.0257-0.109 0.0257-0.119 0.0257-0.133 0.0257-0.15 0.0257-0.17 0.0257-0.192 0.0257-0.213 0.0257-0.235 0.0257-0.255 0.0257-0.272 0.0257-0.286 0.0257-0.297 0.0257-0.303 0.0257-0.304 0.0257-0.301 0.0257-0.294 0.0257-0.284 0.0257-0.27 0.0257-0.254 0.0257-0.236 0.0257-0.217 0.0257-0.199 0.0257-0.182 0.0257-0.166 0.0257-0.152 0.0257-0.14 0.0257-0.131 0.0257-0.125 0.0257-0.12v-4.81l-0.0257-0.12-0.0257-0.125-0.0257-0.131-0.0257-0.14-0.0257-0.152-0.0257-0.166-0.0257-0.182-0.0257-0.199-0.0257-0.217-0.0257-0.236-0.0257-0.253-0.0257-0.27-0.0257-0.284-0.0257-0.294-0.0257-0.301-0.0257-0.304-0.0257-0.303-0.0257-0.297-0.0257-0.286-0.0257-0.272-0.0257-0.255-0.0257-0.235-0.0257-0.213-0.0257-0.192-0.0257-0.17-0.0257-0.15-0.0257-0.133-0.0257-0.119-0.0257-0.109-0.0257-0.103-0.0257-0.101-0.0257-0.104-0.0257-0.112-0.0257-0.123-0.0257-0.138-0.0257-0.155-0.0257-0.174-0.0257-0.193-0.0257-0.212-0.0257-0.23-0.0257-0.245-0.0257-0.256-0.0257-0.263-0.0257-0.265-0.0257-0.261-0.0257-0.25-0.0257-0.232-0.0257-0.207-0.0257-0.175-0.0257-0.136-0.0257-0.0907-0.0257-0.0404-0.0257 0.0142-0.0257 0.0719-0.0257 0.131-0.0257 0.191-0.0257 0.249-0.0257 0.303-0.0257 0.354-0.0257 0.398-0.0257 0.434-0.0257 0.462-0.0257 0.481-0.0257 0.491-0.0257 0.49-0.0257 0.481-0.0257 0.462-0.0257 0.436-0.0257 0.403-0.0257 0.364-0.0257 0.321-0.0257 0.276-0.0257 0.23-0.0257 0.185-0.0257 0.141-0.0257 0.101-0.0257 0.0653-0.0257 0.0343-0.0257 0.00876-0.0257-0.011-0.0257-0.025-0.0257-0.0334-0.0257-0.0364-0.0257-0.0345-0.0257-0.0283-0.0257-0.0184-0.0257-0.00527-0.0257 0.0103-0.0257 0.0278-0.0257 0.0465-0.0257 0.0661-0.0257 0.086-0.0257 0.106-0.0257 0.125-0.0257 0.143-0.0257 0.161-0.0257 0.177-0.0257 0.191-0.0257 0.203z" clip-path="url(#a)" fill="#1f77b4" fill-opacity=".3"/>
<path d="m278 158v5.68l0.0565 0.0893 0.0565 0.073 0.0565 0.0562 0.0565 0.0394 0.0565 0.0232 0.0565 8e-3 0.0565-0.00559 0.0565-0.0171 0.0565-0.0261 0.0565-0.0322 0.0565-0.0351 0.0565-0.0346 0.0565-0.0305 0.0565-0.0227 0.0565-0.0114 0.0565 0.00334 0.0565 0.0213 0.0565 0.0422 0.0565 0.0656 0.0565 0.0913 0.0565 0.119 0.0565 0.147 0.0565 0.177 0.0565 0.207 0.0565 0.237 0.0565 0.266 0.0565 0.295 0.0565 0.322 0.0565 0.348 0.0565 0.372 0.0565 0.394 0.0565 0.413 0.0565 0.43 0.0565 0.442 0.0565 0.452 0.0565 0.457 0.0565 0.458 0.0565 0.454 0.0565 0.445 0.0565 0.431 0.0565 0.412 0.0565 0.388 0.0565 0.359 0.0565 0.325 0.0565 0.287 0.0565 0.246 0.0565 0.202 0.0565 0.157 0.0565 0.111 0.0565 0.0664 0.0565 0.0231 0.0565-0.0176 0.0565-0.0548 0.0565-0.0878 0.0565-0.116 0.0565-0.14 0.0565-0.159 0.0565-0.173 0.0565-0.183 0.0565-0.19 0.0565-0.194 0.0565-0.196 0.0565-0.198 0.0565-0.199 0.0565-0.2 0.0565-0.203 0.0565-0.207 0.0565-0.212 0.0565-0.218 0.0565-0.226 0.0565-0.233 0.0565-0.241 0.0565-0.247 0.0565-0.252 0.0565-0.254 0.0565-0.254 0.0565-0.251 0.0565-0.244 0.0565-0.233 0.0565-0.22 0.0565-0.204 0.0565-0.185 0.0565-0.165 0.0565-0.145 0.0565-0.125 0.0565-0.107 0.0565-0.0911 0.0565-0.0783 0.0565-0.0692 0.0565-0.0645 0.0565-0.0643 0.0565-0.0686 0.0565-0.0773 0.0565-0.09 0.0565-0.106 0.0565-0.125 0.0565-0.145 0.0565-0.166 0.0565-0.188v-9.43l-0.0565-0.188-0.0565-0.166-0.0565-0.145-0.0565-0.125-0.0565-0.106-0.0565-0.09-0.0565-0.0773-0.0565-0.0686-0.0565-0.0643-0.0565-0.0645-0.0565-0.0692-0.0565-0.0783-0.0565-0.0911-0.0565-0.107-0.0565-0.125-0.0565-0.145-0.0565-0.165-0.0565-0.185-0.0565-0.204-0.0565-0.22-0.0565-0.233-0.0565-0.244-0.0565-0.251-0.0565-0.254-0.0565-0.254-0.0565-0.252-0.0565-0.247-0.0565-0.241-0.0565-0.233-0.0565-0.226-0.0565-0.218-0.0565-0.212-0.0565-0.207-0.0565-0.203-0.0565-0.2-0.0565-0.199-0.0565-0.198-0.0565-0.196-0.0565-0.194-0.0565-0.19-0.0565-0.183-0.0565-0.173-0.0565-0.159-0.0565-0.14-0.0565-0.116-0.0565-0.0878-0.0565-0.0548-0.0565-0.0176-0.0565 0.0231-0.0565 0.0664-0.0565 0.111-0.0565 0.157-0.0565 0.202-0.0565 0.246-0.0565 0.287-0.0565 0.325-0.0565 0.359-0.0565 0.388-0.0565 0.412-0.0565 0.431-0.0565 0.445-0.0565 0.454-0.0565 0.458-0.0565 0.457-0.0565 0.452-0.0565 0.442-0.0565 0.43-0.0565 0.413-0.0565 0.394-0.0565 0.372-0.0565 0.348-0.0565 0.322-0.0565 0.295-0.0565 0.266-0.0565 0.237-0.0565 0.207-0.0565 0.177-0.0565 0.147-0.0565 0.119-0.0565 0.0913-0.0565 0.0656-0.0565 0.0422-0.0565 0.0213-0.0565 0.00334-0.0565-0.0114-0.0565-0.0227-0.0565-0.0305-0.0565-0.0346-0.0565-0.0351-0.0565-0.0322-0.0565-0.0261-0.0565-0.0171-0.0565-0.00559-0.0565 8e-3 -0.0565 0.0232-0.0565 0.0394-0.0565 0.0562-0.0565 0.073-0.0565 0.0893z" clip-path="url(#a)" fill="#1f77b4" fill-opacity=".3"/>
<path d="m270 131v8.98l0.479 0.354 0.479 0.371 0.479 0.388 0.479 0.404 0.479 0.42 0.479 0.435 0.479 0.448 0.479 0.459 0.479 0.467 0.958 0.939 0.479 0.463 0.479 0.451 0.479 0.432 0.479 0.407 0.479 0.375 0.479 0.337 0.479 0.293 0.479 0.243 0.479 0.189 0.479 0.132 0.479 0.0721 0.479 0.0115 0.479-0.0484 0.479-0.106 0.479-0.161 0.479-0.211 0.479-0.255 0.479-0.293 0.479-0.323 0.479-0.346 0.479-0.362 0.958-0.741 0.479-0.366 0.479-0.355 0.479-0.34 0.479-0.322 0.479-0.3 0.479-0.277 0.479-0.254 0.479-0.229 0.479-0.206 0.479-0.183 0.479-0.16 0.479-0.139 0.479-0.118 0.479-0.0983 0.479-0.0787 0.479-0.0592 0.479-0.0396 0.479-0.0198 0.479 3.68e-4 0.479 0.0208 0.479 0.0414 0.479 0.0617 0.479 0.0814 0.479 0.0998 0.479 0.116 0.479 0.131 0.479 0.142 0.479 0.149 0.958 0.301 0.479 0.143 0.479 0.131 0.479 0.114 0.479 0.0927 0.479 0.0672 0.479 0.0384 0.479 0.00708 0.479-0.0257 0.479-0.0591 0.479-0.0919 0.479-0.123 0.479-0.152 0.479-0.177 0.479-0.199 0.479-0.216 0.479-0.229 0.479-0.237 0.479-0.241 0.479-0.24 0.479-0.235 0.479-0.228 0.479-0.218 0.479-0.206 0.479-0.194 0.479-0.181 0.479-0.169 0.479-0.158 0.479-0.148 0.479-0.141 0.479-0.135 0.479-0.132 0.958-0.262 0.479-0.134 0.479-0.137v-6.52l-0.479-0.137-1.92-0.527-0.479-0.135-0.479-0.141-0.479-0.148-0.479-0.158-0.479-0.169-0.479-0.181-0.479-0.194-0.479-0.206-0.479-0.218-0.479-0.228-0.479-0.235-0.479-0.24-0.479-0.241-0.479-0.237-0.479-0.229-0.479-0.216-0.479-0.199-0.479-0.177-0.479-0.152-0.479-0.123-0.479-0.0919-0.479-0.0591-0.479-0.0257-0.479 0.00708-0.479 0.0384-0.479 0.0672-0.479 0.0927-0.479 0.114-0.479 0.131-0.479 0.143-0.958 0.301-0.479 0.149-0.479 0.142-0.479 0.131-0.479 0.116-0.479 0.0998-0.479 0.0814-0.479 0.0617-0.479 0.0414-0.479 0.0208-0.479 3.68e-4 -0.479-0.0198-0.479-0.0396-0.479-0.0592-0.479-0.0787-0.479-0.0983-0.479-0.118-0.479-0.139-0.479-0.16-0.479-0.183-0.479-0.206-0.479-0.229-0.479-0.254-0.479-0.277-0.479-0.3-0.479-0.322-0.479-0.34-0.479-0.355-0.479-0.366-0.958-0.741-0.479-0.362-0.479-0.346-0.479-0.323-0.479-0.293-0.479-0.255-0.479-0.211-0.479-0.161-0.479-0.106-0.479-0.0484-0.479 0.0115-0.479 0.0721-0.479 0.132-0.479 0.189-0.479 0.243-0.479 0.293-0.479 0.337-0.479 0.375-0.479 0.407-0.479 0.432-0.479 0.451-0.479 0.463-0.958 0.939-0.479 0.467-0.479 0.459-0.479 0.448-0.479 0.435-0.479 0.42-0.479 0.404-0.479 0.388-0.479 0.371-0.479 0.354z" clip-path="url(#a)" fill="#1f77b4" fill-opacity=".3"/>
<path d="m330 109v2.22l4.3-0.0199 4.3-0.0576 17.2-0.436 2.15-0.053 2.15-0.0473 2.15-0.0398 2.15-0.0306 2.15-0.0195 2.15-0.00642 2.15 0.00885 2.15 0.0265 2.15 0.0469 2.15 0.0702 2.15 0.0967 2.15 0.127 2.15 0.16 2.15 0.198 2.15 0.239 2.15 0.283 2.15 0.331 2.15 0.381 2.15 0.433 2.15 0.485 2.15 0.536 2.15 0.585 2.15 0.629 2.15 0.668 2.15 0.699 2.15 0.719 4.3 1.45 2.15 0.706 2.15 0.673 2.15 0.625 2.15 0.562 2.15 0.485 2.15 0.396 2.15 0.296 2.15 0.189 2.15 0.0762 2.15-0.0384 2.15-0.152 2.15-0.262 2.15-0.364 2.15-0.457 2.15-0.538 2.15-0.605 2.15-0.658 2.15-0.696 4.3-1.45 2.15-0.722 2.15-0.704 2.15-0.676 2.15-0.639 2.15-0.595 2.15-0.545 2.15-0.492 2.15-0.437 2.15-0.382 2.15-0.327 2.15-0.273 2.15-0.222 2.15-0.172 2.15-0.125 2.15-0.0808 2.15-0.0389 2.15 6.5e-4 2.15 0.038 2.15 0.0732 2.15 0.106 2.15 0.137 2.15 0.166 2.15 0.192 2.15 0.216 2.15 0.236 2.15 0.253 2.15 0.265 2.15 0.272 4.3 0.546 2.15 0.262 2.15 0.247 2.15 0.225 2.15 0.199 2.15 0.167 2.15 0.13 2.15 0.0905 2.15 0.0482 2.15 0.00454v-9.62l-2.15 0.00454-2.15 0.0482-2.15 0.0905-2.15 0.13-2.15 0.167-2.15 0.199-2.15 0.225-2.15 0.247-8.6 1.08-2.15 0.265-2.15 0.253-2.15 0.236-2.15 0.216-2.15 0.192-2.15 0.166-2.15 0.137-2.15 0.106-2.15 0.0732-2.15 0.038-2.15 6.5e-4 -2.15-0.0389-2.15-0.0808-2.15-0.125-2.15-0.172-2.15-0.222-2.15-0.273-2.15-0.327-2.15-0.382-2.15-0.437-2.15-0.492-2.15-0.545-2.15-0.595-2.15-0.639-2.15-0.676-2.15-0.704-2.15-0.722-4.3-1.45-2.15-0.696-2.15-0.658-2.15-0.605-2.15-0.538-2.15-0.457-2.15-0.364-2.15-0.262-2.15-0.152-2.15-0.0384-2.15 0.0762-2.15 0.189-2.15 0.296-2.15 0.396-2.15 0.485-2.15 0.562-2.15 0.625-2.15 0.673-2.15 0.706-4.3 1.45-2.15 0.719-2.15 0.699-2.15 0.668-2.15 0.629-2.15 0.585-2.15 0.536-2.15 0.485-2.15 0.433-2.15 0.381-2.15 0.331-2.15 0.283-2.15 0.239-2.15 0.198-2.15 0.16-2.15 0.127-2.15 0.0967-2.15 0.0702-2.15 0.0469-2.15 0.0265-2.15 0.00885-2.15-0.00642-2.15-0.0195-2.15-0.0306-2.15-0.0398-2.15-0.0473-2.15-0.053-2.15-0.0571-12.9-0.338-4.3-0.0743-4.3-0.0393-2.15-0.00496z" clip-path="url(#a)" fill="#1f77b4" fill-opacity=".3"/>
<path d="m320 83.1v3.97l2.35 0.0744 2.35 0.0599 2.35 0.0442 2.35 0.0276 2.35 0.0106 2.35-0.00655 2.35-0.0233 2.35-0.0394 2.35-0.0542 4.7-0.146 11.8-0.478 2.35-0.0927 2.35-0.0849 2.35-0.0745 2.35-0.0616 2.35-0.0465 2.35-0.0296 2.35-0.0114 2.35 0.0078 2.35 0.0275 2.35 0.0474 2.35 0.067 2.35 0.0859 2.35 0.104 2.35 0.121 2.35 0.137 2.35 0.151 2.35 0.165 2.35 0.177 2.35 0.189 2.35 0.2 2.35 0.212 2.35 0.223 2.35 0.236 2.35 0.249 2.35 0.263 2.35 0.279 2.35 0.296 2.35 0.314 2.35 0.334 2.35 0.354 2.35 0.374 2.35 0.393 2.35 0.412 2.35 0.428 2.35 0.442 2.35 0.453 2.35 0.459 7.05 1.37 2.35 0.436 2.35 0.416 2.35 0.391 2.35 0.361 2.35 0.326 2.35 0.287 2.35 0.244 2.35 0.198 2.35 0.15 2.35 0.101 2.35 0.0506 2.35 8.16e-4 2.35-0.0482 2.35-0.0957 2.35-0.141 2.35-0.184 2.35-0.225 2.35-0.262 2.35-0.296 2.35-0.326 2.35-0.353 2.35-0.376 2.35-0.394 4.7-0.83 7.05-1.29 2.35-0.427 2.35-0.42 2.35-0.41 2.35-0.398 2.35-0.385 2.35-0.37 2.35-0.354 2.35-0.337 2.35-0.321 2.35-0.305 2.35-0.289 2.35-0.274 2.35-0.261 2.35-0.248 2.35-0.236v-5.46l-2.35-0.236-2.35-0.248-2.35-0.261-2.35-0.274-2.35-0.289-2.35-0.305-2.35-0.321-2.35-0.337-2.35-0.354-2.35-0.37-2.35-0.385-2.35-0.398-2.35-0.41-2.35-0.42-2.35-0.427-9.4-1.71-2.35-0.409-2.35-0.394-2.35-0.376-2.35-0.353-2.35-0.326-2.35-0.296-2.35-0.262-2.35-0.225-2.35-0.184-2.35-0.141-2.35-0.0957-2.35-0.0482-2.35 8.15e-4 -2.35 0.0506-2.35 0.101-2.35 0.15-2.35 0.198-2.35 0.244-2.35 0.287-2.35 0.326-2.35 0.361-2.35 0.391-2.35 0.416-2.35 0.436-9.4 1.83-2.35 0.453-2.35 0.442-2.35 0.428-2.35 0.412-2.35 0.393-2.35 0.374-2.35 0.354-2.35 0.334-2.35 0.314-2.35 0.296-2.35 0.279-2.35 0.263-2.35 0.249-2.35 0.236-2.35 0.223-2.35 0.212-2.35 0.2-2.35 0.189-2.35 0.177-2.35 0.165-2.35 0.151-2.35 0.137-2.35 0.121-2.35 0.104-2.35 0.0859-2.35 0.067-2.35 0.0474-2.35 0.0275-2.35 0.0078-2.35-0.0114-2.35-0.0296-2.35-0.0465-2.35-0.0616-2.35-0.0745-2.35-0.0849-2.35-0.0927-2.35-0.0976-9.4-0.381-4.7-0.146-2.35-0.0542-2.35-0.0394-2.35-0.0233-2.35-0.00655-2.35 0.0106-2.35 0.0276-2.35 0.0442-2.35 0.0599-2.35 0.0744z" clip-path="url(#a)" fill="#1f77b4" fill-opacity=".3"/>
<path d="m147 47.5v24.9l4.09 0.142 4.09-0.205 4.09-0.491 4.09-0.683 4.09-0.769 4.09-0.752 4.09-0.652 4.09-0.502 4.09-0.335 4.09-0.186 4.09-0.0774 8.19-0.0499 4.09-0.0787 4.09-0.167 4.09-0.273 4.09-0.381 4.09-0.474 4.09-0.538 4.09-0.565 4.09-0.549 4.09-0.49 4.09-0.391 4.09-0.261 4.09-0.114 4.09 0.0361 4.09 0.171 4.09 0.275 4.09 0.336 4.09 0.347 4.09 0.307 4.09 0.223 4.09 0.107 4.09-0.0254 4.09-0.158 4.09-0.277 4.09-0.371 4.09-0.435 8.19-0.937 4.09-0.452 4.09-0.418 4.09-0.375 4.09-0.329 4.09-0.284 4.09-0.243 4.09-0.205 4.09-0.172 4.09-0.143 4.09-0.118 4.09-0.0953 4.09-0.0745 4.09-0.0548 4.09-0.0354 4.09-0.0157 4.09 0.00525 4.09 0.0282 4.09 0.0538 4.09 0.0828 4.09 0.115 4.09 0.15 4.09 0.186 4.09 0.22 4.09 0.25 4.09 0.27 8.19 0.546 4.09 0.243 4.09 0.2 4.09 0.145 4.09 0.0827 4.09 0.019 4.09-0.0393 4.09-0.087 16.4-0.551 4.09-0.132 4.09-0.118 4.09-0.103 4.09-0.0894 4.09-0.0779 4.09-0.0681 4.09-0.0593 4.09-0.0506 4.09-0.0413 4.09-0.0313 4.09-0.0209 4.09-0.0112 4.09-0.00352 4.09 3.88e-4 12.3-0.0305 4.09-0.0396 4.09-0.0606 8.19-0.183v-1.96l-8.19-0.183-4.09-0.0606-8.19-0.061-8.19-0.00905-4.09 3.88e-4 -4.09-0.00352-4.09-0.0112-4.09-0.0209-4.09-0.0313-4.09-0.0413-4.09-0.0506-4.09-0.0593-4.09-0.0681-4.09-0.0779-4.09-0.0894-4.09-0.103-4.09-0.118-4.09-0.132-4.09-0.143-8.19-0.287-4.09-0.121-4.09-0.087-4.09-0.0393-4.09 0.019-4.09 0.0827-4.09 0.145-4.09 0.2-4.09 0.242-8.19 0.546-4.09 0.27-4.09 0.25-4.09 0.22-4.09 0.186-4.09 0.15-4.09 0.115-4.09 0.0828-4.09 0.0538-4.09 0.0282-4.09 0.00525-4.09-0.0157-4.09-0.0354-4.09-0.0548-4.09-0.0745-4.09-0.0953-4.09-0.118-4.09-0.143-4.09-0.172-4.09-0.205-4.09-0.243-4.09-0.284-4.09-0.329-4.09-0.375-4.09-0.418-4.09-0.452-8.19-0.937-4.09-0.435-4.09-0.371-4.09-0.277-4.09-0.158-4.09-0.0254-4.09 0.107-4.09 0.223-4.09 0.307-4.09 0.347-4.09 0.336-4.09 0.275-4.09 0.171-4.09 0.0361-4.09-0.114-4.09-0.261-4.09-0.391-4.09-0.49-4.09-0.549-4.09-0.565-4.09-0.538-4.09-0.474-4.09-0.381-4.09-0.273-4.09-0.167-4.09-0.0787-8.19-0.0499-4.09-0.0774-4.09-0.186-4.09-0.335-4.09-0.502-4.09-0.652-4.09-0.752-4.09-0.769-4.09-0.683-4.09-0.491-4.09-0.205-4.09 0.142z" clip-path="url(#a)" fill="#1f77b4" fill-opacity=".3"/>
<path d="m130 362v-327" clip-path="url(#a)" fill="none" stroke="#b0b0b0" stroke-linecap="square" stroke-width=".8"/>
<defs>
<path id="w" d="m0 0v3.5" stroke="#000" stroke-width=".8"/>
</defs>
<use x="130.034571" y="361.921635" stroke="#000000" stroke-width=".8" xlink:href="#w"/>
<defs>
<path id="x" d="m0 0v-3.5" stroke="#000" stroke-width=".8"/>
</defs>
<use x="130.034571" y="34.79649" stroke="#000000" stroke-width=".8" xlink:href="#x"/>
<!-- 0.00× -->
<g transform="translate(115 377) scale(.1 -.1)">
<defs>
<path id="b" transform="scale(.0156)" d="m2034 4250q-487 0-733-480-245-479-245-1442 0-959 245-1439 246-480 733-480 491 0 736 480 246 480 246 1439 0 963-246 1442-245 480-736 480zm0 500q785 0 1199-621 414-620 414-1801 0-1178-414-1799-414-620-1199-620-784 0-1198 620-414 621-414 1799 0 1181 414 1801 414 621 1198 621z"/>
<path id="c" transform="scale(.0156)" d="m684 794h660v-794h-660v794z"/>
<path id="l" transform="scale(.0156)" d="m4488 3438-1429-1435 1429-1428-372-378-1435 1434-1434-1434-369 378 1425 1428-1425 1435 369 378 1434-1435 1435 1435 372-378z"/>
</defs>
<use xlink:href="#b"/>
<use x="63.623047" xlink:href="#c"/>
<use x="95.410156" xlink:href="#b"/>
<use x="159.033203" xlink:href="#b"/>
<use x="222.65625" xlink:href="#l"/>
</g>
<!-- 0.00× -->
<g transform="translate(115 25.7) scale(.1 -.1)">
<use xlink:href="#b"/>
<use x="63.623047" xlink:href="#c"/>
<use x="95.410156" xlink:href="#b"/>
<use x="159.033203" xlink:href="#b"/>
<use x="222.65625" xlink:href="#l"/>
</g>
<path d="m214 362v-327" clip-path="url(#a)" fill="none" stroke="#b0b0b0" stroke-linecap="square" stroke-width=".8"/>
<use x="213.713303" y="361.921635" stroke="#000000" stroke-width=".8" xlink:href="#w"/>
<use x="213.713303" y="34.79649" stroke="#000000" stroke-width=".8" xlink:href="#x"/>
<!-- 5.00× -->
<g transform="translate(198 377) scale(.1 -.1)">
<defs>
<path id="m" transform="scale(.0156)" d="m691 4666h2478v-532h-1900v-1143q137 47 274 70 138 23 276 23 781 0 1237-428 457-428 457-1159 0-753-469-1171-469-417-1322-417-294 0-599 50-304 50-629 150v635q281-153 581-228t634-75q541 0 856 284 316 284 316 772 0 487-316 771-315 285-856 285-253 0-505-56-251-56-513-175v2344z"/>
</defs>
<use xlink:href="#m"/>
<use x="63.623047" xlink:href="#c"/>
<use x="95.410156" xlink:href="#b"/>
<use x="159.033203" xlink:href="#b"/>
<use x="222.65625" xlink:href="#l"/>
</g>
<!-- 5.00× -->
<g transform="translate(198 25.7) scale(.1 -.1)">
<use xlink:href="#m"/>
<use x="63.623047" xlink:href="#c"/>
<use x="95.410156" xlink:href="#b"/>
<use x="159.033203" xlink:href="#b"/>
<use x="222.65625" xlink:href="#l"/>
</g>
<path d="m297 362v-327" clip-path="url(#a)" fill="none" stroke="#b0b0b0" stroke-linecap="square" stroke-width=".8"/>
<use x="297.392034" y="361.921635" stroke="#000000" stroke-width=".8" xlink:href="#w"/>
<use x="297.392034" y="34.79649" stroke="#000000" stroke-width=".8" xlink:href="#x"/>
<!-- 10.00× -->
<g transform="translate(279 377) scale(.1 -.1)">
<defs>
<path id="e" transform="scale(.0156)" d="m794 531h1031v3560l-1122-225v575l1116 225h631v-4135h1031v-531h-2687v531z"/>
</defs>
<use xlink:href="#e"/>
<use x="63.623047" xlink:href="#b"/>
<use x="127.246094" xlink:href="#c"/>
<use x="159.033203" xlink:href="#b"/>
<use x="222.65625" xlink:href="#b"/>
<use x="286.279297" xlink:href="#l"/>
</g>
<!-- 10.00× -->
<g transform="translate(279 25.7) scale(.1 -.1)">
<use xlink:href="#e"/>
<use x="63.623047" xlink:href="#b"/>
<use x="127.246094" xlink:href="#c"/>
<use x="159.033203" xlink:href="#b"/>
<use x="222.65625" xlink:href="#b"/>
<use x="286.279297" xlink:href="#l"/>
</g>
<path d="m381 362v-327" clip-path="url(#a)" fill="none" stroke="#b0b0b0" stroke-linecap="square" stroke-width=".8"/>
<use x="381.070765" y="361.921635" stroke="#000000" stroke-width=".8" xlink:href="#w"/>
<use x="381.070765" y="34.79649" stroke="#000000" stroke-width=".8" xlink:href="#x"/>
<!-- 15.00× -->
<g transform="translate(363 377) scale(.1 -.1)">
<use xlink:href="#e"/>
<use x="63.623047" xlink:href="#m"/>
<use x="127.246094" xlink:href="#c"/>
<use x="159.033203" xlink:href="#b"/>
<use x="222.65625" xlink:href="#b"/>
<use x="286.279297" xlink:href="#l"/>
</g>
<!-- 15.00× -->
<g transform="translate(363 25.7) scale(.1 -.1)">
<use xlink:href="#e"/>
<use x="63.623047" xlink:href="#m"/>
<use x="127.246094" xlink:href="#c"/>
<use x="159.033203" xlink:href="#b"/>
<use x="222.65625" xlink:href="#b"/>
<use x="286.279297" xlink:href="#l"/>
</g>
<path d="m465 362v-327" clip-path="url(#a)" fill="none" stroke="#b0b0b0" stroke-linecap="square" stroke-width=".8"/>
<use x="464.749497" y="361.921635" stroke="#000000" stroke-width=".8" xlink:href="#w"/>
<use x="464.749497" y="34.79649" stroke="#000000" stroke-width=".8" xlink:href="#x"/>
<!-- 20.00× -->
<g transform="translate(446 377) scale(.1 -.1)">
<defs>
<path id="r" transform="scale(.0156)" d="m1228 531h2203v-531h-2962v531q359 372 979 998 621 627 780 809 303 340 423 576 121 236 121 464 0 372-261 606-261 235-680 235-297 0-627-103-329-103-704-313v638q381 153 712 231 332 78 607 78 725 0 1156-363 431-362 431-968 0-288-108-546-107-257-392-607-78-91-497-524-418-433-1181-1211z"/>
</defs>
<use xlink:href="#r"/>
<use x="63.623047" xlink:href="#b"/>
<use x="127.246094" xlink:href="#c"/>
<use x="159.033203" xlink:href="#b"/>
<use x="222.65625" xlink:href="#b"/>
<use x="286.279297" xlink:href="#l"/>
</g>
<!-- 20.00× -->
<g transform="translate(446 25.7) scale(.1 -.1)">
<use xlink:href="#r"/>
<use x="63.623047" xlink:href="#b"/>
<use x="127.246094" xlink:href="#c"/>
<use x="159.033203" xlink:href="#b"/>
<use x="222.65625" xlink:href="#b"/>
<use x="286.279297" xlink:href="#l"/>
</g>
<path d="m548 362v-327" clip-path="url(#a)" fill="none" stroke="#b0b0b0" stroke-linecap="square" stroke-width=".8"/>
<use x="548.428228" y="361.921635" stroke="#000000" stroke-width=".8" xlink:href="#w"/>
<use x="548.428228" y="34.79649" stroke="#000000" stroke-width=".8" xlink:href="#x"/>
<!-- 25.00× -->
<g transform="translate(530 377) scale(.1 -.1)">
<use xlink:href="#r"/>
<use x="63.623047" xlink:href="#m"/>
<use x="127.246094" xlink:href="#c"/>
<use x="159.033203" xlink:href="#b"/>
<use x="222.65625" xlink:href="#b"/>
<use x="286.279297" xlink:href="#l"/>
</g>
<!-- 25.00× -->
<g transform="translate(530 25.7) scale(.1 -.1)">
<use xlink:href="#r"/>
<use x="63.623047" xlink:href="#m"/>
<use x="127.246094" xlink:href="#c"/>
<use x="159.033203" xlink:href="#b"/>
<use x="222.65625" xlink:href="#b"/>
<use x="286.279297" xlink:href="#l"/>
</g>
<path d="m126 337h447" clip-path="url(#a)" fill="none" stroke="#b0b0b0" stroke-linecap="square" stroke-width=".8"/>
<defs>
<path id="k" d="m0 0h-3.5" stroke="#000" stroke-width=".8"/>
</defs>
<use x="126.473678" y="336.758162" stroke="#000000" stroke-width=".8" xlink:href="#k"/>
<!-- python_startup -->
<g transform="translate(43.5 341) scale(.1 -.1)">
<defs>
<path id="h" transform="scale(.0156)" d="m1159 525v-1856h-578v4831h578v-531q182 312 458 463 277 152 661 152 638 0 1036-506 399-506 399-1331t-399-1332q-398-506-1036-506-384 0-661 152-276 152-458 464zm1957 1222q0 634-261 995t-717 361q-457 0-718-361t-261-995 261-995 718-361q456 0 717 361t261 995z"/>
<path id="y" transform="scale(.0156)" d="m2059-325q-243-625-475-815-231-191-618-191h-460v481h338q237 0 368 113 132 112 291 531l103 262-1415 3444h609l1094-2737 1094 2737h609l-1538-3825z"/>
<path id="d" transform="scale(.0156)" d="m1172 4494v-994h1184v-447h-1184v-1900q0-428 117-550t477-122h590v-481h-590q-666 0-919 248-253 249-253 905v1900h-422v447h422v994h578z"/>
<path id="aa" transform="scale(.0156)" d="m3513 2113v-2113h-575v2094q0 497-194 743-194 247-581 247-466 0-735-297-269-296-269-809v-1978h-578v4863h578v-1907q207 316 486 472 280 156 646 156 603 0 912-373 310-373 310-1098z"/>
<path id="f" transform="scale(.0156)" d="m1959 3097q-462 0-731-361t-269-989 267-989q268-361 733-361 460 0 728 362 269 363 269 988 0 622-269 986-268 364-728 364zm0 487q750 0 1178-488 429-487 429-1349 0-859-429-1349-428-489-1178-489-753 0-1180 489-426 490-426 1349 0 862 426 1349 427 488 1180 488z"/>
<path id="p" transform="scale(.0156)" d="m3513 2113v-2113h-575v2094q0 497-194 743-194 247-581 247-466 0-735-297-269-296-269-809v-1978h-578v3500h578v-544q207 316 486 472 280 156 646 156 603 0 912-373 310-373 310-1098z"/>
<path id="i" transform="scale(.0156)" d="m3263-1063v-446h-3326v446h3326z"/>
<path id="j" transform="scale(.0156)" d="m2834 3397v-544q-243 125-506 187-262 63-544 63-428 0-642-131t-214-394q0-200 153-314t616-217l197-44q612-131 870-370t258-667q0-488-386-773-386-284-1061-284-281 0-586 55t-642 164v594q319-166 628-249 309-82 613-82 406 0 624 139 219 139 219 392 0 234-158 359-157 125-692 241l-200 47q-534 112-772 345-237 233-237 639 0 494 350 762 350 269 994 269 318 0 599-47 282-46 519-140z"/>
<path id="q" transform="scale(.0156)" d="m2194 1759q-697 0-966-159t-269-544q0-306 202-486 202-179 548-179 479 0 768 339t289 901v128h-572zm1147 238v-2e3h-575v531q-197-318-491-470t-719-152q-537 0-855 302-317 302-317 808 0 590 395 890 396 300 1180 300h807v57q0 397-261 614t-733 217q-300 0-585-72-284-72-546-216v532q315 122 612 182 297 61 578 61 760 0 1135-394 375-393 375-1193z"/>
<path id="o" transform="scale(.0156)" d="m2631 2963q-97 56-211 82-114 27-251 27-488 0-749-317t-261-911v-1844h-578v3500h578v-544q182 319 472 473 291 155 707 155 59 0 131-8 72-7 159-23l3-590z"/>
<path id="ac" transform="scale(.0156)" d="m544 1381v2119h575v-2097q0-497 193-746 194-248 582-248 465 0 735 297 271 297 271 810v1984h575v-3500h-575v538q-209-319-486-474-276-155-642-155-603 0-916 375-312 375-312 1097zm1447 2203z"/>
</defs>
<use xlink:href="#h"/>
<use x="63.476562" xlink:href="#y"/>
<use x="122.65625" xlink:href="#d"/>
<use x="161.865234" xlink:href="#aa"/>
<use x="225.244141" xlink:href="#f"/>
<use x="286.425781" xlink:href="#p"/>
<use x="349.804688" xlink:href="#i"/>
<use x="399.804688" xlink:href="#j"/>
<use x="451.904297" xlink:href="#d"/>
<use x="491.113281" xlink:href="#q"/>
<use x="552.392578" xlink:href="#o"/>
<use x="593.505859" xlink:href="#d"/>
<use x="632.714844" xlink:href="#ac"/>
<use x="696.09375" xlink:href="#h"/>
</g>
<path d="m126 312h447" clip-path="url(#a)" fill="none" stroke="#b0b0b0" stroke-linecap="square" stroke-width=".8"/>
<use x="126.473678" y="311.59469" stroke="#000000" stroke-width=".8" xlink:href="#k"/>
<!-- python_startup_no_site -->
<g transform="translate(3 315) scale(.1 -.1)">
<defs>
<path id="u" transform="scale(.0156)" d="m603 3500h575v-3500h-575v3500zm0 1363h575v-729h-575v729z"/>
<path id="g" transform="scale(.0156)" d="m3597 1894v-281h-2644q38-594 358-905t892-311q331 0 642 81t618 244v-544q-310-131-635-200t-659-69q-838 0-1327 487-489 488-489 1320 0 859 464 1363 464 505 1252 505 706 0 1117-455 411-454 411-1235zm-575 169q-6 471-264 752-258 282-683 282-481 0-770-272t-333-766l2050 4z"/>
</defs>
<use xlink:href="#h"/>
<use x="63.476562" xlink:href="#y"/>
<use x="122.65625" xlink:href="#d"/>
<use x="161.865234" xlink:href="#aa"/>
<use x="225.244141" xlink:href="#f"/>
<use x="286.425781" xlink:href="#p"/>
<use x="349.804688" xlink:href="#i"/>
<use x="399.804688" xlink:href="#j"/>
<use x="451.904297" xlink:href="#d"/>
<use x="491.113281" xlink:href="#q"/>
<use x="552.392578" xlink:href="#o"/>
<use x="593.505859" xlink:href="#d"/>
<use x="632.714844" xlink:href="#ac"/>
<use x="696.09375" xlink:href="#h"/>
<use x="759.570312" xlink:href="#i"/>
<use x="809.570312" xlink:href="#p"/>
<use x="872.949219" xlink:href="#f"/>
<use x="934.130859" xlink:href="#i"/>
<use x="984.130859" xlink:href="#j"/>
<use x="1036.230469" xlink:href="#u"/>
<use x="1064.013672" xlink:href="#d"/>
<use x="1103.222656" xlink:href="#g"/>
</g>
<path d="m126 286h447" clip-path="url(#a)" fill="none" stroke="#b0b0b0" stroke-linecap="square" stroke-width=".8"/>
<use x="126.473678" y="286.431217" stroke="#000000" stroke-width=".8" xlink:href="#k"/>
<!-- bench_mp_pool -->
<g transform="translate(41.3 290) scale(.1 -.1)">
<defs>
<path id="al" transform="scale(.0156)" d="m3116 1747q0 634-261 995t-717 361q-457 0-718-361t-261-995 261-995 718-361q456 0 717 361t261 995zm-1957 1222q182 312 458 463 277 152 661 152 638 0 1036-506 399-506 399-1331t-399-1332q-398-506-1036-506-384 0-661 152-276 152-458 464v-525h-578v4863h578v-1894z"/>
<path id="v" transform="scale(.0156)" d="m3122 3366v-538q-244 135-489 202t-495 67q-560 0-870-355-309-354-309-995t309-996q310-354 870-354 250 0 495 67t489 202v-532q-241-112-499-168-257-57-548-57-791 0-1257 497-465 497-465 1341 0 856 470 1346 471 491 1290 491 265 0 518-55 253-54 491-163z"/>
<path id="ad" transform="scale(.0156)" d="m3328 2828q216 388 516 572t706 184q547 0 844-383 297-382 297-1088v-2113h-578v2094q0 503-179 746-178 244-543 244-447 0-707-297-259-296-259-809v-1978h-578v2094q0 506-178 748t-550 242q-441 0-701-298-259-298-259-808v-1978h-578v3500h578v-544q197 322 472 475t653 153q382 0 649-194 267-193 395-562z"/>
<path id="z" transform="scale(.0156)" d="m603 4863h575v-4863h-575v4863z"/>
</defs>
<use xlink:href="#al"/>
<use x="63.476562" xlink:href="#g"/>
<use x="125" xlink:href="#p"/>
<use x="188.378906" xlink:href="#v"/>
<use x="243.359375" xlink:href="#aa"/>
<use x="306.738281" xlink:href="#i"/>
<use x="356.738281" xlink:href="#ad"/>
<use x="454.150391" xlink:href="#h"/>
<use x="517.626953" xlink:href="#i"/>
<use x="567.626953" xlink:href="#h"/>
<use x="631.103516" xlink:href="#f"/>
<use x="692.285156" xlink:href="#f"/>
<use x="753.466797" xlink:href="#z"/>
</g>
<path d="m126 261h447" clip-path="url(#a)" fill="none" stroke="#b0b0b0" stroke-linecap="square" stroke-width=".8"/>
<use x="126.473678" y="261.267744" stroke="#000000" stroke-width=".8" xlink:href="#k"/>
<!-- 2to3 -->
<g transform="translate(96.7 265) scale(.1 -.1)">
<defs>
<path id="n" transform="scale(.0156)" d="m2597 2516q453-97 707-404 255-306 255-756 0-690-475-1069-475-378-1350-378-293 0-604 58t-642 174v609q262-153 574-231 313-78 654-78 593 0 904 234t311 681q0 413-289 645-289 233-804 233h-544v519h569q465 0 712 186t247 536q0 359-255 551-254 193-729 193-260 0-557-57-297-56-653-174v562q360 100 674 150t592 50q719 0 1137-327 419-326 419-882 0-388-222-655t-631-370z"/>
</defs>
<use xlink:href="#r"/>
<use x="63.623047" xlink:href="#d"/>
<use x="102.832031" xlink:href="#f"/>
<use x="164.013672" xlink:href="#n"/>
</g>
<path d="m126 236h447" clip-path="url(#a)" fill="none" stroke="#b0b0b0" stroke-linecap="square" stroke-width=".8"/>
<use x="126.473678" y="236.104272" stroke="#000000" stroke-width=".8" xlink:href="#k"/>
<!-- unpickle -->
<g transform="translate(77.5 240) scale(.1 -.1)">
<defs>
<path id="aj" transform="scale(.0156)" d="m581 4863h578v-2872l1716 1509h734l-1856-1637 1935-1863h-750l-1779 1709v-1709h-578v4863z"/>
</defs>
<use xlink:href="#ac"/>
<use x="63.378906" xlink:href="#p"/>
<use x="126.757812" xlink:href="#h"/>
<use x="190.234375" xlink:href="#u"/>
<use x="218.017578" xlink:href="#v"/>
<use x="272.998047" xlink:href="#aj"/>
<use x="330.908203" xlink:href="#z"/>
<use x="358.691406" xlink:href="#g"/>
</g>
<path d="m126 211h447" clip-path="url(#a)" fill="none" stroke="#b0b0b0" stroke-linecap="square" stroke-width=".8"/>
<use x="126.473678" y="210.940799" stroke="#000000" stroke-width=".8" xlink:href="#k"/>
<!-- xml_etree_iterparse -->
<g transform="translate(19.9 215) scale(.1 -.1)">
<defs>
<path id="ap" transform="scale(.0156)" d="m3513 3500-1266-1703 1331-1797h-678l-1019 1375-1018-1375h-679l1360 1831-1244 1669h678l928-1247 928 1247h679z"/>
</defs>
<use xlink:href="#ap"/>
<use x="59.179688" xlink:href="#ad"/>
<use x="156.591797" xlink:href="#z"/>
<use x="184.375" xlink:href="#i"/>
<use x="234.375" xlink:href="#g"/>
<use x="295.898438" xlink:href="#d"/>
<use x="335.107422" xlink:href="#o"/>
<use x="373.970703" xlink:href="#g"/>
<use x="435.494141" xlink:href="#g"/>
<use x="497.017578" xlink:href="#i"/>
<use x="547.017578" xlink:href="#u"/>
<use x="574.800781" xlink:href="#d"/>
<use x="614.009766" xlink:href="#g"/>
<use x="675.533203" xlink:href="#o"/>
<use x="716.646484" xlink:href="#h"/>
<use x="780.123047" xlink:href="#q"/>
<use x="841.402344" xlink:href="#o"/>
<use x="882.515625" xlink:href="#j"/>
<use x="934.615234" xlink:href="#g"/>
</g>
<path d="m126 186h447" clip-path="url(#a)" fill="none" stroke="#b0b0b0" stroke-linecap="square" stroke-width=".8"/>
<use x="126.473678" y="185.777326" stroke="#000000" stroke-width=".8" xlink:href="#k"/>
<!-- dulwich_log -->
<g transform="translate(61 190) scale(.1 -.1)">
<defs>
<path id="ag" transform="scale(.0156)" d="m2906 2969v1894h575v-4863h-575v525q-181-312-458-464-276-152-664-152-634 0-1033 506-398 507-398 1332t398 1331q399 506 1033 506 388 0 664-152 277-151 458-463zm-1959-1222q0-634 261-995t717-361 718 361q263 361 263 995t-263 995q-262 361-718 361t-717-361-261-995z"/>
<path id="ah" transform="scale(.0156)" d="m269 3500h575l719-2731 715 2731h678l719-2731 716 2731h575l-916-3500h-678l-753 2869-756-2869h-679l-915 3500z"/>
<path id="ak" transform="scale(.0156)" d="m2906 1791q0 625-258 968-257 344-723 344-462 0-720-344-258-343-258-968 0-622 258-966t720-344q466 0 723 344 258 344 258 966zm575-1357q0-893-397-1329-396-436-1215-436-303 0-572 45t-522 139v559q253-137 500-202 247-66 503-66 566 0 847 295t281 892v285q-178-310-456-463t-666-153q-643 0-1037 490-394 491-394 1301 0 812 394 1302 394 491 1037 491 388 0 666-153t456-462v531h575v-3066z"/>
</defs>
<use xlink:href="#ag"/>
<use x="63.476562" xlink:href="#ac"/>
<use x="126.855469" xlink:href="#z"/>
<use x="154.638672" xlink:href="#ah"/>
<use x="236.425781" xlink:href="#u"/>
<use x="264.208984" xlink:href="#v"/>
<use x="319.189453" xlink:href="#aa"/>
<use x="382.568359" xlink:href="#i"/>
<use x="432.568359" xlink:href="#z"/>
<use x="460.351562" xlink:href="#f"/>
<use x="521.533203" xlink:href="#ak"/>
</g>
<path d="m126 161h447" clip-path="url(#a)" fill="none" stroke="#b0b0b0" stroke-linecap="square" stroke-width=".8"/>
<use x="126.473678" y="160.613853" stroke="#000000" stroke-width=".8" xlink:href="#k"/>
<!-- tornado_http -->
<g transform="translate(55 164) scale(.1 -.1)">
<use xlink:href="#d"/>
<use x="39.208984" xlink:href="#f"/>
<use x="100.390625" xlink:href="#o"/>
<use x="139.753906" xlink:href="#p"/>
<use x="203.132812" xlink:href="#q"/>
<use x="264.412109" xlink:href="#ag"/>
<use x="327.888672" xlink:href="#f"/>
<use x="389.070312" xlink:href="#i"/>
<use x="439.070312" xlink:href="#aa"/>
<use x="502.449219" xlink:href="#d"/>
<use x="541.658203" xlink:href="#d"/>
<use x="580.867188" xlink:href="#h"/>
</g>
<path d="m126 135h447" clip-path="url(#a)" fill="none" stroke="#b0b0b0" stroke-linecap="square" stroke-width=".8"/>
<use x="126.473678" y="135.450381" stroke="#000000" stroke-width=".8" xlink:href="#k"/>
<!-- pprint_safe_repr -->
<g transform="translate(38.1 139) scale(.1 -.1)">
<defs>
<path id="af" transform="scale(.0156)" d="m2375 4863v-479h-550q-309 0-430-125-120-125-120-450v-309h947v-447h-947v-3053h-578v3053h-550v447h550v244q0 584 272 851 272 268 862 268h544z"/>
</defs>
<use xlink:href="#h"/>
<use x="63.476562" xlink:href="#h"/>
<use x="126.953125" xlink:href="#o"/>
<use x="168.066406" xlink:href="#u"/>
<use x="195.849609" xlink:href="#p"/>
<use x="259.228516" xlink:href="#d"/>
<use x="298.4375" xlink:href="#i"/>
<use x="348.4375" xlink:href="#j"/>
<use x="400.537109" xlink:href="#q"/>
<use x="461.816406" xlink:href="#af"/>
<use x="497.021484" xlink:href="#g"/>
<use x="558.544922" xlink:href="#i"/>
<use x="608.544922" xlink:href="#o"/>
<use x="647.408203" xlink:href="#g"/>
<use x="708.931641" xlink:href="#h"/>
<use x="772.408203" xlink:href="#o"/>
</g>
<path d="m126 110h447" clip-path="url(#a)" fill="none" stroke="#b0b0b0" stroke-linecap="square" stroke-width=".8"/>
<use x="126.473678" y="110.286908" stroke="#000000" stroke-width=".8" xlink:href="#k"/>
<!-- asyncio_websockets -->
<g transform="translate(18.3 114) scale(.1 -.1)">
<use xlink:href="#q"/>
<use x="61.279297" xlink:href="#j"/>
<use x="113.378906" xlink:href="#y"/>
<use x="172.558594" xlink:href="#p"/>
<use x="235.9375" xlink:href="#v"/>
<use x="290.917969" xlink:href="#u"/>
<use x="318.701172" xlink:href="#f"/>
<use x="379.882812" xlink:href="#i"/>
<use x="429.882812" xlink:href="#ah"/>
<use x="511.669922" xlink:href="#g"/>
<use x="573.193359" xlink:href="#al"/>
<use x="636.669922" xlink:href="#j"/>
<use x="688.769531" xlink:href="#f"/>
<use x="749.951172" xlink:href="#v"/>
<use x="804.931641" xlink:href="#aj"/>
<use x="859.216797" xlink:href="#g"/>
<use x="920.740234" xlink:href="#d"/>
<use x="959.949219" xlink:href="#j"/>
</g>
<path d="m126 85.1h447" clip-path="url(#a)" fill="none" stroke="#b0b0b0" stroke-linecap="square" stroke-width=".8"/>
<use x="126.473678" y="85.123435" stroke="#000000" stroke-width=".8" xlink:href="#k"/>
<!-- asyncio_tcp -->
<g transform="translate(60.7 88.9) scale(.1 -.1)">
<use xlink:href="#q"/>
<use x="61.279297" xlink:href="#j"/>
<use x="113.378906" xlink:href="#y"/>
<use x="172.558594" xlink:href="#p"/>
<use x="235.9375" xlink:href="#v"/>
<use x="290.917969" xlink:href="#u"/>
<use x="318.701172" xlink:href="#f"/>
<use x="379.882812" xlink:href="#i"/>
<use x="429.882812" xlink:href="#d"/>
<use x="469.091797" xlink:href="#v"/>
<use x="524.072266" xlink:href="#h"/>
</g>
<path d="m126 60h447" clip-path="url(#a)" fill="none" stroke="#b0b0b0" stroke-linecap="square" stroke-width=".8"/>
<use x="126.473678" y="59.959963" stroke="#000000" stroke-width=".8" xlink:href="#k"/>
<!-- ALL -->
<g transform="translate(101 63.8) scale(.1 -.1)">
<defs>
<path id="ar" transform="scale(.0156)" d="m2188 4044-857-2322h1716l-859 2322zm-357 622h716l1778-4666h-656l-425 1197h-2103l-425-1197h-666l1781 4666z"/>
<path id="am" transform="scale(.0156)" d="m628 4666h631v-4135h2272v-531h-2903v4666z"/>
</defs>
<use xlink:href="#ar"/>
<use x="68.408203" xlink:href="#am"/>
<use x="124.121094" xlink:href="#am"/>
</g>
<path d="m147 362v-327" clip-path="url(#a)" fill="none" stroke="#1f77b4" stroke-linecap="square" stroke-width="1.5"/>
<g fill="none" stroke="#1f77b4" stroke-width="1.5">
<path d="m147 343v-12.6" clip-path="url(#a)"/>
<path d="m147 318v-12.6" clip-path="url(#a)"/>
<path d="m150 293v-12.6" clip-path="url(#a)"/>
<path d="m151 268v-12.6" clip-path="url(#a)"/>
<path d="m193 242v-12.6" clip-path="url(#a)"/>
<path d="m205 217v-12.6" clip-path="url(#a)"/>
<path d="m224 192v-12.6" clip-path="url(#a)"/>
<path d="m281 167v-12.6" clip-path="url(#a)"/>
<path d="m291 142v-12.6" clip-path="url(#a)"/>
<path d="m457 117v-12.6" clip-path="url(#a)"/>
<path d="m465 91.4v-12.6" clip-path="url(#a)"/>
<path d="m246 66.3v-12.6" clip-path="url(#a)"/>
</g>
<g fill="none" stroke="#1f77b4" stroke-width="1.5">
<path d="m147 343v-12.6" clip-path="url(#a)"/>
<path d="m147 318v-12.6" clip-path="url(#a)"/>
<path d="m150 293v-12.6" clip-path="url(#a)"/>
<path d="m151 268v-12.6" clip-path="url(#a)"/>
<path d="m193 242v-12.6" clip-path="url(#a)"/>
<path d="m208 217v-12.6" clip-path="url(#a)"/>
<path d="m226 192v-12.6" clip-path="url(#a)"/>
<path d="m283 167v-12.6" clip-path="url(#a)"/>
<path d="m317 142v-12.6" clip-path="url(#a)"/>
<path d="m543 117v-12.6" clip-path="url(#a)"/>
<path d="m553 91.4v-12.6" clip-path="url(#a)"/>
<path d="m553 66.3v-12.6" clip-path="url(#a)"/>
</g>
<g fill="none" stroke="#1f77b4" stroke-width="1.5">
<path d="m147 343v-12.6" clip-path="url(#a)"/>
<path d="m147 318v-12.6" clip-path="url(#a)"/>
<path d="m150 293v-12.6" clip-path="url(#a)"/>
<path d="m150 268v-12.6" clip-path="url(#a)"/>
<path d="m192 242v-12.6" clip-path="url(#a)"/>
<path d="m203 217v-12.6" clip-path="url(#a)"/>
<path d="m223 192v-12.6" clip-path="url(#a)"/>
<path d="m278 167v-12.6" clip-path="url(#a)"/>
<path d="m270 142v-12.6" clip-path="url(#a)"/>
<path d="m330 117v-12.6" clip-path="url(#a)"/>
<path d="m320 91.4v-12.6" clip-path="url(#a)"/>
<path d="m147 66.3v-12.6" clip-path="url(#a)"/>
</g>
<g fill="none" stroke="#1f77b4" stroke-width="1.5">
<path d="m147 337h0.051" clip-path="url(#a)"/>
<path d="m147 312h0.0272" clip-path="url(#a)"/>
<path d="m150 286h0.729" clip-path="url(#a)"/>
<path d="m150 261h1.1" clip-path="url(#a)"/>
<path d="m192 236h1.05" clip-path="url(#a)"/>
<path d="m203 211h4.64" clip-path="url(#a)"/>
<path d="m223 186h2.55" clip-path="url(#a)"/>
<path d="m278 161h5.59" clip-path="url(#a)"/>
<path d="m270 135h47.4" clip-path="url(#a)"/>
<path d="m330 110h213" clip-path="url(#a)"/>
<path d="m320 85.1h233" clip-path="url(#a)"/>
<path d="m147 60h405" clip-path="url(#a)"/>
</g>
<g fill="none" stroke="#1f77b4" stroke-dasharray="1.5,2.475" stroke-width="1.5">
<path d="m147 343v-12.6" clip-path="url(#a)"/>
<path d="m147 343v-12.6" clip-path="url(#a)"/>
<path d="m147 318v-12.6" clip-path="url(#a)"/>
<path d="m147 318v-12.6" clip-path="url(#a)"/>
<path d="m150 293v-12.6" clip-path="url(#a)"/>
<path d="m150 293v-12.6" clip-path="url(#a)"/>
<path d="m150 268v-12.6" clip-path="url(#a)"/>
<path d="m151 268v-12.6" clip-path="url(#a)"/>
<path d="m192 242v-12.6" clip-path="url(#a)"/>
<path d="m193 242v-12.6" clip-path="url(#a)"/>
<path d="m204 217v-12.6" clip-path="url(#a)"/>
<path d="m207 217v-12.6" clip-path="url(#a)"/>
<path d="m223 192v-12.6" clip-path="url(#a)"/>
<path d="m225 192v-12.6" clip-path="url(#a)"/>
<path d="m278 167v-12.6" clip-path="url(#a)"/>
<path d="m283 167v-12.6" clip-path="url(#a)"/>
<path d="m278 142v-12.6" clip-path="url(#a)"/>
<path d="m307 142v-12.6" clip-path="url(#a)"/>
<path d="m434 117v-12.6" clip-path="url(#a)"/>
<path d="m543 117v-12.6" clip-path="url(#a)"/>
<path d="m401 91.4v-12.6" clip-path="url(#a)"/>
<path d="m518 91.4v-12.6" clip-path="url(#a)"/>
<path d="m147 66.3v-12.6" clip-path="url(#a)"/>
<path d="m437 66.3v-12.6" clip-path="url(#a)"/>
</g>
<path d="m126 362v-327" fill="none" stroke="#000" stroke-linecap="square" stroke-width=".8"/>
<path d="m573 362v-327" fill="none" stroke="#000" stroke-linecap="square" stroke-width=".8"/>
<path d="m126 362h447" fill="none" stroke="#000" stroke-linecap="square" stroke-width=".8"/>
<path d="m126 34.8h447" fill="none" stroke="#000" stroke-linecap="square" stroke-width=".8"/>
<!-- 1.0355 -->
<g transform="translate(147 329) scale(.08 -.08)">
<use xlink:href="#e"/>
<use x="63.623047" xlink:href="#c"/>
<use x="95.410156" xlink:href="#b"/>
<use x="159.033203" xlink:href="#n"/>
<use x="222.65625" xlink:href="#m"/>
<use x="286.279297" xlink:href="#m"/>
</g>
<!-- 1.0385 -->
<g transform="translate(147 304) scale(.08 -.08)">
<defs>
<path id="ae" transform="scale(.0156)" d="m2034 2216q-450 0-708-241-257-241-257-662 0-422 257-663 258-241 708-241t709 242q260 243 260 662 0 421-258 662-257 241-711 241zm-631 268q-406 100-633 378-226 279-226 679 0 559 398 884 399 325 1092 325 697 0 1094-325t397-884q0-400-227-679-226-278-629-378 456-106 710-416 255-309 255-755 0-679-414-1042-414-362-1186-362-771 0-1186 362-414 363-414 1042 0 446 256 755 257 310 713 416zm-231 997q0-362 226-565 227-203 636-203 407 0 636 203 230 203 230 565 0 363-230 566-229 203-636 203-409 0-636-203-226-203-226-566z"/>
</defs>
<use xlink:href="#e"/>
<use x="63.623047" xlink:href="#c"/>
<use x="95.410156" xlink:href="#b"/>
<use x="159.033203" xlink:href="#n"/>
<use x="222.65625" xlink:href="#ae"/>
<use x="286.279297" xlink:href="#m"/>
</g>
<!-- 1.1900 -->
<g transform="translate(150 279) scale(.08 -.08)">
<defs>
<path id="t" transform="scale(.0156)" d="m703 97v575q238-113 481-172 244-59 479-59 625 0 954 420 330 420 377 1277-181-269-460-413-278-144-615-144-700 0-1108 423-408 424-408 1159 0 718 425 1152 425 435 1131 435 810 0 1236-621 427-620 427-1801 0-1103-524-1761-523-658-1407-658-238 0-482 47-243 47-506 141zm1256 1978q425 0 673 290 249 291 249 798 0 503-249 795-248 292-673 292t-673-292-248-795q0-507 248-798 248-290 673-290z"/>
</defs>
<use xlink:href="#e"/>
<use x="63.623047" xlink:href="#c"/>
<use x="95.410156" xlink:href="#e"/>
<use x="159.033203" xlink:href="#t"/>
<use x="222.65625" xlink:href="#b"/>
<use x="286.279297" xlink:href="#b"/>
</g>
<!-- 1.2319 -->
<g transform="translate(151 254) scale(.08 -.08)">
<use xlink:href="#e"/>
<use x="63.623047" xlink:href="#c"/>
<use x="95.410156" xlink:href="#r"/>
<use x="159.033203" xlink:href="#n"/>
<use x="222.65625" xlink:href="#e"/>
<use x="286.279297" xlink:href="#t"/>
</g>
<!-- 3.7362 -->
<g transform="translate(193 229) scale(.08 -.08)">
<defs>
<path id="an" transform="scale(.0156)" d="m525 4666h3e3v-269l-1694-4397h-659l1594 4134h-2241v532z"/>
<path id="s" transform="scale(.0156)" d="m2113 2584q-425 0-674-291-248-290-248-796 0-503 248-796 249-292 674-292t673 292q248 293 248 796 0 506-248 796-248 291-673 291zm1253 1979v-575q-238 112-480 171-242 60-480 60-625 0-955-422-329-422-376-1275 184 272 462 417 279 145 613 145 703 0 1111-427 408-426 408-1160 0-719-425-1154-425-434-1131-434-810 0-1238 620-428 621-428 1799 0 1106 525 1764t1409 658q238 0 480-47t505-140z"/>
</defs>
<use xlink:href="#n"/>
<use x="63.623047" xlink:href="#c"/>
<use x="95.410156" xlink:href="#an"/>
<use x="159.033203" xlink:href="#n"/>
<use x="222.65625" xlink:href="#s"/>
<use x="286.279297" xlink:href="#r"/>
</g>
<!-- 4.4988 -->
<g transform="translate(205 203) scale(.08 -.08)">
<defs>
<path id="ab" transform="scale(.0156)" d="m2419 4116-1594-2491h1594v2491zm-166 550h794v-3041h666v-525h-666v-1100h-628v1100h-2106v609l1940 2957z"/>
</defs>
<use xlink:href="#ab"/>
<use x="63.623047" xlink:href="#c"/>
<use x="95.410156" xlink:href="#ab"/>
<use x="159.033203" xlink:href="#t"/>
<use x="222.65625" xlink:href="#ae"/>
<use x="286.279297" xlink:href="#ae"/>
</g>
<!-- 5.6320 -->
<g transform="translate(224 178) scale(.08 -.08)">
<use xlink:href="#m"/>
<use x="63.623047" xlink:href="#c"/>
<use x="95.410156" xlink:href="#s"/>
<use x="159.033203" xlink:href="#n"/>
<use x="222.65625" xlink:href="#r"/>
<use x="286.279297" xlink:href="#b"/>
</g>
<!-- 9.0105 -->
<g transform="translate(281 153) scale(.08 -.08)">
<use xlink:href="#t"/>
<use x="63.623047" xlink:href="#c"/>
<use x="95.410156" xlink:href="#b"/>
<use x="159.033203" xlink:href="#e"/>
<use x="222.65625" xlink:href="#b"/>
<use x="286.279297" xlink:href="#m"/>
</g>
<!-- 9.6266 -->
<g transform="translate(291 128) scale(.08 -.08)">
<use xlink:href="#t"/>
<use x="63.623047" xlink:href="#c"/>
<use x="95.410156" xlink:href="#s"/>
<use x="159.033203" xlink:href="#r"/>
<use x="222.65625" xlink:href="#s"/>
<use x="286.279297" xlink:href="#s"/>
</g>
<!-- 19.5401 -->
<g transform="translate(457 103) scale(.08 -.08)">
<use xlink:href="#e"/>
<use x="63.623047" xlink:href="#t"/>
<use x="127.246094" xlink:href="#c"/>
<use x="159.033203" xlink:href="#m"/>
<use x="222.65625" xlink:href="#ab"/>
<use x="286.279297" xlink:href="#b"/>
<use x="349.902344" xlink:href="#e"/>
</g>
<!-- 20.0166 -->
<g transform="translate(465 77.6) scale(.08 -.08)">
<use xlink:href="#r"/>
<use x="63.623047" xlink:href="#b"/>
<use x="127.246094" xlink:href="#c"/>
<use x="159.033203" xlink:href="#b"/>
<use x="222.65625" xlink:href="#e"/>
<use x="286.279297" xlink:href="#s"/>
<use x="349.902344" xlink:href="#s"/>
</g>
<!-- 6.9178 -->
<g transform="translate(246 52.4) scale(.08 -.08)">
<use xlink:href="#s"/>
<use x="63.623047" xlink:href="#c"/>
<use x="95.410156" xlink:href="#t"/>
<use x="159.033203" xlink:href="#e"/>
<use x="222.65625" xlink:href="#an"/>
<use x="286.279297" xlink:href="#ae"/>
</g>
<!-- more ⟶ -->
<g transform="translate(157 34.8) scale(.1 -.1)">
<defs>
<path id="as" transform="scale(.0156)" d="m8863 2147v-281l-1229-1228-375 375 729 728h-7622v531h7622l-729 728 375 375 1229-1228z"/>
</defs>
<use xlink:href="#ad"/>
<use x="97.412109" xlink:href="#f"/>
<use x="158.59375" xlink:href="#o"/>
<use x="197.457031" xlink:href="#g"/>
<use x="258.980469" xlink:href="#DejaVuSans-20"/>
<use x="290.767578" xlink:href="#as"/>
</g>
<!-- ⟵ less -->
<g transform="translate(99.9 34.8) scale(.1 -.1)">
<defs>
<path id="at" transform="scale(.0156)" d="m313 1866v281l1228 1228 375-375-728-728h7621v-531h-7621l728-728-375-375-1228 1228z"/>
</defs>
<use xlink:href="#at"/>
<use x="143.359375" xlink:href="#DejaVuSans-20"/>
<use x="175.146484" xlink:href="#z"/>
<use x="202.929688" xlink:href="#g"/>
<use x="264.453125" xlink:href="#j"/>
<use x="316.552734" xlink:href="#j"/>
</g>
<!-- Memory usage of python-v3.13.0a4-9d34f60 vs. 3.13.0a4 -->
<g transform="translate(176 12.1) scale(.12 -.12)">
<defs>
<path id="aq" transform="scale(.0156)" d="m628 4666h941l1190-3175 1197 3175h941v-4666h-616v4097l-1203-3200h-634l-1203 3200v-4097h-613v4666z"/>
<path id="ao" transform="scale(.0156)" d="m313 2009h1684v-512h-1684v512z"/>
<path id="ai" transform="scale(.0156)" d="m191 3500h609l1094-2937 1094 2937h609l-1313-3500h-781l-1312 3500z"/>
</defs>
<use xlink:href="#aq"/>
<use x="86.279297" xlink:href="#g"/>
<use x="147.802734" xlink:href="#ad"/>
<use x="245.214844" xlink:href="#f"/>
<use x="306.396484" xlink:href="#o"/>
<use x="347.509766" xlink:href="#y"/>
<use x="406.689453" xlink:href="#DejaVuSans-20"/>
<use x="438.476562" xlink:href="#ac"/>
<use x="501.855469" xlink:href="#j"/>
<use x="553.955078" xlink:href="#q"/>
<use x="615.234375" xlink:href="#ak"/>
<use x="678.710938" xlink:href="#g"/>
<use x="740.234375" xlink:href="#DejaVuSans-20"/>
<use x="772.021484" xlink:href="#f"/>
<use x="833.203125" xlink:href="#af"/>
<use x="868.408203" xlink:href="#DejaVuSans-20"/>
<use x="900.195312" xlink:href="#h"/>
<use x="963.671875" xlink:href="#y"/>
<use x="1022.851562" xlink:href="#d"/>
<use x="1062.060547" xlink:href="#aa"/>
<use x="1125.439453" xlink:href="#f"/>
<use x="1186.621094" xlink:href="#p"/>
<use x="1250" xlink:href="#ao"/>
<use x="1283.458984" xlink:href="#ai"/>
<use x="1342.638672" xlink:href="#n"/>
<use x="1406.261719" xlink:href="#c"/>
<use x="1438.048828" xlink:href="#e"/>
<use x="1501.671875" xlink:href="#n"/>
<use x="1565.294922" xlink:href="#c"/>
<use x="1597.082031" xlink:href="#b"/>
<use x="1660.705078" xlink:href="#q"/>
<use x="1721.984375" xlink:href="#ab"/>
<use x="1785.607422" xlink:href="#ao"/>
<use x="1821.691406" xlink:href="#t"/>
<use x="1885.314453" xlink:href="#ag"/>
<use x="1948.791016" xlink:href="#n"/>
<use x="2012.414062" xlink:href="#ab"/>
<use x="2076.037109" xlink:href="#af"/>
<use x="2111.242188" xlink:href="#s"/>
<use x="2174.865234" xlink:href="#b"/>
<use x="2238.488281" xlink:href="#DejaVuSans-20"/>
<use x="2270.275391" xlink:href="#ai"/>
<use x="2329.455078" xlink:href="#j"/>
<use x="2381.554688" xlink:href="#c"/>
<use x="2413.341797" xlink:href="#DejaVuSans-20"/>
<use x="2445.128906" xlink:href="#n"/>
<use x="2508.751953" xlink:href="#c"/>
<use x="2540.539062" xlink:href="#e"/>
<use x="2604.162109" xlink:href="#n"/>
<use x="2667.785156" xlink:href="#c"/>
<use x="2699.572266" xlink:href="#b"/>
<use x="2763.195312" xlink:href="#q"/>
<use x="2824.474609" xlink:href="#ab"/>
</g>
<defs>
<clipPath id="a">
<rect x="126" y="34.8" width="447" height="327"/>
</clipPath>
</defs>
</svg>
