<?xml version="1.0" encoding="UTF-8"?>
<!DOCTYPE svg  PUBLIC '-//W3C//DTD SVG 1.1//EN'  'http://www.w3.org/Graphics/SVG/1.1/DTD/svg11.dtd'>
<svg width="576pt" height="209pt" version="1.1" viewBox="0 0 576 209" xmlns="http://www.w3.org/2000/svg" xmlns:xlink="http://www.w3.org/1999/xlink">
<defs>
<style type="text/css">*{stroke-linejoin: round; stroke-linecap: butt}</style>
</defs>
<path d="m0 209h576v-209h-576z" fill="#fff"/>
<path d="m86 189h487v-154h-487z" fill="#fff"/>
<path d="m113 157v1.89l0.0129-0.00713 0.0129-0.0211 0.0129-0.0341 0.0129-0.0456 0.0129-0.0552 0.0129-0.0625 0.0129-0.0674 0.0129-0.0699 0.0129-0.0701 0.0129-0.0682 0.0129-0.0646 0.0129-0.0595 0.0129-0.0534 0.0129-0.0466 0.0129-0.0394 0.0129-0.0319 0.0129-0.0245 0.0129-0.0171 0.0129-0.0098 0.0129-0.00256 0.0129 0.00465 0.0129 0.0119 0.0129 0.0192 0.0129 0.0266 0.0129 0.0341 0.0129 0.0415 0.0129 0.0486 0.0129 0.0553 0.0129 0.0611 0.0129 0.0658 0.0129 0.069 0.0129 0.0703 0.0129 0.0694 0.0129 0.0663 0.0129 0.0606 0.0129 0.0526 0.0129 0.0425 0.0129 0.0305 0.0129 0.0171 0.0129 0.00306 0.0129-0.0111 0.0129-0.0248 0.0129-0.0373 0.0129-0.0482 0.0129-0.0569 0.0129-0.0631 0.0129-0.0666 0.0129-0.0674 0.0129-0.0654 0.0129-0.0606 0.0129-0.0531 0.0129-0.0427 0.0129-0.0293 0.0129-0.0125 0.0129 0.00824 0.0129 0.0336 0.0129 0.0646 0.0129 0.102 0.0129 0.148 0.0129 0.202 0.0129 0.266 0.0129 0.339 0.0129 0.423 0.0129 0.515 0.0129 0.615 0.0129 0.718 0.0129 0.822 0.0129 0.921 0.0129 1.01 0.0129 1.08 0.0129 1.13 0.0129 1.14 0.0129 1.13 0.0129 1.08 0.0129 0.984 0.0129 0.855 0.0129 0.691 0.0129 0.5 0.0129 0.288 0.0129 0.0655 0.0129-0.158 0.0129-0.371 0.0129-0.565 0.0129-0.731 0.0129-0.863 0.0129-0.958 0.0129-1.01 0.0129-1.03 0.0129-1.02 0.0129-0.973 0.0129-0.906 0.0129-0.825 0.0129-0.734 0.0129-0.641 0.0129-0.551 0.0129-0.469 0.0129-0.396 0.0129-0.335 0.0129-0.286v-5.22l-0.0129-0.286-0.0129-0.335-0.0129-0.396-0.0129-0.469-0.0129-0.551-0.0129-0.641-0.0129-0.734-0.0129-0.825-0.0129-0.906-0.0129-0.973-0.0129-1.02-0.0129-1.03-0.0129-1.01-0.0129-0.958-0.0129-0.863-0.0129-0.731-0.0129-0.565-0.0129-0.371-0.0129-0.158-0.0129 0.0655-0.0129 0.288-0.0129 0.5-0.0129 0.691-0.0129 0.855-0.0129 0.984-0.0129 1.08-0.0129 1.13-0.0129 1.14-0.0129 1.13-0.0129 1.08-0.0129 1.01-0.0129 0.921-0.0129 0.822-0.0129 0.718-0.0129 0.615-0.0129 0.515-0.0129 0.423-0.0129 0.339-0.0129 0.266-0.0129 0.202-0.0129 0.148-0.0129 0.102-0.0129 0.0646-0.0129 0.0336-0.0129 0.00824-0.0129-0.0125-0.0129-0.0293-0.0129-0.0427-0.0129-0.0531-0.0129-0.0606-0.0129-0.0654-0.0129-0.0674-0.0129-0.0666-0.0129-0.0631-0.0129-0.0569-0.0129-0.0482-0.0129-0.0373-0.0129-0.0248-0.0129-0.0111-0.0129 0.00306-0.0129 0.0171-0.0129 0.0305-0.0129 0.0425-0.0129 0.0526-0.0129 0.0606-0.0129 0.0663-0.0129 0.0694-0.0129 0.0703-0.0129 0.069-0.0129 0.0658-0.0129 0.0611-0.0129 0.0553-0.0129 0.0486-0.0129 0.0415-0.0129 0.0341-0.0129 0.0266-0.0129 0.0192-0.0129 0.0119-0.0129 0.00465-0.0129-0.00256-0.0129-0.0098-0.0129-0.0171-0.0129-0.0245-0.0129-0.0319-0.0129-0.0394-0.0129-0.0466-0.0129-0.0534-0.0129-0.0595-0.0129-0.0646-0.0129-0.0682-0.0129-0.0701-0.0129-0.0699-0.0129-0.0674-0.0129-0.0625-0.0129-0.0552-0.0129-0.0456-0.0129-0.0341-0.0129-0.0211-0.0129-0.00713z" clip-path="url(#a)" fill="#1f77b4" fill-opacity=".3"/>
<path d="m142 126v3.54l0.095 0.245 0.095 0.264 0.095 0.285 0.095 0.306 0.095 0.327 0.095 0.348 0.095 0.369 0.095 0.389 0.095 0.408 0.095 0.425 0.095 0.44 0.095 0.452 0.095 0.46 0.095 0.464 0.095 0.465 0.095 0.462 0.095 0.456 0.095 0.448 0.095 0.439 0.095 0.428 0.095 0.418 0.095 0.409 0.095 0.4 0.095 0.393 0.095 0.386 0.095 0.38 0.095 0.373 0.095 0.365 0.095 0.356 0.095 0.343 0.095 0.327 0.095 0.307 0.095 0.283 0.095 0.256 0.095 0.225 0.095 0.191 0.095 0.154 0.095 0.114 0.095 0.0731 0.095 0.0303 0.095-0.0139 0.095-0.0592 0.095-0.105 0.095-0.152 0.095-0.198 0.095-0.244 0.095-0.288 0.095-0.33 0.095-0.368 0.095-0.401 0.095-0.428 0.095-0.449 0.095-0.462 0.095-0.469 0.095-0.47 0.095-0.465 0.095-0.457 0.095-0.445 0.095-0.432 0.095-0.419 0.095-0.407 0.095-0.398 0.095-0.391 0.095-0.387 0.095-0.385 0.095-0.385 0.19-0.772 0.095-0.385 0.095-0.383 0.095-0.377 0.095-0.369 0.095-0.357 0.095-0.342 0.095-0.323 0.095-0.302 0.095-0.279 0.095-0.255 0.095-0.229 0.095-0.204 0.095-0.178 0.095-0.154 0.095-0.131 0.095-0.109 0.095-0.0888 0.095-0.0709 0.095-0.0553 0.095-0.0421 0.095-0.0315 0.095-0.0234 0.095-0.0178 0.095-0.0148 0.095-0.0142 0.095-0.0157 0.095-0.019 0.095-0.0237 0.095-0.0294 0.095-0.0356 0.095-0.0417v-1.5l-0.095-0.0417-0.095-0.0356-0.095-0.0294-0.095-0.0237-0.095-0.019-0.095-0.0157-0.095-0.0142-0.095-0.0148-0.095-0.0178-0.095-0.0234-0.095-0.0315-0.095-0.0421-0.095-0.0553-0.095-0.0709-0.095-0.0888-0.095-0.109-0.095-0.131-0.095-0.154-0.095-0.178-0.095-0.204-0.095-0.229-0.095-0.255-0.095-0.279-0.095-0.302-0.095-0.323-0.095-0.342-0.095-0.357-0.095-0.369-0.095-0.377-0.095-0.383-0.095-0.385-0.19-0.772-0.095-0.385-0.095-0.385-0.095-0.387-0.095-0.391-0.095-0.398-0.095-0.407-0.095-0.419-0.095-0.432-0.095-0.445-0.095-0.457-0.095-0.465-0.095-0.47-0.095-0.469-0.095-0.462-0.095-0.449-0.095-0.428-0.095-0.401-0.095-0.368-0.095-0.33-0.095-0.288-0.095-0.244-0.095-0.198-0.095-0.152-0.095-0.105-0.095-0.0592-0.095-0.0139-0.095 0.0303-0.095 0.0731-0.095 0.114-0.095 0.154-0.095 0.191-0.095 0.225-0.095 0.256-0.095 0.283-0.095 0.307-0.095 0.327-0.095 0.343-0.095 0.356-0.095 0.365-0.095 0.373-0.095 0.38-0.095 0.386-0.095 0.393-0.095 0.4-0.095 0.409-0.095 0.418-0.095 0.428-0.095 0.439-0.095 0.448-0.095 0.456-0.095 0.462-0.095 0.465-0.095 0.464-0.095 0.46-0.095 0.452-0.095 0.44-0.095 0.425-0.095 0.408-0.095 0.389-0.095 0.369-0.095 0.348-0.095 0.327-0.095 0.306-0.095 0.285-0.095 0.264-0.095 0.245z" clip-path="url(#a)" fill="#1f77b4" fill-opacity=".3"/>
<path d="m536 90.2v12.6l0.15 0.601 0.15 0.621 0.15 0.638 0.15 0.649 0.15 0.654 0.15 0.652 0.15 0.643 0.15 0.626 0.15 0.602 0.15 0.571 0.15 0.533 0.15 0.488 0.15 0.437 0.15 0.382 0.15 0.324 0.15 0.264 0.15 0.203 0.15 0.142 0.15 0.084 0.15 0.0285 0.15-0.0228 0.15-0.0694 0.15-0.11 0.15-0.146 0.15-0.175 0.15-0.198 0.15-0.216 0.15-0.229 0.15-0.236 0.3-0.481 0.15-0.239 0.15-0.235 0.15-0.229 0.15-0.224 0.15-0.218 0.15-0.213 0.15-0.21 0.15-0.207 0.3-0.413 0.15-0.209 0.15-0.212 0.15-0.217 0.15-0.221 0.15-0.226 0.15-0.231 0.15-0.234 0.3-0.472 0.15-0.233 0.15-0.229 0.15-0.221 0.15-0.212 0.15-0.199 0.15-0.186 0.15-0.17 0.15-0.154 0.15-0.138 0.15-0.122 0.15-0.109 0.15-0.0969 0.15-0.088 0.15-0.0827 0.15-0.0811 0.15-0.0835 0.15-0.09 0.15-0.1 0.15-0.114 0.15-0.131 0.15-0.15 0.15-0.17 0.15-0.19 0.15-0.21 0.15-0.229 0.15-0.244 0.15-0.257 0.15-0.265 0.15-0.269 0.15-0.269 0.15-0.263 0.15-0.254 0.15-0.24 0.15-0.222 0.15-0.202 0.15-0.179 0.15-0.156 0.15-0.132 0.15-0.109 0.15-0.0882 0.15-0.0694 0.15-0.0535 0.15-0.0411 0.15-0.0323 0.15-0.0272 0.15-0.0257 0.15-0.0276 0.15-0.0323 0.15-0.0395v-4.1l-0.15-0.0395-0.15-0.0323-0.15-0.0276-0.15-0.0257-0.15-0.0272-0.15-0.0323-0.15-0.0411-0.15-0.0535-0.15-0.0694-0.15-0.0882-0.15-0.109-0.15-0.132-0.15-0.156-0.15-0.179-0.15-0.202-0.15-0.222-0.15-0.24-0.15-0.254-0.15-0.263-0.15-0.269-0.15-0.269-0.15-0.265-0.15-0.257-0.15-0.244-0.15-0.229-0.15-0.21-0.15-0.19-0.15-0.17-0.15-0.15-0.15-0.131-0.15-0.114-0.15-0.1-0.15-0.09-0.15-0.0835-0.15-0.0811-0.15-0.0827-0.15-0.088-0.15-0.0969-0.15-0.109-0.15-0.122-0.15-0.138-0.15-0.154-0.15-0.17-0.15-0.186-0.15-0.199-0.15-0.212-0.15-0.221-0.15-0.229-0.15-0.233-0.3-0.472-0.15-0.234-0.15-0.231-0.15-0.226-0.15-0.221-0.15-0.217-0.15-0.212-0.15-0.209-0.3-0.413-0.15-0.207-0.15-0.21-0.15-0.213-0.15-0.218-0.15-0.224-0.15-0.229-0.15-0.235-0.15-0.239-0.3-0.481-0.15-0.236-0.15-0.229-0.15-0.216-0.15-0.198-0.15-0.175-0.15-0.146-0.15-0.11-0.15-0.0694-0.15-0.0228-0.15 0.0285-0.15 0.084-0.15 0.142-0.15 0.203-0.15 0.264-0.15 0.324-0.15 0.382-0.15 0.437-0.15 0.488-0.15 0.533-0.15 0.571-0.15 0.602-0.15 0.626-0.15 0.643-0.15 0.652-0.15 0.654-0.15 0.649-0.15 0.638-0.15 0.621-0.15 0.601z" clip-path="url(#a)" fill="#f00" fill-opacity=".3"/>
<path d="m113 51v29.3l4.42 0.366 4.42 0.257 4.42 0.143 4.42 0.0251 4.42-0.0931 4.42-0.209 4.42-0.321 4.42-0.425 4.42-0.52 4.42-0.603 4.42-0.674 4.42-0.732 4.42-0.775 13.3-2.45 4.42-0.811 4.42-0.79 4.42-0.76 4.42-0.721 4.42-0.677 4.42-0.628 4.42-0.576 4.42-0.523 4.42-0.47 4.42-0.418 4.42-0.368 4.42-0.321 4.42-0.277 4.42-0.237 4.42-0.2 4.42-0.168 4.42-0.14 4.42-0.115 4.42-0.0937 4.42-0.0757 4.42-0.0606 4.42-0.0481 4.42-0.0378 4.42-0.0294 4.42-0.0227 4.42-0.0174 4.42-0.0132 4.42-0.00988 8.84-0.0127 26.5-0.0109 22.1 0.00605 8.84 0.0083 4.42 0.00652 4.42 0.00873 4.42 0.0116 4.42 0.0152 4.42 0.0198 4.42 0.0254 4.42 0.0324 4.42 0.041 4.42 0.0513 4.42 0.0635 4.42 0.0779 4.42 0.0946 4.42 0.114 4.42 0.135 4.42 0.159 4.42 0.186 4.42 0.214 4.42 0.244 4.42 0.276 4.42 0.308 4.42 0.34 4.42 0.37 4.42 0.399 4.42 0.424 4.42 0.444 4.42 0.459 17.7 1.84 4.42 0.42 4.42 0.385 4.42 0.342 4.42 0.291 4.42 0.233 4.42 0.168 4.42 0.1 4.42 0.0292 4.42-0.0425 4.42-0.113v-16.4l-4.42-0.113-4.42-0.0425-4.42 0.0292-4.42 0.1-4.42 0.168-4.42 0.233-4.42 0.291-4.42 0.342-4.42 0.385-4.42 0.42-22.1 2.3-4.42 0.444-4.42 0.424-4.42 0.399-4.42 0.37-4.42 0.34-4.42 0.308-4.42 0.276-4.42 0.244-4.42 0.214-4.42 0.186-4.42 0.159-4.42 0.135-4.42 0.114-4.42 0.0946-4.42 0.0779-4.42 0.0635-4.42 0.0513-4.42 0.041-4.42 0.0324-4.42 0.0254-4.42 0.0198-4.42 0.0152-4.42 0.0116-4.42 0.00873-13.3 0.0148-22.1 0.00605-22.1-0.00696-8.84-0.00931-4.42-0.00735-4.42-0.00988-4.42-0.0132-4.42-0.0174-4.42-0.0227-4.42-0.0294-4.42-0.0378-4.42-0.0481-4.42-0.0606-4.42-0.0757-4.42-0.0937-4.42-0.115-4.42-0.14-4.42-0.168-4.42-0.2-4.42-0.237-4.42-0.277-4.42-0.321-4.42-0.368-4.42-0.418-4.42-0.47-4.42-0.523-4.42-0.576-4.42-0.628-4.42-0.677-4.42-0.721-4.42-0.76-4.42-0.79-4.42-0.811-13.3-2.45-4.42-0.775-4.42-0.732-4.42-0.674-4.42-0.603-4.42-0.52-4.42-0.425-4.42-0.321-4.42-0.209-4.42-0.0931-4.42 0.0251-4.42 0.143-4.42 0.257-4.42 0.366z" clip-path="url(#a)" fill="#1f77b4" fill-opacity=".3"/>
<path d="m108 189v-154" clip-path="url(#a)" fill="none" stroke="#b0b0b0" stroke-linecap="square" stroke-width=".8"/>
<defs>
<path id="k" d="m0 0v3.5" stroke="#000" stroke-width=".8"/>
</defs>
<use x="108.09482" y="189.121635" stroke="#000000" stroke-width=".8" xlink:href="#k"/>
<defs>
<path id="j" d="m0 0v-3.5" stroke="#000" stroke-width=".8"/>
</defs>
<use x="108.09482" y="34.79649" stroke="#000000" stroke-width=".8" xlink:href="#j"/>
<g transform="translate(92.8 204) scale(.1 -.1)">
<defs>
<path id="f" transform="scale(.0156)" d="m794 531h1031v3560l-1122-225v575l1116 225h631v-4135h1031v-531h-2687v531z"/>
<path id="c" transform="scale(.0156)" d="m684 794h660v-794h-660v794z"/>
<path id="b" transform="scale(.0156)" d="m2034 4250q-487 0-733-480-245-479-245-1442 0-959 245-1439 246-480 733-480 491 0 736 480 246 480 246 1439 0 963-246 1442-245 480-736 480zm0 500q785 0 1199-621 414-620 414-1801 0-1178-414-1799-414-620-1199-620-784 0-1198 620-414 621-414 1799 0 1181 414 1801 414 621 1198 621z"/>
<path id="d" transform="scale(.0156)" d="m4488 3438-1429-1435 1429-1428-372-378-1435 1434-1434-1434-369 378 1425 1428-1425 1435 369 378 1434-1435 1435 1435 372-378z"/>
</defs>
<use xlink:href="#f"/>
<use x="63.623047" xlink:href="#c"/>
<use x="95.410156" xlink:href="#b"/>
<use x="159.033203" xlink:href="#b"/>
<use x="222.65625" xlink:href="#d"/>
</g>
<g transform="translate(92.8 25.7) scale(.1 -.1)">
<use xlink:href="#f"/>
<use x="63.623047" xlink:href="#c"/>
<use x="95.410156" xlink:href="#b"/>
<use x="159.033203" xlink:href="#b"/>
<use x="222.65625" xlink:href="#d"/>
</g>
<path d="m191 189v-154" clip-path="url(#a)" fill="none" stroke="#b0b0b0" stroke-linecap="square" stroke-width=".8"/>
<use x="191.11356" y="189.121635" stroke="#000000" stroke-width=".8" xlink:href="#k"/>
<use x="191.11356" y="34.79649" stroke="#000000" stroke-width=".8" xlink:href="#j"/>
<g transform="translate(176 204) scale(.1 -.1)">
<defs>
<path id="h" transform="scale(.0156)" d="m691 4666h2478v-532h-1900v-1143q137 47 274 70 138 23 276 23 781 0 1237-428 457-428 457-1159 0-753-469-1171-469-417-1322-417-294 0-599 50-304 50-629 150v635q281-153 581-228t634-75q541 0 856 284 316 284 316 772 0 487-316 771-315 285-856 285-253 0-505-56-251-56-513-175v2344z"/>
</defs>
<use xlink:href="#f"/>
<use x="63.623047" xlink:href="#c"/>
<use x="95.410156" xlink:href="#h"/>
<use x="159.033203" xlink:href="#b"/>
<use x="222.65625" xlink:href="#d"/>
</g>
<g transform="translate(176 25.7) scale(.1 -.1)">
<use xlink:href="#f"/>
<use x="63.623047" xlink:href="#c"/>
<use x="95.410156" xlink:href="#h"/>
<use x="159.033203" xlink:href="#b"/>
<use x="222.65625" xlink:href="#d"/>
</g>
<path d="m274 189v-154" clip-path="url(#a)" fill="none" stroke="#b0b0b0" stroke-linecap="square" stroke-width=".8"/>
<use x="274.132299" y="189.121635" stroke="#000000" stroke-width=".8" xlink:href="#k"/>
<use x="274.132299" y="34.79649" stroke="#000000" stroke-width=".8" xlink:href="#j"/>
<g transform="translate(259 204) scale(.1 -.1)">
<defs>
<path id="i" transform="scale(.0156)" d="m1228 531h2203v-531h-2962v531q359 372 979 998 621 627 780 809 303 340 423 576 121 236 121 464 0 372-261 606-261 235-680 235-297 0-627-103-329-103-704-313v638q381 153 712 231 332 78 607 78 725 0 1156-363 431-362 431-968 0-288-108-546-107-257-392-607-78-91-497-524-418-433-1181-1211z"/>
</defs>
<use xlink:href="#i"/>
<use x="63.623047" xlink:href="#c"/>
<use x="95.410156" xlink:href="#b"/>
<use x="159.033203" xlink:href="#b"/>
<use x="222.65625" xlink:href="#d"/>
</g>
<g transform="translate(259 25.7) scale(.1 -.1)">
<use xlink:href="#i"/>
<use x="63.623047" xlink:href="#c"/>
<use x="95.410156" xlink:href="#b"/>
<use x="159.033203" xlink:href="#b"/>
<use x="222.65625" xlink:href="#d"/>
</g>
<path d="m357 189v-154" clip-path="url(#a)" fill="none" stroke="#b0b0b0" stroke-linecap="square" stroke-width=".8"/>
<use x="357.151038" y="189.121635" stroke="#000000" stroke-width=".8" xlink:href="#k"/>
<use x="357.151038" y="34.79649" stroke="#000000" stroke-width=".8" xlink:href="#j"/>
<g transform="translate(342 204) scale(.1 -.1)">
<use xlink:href="#i"/>
<use x="63.623047" xlink:href="#c"/>
<use x="95.410156" xlink:href="#h"/>
<use x="159.033203" xlink:href="#b"/>
<use x="222.65625" xlink:href="#d"/>
</g>
<g transform="translate(342 25.7) scale(.1 -.1)">
<use xlink:href="#i"/>
<use x="63.623047" xlink:href="#c"/>
<use x="95.410156" xlink:href="#h"/>
<use x="159.033203" xlink:href="#b"/>
<use x="222.65625" xlink:href="#d"/>
</g>
<path d="m440 189v-154" clip-path="url(#a)" fill="none" stroke="#b0b0b0" stroke-linecap="square" stroke-width=".8"/>
<use x="440.169777" y="189.121635" stroke="#000000" stroke-width=".8" xlink:href="#k"/>
<use x="440.169777" y="34.79649" stroke="#000000" stroke-width=".8" xlink:href="#j"/>
<g transform="translate(425 204) scale(.1 -.1)">
<defs>
<path id="e" transform="scale(.0156)" d="m2597 2516q453-97 707-404 255-306 255-756 0-690-475-1069-475-378-1350-378-293 0-604 58t-642 174v609q262-153 574-231 313-78 654-78 593 0 904 234t311 681q0 413-289 645-289 233-804 233h-544v519h569q465 0 712 186t247 536q0 359-255 551-254 193-729 193-260 0-557-57-297-56-653-174v562q360 100 674 150t592 50q719 0 1137-327 419-326 419-882 0-388-222-655t-631-370z"/>
</defs>
<use xlink:href="#e"/>
<use x="63.623047" xlink:href="#c"/>
<use x="95.410156" xlink:href="#b"/>
<use x="159.033203" xlink:href="#b"/>
<use x="222.65625" xlink:href="#d"/>
</g>
<g transform="translate(425 25.7) scale(.1 -.1)">
<use xlink:href="#e"/>
<use x="63.623047" xlink:href="#c"/>
<use x="95.410156" xlink:href="#b"/>
<use x="159.033203" xlink:href="#b"/>
<use x="222.65625" xlink:href="#d"/>
</g>
<path d="m523 189v-154" clip-path="url(#a)" fill="none" stroke="#b0b0b0" stroke-linecap="square" stroke-width=".8"/>
<use x="523.188516" y="189.121635" stroke="#000000" stroke-width=".8" xlink:href="#k"/>
<use x="523.188516" y="34.79649" stroke="#000000" stroke-width=".8" xlink:href="#j"/>
<g transform="translate(508 204) scale(.1 -.1)">
<use xlink:href="#e"/>
<use x="63.623047" xlink:href="#c"/>
<use x="95.410156" xlink:href="#h"/>
<use x="159.033203" xlink:href="#b"/>
<use x="222.65625" xlink:href="#d"/>
</g>
<g transform="translate(508 25.7) scale(.1 -.1)">
<use xlink:href="#e"/>
<use x="63.623047" xlink:href="#c"/>
<use x="95.410156" xlink:href="#h"/>
<use x="159.033203" xlink:href="#b"/>
<use x="222.65625" xlink:href="#d"/>
</g>
<path d="m86 158h487" clip-path="url(#a)" fill="none" stroke="#b0b0b0" stroke-linecap="square" stroke-width=".8"/>
<defs>
<path id="o" d="m0 0h-3.5" stroke="#000" stroke-width=".8"/>
</defs>
<use x="85.95649" y="158.256606" stroke="#000000" stroke-width=".8" xlink:href="#o"/>
<g transform="translate(3 162) scale(.1 -.1)">
<defs>
<path id="t" transform="scale(.0156)" d="m1159 525v-1856h-578v4831h578v-531q182 312 458 463 277 152 661 152 638 0 1036-506 399-506 399-1331t-399-1332q-398-506-1036-506-384 0-661 152-276 152-458 464zm1957 1222q0 634-261 995t-717 361q-457 0-718-361t-261-995 261-995 718-361q456 0 717 361t261 995z"/>
<path id="p" transform="scale(.0156)" d="m2059-325q-243-625-475-815-231-191-618-191h-460v481h338q237 0 368 113 132 112 291 531l103 262-1415 3444h609l1094-2737 1094 2737h609l-1538-3825z"/>
<path id="l" transform="scale(.0156)" d="m1172 4494v-994h1184v-447h-1184v-1900q0-428 117-550t477-122h590v-481h-590q-666 0-919 248-253 249-253 905v1900h-422v447h422v994h578z"/>
<path id="z" transform="scale(.0156)" d="m3513 2113v-2113h-575v2094q0 497-194 743-194 247-581 247-466 0-735-297-269-296-269-809v-1978h-578v4863h578v-1907q207 316 486 472 280 156 646 156 603 0 912-373 310-373 310-1098z"/>
<path id="g" transform="scale(.0156)" d="m1959 3097q-462 0-731-361t-269-989 267-989q268-361 733-361 460 0 728 362 269 363 269 988 0 622-269 986-268 364-728 364zm0 487q750 0 1178-488 429-487 429-1349 0-859-429-1349-428-489-1178-489-753 0-1180 489-426 490-426 1349 0 862 426 1349 427 488 1180 488z"/>
<path id="u" transform="scale(.0156)" d="m3513 2113v-2113h-575v2094q0 497-194 743-194 247-581 247-466 0-735-297-269-296-269-809v-1978h-578v3500h578v-544q207 316 486 472 280 156 646 156 603 0 912-373 310-373 310-1098z"/>
<path id="aj" transform="scale(.0156)" d="m3263-1063v-446h-3326v446h3326z"/>
<path id="m" transform="scale(.0156)" d="m2834 3397v-544q-243 125-506 187-262 63-544 63-428 0-642-131t-214-394q0-200 153-314t616-217l197-44q612-131 870-370t258-667q0-488-386-773-386-284-1061-284-281 0-586 55t-642 164v594q319-166 628-249 309-82 613-82 406 0 624 139 219 139 219 392 0 234-158 359-157 125-692 241l-200 47q-534 112-772 345-237 233-237 639 0 494 350 762 350 269 994 269 318 0 599-47 282-46 519-140z"/>
<path id="r" transform="scale(.0156)" d="m2194 1759q-697 0-966-159t-269-544q0-306 202-486 202-179 548-179 479 0 768 339t289 901v128h-572zm1147 238v-2e3h-575v531q-197-318-491-470t-719-152q-537 0-855 302-317 302-317 808 0 590 395 890 396 300 1180 300h807v57q0 397-261 614t-733 217q-300 0-585-72-284-72-546-216v532q315 122 612 182 297 61 578 61 760 0 1135-394 375-393 375-1193z"/>
<path id="s" transform="scale(.0156)" d="m2631 2963q-97 56-211 82-114 27-251 27-488 0-749-317t-261-911v-1844h-578v3500h578v-544q182 319 472 473 291 155 707 155 59 0 131-8 72-7 159-23l3-590z"/>
<path id="x" transform="scale(.0156)" d="m544 1381v2119h575v-2097q0-497 193-746 194-248 582-248 465 0 735 297 271 297 271 810v1984h575v-3500h-575v538q-209-319-486-474-276-155-642-155-603 0-916 375-312 375-312 1097zm1447 2203z"/>
</defs>
<use xlink:href="#t"/>
<use x="63.476562" xlink:href="#p"/>
<use x="122.65625" xlink:href="#l"/>
<use x="161.865234" xlink:href="#z"/>
<use x="225.244141" xlink:href="#g"/>
<use x="286.425781" xlink:href="#u"/>
<use x="349.804688" xlink:href="#aj"/>
<use x="399.804688" xlink:href="#m"/>
<use x="451.904297" xlink:href="#l"/>
<use x="491.113281" xlink:href="#r"/>
<use x="552.392578" xlink:href="#s"/>
<use x="593.505859" xlink:href="#l"/>
<use x="632.714844" xlink:href="#x"/>
<use x="696.09375" xlink:href="#t"/>
</g>
<path d="m86 127h487" clip-path="url(#a)" fill="none" stroke="#b0b0b0" stroke-linecap="square" stroke-width=".8"/>
<use x="85.95649" y="127.391577" stroke="#000000" stroke-width=".8" xlink:href="#o"/>
<g transform="translate(56.2 131) scale(.1 -.1)">
<use xlink:href="#i"/>
<use x="63.623047" xlink:href="#l"/>
<use x="102.832031" xlink:href="#g"/>
<use x="164.013672" xlink:href="#e"/>
</g>
<path d="m86 96.5h487" clip-path="url(#a)" fill="none" stroke="#b0b0b0" stroke-linecap="square" stroke-width=".8"/>
<use x="85.95649" y="96.526548" stroke="#000000" stroke-width=".8" xlink:href="#o"/>
<g transform="translate(47.9 100) scale(.1 -.1)">
<defs>
<path id="ai" transform="scale(.0156)" d="m3116 1747q0 634-261 995t-717 361q-457 0-718-361t-261-995 261-995 718-361q456 0 717 361t261 995zm-1957 1222q182 312 458 463 277 152 661 152 638 0 1036-506 399-506 399-1331t-399-1332q-398-506-1036-506-384 0-661 152-276 152-458 464v-525h-578v4863h578v-1894z"/>
<path id="ab" transform="scale(.0156)" d="m2906 2969v1894h575v-4863h-575v525q-181-312-458-464-276-152-664-152-634 0-1033 506-398 507-398 1332t398 1331q399 506 1033 506 388 0 664-152 277-151 458-463zm-1959-1222q0-634 261-995t717-361 718 361q263 361 263 995t-263 995q-262 361-718 361t-717-361-261-995z"/>
</defs>
<use xlink:href="#u"/>
<use x="63.378906" xlink:href="#ai"/>
<use x="126.855469" xlink:href="#g"/>
<use x="188.037109" xlink:href="#ab"/>
<use x="251.513672" xlink:href="#p"/>
</g>
<path d="m86 65.7h487" clip-path="url(#a)" fill="none" stroke="#b0b0b0" stroke-linecap="square" stroke-width=".8"/>
<use x="85.95649" y="65.661519" stroke="#000000" stroke-width=".8" xlink:href="#o"/>
<g transform="translate(61 69.5) scale(.1 -.1)">
<defs>
<path id="al" transform="scale(.0156)" d="m2188 4044-857-2322h1716l-859 2322zm-357 622h716l1778-4666h-656l-425 1197h-2103l-425-1197h-666l1781 4666z"/>
<path id="ac" transform="scale(.0156)" d="m628 4666h631v-4135h2272v-531h-2903v4666z"/>
</defs>
<use xlink:href="#al"/>
<use x="68.408203" xlink:href="#ac"/>
<use x="124.121094" xlink:href="#ac"/>
</g>
<path d="m108 189v-154" clip-path="url(#a)" fill="none" stroke="#1f77b4" stroke-linecap="square" stroke-width="1.5"/>
<g fill="none" stroke="#1f77b4" stroke-width="1.5">
<path d="m114 166v-15.4" clip-path="url(#a)"/>
<path d="m146 135v-15.4" clip-path="url(#a)"/>
<path d="m542 104v-15.4" clip-path="url(#a)"/>
<path d="m269 73.4v-15.4" clip-path="url(#a)"/>
</g>
<g fill="none" stroke="#1f77b4" stroke-width="1.5">
<path d="m114 166v-15.4" clip-path="url(#a)"/>
<path d="m151 135v-15.4" clip-path="url(#a)"/>
<path d="m551 104v-15.4" clip-path="url(#a)"/>
<path d="m551 73.4v-15.4" clip-path="url(#a)"/>
</g>
<g fill="none" stroke="#1f77b4" stroke-width="1.5">
<path d="m113 166v-15.4" clip-path="url(#a)"/>
<path d="m142 135v-15.4" clip-path="url(#a)"/>
<path d="m536 104v-15.4" clip-path="url(#a)"/>
<path d="m113 73.4v-15.4" clip-path="url(#a)"/>
</g>
<g fill="none" stroke="#1f77b4" stroke-width="1.5">
<path d="m113 158h1.27" clip-path="url(#a)"/>
<path d="m142 127h9.41" clip-path="url(#a)"/>
<path d="m536 96.5h14.8" clip-path="url(#a)"/>
<path d="m113 65.7h438" clip-path="url(#a)"/>
</g>
<g fill="none" stroke="#1f77b4" stroke-dasharray="1.5,2.475" stroke-width="1.5">
<path d="m114 166v-15.4" clip-path="url(#a)"/>
<path d="m114 166v-15.4" clip-path="url(#a)"/>
<path d="m144 135v-15.4" clip-path="url(#a)"/>
<path d="m148 135v-15.4" clip-path="url(#a)"/>
<path d="m538 104v-15.4" clip-path="url(#a)"/>
<path d="m547 104v-15.4" clip-path="url(#a)"/>
<path d="m114 73.4v-15.4" clip-path="url(#a)"/>
<path d="m543 73.4v-15.4" clip-path="url(#a)"/>
</g>
<path d="m86 189v-154" fill="none" stroke="#000" stroke-linecap="square" stroke-width=".8"/>
<path d="m573 189v-154" fill="none" stroke="#000" stroke-linecap="square" stroke-width=".8"/>
<path d="m86 189h487" fill="none" stroke="#000" stroke-linecap="square" stroke-width=".8"/>
<path d="m86 34.8h487" fill="none" stroke="#000" stroke-linecap="square" stroke-width=".8"/>
<g transform="translate(114 149) scale(.08 -.08)">
<defs>
<path id="v" transform="scale(.0156)" d="m2113 2584q-425 0-674-291-248-290-248-796 0-503 248-796 249-292 674-292t673 292q248 293 248 796 0 506-248 796-248 291-673 291zm1253 1979v-575q-238 112-480 171-242 60-480 60-625 0-955-422-329-422-376-1275 184 272 462 417 279 145 613 145 703 0 1111-427 408-426 408-1160 0-719-425-1154-425-434-1131-434-810 0-1238 620-428 621-428 1799 0 1106 525 1764t1409 658q238 0 480-47t505-140z"/>
</defs>
<use xlink:href="#f"/>
<use x="63.623047" xlink:href="#c"/>
<use x="95.410156" xlink:href="#b"/>
<use x="159.033203" xlink:href="#e"/>
<use x="222.65625" xlink:href="#h"/>
<use x="286.279297" xlink:href="#v"/>
</g>
<g transform="translate(146 118) scale(.08 -.08)">
<defs>
<path id="ae" transform="scale(.0156)" d="m525 4666h3e3v-269l-1694-4397h-659l1594 4134h-2241v532z"/>
<path id="n" transform="scale(.0156)" d="m2419 4116-1594-2491h1594v2491zm-166 550h794v-3041h666v-525h-666v-1100h-628v1100h-2106v609l1940 2957z"/>
</defs>
<use xlink:href="#f"/>
<use x="63.623047" xlink:href="#c"/>
<use x="95.410156" xlink:href="#i"/>
<use x="159.033203" xlink:href="#i"/>
<use x="222.65625" xlink:href="#ae"/>
<use x="286.279297" xlink:href="#n"/>
</g>
<g transform="translate(542 87.3) scale(.08 -.08)">
<use xlink:href="#e"/>
<use x="63.623047" xlink:href="#c"/>
<use x="95.410156" xlink:href="#v"/>
<use x="159.033203" xlink:href="#f"/>
<use x="222.65625" xlink:href="#f"/>
<use x="286.279297" xlink:href="#b"/>
</g>
<g transform="translate(269 56.4) scale(.08 -.08)">
<defs>
<path id="ad" transform="scale(.0156)" d="m703 97v575q238-113 481-172 244-59 479-59 625 0 954 420 330 420 377 1277-181-269-460-413-278-144-615-144-700 0-1108 423-408 424-408 1159 0 718 425 1152 425 435 1131 435 810 0 1236-621 427-620 427-1801 0-1103-524-1761-523-658-1407-658-238 0-482 47-243 47-506 141zm1256 1978q425 0 673 290 249 291 249 798 0 503-249 795-248 292-673 292t-673-292-248-795q0-507 248-798 248-290 673-290z"/>
</defs>
<use xlink:href="#f"/>
<use x="63.623047" xlink:href="#c"/>
<use x="95.410156" xlink:href="#ad"/>
<use x="159.033203" xlink:href="#ae"/>
<use x="222.65625" xlink:href="#b"/>
<use x="286.279297" xlink:href="#n"/>
</g>
<g transform="translate(118 34.8) scale(.1 -.1)">
<defs>
<path id="y" transform="scale(.0156)" d="m3328 2828q216 388 516 572t706 184q547 0 844-383 297-382 297-1088v-2113h-578v2094q0 503-179 746-178 244-543 244-447 0-707-297-259-296-259-809v-1978h-578v2094q0 506-178 748t-550 242q-441 0-701-298-259-298-259-808v-1978h-578v3500h578v-544q197 322 472 475t653 153q382 0 649-194 267-193 395-562z"/>
<path id="q" transform="scale(.0156)" d="m3597 1894v-281h-2644q38-594 358-905t892-311q331 0 642 81t618 244v-544q-310-131-635-200t-659-69q-838 0-1327 487-489 488-489 1320 0 859 464 1363 464 505 1252 505 706 0 1117-455 411-454 411-1235zm-575 169q-6 471-264 752-258 282-683 282-481 0-770-272t-333-766l2050 4z"/>
<path id="am" transform="scale(.0156)" d="m8863 2147v-281l-1229-1228-375 375 729 728h-7622v531h7622l-729 728 375 375 1229-1228z"/>
</defs>
<use xlink:href="#y"/>
<use x="97.412109" xlink:href="#g"/>
<use x="158.59375" xlink:href="#s"/>
<use x="197.457031" xlink:href="#q"/>
<use x="258.980469" xlink:href="#DejaVuSans-20"/>
<use x="290.767578" xlink:href="#am"/>
</g>
<g transform="translate(61.2 34.8) scale(.1 -.1)">
<defs>
<path id="an" transform="scale(.0156)" d="m313 1866v281l1228 1228 375-375-728-728h7621v-531h-7621l728-728-375-375-1228 1228z"/>
<path id="ag" transform="scale(.0156)" d="m603 4863h575v-4863h-575v4863z"/>
</defs>
<use xlink:href="#an"/>
<use x="143.359375" xlink:href="#DejaVuSans-20"/>
<use x="175.146484" xlink:href="#ag"/>
<use x="202.929688" xlink:href="#q"/>
<use x="264.453125" xlink:href="#m"/>
<use x="316.552734" xlink:href="#m"/>
</g>
<g transform="translate(156 12.1) scale(.12 -.12)">
<defs>
<path id="ak" transform="scale(.0156)" d="m628 4666h941l1190-3175 1197 3175h941v-4666h-616v4097l-1203-3200h-634l-1203 3200v-4097h-613v4666z"/>
<path id="ah" transform="scale(.0156)" d="m2906 1791q0 625-258 968-257 344-723 344-462 0-720-344-258-343-258-968 0-622 258-966t720-344q466 0 723 344 258 344 258 966zm575-1357q0-893-397-1329-396-436-1215-436-303 0-572 45t-522 139v559q253-137 500-202 247-66 503-66 566 0 847 295t281 892v285q-178-310-456-463t-666-153q-643 0-1037 490-394 491-394 1301 0 812 394 1302 394 491 1037 491 388 0 666-153t456-462v531h575v-3066z"/>
<path id="aa" transform="scale(.0156)" d="m2375 4863v-479h-550q-309 0-430-125-120-125-120-450v-309h947v-447h-947v-3053h-578v3053h-550v447h550v244q0 584 272 851 272 268 862 268h544z"/>
<path id="af" transform="scale(.0156)" d="m313 2009h1684v-512h-1684v512z"/>
<path id="w" transform="scale(.0156)" d="m191 3500h609l1094-2937 1094 2937h609l-1313-3500h-781l-1312 3500z"/>
</defs>
<use xlink:href="#ak"/>
<use x="86.279297" xlink:href="#q"/>
<use x="147.802734" xlink:href="#y"/>
<use x="245.214844" xlink:href="#g"/>
<use x="306.396484" xlink:href="#s"/>
<use x="347.509766" xlink:href="#p"/>
<use x="406.689453" xlink:href="#DejaVuSans-20"/>
<use x="438.476562" xlink:href="#x"/>
<use x="501.855469" xlink:href="#m"/>
<use x="553.955078" xlink:href="#r"/>
<use x="615.234375" xlink:href="#ah"/>
<use x="678.710938" xlink:href="#q"/>
<use x="740.234375" xlink:href="#DejaVuSans-20"/>
<use x="772.021484" xlink:href="#g"/>
<use x="833.203125" xlink:href="#aa"/>
<use x="868.408203" xlink:href="#DejaVuSans-20"/>
<use x="900.195312" xlink:href="#t"/>
<use x="963.671875" xlink:href="#p"/>
<use x="1022.851562" xlink:href="#l"/>
<use x="1062.060547" xlink:href="#z"/>
<use x="1125.439453" xlink:href="#g"/>
<use x="1186.621094" xlink:href="#u"/>
<use x="1250" xlink:href="#af"/>
<use x="1283.458984" xlink:href="#w"/>
<use x="1342.638672" xlink:href="#e"/>
<use x="1406.261719" xlink:href="#c"/>
<use x="1438.048828" xlink:href="#f"/>
<use x="1501.671875" xlink:href="#e"/>
<use x="1565.294922" xlink:href="#c"/>
<use x="1597.082031" xlink:href="#b"/>
<use x="1660.705078" xlink:href="#r"/>
<use x="1721.984375" xlink:href="#n"/>
<use x="1785.607422" xlink:href="#af"/>
<use x="1821.691406" xlink:href="#ad"/>
<use x="1885.314453" xlink:href="#ab"/>
<use x="1948.791016" xlink:href="#e"/>
<use x="2012.414062" xlink:href="#n"/>
<use x="2076.037109" xlink:href="#aa"/>
<use x="2111.242188" xlink:href="#v"/>
<use x="2174.865234" xlink:href="#b"/>
<use x="2238.488281" xlink:href="#DejaVuSans-20"/>
<use x="2270.275391" xlink:href="#w"/>
<use x="2329.455078" xlink:href="#m"/>
<use x="2381.554688" xlink:href="#c"/>
<use x="2413.341797" xlink:href="#DejaVuSans-20"/>
<use x="2445.128906" xlink:href="#e"/>
<use x="2508.751953" xlink:href="#c"/>
<use x="2540.539062" xlink:href="#f"/>
<use x="2604.162109" xlink:href="#e"/>
<use x="2667.785156" xlink:href="#c"/>
<use x="2699.572266" xlink:href="#b"/>
<use x="2763.195312" xlink:href="#r"/>
<use x="2824.474609" xlink:href="#n"/>
</g>
<defs>
<clipPath id="a">
<rect x="86" y="34.8" width="487" height="154"/>
</clipPath>
</defs>
</svg>
