<?xml version="1.0" encoding="UTF-8"?>
<!DOCTYPE svg  PUBLIC '-//W3C//DTD SVG 1.1//EN'  'http://www.w3.org/Graphics/SVG/1.1/DTD/svg11.dtd'>
<svg width="576pt" height="317pt" version="1.1" viewBox="0 0 576 317" xmlns="http://www.w3.org/2000/svg" xmlns:xlink="http://www.w3.org/1999/xlink">
<defs>
<style type="text/css">*{stroke-linejoin: round; stroke-linecap: butt}</style>
</defs>
<path d="m0 317h576v-317h-576z" fill="#fff"/>
<path d="m137 297h428v-262h-428z" fill="#fff"/>
<path d="m156 258v26.2-26.2z" clip-path="url(#a)" fill="#1f77b4" fill-opacity=".3"/>
<path d="m156 232v26.2-26.2z" clip-path="url(#a)" fill="#1f77b4" fill-opacity=".3"/>
<path d="m156 205v26.2-26.2z" clip-path="url(#a)" fill="#1f77b4" fill-opacity=".3"/>
<path d="m156 179v26.2-26.2z" clip-path="url(#a)" fill="#1f77b4" fill-opacity=".3"/>
<path d="m170 165v2.02l0.117 0.0309 0.117 0.0258 0.117 0.021 0.117 0.0165 0.117 0.0124 0.117 0.0087 0.117 0.00533 0.117 0.00218 0.117-8.62e-4 0.117-0.00395 0.117-0.00721 0.117-0.0108 0.117-0.0147 0.117-0.019 0.117-0.0237 0.117-0.0287 0.117-0.0338 0.117-0.039 0.117-0.044 0.117-0.0486 0.117-0.0526 0.117-0.0559 0.117-0.0582 0.235-0.12 0.117-0.0594 0.117-0.0579 0.117-0.0554 0.117-0.0523 0.117-0.0485 0.117-0.0443 0.117-0.0399 0.117-0.0352 0.117-0.0306 0.117-0.0261 0.117-0.0217 0.117-0.0175 0.117-0.0134 0.117-0.0096 0.117-0.0059 0.117-0.00228 0.117 0.00135 0.117 0.00506 0.117 0.00896 0.117 0.0131 0.117 0.0177 0.117 0.0228 0.117 0.0284 0.117 0.0348 0.117 0.0421 0.117 0.0503 0.117 0.0596 0.117 0.0703 0.117 0.0825 0.117 0.0967 0.117 0.113 0.117 0.132 0.117 0.154 0.117 0.179 0.117 0.208 0.117 0.242 0.117 0.279 0.117 0.321 0.117 0.368 0.117 0.418 0.117 0.47 0.117 0.525 0.117 0.579 0.117 0.631 0.117 0.679 0.117 0.72 0.117 0.75 0.117 0.769 0.117 0.772 0.117 0.758 0.117 0.726 0.117 0.676 0.117 0.606 0.117 0.519 0.117 0.416 0.117 0.3 0.117 0.176 0.117 0.0459 0.117-0.0844 0.117-0.211 0.117-0.33 0.117-0.437 0.117-0.529 0.117-0.605 0.117-0.663 0.117-0.702 0.117-0.724 0.117-0.729 0.117-0.72 0.117-0.698 0.117-0.666 0.117-0.627 0.117-0.584 0.117-0.538v-8.54l-0.117-0.538-0.117-0.584-0.117-0.627-0.117-0.666-0.117-0.698-0.117-0.72-0.117-0.729-0.117-0.724-0.117-0.702-0.117-0.663-0.117-0.605-0.117-0.529-0.117-0.437-0.117-0.33-0.117-0.211-0.117-0.0844-0.117 0.0459-0.117 0.176-0.117 0.3-0.117 0.416-0.117 0.519-0.117 0.606-0.117 0.676-0.117 0.726-0.117 0.758-0.117 0.772-0.117 0.769-0.117 0.75-0.117 0.72-0.117 0.679-0.117 0.631-0.117 0.579-0.117 0.525-0.117 0.47-0.117 0.418-0.117 0.368-0.117 0.321-0.117 0.279-0.117 0.242-0.117 0.208-0.117 0.179-0.117 0.154-0.117 0.132-0.117 0.113-0.117 0.0967-0.117 0.0825-0.117 0.0703-0.117 0.0596-0.117 0.0503-0.117 0.0421-0.117 0.0348-0.117 0.0284-0.117 0.0228-0.117 0.0177-0.117 0.0131-0.117 0.00896-0.117 0.00506-0.117 0.00135-0.117-0.00228-0.117-0.0059-0.117-0.0096-0.117-0.0134-0.117-0.0175-0.117-0.0217-0.117-0.0261-0.117-0.0306-0.117-0.0352-0.117-0.0399-0.117-0.0443-0.117-0.0485-0.117-0.0523-0.117-0.0554-0.117-0.0579-0.117-0.0594-0.235-0.12-0.117-0.0582-0.117-0.0559-0.117-0.0526-0.117-0.0486-0.117-0.044-0.117-0.039-0.117-0.0338-0.117-0.0287-0.117-0.0237-0.117-0.019-0.117-0.0147-0.117-0.0108-0.117-0.00721-0.117-0.00395-0.117-8.62e-4 -0.117 0.00218-0.117 0.00533-0.117 0.0087-0.117 0.0124-0.117 0.0165-0.117 0.021-0.117 0.0258-0.117 0.0309z" clip-path="url(#a)" fill="#1f77b4" fill-opacity=".3"/>
<path d="m208 127v26.2l0.258-0.0495 0.258-0.147 0.258-0.242 0.258-0.331 0.258-0.413 0.258-0.486 0.258-0.549 0.258-0.601 0.258-0.641 0.258-0.67 0.258-0.686 0.258-0.691 0.258-0.686 0.258-0.672 0.258-0.649 0.258-0.619 0.258-0.584 0.258-0.545 0.258-0.502 0.258-0.458 0.258-0.414 0.258-0.37 0.258-0.327 0.258-0.286 0.258-0.248 0.258-0.212 0.258-0.179 0.258-0.15 0.258-0.123 0.258-0.0994 0.258-0.0783 0.258-0.0596 0.258-0.0432 0.258-0.0287 0.258-0.0159 0.258-0.00446 0.258 0.00573 0.258 0.0149 0.258 0.0232 0.258 0.0308 0.258 0.0378 0.258 0.0442 0.258 0.05 0.258 0.0552 0.258 0.0599 0.258 0.0639 0.258 0.0672 0.258 0.0697 0.258 0.0713 0.516 0.144 0.258 0.0703 0.258 0.0679 0.258 0.0643 0.258 0.0597 0.258 0.0541 0.258 0.0475 0.258 0.0401 0.258 0.0319 0.258 0.0232 0.258 0.0142 0.258 0.00492 0.258-0.00434 0.258-0.0134 0.258-0.022 0.258-0.0301 0.258-0.0374 0.258-0.0437 0.258-0.049 0.258-0.0531 0.258-0.0559 0.516-0.115 0.258-0.0567 0.258-0.0545 0.258-0.0511 0.258-0.0466 0.258-0.0413 0.258-0.0353 0.258-0.0287 0.258-0.0217 0.258-0.0146 0.258-0.00745 0.258-5.75e-4 0.258 0.00589 0.258 0.0118 0.258 0.0169 0.258 0.0211 0.258 0.0243 0.258 0.0265 0.516 0.0549 0.258 0.0261 0.258 0.0238 0.258 0.0204 0.258 0.0162 0.258 0.0112 0.258 0.00557 0.258-4.5e-4v-1.9l-0.258-4.5e-4 -0.258 0.00557-0.258 0.0112-0.258 0.0162-0.258 0.0204-0.258 0.0238-0.774 0.081-0.258 0.0265-0.258 0.0243-0.258 0.0211-0.258 0.0169-0.258 0.0118-0.258 0.00589-0.258-5.75e-4 -0.258-0.00745-0.258-0.0146-0.258-0.0217-0.258-0.0287-0.258-0.0353-0.258-0.0413-0.258-0.0466-0.258-0.0511-0.258-0.0545-0.258-0.0567-0.516-0.115-0.258-0.0559-0.258-0.0531-0.258-0.049-0.258-0.0437-0.258-0.0374-0.258-0.0301-0.258-0.022-0.258-0.0134-0.258-0.00434-0.258 0.00492-0.258 0.0142-0.258 0.0232-0.258 0.0319-0.258 0.0401-0.258 0.0475-0.258 0.0541-0.258 0.0597-0.258 0.0643-0.258 0.0679-0.258 0.0703-0.516 0.144-0.258 0.0713-0.258 0.0697-0.258 0.0672-0.258 0.0639-0.258 0.0599-0.258 0.0552-0.258 0.05-0.258 0.0442-0.258 0.0378-0.258 0.0308-0.258 0.0232-0.258 0.0149-0.258 0.00573-0.258-0.00446-0.258-0.0159-0.258-0.0287-0.258-0.0432-0.258-0.0596-0.258-0.0783-0.258-0.0994-0.258-0.123-0.258-0.15-0.258-0.179-0.258-0.212-0.258-0.248-0.258-0.286-0.258-0.327-0.258-0.37-0.258-0.414-0.258-0.458-0.258-0.502-0.258-0.545-0.258-0.584-0.258-0.619-0.258-0.649-0.258-0.672-0.258-0.686-0.258-0.691-0.258-0.686-0.258-0.67-0.258-0.641-0.258-0.601-0.258-0.549-0.258-0.486-0.258-0.413-0.258-0.331-0.258-0.242-0.258-0.147-0.258-0.0495z" clip-path="url(#a)" fill="#1f77b4" fill-opacity=".3"/>
<path d="m230 113v0.79l1.14 0.0381 0.572 0.0201 0.572 0.0234 0.572 0.0288 0.572 0.0364 0.572 0.0458 0.572 0.0566 0.572 0.0682 0.572 0.08 0.572 0.0914 0.572 0.102 0.572 0.11 0.572 0.117 0.572 0.121 0.572 0.123 1.71 0.367 1.14 0.237 0.572 0.119 0.572 0.123 0.572 0.13 0.572 0.142 0.572 0.158 0.572 0.179 0.572 0.204 0.572 0.233 0.572 0.266 0.572 0.3 0.572 0.336 0.572 0.372 0.572 0.408 0.572 0.441 0.572 0.47 0.572 0.496 0.572 0.517 0.572 0.532 0.572 0.542 0.572 0.545 0.572 0.541 0.572 0.53 0.572 0.513 0.572 0.489 0.572 0.458 0.572 0.422 0.572 0.38 0.572 0.333 0.572 0.282 0.572 0.229 0.572 0.174 0.572 0.119 0.572 0.0635 0.572 0.00989 0.572-0.0413 0.572-0.0893 0.572-0.134 0.572-0.174 0.572-0.209 0.572-0.24 0.572-0.266 0.572-0.288 0.572-0.305 0.572-0.318 0.572-0.327 0.572-0.334 1.14-0.678 1.14-0.688 0.572-0.349 0.572-0.354 0.572-0.362 0.572-0.371 0.572-0.382 0.572-0.394 0.572-0.406 0.572-0.417 0.572-0.427 1.14-0.867 0.572-0.432 0.572-0.424 0.572-0.41 0.572-0.391 0.572-0.367 0.572-0.34 0.572-0.309 0.572-0.276 0.572-0.243 0.572-0.21 0.572-0.179 0.572-0.15 0.572-0.125 0.572-0.103 0.572-0.0853 0.572-0.0714 0.572-0.061v-1.04l-0.572-0.061-0.572-0.0714-0.572-0.0853-0.572-0.103-0.572-0.125-0.572-0.15-0.572-0.179-0.572-0.21-0.572-0.243-0.572-0.276-0.572-0.309-0.572-0.34-0.572-0.367-0.572-0.391-0.572-0.41-0.572-0.424-0.572-0.432-1.14-0.867-0.572-0.427-0.572-0.417-0.572-0.406-0.572-0.394-0.572-0.382-0.572-0.371-0.572-0.362-0.572-0.354-0.572-0.349-1.14-0.688-1.14-0.678-0.572-0.334-0.572-0.327-0.572-0.318-0.572-0.305-0.572-0.288-0.572-0.266-0.572-0.24-0.572-0.209-0.572-0.174-0.572-0.134-0.572-0.0893-0.572-0.0413-0.572 0.00989-0.572 0.0635-0.572 0.119-0.572 0.174-0.572 0.229-0.572 0.282-0.572 0.333-0.572 0.38-0.572 0.422-0.572 0.458-0.572 0.489-0.572 0.513-0.572 0.53-0.572 0.541-0.572 0.545-0.572 0.542-0.572 0.532-0.572 0.517-0.572 0.496-0.572 0.47-0.572 0.441-0.572 0.408-0.572 0.372-0.572 0.336-0.572 0.3-0.572 0.266-0.572 0.233-0.572 0.204-0.572 0.179-0.572 0.158-0.572 0.142-0.572 0.13-0.572 0.123-0.572 0.119-1.71 0.357-1.71 0.369-0.572 0.121-0.572 0.117-0.572 0.11-0.572 0.102-0.572 0.0914-0.572 0.08-0.572 0.0682-0.572 0.0566-0.572 0.0458-0.572 0.0364-0.572 0.0288-0.572 0.0234-0.572 0.0201-1.14 0.0381z" clip-path="url(#a)" fill="#1f77b4" fill-opacity=".3"/>
<path d="m470 86.6v1.4l0.759 0.0691 0.759 0.0735 0.759 0.0785 0.759 0.0841 0.759 0.0906 0.759 0.0977 0.759 0.106 0.759 0.114 0.759 0.123 0.759 0.132 0.759 0.142 0.759 0.152 0.759 0.161 0.759 0.17 0.759 0.179 0.759 0.187 0.759 0.194 0.759 0.201 0.759 0.207 0.759 0.211 0.759 0.216 0.759 0.219 0.759 0.222 0.759 0.225 0.759 0.228 0.759 0.231 0.759 0.235 0.759 0.24 0.759 0.245 0.759 0.252 0.759 0.259 0.759 0.268 0.759 0.277 0.759 0.287 0.759 0.297 0.759 0.307 0.759 0.317 0.759 0.326 0.759 0.333 0.759 0.339 0.759 0.342 1.52 0.684 0.759 0.337 0.759 0.329 0.759 0.319 0.759 0.306 0.759 0.29 0.759 0.272 0.759 0.253 0.759 0.231 0.759 0.208 0.759 0.184 0.759 0.159 0.759 0.134 0.759 0.108 0.759 0.0816 0.759 0.0548 0.759 0.0277 0.759 3.47e-4 0.759-0.0273 0.759-0.0552 0.759-0.0833 0.759-0.112 0.759-0.14 0.759-0.168 0.759-0.196 0.759-0.224 0.759-0.251 0.759-0.276 0.759-0.301 0.759-0.324 0.759-0.345 0.759-0.365 0.759-0.381 0.759-0.396 0.759-0.407 0.759-0.415 1.52-0.842 0.759-0.42 0.759-0.415 0.759-0.407 0.759-0.397 0.759-0.384 0.759-0.37 0.759-0.354 0.759-0.338 0.759-0.321 0.759-0.305 0.759-0.29 0.759-0.276 0.759-0.263 0.759-0.252 0.759-0.242 0.759-0.233 0.759-0.224 0.759-0.216 0.759-0.207v-3.79l-0.759-0.207-0.759-0.216-0.759-0.224-0.759-0.233-0.759-0.242-0.759-0.252-0.759-0.263-0.759-0.276-0.759-0.29-0.759-0.305-0.759-0.321-0.759-0.338-0.759-0.354-0.759-0.37-0.759-0.384-0.759-0.397-0.759-0.407-0.759-0.415-0.759-0.42-1.52-0.842-0.759-0.415-0.759-0.407-0.759-0.396-0.759-0.381-0.759-0.365-0.759-0.345-0.759-0.324-0.759-0.301-0.759-0.276-0.759-0.251-0.759-0.224-0.759-0.196-0.759-0.168-0.759-0.14-0.759-0.112-0.759-0.0833-0.759-0.0552-0.759-0.0273-0.759 3.47e-4 -0.759 0.0277-0.759 0.0548-0.759 0.0816-0.759 0.108-0.759 0.134-0.759 0.159-0.759 0.184-0.759 0.208-0.759 0.231-0.759 0.253-0.759 0.272-0.759 0.29-0.759 0.306-0.759 0.319-0.759 0.329-0.759 0.337-2.28 1.03-0.759 0.339-0.759 0.333-0.759 0.326-0.759 0.317-0.759 0.307-0.759 0.297-0.759 0.287-0.759 0.277-0.759 0.268-0.759 0.259-0.759 0.252-0.759 0.245-0.759 0.24-0.759 0.235-0.759 0.231-0.759 0.228-0.759 0.225-0.759 0.222-0.759 0.219-0.759 0.216-0.759 0.211-0.759 0.207-0.759 0.201-0.759 0.194-0.759 0.187-0.759 0.179-0.759 0.17-0.759 0.161-0.759 0.152-0.759 0.142-0.759 0.132-0.759 0.123-0.759 0.114-0.759 0.106-0.759 0.0977-0.759 0.0906-0.759 0.0841-0.759 0.0785-0.759 0.0735-0.759 0.0691z" clip-path="url(#a)" fill="#1f77b4" fill-opacity=".3"/>
<path d="m156 53.7v14.6l7.86 1.7 3.93 0.808 3.93 0.751 3.93 0.676 3.93 0.584 3.93 0.481 3.93 0.369 3.93 0.255 3.93 0.142 3.93 0.0355 3.93-0.0608 3.93-0.144 3.93-0.212 3.93-0.265 3.93-0.301 31.4-2.69 3.93-0.365 3.93-0.388 3.93-0.417 3.93-0.449 3.93-0.482 3.93-0.513 15.7-2.23 3.93-0.554 3.93-0.533 3.93-0.503 3.93-0.466 3.93-0.423 3.93-0.378 3.93-0.331 3.93-0.284 3.93-0.24 3.93-0.199 3.93-0.162 3.93-0.13 3.93-0.102 3.93-0.0791 3.93-0.0601 3.93-0.0449 3.93-0.033 3.93-0.0238 3.93-0.0168 3.93-0.0115 3.93-0.00761 3.93-0.00465 3.93-0.00232 3.93-3.5e-4 3.93 0.00152 3.93 0.00352 3.93 0.00589 3.93 0.00888 3.93 0.0128 3.93 0.0178 3.93 0.0244 3.93 0.0327 3.93 0.0433 3.93 0.0565 3.93 0.0726 3.93 0.0918 3.93 0.114 3.93 0.14 3.93 0.17 3.93 0.202 3.93 0.236 3.93 0.272 3.93 0.308 3.93 0.343 3.93 0.375 3.93 0.401 3.93 0.422 11.8 1.29 3.93 0.401 3.93 0.365 3.93 0.317 3.93 0.258 3.93 0.188 3.93 0.112 3.93 0.0307 3.93-0.0518 3.93-0.133 3.93-0.209 3.93-0.277 3.93-0.335 3.93-0.381 3.93-0.415 3.93-0.435v-8.18l-3.93-0.435-3.93-0.415-3.93-0.381-3.93-0.335-3.93-0.277-3.93-0.209-3.93-0.133-3.93-0.0518-3.93 0.0307-3.93 0.112-3.93 0.188-3.93 0.258-3.93 0.317-3.93 0.365-3.93 0.401-11.8 1.29-3.93 0.422-3.93 0.401-3.93 0.375-3.93 0.343-3.93 0.308-3.93 0.272-3.93 0.236-3.93 0.202-3.93 0.17-3.93 0.14-3.93 0.114-3.93 0.0918-3.93 0.0726-3.93 0.0565-3.93 0.0433-3.93 0.0327-3.93 0.0244-3.93 0.0178-3.93 0.0128-3.93 0.00888-3.93 0.00589-3.93 0.00352-3.93 0.00152-3.93-3.5e-4 -3.93-0.00232-3.93-0.00465-3.93-0.00761-3.93-0.0115-3.93-0.0168-3.93-0.0238-3.93-0.033-3.93-0.0449-3.93-0.0601-3.93-0.0791-3.93-0.102-3.93-0.13-3.93-0.162-3.93-0.199-3.93-0.24-3.93-0.284-3.93-0.331-3.93-0.378-3.93-0.423-3.93-0.466-3.93-0.503-3.93-0.533-3.93-0.554-11.8-1.69-3.93-0.538-3.93-0.513-3.93-0.482-3.93-0.449-3.93-0.417-3.93-0.388-35.4-3.06-3.93-0.301-3.93-0.265-3.93-0.212-3.93-0.144-3.93-0.0608-3.93 0.0355-3.93 0.142-3.93 0.255-3.93 0.369-3.93 0.481-3.93 0.584-3.93 0.676-3.93 0.751-3.93 0.808-7.86 1.7z" clip-path="url(#a)" fill="#1f77b4" fill-opacity=".3"/>
<path d="m156 297v-262" clip-path="url(#a)" fill="none" stroke="#b0b0b0" stroke-linecap="square" stroke-width=".8"/>
<defs>
<path id="t" d="m0 0v3.5" stroke="#000" stroke-width=".8"/>
</defs>
<use x="156.4798" y="297.121635" stroke="#000000" stroke-width=".8" xlink:href="#t"/>
<defs>
<path id="s" d="m0 0v-3.5" stroke="#000" stroke-width=".8"/>
</defs>
<use x="156.4798" y="34.79649" stroke="#000000" stroke-width=".8" xlink:href="#s"/>
<!-- 1.00× -->
<g transform="translate(141 312) scale(.1 -.1)">
<defs>
<path id="b" transform="scale(.0156)" d="m794 531h1031v3560l-1122-225v575l1116 225h631v-4135h1031v-531h-2687v531z"/>
<path id="f" transform="scale(.0156)" d="m684 794h660v-794h-660v794z"/>
<path id="c" transform="scale(.0156)" d="m2034 4250q-487 0-733-480-245-479-245-1442 0-959 245-1439 246-480 733-480 491 0 736 480 246 480 246 1439 0 963-246 1442-245 480-736 480zm0 500q785 0 1199-621 414-620 414-1801 0-1178-414-1799-414-620-1199-620-784 0-1198 620-414 621-414 1799 0 1181 414 1801 414 621 1198 621z"/>
<path id="h" transform="scale(.0156)" d="m4488 3438-1429-1435 1429-1428-372-378-1435 1434-1434-1434-369 378 1425 1428-1425 1435 369 378 1434-1435 1435 1435 372-378z"/>
</defs>
<use xlink:href="#b"/>
<use x="63.623047" xlink:href="#f"/>
<use x="95.410156" xlink:href="#c"/>
<use x="159.033203" xlink:href="#c"/>
<use x="222.65625" xlink:href="#h"/>
</g>
<!-- 1.00× -->
<g transform="translate(141 25.7) scale(.1 -.1)">
<use xlink:href="#b"/>
<use x="63.623047" xlink:href="#f"/>
<use x="95.410156" xlink:href="#c"/>
<use x="159.033203" xlink:href="#c"/>
<use x="222.65625" xlink:href="#h"/>
</g>
<path d="m223 297v-262" clip-path="url(#a)" fill="none" stroke="#b0b0b0" stroke-linecap="square" stroke-width=".8"/>
<use x="223.346899" y="297.121635" stroke="#000000" stroke-width=".8" xlink:href="#t"/>
<use x="223.346899" y="34.79649" stroke="#000000" stroke-width=".8" xlink:href="#s"/>
<!-- 1.05× -->
<g transform="translate(208 312) scale(.1 -.1)">
<defs>
<path id="aa" transform="scale(.0156)" d="m691 4666h2478v-532h-1900v-1143q137 47 274 70 138 23 276 23 781 0 1237-428 457-428 457-1159 0-753-469-1171-469-417-1322-417-294 0-599 50-304 50-629 150v635q281-153 581-228t634-75q541 0 856 284 316 284 316 772 0 487-316 771-315 285-856 285-253 0-505-56-251-56-513-175v2344z"/>
</defs>
<use xlink:href="#b"/>
<use x="63.623047" xlink:href="#f"/>
<use x="95.410156" xlink:href="#c"/>
<use x="159.033203" xlink:href="#aa"/>
<use x="222.65625" xlink:href="#h"/>
</g>
<!-- 1.05× -->
<g transform="translate(208 25.7) scale(.1 -.1)">
<use xlink:href="#b"/>
<use x="63.623047" xlink:href="#f"/>
<use x="95.410156" xlink:href="#c"/>
<use x="159.033203" xlink:href="#aa"/>
<use x="222.65625" xlink:href="#h"/>
</g>
<path d="m290 297v-262" clip-path="url(#a)" fill="none" stroke="#b0b0b0" stroke-linecap="square" stroke-width=".8"/>
<use x="290.213998" y="297.121635" stroke="#000000" stroke-width=".8" xlink:href="#t"/>
<use x="290.213998" y="34.79649" stroke="#000000" stroke-width=".8" xlink:href="#s"/>
<!-- 1.10× -->
<g transform="translate(275 312) scale(.1 -.1)">
<use xlink:href="#b"/>
<use x="63.623047" xlink:href="#f"/>
<use x="95.410156" xlink:href="#b"/>
<use x="159.033203" xlink:href="#c"/>
<use x="222.65625" xlink:href="#h"/>
</g>
<!-- 1.10× -->
<g transform="translate(275 25.7) scale(.1 -.1)">
<use xlink:href="#b"/>
<use x="63.623047" xlink:href="#f"/>
<use x="95.410156" xlink:href="#b"/>
<use x="159.033203" xlink:href="#c"/>
<use x="222.65625" xlink:href="#h"/>
</g>
<path d="m357 297v-262" clip-path="url(#a)" fill="none" stroke="#b0b0b0" stroke-linecap="square" stroke-width=".8"/>
<use x="357.081096" y="297.121635" stroke="#000000" stroke-width=".8" xlink:href="#t"/>
<use x="357.081096" y="34.79649" stroke="#000000" stroke-width=".8" xlink:href="#s"/>
<!-- 1.15× -->
<g transform="translate(342 312) scale(.1 -.1)">
<use xlink:href="#b"/>
<use x="63.623047" xlink:href="#f"/>
<use x="95.410156" xlink:href="#b"/>
<use x="159.033203" xlink:href="#aa"/>
<use x="222.65625" xlink:href="#h"/>
</g>
<!-- 1.15× -->
<g transform="translate(342 25.7) scale(.1 -.1)">
<use xlink:href="#b"/>
<use x="63.623047" xlink:href="#f"/>
<use x="95.410156" xlink:href="#b"/>
<use x="159.033203" xlink:href="#aa"/>
<use x="222.65625" xlink:href="#h"/>
</g>
<path d="m424 297v-262" clip-path="url(#a)" fill="none" stroke="#b0b0b0" stroke-linecap="square" stroke-width=".8"/>
<use x="423.948195" y="297.121635" stroke="#000000" stroke-width=".8" xlink:href="#t"/>
<use x="423.948195" y="34.79649" stroke="#000000" stroke-width=".8" xlink:href="#s"/>
<!-- 1.20× -->
<g transform="translate(409 312) scale(.1 -.1)">
<defs>
<path id="v" transform="scale(.0156)" d="m1228 531h2203v-531h-2962v531q359 372 979 998 621 627 780 809 303 340 423 576 121 236 121 464 0 372-261 606-261 235-680 235-297 0-627-103-329-103-704-313v638q381 153 712 231 332 78 607 78 725 0 1156-363 431-362 431-968 0-288-108-546-107-257-392-607-78-91-497-524-418-433-1181-1211z"/>
</defs>
<use xlink:href="#b"/>
<use x="63.623047" xlink:href="#f"/>
<use x="95.410156" xlink:href="#v"/>
<use x="159.033203" xlink:href="#c"/>
<use x="222.65625" xlink:href="#h"/>
</g>
<!-- 1.20× -->
<g transform="translate(409 25.7) scale(.1 -.1)">
<use xlink:href="#b"/>
<use x="63.623047" xlink:href="#f"/>
<use x="95.410156" xlink:href="#v"/>
<use x="159.033203" xlink:href="#c"/>
<use x="222.65625" xlink:href="#h"/>
</g>
<path d="m491 297v-262" clip-path="url(#a)" fill="none" stroke="#b0b0b0" stroke-linecap="square" stroke-width=".8"/>
<use x="490.815294" y="297.121635" stroke="#000000" stroke-width=".8" xlink:href="#t"/>
<use x="490.815294" y="34.79649" stroke="#000000" stroke-width=".8" xlink:href="#s"/>
<!-- 1.25× -->
<g transform="translate(475 312) scale(.1 -.1)">
<use xlink:href="#b"/>
<use x="63.623047" xlink:href="#f"/>
<use x="95.410156" xlink:href="#v"/>
<use x="159.033203" xlink:href="#aa"/>
<use x="222.65625" xlink:href="#h"/>
</g>
<!-- 1.25× -->
<g transform="translate(475 25.7) scale(.1 -.1)">
<use xlink:href="#b"/>
<use x="63.623047" xlink:href="#f"/>
<use x="95.410156" xlink:href="#v"/>
<use x="159.033203" xlink:href="#aa"/>
<use x="222.65625" xlink:href="#h"/>
</g>
<path d="m558 297v-262" clip-path="url(#a)" fill="none" stroke="#b0b0b0" stroke-linecap="square" stroke-width=".8"/>
<use x="557.682392" y="297.121635" stroke="#000000" stroke-width=".8" xlink:href="#t"/>
<use x="557.682392" y="34.79649" stroke="#000000" stroke-width=".8" xlink:href="#s"/>
<!-- 1.30× -->
<g transform="translate(542 312) scale(.1 -.1)">
<defs>
<path id="af" transform="scale(.0156)" d="m2597 2516q453-97 707-404 255-306 255-756 0-690-475-1069-475-378-1350-378-293 0-604 58t-642 174v609q262-153 574-231 313-78 654-78 593 0 904 234t311 681q0 413-289 645-289 233-804 233h-544v519h569q465 0 712 186t247 536q0 359-255 551-254 193-729 193-260 0-557-57-297-56-653-174v562q360 100 674 150t592 50q719 0 1137-327 419-326 419-882 0-388-222-655t-631-370z"/>
</defs>
<use xlink:href="#b"/>
<use x="63.623047" xlink:href="#f"/>
<use x="95.410156" xlink:href="#af"/>
<use x="159.033203" xlink:href="#c"/>
<use x="222.65625" xlink:href="#h"/>
</g>
<!-- 1.30× -->
<g transform="translate(542 25.7) scale(.1 -.1)">
<use xlink:href="#b"/>
<use x="63.623047" xlink:href="#f"/>
<use x="95.410156" xlink:href="#af"/>
<use x="159.033203" xlink:href="#c"/>
<use x="222.65625" xlink:href="#h"/>
</g>
<path d="m137 271h428" clip-path="url(#a)" fill="none" stroke="#b0b0b0" stroke-linecap="square" stroke-width=".8"/>
<defs>
<path id="p" d="m0 0h-3.5" stroke="#000" stroke-width=".8"/>
</defs>
<use x="137.026803" y="270.889121" stroke="#000000" stroke-width=".8" xlink:href="#p"/>
<!-- pathlib -->
<g transform="translate(95.4 275) scale(.1 -.1)">
<defs>
<path id="i" transform="scale(.0156)" d="m1159 525v-1856h-578v4831h578v-531q182 312 458 463 277 152 661 152 638 0 1036-506 399-506 399-1331t-399-1332q-398-506-1036-506-384 0-661 152-276 152-458 464zm1957 1222q0 634-261 995t-717 361q-457 0-718-361t-261-995 261-995 718-361q456 0 717 361t261 995z"/>
<path id="o" transform="scale(.0156)" d="m2194 1759q-697 0-966-159t-269-544q0-306 202-486 202-179 548-179 479 0 768 339t289 901v128h-572zm1147 238v-2e3h-575v531q-197-318-491-470t-719-152q-537 0-855 302-317 302-317 808 0 590 395 890 396 300 1180 300h807v57q0 397-261 614t-733 217q-300 0-585-72-284-72-546-216v532q315 122 612 182 297 61 578 61 760 0 1135-394 375-393 375-1193z"/>
<path id="g" transform="scale(.0156)" d="m1172 4494v-994h1184v-447h-1184v-1900q0-428 117-550t477-122h590v-481h-590q-666 0-919 248-253 249-253 905v1900h-422v447h422v994h578z"/>
<path id="x" transform="scale(.0156)" d="m3513 2113v-2113h-575v2094q0 497-194 743-194 247-581 247-466 0-735-297-269-296-269-809v-1978h-578v4863h578v-1907q207 316 486 472 280 156 646 156 603 0 912-373 310-373 310-1098z"/>
<path id="ac" transform="scale(.0156)" d="m603 4863h575v-4863h-575v4863z"/>
<path id="e" transform="scale(.0156)" d="m603 3500h575v-3500h-575v3500zm0 1363h575v-729h-575v729z"/>
<path id="ag" transform="scale(.0156)" d="m3116 1747q0 634-261 995t-717 361q-457 0-718-361t-261-995 261-995 718-361q456 0 717 361t261 995zm-1957 1222q182 312 458 463 277 152 661 152 638 0 1036-506 399-506 399-1331t-399-1332q-398-506-1036-506-384 0-661 152-276 152-458 464v-525h-578v4863h578v-1894z"/>
</defs>
<use xlink:href="#i"/>
<use x="63.476562" xlink:href="#o"/>
<use x="124.755859" xlink:href="#g"/>
<use x="163.964844" xlink:href="#x"/>
<use x="227.34375" xlink:href="#ac"/>
<use x="255.126953" xlink:href="#e"/>
<use x="282.910156" xlink:href="#ag"/>
</g>
<path d="m137 245h428" clip-path="url(#a)" fill="none" stroke="#b0b0b0" stroke-linecap="square" stroke-width=".8"/>
<use x="137.026803" y="244.656606" stroke="#000000" stroke-width=".8" xlink:href="#p"/>
<!-- sympy_integrate -->
<g transform="translate(46 248) scale(.1 -.1)">
<defs>
<path id="k" transform="scale(.0156)" d="m2834 3397v-544q-243 125-506 187-262 63-544 63-428 0-642-131t-214-394q0-200 153-314t616-217l197-44q612-131 870-370t258-667q0-488-386-773-386-284-1061-284-281 0-586 55t-642 164v594q319-166 628-249 309-82 613-82 406 0 624 139 219 139 219 392 0 234-158 359-157 125-692 241l-200 47q-534 112-772 345-237 233-237 639 0 494 350 762 350 269 994 269 318 0 599-47 282-46 519-140z"/>
<path id="q" transform="scale(.0156)" d="m2059-325q-243-625-475-815-231-191-618-191h-460v481h338q237 0 368 113 132 112 291 531l103 262-1415 3444h609l1094-2737 1094 2737h609l-1538-3825z"/>
<path id="ab" transform="scale(.0156)" d="m3328 2828q216 388 516 572t706 184q547 0 844-383 297-382 297-1088v-2113h-578v2094q0 503-179 746-178 244-543 244-447 0-707-297-259-296-259-809v-1978h-578v2094q0 506-178 748t-550 242q-441 0-701-298-259-298-259-808v-1978h-578v3500h578v-544q197 322 472 475t653 153q382 0 649-194 267-193 395-562z"/>
<path id="n" transform="scale(.0156)" d="m3263-1063v-446h-3326v446h3326z"/>
<path id="d" transform="scale(.0156)" d="m3513 2113v-2113h-575v2094q0 497-194 743-194 247-581 247-466 0-735-297-269-296-269-809v-1978h-578v3500h578v-544q207 316 486 472 280 156 646 156 603 0 912-373 310-373 310-1098z"/>
<path id="m" transform="scale(.0156)" d="m3597 1894v-281h-2644q38-594 358-905t892-311q331 0 642 81t618 244v-544q-310-131-635-200t-659-69q-838 0-1327 487-489 488-489 1320 0 859 464 1363 464 505 1252 505 706 0 1117-455 411-454 411-1235zm-575 169q-6 471-264 752-258 282-683 282-481 0-770-272t-333-766l2050 4z"/>
<path id="u" transform="scale(.0156)" d="m2906 1791q0 625-258 968-257 344-723 344-462 0-720-344-258-343-258-968 0-622 258-966t720-344q466 0 723 344 258 344 258 966zm575-1357q0-893-397-1329-396-436-1215-436-303 0-572 45t-522 139v559q253-137 500-202 247-66 503-66 566 0 847 295t281 892v285q-178-310-456-463t-666-153q-643 0-1037 490-394 491-394 1301 0 812 394 1302 394 491 1037 491 388 0 666-153t456-462v531h575v-3066z"/>
<path id="r" transform="scale(.0156)" d="m2631 2963q-97 56-211 82-114 27-251 27-488 0-749-317t-261-911v-1844h-578v3500h578v-544q182 319 472 473 291 155 707 155 59 0 131-8 72-7 159-23l3-590z"/>
</defs>
<use xlink:href="#k"/>
<use x="52.099609" xlink:href="#q"/>
<use x="111.279297" xlink:href="#ab"/>
<use x="208.691406" xlink:href="#i"/>
<use x="272.167969" xlink:href="#q"/>
<use x="331.347656" xlink:href="#n"/>
<use x="381.347656" xlink:href="#e"/>
<use x="409.130859" xlink:href="#d"/>
<use x="472.509766" xlink:href="#g"/>
<use x="511.71875" xlink:href="#m"/>
<use x="573.242188" xlink:href="#u"/>
<use x="636.71875" xlink:href="#r"/>
<use x="677.832031" xlink:href="#o"/>
<use x="739.111328" xlink:href="#g"/>
<use x="778.320312" xlink:href="#m"/>
</g>
<path d="m137 218h428" clip-path="url(#a)" fill="none" stroke="#b0b0b0" stroke-linecap="square" stroke-width=".8"/>
<use x="137.026803" y="218.424092" stroke="#000000" stroke-width=".8" xlink:href="#p"/>
<!-- typing_runtime_protocols -->
<g transform="translate(3 222) scale(.1 -.1)">
<defs>
<path id="w" transform="scale(.0156)" d="m544 1381v2119h575v-2097q0-497 193-746 194-248 582-248 465 0 735 297 271 297 271 810v1984h575v-3500h-575v538q-209-319-486-474-276-155-642-155-603 0-916 375-312 375-312 1097zm1447 2203z"/>
<path id="j" transform="scale(.0156)" d="m1959 3097q-462 0-731-361t-269-989 267-989q268-361 733-361 460 0 728 362 269 363 269 988 0 622-269 986-268 364-728 364zm0 487q750 0 1178-488 429-487 429-1349 0-859-429-1349-428-489-1178-489-753 0-1180 489-426 490-426 1349 0 862 426 1349 427 488 1180 488z"/>
<path id="l" transform="scale(.0156)" d="m3122 3366v-538q-244 135-489 202t-495 67q-560 0-870-355-309-354-309-995t309-996q310-354 870-354 250 0 495 67t489 202v-532q-241-112-499-168-257-57-548-57-791 0-1257 497-465 497-465 1341 0 856 470 1346 471 491 1290 491 265 0 518-55 253-54 491-163z"/>
</defs>
<use xlink:href="#g"/>
<use x="39.208984" xlink:href="#q"/>
<use x="98.388672" xlink:href="#i"/>
<use x="161.865234" xlink:href="#e"/>
<use x="189.648438" xlink:href="#d"/>
<use x="253.027344" xlink:href="#u"/>
<use x="316.503906" xlink:href="#n"/>
<use x="366.503906" xlink:href="#r"/>
<use x="407.617188" xlink:href="#w"/>
<use x="470.996094" xlink:href="#d"/>
<use x="534.375" xlink:href="#g"/>
<use x="573.583984" xlink:href="#e"/>
<use x="601.367188" xlink:href="#ab"/>
<use x="698.779297" xlink:href="#m"/>
<use x="760.302734" xlink:href="#n"/>
<use x="810.302734" xlink:href="#i"/>
<use x="873.779297" xlink:href="#r"/>
<use x="912.642578" xlink:href="#j"/>
<use x="973.824219" xlink:href="#g"/>
<use x="1013.033203" xlink:href="#j"/>
<use x="1074.214844" xlink:href="#l"/>
<use x="1129.195312" xlink:href="#j"/>
<use x="1190.376953" xlink:href="#ac"/>
<use x="1218.160156" xlink:href="#k"/>
</g>
<path d="m137 192h428" clip-path="url(#a)" fill="none" stroke="#b0b0b0" stroke-linecap="square" stroke-width=".8"/>
<use x="137.026803" y="192.191577" stroke="#000000" stroke-width=".8" xlink:href="#p"/>
<!-- unpickle_pure_python -->
<g transform="translate(20.3 196) scale(.1 -.1)">
<defs>
<path id="am" transform="scale(.0156)" d="m581 4863h578v-2872l1716 1509h734l-1856-1637 1935-1863h-750l-1779 1709v-1709h-578v4863z"/>
</defs>
<use xlink:href="#w"/>
<use x="63.378906" xlink:href="#d"/>
<use x="126.757812" xlink:href="#i"/>
<use x="190.234375" xlink:href="#e"/>
<use x="218.017578" xlink:href="#l"/>
<use x="272.998047" xlink:href="#am"/>
<use x="330.908203" xlink:href="#ac"/>
<use x="358.691406" xlink:href="#m"/>
<use x="420.214844" xlink:href="#n"/>
<use x="470.214844" xlink:href="#i"/>
<use x="533.691406" xlink:href="#w"/>
<use x="597.070312" xlink:href="#r"/>
<use x="635.933594" xlink:href="#m"/>
<use x="697.457031" xlink:href="#n"/>
<use x="747.457031" xlink:href="#i"/>
<use x="810.933594" xlink:href="#q"/>
<use x="870.113281" xlink:href="#g"/>
<use x="909.322266" xlink:href="#x"/>
<use x="972.701172" xlink:href="#j"/>
<use x="1033.882812" xlink:href="#d"/>
</g>
<path d="m137 166h428" clip-path="url(#a)" fill="none" stroke="#b0b0b0" stroke-linecap="square" stroke-width=".8"/>
<use x="137.026803" y="165.959063" stroke="#000000" stroke-width=".8" xlink:href="#p"/>
<!-- python_startup -->
<g transform="translate(54.1 170) scale(.1 -.1)">
<use xlink:href="#i"/>
<use x="63.476562" xlink:href="#q"/>
<use x="122.65625" xlink:href="#g"/>
<use x="161.865234" xlink:href="#x"/>
<use x="225.244141" xlink:href="#j"/>
<use x="286.425781" xlink:href="#d"/>
<use x="349.804688" xlink:href="#n"/>
<use x="399.804688" xlink:href="#k"/>
<use x="451.904297" xlink:href="#g"/>
<use x="491.113281" xlink:href="#o"/>
<use x="552.392578" xlink:href="#r"/>
<use x="593.505859" xlink:href="#g"/>
<use x="632.714844" xlink:href="#w"/>
<use x="696.09375" xlink:href="#i"/>
</g>
<path d="m137 140h428" clip-path="url(#a)" fill="none" stroke="#b0b0b0" stroke-linecap="square" stroke-width=".8"/>
<use x="137.026803" y="139.726548" stroke="#000000" stroke-width=".8" xlink:href="#p"/>
<!-- python_startup_no_site -->
<g transform="translate(13.6 144) scale(.1 -.1)">
<use xlink:href="#i"/>
<use x="63.476562" xlink:href="#q"/>
<use x="122.65625" xlink:href="#g"/>
<use x="161.865234" xlink:href="#x"/>
<use x="225.244141" xlink:href="#j"/>
<use x="286.425781" xlink:href="#d"/>
<use x="349.804688" xlink:href="#n"/>
<use x="399.804688" xlink:href="#k"/>
<use x="451.904297" xlink:href="#g"/>
<use x="491.113281" xlink:href="#o"/>
<use x="552.392578" xlink:href="#r"/>
<use x="593.505859" xlink:href="#g"/>
<use x="632.714844" xlink:href="#w"/>
<use x="696.09375" xlink:href="#i"/>
<use x="759.570312" xlink:href="#n"/>
<use x="809.570312" xlink:href="#d"/>
<use x="872.949219" xlink:href="#j"/>
<use x="934.130859" xlink:href="#n"/>
<use x="984.130859" xlink:href="#k"/>
<use x="1036.230469" xlink:href="#e"/>
<use x="1064.013672" xlink:href="#g"/>
<use x="1103.222656" xlink:href="#m"/>
</g>
<path d="m137 113h428" clip-path="url(#a)" fill="none" stroke="#b0b0b0" stroke-linecap="square" stroke-width=".8"/>
<use x="137.026803" y="113.494034" stroke="#000000" stroke-width=".8" xlink:href="#p"/>
<!-- bench_mp_pool -->
<g transform="translate(51.9 117) scale(.1 -.1)">
<use xlink:href="#ag"/>
<use x="63.476562" xlink:href="#m"/>
<use x="125" xlink:href="#d"/>
<use x="188.378906" xlink:href="#l"/>
<use x="243.359375" xlink:href="#x"/>
<use x="306.738281" xlink:href="#n"/>
<use x="356.738281" xlink:href="#ab"/>
<use x="454.150391" xlink:href="#i"/>
<use x="517.626953" xlink:href="#n"/>
<use x="567.626953" xlink:href="#i"/>
<use x="631.103516" xlink:href="#j"/>
<use x="692.285156" xlink:href="#j"/>
<use x="753.466797" xlink:href="#ac"/>
</g>
<path d="m137 87.3h428" clip-path="url(#a)" fill="none" stroke="#b0b0b0" stroke-linecap="square" stroke-width=".8"/>
<use x="137.026803" y="87.261519" stroke="#000000" stroke-width=".8" xlink:href="#p"/>
<!-- 2to3 -->
<g transform="translate(107 91.1) scale(.1 -.1)">
<use xlink:href="#v"/>
<use x="63.623047" xlink:href="#g"/>
<use x="102.832031" xlink:href="#j"/>
<use x="164.013672" xlink:href="#af"/>
</g>
<path d="m137 61h428" clip-path="url(#a)" fill="none" stroke="#b0b0b0" stroke-linecap="square" stroke-width=".8"/>
<use x="137.026803" y="61.029005" stroke="#000000" stroke-width=".8" xlink:href="#p"/>
<!-- ALL -->
<g transform="translate(112 64.8) scale(.1 -.1)">
<defs>
<path id="ao" transform="scale(.0156)" d="m2188 4044-857-2322h1716l-859 2322zm-357 622h716l1778-4666h-656l-425 1197h-2103l-425-1197h-666l1781 4666z"/>
<path id="ai" transform="scale(.0156)" d="m628 4666h631v-4135h2272v-531h-2903v4666z"/>
</defs>
<use xlink:href="#ao"/>
<use x="68.408203" xlink:href="#ai"/>
<use x="124.121094" xlink:href="#ai"/>
</g>
<path d="m156 297v-262" clip-path="url(#a)" fill="none" stroke="#1f77b4" stroke-linecap="square" stroke-width="1.5"/>
<g fill="none" stroke="#1f77b4" stroke-width="1.5">
<path d="m156 277v-13.1" clip-path="url(#a)"/>
<path d="m156 251v-13.1" clip-path="url(#a)"/>
<path d="m156 225v-13.1" clip-path="url(#a)"/>
<path d="m156 199v-13.1" clip-path="url(#a)"/>
<path d="m179 173v-13.1" clip-path="url(#a)"/>
<path d="m211 146v-13.1" clip-path="url(#a)"/>
<path d="m261 120v-13.1" clip-path="url(#a)"/>
<path d="m513 93.8v-13.1" clip-path="url(#a)"/>
<path d="m290 67.6v-13.1" clip-path="url(#a)"/>
</g>
<g fill="none" stroke="#1f77b4" stroke-width="1.5">
<path d="m156 277v-13.1" clip-path="url(#a)"/>
<path d="m156 251v-13.1" clip-path="url(#a)"/>
<path d="m156 225v-13.1" clip-path="url(#a)"/>
<path d="m156 199v-13.1" clip-path="url(#a)"/>
<path d="m181 173v-13.1" clip-path="url(#a)"/>
<path d="m233 146v-13.1" clip-path="url(#a)"/>
<path d="m286 120v-13.1" clip-path="url(#a)"/>
<path d="m546 93.8v-13.1" clip-path="url(#a)"/>
<path d="m546 67.6v-13.1" clip-path="url(#a)"/>
</g>
<g fill="none" stroke="#1f77b4" stroke-width="1.5">
<path d="m156 277v-13.1" clip-path="url(#a)"/>
<path d="m156 251v-13.1" clip-path="url(#a)"/>
<path d="m156 225v-13.1" clip-path="url(#a)"/>
<path d="m156 199v-13.1" clip-path="url(#a)"/>
<path d="m170 173v-13.1" clip-path="url(#a)"/>
<path d="m208 146v-13.1" clip-path="url(#a)"/>
<path d="m230 120v-13.1" clip-path="url(#a)"/>
<path d="m470 93.8v-13.1" clip-path="url(#a)"/>
<path d="m156 67.6v-13.1" clip-path="url(#a)"/>
</g>
<g fill="none" stroke="#1f77b4" stroke-width="1.5">
<path d="m156 271" clip-path="url(#a)"/>
<path d="m156 245" clip-path="url(#a)"/>
<path d="m156 218" clip-path="url(#a)"/>
<path d="m156 192" clip-path="url(#a)"/>
<path d="m170 166h11.6" clip-path="url(#a)"/>
<path d="m208 140h25.6" clip-path="url(#a)"/>
<path d="m230 113h56.6" clip-path="url(#a)"/>
<path d="m470 87.3h75.1" clip-path="url(#a)"/>
<path d="m156 61h389" clip-path="url(#a)"/>
</g>
<g fill="none" stroke="#1f77b4" stroke-dasharray="1.5,2.475" stroke-width="1.5">
<path d="m156 277v-13.1" clip-path="url(#a)"/>
<path d="m156 277v-13.1" clip-path="url(#a)"/>
<path d="m156 251v-13.1" clip-path="url(#a)"/>
<path d="m156 251v-13.1" clip-path="url(#a)"/>
<path d="m156 225v-13.1" clip-path="url(#a)"/>
<path d="m156 225v-13.1" clip-path="url(#a)"/>
<path d="m156 199v-13.1" clip-path="url(#a)"/>
<path d="m156 199v-13.1" clip-path="url(#a)"/>
<path d="m177 173v-13.1" clip-path="url(#a)"/>
<path d="m180 173v-13.1" clip-path="url(#a)"/>
<path d="m208 146v-13.1" clip-path="url(#a)"/>
<path d="m225 146v-13.1" clip-path="url(#a)"/>
<path d="m250 120v-13.1" clip-path="url(#a)"/>
<path d="m273 120v-13.1" clip-path="url(#a)"/>
<path d="m492 93.8v-13.1" clip-path="url(#a)"/>
<path d="m532 93.8v-13.1" clip-path="url(#a)"/>
<path d="m180 67.6v-13.1" clip-path="url(#a)"/>
<path d="m518 67.6v-13.1" clip-path="url(#a)"/>
</g>
<path d="m137 297v-262" fill="none" stroke="#000" stroke-linecap="square" stroke-width=".8"/>
<path d="m565 297v-262" fill="none" stroke="#000" stroke-linecap="square" stroke-width=".8"/>
<path d="m137 297h428" fill="none" stroke="#000" stroke-linecap="square" stroke-width=".8"/>
<path d="m137 34.8h428" fill="none" stroke="#000" stroke-linecap="square" stroke-width=".8"/>
<!-- insignificant -->
<g transform="translate(170 271) scale(.1 -.1)">
<defs>
<path id="ad" transform="scale(.0156)" d="m2375 4863v-479h-550q-309 0-430-125-120-125-120-450v-309h947v-447h-947v-3053h-578v3053h-550v447h550v244q0 584 272 851 272 268 862 268h544z"/>
</defs>
<use xlink:href="#e"/>
<use x="27.783203" xlink:href="#d"/>
<use x="91.162109" xlink:href="#k"/>
<use x="143.261719" xlink:href="#e"/>
<use x="171.044922" xlink:href="#u"/>
<use x="234.521484" xlink:href="#d"/>
<use x="297.900391" xlink:href="#e"/>
<use x="325.683594" xlink:href="#ad"/>
<use x="360.888672" xlink:href="#e"/>
<use x="388.671875" xlink:href="#l"/>
<use x="443.652344" xlink:href="#o"/>
<use x="504.931641" xlink:href="#d"/>
<use x="568.310547" xlink:href="#g"/>
</g>
<!-- insignificant -->
<g transform="translate(170 245) scale(.1 -.1)">
<use xlink:href="#e"/>
<use x="27.783203" xlink:href="#d"/>
<use x="91.162109" xlink:href="#k"/>
<use x="143.261719" xlink:href="#e"/>
<use x="171.044922" xlink:href="#u"/>
<use x="234.521484" xlink:href="#d"/>
<use x="297.900391" xlink:href="#e"/>
<use x="325.683594" xlink:href="#ad"/>
<use x="360.888672" xlink:href="#e"/>
<use x="388.671875" xlink:href="#l"/>
<use x="443.652344" xlink:href="#o"/>
<use x="504.931641" xlink:href="#d"/>
<use x="568.310547" xlink:href="#g"/>
</g>
<!-- insignificant -->
<g transform="translate(170 218) scale(.1 -.1)">
<use xlink:href="#e"/>
<use x="27.783203" xlink:href="#d"/>
<use x="91.162109" xlink:href="#k"/>
<use x="143.261719" xlink:href="#e"/>
<use x="171.044922" xlink:href="#u"/>
<use x="234.521484" xlink:href="#d"/>
<use x="297.900391" xlink:href="#e"/>
<use x="325.683594" xlink:href="#ad"/>
<use x="360.888672" xlink:href="#e"/>
<use x="388.671875" xlink:href="#l"/>
<use x="443.652344" xlink:href="#o"/>
<use x="504.931641" xlink:href="#d"/>
<use x="568.310547" xlink:href="#g"/>
</g>
<!-- insignificant -->
<g transform="translate(170 192) scale(.1 -.1)">
<use xlink:href="#e"/>
<use x="27.783203" xlink:href="#d"/>
<use x="91.162109" xlink:href="#k"/>
<use x="143.261719" xlink:href="#e"/>
<use x="171.044922" xlink:href="#u"/>
<use x="234.521484" xlink:href="#d"/>
<use x="297.900391" xlink:href="#e"/>
<use x="325.683594" xlink:href="#ad"/>
<use x="360.888672" xlink:href="#e"/>
<use x="388.671875" xlink:href="#l"/>
<use x="443.652344" xlink:href="#o"/>
<use x="504.931641" xlink:href="#d"/>
<use x="568.310547" xlink:href="#g"/>
</g>
<!-- 1.0166 -->
<g transform="translate(179 158) scale(.08 -.08)">
<defs>
<path id="z" transform="scale(.0156)" d="m2113 2584q-425 0-674-291-248-290-248-796 0-503 248-796 249-292 674-292t673 292q248 293 248 796 0 506-248 796-248 291-673 291zm1253 1979v-575q-238 112-480 171-242 60-480 60-625 0-955-422-329-422-376-1275 184 272 462 417 279 145 613 145 703 0 1111-427 408-426 408-1160 0-719-425-1154-425-434-1131-434-810 0-1238 620-428 621-428 1799 0 1106 525 1764t1409 658q238 0 480-47t505-140z"/>
</defs>
<use xlink:href="#b"/>
<use x="63.623047" xlink:href="#f"/>
<use x="95.410156" xlink:href="#c"/>
<use x="159.033203" xlink:href="#b"/>
<use x="222.65625" xlink:href="#z"/>
<use x="286.279297" xlink:href="#z"/>
</g>
<!-- 1.0406 -->
<g transform="translate(211 132) scale(.08 -.08)">
<defs>
<path id="ae" transform="scale(.0156)" d="m2419 4116-1594-2491h1594v2491zm-166 550h794v-3041h666v-525h-666v-1100h-628v1100h-2106v609l1940 2957z"/>
</defs>
<use xlink:href="#b"/>
<use x="63.623047" xlink:href="#f"/>
<use x="95.410156" xlink:href="#c"/>
<use x="159.033203" xlink:href="#ae"/>
<use x="222.65625" xlink:href="#c"/>
<use x="286.279297" xlink:href="#z"/>
</g>
<!-- 1.0783 -->
<g transform="translate(261 106) scale(.08 -.08)">
<defs>
<path id="y" transform="scale(.0156)" d="m525 4666h3e3v-269l-1694-4397h-659l1594 4134h-2241v532z"/>
<path id="aj" transform="scale(.0156)" d="m2034 2216q-450 0-708-241-257-241-257-662 0-422 257-663 258-241 708-241t709 242q260 243 260 662 0 421-258 662-257 241-711 241zm-631 268q-406 100-633 378-226 279-226 679 0 559 398 884 399 325 1092 325 697 0 1094-325t397-884q0-400-227-679-226-278-629-378 456-106 710-416 255-309 255-755 0-679-414-1042-414-362-1186-362-771 0-1186 362-414 363-414 1042 0 446 256 755 257 310 713 416zm-231 997q0-362 226-565 227-203 636-203 407 0 636 203 230 203 230 565 0 363-230 566-229 203-636 203-409 0-636-203-226-203-226-566z"/>
</defs>
<use xlink:href="#b"/>
<use x="63.623047" xlink:href="#f"/>
<use x="95.410156" xlink:href="#c"/>
<use x="159.033203" xlink:href="#y"/>
<use x="222.65625" xlink:href="#aj"/>
<use x="286.279297" xlink:href="#af"/>
</g>
<!-- 1.2667 -->
<g transform="translate(513 79.4) scale(.08 -.08)">
<use xlink:href="#b"/>
<use x="63.623047" xlink:href="#f"/>
<use x="95.410156" xlink:href="#v"/>
<use x="159.033203" xlink:href="#z"/>
<use x="222.65625" xlink:href="#z"/>
<use x="286.279297" xlink:href="#y"/>
</g>
<!-- 1.1002 -->
<g transform="translate(290 53.2) scale(.08 -.08)">
<use xlink:href="#b"/>
<use x="63.623047" xlink:href="#f"/>
<use x="95.410156" xlink:href="#b"/>
<use x="159.033203" xlink:href="#c"/>
<use x="222.65625" xlink:href="#c"/>
<use x="286.279297" xlink:href="#v"/>
</g>
<!-- more ⟶ -->
<g transform="translate(166 34.8) scale(.1 -.1)">
<defs>
<path id="ap" transform="scale(.0156)" d="m8863 2147v-281l-1229-1228-375 375 729 728h-7622v531h7622l-729 728 375 375 1229-1228z"/>
</defs>
<use xlink:href="#ab"/>
<use x="97.412109" xlink:href="#j"/>
<use x="158.59375" xlink:href="#r"/>
<use x="197.457031" xlink:href="#m"/>
<use x="258.980469" xlink:href="#DejaVuSans-20"/>
<use x="290.767578" xlink:href="#ap"/>
</g>
<!-- ⟵ less -->
<g transform="translate(110 34.8) scale(.1 -.1)">
<defs>
<path id="aq" transform="scale(.0156)" d="m313 1866v281l1228 1228 375-375-728-728h7621v-531h-7621l728-728-375-375-1228 1228z"/>
</defs>
<use xlink:href="#aq"/>
<use x="143.359375" xlink:href="#DejaVuSans-20"/>
<use x="175.146484" xlink:href="#ac"/>
<use x="202.929688" xlink:href="#m"/>
<use x="264.453125" xlink:href="#k"/>
<use x="316.552734" xlink:href="#k"/>
</g>
<!-- Memory usage of python-c4c7097e64b0c9cb0081-c4c7097 vs. 3.14.0a0 -->
<g transform="translate(133 12.1) scale(.12 -.12)">
<defs>
<path id="an" transform="scale(.0156)" d="m628 4666h941l1190-3175 1197 3175h941v-4666h-616v4097l-1203-3200h-634l-1203 3200v-4097h-613v4666z"/>
<path id="ak" transform="scale(.0156)" d="m313 2009h1684v-512h-1684v512z"/>
<path id="ah" transform="scale(.0156)" d="m703 97v575q238-113 481-172 244-59 479-59 625 0 954 420 330 420 377 1277-181-269-460-413-278-144-615-144-700 0-1108 423-408 424-408 1159 0 718 425 1152 425 435 1131 435 810 0 1236-621 427-620 427-1801 0-1103-524-1761-523-658-1407-658-238 0-482 47-243 47-506 141zm1256 1978q425 0 673 290 249 291 249 798 0 503-249 795-248 292-673 292t-673-292-248-795q0-507 248-798 248-290 673-290z"/>
<path id="al" transform="scale(.0156)" d="m191 3500h609l1094-2937 1094 2937h609l-1313-3500h-781l-1312 3500z"/>
</defs>
<use xlink:href="#an"/>
<use x="86.279297" xlink:href="#m"/>
<use x="147.802734" xlink:href="#ab"/>
<use x="245.214844" xlink:href="#j"/>
<use x="306.396484" xlink:href="#r"/>
<use x="347.509766" xlink:href="#q"/>
<use x="406.689453" xlink:href="#DejaVuSans-20"/>
<use x="438.476562" xlink:href="#w"/>
<use x="501.855469" xlink:href="#k"/>
<use x="553.955078" xlink:href="#o"/>
<use x="615.234375" xlink:href="#u"/>
<use x="678.710938" xlink:href="#m"/>
<use x="740.234375" xlink:href="#DejaVuSans-20"/>
<use x="772.021484" xlink:href="#j"/>
<use x="833.203125" xlink:href="#ad"/>
<use x="868.408203" xlink:href="#DejaVuSans-20"/>
<use x="900.195312" xlink:href="#i"/>
<use x="963.671875" xlink:href="#q"/>
<use x="1022.851562" xlink:href="#g"/>
<use x="1062.060547" xlink:href="#x"/>
<use x="1125.439453" xlink:href="#j"/>
<use x="1186.621094" xlink:href="#d"/>
<use x="1250" xlink:href="#ak"/>
<use x="1286.083984" xlink:href="#l"/>
<use x="1341.064453" xlink:href="#ae"/>
<use x="1404.6875" xlink:href="#l"/>
<use x="1459.667969" xlink:href="#y"/>
<use x="1523.291016" xlink:href="#c"/>
<use x="1586.914062" xlink:href="#ah"/>
<use x="1650.537109" xlink:href="#y"/>
<use x="1714.160156" xlink:href="#m"/>
<use x="1775.683594" xlink:href="#z"/>
<use x="1839.306641" xlink:href="#ae"/>
<use x="1902.929688" xlink:href="#ag"/>
<use x="1966.40625" xlink:href="#c"/>
<use x="2030.029297" xlink:href="#l"/>
<use x="2085.009766" xlink:href="#ah"/>
<use x="2148.632812" xlink:href="#l"/>
<use x="2203.613281" xlink:href="#ag"/>
<use x="2267.089844" xlink:href="#c"/>
<use x="2330.712891" xlink:href="#c"/>
<use x="2394.335938" xlink:href="#aj"/>
<use x="2457.958984" xlink:href="#b"/>
<use x="2521.582031" xlink:href="#ak"/>
<use x="2557.666016" xlink:href="#l"/>
<use x="2612.646484" xlink:href="#ae"/>
<use x="2676.269531" xlink:href="#l"/>
<use x="2731.25" xlink:href="#y"/>
<use x="2794.873047" xlink:href="#c"/>
<use x="2858.496094" xlink:href="#ah"/>
<use x="2922.119141" xlink:href="#y"/>
<use x="2985.742188" xlink:href="#DejaVuSans-20"/>
<use x="3017.529297" xlink:href="#al"/>
<use x="3076.708984" xlink:href="#k"/>
<use x="3128.808594" xlink:href="#f"/>
<use x="3160.595703" xlink:href="#DejaVuSans-20"/>
<use x="3192.382812" xlink:href="#af"/>
<use x="3256.005859" xlink:href="#f"/>
<use x="3287.792969" xlink:href="#b"/>
<use x="3351.416016" xlink:href="#ae"/>
<use x="3415.039062" xlink:href="#f"/>
<use x="3446.826172" xlink:href="#c"/>
<use x="3510.449219" xlink:href="#o"/>
<use x="3571.728516" xlink:href="#c"/>
</g>
<defs>
<clipPath id="a">
<rect x="137" y="34.8" width="428" height="262"/>
</clipPath>
</defs>
</svg>
