<?xml version="1.0" encoding="UTF-8"?>
<!DOCTYPE svg  PUBLIC '-//W3C//DTD SVG 1.1//EN'  'http://www.w3.org/Graphics/SVG/1.1/DTD/svg11.dtd'>
<svg width="576pt" height="252pt" version="1.1" viewBox="0 0 576 252" xmlns="http://www.w3.org/2000/svg" xmlns:xlink="http://www.w3.org/1999/xlink">
<defs>
<style type="text/css">*{stroke-linejoin: round; stroke-linecap: butt}</style>
</defs>
<path d="m0 252h576v-252h-576z" fill="#fff"/>
<path d="m126 232h447v-198h-447z" fill="#fff"/>
<path d="m147 190v28.2-28.2z" clip-path="url(#a)" fill="#1f77b4" fill-opacity=".3"/>
<path d="m354 175v2.6l0.446 0.169 0.446 0.183 0.446 0.198 0.446 0.214 0.446 0.23 0.446 0.247 0.446 0.264 0.446 0.281 0.446 0.297 0.446 0.314 0.446 0.329 0.446 0.344 0.446 0.357 0.446 0.37 0.446 0.38 0.446 0.39 0.446 0.398 0.446 0.405 0.446 0.41 0.446 0.414 0.446 0.418 0.446 0.419 0.893 0.839 0.446 0.416 0.446 0.412 0.446 0.405 0.446 0.397 0.446 0.386 0.446 0.372 0.446 0.356 0.446 0.337 0.446 0.316 0.446 0.292 0.446 0.266 0.446 0.238 0.446 0.208 0.446 0.176 0.446 0.143 0.446 0.108 0.446 0.0731 0.446 0.0375 0.446 0.00183 0.446-0.0335 0.446-0.0682 0.446-0.102 0.446-0.134 0.446-0.165 0.446-0.195 0.446-0.222 0.446-0.247 0.446-0.269 0.446-0.29 0.446-0.307 0.446-0.323 0.446-0.335 0.446-0.345 0.446-0.353 0.446-0.358 0.893-0.722 0.446-0.361 0.446-0.358 0.446-0.355 0.446-0.351 0.446-0.346 0.446-0.341 0.446-0.337 0.446-0.332 0.446-0.329 0.446-0.326 0.446-0.323 0.446-0.321 0.446-0.32 0.446-0.318 0.446-0.316 0.446-0.312 0.446-0.308 0.446-0.302 0.446-0.293 0.446-0.283 0.446-0.27 0.446-0.256 0.446-0.239 0.446-0.221 0.446-0.202 0.446-0.182 0.446-0.163 0.446-0.144 0.446-0.126 0.446-0.11 0.446-0.0959 0.446-0.0838 0.446-0.0739 0.446-0.0661 0.446-0.0604 0.446-0.0564 0.446-0.0538 0.446-0.0523v-1.31l-0.446-0.0523-0.446-0.0538-0.446-0.0564-0.446-0.0604-0.446-0.0661-0.446-0.0739-0.446-0.0838-0.446-0.0959-0.446-0.11-0.446-0.126-0.446-0.144-0.446-0.163-0.446-0.182-0.446-0.202-0.446-0.221-0.446-0.239-0.446-0.256-0.446-0.27-0.446-0.283-0.446-0.293-0.446-0.302-0.446-0.308-0.446-0.312-0.446-0.316-0.446-0.318-0.446-0.32-0.446-0.321-0.446-0.323-0.446-0.326-0.446-0.329-0.446-0.332-0.446-0.337-0.446-0.341-0.446-0.346-0.446-0.351-0.446-0.355-0.446-0.358-0.446-0.361-0.893-0.722-0.446-0.358-0.446-0.353-0.446-0.345-0.446-0.335-0.446-0.323-0.446-0.307-0.446-0.29-0.446-0.269-0.446-0.247-0.446-0.222-0.446-0.195-0.446-0.165-0.446-0.134-0.446-0.102-0.446-0.0682-0.446-0.0335-0.446 0.00183-0.446 0.0375-0.446 0.0731-0.446 0.108-0.446 0.143-0.446 0.176-0.446 0.208-0.446 0.238-0.446 0.266-0.446 0.292-0.446 0.316-0.446 0.337-0.446 0.356-0.446 0.372-0.446 0.386-0.446 0.397-0.446 0.405-0.446 0.412-0.446 0.416-1.34 1.26-0.446 0.418-0.446 0.414-0.446 0.41-0.446 0.405-0.446 0.398-0.446 0.39-0.446 0.38-0.446 0.37-0.446 0.357-0.446 0.344-0.446 0.329-0.446 0.314-0.446 0.297-0.446 0.281-0.446 0.264-0.446 0.247-0.446 0.23-0.446 0.214-0.446 0.198-0.446 0.183-0.446 0.169z" clip-path="url(#a)" fill="#1f77b4" fill-opacity=".3"/>
<path d="m468 147v1.57l0.0397-0.00438 0.0397-0.013 0.0397-0.0212 0.0397-0.0286 0.0397-0.0352 0.0397-0.0407 0.0397-0.045 0.0397-0.048 0.0397-0.0497 0.0397-0.0502 0.0397-0.0496 0.0397-0.048 0.0397-0.0456 0.0397-0.0425 0.0397-0.0389 0.0397-0.035 0.0397-0.0309 0.0397-0.0267 0.0397-0.0226 0.0397-0.0186 0.0397-0.0148 0.0397-0.0111 0.0397-0.00753 0.0397-0.00409 0.0397-7.17e-4 0.0397 0.00264 0.0397 0.00605 0.0397 0.00954 0.0397 0.0132 0.0397 0.017 0.0397 0.0209 0.0397 0.025 0.0397 0.0291 0.0397 0.0332 0.0397 0.0372 0.0397 0.041 0.0397 0.0443 0.0397 0.047 0.0397 0.049 0.0794 0.1 0.0397 0.0489 0.0397 0.0464 0.0397 0.0427 0.0397 0.0377 0.0397 0.0316 0.0397 0.0245 0.0397 0.0166 0.0397 0.0081 0.0397-6.26e-4 0.0397-0.00933 0.0397-0.0177 0.0397-0.0255 0.0397-0.0325 0.0397-0.0384 0.0397-0.0431 0.0397-0.0466 0.0397-0.0487 0.0397-0.0495 0.0397-0.049 0.0397-0.0474 0.0397-0.0446 0.0397-0.0407 0.0397-0.0359 0.0397-0.0301 0.0397-0.0233 0.0397-0.0154 0.0397-0.00618 0.0397 0.00458 0.0397 0.0173 0.0397 0.0324 0.0397 0.0504 0.0397 0.0719 0.0397 0.0976 0.0397 0.128 0.0397 0.164 0.0397 0.205 0.0397 0.253 0.0397 0.306 0.0397 0.365 0.0397 0.429 0.0397 0.497 0.0397 0.567 0.0397 0.637 0.0397 0.705 0.0397 0.768 0.0397 0.823 0.0397 0.866 0.0397 0.894 0.0397 0.905 0.0397 0.895 0.0397 0.864 0.0397 0.81 0.0397 0.733 0.0397 0.634 0.0397 0.516 0.0397 0.381 0.0397 0.234 0.0397 0.0788v-28.2l-0.0397 0.0788-0.0397 0.234-0.0397 0.381-0.0397 0.516-0.0397 0.634-0.0397 0.733-0.0397 0.81-0.0397 0.864-0.0397 0.895-0.0397 0.905-0.0397 0.894-0.0397 0.866-0.0397 0.823-0.0397 0.768-0.0397 0.705-0.0397 0.637-0.0397 0.567-0.0397 0.497-0.0397 0.429-0.0397 0.365-0.0397 0.306-0.0397 0.253-0.0397 0.205-0.0397 0.164-0.0397 0.128-0.0397 0.0976-0.0397 0.0719-0.0397 0.0504-0.0397 0.0324-0.0397 0.0173-0.0397 0.00458-0.0397-0.00618-0.0397-0.0154-0.0397-0.0233-0.0397-0.0301-0.0397-0.0359-0.0397-0.0407-0.0397-0.0446-0.0397-0.0474-0.0397-0.049-0.0397-0.0495-0.0397-0.0487-0.0397-0.0466-0.0397-0.0431-0.0397-0.0384-0.0397-0.0325-0.0397-0.0255-0.0397-0.0177-0.0397-0.00933-0.0397-6.26e-4 -0.0397 0.0081-0.0397 0.0166-0.0397 0.0245-0.0397 0.0316-0.0397 0.0377-0.0397 0.0427-0.0397 0.0464-0.0397 0.0489-0.0794 0.1-0.0397 0.049-0.0397 0.047-0.0397 0.0443-0.0397 0.041-0.0397 0.0372-0.0397 0.0332-0.0397 0.0291-0.0397 0.025-0.0397 0.0209-0.0397 0.017-0.0397 0.0132-0.0397 0.00954-0.0397 0.00605-0.0397 0.00264-0.0397-7.18e-4 -0.0397-0.00409-0.0397-0.00753-0.0397-0.0111-0.0397-0.0148-0.0397-0.0186-0.0397-0.0226-0.0397-0.0267-0.0397-0.0309-0.0397-0.035-0.0397-0.0389-0.0397-0.0425-0.0397-0.0456-0.0397-0.048-0.0397-0.0496-0.0397-0.0502-0.0397-0.0497-0.0397-0.048-0.0397-0.045-0.0397-0.0407-0.0397-0.0352-0.0397-0.0286-0.0397-0.0212-0.0397-0.013-0.0397-0.00438z" clip-path="url(#a)" fill="#1f77b4" fill-opacity=".3"/>
<path d="m506 105v28.2l0.0166-0.0499 0.0166-0.149 0.0166-0.244 0.0166-0.335 0.0166-0.418 0.0166-0.493 0.0166-0.559 0.0166-0.614 0.0166-0.657 0.0166-0.689 0.0166-0.71 0.0166-0.719 0.0166-0.718 0.0166-0.707 0.0166-0.688 0.0166-0.661 0.0166-0.629 0.0166-0.591 0.0166-0.55 0.0166-0.507 0.0166-0.463 0.0166-0.418 0.0166-0.374 0.0166-0.332 0.0166-0.292 0.0166-0.255 0.0166-0.22 0.0166-0.189 0.0166-0.161 0.0166-0.135 0.0166-0.113 0.0166-0.0939 0.0166-0.0772 0.0166-0.063 0.0166-0.051 0.0166-0.041 0.0166-0.0327 0.0166-0.0258 0.0166-0.0203 0.0166-0.0158 0.0166-0.0122 0.0166-0.00934 0.0166-0.0071 0.0166-0.00536 0.0166-4e-3 0.0166-0.00297 0.0166-0.00217 0.0166-0.00157 0.0166-0.00111 0.0166-7.54e-4 0.0166-4.76e-4 0.0166-2.52e-4 0.0166-5.9e-5 0.0166 1.19e-4 0.0166 2.98e-4 0.0166 4.94e-4 0.0166 7.2e-4 0.0166 9.9e-4 0.0166 0.00132 0.0166 0.00173 0.0166 0.00224 0.0166 0.00286 0.0166 0.00362 0.0166 0.00455 0.0166 0.00567 0.0166 7e-3 0.0166 0.00858 0.0166 0.0104 0.0166 0.0126 0.0166 0.015 0.0166 0.0178 0.0166 0.021 0.0166 0.0245 0.0166 0.0283 0.0166 0.0325 0.0166 0.0369 0.0166 0.0416 0.0166 0.0465 0.0166 0.0514 0.0166 0.0563 0.0166 0.0611 0.0166 0.0657 0.0166 0.0698 0.0166 0.0735 0.0166 0.0764 0.0166 0.0786 0.0166 0.0798 0.0166 0.0799 0.0166 0.0788 0.0166 0.0766 0.0166 0.073 0.0166 0.0682 0.0166 0.0621 0.0166 0.0548 0.0166 0.0465 0.0166 0.0372 0.0166 0.0271 0.0166 0.0165 0.0166 0.00554v-3.14l-0.0166 0.00554-0.0166 0.0165-0.0166 0.0271-0.0166 0.0372-0.0166 0.0465-0.0166 0.0548-0.0166 0.0621-0.0166 0.0682-0.0166 0.073-0.0166 0.0766-0.0166 0.0788-0.0166 0.0799-0.0166 0.0798-0.0166 0.0786-0.0166 0.0764-0.0166 0.0735-0.0166 0.0698-0.0166 0.0657-0.0166 0.0611-0.0166 0.0563-0.0166 0.0514-0.0166 0.0465-0.0166 0.0416-0.0166 0.0369-0.0166 0.0325-0.0166 0.0283-0.0166 0.0245-0.0166 0.021-0.0166 0.0178-0.0166 0.015-0.0166 0.0126-0.0166 0.0104-0.0166 0.00858-0.0166 7e-3 -0.0166 0.00567-0.0166 0.00455-0.0166 0.00362-0.0166 0.00286-0.0166 0.00224-0.0166 0.00173-0.0166 0.00132-0.0166 9.9e-4 -0.0166 7.2e-4 -0.0166 4.94e-4 -0.0166 2.99e-4 -0.0166 1.19e-4 -0.0166-6e-5 -0.0166-2.52e-4 -0.0166-4.76e-4 -0.0166-7.54e-4 -0.0166-0.00111-0.0166-0.00157-0.0166-0.00217-0.0166-0.00297-0.0166-4e-3 -0.0166-0.00536-0.0166-0.0071-0.0166-0.00934-0.0166-0.0122-0.0166-0.0158-0.0166-0.0203-0.0166-0.0258-0.0166-0.0327-0.0166-0.041-0.0166-0.051-0.0166-0.063-0.0166-0.0772-0.0166-0.0939-0.0166-0.113-0.0166-0.135-0.0166-0.161-0.0166-0.189-0.0166-0.22-0.0166-0.255-0.0166-0.292-0.0166-0.332-0.0166-0.374-0.0166-0.418-0.0166-0.463-0.0166-0.507-0.0166-0.55-0.0166-0.591-0.0166-0.629-0.0166-0.661-0.0166-0.688-0.0166-0.707-0.0166-0.718-0.0166-0.719-0.0166-0.71-0.0166-0.689-0.0166-0.657-0.0166-0.614-0.0166-0.559-0.0166-0.493-0.0166-0.418-0.0166-0.335-0.0166-0.244-0.0166-0.149-0.0166-0.0499z" clip-path="url(#a)" fill="#1f77b4" fill-opacity=".3"/>
<path d="m488 89.9v2.66l0.651 0.143 0.651 0.145 1.95 0.436 1.3 0.28 1.3 0.269 5.2 1.03 0.651 0.13 0.651 0.13 0.651 0.132 0.651 0.134 0.651 0.137 0.651 0.141 0.651 0.147 0.651 0.154 0.651 0.164 0.651 0.176 0.651 0.189 0.651 0.205 0.651 0.221 0.651 0.239 0.651 0.257 0.651 0.274 0.651 0.291 0.651 0.307 0.651 0.321 0.651 0.333 0.651 0.343 0.651 0.351 0.651 0.358 0.651 0.362 0.651 0.365 2.6 1.46 0.651 0.359 0.651 0.354 0.651 0.345 0.651 0.334 0.651 0.319 0.651 0.3 0.651 0.276 0.651 0.247 0.651 0.212 0.651 0.172 0.651 0.127 0.651 0.0781 0.651 0.0261 0.651-0.0276 0.651-0.0818 0.651-0.135 0.651-0.187 0.651-0.235 0.651-0.28 0.651-0.322 0.651-0.359 0.651-0.393 0.651-0.423 0.651-0.45 0.651-0.473 0.651-0.494 0.651-0.511 0.651-0.526 0.651-0.537 1.95-1.64 0.651-0.538 0.651-0.527 0.651-0.511 0.651-0.49 0.651-0.465 0.651-0.437 0.651-0.406 0.651-0.373 0.651-0.339 0.651-0.305 0.651-0.272 0.651-0.24 0.651-0.21 0.651-0.184 0.651-0.16 0.651-0.139 0.651-0.122 0.651-0.108 0.651-0.0976 0.651-0.0895 0.651-0.0836v-1.88l-0.651-0.0836-0.651-0.0895-0.651-0.0976-0.651-0.108-0.651-0.122-0.651-0.139-0.651-0.16-0.651-0.184-0.651-0.21-0.651-0.24-0.651-0.272-0.651-0.305-0.651-0.339-0.651-0.373-0.651-0.406-0.651-0.437-0.651-0.465-0.651-0.49-0.651-0.511-0.651-0.527-0.651-0.538-0.651-0.545-1.3-1.09-0.651-0.537-0.651-0.526-0.651-0.511-0.651-0.494-0.651-0.473-0.651-0.45-0.651-0.423-0.651-0.393-0.651-0.359-0.651-0.322-0.651-0.28-0.651-0.235-0.651-0.187-0.651-0.135-0.651-0.0818-0.651-0.0276-0.651 0.0261-0.651 0.0781-0.651 0.127-0.651 0.172-0.651 0.212-0.651 0.247-0.651 0.276-0.651 0.3-0.651 0.319-0.651 0.334-0.651 0.345-0.651 0.354-0.651 0.359-2.6 1.46-0.651 0.365-0.651 0.362-0.651 0.358-0.651 0.351-0.651 0.343-0.651 0.333-0.651 0.321-0.651 0.307-0.651 0.291-0.651 0.274-0.651 0.257-0.651 0.239-0.651 0.221-0.651 0.205-0.651 0.189-0.651 0.176-0.651 0.164-0.651 0.154-0.651 0.147-0.651 0.141-0.651 0.137-0.651 0.134-0.651 0.132-0.651 0.13-0.651 0.13-0.651 0.129-0.651 0.128-3.9 0.772-1.3 0.269-1.3 0.28-2.6 0.581-0.651 0.143z" clip-path="url(#a)" fill="#1f77b4" fill-opacity=".3"/>
<path d="m147 63v0.0467l32.8-0.0222 28.7-0.00117h4.1 4.1 4.1 4.1 4.1 4.1 4.1 4.1 4.1 4.1 4.1 4.1 4.1 4.1 4.1 4.1 4.1 4.1 4.1l24.6 0.00177 4.1 0.00353 4.1 0.00931 4.1 0.0226 4.1 0.0502 4.1 0.103 4.1 0.192 4.1 0.331 4.1 0.522 4.1 0.752 4.1 0.988 4.1 1.17 4.1 1.24 4.1 1.15 4.1 0.873 4.1 0.442 4.1-0.0678 4.1-0.561 4.1-0.946 4.1-1.17 4.1-1.21 4.1-1.11 4.1-0.922 4.1-0.697 4.1-0.484 4.1-0.31 4.1-0.182 4.1-0.0953 4.1-0.0355 4.1 0.0168 4.1 0.0859 4.1 0.201 4.1 0.391 4.1 0.675 4.1 1.04 4.1 1.41 4.1 1.69 4.1 1.73 4.1 1.48 4.1 0.951 4.1 0.329 4.1-0.15 4.1-0.288 4.1-0.0343 4.1 0.481 4.1 1 4.1 1.27 4.1 1.13 4.1 0.638 4.1-0.0493 4.1-0.713 4.1-1.2 4.1-1.46 4.1-1.54 4.1-1.51 4.1-1.44 4.1-1.34 4.1-1.2 4.1-1.03 4.1-0.834v-3.59l-4.1-0.834-4.1-1.03-4.1-1.2-4.1-1.34-4.1-1.44-4.1-1.51-4.1-1.54-4.1-1.46-4.1-1.2-4.1-0.713-4.1-0.0493-4.1 0.638-4.1 1.13-4.1 1.27-4.1 1-4.1 0.481-4.1-0.0343-4.1-0.288-4.1-0.15-4.1 0.329-4.1 0.951-4.1 1.48-4.1 1.73-4.1 1.69-4.1 1.41-4.1 1.04-4.1 0.675-4.1 0.391-4.1 0.201-4.1 0.0859-4.1 0.0168-4.1-0.0355-4.1-0.0953-4.1-0.182-4.1-0.31-4.1-0.484-4.1-0.697-4.1-0.922-4.1-1.11-4.1-1.21-4.1-1.17-4.1-0.946-4.1-0.561-4.1-0.0678-4.1 0.442-4.1 0.873-4.1 1.15-4.1 1.24-4.1 1.17-4.1 0.988-4.1 0.752-4.1 0.522-4.1 0.331-4.1 0.192-4.1 0.103-4.1 0.0502-4.1 0.0226-4.1 0.00931-4.1 0.00353-28.7 0.00177h-4.1-4.1-4.1-4.1-4.1-4.1-4.1-4.1-4.1-4.1-4.1-4.1-4.1-4.1-4.1-4.1-4.1l-41-0.00434-24.6-0.019z" clip-path="url(#a)" fill="#1f77b4" fill-opacity=".3"/>
<path d="m147 232v-198" clip-path="url(#a)" fill="none" stroke="#b0b0b0" stroke-linecap="square" stroke-width=".8"/>
<defs>
<path id="m" d="m0 0v3.5" stroke="#000" stroke-width=".8"/>
</defs>
<use x="146.770318" y="232.321635" stroke="#000000" stroke-width=".8" xlink:href="#m"/>
<defs>
<path id="n" d="m0 0v-3.5" stroke="#000" stroke-width=".8"/>
</defs>
<use x="146.770318" y="34.79649" stroke="#000000" stroke-width=".8" xlink:href="#n"/>
<!-- 1.00× -->
<g transform="translate(131 247) scale(.1 -.1)">
<defs>
<path id="b" transform="scale(.0156)" d="m794 531h1031v3560l-1122-225v575l1116 225h631v-4135h1031v-531h-2687v531z"/>
<path id="c" transform="scale(.0156)" d="m684 794h660v-794h-660v794z"/>
<path id="e" transform="scale(.0156)" d="m2034 4250q-487 0-733-480-245-479-245-1442 0-959 245-1439 246-480 733-480 491 0 736 480 246 480 246 1439 0 963-246 1442-245 480-736 480zm0 500q785 0 1199-621 414-620 414-1801 0-1178-414-1799-414-620-1199-620-784 0-1198 620-414 621-414 1799 0 1181 414 1801 414 621 1198 621z"/>
<path id="d" transform="scale(.0156)" d="m4488 3438-1429-1435 1429-1428-372-378-1435 1434-1434-1434-369 378 1425 1428-1425 1435 369 378 1434-1435 1435 1435 372-378z"/>
</defs>
<use xlink:href="#b"/>
<use x="63.623047" xlink:href="#c"/>
<use x="95.410156" xlink:href="#e"/>
<use x="159.033203" xlink:href="#e"/>
<use x="222.65625" xlink:href="#d"/>
</g>
<!-- 1.00× -->
<g transform="translate(131 25.7) scale(.1 -.1)">
<use xlink:href="#b"/>
<use x="63.623047" xlink:href="#c"/>
<use x="95.410156" xlink:href="#e"/>
<use x="159.033203" xlink:href="#e"/>
<use x="222.65625" xlink:href="#d"/>
</g>
<path d="m198 232v-198" clip-path="url(#a)" fill="none" stroke="#b0b0b0" stroke-linecap="square" stroke-width=".8"/>
<use x="197.782752" y="232.321635" stroke="#000000" stroke-width=".8" xlink:href="#m"/>
<use x="197.782752" y="34.79649" stroke="#000000" stroke-width=".8" xlink:href="#n"/>
<!-- 1.05× -->
<g transform="translate(182 247) scale(.1 -.1)">
<defs>
<path id="k" transform="scale(.0156)" d="m691 4666h2478v-532h-1900v-1143q137 47 274 70 138 23 276 23 781 0 1237-428 457-428 457-1159 0-753-469-1171-469-417-1322-417-294 0-599 50-304 50-629 150v635q281-153 581-228t634-75q541 0 856 284 316 284 316 772 0 487-316 771-315 285-856 285-253 0-505-56-251-56-513-175v2344z"/>
</defs>
<use xlink:href="#b"/>
<use x="63.623047" xlink:href="#c"/>
<use x="95.410156" xlink:href="#e"/>
<use x="159.033203" xlink:href="#k"/>
<use x="222.65625" xlink:href="#d"/>
</g>
<!-- 1.05× -->
<g transform="translate(182 25.7) scale(.1 -.1)">
<use xlink:href="#b"/>
<use x="63.623047" xlink:href="#c"/>
<use x="95.410156" xlink:href="#e"/>
<use x="159.033203" xlink:href="#k"/>
<use x="222.65625" xlink:href="#d"/>
</g>
<path d="m249 232v-198" clip-path="url(#a)" fill="none" stroke="#b0b0b0" stroke-linecap="square" stroke-width=".8"/>
<use x="248.795187" y="232.321635" stroke="#000000" stroke-width=".8" xlink:href="#m"/>
<use x="248.795187" y="34.79649" stroke="#000000" stroke-width=".8" xlink:href="#n"/>
<!-- 1.10× -->
<g transform="translate(233 247) scale(.1 -.1)">
<use xlink:href="#b"/>
<use x="63.623047" xlink:href="#c"/>
<use x="95.410156" xlink:href="#b"/>
<use x="159.033203" xlink:href="#e"/>
<use x="222.65625" xlink:href="#d"/>
</g>
<!-- 1.10× -->
<g transform="translate(233 25.7) scale(.1 -.1)">
<use xlink:href="#b"/>
<use x="63.623047" xlink:href="#c"/>
<use x="95.410156" xlink:href="#b"/>
<use x="159.033203" xlink:href="#e"/>
<use x="222.65625" xlink:href="#d"/>
</g>
<path d="m300 232v-198" clip-path="url(#a)" fill="none" stroke="#b0b0b0" stroke-linecap="square" stroke-width=".8"/>
<use x="299.807621" y="232.321635" stroke="#000000" stroke-width=".8" xlink:href="#m"/>
<use x="299.807621" y="34.79649" stroke="#000000" stroke-width=".8" xlink:href="#n"/>
<!-- 1.15× -->
<g transform="translate(284 247) scale(.1 -.1)">
<use xlink:href="#b"/>
<use x="63.623047" xlink:href="#c"/>
<use x="95.410156" xlink:href="#b"/>
<use x="159.033203" xlink:href="#k"/>
<use x="222.65625" xlink:href="#d"/>
</g>
<!-- 1.15× -->
<g transform="translate(284 25.7) scale(.1 -.1)">
<use xlink:href="#b"/>
<use x="63.623047" xlink:href="#c"/>
<use x="95.410156" xlink:href="#b"/>
<use x="159.033203" xlink:href="#k"/>
<use x="222.65625" xlink:href="#d"/>
</g>
<path d="m351 232v-198" clip-path="url(#a)" fill="none" stroke="#b0b0b0" stroke-linecap="square" stroke-width=".8"/>
<use x="350.820056" y="232.321635" stroke="#000000" stroke-width=".8" xlink:href="#m"/>
<use x="350.820056" y="34.79649" stroke="#000000" stroke-width=".8" xlink:href="#n"/>
<!-- 1.20× -->
<g transform="translate(335 247) scale(.1 -.1)">
<defs>
<path id="l" transform="scale(.0156)" d="m1228 531h2203v-531h-2962v531q359 372 979 998 621 627 780 809 303 340 423 576 121 236 121 464 0 372-261 606-261 235-680 235-297 0-627-103-329-103-704-313v638q381 153 712 231 332 78 607 78 725 0 1156-363 431-362 431-968 0-288-108-546-107-257-392-607-78-91-497-524-418-433-1181-1211z"/>
</defs>
<use xlink:href="#b"/>
<use x="63.623047" xlink:href="#c"/>
<use x="95.410156" xlink:href="#l"/>
<use x="159.033203" xlink:href="#e"/>
<use x="222.65625" xlink:href="#d"/>
</g>
<!-- 1.20× -->
<g transform="translate(335 25.7) scale(.1 -.1)">
<use xlink:href="#b"/>
<use x="63.623047" xlink:href="#c"/>
<use x="95.410156" xlink:href="#l"/>
<use x="159.033203" xlink:href="#e"/>
<use x="222.65625" xlink:href="#d"/>
</g>
<path d="m402 232v-198" clip-path="url(#a)" fill="none" stroke="#b0b0b0" stroke-linecap="square" stroke-width=".8"/>
<use x="401.83249" y="232.321635" stroke="#000000" stroke-width=".8" xlink:href="#m"/>
<use x="401.83249" y="34.79649" stroke="#000000" stroke-width=".8" xlink:href="#n"/>
<!-- 1.25× -->
<g transform="translate(387 247) scale(.1 -.1)">
<use xlink:href="#b"/>
<use x="63.623047" xlink:href="#c"/>
<use x="95.410156" xlink:href="#l"/>
<use x="159.033203" xlink:href="#k"/>
<use x="222.65625" xlink:href="#d"/>
</g>
<!-- 1.25× -->
<g transform="translate(387 25.7) scale(.1 -.1)">
<use xlink:href="#b"/>
<use x="63.623047" xlink:href="#c"/>
<use x="95.410156" xlink:href="#l"/>
<use x="159.033203" xlink:href="#k"/>
<use x="222.65625" xlink:href="#d"/>
</g>
<path d="m453 232v-198" clip-path="url(#a)" fill="none" stroke="#b0b0b0" stroke-linecap="square" stroke-width=".8"/>
<use x="452.844925" y="232.321635" stroke="#000000" stroke-width=".8" xlink:href="#m"/>
<use x="452.844925" y="34.79649" stroke="#000000" stroke-width=".8" xlink:href="#n"/>
<!-- 1.30× -->
<g transform="translate(438 247) scale(.1 -.1)">
<defs>
<path id="g" transform="scale(.0156)" d="m2597 2516q453-97 707-404 255-306 255-756 0-690-475-1069-475-378-1350-378-293 0-604 58t-642 174v609q262-153 574-231 313-78 654-78 593 0 904 234t311 681q0 413-289 645-289 233-804 233h-544v519h569q465 0 712 186t247 536q0 359-255 551-254 193-729 193-260 0-557-57-297-56-653-174v562q360 100 674 150t592 50q719 0 1137-327 419-326 419-882 0-388-222-655t-631-370z"/>
</defs>
<use xlink:href="#b"/>
<use x="63.623047" xlink:href="#c"/>
<use x="95.410156" xlink:href="#g"/>
<use x="159.033203" xlink:href="#e"/>
<use x="222.65625" xlink:href="#d"/>
</g>
<!-- 1.30× -->
<g transform="translate(438 25.7) scale(.1 -.1)">
<use xlink:href="#b"/>
<use x="63.623047" xlink:href="#c"/>
<use x="95.410156" xlink:href="#g"/>
<use x="159.033203" xlink:href="#e"/>
<use x="222.65625" xlink:href="#d"/>
</g>
<path d="m504 232v-198" clip-path="url(#a)" fill="none" stroke="#b0b0b0" stroke-linecap="square" stroke-width=".8"/>
<use x="503.85736" y="232.321635" stroke="#000000" stroke-width=".8" xlink:href="#m"/>
<use x="503.85736" y="34.79649" stroke="#000000" stroke-width=".8" xlink:href="#n"/>
<!-- 1.35× -->
<g transform="translate(489 247) scale(.1 -.1)">
<use xlink:href="#b"/>
<use x="63.623047" xlink:href="#c"/>
<use x="95.410156" xlink:href="#g"/>
<use x="159.033203" xlink:href="#k"/>
<use x="222.65625" xlink:href="#d"/>
</g>
<!-- 1.35× -->
<g transform="translate(489 25.7) scale(.1 -.1)">
<use xlink:href="#b"/>
<use x="63.623047" xlink:href="#c"/>
<use x="95.410156" xlink:href="#g"/>
<use x="159.033203" xlink:href="#k"/>
<use x="222.65625" xlink:href="#d"/>
</g>
<path d="m555 232v-198" clip-path="url(#a)" fill="none" stroke="#b0b0b0" stroke-linecap="square" stroke-width=".8"/>
<use x="554.869794" y="232.321635" stroke="#000000" stroke-width=".8" xlink:href="#m"/>
<use x="554.869794" y="34.79649" stroke="#000000" stroke-width=".8" xlink:href="#n"/>
<!-- 1.40× -->
<g transform="translate(540 247) scale(.1 -.1)">
<defs>
<path id="r" transform="scale(.0156)" d="m2419 4116-1594-2491h1594v2491zm-166 550h794v-3041h666v-525h-666v-1100h-628v1100h-2106v609l1940 2957z"/>
</defs>
<use xlink:href="#b"/>
<use x="63.623047" xlink:href="#c"/>
<use x="95.410156" xlink:href="#r"/>
<use x="159.033203" xlink:href="#e"/>
<use x="222.65625" xlink:href="#d"/>
</g>
<!-- 1.40× -->
<g transform="translate(540 25.7) scale(.1 -.1)">
<use xlink:href="#b"/>
<use x="63.623047" xlink:href="#c"/>
<use x="95.410156" xlink:href="#r"/>
<use x="159.033203" xlink:href="#e"/>
<use x="222.65625" xlink:href="#d"/>
</g>
<path d="m126 204h447" clip-path="url(#a)" fill="none" stroke="#b0b0b0" stroke-linecap="square" stroke-width=".8"/>
<defs>
<path id="u" d="m0 0h-3.5" stroke="#000" stroke-width=".8"/>
</defs>
<use x="126.473678" y="204.103757" stroke="#000000" stroke-width=".8" xlink:href="#u"/>
<!-- async_tree_none_tg -->
<g transform="translate(20.1 208) scale(.1 -.1)">
<defs>
<path id="j" transform="scale(.0156)" d="m2194 1759q-697 0-966-159t-269-544q0-306 202-486 202-179 548-179 479 0 768 339t289 901v128h-572zm1147 238v-2e3h-575v531q-197-318-491-470t-719-152q-537 0-855 302-317 302-317 808 0 590 395 890 396 300 1180 300h807v57q0 397-261 614t-733 217q-300 0-585-72-284-72-546-216v532q315 122 612 182 297 61 578 61 760 0 1135-394 375-393 375-1193z"/>
<path id="o" transform="scale(.0156)" d="m2834 3397v-544q-243 125-506 187-262 63-544 63-428 0-642-131t-214-394q0-200 153-314t616-217l197-44q612-131 870-370t258-667q0-488-386-773-386-284-1061-284-281 0-586 55t-642 164v594q319-166 628-249 309-82 613-82 406 0 624 139 219 139 219 392 0 234-158 359-157 125-692 241l-200 47q-534 112-772 345-237 233-237 639 0 494 350 762 350 269 994 269 318 0 599-47 282-46 519-140z"/>
<path id="v" transform="scale(.0156)" d="m2059-325q-243-625-475-815-231-191-618-191h-460v481h338q237 0 368 113 132 112 291 531l103 262-1415 3444h609l1094-2737 1094 2737h609l-1538-3825z"/>
<path id="i" transform="scale(.0156)" d="m3513 2113v-2113h-575v2094q0 497-194 743-194 247-581 247-466 0-735-297-269-296-269-809v-1978h-578v3500h578v-544q207 316 486 472 280 156 646 156 603 0 912-373 310-373 310-1098z"/>
<path id="t" transform="scale(.0156)" d="m3122 3366v-538q-244 135-489 202t-495 67q-560 0-870-355-309-354-309-995t309-996q310-354 870-354 250 0 495 67t489 202v-532q-241-112-499-168-257-57-548-57-791 0-1257 497-465 497-465 1341 0 856 470 1346 471 491 1290 491 265 0 518-55 253-54 491-163z"/>
<path id="q" transform="scale(.0156)" d="m3263-1063v-446h-3326v446h3326z"/>
<path id="f" transform="scale(.0156)" d="m1172 4494v-994h1184v-447h-1184v-1900q0-428 117-550t477-122h590v-481h-590q-666 0-919 248-253 249-253 905v1900h-422v447h422v994h578z"/>
<path id="w" transform="scale(.0156)" d="m2631 2963q-97 56-211 82-114 27-251 27-488 0-749-317t-261-911v-1844h-578v3500h578v-544q182 319 472 473 291 155 707 155 59 0 131-8 72-7 159-23l3-590z"/>
<path id="p" transform="scale(.0156)" d="m3597 1894v-281h-2644q38-594 358-905t892-311q331 0 642 81t618 244v-544q-310-131-635-200t-659-69q-838 0-1327 487-489 488-489 1320 0 859 464 1363 464 505 1252 505 706 0 1117-455 411-454 411-1235zm-575 169q-6 471-264 752-258 282-683 282-481 0-770-272t-333-766l2050 4z"/>
<path id="h" transform="scale(.0156)" d="m1959 3097q-462 0-731-361t-269-989 267-989q268-361 733-361 460 0 728 362 269 363 269 988 0 622-269 986-268 364-728 364zm0 487q750 0 1178-488 429-487 429-1349 0-859-429-1349-428-489-1178-489-753 0-1180 489-426 490-426 1349 0 862 426 1349 427 488 1180 488z"/>
<path id="ad" transform="scale(.0156)" d="m2906 1791q0 625-258 968-257 344-723 344-462 0-720-344-258-343-258-968 0-622 258-966t720-344q466 0 723 344 258 344 258 966zm575-1357q0-893-397-1329-396-436-1215-436-303 0-572 45t-522 139v559q253-137 500-202 247-66 503-66 566 0 847 295t281 892v285q-178-310-456-463t-666-153q-643 0-1037 490-394 491-394 1301 0 812 394 1302 394 491 1037 491 388 0 666-153t456-462v531h575v-3066z"/>
</defs>
<use xlink:href="#j"/>
<use x="61.279297" xlink:href="#o"/>
<use x="113.378906" xlink:href="#v"/>
<use x="172.558594" xlink:href="#i"/>
<use x="235.9375" xlink:href="#t"/>
<use x="290.917969" xlink:href="#q"/>
<use x="340.917969" xlink:href="#f"/>
<use x="380.126953" xlink:href="#w"/>
<use x="418.990234" xlink:href="#p"/>
<use x="480.513672" xlink:href="#p"/>
<use x="542.037109" xlink:href="#q"/>
<use x="592.037109" xlink:href="#i"/>
<use x="655.416016" xlink:href="#h"/>
<use x="716.597656" xlink:href="#i"/>
<use x="779.976562" xlink:href="#p"/>
<use x="841.5" xlink:href="#q"/>
<use x="891.5" xlink:href="#f"/>
<use x="930.708984" xlink:href="#ad"/>
</g>
<path d="m126 176h447" clip-path="url(#a)" fill="none" stroke="#b0b0b0" stroke-linecap="square" stroke-width=".8"/>
<use x="126.473678" y="175.885879" stroke="#000000" stroke-width=".8" xlink:href="#u"/>
<!-- bench_mp_pool -->
<g transform="translate(41.3 180) scale(.1 -.1)">
<defs>
<path id="ag" transform="scale(.0156)" d="m3116 1747q0 634-261 995t-717 361q-457 0-718-361t-261-995 261-995 718-361q456 0 717 361t261 995zm-1957 1222q182 312 458 463 277 152 661 152 638 0 1036-506 399-506 399-1331t-399-1332q-398-506-1036-506-384 0-661 152-276 152-458 464v-525h-578v4863h578v-1894z"/>
<path id="aa" transform="scale(.0156)" d="m3513 2113v-2113h-575v2094q0 497-194 743-194 247-581 247-466 0-735-297-269-296-269-809v-1978h-578v4863h578v-1907q207 316 486 472 280 156 646 156 603 0 912-373 310-373 310-1098z"/>
<path id="ac" transform="scale(.0156)" d="m3328 2828q216 388 516 572t706 184q547 0 844-383 297-382 297-1088v-2113h-578v2094q0 503-179 746-178 244-543 244-447 0-707-297-259-296-259-809v-1978h-578v2094q0 506-178 748t-550 242q-441 0-701-298-259-298-259-808v-1978h-578v3500h578v-544q197 322 472 475t653 153q382 0 649-194 267-193 395-562z"/>
<path id="s" transform="scale(.0156)" d="m1159 525v-1856h-578v4831h578v-531q182 312 458 463 277 152 661 152 638 0 1036-506 399-506 399-1331t-399-1332q-398-506-1036-506-384 0-661 152-276 152-458 464zm1957 1222q0 634-261 995t-717 361q-457 0-718-361t-261-995 261-995 718-361q456 0 717 361t261 995z"/>
<path id="af" transform="scale(.0156)" d="m603 4863h575v-4863h-575v4863z"/>
</defs>
<use xlink:href="#ag"/>
<use x="63.476562" xlink:href="#p"/>
<use x="125" xlink:href="#i"/>
<use x="188.378906" xlink:href="#t"/>
<use x="243.359375" xlink:href="#aa"/>
<use x="306.738281" xlink:href="#q"/>
<use x="356.738281" xlink:href="#ac"/>
<use x="454.150391" xlink:href="#s"/>
<use x="517.626953" xlink:href="#q"/>
<use x="567.626953" xlink:href="#s"/>
<use x="631.103516" xlink:href="#h"/>
<use x="692.285156" xlink:href="#h"/>
<use x="753.466797" xlink:href="#af"/>
</g>
<path d="m126 148h447" clip-path="url(#a)" fill="none" stroke="#b0b0b0" stroke-linecap="square" stroke-width=".8"/>
<use x="126.473678" y="147.668001" stroke="#000000" stroke-width=".8" xlink:href="#u"/>
<!-- python_startup -->
<g transform="translate(43.5 151) scale(.1 -.1)">
<defs>
<path id="ab" transform="scale(.0156)" d="m544 1381v2119h575v-2097q0-497 193-746 194-248 582-248 465 0 735 297 271 297 271 810v1984h575v-3500h-575v538q-209-319-486-474-276-155-642-155-603 0-916 375-312 375-312 1097zm1447 2203z"/>
</defs>
<use xlink:href="#s"/>
<use x="63.476562" xlink:href="#v"/>
<use x="122.65625" xlink:href="#f"/>
<use x="161.865234" xlink:href="#aa"/>
<use x="225.244141" xlink:href="#h"/>
<use x="286.425781" xlink:href="#i"/>
<use x="349.804688" xlink:href="#q"/>
<use x="399.804688" xlink:href="#o"/>
<use x="451.904297" xlink:href="#f"/>
<use x="491.113281" xlink:href="#j"/>
<use x="552.392578" xlink:href="#w"/>
<use x="593.505859" xlink:href="#f"/>
<use x="632.714844" xlink:href="#ab"/>
<use x="696.09375" xlink:href="#s"/>
</g>
<path d="m126 119h447" clip-path="url(#a)" fill="none" stroke="#b0b0b0" stroke-linecap="square" stroke-width=".8"/>
<use x="126.473678" y="119.450124" stroke="#000000" stroke-width=".8" xlink:href="#u"/>
<!-- python_startup_no_site -->
<g transform="translate(3 123) scale(.1 -.1)">
<defs>
<path id="x" transform="scale(.0156)" d="m603 3500h575v-3500h-575v3500zm0 1363h575v-729h-575v729z"/>
</defs>
<use xlink:href="#s"/>
<use x="63.476562" xlink:href="#v"/>
<use x="122.65625" xlink:href="#f"/>
<use x="161.865234" xlink:href="#aa"/>
<use x="225.244141" xlink:href="#h"/>
<use x="286.425781" xlink:href="#i"/>
<use x="349.804688" xlink:href="#q"/>
<use x="399.804688" xlink:href="#o"/>
<use x="451.904297" xlink:href="#f"/>
<use x="491.113281" xlink:href="#j"/>
<use x="552.392578" xlink:href="#w"/>
<use x="593.505859" xlink:href="#f"/>
<use x="632.714844" xlink:href="#ab"/>
<use x="696.09375" xlink:href="#s"/>
<use x="759.570312" xlink:href="#q"/>
<use x="809.570312" xlink:href="#i"/>
<use x="872.949219" xlink:href="#h"/>
<use x="934.130859" xlink:href="#q"/>
<use x="984.130859" xlink:href="#o"/>
<use x="1036.230469" xlink:href="#x"/>
<use x="1064.013672" xlink:href="#f"/>
<use x="1103.222656" xlink:href="#p"/>
</g>
<path d="m126 91.2h447" clip-path="url(#a)" fill="none" stroke="#b0b0b0" stroke-linecap="square" stroke-width=".8"/>
<use x="126.473678" y="91.232246" stroke="#000000" stroke-width=".8" xlink:href="#u"/>
<!-- 2to3 -->
<g transform="translate(96.7 95) scale(.1 -.1)">
<use xlink:href="#l"/>
<use x="63.623047" xlink:href="#f"/>
<use x="102.832031" xlink:href="#h"/>
<use x="164.013672" xlink:href="#g"/>
</g>
<path d="m126 63h447" clip-path="url(#a)" fill="none" stroke="#b0b0b0" stroke-linecap="square" stroke-width=".8"/>
<use x="126.473678" y="63.014368" stroke="#000000" stroke-width=".8" xlink:href="#u"/>
<!-- ALL -->
<g transform="translate(101 66.8) scale(.1 -.1)">
<defs>
<path id="al" transform="scale(.0156)" d="m2188 4044-857-2322h1716l-859 2322zm-357 622h716l1778-4666h-656l-425 1197h-2103l-425-1197h-666l1781 4666z"/>
<path id="ah" transform="scale(.0156)" d="m628 4666h631v-4135h2272v-531h-2903v4666z"/>
</defs>
<use xlink:href="#al"/>
<use x="68.408203" xlink:href="#ah"/>
<use x="124.121094" xlink:href="#ah"/>
</g>
<path d="m147 232v-198" clip-path="url(#a)" fill="none" stroke="#1f77b4" stroke-linecap="square" stroke-width="1.5"/>
<g fill="none" stroke="#1f77b4" stroke-width="1.5">
<path d="m147 211v-14.1" clip-path="url(#a)"/>
<path d="m374 183v-14.1" clip-path="url(#a)"/>
<path d="m472 155v-14.1" clip-path="url(#a)"/>
<path d="m506 127v-14.1" clip-path="url(#a)"/>
<path d="m522 98.3v-14.1" clip-path="url(#a)"/>
<path d="m469 70.1v-14.1" clip-path="url(#a)"/>
</g>
<g fill="none" stroke="#1f77b4" stroke-width="1.5">
<path d="m147 211v-14.1" clip-path="url(#a)"/>
<path d="m398 183v-14.1" clip-path="url(#a)"/>
<path d="m472 155v-14.1" clip-path="url(#a)"/>
<path d="m508 127v-14.1" clip-path="url(#a)"/>
<path d="m553 98.3v-14.1" clip-path="url(#a)"/>
<path d="m553 70.1v-14.1" clip-path="url(#a)"/>
</g>
<g fill="none" stroke="#1f77b4" stroke-width="1.5">
<path d="m147 211v-14.1" clip-path="url(#a)"/>
<path d="m354 183v-14.1" clip-path="url(#a)"/>
<path d="m468 155v-14.1" clip-path="url(#a)"/>
<path d="m506 127v-14.1" clip-path="url(#a)"/>
<path d="m488 98.3v-14.1" clip-path="url(#a)"/>
<path d="m147 70.1v-14.1" clip-path="url(#a)"/>
</g>
<g fill="none" stroke="#1f77b4" stroke-width="1.5">
<path d="m147 204" clip-path="url(#a)"/>
<path d="m354 176h44.2" clip-path="url(#a)"/>
<path d="m468 148h3.93" clip-path="url(#a)"/>
<path d="m506 119h1.65" clip-path="url(#a)"/>
<path d="m488 91.2h64.4" clip-path="url(#a)"/>
<path d="m147 63h406" clip-path="url(#a)"/>
</g>
<g fill="none" stroke="#1f77b4" stroke-dasharray="1.5,2.475" stroke-width="1.5">
<path d="m147 211v-14.1" clip-path="url(#a)"/>
<path d="m147 211v-14.1" clip-path="url(#a)"/>
<path d="m363 183v-14.1" clip-path="url(#a)"/>
<path d="m385 183v-14.1" clip-path="url(#a)"/>
<path d="m472 155v-14.1" clip-path="url(#a)"/>
<path d="m472 155v-14.1" clip-path="url(#a)"/>
<path d="m506 127v-14.1" clip-path="url(#a)"/>
<path d="m506 127v-14.1" clip-path="url(#a)"/>
<path d="m503 98.3v-14.1" clip-path="url(#a)"/>
<path d="m537 98.3v-14.1" clip-path="url(#a)"/>
<path d="m372 70.1v-14.1" clip-path="url(#a)"/>
<path d="m527 70.1v-14.1" clip-path="url(#a)"/>
</g>
<path d="m126 232v-198" fill="none" stroke="#000" stroke-linecap="square" stroke-width=".8"/>
<path d="m573 232v-198" fill="none" stroke="#000" stroke-linecap="square" stroke-width=".8"/>
<path d="m126 232h447" fill="none" stroke="#000" stroke-linecap="square" stroke-width=".8"/>
<path d="m126 34.8h447" fill="none" stroke="#000" stroke-linecap="square" stroke-width=".8"/>
<!-- insignificant -->
<g transform="translate(157 204) scale(.1 -.1)">
<defs>
<path id="y" transform="scale(.0156)" d="m2375 4863v-479h-550q-309 0-430-125-120-125-120-450v-309h947v-447h-947v-3053h-578v3053h-550v447h550v244q0 584 272 851 272 268 862 268h544z"/>
</defs>
<use xlink:href="#x"/>
<use x="27.783203" xlink:href="#i"/>
<use x="91.162109" xlink:href="#o"/>
<use x="143.261719" xlink:href="#x"/>
<use x="171.044922" xlink:href="#ad"/>
<use x="234.521484" xlink:href="#i"/>
<use x="297.900391" xlink:href="#x"/>
<use x="325.683594" xlink:href="#y"/>
<use x="360.888672" xlink:href="#x"/>
<use x="388.671875" xlink:href="#t"/>
<use x="443.652344" xlink:href="#j"/>
<use x="504.931641" xlink:href="#i"/>
<use x="568.310547" xlink:href="#f"/>
</g>
<!-- 1.2228 -->
<g transform="translate(374 167) scale(.08 -.08)">
<defs>
<path id="ae" transform="scale(.0156)" d="m2034 2216q-450 0-708-241-257-241-257-662 0-422 257-663 258-241 708-241t709 242q260 243 260 662 0 421-258 662-257 241-711 241zm-631 268q-406 100-633 378-226 279-226 679 0 559 398 884 399 325 1092 325 697 0 1094-325t397-884q0-400-227-679-226-278-629-378 456-106 710-416 255-309 255-755 0-679-414-1042-414-362-1186-362-771 0-1186 362-414 363-414 1042 0 446 256 755 257 310 713 416zm-231 997q0-362 226-565 227-203 636-203 407 0 636 203 230 203 230 565 0 363-230 566-229 203-636 203-409 0-636-203-226-203-226-566z"/>
</defs>
<use xlink:href="#b"/>
<use x="63.623047" xlink:href="#c"/>
<use x="95.410156" xlink:href="#l"/>
<use x="159.033203" xlink:href="#l"/>
<use x="222.65625" xlink:href="#l"/>
<use x="286.279297" xlink:href="#ae"/>
</g>
<!-- 1.3189 -->
<g transform="translate(472 139) scale(.08 -.08)">
<defs>
<path id="am" transform="scale(.0156)" d="m703 97v575q238-113 481-172 244-59 479-59 625 0 954 420 330 420 377 1277-181-269-460-413-278-144-615-144-700 0-1108 423-408 424-408 1159 0 718 425 1152 425 435 1131 435 810 0 1236-621 427-620 427-1801 0-1103-524-1761-523-658-1407-658-238 0-482 47-243 47-506 141zm1256 1978q425 0 673 290 249 291 249 798 0 503-249 795-248 292-673 292t-673-292-248-795q0-507 248-798 248-290 673-290z"/>
</defs>
<use xlink:href="#b"/>
<use x="63.623047" xlink:href="#c"/>
<use x="95.410156" xlink:href="#g"/>
<use x="159.033203" xlink:href="#b"/>
<use x="222.65625" xlink:href="#ae"/>
<use x="286.279297" xlink:href="#am"/>
</g>
<!-- 1.3523 -->
<g transform="translate(506 111) scale(.08 -.08)">
<use xlink:href="#b"/>
<use x="63.623047" xlink:href="#c"/>
<use x="95.410156" xlink:href="#g"/>
<use x="159.033203" xlink:href="#k"/>
<use x="222.65625" xlink:href="#l"/>
<use x="286.279297" xlink:href="#g"/>
</g>
<!-- 1.3682 -->
<g transform="translate(522 82.8) scale(.08 -.08)">
<defs>
<path id="z" transform="scale(.0156)" d="m2113 2584q-425 0-674-291-248-290-248-796 0-503 248-796 249-292 674-292t673 292q248 293 248 796 0 506-248 796-248 291-673 291zm1253 1979v-575q-238 112-480 171-242 60-480 60-625 0-955-422-329-422-376-1275 184 272 462 417 279 145 613 145 703 0 1111-427 408-426 408-1160 0-719-425-1154-425-434-1131-434-810 0-1238 620-428 621-428 1799 0 1106 525 1764t1409 658q238 0 480-47t505-140z"/>
</defs>
<use xlink:href="#b"/>
<use x="63.623047" xlink:href="#c"/>
<use x="95.410156" xlink:href="#g"/>
<use x="159.033203" xlink:href="#z"/>
<use x="222.65625" xlink:href="#ae"/>
<use x="286.279297" xlink:href="#l"/>
</g>
<!-- 1.3154 -->
<g transform="translate(469 54.5) scale(.08 -.08)">
<use xlink:href="#b"/>
<use x="63.623047" xlink:href="#c"/>
<use x="95.410156" xlink:href="#g"/>
<use x="159.033203" xlink:href="#b"/>
<use x="222.65625" xlink:href="#k"/>
<use x="286.279297" xlink:href="#r"/>
</g>
<!-- more ⟶ -->
<g transform="translate(157 34.8) scale(.1 -.1)">
<defs>
<path id="an" transform="scale(.0156)" d="m8863 2147v-281l-1229-1228-375 375 729 728h-7622v531h7622l-729 728 375 375 1229-1228z"/>
</defs>
<use xlink:href="#ac"/>
<use x="97.412109" xlink:href="#h"/>
<use x="158.59375" xlink:href="#w"/>
<use x="197.457031" xlink:href="#p"/>
<use x="258.980469" xlink:href="#DejaVuSans-20"/>
<use x="290.767578" xlink:href="#an"/>
</g>
<!-- ⟵ less -->
<g transform="translate(99.9 34.8) scale(.1 -.1)">
<defs>
<path id="ao" transform="scale(.0156)" d="m313 1866v281l1228 1228 375-375-728-728h7621v-531h-7621l728-728-375-375-1228 1228z"/>
</defs>
<use xlink:href="#ao"/>
<use x="143.359375" xlink:href="#DejaVuSans-20"/>
<use x="175.146484" xlink:href="#af"/>
<use x="202.929688" xlink:href="#p"/>
<use x="264.453125" xlink:href="#o"/>
<use x="316.552734" xlink:href="#o"/>
</g>
<!-- Memory usage of python-caf6064a1bc15ac344af-caf6064 vs. 3.14.0a0 -->
<g transform="translate(137 12.1) scale(.12 -.12)">
<defs>
<path id="ak" transform="scale(.0156)" d="m628 4666h941l1190-3175 1197 3175h941v-4666h-616v4097l-1203-3200h-634l-1203 3200v-4097h-613v4666z"/>
<path id="ai" transform="scale(.0156)" d="m313 2009h1684v-512h-1684v512z"/>
<path id="aj" transform="scale(.0156)" d="m191 3500h609l1094-2937 1094 2937h609l-1313-3500h-781l-1312 3500z"/>
</defs>
<use xlink:href="#ak"/>
<use x="86.279297" xlink:href="#p"/>
<use x="147.802734" xlink:href="#ac"/>
<use x="245.214844" xlink:href="#h"/>
<use x="306.396484" xlink:href="#w"/>
<use x="347.509766" xlink:href="#v"/>
<use x="406.689453" xlink:href="#DejaVuSans-20"/>
<use x="438.476562" xlink:href="#ab"/>
<use x="501.855469" xlink:href="#o"/>
<use x="553.955078" xlink:href="#j"/>
<use x="615.234375" xlink:href="#ad"/>
<use x="678.710938" xlink:href="#p"/>
<use x="740.234375" xlink:href="#DejaVuSans-20"/>
<use x="772.021484" xlink:href="#h"/>
<use x="833.203125" xlink:href="#y"/>
<use x="868.408203" xlink:href="#DejaVuSans-20"/>
<use x="900.195312" xlink:href="#s"/>
<use x="963.671875" xlink:href="#v"/>
<use x="1022.851562" xlink:href="#f"/>
<use x="1062.060547" xlink:href="#aa"/>
<use x="1125.439453" xlink:href="#h"/>
<use x="1186.621094" xlink:href="#i"/>
<use x="1250" xlink:href="#ai"/>
<use x="1286.083984" xlink:href="#t"/>
<use x="1341.064453" xlink:href="#j"/>
<use x="1402.34375" xlink:href="#y"/>
<use x="1437.548828" xlink:href="#z"/>
<use x="1501.171875" xlink:href="#e"/>
<use x="1564.794922" xlink:href="#z"/>
<use x="1628.417969" xlink:href="#r"/>
<use x="1692.041016" xlink:href="#j"/>
<use x="1753.320312" xlink:href="#b"/>
<use x="1816.943359" xlink:href="#ag"/>
<use x="1880.419922" xlink:href="#t"/>
<use x="1935.400391" xlink:href="#b"/>
<use x="1999.023438" xlink:href="#k"/>
<use x="2062.646484" xlink:href="#j"/>
<use x="2123.925781" xlink:href="#t"/>
<use x="2178.90625" xlink:href="#g"/>
<use x="2242.529297" xlink:href="#r"/>
<use x="2306.152344" xlink:href="#r"/>
<use x="2369.775391" xlink:href="#j"/>
<use x="2431.054688" xlink:href="#y"/>
<use x="2460.759766" xlink:href="#ai"/>
<use x="2496.84375" xlink:href="#t"/>
<use x="2551.824219" xlink:href="#j"/>
<use x="2613.103516" xlink:href="#y"/>
<use x="2648.308594" xlink:href="#z"/>
<use x="2711.931641" xlink:href="#e"/>
<use x="2775.554688" xlink:href="#z"/>
<use x="2839.177734" xlink:href="#r"/>
<use x="2902.800781" xlink:href="#DejaVuSans-20"/>
<use x="2934.587891" xlink:href="#aj"/>
<use x="2993.767578" xlink:href="#o"/>
<use x="3045.867188" xlink:href="#c"/>
<use x="3077.654297" xlink:href="#DejaVuSans-20"/>
<use x="3109.441406" xlink:href="#g"/>
<use x="3173.064453" xlink:href="#c"/>
<use x="3204.851562" xlink:href="#b"/>
<use x="3268.474609" xlink:href="#r"/>
<use x="3332.097656" xlink:href="#c"/>
<use x="3363.884766" xlink:href="#e"/>
<use x="3427.507812" xlink:href="#j"/>
<use x="3488.787109" xlink:href="#e"/>
</g>
<defs>
<clipPath id="a">
<rect x="126" y="34.8" width="447" height="198"/>
</clipPath>
</defs>
</svg>
