<?xml version="1.0" encoding="UTF-8"?>
<!DOCTYPE svg  PUBLIC '-//W3C//DTD SVG 1.1//EN'  'http://www.w3.org/Graphics/SVG/1.1/DTD/svg11.dtd'>
<svg width="576pt" height="209pt" version="1.1" viewBox="0 0 576 209" xmlns="http://www.w3.org/2000/svg" xmlns:xlink="http://www.w3.org/1999/xlink">
<defs>
<style type="text/css">*{stroke-linejoin: round; stroke-linecap: butt}</style>
</defs>
<path d="m0 209h576v-209h-576z" fill="#fff"/>
<path d="m88.1 189h485v-154h-485z" fill="#fff"/>
<path d="m331 143v30.9-30.9z" clip-path="url(#a)" fill="#1f77b4" fill-opacity=".3"/>
<path d="m308 125v5.02l0.373 0.302 0.373 0.317 0.373 0.332 0.373 0.345 0.373 0.357 0.373 0.367 0.373 0.377 0.373 0.385 0.373 0.393 0.373 0.4 0.373 0.406 0.373 0.411 0.373 0.416 0.373 0.419 0.373 0.421 0.746 0.844 0.373 0.42 0.373 0.416 0.373 0.411 0.373 0.405 0.373 0.397 0.373 0.388 0.373 0.378 0.373 0.367 0.373 0.356 0.373 0.343 0.373 0.33 0.373 0.315 0.373 0.299 0.373 0.281 0.373 0.261 0.373 0.239 0.373 0.213 0.373 0.185 0.373 0.154 0.373 0.121 0.373 0.0865 0.373 0.0511 0.373 0.0159 0.373-0.0184 0.373-0.0509 0.373-0.0811 0.373-0.108 0.373-0.133 0.373-0.155 0.373-0.175 0.373-0.193 0.373-0.21 0.373-0.226 0.373-0.242 0.373-0.258 0.373-0.274 0.373-0.29 0.373-0.305 0.373-0.32 0.373-0.334 0.373-0.346 0.373-0.357 0.373-0.365 0.373-0.372 0.373-0.377 0.373-0.38 1.12-1.15 0.373-0.382 0.373-0.38 0.373-0.377 0.373-0.373 0.373-0.367 0.373-0.36 0.373-0.35 0.373-0.34 0.373-0.327 0.373-0.314 0.373-0.299 0.373-0.285 0.373-0.27 0.373-0.256 0.373-0.243 0.373-0.23 0.373-0.22 0.373-0.21 0.373-0.201 0.373-0.193 0.373-0.186 0.373-0.179 0.373-0.172 0.373-0.165 0.373-0.157 0.373-0.15 0.373-0.142 0.373-0.134 0.373-0.126 0.373-0.118 0.373-0.11 0.373-0.103 0.373-0.096v-1.81l-0.373-0.096-0.373-0.103-0.373-0.11-0.373-0.118-0.373-0.126-0.373-0.134-0.373-0.142-0.373-0.15-0.373-0.157-0.373-0.165-0.373-0.172-0.373-0.179-0.373-0.186-0.373-0.193-0.373-0.201-0.373-0.21-0.373-0.22-0.373-0.23-0.373-0.243-0.373-0.256-0.373-0.27-0.373-0.285-0.373-0.299-0.373-0.314-0.373-0.327-0.373-0.34-0.373-0.35-0.373-0.36-0.373-0.367-0.373-0.373-0.373-0.377-0.373-0.38-0.373-0.382-1.12-1.15-0.373-0.38-0.373-0.377-0.373-0.372-0.373-0.365-0.373-0.357-0.373-0.346-0.373-0.334-0.373-0.32-0.373-0.305-0.373-0.29-0.373-0.274-0.373-0.258-0.373-0.242-0.373-0.226-0.373-0.21-0.373-0.193-0.373-0.175-0.373-0.155-0.373-0.133-0.373-0.108-0.373-0.0811-0.373-0.0509-0.373-0.0184-0.373 0.0159-0.373 0.0511-0.373 0.0865-0.373 0.121-0.373 0.154-0.373 0.185-0.373 0.213-0.373 0.239-0.373 0.261-0.373 0.281-0.373 0.299-0.373 0.315-0.373 0.33-0.373 0.343-0.373 0.356-0.373 0.367-0.373 0.378-0.373 0.388-0.373 0.397-0.373 0.405-0.373 0.411-0.373 0.416-0.373 0.42-0.746 0.844-0.373 0.421-0.373 0.419-0.373 0.416-0.373 0.411-0.373 0.406-0.373 0.4-0.373 0.393-0.373 0.385-0.373 0.377-0.373 0.367-0.373 0.357-0.373 0.345-0.373 0.332-0.373 0.317-0.373 0.302z" clip-path="url(#a)" fill="#1f77b4" fill-opacity=".3"/>
<path d="m312 95.6v1.82l0.136-0.00433 0.136-0.0132 0.136-0.0216 0.136-0.0293 0.136-0.0361 0.136-0.0418 0.136-0.0463 0.136-0.0495 0.271-0.103 0.136-0.0507 0.136-0.0485 0.136-0.0451 0.136-0.0408 0.136-0.0355 0.136-0.0295 0.136-0.0229 0.136-0.0158 0.136-0.0085 0.136-1e-3 0.136 0.00652 0.136 0.0139 0.136 0.0211 0.136 0.0278 0.136 0.034 0.136 0.0395 0.136 0.0441 0.136 0.0478 0.136 0.0503 0.271 0.103 0.136 0.0504 0.136 0.0477 0.136 0.0437 0.136 0.0386 0.136 0.0323 0.136 0.0252 0.136 0.0175 0.136 0.00936 0.136 0.00119 0.136-0.00674 0.136-0.0141 0.136-0.0207 0.136-0.0262 0.136-0.0303 0.136-0.0331 0.136-0.0343 0.136-0.0339 0.136-0.0319 0.136-0.0285 0.136-0.0239 0.136-0.0181 0.136-0.0115 0.136-0.00439 0.136 0.00298 0.136 0.0103 0.136 0.0173 0.136 0.0236 0.136 0.0291 0.136 0.0336 0.136 0.0371 0.136 0.0394 0.136 0.0408 0.407 0.124 0.136 0.0415 0.136 0.0428 0.136 0.0459 0.136 0.0514 0.136 0.0602 0.136 0.0732 0.136 0.0911 0.136 0.115 0.136 0.144 0.136 0.181 0.136 0.225 0.136 0.275 0.136 0.332 0.136 0.394 0.136 0.461 0.136 0.532 0.136 0.603 0.136 0.673 0.136 0.739 0.136 0.798 0.136 0.848 0.136 0.885 0.136 0.906 0.136 0.91 0.136 0.893 0.136 0.856 0.136 0.797 0.136 0.718 0.136 0.618 0.136 0.5 0.136 0.368 0.136 0.224 0.136 0.0735v-30.9l-0.136 0.0735-0.136 0.224-0.136 0.368-0.136 0.5-0.136 0.618-0.136 0.718-0.136 0.797-0.136 0.856-0.136 0.893-0.136 0.91-0.136 0.906-0.136 0.885-0.136 0.848-0.136 0.798-0.136 0.739-0.136 0.673-0.136 0.603-0.136 0.532-0.136 0.461-0.136 0.394-0.136 0.332-0.136 0.275-0.136 0.225-0.136 0.181-0.136 0.144-0.136 0.115-0.136 0.0911-0.136 0.0732-0.136 0.0602-0.136 0.0514-0.136 0.0459-0.136 0.0428-0.136 0.0415-0.407 0.124-0.136 0.0408-0.136 0.0394-0.136 0.0371-0.136 0.0336-0.136 0.0291-0.136 0.0236-0.136 0.0173-0.136 0.0103-0.136 0.00298-0.136-0.00439-0.136-0.0115-0.136-0.0181-0.136-0.0239-0.136-0.0285-0.136-0.0319-0.136-0.0339-0.136-0.0343-0.136-0.0331-0.136-0.0303-0.136-0.0262-0.136-0.0207-0.136-0.0141-0.136-0.00674-0.136 0.00119-0.136 0.00936-0.136 0.0175-0.136 0.0252-0.136 0.0323-0.136 0.0386-0.136 0.0437-0.136 0.0477-0.136 0.0504-0.271 0.103-0.136 0.0503-0.136 0.0478-0.136 0.0441-0.136 0.0395-0.136 0.034-0.136 0.0278-0.136 0.0211-0.136 0.0139-0.136 0.00652-0.136-1e-3 -0.136-0.0085-0.136-0.0158-0.136-0.0229-0.136-0.0295-0.136-0.0355-0.136-0.0408-0.136-0.0451-0.136-0.0485-0.136-0.0507-0.271-0.103-0.136-0.0495-0.136-0.0463-0.136-0.0418-0.136-0.0361-0.136-0.0293-0.136-0.0216-0.136-0.0132-0.136-0.00433z" clip-path="url(#a)" fill="#1f77b4" fill-opacity=".3"/>
<path d="m308 65.3v0.748l0.373 0.0972 0.373 0.114 0.373 0.132 0.373 0.152 0.373 0.17 0.373 0.184 0.373 0.189 0.373 0.181 0.373 0.158 0.373 0.123 0.373 0.0806 0.373 0.0383 0.373 0.00427 0.746-0.0302 0.373 0.00307 0.373 0.0373 0.373 0.0815 0.373 0.128 0.373 0.169 0.373 0.196 0.373 0.203 0.373 0.187 0.373 0.149 0.373 0.0978 0.373 0.0432 0.373-0.0022 0.373-0.0276 0.373-0.0269 0.373 7.5e-5 0.373 0.0476 0.373 0.107 0.373 0.169 0.373 0.229 0.373 0.292 0.373 0.369 0.373 0.479 0.373 0.638 0.373 0.855 0.373 1.11 0.373 1.38 0.373 1.58 0.373 1.65 0.373 1.52 0.373 1.17 0.373 0.625 0.373-0.0397 0.373-0.711 0.373-1.28 0.373-1.65 0.373-1.81 0.373-1.76 0.373-1.57 0.373-1.3 0.373-1.02 0.373-0.773 0.373-0.569 0.373-0.414 0.373-0.298 0.373-0.21 0.373-0.141 0.373-0.0848 0.373-0.0417 0.373-0.0127 0.373 7.25e-4 0.373-0.0018 0.373-0.0184 0.373-0.0453 0.373-0.0769 0.373-0.107 0.373-0.131 0.373-0.143 0.373-0.143 0.373-0.129 0.373-0.106 0.373-0.0766 0.373-0.0464 0.373-0.0206 0.373-0.00308 0.373 0.00427 0.373 0.00169 0.373-0.0086 0.373-0.0232 0.373-0.0384 0.373-0.0511 0.373-0.0593 0.373-0.0622 0.373-0.0601 0.373-0.0542 0.373-0.046 0.373-0.0368 0.373-0.0282 0.373-0.0211 0.373-0.016 0.373-0.0132 0.746-0.0261 0.373-0.0153 0.373-0.0172v-0.236l-0.373-0.0172-1.49-0.0546-0.373-0.016-0.373-0.0211-0.373-0.0282-0.373-0.0368-0.373-0.046-0.373-0.0542-0.373-0.0601-0.373-0.0622-0.373-0.0593-0.373-0.0511-0.373-0.0384-0.373-0.0232-0.373-0.0086-0.373 0.00169-0.373 0.00427-0.373-0.00308-0.373-0.0206-0.373-0.0464-0.373-0.0766-0.373-0.106-0.373-0.129-0.373-0.143-0.373-0.143-0.373-0.131-0.373-0.107-0.373-0.0769-0.373-0.0453-0.373-0.0184-0.373-0.0018-0.373 7.25e-4 -0.373-0.0127-0.373-0.0417-0.373-0.0848-0.373-0.141-0.373-0.21-0.373-0.298-0.373-0.414-0.373-0.569-0.373-0.773-0.373-1.02-0.373-1.3-0.373-1.57-0.373-1.76-0.373-1.81-0.373-1.65-0.373-1.28-0.373-0.711-0.373-0.0397-0.373 0.625-0.373 1.17-0.373 1.52-0.373 1.65-0.373 1.58-0.373 1.38-0.373 1.11-0.373 0.855-0.373 0.638-0.373 0.479-0.373 0.369-0.373 0.292-0.373 0.229-0.373 0.169-0.373 0.107-0.373 0.0476-0.373 7.5e-5 -0.373-0.0269-0.373-0.0276-0.373-0.0022-0.373 0.0432-0.373 0.0978-0.373 0.149-0.373 0.187-0.373 0.203-0.373 0.196-0.373 0.169-0.373 0.128-0.373 0.0815-0.373 0.0373-0.373 0.00307-0.746-0.0302-0.373 0.00427-0.373 0.0383-0.373 0.0806-0.373 0.123-0.373 0.158-0.373 0.181-0.373 0.189-0.373 0.184-0.373 0.17-0.373 0.152-0.373 0.132-0.373 0.114-0.373 0.0972z" clip-path="url(#a)" fill="#1f77b4" fill-opacity=".3"/>
<path d="m137 189v-154" clip-path="url(#a)" fill="none" stroke="#b0b0b0" stroke-linecap="square" stroke-width=".8"/>
<defs>
<path id="n" d="m0 0v3.5" stroke="#000" stroke-width=".8"/>
</defs>
<use x="136.615505" y="189.121635" stroke="#000000" stroke-width=".8" xlink:href="#n"/>
<defs>
<path id="o" d="m0 0v-3.5" stroke="#000" stroke-width=".8"/>
</defs>
<use x="136.615505" y="34.79649" stroke="#000000" stroke-width=".8" xlink:href="#o"/>
<!-- 0.80× -->
<g transform="translate(121 204) scale(.1 -.1)">
<defs>
<path id="b" transform="scale(.0156)" d="m2034 4250q-487 0-733-480-245-479-245-1442 0-959 245-1439 246-480 733-480 491 0 736 480 246 480 246 1439 0 963-246 1442-245 480-736 480zm0 500q785 0 1199-621 414-620 414-1801 0-1178-414-1799-414-620-1199-620-784 0-1198 620-414 621-414 1799 0 1181 414 1801 414 621 1198 621z"/>
<path id="c" transform="scale(.0156)" d="m684 794h660v-794h-660v794z"/>
<path id="ah" transform="scale(.0156)" d="m2034 2216q-450 0-708-241-257-241-257-662 0-422 257-663 258-241 708-241t709 242q260 243 260 662 0 421-258 662-257 241-711 241zm-631 268q-406 100-633 378-226 279-226 679 0 559 398 884 399 325 1092 325 697 0 1094-325t397-884q0-400-227-679-226-278-629-378 456-106 710-416 255-309 255-755 0-679-414-1042-414-362-1186-362-771 0-1186 362-414 363-414 1042 0 446 256 755 257 310 713 416zm-231 997q0-362 226-565 227-203 636-203 407 0 636 203 230 203 230 565 0 363-230 566-229 203-636 203-409 0-636-203-226-203-226-566z"/>
<path id="d" transform="scale(.0156)" d="m4488 3438-1429-1435 1429-1428-372-378-1435 1434-1434-1434-369 378 1425 1428-1425 1435 369 378 1434-1435 1435 1435 372-378z"/>
</defs>
<use xlink:href="#b"/>
<use x="63.623047" xlink:href="#c"/>
<use x="95.410156" xlink:href="#ah"/>
<use x="159.033203" xlink:href="#b"/>
<use x="222.65625" xlink:href="#d"/>
</g>
<!-- 0.80× -->
<g transform="translate(121 25.7) scale(.1 -.1)">
<use xlink:href="#b"/>
<use x="63.623047" xlink:href="#c"/>
<use x="95.410156" xlink:href="#ah"/>
<use x="159.033203" xlink:href="#b"/>
<use x="222.65625" xlink:href="#d"/>
</g>
<path d="m234 189v-154" clip-path="url(#a)" fill="none" stroke="#b0b0b0" stroke-linecap="square" stroke-width=".8"/>
<use x="233.589784" y="189.121635" stroke="#000000" stroke-width=".8" xlink:href="#n"/>
<use x="233.589784" y="34.79649" stroke="#000000" stroke-width=".8" xlink:href="#o"/>
<!-- 0.90× -->
<g transform="translate(218 204) scale(.1 -.1)">
<defs>
<path id="e" transform="scale(.0156)" d="m703 97v575q238-113 481-172 244-59 479-59 625 0 954 420 330 420 377 1277-181-269-460-413-278-144-615-144-700 0-1108 423-408 424-408 1159 0 718 425 1152 425 435 1131 435 810 0 1236-621 427-620 427-1801 0-1103-524-1761-523-658-1407-658-238 0-482 47-243 47-506 141zm1256 1978q425 0 673 290 249 291 249 798 0 503-249 795-248 292-673 292t-673-292-248-795q0-507 248-798 248-290 673-290z"/>
</defs>
<use xlink:href="#b"/>
<use x="63.623047" xlink:href="#c"/>
<use x="95.410156" xlink:href="#e"/>
<use x="159.033203" xlink:href="#b"/>
<use x="222.65625" xlink:href="#d"/>
</g>
<!-- 0.90× -->
<g transform="translate(218 25.7) scale(.1 -.1)">
<use xlink:href="#b"/>
<use x="63.623047" xlink:href="#c"/>
<use x="95.410156" xlink:href="#e"/>
<use x="159.033203" xlink:href="#b"/>
<use x="222.65625" xlink:href="#d"/>
</g>
<path d="m331 189v-154" clip-path="url(#a)" fill="none" stroke="#b0b0b0" stroke-linecap="square" stroke-width=".8"/>
<use x="330.564062" y="189.121635" stroke="#000000" stroke-width=".8" xlink:href="#n"/>
<use x="330.564062" y="34.79649" stroke="#000000" stroke-width=".8" xlink:href="#o"/>
<!-- 1.00× -->
<g transform="translate(315 204) scale(.1 -.1)">
<defs>
<path id="h" transform="scale(.0156)" d="m794 531h1031v3560l-1122-225v575l1116 225h631v-4135h1031v-531h-2687v531z"/>
</defs>
<use xlink:href="#h"/>
<use x="63.623047" xlink:href="#c"/>
<use x="95.410156" xlink:href="#b"/>
<use x="159.033203" xlink:href="#b"/>
<use x="222.65625" xlink:href="#d"/>
</g>
<!-- 1.00× -->
<g transform="translate(315 25.7) scale(.1 -.1)">
<use xlink:href="#h"/>
<use x="63.623047" xlink:href="#c"/>
<use x="95.410156" xlink:href="#b"/>
<use x="159.033203" xlink:href="#b"/>
<use x="222.65625" xlink:href="#d"/>
</g>
<path d="m428 189v-154" clip-path="url(#a)" fill="none" stroke="#b0b0b0" stroke-linecap="square" stroke-width=".8"/>
<use x="427.538342" y="189.121635" stroke="#000000" stroke-width=".8" xlink:href="#n"/>
<use x="427.538342" y="34.79649" stroke="#000000" stroke-width=".8" xlink:href="#o"/>
<!-- 1.10× -->
<g transform="translate(412 204) scale(.1 -.1)">
<use xlink:href="#h"/>
<use x="63.623047" xlink:href="#c"/>
<use x="95.410156" xlink:href="#h"/>
<use x="159.033203" xlink:href="#b"/>
<use x="222.65625" xlink:href="#d"/>
</g>
<!-- 1.10× -->
<g transform="translate(412 25.7) scale(.1 -.1)">
<use xlink:href="#h"/>
<use x="63.623047" xlink:href="#c"/>
<use x="95.410156" xlink:href="#h"/>
<use x="159.033203" xlink:href="#b"/>
<use x="222.65625" xlink:href="#d"/>
</g>
<path d="m525 189v-154" clip-path="url(#a)" fill="none" stroke="#b0b0b0" stroke-linecap="square" stroke-width=".8"/>
<use x="524.512621" y="189.121635" stroke="#000000" stroke-width=".8" xlink:href="#n"/>
<use x="524.512621" y="34.79649" stroke="#000000" stroke-width=".8" xlink:href="#o"/>
<!-- 1.20× -->
<g transform="translate(509 204) scale(.1 -.1)">
<defs>
<path id="w" transform="scale(.0156)" d="m1228 531h2203v-531h-2962v531q359 372 979 998 621 627 780 809 303 340 423 576 121 236 121 464 0 372-261 606-261 235-680 235-297 0-627-103-329-103-704-313v638q381 153 712 231 332 78 607 78 725 0 1156-363 431-362 431-968 0-288-108-546-107-257-392-607-78-91-497-524-418-433-1181-1211z"/>
</defs>
<use xlink:href="#h"/>
<use x="63.623047" xlink:href="#c"/>
<use x="95.410156" xlink:href="#w"/>
<use x="159.033203" xlink:href="#b"/>
<use x="222.65625" xlink:href="#d"/>
</g>
<!-- 1.20× -->
<g transform="translate(509 25.7) scale(.1 -.1)">
<use xlink:href="#h"/>
<use x="63.623047" xlink:href="#c"/>
<use x="95.410156" xlink:href="#w"/>
<use x="159.033203" xlink:href="#b"/>
<use x="222.65625" xlink:href="#d"/>
</g>
<path d="m88.1 158h485" clip-path="url(#a)" fill="none" stroke="#b0b0b0" stroke-linecap="square" stroke-width=".8"/>
<defs>
<path id="r" d="m0 0h-3.5" stroke="#000" stroke-width=".8"/>
</defs>
<use x="88.128365" y="158.256606" stroke="#000000" stroke-width=".8" xlink:href="#r"/>
<!-- 2to3 -->
<g transform="translate(58.4 162) scale(.1 -.1)">
<defs>
<path id="j" transform="scale(.0156)" d="m1172 4494v-994h1184v-447h-1184v-1900q0-428 117-550t477-122h590v-481h-590q-666 0-919 248-253 249-253 905v1900h-422v447h422v994h578z"/>
<path id="f" transform="scale(.0156)" d="m1959 3097q-462 0-731-361t-269-989 267-989q268-361 733-361 460 0 728 362 269 363 269 988 0 622-269 986-268 364-728 364zm0 487q750 0 1178-488 429-487 429-1349 0-859-429-1349-428-489-1178-489-753 0-1180 489-426 490-426 1349 0 862 426 1349 427 488 1180 488z"/>
<path id="i" transform="scale(.0156)" d="m2597 2516q453-97 707-404 255-306 255-756 0-690-475-1069-475-378-1350-378-293 0-604 58t-642 174v609q262-153 574-231 313-78 654-78 593 0 904 234t311 681q0 413-289 645-289 233-804 233h-544v519h569q465 0 712 186t247 536q0 359-255 551-254 193-729 193-260 0-557-57-297-56-653-174v562q360 100 674 150t592 50q719 0 1137-327 419-326 419-882 0-388-222-655t-631-370z"/>
</defs>
<use xlink:href="#w"/>
<use x="63.623047" xlink:href="#j"/>
<use x="102.832031" xlink:href="#f"/>
<use x="164.013672" xlink:href="#i"/>
</g>
<path d="m88.1 127h485" clip-path="url(#a)" fill="none" stroke="#b0b0b0" stroke-linecap="square" stroke-width=".8"/>
<use x="88.128365" y="127.391577" stroke="#000000" stroke-width=".8" xlink:href="#r"/>
<!-- bench_mp_pool -->
<g transform="translate(3 131) scale(.1 -.1)">
<defs>
<path id="ae" transform="scale(.0156)" d="m3116 1747q0 634-261 995t-717 361q-457 0-718-361t-261-995 261-995 718-361q456 0 717 361t261 995zm-1957 1222q182 312 458 463 277 152 661 152 638 0 1036-506 399-506 399-1331t-399-1332q-398-506-1036-506-384 0-661 152-276 152-458 464v-525h-578v4863h578v-1894z"/>
<path id="g" transform="scale(.0156)" d="m3597 1894v-281h-2644q38-594 358-905t892-311q331 0 642 81t618 244v-544q-310-131-635-200t-659-69q-838 0-1327 487-489 488-489 1320 0 859 464 1363 464 505 1252 505 706 0 1117-455 411-454 411-1235zm-575 169q-6 471-264 752-258 282-683 282-481 0-770-272t-333-766l2050 4z"/>
<path id="p" transform="scale(.0156)" d="m3513 2113v-2113h-575v2094q0 497-194 743-194 247-581 247-466 0-735-297-269-296-269-809v-1978h-578v3500h578v-544q207 316 486 472 280 156 646 156 603 0 912-373 310-373 310-1098z"/>
<path id="v" transform="scale(.0156)" d="m3122 3366v-538q-244 135-489 202t-495 67q-560 0-870-355-309-354-309-995t309-996q310-354 870-354 250 0 495 67t489 202v-532q-241-112-499-168-257-57-548-57-791 0-1257 497-465 497-465 1341 0 856 470 1346 471 491 1290 491 265 0 518-55 253-54 491-163z"/>
<path id="aa" transform="scale(.0156)" d="m3513 2113v-2113h-575v2094q0 497-194 743-194 247-581 247-466 0-735-297-269-296-269-809v-1978h-578v4863h578v-1907q207 316 486 472 280 156 646 156 603 0 912-373 310-373 310-1098z"/>
<path id="q" transform="scale(.0156)" d="m3263-1063v-446h-3326v446h3326z"/>
<path id="l" transform="scale(.0156)" d="m3328 2828q216 388 516 572t706 184q547 0 844-383 297-382 297-1088v-2113h-578v2094q0 503-179 746-178 244-543 244-447 0-707-297-259-296-259-809v-1978h-578v2094q0 506-178 748t-550 242q-441 0-701-298-259-298-259-808v-1978h-578v3500h578v-544q197 322 472 475t653 153q382 0 649-194 267-193 395-562z"/>
<path id="t" transform="scale(.0156)" d="m1159 525v-1856h-578v4831h578v-531q182 312 458 463 277 152 661 152 638 0 1036-506 399-506 399-1331t-399-1332q-398-506-1036-506-384 0-661 152-276 152-458 464zm1957 1222q0 634-261 995t-717 361q-457 0-718-361t-261-995 261-995 718-361q456 0 717 361t261 995z"/>
<path id="x" transform="scale(.0156)" d="m603 4863h575v-4863h-575v4863z"/>
</defs>
<use xlink:href="#ae"/>
<use x="63.476562" xlink:href="#g"/>
<use x="125" xlink:href="#p"/>
<use x="188.378906" xlink:href="#v"/>
<use x="243.359375" xlink:href="#aa"/>
<use x="306.738281" xlink:href="#q"/>
<use x="356.738281" xlink:href="#l"/>
<use x="454.150391" xlink:href="#t"/>
<use x="517.626953" xlink:href="#q"/>
<use x="567.626953" xlink:href="#t"/>
<use x="631.103516" xlink:href="#f"/>
<use x="692.285156" xlink:href="#f"/>
<use x="753.466797" xlink:href="#x"/>
</g>
<path d="m88.1 96.5h485" clip-path="url(#a)" fill="none" stroke="#b0b0b0" stroke-linecap="square" stroke-width=".8"/>
<use x="88.128365" y="96.526548" stroke="#000000" stroke-width=".8" xlink:href="#r"/>
<!-- python_startup -->
<g transform="translate(5.17 100) scale(.1 -.1)">
<defs>
<path id="y" transform="scale(.0156)" d="m2059-325q-243-625-475-815-231-191-618-191h-460v481h338q237 0 368 113 132 112 291 531l103 262-1415 3444h609l1094-2737 1094 2737h609l-1538-3825z"/>
<path id="k" transform="scale(.0156)" d="m2834 3397v-544q-243 125-506 187-262 63-544 63-428 0-642-131t-214-394q0-200 153-314t616-217l197-44q612-131 870-370t258-667q0-488-386-773-386-284-1061-284-281 0-586 55t-642 164v594q319-166 628-249 309-82 613-82 406 0 624 139 219 139 219 392 0 234-158 359-157 125-692 241l-200 47q-534 112-772 345-237 233-237 639 0 494 350 762 350 269 994 269 318 0 599-47 282-46 519-140z"/>
<path id="m" transform="scale(.0156)" d="m2194 1759q-697 0-966-159t-269-544q0-306 202-486 202-179 548-179 479 0 768 339t289 901v128h-572zm1147 238v-2e3h-575v531q-197-318-491-470t-719-152q-537 0-855 302-317 302-317 808 0 590 395 890 396 300 1180 300h807v57q0 397-261 614t-733 217q-300 0-585-72-284-72-546-216v532q315 122 612 182 297 61 578 61 760 0 1135-394 375-393 375-1193z"/>
<path id="s" transform="scale(.0156)" d="m2631 2963q-97 56-211 82-114 27-251 27-488 0-749-317t-261-911v-1844h-578v3500h578v-544q182 319 472 473 291 155 707 155 59 0 131-8 72-7 159-23l3-590z"/>
<path id="z" transform="scale(.0156)" d="m544 1381v2119h575v-2097q0-497 193-746 194-248 582-248 465 0 735 297 271 297 271 810v1984h575v-3500h-575v538q-209-319-486-474-276-155-642-155-603 0-916 375-312 375-312 1097zm1447 2203z"/>
</defs>
<use xlink:href="#t"/>
<use x="63.476562" xlink:href="#y"/>
<use x="122.65625" xlink:href="#j"/>
<use x="161.865234" xlink:href="#aa"/>
<use x="225.244141" xlink:href="#f"/>
<use x="286.425781" xlink:href="#p"/>
<use x="349.804688" xlink:href="#q"/>
<use x="399.804688" xlink:href="#k"/>
<use x="451.904297" xlink:href="#j"/>
<use x="491.113281" xlink:href="#m"/>
<use x="552.392578" xlink:href="#s"/>
<use x="593.505859" xlink:href="#j"/>
<use x="632.714844" xlink:href="#z"/>
<use x="696.09375" xlink:href="#t"/>
</g>
<path d="m88.1 65.7h485" clip-path="url(#a)" fill="none" stroke="#b0b0b0" stroke-linecap="square" stroke-width=".8"/>
<use x="88.128365" y="65.661519" stroke="#000000" stroke-width=".8" xlink:href="#r"/>
<!-- ALL -->
<g transform="translate(63.1 69.5) scale(.1 -.1)">
<defs>
<path id="ag" transform="scale(.0156)" d="m2188 4044-857-2322h1716l-859 2322zm-357 622h716l1778-4666h-656l-425 1197h-2103l-425-1197h-666l1781 4666z"/>
<path id="af" transform="scale(.0156)" d="m628 4666h631v-4135h2272v-531h-2903v4666z"/>
</defs>
<use xlink:href="#ag"/>
<use x="68.408203" xlink:href="#af"/>
<use x="124.121094" xlink:href="#af"/>
</g>
<path d="m331 189v-154" clip-path="url(#a)" fill="none" stroke="#1f77b4" stroke-linecap="square" stroke-width="1.5"/>
<g fill="none" stroke="#1f77b4" stroke-width="1.5">
<path d="m331 166v-15.4" clip-path="url(#a)"/>
<path d="m324 135v-15.4" clip-path="url(#a)"/>
<path d="m324 104v-15.4" clip-path="url(#a)"/>
<path d="m324 73.4v-15.4" clip-path="url(#a)"/>
</g>
<g fill="none" stroke="#1f77b4" stroke-width="1.5">
<path d="m331 166v-15.4" clip-path="url(#a)"/>
<path d="m345 135v-15.4" clip-path="url(#a)"/>
<path d="m325 104v-15.4" clip-path="url(#a)"/>
<path d="m345 73.4v-15.4" clip-path="url(#a)"/>
</g>
<g fill="none" stroke="#1f77b4" stroke-width="1.5">
<path d="m331 166v-15.4" clip-path="url(#a)"/>
<path d="m308 135v-15.4" clip-path="url(#a)"/>
<path d="m312 104v-15.4" clip-path="url(#a)"/>
<path d="m308 73.4v-15.4" clip-path="url(#a)"/>
</g>
<g fill="none" stroke="#1f77b4" stroke-width="1.5">
<path d="m331 158" clip-path="url(#a)"/>
<path d="m308 127h36.9" clip-path="url(#a)"/>
<path d="m312 96.5h13.4" clip-path="url(#a)"/>
<path d="m308 65.7h36.9" clip-path="url(#a)"/>
</g>
<g fill="none" stroke="#1f77b4" stroke-dasharray="1.5,2.475" stroke-width="1.5">
<path d="m331 166v-15.4" clip-path="url(#a)"/>
<path d="m331 166v-15.4" clip-path="url(#a)"/>
<path d="m314 135v-15.4" clip-path="url(#a)"/>
<path d="m333 135v-15.4" clip-path="url(#a)"/>
<path d="m321 104v-15.4" clip-path="url(#a)"/>
<path d="m325 104v-15.4" clip-path="url(#a)"/>
<path d="m316 73.4v-15.4" clip-path="url(#a)"/>
<path d="m331 73.4v-15.4" clip-path="url(#a)"/>
</g>
<path d="m88.1 189v-154" fill="none" stroke="#000" stroke-linecap="square" stroke-width=".8"/>
<path d="m573 189v-154" fill="none" stroke="#000" stroke-linecap="square" stroke-width=".8"/>
<path d="m88.1 189h485" fill="none" stroke="#000" stroke-linecap="square" stroke-width=".8"/>
<path d="m88.1 34.8h485" fill="none" stroke="#000" stroke-linecap="square" stroke-width=".8"/>
<!-- insignificant -->
<g transform="translate(340 158) scale(.1 -.1)">
<defs>
<path id="u" transform="scale(.0156)" d="m603 3500h575v-3500h-575v3500zm0 1363h575v-729h-575v729z"/>
<path id="ab" transform="scale(.0156)" d="m2906 1791q0 625-258 968-257 344-723 344-462 0-720-344-258-343-258-968 0-622 258-966t720-344q466 0 723 344 258 344 258 966zm575-1357q0-893-397-1329-396-436-1215-436-303 0-572 45t-522 139v559q253-137 500-202 247-66 503-66 566 0 847 295t281 892v285q-178-310-456-463t-666-153q-643 0-1037 490-394 491-394 1301 0 812 394 1302 394 491 1037 491 388 0 666-153t456-462v531h575v-3066z"/>
<path id="ac" transform="scale(.0156)" d="m2375 4863v-479h-550q-309 0-430-125-120-125-120-450v-309h947v-447h-947v-3053h-578v3053h-550v447h550v244q0 584 272 851 272 268 862 268h544z"/>
</defs>
<use xlink:href="#u"/>
<use x="27.783203" xlink:href="#p"/>
<use x="91.162109" xlink:href="#k"/>
<use x="143.261719" xlink:href="#u"/>
<use x="171.044922" xlink:href="#ab"/>
<use x="234.521484" xlink:href="#p"/>
<use x="297.900391" xlink:href="#u"/>
<use x="325.683594" xlink:href="#ac"/>
<use x="360.888672" xlink:href="#u"/>
<use x="388.671875" xlink:href="#v"/>
<use x="443.652344" xlink:href="#m"/>
<use x="504.931641" xlink:href="#p"/>
<use x="568.310547" xlink:href="#j"/>
</g>
<!-- 0.9929 -->
<g transform="translate(324 118) scale(.08 -.08)">
<use xlink:href="#b"/>
<use x="63.623047" xlink:href="#c"/>
<use x="95.410156" xlink:href="#e"/>
<use x="159.033203" xlink:href="#e"/>
<use x="222.65625" xlink:href="#w"/>
<use x="286.279297" xlink:href="#e"/>
</g>
<!-- 0.9930 -->
<g transform="translate(324 87.3) scale(.08 -.08)">
<use xlink:href="#b"/>
<use x="63.623047" xlink:href="#c"/>
<use x="95.410156" xlink:href="#e"/>
<use x="159.033203" xlink:href="#e"/>
<use x="222.65625" xlink:href="#i"/>
<use x="286.279297" xlink:href="#b"/>
</g>
<!-- 0.9930 -->
<g transform="translate(324 56.4) scale(.08 -.08)">
<use xlink:href="#b"/>
<use x="63.623047" xlink:href="#c"/>
<use x="95.410156" xlink:href="#e"/>
<use x="159.033203" xlink:href="#e"/>
<use x="222.65625" xlink:href="#i"/>
<use x="286.279297" xlink:href="#b"/>
</g>
<!-- more ⟶ -->
<g transform="translate(341 34.8) scale(.1 -.1)">
<defs>
<path id="ar" transform="scale(.0156)" d="m8863 2147v-281l-1229-1228-375 375 729 728h-7622v531h7622l-729 728 375 375 1229-1228z"/>
</defs>
<use xlink:href="#l"/>
<use x="97.412109" xlink:href="#f"/>
<use x="158.59375" xlink:href="#s"/>
<use x="197.457031" xlink:href="#g"/>
<use x="258.980469" xlink:href="#DejaVuSans-20"/>
<use x="290.767578" xlink:href="#ar"/>
</g>
<!-- ⟵ less -->
<g transform="translate(284 34.8) scale(.1 -.1)">
<defs>
<path id="as" transform="scale(.0156)" d="m313 1866v281l1228 1228 375-375-728-728h7621v-531h-7621l728-728-375-375-1228 1228z"/>
</defs>
<use xlink:href="#as"/>
<use x="143.359375" xlink:href="#DejaVuSans-20"/>
<use x="175.146484" xlink:href="#x"/>
<use x="202.929688" xlink:href="#g"/>
<use x="264.453125" xlink:href="#k"/>
<use x="316.552734" xlink:href="#k"/>
</g>
<!-- Memory usage of mdboom-accelerate_DJBX33A_m-04d5e93 vs. 3.14.0a0 -->
<g transform="translate(110 12.1) scale(.12 -.12)">
<defs>
<path id="am" transform="scale(.0156)" d="m628 4666h941l1190-3175 1197 3175h941v-4666h-616v4097l-1203-3200h-634l-1203 3200v-4097h-613v4666z"/>
<path id="ad" transform="scale(.0156)" d="m2906 2969v1894h575v-4863h-575v525q-181-312-458-464-276-152-664-152-634 0-1033 506-398 507-398 1332t398 1331q399 506 1033 506 388 0 664-152 277-151 458-463zm-1959-1222q0-634 261-995t717-361 718 361q263 361 263 995t-263 995q-262 361-718 361t-717-361-261-995z"/>
<path id="aj" transform="scale(.0156)" d="m313 2009h1684v-512h-1684v512z"/>
<path id="ao" transform="scale(.0156)" d="m1259 4147v-3628h763q966 0 1414 437 448 438 448 1382 0 937-448 1373t-1414 436h-763zm-631 519h1297q1356 0 1990-564 635-564 635-1764 0-1207-638-1773-637-565-1987-565h-1297v4666z"/>
<path id="an" transform="scale(.0156)" d="m628 4666h631v-4341q0-844-320-1225t-1030-381h-240v531h197q418 0 590 235 172 234 172 840v4341z"/>
<path id="ap" transform="scale(.0156)" d="m1259 2228v-1709h1013q509 0 754 211 246 211 246 645 0 438-246 645-245 208-754 208h-1013zm0 1919v-1406h935q462 0 688 173 227 174 227 530 0 353-227 528-226 175-688 175h-935zm-631 519h1613q722 0 1112-300 391-300 391-853 0-429-200-682t-588-315q466-100 724-418 258-317 258-792 0-625-425-966-425-340-1210-340h-1675v4666z"/>
<path id="al" transform="scale(.0156)" d="m403 4666h678l1160-1735 1165 1735h678l-1500-2241 1600-2425h-678l-1312 1984-1322-1984h-681l1665 2491-1453 2175z"/>
<path id="ai" transform="scale(.0156)" d="m2419 4116-1594-2491h1594v2491zm-166 550h794v-3041h666v-525h-666v-1100h-628v1100h-2106v609l1940 2957z"/>
<path id="aq" transform="scale(.0156)" d="m691 4666h2478v-532h-1900v-1143q137 47 274 70 138 23 276 23 781 0 1237-428 457-428 457-1159 0-753-469-1171-469-417-1322-417-294 0-599 50-304 50-629 150v635q281-153 581-228t634-75q541 0 856 284 316 284 316 772 0 487-316 771-315 285-856 285-253 0-505-56-251-56-513-175v2344z"/>
<path id="ak" transform="scale(.0156)" d="m191 3500h609l1094-2937 1094 2937h609l-1313-3500h-781l-1312 3500z"/>
</defs>
<use xlink:href="#am"/>
<use x="86.279297" xlink:href="#g"/>
<use x="147.802734" xlink:href="#l"/>
<use x="245.214844" xlink:href="#f"/>
<use x="306.396484" xlink:href="#s"/>
<use x="347.509766" xlink:href="#y"/>
<use x="406.689453" xlink:href="#DejaVuSans-20"/>
<use x="438.476562" xlink:href="#z"/>
<use x="501.855469" xlink:href="#k"/>
<use x="553.955078" xlink:href="#m"/>
<use x="615.234375" xlink:href="#ab"/>
<use x="678.710938" xlink:href="#g"/>
<use x="740.234375" xlink:href="#DejaVuSans-20"/>
<use x="772.021484" xlink:href="#f"/>
<use x="833.203125" xlink:href="#ac"/>
<use x="868.408203" xlink:href="#DejaVuSans-20"/>
<use x="900.195312" xlink:href="#l"/>
<use x="997.607422" xlink:href="#ad"/>
<use x="1061.083984" xlink:href="#ae"/>
<use x="1124.560547" xlink:href="#f"/>
<use x="1185.742188" xlink:href="#f"/>
<use x="1246.923828" xlink:href="#l"/>
<use x="1344.335938" xlink:href="#aj"/>
<use x="1380.419922" xlink:href="#m"/>
<use x="1441.699219" xlink:href="#v"/>
<use x="1496.679688" xlink:href="#v"/>
<use x="1551.660156" xlink:href="#g"/>
<use x="1613.183594" xlink:href="#x"/>
<use x="1640.966797" xlink:href="#g"/>
<use x="1702.490234" xlink:href="#s"/>
<use x="1743.603516" xlink:href="#m"/>
<use x="1804.882812" xlink:href="#j"/>
<use x="1844.091797" xlink:href="#g"/>
<use x="1905.615234" xlink:href="#q"/>
<use x="1955.615234" xlink:href="#ao"/>
<use x="2032.617188" xlink:href="#an"/>
<use x="2062.109375" xlink:href="#ap"/>
<use x="2130.712891" xlink:href="#al"/>
<use x="2199.21875" xlink:href="#i"/>
<use x="2262.841797" xlink:href="#i"/>
<use x="2326.464844" xlink:href="#ag"/>
<use x="2394.873047" xlink:href="#q"/>
<use x="2444.873047" xlink:href="#l"/>
<use x="2542.285156" xlink:href="#aj"/>
<use x="2578.369141" xlink:href="#b"/>
<use x="2641.992188" xlink:href="#ai"/>
<use x="2705.615234" xlink:href="#ad"/>
<use x="2769.091797" xlink:href="#aq"/>
<use x="2832.714844" xlink:href="#g"/>
<use x="2894.238281" xlink:href="#e"/>
<use x="2957.861328" xlink:href="#i"/>
<use x="3021.484375" xlink:href="#DejaVuSans-20"/>
<use x="3053.271484" xlink:href="#ak"/>
<use x="3112.451172" xlink:href="#k"/>
<use x="3164.550781" xlink:href="#c"/>
<use x="3196.337891" xlink:href="#DejaVuSans-20"/>
<use x="3228.125" xlink:href="#i"/>
<use x="3291.748047" xlink:href="#c"/>
<use x="3323.535156" xlink:href="#h"/>
<use x="3387.158203" xlink:href="#ai"/>
<use x="3450.78125" xlink:href="#c"/>
<use x="3482.568359" xlink:href="#b"/>
<use x="3546.191406" xlink:href="#m"/>
<use x="3607.470703" xlink:href="#b"/>
</g>
<defs>
<clipPath id="a">
<rect x="88.1" y="34.8" width="485" height="154"/>
</clipPath>
</defs>
</svg>
