<?xml version="1.0" encoding="UTF-8"?>
<!DOCTYPE svg  PUBLIC '-//W3C//DTD SVG 1.1//EN'  'http://www.w3.org/Graphics/SVG/1.1/DTD/svg11.dtd'>
<svg width="576pt" height="187pt" version="1.1" viewBox="0 0 576 187" xmlns="http://www.w3.org/2000/svg" xmlns:xlink="http://www.w3.org/1999/xlink">
<defs>
<style type="text/css">*{stroke-linejoin: round; stroke-linecap: butt}</style>
</defs>
<path d="m0 187h576v-187h-576z" fill="#fff"/>
<path d="m88.1 168h485v-133h-485z" fill="#fff"/>
<path d="m165 131v5.69l0.613 0.315 0.613 0.33 0.613 0.345 0.613 0.357 0.613 0.368 0.613 0.377 0.613 0.384 0.613 0.389 0.613 0.393 1.84 1.18 0.613 0.39 0.613 0.386 0.613 0.381 0.613 0.375 0.613 0.369 0.613 0.361 0.613 0.353 0.613 0.344 0.613 0.335 0.613 0.324 0.613 0.313 0.613 0.301 0.613 0.288 0.613 0.274 0.613 0.259 0.613 0.243 0.613 0.227 0.613 0.211 0.613 0.196 0.613 0.18 0.613 0.166 0.613 0.153 0.613 0.141 0.613 0.131 0.613 0.123 0.613 0.117 2.45 0.445 0.613 0.114 0.613 0.117 0.613 0.121 0.613 0.125 0.613 0.129 0.613 0.132 0.613 0.134 1.23 0.269 0.613 0.131 0.613 0.126 0.613 0.118 0.613 0.108 0.613 0.0952 0.613 0.0797 0.613 0.0615 0.613 0.0407 0.613 0.0174 0.613-0.00812 0.613-0.0357 0.613-0.0649 0.613-0.0955 0.613-0.127 0.613-0.159 0.613-0.191 0.613-0.223 0.613-0.254 0.613-0.284 0.613-0.312 0.613-0.339 0.613-0.364 0.613-0.387 0.613-0.408 0.613-0.427 0.613-0.444 0.613-0.459 0.613-0.472 0.613-0.483 0.613-0.492 0.613-0.499 1.84-1.52 0.613-0.506 0.613-0.501 0.613-0.495 0.613-0.485 0.613-0.474 0.613-0.46 0.613-0.445 0.613-0.428 0.613-0.409 0.613-0.389 0.613-0.369 0.613-0.348 0.613-0.327 0.613-0.305v-5.21l-0.613-0.305-0.613-0.327-0.613-0.348-0.613-0.369-0.613-0.389-0.613-0.409-0.613-0.428-0.613-0.445-0.613-0.46-0.613-0.474-0.613-0.485-0.613-0.495-0.613-0.501-0.613-0.506-1.84-1.52-0.613-0.499-0.613-0.492-0.613-0.483-0.613-0.472-0.613-0.459-0.613-0.444-0.613-0.427-0.613-0.408-0.613-0.387-0.613-0.364-0.613-0.339-0.613-0.312-0.613-0.284-0.613-0.254-0.613-0.223-0.613-0.191-0.613-0.159-0.613-0.127-0.613-0.0955-0.613-0.0649-0.613-0.0357-0.613-0.00812-0.613 0.0174-0.613 0.0407-0.613 0.0615-0.613 0.0797-0.613 0.0952-0.613 0.108-0.613 0.118-0.613 0.126-2.45 0.534-0.613 0.132-0.613 0.129-0.613 0.125-0.613 0.121-0.613 0.117-0.613 0.114-0.613 0.111-1.84 0.334-0.613 0.117-0.613 0.123-0.613 0.131-0.613 0.141-0.613 0.153-0.613 0.166-0.613 0.18-0.613 0.196-0.613 0.211-0.613 0.227-0.613 0.243-0.613 0.259-0.613 0.274-0.613 0.288-0.613 0.301-0.613 0.313-0.613 0.324-0.613 0.335-0.613 0.344-0.613 0.353-0.613 0.361-0.613 0.369-0.613 0.375-0.613 0.381-0.613 0.386-3.07 1.96-0.613 0.389-0.613 0.384-0.613 0.377-0.613 0.368-0.613 0.357-0.613 0.345-0.613 0.33-0.613 0.315z" clip-path="url(#a)" fill="#1f77b4" fill-opacity=".3"/>
<path d="m473 99.7v2.95l0.789 0.22 0.789 0.246 0.789 0.273 0.789 0.302 0.789 0.332 0.789 0.362 0.789 0.392 0.789 0.42 0.789 0.447 0.789 0.47 0.789 0.49 0.789 0.505 0.789 0.517 0.789 0.524 2.37 1.58 0.789 0.519 0.789 0.512 0.789 0.505 0.789 0.497 0.789 0.49 0.789 0.483 0.789 0.476 0.789 0.469 0.789 0.462 0.789 0.452 0.789 0.441 0.789 0.426 0.789 0.406 0.789 0.382 0.789 0.352 0.789 0.316 0.789 0.274 0.789 0.226 0.789 0.174 0.789 0.118 0.789 0.0593 0.789 2.1e-5 0.789-0.0583 0.789-0.114 0.789-0.165 0.789-0.21 0.789-0.249 0.789-0.28 0.789-0.304 0.789-0.322 0.789-0.334 0.789-0.341 1.58-0.695 0.789-0.353 0.789-0.357 0.789-0.364 0.789-0.372 0.789-0.382 0.789-0.393 0.789-0.406 0.789-0.417 0.789-0.428 0.789-0.436 1.58-0.885 0.789-0.442 0.789-0.436 0.789-0.428 0.789-0.416 0.789-0.402 0.789-0.385 0.789-0.368 0.789-0.35 0.789-0.331 0.789-0.313 0.789-0.296 0.789-0.279 0.789-0.262 0.789-0.247 0.789-0.233 0.789-0.22 0.789-0.208 0.789-0.197 0.789-0.186 0.789-0.176 0.789-0.166 0.789-0.156 0.789-0.145 0.789-0.135 0.789-0.123 0.789-0.111 0.789-0.0997 0.789-0.0882 0.789-0.0774 0.789-0.0679 0.789-0.06 0.789-0.054 0.789-0.0502 2.37-0.149v-2.13l-2.37-0.149-0.789-0.0502-0.789-0.054-0.789-0.06-0.789-0.0679-0.789-0.0774-0.789-0.0882-0.789-0.0997-0.789-0.111-0.789-0.123-0.789-0.135-0.789-0.145-0.789-0.156-0.789-0.166-0.789-0.176-0.789-0.186-0.789-0.197-0.789-0.208-0.789-0.22-0.789-0.233-0.789-0.247-0.789-0.262-0.789-0.279-0.789-0.296-0.789-0.313-0.789-0.331-0.789-0.35-0.789-0.368-0.789-0.385-0.789-0.402-0.789-0.416-0.789-0.428-0.789-0.436-0.789-0.442-1.58-0.885-0.789-0.436-0.789-0.428-0.789-0.417-0.789-0.406-0.789-0.393-0.789-0.382-0.789-0.372-0.789-0.364-0.789-0.357-1.58-0.702-0.789-0.346-0.789-0.341-0.789-0.334-0.789-0.322-0.789-0.304-0.789-0.28-0.789-0.249-0.789-0.21-0.789-0.165-0.789-0.114-0.789-0.0583-0.789 2.1e-5 -0.789 0.0593-0.789 0.118-0.789 0.174-0.789 0.226-0.789 0.274-0.789 0.316-0.789 0.352-0.789 0.382-0.789 0.406-0.789 0.426-0.789 0.441-0.789 0.452-0.789 0.462-0.789 0.469-0.789 0.476-0.789 0.483-0.789 0.49-0.789 0.497-0.789 0.505-0.789 0.512-0.789 0.519-2.37 1.58-0.789 0.524-0.789 0.517-0.789 0.505-0.789 0.49-0.789 0.47-0.789 0.447-0.789 0.42-0.789 0.392-0.789 0.362-0.789 0.332-0.789 0.302-0.789 0.273-0.789 0.246-0.789 0.22z" clip-path="url(#a)" fill="#1f77b4" fill-opacity=".3"/>
<path d="m165 55.2v25.6l3.9 0.806 3.9 0.738 3.9 0.655 3.9 0.556 3.9 0.445 3.9 0.323 3.9 0.193 3.9 0.0586 3.9-0.0774 3.9-0.212 3.9-0.341 3.9-0.462 3.9-0.572 3.9-0.669 3.9-0.751 3.9-0.817 3.9-0.866 11.7-2.72 3.9-0.898 3.9-0.871 3.9-0.833 3.9-0.786 3.9-0.733 3.9-0.675 3.9-0.615 3.9-0.554 3.9-0.493 3.9-0.434 3.9-0.379 3.9-0.327 3.9-0.279 3.9-0.236 3.9-0.197 3.9-0.163 3.9-0.134 3.9-0.109 3.9-0.0874 3.9-0.0694 3.9-0.0545 3.9-0.0422 3.9-0.0321 3.9-0.0239 3.9-0.017 3.9-0.0112 3.9-0.00619 3.9-0.00159 3.9 0.0029 3.9 0.00756 3.9 0.0127 3.9 0.0186 3.9 0.0257 3.9 0.0342 3.9 0.0445 3.9 0.0571 3.9 0.0721 3.9 0.0902 3.9 0.112 3.9 0.136 3.9 0.165 3.9 0.198 3.9 0.236 3.9 0.277 3.9 0.322 3.9 0.371 3.9 0.423 3.9 0.477 3.9 0.532 3.9 0.587 3.9 0.64 3.9 0.689 3.9 0.734 3.9 0.771 3.9 0.799 3.9 0.817 7.8 1.64 3.9 0.791 3.9 0.753 3.9 0.7 3.9 0.632 3.9 0.55 3.9 0.456 3.9 0.352 3.9 0.239 3.9 0.121 3.9-3.22e-4 3.9-0.121 3.9-0.238 3.9-0.35 3.9-0.453 3.9-0.545 3.9-0.625 3.9-0.692 3.9-0.743 3.9-0.78 7.8-1.61v-17.5l-7.8-1.61-3.9-0.78-3.9-0.743-3.9-0.692-3.9-0.625-3.9-0.545-3.9-0.453-3.9-0.35-3.9-0.238-3.9-0.121-3.9-3.21e-4 -3.9 0.121-3.9 0.239-3.9 0.352-3.9 0.456-3.9 0.55-3.9 0.632-3.9 0.7-3.9 0.753-3.9 0.791-11.7 2.45-3.9 0.799-3.9 0.771-3.9 0.734-3.9 0.689-3.9 0.64-3.9 0.587-3.9 0.532-3.9 0.477-3.9 0.423-3.9 0.371-3.9 0.322-3.9 0.277-3.9 0.236-3.9 0.198-3.9 0.165-3.9 0.136-3.9 0.112-3.9 0.0902-3.9 0.0721-3.9 0.0571-3.9 0.0445-3.9 0.0342-3.9 0.0257-3.9 0.0186-3.9 0.0127-3.9 0.00756-3.9 0.0029-3.9-0.00158-3.9-0.00619-3.9-0.0112-3.9-0.017-3.9-0.0239-3.9-0.0321-3.9-0.0422-3.9-0.0545-3.9-0.0694-3.9-0.0874-3.9-0.109-3.9-0.134-3.9-0.163-3.9-0.197-3.9-0.236-3.9-0.279-3.9-0.327-3.9-0.379-3.9-0.434-3.9-0.493-3.9-0.554-3.9-0.615-3.9-0.675-3.9-0.733-3.9-0.786-3.9-0.833-3.9-0.871-3.9-0.898-11.7-2.72-3.9-0.866-3.9-0.817-3.9-0.751-3.9-0.669-3.9-0.572-3.9-0.462-3.9-0.341-3.9-0.212-3.9-0.0774-3.9 0.0586-3.9 0.193-3.9 0.323-3.9 0.445-3.9 0.556-3.9 0.655-3.9 0.738-3.9 0.806z" clip-path="url(#a)" fill="#1f77b4" fill-opacity=".3"/>
<path d="m110 168v-133" clip-path="url(#a)" fill="none" stroke="#b0b0b0" stroke-linecap="square" stroke-width=".8"/>
<defs>
<path id="j" d="m0 0v3.5" stroke="#000" stroke-width=".8"/>
</defs>
<use x="110.156258" y="167.521635" stroke="#000000" stroke-width=".8" xlink:href="#j"/>
<defs>
<path id="k" d="m0 0v-3.5" stroke="#000" stroke-width=".8"/>
</defs>
<use x="110.156258" y="34.79649" stroke="#000000" stroke-width=".8" xlink:href="#k"/>
<g transform="translate(94.8 182) scale(.1 -.1)">
<defs>
<path id="b" transform="scale(.0156)" d="m794 531h1031v3560l-1122-225v575l1116 225h631v-4135h1031v-531h-2687v531z"/>
<path id="c" transform="scale(.0156)" d="m684 794h660v-794h-660v794z"/>
<path id="e" transform="scale(.0156)" d="m2034 4250q-487 0-733-480-245-479-245-1442 0-959 245-1439 246-480 733-480 491 0 736 480 246 480 246 1439 0 963-246 1442-245 480-736 480zm0 500q785 0 1199-621 414-620 414-1801 0-1178-414-1799-414-620-1199-620-784 0-1198 620-414 621-414 1799 0 1181 414 1801 414 621 1198 621z"/>
<path id="d" transform="scale(.0156)" d="m4488 3438-1429-1435 1429-1428-372-378-1435 1434-1434-1434-369 378 1425 1428-1425 1435 369 378 1434-1435 1435 1435 372-378z"/>
</defs>
<use xlink:href="#b"/>
<use x="63.623047" xlink:href="#c"/>
<use x="95.410156" xlink:href="#e"/>
<use x="159.033203" xlink:href="#e"/>
<use x="222.65625" xlink:href="#d"/>
</g>
<g transform="translate(94.8 25.7) scale(.1 -.1)">
<use xlink:href="#b"/>
<use x="63.623047" xlink:href="#c"/>
<use x="95.410156" xlink:href="#e"/>
<use x="159.033203" xlink:href="#e"/>
<use x="222.65625" xlink:href="#d"/>
</g>
<path d="m166 168v-133" clip-path="url(#a)" fill="none" stroke="#b0b0b0" stroke-linecap="square" stroke-width=".8"/>
<use x="166.091865" y="167.521635" stroke="#000000" stroke-width=".8" xlink:href="#j"/>
<use x="166.091865" y="34.79649" stroke="#000000" stroke-width=".8" xlink:href="#k"/>
<g transform="translate(151 182) scale(.1 -.1)">
<defs>
<path id="f" transform="scale(.0156)" d="m691 4666h2478v-532h-1900v-1143q137 47 274 70 138 23 276 23 781 0 1237-428 457-428 457-1159 0-753-469-1171-469-417-1322-417-294 0-599 50-304 50-629 150v635q281-153 581-228t634-75q541 0 856 284 316 284 316 772 0 487-316 771-315 285-856 285-253 0-505-56-251-56-513-175v2344z"/>
</defs>
<use xlink:href="#b"/>
<use x="63.623047" xlink:href="#c"/>
<use x="95.410156" xlink:href="#e"/>
<use x="159.033203" xlink:href="#f"/>
<use x="222.65625" xlink:href="#d"/>
</g>
<g transform="translate(151 25.7) scale(.1 -.1)">
<use xlink:href="#b"/>
<use x="63.623047" xlink:href="#c"/>
<use x="95.410156" xlink:href="#e"/>
<use x="159.033203" xlink:href="#f"/>
<use x="222.65625" xlink:href="#d"/>
</g>
<path d="m222 168v-133" clip-path="url(#a)" fill="none" stroke="#b0b0b0" stroke-linecap="square" stroke-width=".8"/>
<use x="222.027473" y="167.521635" stroke="#000000" stroke-width=".8" xlink:href="#j"/>
<use x="222.027473" y="34.79649" stroke="#000000" stroke-width=".8" xlink:href="#k"/>
<g transform="translate(207 182) scale(.1 -.1)">
<use xlink:href="#b"/>
<use x="63.623047" xlink:href="#c"/>
<use x="95.410156" xlink:href="#b"/>
<use x="159.033203" xlink:href="#e"/>
<use x="222.65625" xlink:href="#d"/>
</g>
<g transform="translate(207 25.7) scale(.1 -.1)">
<use xlink:href="#b"/>
<use x="63.623047" xlink:href="#c"/>
<use x="95.410156" xlink:href="#b"/>
<use x="159.033203" xlink:href="#e"/>
<use x="222.65625" xlink:href="#d"/>
</g>
<path d="m278 168v-133" clip-path="url(#a)" fill="none" stroke="#b0b0b0" stroke-linecap="square" stroke-width=".8"/>
<use x="277.963081" y="167.521635" stroke="#000000" stroke-width=".8" xlink:href="#j"/>
<use x="277.963081" y="34.79649" stroke="#000000" stroke-width=".8" xlink:href="#k"/>
<g transform="translate(263 182) scale(.1 -.1)">
<use xlink:href="#b"/>
<use x="63.623047" xlink:href="#c"/>
<use x="95.410156" xlink:href="#b"/>
<use x="159.033203" xlink:href="#f"/>
<use x="222.65625" xlink:href="#d"/>
</g>
<g transform="translate(263 25.7) scale(.1 -.1)">
<use xlink:href="#b"/>
<use x="63.623047" xlink:href="#c"/>
<use x="95.410156" xlink:href="#b"/>
<use x="159.033203" xlink:href="#f"/>
<use x="222.65625" xlink:href="#d"/>
</g>
<path d="m334 168v-133" clip-path="url(#a)" fill="none" stroke="#b0b0b0" stroke-linecap="square" stroke-width=".8"/>
<use x="333.898689" y="167.521635" stroke="#000000" stroke-width=".8" xlink:href="#j"/>
<use x="333.898689" y="34.79649" stroke="#000000" stroke-width=".8" xlink:href="#k"/>
<g transform="translate(319 182) scale(.1 -.1)">
<defs>
<path id="i" transform="scale(.0156)" d="m1228 531h2203v-531h-2962v531q359 372 979 998 621 627 780 809 303 340 423 576 121 236 121 464 0 372-261 606-261 235-680 235-297 0-627-103-329-103-704-313v638q381 153 712 231 332 78 607 78 725 0 1156-363 431-362 431-968 0-288-108-546-107-257-392-607-78-91-497-524-418-433-1181-1211z"/>
</defs>
<use xlink:href="#b"/>
<use x="63.623047" xlink:href="#c"/>
<use x="95.410156" xlink:href="#i"/>
<use x="159.033203" xlink:href="#e"/>
<use x="222.65625" xlink:href="#d"/>
</g>
<g transform="translate(319 25.7) scale(.1 -.1)">
<use xlink:href="#b"/>
<use x="63.623047" xlink:href="#c"/>
<use x="95.410156" xlink:href="#i"/>
<use x="159.033203" xlink:href="#e"/>
<use x="222.65625" xlink:href="#d"/>
</g>
<path d="m390 168v-133" clip-path="url(#a)" fill="none" stroke="#b0b0b0" stroke-linecap="square" stroke-width=".8"/>
<use x="389.834297" y="167.521635" stroke="#000000" stroke-width=".8" xlink:href="#j"/>
<use x="389.834297" y="34.79649" stroke="#000000" stroke-width=".8" xlink:href="#k"/>
<g transform="translate(375 182) scale(.1 -.1)">
<use xlink:href="#b"/>
<use x="63.623047" xlink:href="#c"/>
<use x="95.410156" xlink:href="#i"/>
<use x="159.033203" xlink:href="#f"/>
<use x="222.65625" xlink:href="#d"/>
</g>
<g transform="translate(375 25.7) scale(.1 -.1)">
<use xlink:href="#b"/>
<use x="63.623047" xlink:href="#c"/>
<use x="95.410156" xlink:href="#i"/>
<use x="159.033203" xlink:href="#f"/>
<use x="222.65625" xlink:href="#d"/>
</g>
<path d="m446 168v-133" clip-path="url(#a)" fill="none" stroke="#b0b0b0" stroke-linecap="square" stroke-width=".8"/>
<use x="445.769904" y="167.521635" stroke="#000000" stroke-width=".8" xlink:href="#j"/>
<use x="445.769904" y="34.79649" stroke="#000000" stroke-width=".8" xlink:href="#k"/>
<g transform="translate(430 182) scale(.1 -.1)">
<defs>
<path id="h" transform="scale(.0156)" d="m2597 2516q453-97 707-404 255-306 255-756 0-690-475-1069-475-378-1350-378-293 0-604 58t-642 174v609q262-153 574-231 313-78 654-78 593 0 904 234t311 681q0 413-289 645-289 233-804 233h-544v519h569q465 0 712 186t247 536q0 359-255 551-254 193-729 193-260 0-557-57-297-56-653-174v562q360 100 674 150t592 50q719 0 1137-327 419-326 419-882 0-388-222-655t-631-370z"/>
</defs>
<use xlink:href="#b"/>
<use x="63.623047" xlink:href="#c"/>
<use x="95.410156" xlink:href="#h"/>
<use x="159.033203" xlink:href="#e"/>
<use x="222.65625" xlink:href="#d"/>
</g>
<g transform="translate(430 25.7) scale(.1 -.1)">
<use xlink:href="#b"/>
<use x="63.623047" xlink:href="#c"/>
<use x="95.410156" xlink:href="#h"/>
<use x="159.033203" xlink:href="#e"/>
<use x="222.65625" xlink:href="#d"/>
</g>
<path d="m502 168v-133" clip-path="url(#a)" fill="none" stroke="#b0b0b0" stroke-linecap="square" stroke-width=".8"/>
<use x="501.705512" y="167.521635" stroke="#000000" stroke-width=".8" xlink:href="#j"/>
<use x="501.705512" y="34.79649" stroke="#000000" stroke-width=".8" xlink:href="#k"/>
<g transform="translate(486 182) scale(.1 -.1)">
<use xlink:href="#b"/>
<use x="63.623047" xlink:href="#c"/>
<use x="95.410156" xlink:href="#h"/>
<use x="159.033203" xlink:href="#f"/>
<use x="222.65625" xlink:href="#d"/>
</g>
<g transform="translate(486 25.7) scale(.1 -.1)">
<use xlink:href="#b"/>
<use x="63.623047" xlink:href="#c"/>
<use x="95.410156" xlink:href="#h"/>
<use x="159.033203" xlink:href="#f"/>
<use x="222.65625" xlink:href="#d"/>
</g>
<path d="m558 168v-133" clip-path="url(#a)" fill="none" stroke="#b0b0b0" stroke-linecap="square" stroke-width=".8"/>
<use x="557.64112" y="167.521635" stroke="#000000" stroke-width=".8" xlink:href="#j"/>
<use x="557.64112" y="34.79649" stroke="#000000" stroke-width=".8" xlink:href="#k"/>
<g transform="translate(542 182) scale(.1 -.1)">
<defs>
<path id="g" transform="scale(.0156)" d="m2419 4116-1594-2491h1594v2491zm-166 550h794v-3041h666v-525h-666v-1100h-628v1100h-2106v609l1940 2957z"/>
</defs>
<use xlink:href="#b"/>
<use x="63.623047" xlink:href="#c"/>
<use x="95.410156" xlink:href="#g"/>
<use x="159.033203" xlink:href="#e"/>
<use x="222.65625" xlink:href="#d"/>
</g>
<g transform="translate(542 25.7) scale(.1 -.1)">
<use xlink:href="#b"/>
<use x="63.623047" xlink:href="#c"/>
<use x="95.410156" xlink:href="#g"/>
<use x="159.033203" xlink:href="#e"/>
<use x="222.65625" xlink:href="#d"/>
</g>
<path d="m88.1 134h485" clip-path="url(#a)" fill="none" stroke="#b0b0b0" stroke-linecap="square" stroke-width=".8"/>
<defs>
<path id="q" d="m0 0h-3.5" stroke="#000" stroke-width=".8"/>
</defs>
<use x="88.128365" y="134.340349" stroke="#000000" stroke-width=".8" xlink:href="#q"/>
<g transform="translate(3 138) scale(.1 -.1)">
<defs>
<path id="ac" transform="scale(.0156)" d="m3116 1747q0 634-261 995t-717 361q-457 0-718-361t-261-995 261-995 718-361q456 0 717 361t261 995zm-1957 1222q182 312 458 463 277 152 661 152 638 0 1036-506 399-506 399-1331t-399-1332q-398-506-1036-506-384 0-661 152-276 152-458 464v-525h-578v4863h578v-1894z"/>
<path id="l" transform="scale(.0156)" d="m3597 1894v-281h-2644q38-594 358-905t892-311q331 0 642 81t618 244v-544q-310-131-635-200t-659-69q-838 0-1327 487-489 488-489 1320 0 859 464 1363 464 505 1252 505 706 0 1117-455 411-454 411-1235zm-575 169q-6 471-264 752-258 282-683 282-481 0-770-272t-333-766l2050 4z"/>
<path id="x" transform="scale(.0156)" d="m3513 2113v-2113h-575v2094q0 497-194 743-194 247-581 247-466 0-735-297-269-296-269-809v-1978h-578v3500h578v-544q207 316 486 472 280 156 646 156 603 0 912-373 310-373 310-1098z"/>
<path id="ab" transform="scale(.0156)" d="m3122 3366v-538q-244 135-489 202t-495 67q-560 0-870-355-309-354-309-995t309-996q310-354 870-354 250 0 495 67t489 202v-532q-241-112-499-168-257-57-548-57-791 0-1257 497-465 497-465 1341 0 856 470 1346 471 491 1290 491 265 0 518-55 253-54 491-163z"/>
<path id="z" transform="scale(.0156)" d="m3513 2113v-2113h-575v2094q0 497-194 743-194 247-581 247-466 0-735-297-269-296-269-809v-1978h-578v4863h578v-1907q207 316 486 472 280 156 646 156 603 0 912-373 310-373 310-1098z"/>
<path id="ad" transform="scale(.0156)" d="m3263-1063v-446h-3326v446h3326z"/>
<path id="s" transform="scale(.0156)" d="m3328 2828q216 388 516 572t706 184q547 0 844-383 297-382 297-1088v-2113h-578v2094q0 503-179 746-178 244-543 244-447 0-707-297-259-296-259-809v-1978h-578v2094q0 506-178 748t-550 242q-441 0-701-298-259-298-259-808v-1978h-578v3500h578v-544q197 322 472 475t653 153q382 0 649-194 267-193 395-562z"/>
<path id="r" transform="scale(.0156)" d="m1159 525v-1856h-578v4831h578v-531q182 312 458 463 277 152 661 152 638 0 1036-506 399-506 399-1331t-399-1332q-398-506-1036-506-384 0-661 152-276 152-458 464zm1957 1222q0 634-261 995t-717 361q-457 0-718-361t-261-995 261-995 718-361q456 0 717 361t261 995z"/>
<path id="m" transform="scale(.0156)" d="m1959 3097q-462 0-731-361t-269-989 267-989q268-361 733-361 460 0 728 362 269 363 269 988 0 622-269 986-268 364-728 364zm0 487q750 0 1178-488 429-487 429-1349 0-859-429-1349-428-489-1178-489-753 0-1180 489-426 490-426 1349 0 862 426 1349 427 488 1180 488z"/>
<path id="y" transform="scale(.0156)" d="m603 4863h575v-4863h-575v4863z"/>
</defs>
<use xlink:href="#ac"/>
<use x="63.476562" xlink:href="#l"/>
<use x="125" xlink:href="#x"/>
<use x="188.378906" xlink:href="#ab"/>
<use x="243.359375" xlink:href="#z"/>
<use x="306.738281" xlink:href="#ad"/>
<use x="356.738281" xlink:href="#s"/>
<use x="454.150391" xlink:href="#r"/>
<use x="517.626953" xlink:href="#ad"/>
<use x="567.626953" xlink:href="#r"/>
<use x="631.103516" xlink:href="#m"/>
<use x="692.285156" xlink:href="#m"/>
<use x="753.466797" xlink:href="#y"/>
</g>
<path d="m88.1 101h485" clip-path="url(#a)" fill="none" stroke="#b0b0b0" stroke-linecap="square" stroke-width=".8"/>
<use x="88.128365" y="101.159063" stroke="#000000" stroke-width=".8" xlink:href="#q"/>
<g transform="translate(58.4 105) scale(.1 -.1)">
<defs>
<path id="v" transform="scale(.0156)" d="m1172 4494v-994h1184v-447h-1184v-1900q0-428 117-550t477-122h590v-481h-590q-666 0-919 248-253 249-253 905v1900h-422v447h422v994h578z"/>
</defs>
<use xlink:href="#i"/>
<use x="63.623047" xlink:href="#v"/>
<use x="102.832031" xlink:href="#m"/>
<use x="164.013672" xlink:href="#h"/>
</g>
<path d="m88.1 68h485" clip-path="url(#a)" fill="none" stroke="#b0b0b0" stroke-linecap="square" stroke-width=".8"/>
<use x="88.128365" y="67.977776" stroke="#000000" stroke-width=".8" xlink:href="#q"/>
<g transform="translate(63.1 71.8) scale(.1 -.1)">
<defs>
<path id="al" transform="scale(.0156)" d="m2188 4044-857-2322h1716l-859 2322zm-357 622h716l1778-4666h-656l-425 1197h-2103l-425-1197h-666l1781 4666z"/>
<path id="ae" transform="scale(.0156)" d="m628 4666h631v-4135h2272v-531h-2903v4666z"/>
</defs>
<use xlink:href="#al"/>
<use x="68.408203" xlink:href="#ae"/>
<use x="124.121094" xlink:href="#ae"/>
</g>
<path d="m110 168v-133" clip-path="url(#a)" fill="none" stroke="#1f77b4" stroke-linecap="square" stroke-width="1.5"/>
<g fill="none" stroke="#1f77b4" stroke-width="1.5">
<path d="m196 143v-16.6" clip-path="url(#a)"/>
<path d="m506 109v-16.6" clip-path="url(#a)"/>
<path d="m343 76.3v-16.6" clip-path="url(#a)"/>
</g>
<g fill="none" stroke="#1f77b4" stroke-width="1.5">
<path d="m225 143v-16.6" clip-path="url(#a)"/>
<path d="m551 109v-16.6" clip-path="url(#a)"/>
<path d="m551 76.3v-16.6" clip-path="url(#a)"/>
</g>
<g fill="none" stroke="#1f77b4" stroke-width="1.5">
<path d="m165 143v-16.6" clip-path="url(#a)"/>
<path d="m473 109v-16.6" clip-path="url(#a)"/>
<path d="m165 76.3v-16.6" clip-path="url(#a)"/>
</g>
<g fill="none" stroke="#1f77b4" stroke-width="1.5">
<path d="m165 134h60.7" clip-path="url(#a)"/>
<path d="m473 101h78.1" clip-path="url(#a)"/>
<path d="m165 68h386" clip-path="url(#a)"/>
</g>
<g fill="none" stroke="#1f77b4" stroke-dasharray="1.5,2.475" stroke-width="1.5">
<path d="m175 143v-16.6" clip-path="url(#a)"/>
<path d="m214 143v-16.6" clip-path="url(#a)"/>
<path d="m487 109v-16.6" clip-path="url(#a)"/>
<path d="m528 109v-16.6" clip-path="url(#a)"/>
<path d="m182 76.3v-16.6" clip-path="url(#a)"/>
<path d="m518 76.3v-16.6" clip-path="url(#a)"/>
</g>
<path d="m88.1 168v-133" fill="none" stroke="#000" stroke-linecap="square" stroke-width=".8"/>
<path d="m573 168v-133" fill="none" stroke="#000" stroke-linecap="square" stroke-width=".8"/>
<path d="m88.1 168h485" fill="none" stroke="#000" stroke-linecap="square" stroke-width=".8"/>
<path d="m88.1 34.8h485" fill="none" stroke="#000" stroke-linecap="square" stroke-width=".8"/>
<g transform="translate(196 124) scale(.08 -.08)">
<defs>
<path id="am" transform="scale(.0156)" d="m525 4666h3e3v-269l-1694-4397h-659l1594 4134h-2241v532z"/>
<path id="n" transform="scale(.0156)" d="m2113 2584q-425 0-674-291-248-290-248-796 0-503 248-796 249-292 674-292t673 292q248 293 248 796 0 506-248 796-248 291-673 291zm1253 1979v-575q-238 112-480 171-242 60-480 60-625 0-955-422-329-422-376-1275 184 272 462 417 279 145 613 145 703 0 1111-427 408-426 408-1160 0-719-425-1154-425-434-1131-434-810 0-1238 620-428 621-428 1799 0 1106 525 1764t1409 658q238 0 480-47t505-140z"/>
</defs>
<use xlink:href="#b"/>
<use x="63.623047" xlink:href="#c"/>
<use x="95.410156" xlink:href="#e"/>
<use x="159.033203" xlink:href="#am"/>
<use x="222.65625" xlink:href="#n"/>
<use x="286.279297" xlink:href="#h"/>
</g>
<g transform="translate(506 91.2) scale(.08 -.08)">
<use xlink:href="#b"/>
<use x="63.623047" xlink:href="#c"/>
<use x="95.410156" xlink:href="#h"/>
<use x="159.033203" xlink:href="#f"/>
<use x="222.65625" xlink:href="#g"/>
<use x="286.279297" xlink:href="#i"/>
</g>
<g transform="translate(343 58) scale(.08 -.08)">
<defs>
<path id="t" transform="scale(.0156)" d="m2034 2216q-450 0-708-241-257-241-257-662 0-422 257-663 258-241 708-241t709 242q260 243 260 662 0 421-258 662-257 241-711 241zm-631 268q-406 100-633 378-226 279-226 679 0 559 398 884 399 325 1092 325 697 0 1094-325t397-884q0-400-227-679-226-278-629-378 456-106 710-416 255-309 255-755 0-679-414-1042-414-362-1186-362-771 0-1186 362-414 363-414 1042 0 446 256 755 257 310 713 416zm-231 997q0-362 226-565 227-203 636-203 407 0 636 203 230 203 230 565 0 363-230 566-229 203-636 203-409 0-636-203-226-203-226-566z"/>
</defs>
<use xlink:href="#b"/>
<use x="63.623047" xlink:href="#c"/>
<use x="95.410156" xlink:href="#i"/>
<use x="159.033203" xlink:href="#e"/>
<use x="222.65625" xlink:href="#t"/>
<use x="286.279297" xlink:href="#g"/>
</g>
<g transform="translate(120 34.8) scale(.1 -.1)">
<defs>
<path id="w" transform="scale(.0156)" d="m2631 2963q-97 56-211 82-114 27-251 27-488 0-749-317t-261-911v-1844h-578v3500h578v-544q182 319 472 473 291 155 707 155 59 0 131-8 72-7 159-23l3-590z"/>
<path id="an" transform="scale(.0156)" d="m8863 2147v-281l-1229-1228-375 375 729 728h-7622v531h7622l-729 728 375 375 1229-1228z"/>
</defs>
<use xlink:href="#s"/>
<use x="97.412109" xlink:href="#m"/>
<use x="158.59375" xlink:href="#w"/>
<use x="197.457031" xlink:href="#l"/>
<use x="258.980469" xlink:href="#DejaVuSans-20"/>
<use x="290.767578" xlink:href="#an"/>
</g>
<g transform="translate(63.3 34.8) scale(.1 -.1)">
<defs>
<path id="ao" transform="scale(.0156)" d="m313 1866v281l1228 1228 375-375-728-728h7621v-531h-7621l728-728-375-375-1228 1228z"/>
<path id="o" transform="scale(.0156)" d="m2834 3397v-544q-243 125-506 187-262 63-544 63-428 0-642-131t-214-394q0-200 153-314t616-217l197-44q612-131 870-370t258-667q0-488-386-773-386-284-1061-284-281 0-586 55t-642 164v594q319-166 628-249 309-82 613-82 406 0 624 139 219 139 219 392 0 234-158 359-157 125-692 241l-200 47q-534 112-772 345-237 233-237 639 0 494 350 762 350 269 994 269 318 0 599-47 282-46 519-140z"/>
</defs>
<use xlink:href="#ao"/>
<use x="143.359375" xlink:href="#DejaVuSans-20"/>
<use x="175.146484" xlink:href="#y"/>
<use x="202.929688" xlink:href="#l"/>
<use x="264.453125" xlink:href="#o"/>
<use x="316.552734" xlink:href="#o"/>
</g>
<g transform="translate(110 12.1) scale(.12 -.12)">
<defs>
<path id="ak" transform="scale(.0156)" d="m628 4666h941l1190-3175 1197 3175h941v-4666h-616v4097l-1203-3200h-634l-1203 3200v-4097h-613v4666z"/>
<path id="u" transform="scale(.0156)" d="m2059-325q-243-625-475-815-231-191-618-191h-460v481h338q237 0 368 113 132 112 291 531l103 262-1415 3444h609l1094-2737 1094 2737h609l-1538-3825z"/>
<path id="ah" transform="scale(.0156)" d="m544 1381v2119h575v-2097q0-497 193-746 194-248 582-248 465 0 735 297 271 297 271 810v1984h575v-3500h-575v538q-209-319-486-474-276-155-642-155-603 0-916 375-312 375-312 1097zm1447 2203z"/>
<path id="p" transform="scale(.0156)" d="m2194 1759q-697 0-966-159t-269-544q0-306 202-486 202-179 548-179 479 0 768 339t289 901v128h-572zm1147 238v-2e3h-575v531q-197-318-491-470t-719-152q-537 0-855 302-317 302-317 808 0 590 395 890 396 300 1180 300h807v57q0 397-261 614t-733 217q-300 0-585-72-284-72-546-216v532q315 122 612 182 297 61 578 61 760 0 1135-394 375-393 375-1193z"/>
<path id="ai" transform="scale(.0156)" d="m2906 1791q0 625-258 968-257 344-723 344-462 0-720-344-258-343-258-968 0-622 258-966t720-344q466 0 723 344 258 344 258 966zm575-1357q0-893-397-1329-396-436-1215-436-303 0-572 45t-522 139v559q253-137 500-202 247-66 503-66 566 0 847 295t281 892v285q-178-310-456-463t-666-153q-643 0-1037 490-394 491-394 1301 0 812 394 1302 394 491 1037 491 388 0 666-153t456-462v531h575v-3066z"/>
<path id="aj" transform="scale(.0156)" d="m2375 4863v-479h-550q-309 0-430-125-120-125-120-450v-309h947v-447h-947v-3053h-578v3053h-550v447h550v244q0 584 272 851 272 268 862 268h544z"/>
<path id="af" transform="scale(.0156)" d="m313 2009h1684v-512h-1684v512z"/>
<path id="aa" transform="scale(.0156)" d="m2906 2969v1894h575v-4863h-575v525q-181-312-458-464-276-152-664-152-634 0-1033 506-398 507-398 1332t398 1331q399 506 1033 506 388 0 664-152 277-151 458-463zm-1959-1222q0-634 261-995t717-361 718 361q263 361 263 995t-263 995q-262 361-718 361t-717-361-261-995z"/>
<path id="ag" transform="scale(.0156)" d="m191 3500h609l1094-2937 1094 2937h609l-1313-3500h-781l-1312 3500z"/>
</defs>
<use xlink:href="#ak"/>
<use x="86.279297" xlink:href="#l"/>
<use x="147.802734" xlink:href="#s"/>
<use x="245.214844" xlink:href="#m"/>
<use x="306.396484" xlink:href="#w"/>
<use x="347.509766" xlink:href="#u"/>
<use x="406.689453" xlink:href="#DejaVuSans-20"/>
<use x="438.476562" xlink:href="#ah"/>
<use x="501.855469" xlink:href="#o"/>
<use x="553.955078" xlink:href="#p"/>
<use x="615.234375" xlink:href="#ai"/>
<use x="678.710938" xlink:href="#l"/>
<use x="740.234375" xlink:href="#DejaVuSans-20"/>
<use x="772.021484" xlink:href="#m"/>
<use x="833.203125" xlink:href="#aj"/>
<use x="868.408203" xlink:href="#DejaVuSans-20"/>
<use x="900.195312" xlink:href="#r"/>
<use x="963.671875" xlink:href="#u"/>
<use x="1022.851562" xlink:href="#v"/>
<use x="1062.060547" xlink:href="#z"/>
<use x="1125.439453" xlink:href="#m"/>
<use x="1186.621094" xlink:href="#x"/>
<use x="1250" xlink:href="#af"/>
<use x="1286.083984" xlink:href="#h"/>
<use x="1349.707031" xlink:href="#g"/>
<use x="1413.330078" xlink:href="#i"/>
<use x="1476.953125" xlink:href="#l"/>
<use x="1538.476562" xlink:href="#n"/>
<use x="1602.099609" xlink:href="#f"/>
<use x="1665.722656" xlink:href="#g"/>
<use x="1729.345703" xlink:href="#ac"/>
<use x="1792.822266" xlink:href="#t"/>
<use x="1856.445312" xlink:href="#l"/>
<use x="1917.96875" xlink:href="#aa"/>
<use x="1981.445312" xlink:href="#p"/>
<use x="2042.724609" xlink:href="#i"/>
<use x="2106.347656" xlink:href="#g"/>
<use x="2169.970703" xlink:href="#ab"/>
<use x="2224.951172" xlink:href="#n"/>
<use x="2288.574219" xlink:href="#t"/>
<use x="2352.197266" xlink:href="#aa"/>
<use x="2415.673828" xlink:href="#p"/>
<use x="2476.953125" xlink:href="#n"/>
<use x="2540.576172" xlink:href="#af"/>
<use x="2576.660156" xlink:href="#h"/>
<use x="2640.283203" xlink:href="#g"/>
<use x="2703.90625" xlink:href="#i"/>
<use x="2767.529297" xlink:href="#l"/>
<use x="2829.052734" xlink:href="#n"/>
<use x="2892.675781" xlink:href="#f"/>
<use x="2956.298828" xlink:href="#g"/>
<use x="3019.921875" xlink:href="#DejaVuSans-20"/>
<use x="3051.708984" xlink:href="#ag"/>
<use x="3110.888672" xlink:href="#o"/>
<use x="3162.988281" xlink:href="#c"/>
<use x="3194.775391" xlink:href="#DejaVuSans-20"/>
<use x="3226.5625" xlink:href="#h"/>
<use x="3290.185547" xlink:href="#c"/>
<use x="3321.972656" xlink:href="#b"/>
<use x="3385.595703" xlink:href="#g"/>
<use x="3449.21875" xlink:href="#c"/>
<use x="3481.005859" xlink:href="#e"/>
<use x="3544.628906" xlink:href="#p"/>
<use x="3605.908203" xlink:href="#e"/>
</g>
<defs>
<clipPath id="a">
<rect x="88.1" y="34.8" width="485" height="133"/>
</clipPath>
</defs>
</svg>
